%TF.GenerationSoftware,KiCad,Pcbnew,9.0.1*%
%TF.CreationDate,2025-06-18T14:20:43+03:00*%
%TF.ProjectId,H bridge,48206272-6964-4676-952e-6b696361645f,2.1v*%
%TF.SameCoordinates,Original*%
%TF.FileFunction,Copper,L1,Top*%
%TF.FilePolarity,Positive*%
%FSLAX46Y46*%
G04 Gerber Fmt 4.6, Leading zero omitted, Abs format (unit mm)*
G04 Created by KiCad (PCBNEW 9.0.1) date 2025-06-18 14:20:43*
%MOMM*%
%LPD*%
G01*
G04 APERTURE LIST*
G04 Aperture macros list*
%AMRoundRect*
0 Rectangle with rounded corners*
0 $1 Rounding radius*
0 $2 $3 $4 $5 $6 $7 $8 $9 X,Y pos of 4 corners*
0 Add a 4 corners polygon primitive as box body*
4,1,4,$2,$3,$4,$5,$6,$7,$8,$9,$2,$3,0*
0 Add four circle primitives for the rounded corners*
1,1,$1+$1,$2,$3*
1,1,$1+$1,$4,$5*
1,1,$1+$1,$6,$7*
1,1,$1+$1,$8,$9*
0 Add four rect primitives between the rounded corners*
20,1,$1+$1,$2,$3,$4,$5,0*
20,1,$1+$1,$4,$5,$6,$7,0*
20,1,$1+$1,$6,$7,$8,$9,0*
20,1,$1+$1,$8,$9,$2,$3,0*%
G04 Aperture macros list end*
%TA.AperFunction,ComponentPad*%
%ADD10C,1.600000*%
%TD*%
%TA.AperFunction,ComponentPad*%
%ADD11O,1.600000X1.600000*%
%TD*%
%TA.AperFunction,ComponentPad*%
%ADD12R,1.600000X1.600000*%
%TD*%
%TA.AperFunction,ComponentPad*%
%ADD13R,1.905000X2.000000*%
%TD*%
%TA.AperFunction,ComponentPad*%
%ADD14O,1.905000X2.000000*%
%TD*%
%TA.AperFunction,ComponentPad*%
%ADD15R,1.700000X1.700000*%
%TD*%
%TA.AperFunction,ComponentPad*%
%ADD16O,1.700000X1.700000*%
%TD*%
%TA.AperFunction,ComponentPad*%
%ADD17R,2.200000X2.200000*%
%TD*%
%TA.AperFunction,ComponentPad*%
%ADD18O,2.200000X2.200000*%
%TD*%
%TA.AperFunction,ComponentPad*%
%ADD19R,1.800000X1.800000*%
%TD*%
%TA.AperFunction,ComponentPad*%
%ADD20C,1.800000*%
%TD*%
%TA.AperFunction,ComponentPad*%
%ADD21C,1.508000*%
%TD*%
%TA.AperFunction,SMDPad,CuDef*%
%ADD22R,0.550000X1.600000*%
%TD*%
%TA.AperFunction,SMDPad,CuDef*%
%ADD23R,1.600000X0.550000*%
%TD*%
%TA.AperFunction,ComponentPad*%
%ADD24RoundRect,0.250000X-0.350000X-0.625000X0.350000X-0.625000X0.350000X0.625000X-0.350000X0.625000X0*%
%TD*%
%TA.AperFunction,ComponentPad*%
%ADD25O,1.200000X1.750000*%
%TD*%
%TA.AperFunction,ComponentPad*%
%ADD26C,1.500000*%
%TD*%
%TA.AperFunction,ComponentPad*%
%ADD27R,2.400000X2.400000*%
%TD*%
%TA.AperFunction,ComponentPad*%
%ADD28C,2.400000*%
%TD*%
%TA.AperFunction,ViaPad*%
%ADD29C,0.600000*%
%TD*%
%TA.AperFunction,Conductor*%
%ADD30C,1.000000*%
%TD*%
%TA.AperFunction,Conductor*%
%ADD31C,0.500000*%
%TD*%
G04 APERTURE END LIST*
D10*
%TO.P,R5,1*%
%TO.N,+15V*%
X194137500Y-87022500D03*
D11*
%TO.P,R5,2*%
%TO.N,Net-(D11-A)*%
X186517500Y-87022500D03*
%TD*%
D12*
%TO.P,C7,1*%
%TO.N,+5V*%
X199137500Y-87522500D03*
D10*
%TO.P,C7,2*%
%TO.N,GND*%
X199137500Y-89522500D03*
%TD*%
D13*
%TO.P,Q1,1,G*%
%TO.N,Net-(D2-A)*%
X131097500Y-64967500D03*
D14*
%TO.P,Q1,2,D*%
%TO.N,Net-(Q1-D)*%
X133637500Y-64967500D03*
%TO.P,Q1,3,S*%
%TO.N,Net-(J3-Pin_1)*%
X136177500Y-64967500D03*
%TD*%
D10*
%TO.P,R6,1*%
%TO.N,+5V*%
X116600000Y-99710000D03*
D11*
%TO.P,R6,2*%
%TO.N,RESET*%
X116600000Y-92090000D03*
%TD*%
D12*
%TO.P,U1,1,LO*%
%TO.N,Net-(D3-K)*%
X138637500Y-99847500D03*
D11*
%TO.P,U1,2,COM*%
%TO.N,GND*%
X138637500Y-97307500D03*
%TO.P,U1,3,VCC*%
%TO.N,+15V*%
X138637500Y-94767500D03*
%TO.P,U1,4,NC*%
%TO.N,unconnected-(U1-NC-Pad4)*%
X138637500Y-92227500D03*
%TO.P,U1,5,VS*%
%TO.N,Net-(J3-Pin_1)*%
X138637500Y-89687500D03*
%TO.P,U1,6,VB*%
%TO.N,Net-(D1-K)*%
X138637500Y-87147500D03*
%TO.P,U1,7,HO*%
%TO.N,Net-(D2-K)*%
X138637500Y-84607500D03*
%TO.P,U1,8,NC*%
%TO.N,unconnected-(U1-NC-Pad8)*%
X131017500Y-84607500D03*
%TO.P,U1,9,VDD*%
%TO.N,+5V*%
X131017500Y-87147500D03*
%TO.P,U1,10,HIN*%
%TO.N,5*%
X131017500Y-89687500D03*
%TO.P,U1,11,SD*%
%TO.N,GND*%
X131017500Y-92227500D03*
%TO.P,U1,12,LIN*%
%TO.N,6*%
X131017500Y-94767500D03*
%TO.P,U1,13,VSS*%
%TO.N,GND*%
X131017500Y-97307500D03*
%TO.P,U1,14,NC*%
%TO.N,unconnected-(U1-NC-Pad14)*%
X131017500Y-99847500D03*
%TD*%
D12*
%TO.P,D9,1,K*%
%TO.N,Net-(D9-K)*%
X160947500Y-72522500D03*
D11*
%TO.P,D9,2,A*%
%TO.N,Net-(D7-K)*%
X153327500Y-72522500D03*
%TD*%
D12*
%TO.P,D2,1,K*%
%TO.N,Net-(D2-K)*%
X137447500Y-72522500D03*
D11*
%TO.P,D2,2,A*%
%TO.N,Net-(D2-A)*%
X129827500Y-72522500D03*
%TD*%
D13*
%TO.P,Q4,1,G*%
%TO.N,Net-(D6-K)*%
X166057500Y-65022500D03*
D14*
%TO.P,Q4,2,D*%
%TO.N,Net-(J3-Pin_2)*%
X168597500Y-65022500D03*
%TO.P,Q4,3,S*%
%TO.N,GND*%
X171137500Y-65022500D03*
%TD*%
D12*
%TO.P,D8,1,K*%
%TO.N,Net-(D8-K)*%
X172197500Y-72522500D03*
D11*
%TO.P,D8,2,A*%
%TO.N,Net-(D6-K)*%
X164577500Y-72522500D03*
%TD*%
D10*
%TO.P,C6,1*%
%TO.N,GND*%
X125900000Y-103600000D03*
%TO.P,C6,2*%
%TO.N,Net-(U4-AREF)*%
X123400000Y-103600000D03*
%TD*%
%TO.P,R1,1*%
%TO.N,Net-(D2-K)*%
X137447500Y-69522500D03*
D11*
%TO.P,R1,2*%
%TO.N,Net-(D2-A)*%
X129827500Y-69522500D03*
%TD*%
D15*
%TO.P,J3,1,Pin_1*%
%TO.N,Net-(J3-Pin_1)*%
X119200000Y-73500000D03*
D16*
%TO.P,J3,2,Pin_2*%
%TO.N,Net-(J3-Pin_2)*%
X119200000Y-76040000D03*
%TD*%
D12*
%TO.P,C1,1*%
%TO.N,Net-(D1-K)*%
X143237500Y-87267387D03*
D10*
%TO.P,C1,2*%
%TO.N,Net-(J3-Pin_1)*%
X143237500Y-89267387D03*
%TD*%
D12*
%TO.P,D7,1,K*%
%TO.N,Net-(D7-K)*%
X153387500Y-76272500D03*
D11*
%TO.P,D7,2,A*%
%TO.N,GND*%
X161007500Y-76272500D03*
%TD*%
D12*
%TO.P,D5,1,K*%
%TO.N,Net-(D3-A)*%
X141827500Y-76272500D03*
D11*
%TO.P,D5,2,A*%
%TO.N,GND*%
X149447500Y-76272500D03*
%TD*%
D17*
%TO.P,D1,1,K*%
%TO.N,Net-(D1-K)*%
X125937500Y-69142500D03*
D18*
%TO.P,D1,2,A*%
%TO.N,+15V*%
X125937500Y-79302500D03*
%TD*%
D15*
%TO.P,J1,1,Pin_1*%
%TO.N,GND*%
X189912500Y-76772500D03*
D16*
%TO.P,J1,2,Pin_2*%
%TO.N,+15V*%
X187372500Y-76772500D03*
%TD*%
D12*
%TO.P,C2,1*%
%TO.N,Net-(D10-K)*%
X168037500Y-87467387D03*
D10*
%TO.P,C2,2*%
%TO.N,Net-(J3-Pin_2)*%
X168037500Y-89467387D03*
%TD*%
D15*
%TO.P,J4,1,Pin_1*%
%TO.N,GND*%
X195862500Y-104272500D03*
D16*
%TO.P,J4,2,Pin_2*%
%TO.N,+24V*%
X198402500Y-104272500D03*
%TD*%
D13*
%TO.P,U5,1,VI*%
%TO.N,+15V*%
X180057500Y-65022500D03*
D14*
%TO.P,U5,2,GND*%
%TO.N,GND*%
X182597500Y-65022500D03*
%TO.P,U5,3,VO*%
%TO.N,+5V*%
X185137500Y-65022500D03*
%TD*%
D15*
%TO.P,J6,1,Pin_1*%
%TO.N,A2*%
X177500000Y-104200000D03*
D16*
%TO.P,J6,2,Pin_2*%
%TO.N,+5V*%
X177500000Y-101660000D03*
%TD*%
D19*
%TO.P,D12,1,K*%
%TO.N,GND*%
X188907500Y-96022500D03*
D20*
%TO.P,D12,2,A*%
%TO.N,Net-(D12-A)*%
X186367500Y-96022500D03*
%TD*%
D13*
%TO.P,U3,1,VI*%
%TO.N,+24V*%
X193097500Y-65022500D03*
D14*
%TO.P,U3,2,GND*%
%TO.N,GND*%
X195637500Y-65022500D03*
%TO.P,U3,3,VO*%
%TO.N,+15V*%
X198177500Y-65022500D03*
%TD*%
D17*
%TO.P,D10,1,K*%
%TO.N,Net-(D10-K)*%
X176437500Y-79802500D03*
D18*
%TO.P,D10,2,A*%
%TO.N,+15V*%
X176437500Y-69642500D03*
%TD*%
D15*
%TO.P,J5,1,Pin_1*%
%TO.N,GND*%
X189525000Y-104250000D03*
D16*
%TO.P,J5,2,Pin_2*%
%TO.N,A2*%
X186985000Y-104250000D03*
%TO.P,J5,3,Pin_3*%
%TO.N,2*%
X184445000Y-104250000D03*
%TD*%
D12*
%TO.P,D4,1,K*%
%TO.N,Net-(D2-A)*%
X129827500Y-76272500D03*
D11*
%TO.P,D4,2,A*%
%TO.N,GND*%
X137447500Y-76272500D03*
%TD*%
D10*
%TO.P,R7,1*%
%TO.N,+5V*%
X194137500Y-90522500D03*
D11*
%TO.P,R7,2*%
%TO.N,Net-(D12-A)*%
X186517500Y-90522500D03*
%TD*%
D10*
%TO.P,R4,1*%
%TO.N,Net-(D9-K)*%
X160947500Y-69522500D03*
D11*
%TO.P,R4,2*%
%TO.N,Net-(D7-K)*%
X153327500Y-69522500D03*
%TD*%
D12*
%TO.P,C4,1*%
%TO.N,+15V*%
X199137500Y-94522500D03*
D10*
%TO.P,C4,2*%
%TO.N,GND*%
X199137500Y-96522500D03*
%TD*%
%TO.P,R2,1*%
%TO.N,Net-(D3-K)*%
X149447500Y-69522500D03*
D11*
%TO.P,R2,2*%
%TO.N,Net-(D3-A)*%
X141827500Y-69522500D03*
%TD*%
D10*
%TO.P,C5,1*%
%TO.N,+15V*%
X193637500Y-93272500D03*
%TO.P,C5,2*%
%TO.N,GND*%
X193637500Y-98272500D03*
%TD*%
D12*
%TO.P,U2,1,LO*%
%TO.N,Net-(D8-K)*%
X162737500Y-99822500D03*
D11*
%TO.P,U2,2,COM*%
%TO.N,GND*%
X162737500Y-97282500D03*
%TO.P,U2,3,VCC*%
%TO.N,+15V*%
X162737500Y-94742500D03*
%TO.P,U2,4,NC*%
%TO.N,unconnected-(U2-NC-Pad4)*%
X162737500Y-92202500D03*
%TO.P,U2,5,VS*%
%TO.N,Net-(J3-Pin_2)*%
X162737500Y-89662500D03*
%TO.P,U2,6,VB*%
%TO.N,Net-(D10-K)*%
X162737500Y-87122500D03*
%TO.P,U2,7,HO*%
%TO.N,Net-(D9-K)*%
X162737500Y-84582500D03*
%TO.P,U2,8,NC*%
%TO.N,unconnected-(U2-NC-Pad8)*%
X155117500Y-84582500D03*
%TO.P,U2,9,VDD*%
%TO.N,+5V*%
X155117500Y-87122500D03*
%TO.P,U2,10,HIN*%
%TO.N,6*%
X155117500Y-89662500D03*
%TO.P,U2,11,SD*%
%TO.N,GND*%
X155117500Y-92202500D03*
%TO.P,U2,12,LIN*%
%TO.N,5*%
X155117500Y-94742500D03*
%TO.P,U2,13,VSS*%
%TO.N,GND*%
X155117500Y-97282500D03*
%TO.P,U2,14,NC*%
%TO.N,unconnected-(U2-NC-Pad14)*%
X155117500Y-99822500D03*
%TD*%
D21*
%TO.P,OFF/ON,1,A*%
%TO.N,Net-(Q1-D)*%
X206637500Y-88922500D03*
%TO.P,OFF/ON,2,B*%
%TO.N,+24V*%
X206637500Y-91422500D03*
%TO.P,OFF/ON,3*%
%TO.N,N/C*%
X206637500Y-93922500D03*
%TD*%
D22*
%TO.P,U4,1,PD3*%
%TO.N,3*%
X126950000Y-91800000D03*
%TO.P,U4,2,PD4*%
%TO.N,4*%
X126150000Y-91800000D03*
%TO.P,U4,3,GND*%
%TO.N,GND*%
X125350000Y-91800000D03*
%TO.P,U4,4,VCC*%
%TO.N,+5V*%
X124550000Y-91800000D03*
%TO.P,U4,5,GND*%
%TO.N,GND*%
X123750000Y-91800000D03*
%TO.P,U4,6,VCC*%
%TO.N,+5V*%
X122950000Y-91800000D03*
%TO.P,U4,7,XTAL1/PB6*%
%TO.N,XTAL1*%
X122150000Y-91800000D03*
%TO.P,U4,8,XTAL2/PB7*%
%TO.N,XTAL2*%
X121350000Y-91800000D03*
D23*
%TO.P,U4,9,PD5*%
%TO.N,5*%
X119900000Y-93250000D03*
%TO.P,U4,10,PD6*%
%TO.N,6*%
X119900000Y-94050000D03*
%TO.P,U4,11,PD7*%
%TO.N,7*%
X119900000Y-94850000D03*
%TO.P,U4,12,PB0*%
%TO.N,8*%
X119900000Y-95650000D03*
%TO.P,U4,13,PB1*%
%TO.N,9*%
X119900000Y-96450000D03*
%TO.P,U4,14,PB2*%
%TO.N,10{slash}SS*%
X119900000Y-97250000D03*
%TO.P,U4,15,PB3*%
%TO.N,11{slash}MOSI*%
X119900000Y-98050000D03*
%TO.P,U4,16,PB4*%
%TO.N,12{slash}MISO*%
X119900000Y-98850000D03*
D22*
%TO.P,U4,17,PB5*%
%TO.N,13{slash}SCK*%
X121350000Y-100300000D03*
%TO.P,U4,18,AVCC*%
%TO.N,+5V*%
X122150000Y-100300000D03*
%TO.P,U4,19,ADC6*%
%TO.N,A6*%
X122950000Y-100300000D03*
%TO.P,U4,20,AREF*%
%TO.N,Net-(U4-AREF)*%
X123750000Y-100300000D03*
%TO.P,U4,21,GND*%
%TO.N,GND*%
X124550000Y-100300000D03*
%TO.P,U4,22,ADC7*%
%TO.N,A7*%
X125350000Y-100300000D03*
%TO.P,U4,23,PC0*%
%TO.N,A0*%
X126150000Y-100300000D03*
%TO.P,U4,24,PC1*%
%TO.N,A1*%
X126950000Y-100300000D03*
D23*
%TO.P,U4,25,PC2*%
%TO.N,A2*%
X128400000Y-98850000D03*
%TO.P,U4,26,PC3*%
%TO.N,A3*%
X128400000Y-98050000D03*
%TO.P,U4,27,PC4*%
%TO.N,A4*%
X128400000Y-97250000D03*
%TO.P,U4,28,PC5*%
%TO.N,A5*%
X128400000Y-96450000D03*
%TO.P,U4,29,~{RESET}/PC6*%
%TO.N,RESET*%
X128400000Y-95650000D03*
%TO.P,U4,30,PD0*%
%TO.N,0*%
X128400000Y-94850000D03*
%TO.P,U4,31,PD1*%
%TO.N,1*%
X128400000Y-94050000D03*
%TO.P,U4,32,PD2*%
%TO.N,2*%
X128400000Y-93250000D03*
%TD*%
D24*
%TO.P,J7,1,Pin_1*%
%TO.N,+5V*%
X124750000Y-107450000D03*
D25*
%TO.P,J7,2,Pin_2*%
%TO.N,GND*%
X126750000Y-107450000D03*
%TO.P,J7,3,Pin_3*%
%TO.N,13{slash}SCK*%
X128750000Y-107450000D03*
%TO.P,J7,4,Pin_4*%
%TO.N,12{slash}MISO*%
X130750000Y-107450000D03*
%TO.P,J7,5,Pin_5*%
%TO.N,11{slash}MOSI*%
X132750000Y-107450000D03*
%TO.P,J7,6,Pin_6*%
%TO.N,RESET*%
X134750000Y-107450000D03*
%TD*%
D26*
%TO.P,Y1,1,1*%
%TO.N,XTAL2*%
X121150000Y-87650000D03*
%TO.P,Y1,2,2*%
%TO.N,XTAL1*%
X126050000Y-87650000D03*
%TD*%
D12*
%TO.P,D6,1,K*%
%TO.N,Net-(D6-K)*%
X164577500Y-76272500D03*
D11*
%TO.P,D6,2,A*%
%TO.N,GND*%
X172197500Y-76272500D03*
%TD*%
D10*
%TO.P,C9,1*%
%TO.N,XTAL2*%
X121150000Y-83400000D03*
%TO.P,C9,2*%
%TO.N,GND*%
X118650000Y-83400000D03*
%TD*%
%TO.P,C8,1*%
%TO.N,XTAL1*%
X126000000Y-83400000D03*
%TO.P,C8,2*%
%TO.N,GND*%
X123500000Y-83400000D03*
%TD*%
D27*
%TO.P,C3,1*%
%TO.N,+24V*%
X202387500Y-80272500D03*
D28*
%TO.P,C3,2*%
%TO.N,GND*%
X202387500Y-72772500D03*
%TD*%
D13*
%TO.P,Q3,1,G*%
%TO.N,Net-(D7-K)*%
X154597500Y-64967500D03*
D14*
%TO.P,Q3,2,D*%
%TO.N,Net-(Q1-D)*%
X157137500Y-64967500D03*
%TO.P,Q3,3,S*%
%TO.N,Net-(J3-Pin_2)*%
X159677500Y-64967500D03*
%TD*%
D19*
%TO.P,D11,1,K*%
%TO.N,GND*%
X194157500Y-83022500D03*
D20*
%TO.P,D11,2,A*%
%TO.N,Net-(D11-A)*%
X191617500Y-83022500D03*
%TD*%
D12*
%TO.P,D3,1,K*%
%TO.N,Net-(D3-K)*%
X149507500Y-72522500D03*
D11*
%TO.P,D3,2,A*%
%TO.N,Net-(D3-A)*%
X141887500Y-72522500D03*
%TD*%
D13*
%TO.P,Q2,1,G*%
%TO.N,Net-(D3-A)*%
X143097500Y-64967500D03*
D14*
%TO.P,Q2,2,D*%
%TO.N,Net-(J3-Pin_1)*%
X145637500Y-64967500D03*
%TO.P,Q2,3,S*%
%TO.N,GND*%
X148177500Y-64967500D03*
%TD*%
D15*
%TO.P,J2,1,Pin_1*%
%TO.N,GND*%
X170000000Y-104272500D03*
D16*
%TO.P,J2,2,Pin_2*%
%TO.N,+5V*%
X172540000Y-104272500D03*
%TD*%
D10*
%TO.P,R3,1*%
%TO.N,Net-(D8-K)*%
X172197500Y-69522500D03*
D11*
%TO.P,R3,2*%
%TO.N,Net-(D6-K)*%
X164577500Y-69522500D03*
%TD*%
D29*
%TO.N,GND*%
X123000000Y-93150000D03*
%TO.N,RESET*%
X127200000Y-95650000D03*
%TO.N,5*%
X121850000Y-93850000D03*
X126100000Y-90450000D03*
%TO.N,2*%
X126300000Y-96800000D03*
%TO.N,A2*%
X128400000Y-99700000D03*
%TO.N,6*%
X121700000Y-94800000D03*
%TO.N,13{slash}SCK*%
X120200000Y-100300000D03*
%TO.N,11{slash}MOSI*%
X121750000Y-98050000D03*
%TO.N,12{slash}MISO*%
X121450000Y-98850000D03*
%TD*%
D30*
%TO.N,GND*%
X138637500Y-97307500D02*
X155092500Y-97307500D01*
X170000000Y-101635000D02*
X170000000Y-104272500D01*
X165647500Y-97282500D02*
X170000000Y-101635000D01*
X194157500Y-79292500D02*
X194157500Y-83022500D01*
X170000000Y-104272500D02*
X170000000Y-105400000D01*
D31*
X123575000Y-93150000D02*
X123750000Y-92975000D01*
D30*
X195862500Y-104272500D02*
X195862500Y-99797500D01*
X147637500Y-65507500D02*
X148177500Y-64967500D01*
X148177500Y-64967500D02*
X148177500Y-63482500D01*
X162737500Y-97282500D02*
X158137500Y-97282500D01*
X182597500Y-63062500D02*
X183137500Y-62522500D01*
X161007500Y-76272500D02*
X162857500Y-74422500D01*
X188907500Y-96022500D02*
X191137500Y-96022500D01*
D31*
X123000000Y-93850000D02*
X123000000Y-93150000D01*
D30*
X171137500Y-65022500D02*
X171137500Y-66022500D01*
X132542500Y-92227500D02*
X133237500Y-92922500D01*
X204937500Y-84722500D02*
X204937500Y-75322500D01*
X170000000Y-105400000D02*
X171122500Y-106522500D01*
X189647500Y-104272500D02*
X195862500Y-104272500D01*
X197637500Y-83022500D02*
X202137500Y-87522500D01*
X194337500Y-98272500D02*
X195862500Y-99797500D01*
X137447500Y-76272500D02*
X139297500Y-74422500D01*
X201637500Y-92022500D02*
X199137500Y-89522500D01*
X171137500Y-65022500D02*
X171137500Y-63022500D01*
X199137500Y-89522500D02*
X200137500Y-89522500D01*
X194157500Y-83022500D02*
X197637500Y-83022500D01*
X200137500Y-89522500D02*
X202137500Y-87522500D01*
X191137500Y-96022500D02*
X193387500Y-98272500D01*
D31*
X125900000Y-103600000D02*
X124550000Y-102250000D01*
D30*
X162857500Y-74422500D02*
X170347500Y-74422500D01*
X170387500Y-74462500D02*
X172197500Y-76272500D01*
X149447500Y-76272500D02*
X149447500Y-76232500D01*
D31*
X123000000Y-93150000D02*
X125175000Y-93150000D01*
D30*
X189620000Y-104300000D02*
X189647500Y-104272500D01*
X199137500Y-96522500D02*
X200268870Y-96522500D01*
X201637500Y-95153870D02*
X201637500Y-92022500D01*
X131017500Y-92227500D02*
X132542500Y-92227500D01*
X139297500Y-74422500D02*
X147637500Y-74422500D01*
X158137500Y-97282500D02*
X155117500Y-97282500D01*
X148177500Y-63482500D02*
X149137500Y-62522500D01*
X195042500Y-62522500D02*
X195637500Y-63117500D01*
X202137500Y-87522500D02*
X204937500Y-84722500D01*
X196637500Y-99022500D02*
X199137500Y-96522500D01*
D31*
X124550000Y-95400000D02*
X123000000Y-93850000D01*
D30*
X189620000Y-105480000D02*
X189620000Y-104300000D01*
X149447500Y-76232500D02*
X147637500Y-74422500D01*
X195862500Y-99797500D02*
X196637500Y-99022500D01*
D31*
X125350000Y-92975000D02*
X125350000Y-91800000D01*
D30*
X158137500Y-95222500D02*
X158137500Y-97282500D01*
X133237500Y-97307500D02*
X138637500Y-97307500D01*
X171122500Y-106522500D02*
X188577500Y-106522500D01*
X200268870Y-96522500D02*
X201637500Y-95153870D01*
X170637500Y-62522500D02*
X171137500Y-63022500D01*
X182002500Y-62522500D02*
X182597500Y-63117500D01*
X191637500Y-76772500D02*
X194157500Y-79292500D01*
X131017500Y-97307500D02*
X133237500Y-97307500D01*
X133237500Y-96600000D02*
X133237500Y-97307500D01*
X189912500Y-76772500D02*
X191637500Y-76772500D01*
X155092500Y-97307500D02*
X155117500Y-97282500D01*
D31*
X124550000Y-102250000D02*
X124550000Y-100300000D01*
D30*
X126750000Y-104450000D02*
X125900000Y-103600000D01*
X195637500Y-66022500D02*
X195637500Y-65022500D01*
X195637500Y-63117500D02*
X195637500Y-65022500D01*
X171137500Y-63022500D02*
X171637500Y-62522500D01*
D31*
X125175000Y-93150000D02*
X125350000Y-92975000D01*
D30*
X193387500Y-98272500D02*
X194337500Y-98272500D01*
X162737500Y-97282500D02*
X165647500Y-97282500D01*
X182597500Y-63117500D02*
X182597500Y-65022500D01*
X170387500Y-66772500D02*
X170387500Y-74462500D01*
X188577500Y-106522500D02*
X189620000Y-105480000D01*
X182597500Y-65022500D02*
X182597500Y-63062500D01*
X171637500Y-62522500D02*
X182002500Y-62522500D01*
X149137500Y-62522500D02*
X170637500Y-62522500D01*
D31*
X123750000Y-92975000D02*
X123750000Y-91800000D01*
D30*
X133237500Y-92922500D02*
X133237500Y-96600000D01*
X171137500Y-66022500D02*
X170387500Y-66772500D01*
D31*
X124550000Y-100300000D02*
X124550000Y-95400000D01*
D30*
X183137500Y-62522500D02*
X195042500Y-62522500D01*
X126750000Y-107450000D02*
X126750000Y-104450000D01*
X170347500Y-74422500D02*
X170387500Y-74462500D01*
X202387500Y-72772500D02*
X195637500Y-66022500D01*
X204937500Y-75322500D02*
X202387500Y-72772500D01*
D31*
X123000000Y-93150000D02*
X123575000Y-93150000D01*
D30*
X147637500Y-74422500D02*
X147637500Y-65507500D01*
X155117500Y-92202500D02*
X158137500Y-95222500D01*
D31*
%TO.N,+5V*%
X118100000Y-94100000D02*
X118100000Y-85950000D01*
X128700000Y-84830000D02*
X131017500Y-87147500D01*
X122950000Y-90689950D02*
X123089950Y-90550000D01*
X118100000Y-85950000D02*
X116900000Y-84750000D01*
X128700000Y-83350000D02*
X128700000Y-84830000D01*
X116600000Y-95600000D02*
X118100000Y-94100000D01*
X116600000Y-99710000D02*
X118590000Y-101700000D01*
X121925000Y-104625000D02*
X124750000Y-107450000D01*
X124475000Y-90550000D02*
X124550000Y-90625000D01*
D30*
X199137500Y-87522500D02*
X197137500Y-87522500D01*
D31*
X121925000Y-101700000D02*
X121925000Y-104625000D01*
X116900000Y-82650000D02*
X117900000Y-81650000D01*
X122150000Y-101475000D02*
X122150000Y-100300000D01*
X122950000Y-91800000D02*
X122950000Y-90689950D01*
X116900000Y-84750000D02*
X116900000Y-82650000D01*
X117900000Y-81650000D02*
X127000000Y-81650000D01*
X123089950Y-90550000D02*
X124475000Y-90550000D01*
X131017500Y-87182500D02*
X131017500Y-87147500D01*
X118590000Y-101700000D02*
X121925000Y-101700000D01*
X116600000Y-99710000D02*
X116600000Y-95600000D01*
X122150000Y-101475000D02*
X121925000Y-101700000D01*
X125925000Y-89250000D02*
X128950000Y-89250000D01*
X124550000Y-90625000D02*
X125925000Y-89250000D01*
X127000000Y-81650000D02*
X128700000Y-83350000D01*
X128950000Y-89250000D02*
X131017500Y-87182500D01*
D30*
X197137500Y-87522500D02*
X194137500Y-90522500D01*
D31*
X124550000Y-91800000D02*
X124550000Y-90625000D01*
D30*
%TO.N,+15V*%
X162737500Y-94742500D02*
X161237500Y-93242500D01*
X161237500Y-93242500D02*
X161237500Y-88581179D01*
X127135000Y-80500000D02*
X125937500Y-79302500D01*
X161237500Y-88581179D02*
X153156321Y-80500000D01*
X153156321Y-80500000D02*
X127135000Y-80500000D01*
%TO.N,Net-(D10-K)*%
X176437500Y-79802500D02*
X176437500Y-81722500D01*
X170692613Y-87467387D02*
X168037500Y-87467387D01*
X176437500Y-81722500D02*
X170692613Y-87467387D01*
%TO.N,Net-(J3-Pin_1)*%
X119200000Y-71500000D02*
X123550000Y-67150000D01*
X137137500Y-62522500D02*
X144637500Y-62522500D01*
X136177500Y-64967500D02*
X136177500Y-63482500D01*
X119200000Y-73500000D02*
X119200000Y-71500000D01*
X144637500Y-62522500D02*
X145637500Y-63522500D01*
X133995000Y-67150000D02*
X136177500Y-64967500D01*
X145637500Y-63522500D02*
X145637500Y-64967500D01*
X136177500Y-63482500D02*
X137137500Y-62522500D01*
X123550000Y-67150000D02*
X133995000Y-67150000D01*
%TO.N,Net-(J3-Pin_2)*%
X159677500Y-66782500D02*
X159677500Y-64967500D01*
X154360000Y-78700000D02*
X159037500Y-74022500D01*
X119200000Y-76040000D02*
X126090000Y-76040000D01*
X159037500Y-67422500D02*
X159677500Y-66782500D01*
X126090000Y-76040000D02*
X128750000Y-78700000D01*
X159037500Y-74022500D02*
X159037500Y-67422500D01*
X128750000Y-78700000D02*
X154360000Y-78700000D01*
D31*
%TO.N,XTAL1*%
X125000000Y-87650000D02*
X126050000Y-87650000D01*
X126050000Y-87650000D02*
X126050000Y-83450000D01*
X126050000Y-83450000D02*
X126000000Y-83400000D01*
X122150000Y-91800000D02*
X122150000Y-90500000D01*
X122150000Y-90500000D02*
X125000000Y-87650000D01*
%TO.N,XTAL2*%
X121150000Y-88850000D02*
X121150000Y-87650000D01*
X121150000Y-87650000D02*
X121150000Y-83400000D01*
X121350000Y-89050000D02*
X121150000Y-88850000D01*
X121350000Y-91800000D02*
X121350000Y-89050000D01*
%TO.N,RESET*%
X129650000Y-95900000D02*
X129400000Y-95650000D01*
X129400000Y-95650000D02*
X128400000Y-95650000D01*
X134750000Y-107450000D02*
X134750000Y-103900000D01*
X129650000Y-100350000D02*
X129650000Y-95900000D01*
X131000000Y-101700000D02*
X129650000Y-100350000D01*
X132550000Y-101700000D02*
X131000000Y-101700000D01*
X134750000Y-103900000D02*
X132550000Y-101700000D01*
X127200000Y-95650000D02*
X128400000Y-95650000D01*
D30*
%TO.N,5*%
X137160000Y-82100000D02*
X146950000Y-82100000D01*
D31*
X129762500Y-89687500D02*
X131017500Y-89687500D01*
X121850000Y-93850000D02*
X121900000Y-93850000D01*
X121900000Y-93850000D02*
X121850000Y-93800000D01*
D30*
X149355000Y-92105000D02*
X151992500Y-94742500D01*
D31*
X121850000Y-93800000D02*
X121850000Y-93850000D01*
D30*
X133272500Y-89687500D02*
X135055000Y-87905000D01*
X135055000Y-87905000D02*
X135055000Y-84205000D01*
X131017500Y-89687500D02*
X133272500Y-89687500D01*
D31*
X119900000Y-93250000D02*
X121300000Y-93250000D01*
D30*
X149355000Y-84505000D02*
X149355000Y-92105000D01*
X151992500Y-94742500D02*
X155117500Y-94742500D01*
D31*
X126100000Y-90450000D02*
X126600000Y-89950000D01*
D30*
X135055000Y-84205000D02*
X137160000Y-82100000D01*
D31*
X121300000Y-93250000D02*
X121850000Y-93800000D01*
X126600000Y-89950000D02*
X129500000Y-89950000D01*
D30*
X146950000Y-82100000D02*
X149355000Y-84505000D01*
D31*
X129500000Y-89950000D02*
X129762500Y-89687500D01*
%TO.N,2*%
X127450000Y-93250000D02*
X126300000Y-94400000D01*
X128400000Y-93250000D02*
X127450000Y-93250000D01*
X126300000Y-94400000D02*
X126300000Y-96800000D01*
%TO.N,A2*%
X128400000Y-98850000D02*
X128400000Y-99700000D01*
%TO.N,6*%
X119900000Y-94050000D02*
X120950000Y-94050000D01*
X120950000Y-94050000D02*
X121700000Y-94800000D01*
%TO.N,13{slash}SCK*%
X121350000Y-100300000D02*
X120200000Y-100300000D01*
X120200000Y-100300000D02*
X120300000Y-100300000D01*
%TO.N,11{slash}MOSI*%
X121750000Y-98050000D02*
X119900000Y-98050000D01*
%TO.N,12{slash}MISO*%
X121450000Y-98850000D02*
X119900000Y-98850000D01*
%TO.N,Net-(U4-AREF)*%
X123400000Y-102600000D02*
X123750000Y-102250000D01*
X123750000Y-102250000D02*
X123750000Y-100300000D01*
X123400000Y-103600000D02*
X123400000Y-102600000D01*
%TD*%
%TA.AperFunction,Conductor*%
%TO.N,GND*%
G36*
X206140202Y-60023117D02*
G01*
X206524271Y-60039886D01*
X206535006Y-60040826D01*
X206913471Y-60090652D01*
X206924097Y-60092525D01*
X207296784Y-60175148D01*
X207307210Y-60177942D01*
X207671265Y-60292727D01*
X207681411Y-60296420D01*
X208034078Y-60442500D01*
X208043869Y-60447066D01*
X208382442Y-60623316D01*
X208391810Y-60628724D01*
X208713744Y-60833818D01*
X208722605Y-60840023D01*
X209025430Y-61072389D01*
X209033717Y-61079343D01*
X209315135Y-61337215D01*
X209322784Y-61344864D01*
X209580656Y-61626282D01*
X209587610Y-61634569D01*
X209819976Y-61937394D01*
X209826181Y-61946255D01*
X210031275Y-62268189D01*
X210036683Y-62277557D01*
X210212930Y-62616123D01*
X210217502Y-62625927D01*
X210363575Y-62978578D01*
X210367275Y-62988744D01*
X210482054Y-63352778D01*
X210484854Y-63363227D01*
X210567471Y-63735889D01*
X210569349Y-63746542D01*
X210619171Y-64124973D01*
X210620114Y-64135749D01*
X210636882Y-64519797D01*
X210637000Y-64525206D01*
X210637000Y-104519793D01*
X210636882Y-104525202D01*
X210620114Y-104909250D01*
X210619171Y-104920026D01*
X210569349Y-105298457D01*
X210567471Y-105309110D01*
X210484854Y-105681772D01*
X210482054Y-105692221D01*
X210367275Y-106056255D01*
X210363575Y-106066421D01*
X210217502Y-106419072D01*
X210212930Y-106428876D01*
X210036683Y-106767442D01*
X210031275Y-106776810D01*
X209826181Y-107098744D01*
X209819976Y-107107605D01*
X209587610Y-107410430D01*
X209580656Y-107418717D01*
X209322784Y-107700135D01*
X209315135Y-107707784D01*
X209033717Y-107965656D01*
X209025430Y-107972610D01*
X208722605Y-108204976D01*
X208713744Y-108211181D01*
X208391810Y-108416275D01*
X208382442Y-108421683D01*
X208043876Y-108597930D01*
X208034072Y-108602502D01*
X207681421Y-108748575D01*
X207671255Y-108752275D01*
X207307221Y-108867054D01*
X207296772Y-108869854D01*
X206924110Y-108952471D01*
X206913457Y-108954349D01*
X206535026Y-109004171D01*
X206524250Y-109005114D01*
X206140203Y-109021882D01*
X206134794Y-109022000D01*
X135102441Y-109022000D01*
X135035402Y-109002315D01*
X134989647Y-108949511D01*
X134979703Y-108880353D01*
X135008728Y-108816797D01*
X135064122Y-108780069D01*
X135172445Y-108744873D01*
X135326788Y-108666232D01*
X135466928Y-108564414D01*
X135589414Y-108441928D01*
X135691232Y-108301788D01*
X135769873Y-108147445D01*
X135823402Y-107982701D01*
X135850500Y-107811611D01*
X135850500Y-107088389D01*
X135823402Y-106917299D01*
X135769873Y-106752555D01*
X135691232Y-106598212D01*
X135589414Y-106458072D01*
X135536819Y-106405477D01*
X135503334Y-106344154D01*
X135500500Y-106317796D01*
X135500500Y-104166213D01*
X171189500Y-104166213D01*
X171189500Y-104378786D01*
X171219189Y-104566239D01*
X171222754Y-104588743D01*
X171281132Y-104768412D01*
X171288444Y-104790914D01*
X171384951Y-104980320D01*
X171509890Y-105152286D01*
X171660213Y-105302609D01*
X171832179Y-105427548D01*
X171832181Y-105427549D01*
X171832184Y-105427551D01*
X172021588Y-105524057D01*
X172223757Y-105589746D01*
X172433713Y-105623000D01*
X172433714Y-105623000D01*
X172646286Y-105623000D01*
X172646287Y-105623000D01*
X172856243Y-105589746D01*
X173058412Y-105524057D01*
X173247816Y-105427551D01*
X173278789Y-105405048D01*
X173419786Y-105302609D01*
X173419788Y-105302606D01*
X173419792Y-105302604D01*
X173570104Y-105152292D01*
X173570106Y-105152288D01*
X173570109Y-105152286D01*
X173695048Y-104980320D01*
X173695047Y-104980320D01*
X173695051Y-104980316D01*
X173791557Y-104790912D01*
X173857246Y-104588743D01*
X173890500Y-104378787D01*
X173890500Y-104166213D01*
X173857246Y-103956257D01*
X173791557Y-103754088D01*
X173695051Y-103564684D01*
X173695049Y-103564681D01*
X173695048Y-103564679D01*
X173570109Y-103392713D01*
X173419786Y-103242390D01*
X173247820Y-103117451D01*
X173058414Y-103020944D01*
X173058413Y-103020943D01*
X173058412Y-103020943D01*
X172856243Y-102955254D01*
X172856241Y-102955253D01*
X172856240Y-102955253D01*
X172694957Y-102929708D01*
X172646287Y-102922000D01*
X172433713Y-102922000D01*
X172385042Y-102929708D01*
X172223760Y-102955253D01*
X172021585Y-103020944D01*
X171832179Y-103117451D01*
X171660213Y-103242390D01*
X171509890Y-103392713D01*
X171384951Y-103564679D01*
X171288444Y-103754085D01*
X171288443Y-103754087D01*
X171288443Y-103754088D01*
X171273603Y-103799762D01*
X171222753Y-103956260D01*
X171189500Y-104166213D01*
X135500500Y-104166213D01*
X135500500Y-103826079D01*
X135471659Y-103681092D01*
X135471658Y-103681091D01*
X135471658Y-103681087D01*
X135445749Y-103618536D01*
X135415087Y-103544511D01*
X135415085Y-103544507D01*
X135415084Y-103544505D01*
X135367213Y-103472861D01*
X135367211Y-103472858D01*
X135332954Y-103421586D01*
X135332952Y-103421584D01*
X133547891Y-101636522D01*
X133465082Y-101553713D01*
X176149500Y-101553713D01*
X176149500Y-101766286D01*
X176179138Y-101953416D01*
X176182754Y-101976243D01*
X176229978Y-102121584D01*
X176248444Y-102178414D01*
X176344951Y-102367820D01*
X176469890Y-102539786D01*
X176583430Y-102653326D01*
X176616915Y-102714649D01*
X176611931Y-102784341D01*
X176570059Y-102840274D01*
X176539083Y-102857189D01*
X176407669Y-102906203D01*
X176407664Y-102906206D01*
X176292455Y-102992452D01*
X176292452Y-102992455D01*
X176206206Y-103107664D01*
X176206202Y-103107671D01*
X176155908Y-103242517D01*
X176150216Y-103295465D01*
X176149501Y-103302123D01*
X176149500Y-103302135D01*
X176149500Y-105097870D01*
X176149501Y-105097876D01*
X176155908Y-105157483D01*
X176206202Y-105292328D01*
X176206206Y-105292335D01*
X176292452Y-105407544D01*
X176292455Y-105407547D01*
X176407664Y-105493793D01*
X176407671Y-105493797D01*
X176542517Y-105544091D01*
X176542516Y-105544091D01*
X176549444Y-105544835D01*
X176602127Y-105550500D01*
X178397872Y-105550499D01*
X178457483Y-105544091D01*
X178592331Y-105493796D01*
X178707546Y-105407546D01*
X178793796Y-105292331D01*
X178844091Y-105157483D01*
X178850500Y-105097873D01*
X178850499Y-104143713D01*
X183094500Y-104143713D01*
X183094500Y-104356286D01*
X183121253Y-104525202D01*
X183127754Y-104566243D01*
X183187461Y-104750002D01*
X183193444Y-104768414D01*
X183289951Y-104957820D01*
X183414890Y-105129786D01*
X183565213Y-105280109D01*
X183737179Y-105405048D01*
X183737181Y-105405049D01*
X183737184Y-105405051D01*
X183926588Y-105501557D01*
X184128757Y-105567246D01*
X184338713Y-105600500D01*
X184338714Y-105600500D01*
X184551286Y-105600500D01*
X184551287Y-105600500D01*
X184761243Y-105567246D01*
X184963412Y-105501557D01*
X185152816Y-105405051D01*
X185181398Y-105384285D01*
X185324786Y-105280109D01*
X185324788Y-105280106D01*
X185324792Y-105280104D01*
X185475104Y-105129792D01*
X185475106Y-105129788D01*
X185475109Y-105129786D01*
X185584086Y-104979789D01*
X185600051Y-104957816D01*
X185604514Y-104949054D01*
X185652488Y-104898259D01*
X185720308Y-104881463D01*
X185786444Y-104903999D01*
X185825486Y-104949056D01*
X185829951Y-104957820D01*
X185954890Y-105129786D01*
X186105213Y-105280109D01*
X186277179Y-105405048D01*
X186277181Y-105405049D01*
X186277184Y-105405051D01*
X186466588Y-105501557D01*
X186668757Y-105567246D01*
X186878713Y-105600500D01*
X186878714Y-105600500D01*
X187091286Y-105600500D01*
X187091287Y-105600500D01*
X187301243Y-105567246D01*
X187503412Y-105501557D01*
X187692816Y-105405051D01*
X187721398Y-105384285D01*
X187864786Y-105280109D01*
X187864788Y-105280106D01*
X187864792Y-105280104D01*
X188015104Y-105129792D01*
X188015106Y-105129788D01*
X188015109Y-105129786D01*
X188124086Y-104979789D01*
X188140051Y-104957816D01*
X188236557Y-104768412D01*
X188302246Y-104566243D01*
X188335500Y-104356287D01*
X188335500Y-104166213D01*
X197052000Y-104166213D01*
X197052000Y-104378786D01*
X197081689Y-104566239D01*
X197085254Y-104588743D01*
X197143632Y-104768412D01*
X197150944Y-104790914D01*
X197247451Y-104980320D01*
X197372390Y-105152286D01*
X197522713Y-105302609D01*
X197694679Y-105427548D01*
X197694681Y-105427549D01*
X197694684Y-105427551D01*
X197884088Y-105524057D01*
X198086257Y-105589746D01*
X198296213Y-105623000D01*
X198296214Y-105623000D01*
X198508786Y-105623000D01*
X198508787Y-105623000D01*
X198718743Y-105589746D01*
X198920912Y-105524057D01*
X199110316Y-105427551D01*
X199141289Y-105405048D01*
X199282286Y-105302609D01*
X199282288Y-105302606D01*
X199282292Y-105302604D01*
X199432604Y-105152292D01*
X199432606Y-105152288D01*
X199432609Y-105152286D01*
X199557548Y-104980320D01*
X199557547Y-104980320D01*
X199557551Y-104980316D01*
X199597857Y-104901211D01*
X204787000Y-104901211D01*
X204787000Y-105143788D01*
X204818661Y-105384285D01*
X204881447Y-105618604D01*
X204974273Y-105842705D01*
X204974276Y-105842712D01*
X205095564Y-106052789D01*
X205095566Y-106052792D01*
X205095567Y-106052793D01*
X205243233Y-106245236D01*
X205243239Y-106245243D01*
X205414756Y-106416760D01*
X205414763Y-106416766D01*
X205468592Y-106458070D01*
X205607211Y-106564436D01*
X205817288Y-106685724D01*
X205978633Y-106752555D01*
X206037189Y-106776810D01*
X206041400Y-106778554D01*
X206275711Y-106841338D01*
X206456086Y-106865084D01*
X206516211Y-106873000D01*
X206516212Y-106873000D01*
X206758789Y-106873000D01*
X206806888Y-106866667D01*
X206999289Y-106841338D01*
X207233600Y-106778554D01*
X207457712Y-106685724D01*
X207667789Y-106564436D01*
X207860238Y-106416765D01*
X208031765Y-106245238D01*
X208179436Y-106052789D01*
X208300724Y-105842712D01*
X208393554Y-105618600D01*
X208456338Y-105384289D01*
X208488000Y-105143788D01*
X208488000Y-104901212D01*
X208456338Y-104660711D01*
X208393554Y-104426400D01*
X208300724Y-104202288D01*
X208179436Y-103992211D01*
X208031765Y-103799762D01*
X208031760Y-103799756D01*
X207860243Y-103628239D01*
X207860236Y-103628233D01*
X207667793Y-103480567D01*
X207667792Y-103480566D01*
X207667789Y-103480564D01*
X207496161Y-103381474D01*
X207457714Y-103359277D01*
X207457705Y-103359273D01*
X207233604Y-103266447D01*
X207116444Y-103235054D01*
X206999289Y-103203662D01*
X206999288Y-103203661D01*
X206999285Y-103203661D01*
X206758789Y-103172000D01*
X206758788Y-103172000D01*
X206516212Y-103172000D01*
X206516211Y-103172000D01*
X206275714Y-103203661D01*
X206041395Y-103266447D01*
X205817294Y-103359273D01*
X205817285Y-103359277D01*
X205607206Y-103480567D01*
X205414763Y-103628233D01*
X205414756Y-103628239D01*
X205243239Y-103799756D01*
X205243233Y-103799763D01*
X205095567Y-103992206D01*
X204974277Y-104202285D01*
X204974273Y-104202294D01*
X204881447Y-104426395D01*
X204818661Y-104660714D01*
X204787000Y-104901211D01*
X199597857Y-104901211D01*
X199654053Y-104790920D01*
X199654054Y-104790919D01*
X199654056Y-104790914D01*
X199654057Y-104790912D01*
X199719746Y-104588743D01*
X199753000Y-104378787D01*
X199753000Y-104166213D01*
X199719746Y-103956257D01*
X199654057Y-103754088D01*
X199557551Y-103564684D01*
X199557549Y-103564681D01*
X199557548Y-103564679D01*
X199432609Y-103392713D01*
X199282286Y-103242390D01*
X199110320Y-103117451D01*
X198920914Y-103020944D01*
X198920913Y-103020943D01*
X198920912Y-103020943D01*
X198718743Y-102955254D01*
X198718741Y-102955253D01*
X198718740Y-102955253D01*
X198557457Y-102929708D01*
X198508787Y-102922000D01*
X198296213Y-102922000D01*
X198247542Y-102929708D01*
X198086260Y-102955253D01*
X197884085Y-103020944D01*
X197694679Y-103117451D01*
X197522713Y-103242390D01*
X197372390Y-103392713D01*
X197247451Y-103564679D01*
X197150944Y-103754085D01*
X197150943Y-103754087D01*
X197150943Y-103754088D01*
X197136103Y-103799762D01*
X197085253Y-103956260D01*
X197052000Y-104166213D01*
X188335500Y-104166213D01*
X188335500Y-104143713D01*
X188302246Y-103933757D01*
X188236557Y-103731588D01*
X188140051Y-103542184D01*
X188140049Y-103542181D01*
X188140048Y-103542179D01*
X188015109Y-103370213D01*
X187864786Y-103219890D01*
X187692820Y-103094951D01*
X187503414Y-102998444D01*
X187503413Y-102998443D01*
X187503412Y-102998443D01*
X187301243Y-102932754D01*
X187301241Y-102932753D01*
X187301240Y-102932753D01*
X187133601Y-102906202D01*
X187091287Y-102899500D01*
X186878713Y-102899500D01*
X186836399Y-102906202D01*
X186668760Y-102932753D01*
X186466585Y-102998444D01*
X186277179Y-103094951D01*
X186105213Y-103219890D01*
X185954890Y-103370213D01*
X185829949Y-103542182D01*
X185825484Y-103550946D01*
X185777509Y-103601742D01*
X185709688Y-103618536D01*
X185643553Y-103595998D01*
X185604516Y-103550946D01*
X185600050Y-103542182D01*
X185475109Y-103370213D01*
X185324786Y-103219890D01*
X185152820Y-103094951D01*
X184963414Y-102998444D01*
X184963413Y-102998443D01*
X184963412Y-102998443D01*
X184761243Y-102932754D01*
X184761241Y-102932753D01*
X184761240Y-102932753D01*
X184593601Y-102906202D01*
X184551287Y-102899500D01*
X184338713Y-102899500D01*
X184296399Y-102906202D01*
X184128760Y-102932753D01*
X183926585Y-102998444D01*
X183737179Y-103094951D01*
X183565213Y-103219890D01*
X183414890Y-103370213D01*
X183289951Y-103542179D01*
X183193444Y-103731585D01*
X183193443Y-103731587D01*
X183193443Y-103731588D01*
X183162741Y-103826079D01*
X183127753Y-103933760D01*
X183094500Y-104143713D01*
X178850499Y-104143713D01*
X178850499Y-103302128D01*
X178844091Y-103242517D01*
X178797444Y-103117451D01*
X178793797Y-103107671D01*
X178793793Y-103107664D01*
X178707547Y-102992455D01*
X178707544Y-102992452D01*
X178592335Y-102906206D01*
X178592328Y-102906202D01*
X178460917Y-102857189D01*
X178404983Y-102815318D01*
X178380566Y-102749853D01*
X178395418Y-102681580D01*
X178416563Y-102653332D01*
X178530104Y-102539792D01*
X178532657Y-102536279D01*
X178655048Y-102367820D01*
X178655047Y-102367820D01*
X178655051Y-102367816D01*
X178751557Y-102178412D01*
X178817246Y-101976243D01*
X178850500Y-101766287D01*
X178850500Y-101553713D01*
X178817246Y-101343757D01*
X178751557Y-101141588D01*
X178655051Y-100952184D01*
X178655049Y-100952181D01*
X178655048Y-100952179D01*
X178530109Y-100780213D01*
X178379786Y-100629890D01*
X178207820Y-100504951D01*
X178018414Y-100408444D01*
X178018413Y-100408443D01*
X178018412Y-100408443D01*
X177816243Y-100342754D01*
X177816241Y-100342753D01*
X177816240Y-100342753D01*
X177654957Y-100317208D01*
X177606287Y-100309500D01*
X177393713Y-100309500D01*
X177345042Y-100317208D01*
X177183760Y-100342753D01*
X176981585Y-100408444D01*
X176792179Y-100504951D01*
X176620213Y-100629890D01*
X176469890Y-100780213D01*
X176344951Y-100952179D01*
X176248444Y-101141585D01*
X176182753Y-101343760D01*
X176149500Y-101553713D01*
X133465082Y-101553713D01*
X133028418Y-101117049D01*
X132952459Y-101066296D01*
X132952455Y-101066293D01*
X132905495Y-101034916D01*
X132905492Y-101034914D01*
X132905491Y-101034914D01*
X132768917Y-100978343D01*
X132768907Y-100978340D01*
X132623920Y-100949500D01*
X132623918Y-100949500D01*
X132054047Y-100949500D01*
X131987008Y-100929815D01*
X131941253Y-100877011D01*
X131931309Y-100807853D01*
X131960334Y-100744297D01*
X131966366Y-100737819D01*
X131974203Y-100729982D01*
X132009466Y-100694719D01*
X132009468Y-100694715D01*
X132009471Y-100694713D01*
X132062232Y-100622090D01*
X132129787Y-100529110D01*
X132222720Y-100346719D01*
X132285977Y-100152034D01*
X132318000Y-99949852D01*
X132318000Y-99745148D01*
X132285977Y-99542966D01*
X132222720Y-99348281D01*
X132222718Y-99348278D01*
X132222718Y-99348276D01*
X132129787Y-99165890D01*
X132059532Y-99069191D01*
X132059531Y-99069188D01*
X132009471Y-99000287D01*
X132009467Y-99000282D01*
X132008820Y-98999635D01*
X137337000Y-98999635D01*
X137337000Y-100695370D01*
X137337001Y-100695376D01*
X137343408Y-100754983D01*
X137393702Y-100889828D01*
X137393706Y-100889835D01*
X137479952Y-101005044D01*
X137479955Y-101005047D01*
X137595164Y-101091293D01*
X137595171Y-101091297D01*
X137730017Y-101141591D01*
X137730016Y-101141591D01*
X137736944Y-101142335D01*
X137789627Y-101148000D01*
X139485372Y-101147999D01*
X139544983Y-101141591D01*
X139679831Y-101091296D01*
X139795046Y-101005046D01*
X139881296Y-100889831D01*
X139931591Y-100754983D01*
X139938000Y-100695373D01*
X139937999Y-99720148D01*
X153817000Y-99720148D01*
X153817000Y-99924851D01*
X153849022Y-100127034D01*
X153912281Y-100321723D01*
X153956954Y-100409397D01*
X154003373Y-100500499D01*
X154005215Y-100504113D01*
X154125528Y-100669713D01*
X154270286Y-100814471D01*
X154408955Y-100915218D01*
X154435890Y-100934787D01*
X154524712Y-100980044D01*
X154618276Y-101027718D01*
X154618278Y-101027718D01*
X154618281Y-101027720D01*
X154722637Y-101061627D01*
X154812965Y-101090977D01*
X154914057Y-101106988D01*
X155015148Y-101123000D01*
X155015149Y-101123000D01*
X155219851Y-101123000D01*
X155219852Y-101123000D01*
X155422034Y-101090977D01*
X155616719Y-101027720D01*
X155799110Y-100934787D01*
X155895401Y-100864828D01*
X155964713Y-100814471D01*
X155964715Y-100814468D01*
X155964719Y-100814466D01*
X156109466Y-100669719D01*
X156109468Y-100669715D01*
X156109471Y-100669713D01*
X156191201Y-100557219D01*
X156229787Y-100504110D01*
X156322720Y-100321719D01*
X156385977Y-100127034D01*
X156418000Y-99924852D01*
X156418000Y-99720148D01*
X156401994Y-99619089D01*
X156385977Y-99517965D01*
X156356627Y-99427637D01*
X156322720Y-99323281D01*
X156322718Y-99323278D01*
X156322718Y-99323276D01*
X156229787Y-99140890D01*
X156159532Y-99044191D01*
X156159531Y-99044188D01*
X156109471Y-98975287D01*
X156109467Y-98975282D01*
X156108820Y-98974635D01*
X161437000Y-98974635D01*
X161437000Y-100670370D01*
X161437001Y-100670376D01*
X161443408Y-100729983D01*
X161493702Y-100864828D01*
X161493706Y-100864835D01*
X161579952Y-100980044D01*
X161579955Y-100980047D01*
X161695164Y-101066293D01*
X161695171Y-101066297D01*
X161830017Y-101116591D01*
X161830016Y-101116591D01*
X161836944Y-101117335D01*
X161889627Y-101123000D01*
X163585372Y-101122999D01*
X163644983Y-101116591D01*
X163779831Y-101066296D01*
X163895046Y-100980046D01*
X163981296Y-100864831D01*
X164031591Y-100729983D01*
X164038000Y-100670373D01*
X164037999Y-98974628D01*
X164031591Y-98915017D01*
X164012108Y-98862781D01*
X163981297Y-98780171D01*
X163981293Y-98780164D01*
X163895047Y-98664955D01*
X163895044Y-98664952D01*
X163779835Y-98578706D01*
X163779828Y-98578702D01*
X163644982Y-98528408D01*
X163644983Y-98528408D01*
X163585383Y-98522001D01*
X163585381Y-98522000D01*
X163585373Y-98522000D01*
X163585364Y-98522000D01*
X161889629Y-98522000D01*
X161889623Y-98522001D01*
X161830016Y-98528408D01*
X161695171Y-98578702D01*
X161695164Y-98578706D01*
X161579955Y-98664952D01*
X161579952Y-98664955D01*
X161493706Y-98780164D01*
X161493702Y-98780171D01*
X161443408Y-98915017D01*
X161437001Y-98974616D01*
X161437001Y-98974623D01*
X161437000Y-98974635D01*
X156108820Y-98974635D01*
X155964713Y-98830528D01*
X155799113Y-98710215D01*
X155799112Y-98710214D01*
X155799110Y-98710213D01*
X155723699Y-98671789D01*
X155616723Y-98617281D01*
X155422034Y-98554022D01*
X155247495Y-98526378D01*
X155219852Y-98522000D01*
X155015148Y-98522000D01*
X154990829Y-98525851D01*
X154812965Y-98554022D01*
X154618276Y-98617281D01*
X154435886Y-98710215D01*
X154270286Y-98830528D01*
X154125528Y-98975286D01*
X154005215Y-99140886D01*
X153912281Y-99323276D01*
X153849022Y-99517965D01*
X153817000Y-99720148D01*
X139937999Y-99720148D01*
X139937999Y-98999628D01*
X139931591Y-98940017D01*
X139922266Y-98915016D01*
X139881297Y-98805171D01*
X139881293Y-98805164D01*
X139795047Y-98689955D01*
X139795044Y-98689952D01*
X139679835Y-98603706D01*
X139679828Y-98603702D01*
X139544982Y-98553408D01*
X139544983Y-98553408D01*
X139485383Y-98547001D01*
X139485381Y-98547000D01*
X139485373Y-98547000D01*
X139485364Y-98547000D01*
X137789629Y-98547000D01*
X137789623Y-98547001D01*
X137730016Y-98553408D01*
X137595171Y-98603702D01*
X137595164Y-98603706D01*
X137479955Y-98689952D01*
X137479952Y-98689955D01*
X137393706Y-98805164D01*
X137393702Y-98805171D01*
X137343408Y-98940017D01*
X137337001Y-98999616D01*
X137337001Y-98999623D01*
X137337000Y-98999635D01*
X132008820Y-98999635D01*
X131864713Y-98855528D01*
X131699113Y-98735215D01*
X131699112Y-98735214D01*
X131699110Y-98735213D01*
X131634499Y-98702292D01*
X131516723Y-98642281D01*
X131322034Y-98579022D01*
X131147495Y-98551378D01*
X131119852Y-98547000D01*
X130915148Y-98547000D01*
X130847754Y-98557674D01*
X130712964Y-98579023D01*
X130712961Y-98579023D01*
X130562818Y-98627808D01*
X130492977Y-98629803D01*
X130433144Y-98593722D01*
X130402316Y-98531021D01*
X130400500Y-98509877D01*
X130400500Y-96105121D01*
X130420185Y-96038082D01*
X130472989Y-95992327D01*
X130542147Y-95982383D01*
X130562805Y-95987186D01*
X130682481Y-96026072D01*
X130712965Y-96035977D01*
X130801502Y-96050000D01*
X130915148Y-96068000D01*
X130915149Y-96068000D01*
X131119851Y-96068000D01*
X131119852Y-96068000D01*
X131322034Y-96035977D01*
X131516719Y-95972720D01*
X131699110Y-95879787D01*
X131799175Y-95807086D01*
X131864713Y-95759471D01*
X131864715Y-95759468D01*
X131864719Y-95759466D01*
X132009466Y-95614719D01*
X132009468Y-95614715D01*
X132009471Y-95614713D01*
X132103787Y-95484896D01*
X132129787Y-95449110D01*
X132222720Y-95266719D01*
X132285977Y-95072034D01*
X132318000Y-94869852D01*
X132318000Y-94665148D01*
X132298333Y-94540977D01*
X132285977Y-94462965D01*
X132222718Y-94268276D01*
X132178290Y-94181082D01*
X132129787Y-94085890D01*
X132111621Y-94060886D01*
X132009471Y-93920286D01*
X131864713Y-93775528D01*
X131699113Y-93655215D01*
X131699112Y-93655214D01*
X131699110Y-93655213D01*
X131642153Y-93626191D01*
X131516723Y-93562281D01*
X131322034Y-93499022D01*
X131143932Y-93470814D01*
X131119852Y-93467000D01*
X130915148Y-93467000D01*
X130891068Y-93470814D01*
X130712965Y-93499022D01*
X130518276Y-93562281D01*
X130335886Y-93655215D01*
X130170286Y-93775528D01*
X130025532Y-93920282D01*
X130025528Y-93920287D01*
X129924817Y-94058905D01*
X129869487Y-94101571D01*
X129799874Y-94107550D01*
X129738079Y-94074944D01*
X129703722Y-94014106D01*
X129700499Y-93986020D01*
X129700499Y-93727129D01*
X129700499Y-93727128D01*
X129694091Y-93667517D01*
X129694089Y-93667513D01*
X129693632Y-93663255D01*
X129693632Y-93636745D01*
X129694089Y-93632486D01*
X129694091Y-93632483D01*
X129700500Y-93572873D01*
X129700499Y-92927128D01*
X129694091Y-92867517D01*
X129693696Y-92866459D01*
X129643797Y-92732671D01*
X129643793Y-92732664D01*
X129557547Y-92617455D01*
X129557544Y-92617452D01*
X129442335Y-92531206D01*
X129442328Y-92531202D01*
X129307482Y-92480908D01*
X129307483Y-92480908D01*
X129247883Y-92474501D01*
X129247881Y-92474500D01*
X129247873Y-92474500D01*
X129247865Y-92474500D01*
X127849499Y-92474500D01*
X127782460Y-92454815D01*
X127736705Y-92402011D01*
X127725499Y-92350500D01*
X127725499Y-90952129D01*
X127725498Y-90952123D01*
X127719091Y-90892517D01*
X127716206Y-90884781D01*
X127709885Y-90867832D01*
X127704901Y-90798140D01*
X127738387Y-90736818D01*
X127799711Y-90703333D01*
X127826067Y-90700500D01*
X129573920Y-90700500D01*
X129679660Y-90679466D01*
X129718913Y-90671658D01*
X129787204Y-90643371D01*
X129855491Y-90615086D01*
X129855492Y-90615085D01*
X129855495Y-90615084D01*
X129917106Y-90573917D01*
X129920967Y-90571336D01*
X129987640Y-90550445D01*
X130055024Y-90568916D01*
X130077559Y-90586744D01*
X130170286Y-90679471D01*
X130288008Y-90764999D01*
X130335890Y-90799787D01*
X130428580Y-90847015D01*
X130518276Y-90892718D01*
X130518278Y-90892718D01*
X130518281Y-90892720D01*
X130610698Y-90922748D01*
X130712965Y-90955977D01*
X130814057Y-90971988D01*
X130915148Y-90988000D01*
X130915149Y-90988000D01*
X131119851Y-90988000D01*
X131119852Y-90988000D01*
X131322034Y-90955977D01*
X131516719Y-90892720D01*
X131699110Y-90799787D01*
X131820377Y-90711681D01*
X131886183Y-90688202D01*
X131893262Y-90688000D01*
X133371042Y-90688000D01*
X133383426Y-90685536D01*
X133467688Y-90668775D01*
X133564336Y-90649551D01*
X133645255Y-90616033D01*
X133746414Y-90574132D01*
X133910282Y-90464639D01*
X134049639Y-90325282D01*
X134049639Y-90325280D01*
X134059847Y-90315073D01*
X134059848Y-90315070D01*
X135832140Y-88542781D01*
X135941632Y-88378914D01*
X136017052Y-88196835D01*
X136055107Y-88005511D01*
X136055112Y-88005503D01*
X136055110Y-88005503D01*
X136055499Y-88003544D01*
X136055500Y-88003542D01*
X136055500Y-84670782D01*
X136075185Y-84603743D01*
X136091819Y-84583101D01*
X137538102Y-83136819D01*
X137599425Y-83103334D01*
X137625783Y-83100500D01*
X138284157Y-83100500D01*
X138351196Y-83120185D01*
X138396951Y-83172989D01*
X138406895Y-83242147D01*
X138377870Y-83305703D01*
X138322476Y-83342431D01*
X138138276Y-83402281D01*
X137955886Y-83495215D01*
X137790286Y-83615528D01*
X137645528Y-83760286D01*
X137525215Y-83925886D01*
X137432281Y-84108276D01*
X137369022Y-84302965D01*
X137337000Y-84505148D01*
X137337000Y-84709851D01*
X137369022Y-84912034D01*
X137432281Y-85106723D01*
X137472416Y-85185490D01*
X137512476Y-85264113D01*
X137525215Y-85289113D01*
X137645528Y-85454713D01*
X137790286Y-85599471D01*
X137921476Y-85694784D01*
X137955890Y-85719787D01*
X138023080Y-85754022D01*
X138048580Y-85767015D01*
X138099376Y-85814990D01*
X138116171Y-85882811D01*
X138093634Y-85948946D01*
X138048580Y-85987985D01*
X137955886Y-86035215D01*
X137790286Y-86155528D01*
X137645528Y-86300286D01*
X137525215Y-86465886D01*
X137432281Y-86648276D01*
X137369022Y-86842965D01*
X137337000Y-87045148D01*
X137337000Y-87249851D01*
X137369022Y-87452034D01*
X137432281Y-87646723D01*
X137481941Y-87744185D01*
X137512476Y-87804113D01*
X137525215Y-87829113D01*
X137645528Y-87994713D01*
X137790286Y-88139471D01*
X137875120Y-88201105D01*
X137955890Y-88259787D01*
X138017104Y-88290977D01*
X138048580Y-88307015D01*
X138099376Y-88354990D01*
X138116171Y-88422811D01*
X138093634Y-88488946D01*
X138048580Y-88527985D01*
X137955886Y-88575215D01*
X137790286Y-88695528D01*
X137645528Y-88840286D01*
X137525215Y-89005886D01*
X137432281Y-89188276D01*
X137369022Y-89382965D01*
X137337000Y-89585148D01*
X137337000Y-89789851D01*
X137369022Y-89992034D01*
X137432281Y-90186723D01*
X137469291Y-90259358D01*
X137512476Y-90344113D01*
X137525215Y-90369113D01*
X137645528Y-90534713D01*
X137790286Y-90679471D01*
X137908008Y-90764999D01*
X137955890Y-90799787D01*
X138047340Y-90846383D01*
X138048580Y-90847015D01*
X138099376Y-90894990D01*
X138116171Y-90962811D01*
X138093634Y-91028946D01*
X138048580Y-91067985D01*
X137955886Y-91115215D01*
X137790286Y-91235528D01*
X137645528Y-91380286D01*
X137525215Y-91545886D01*
X137432281Y-91728276D01*
X137369022Y-91922965D01*
X137337000Y-92125148D01*
X137337000Y-92329851D01*
X137369022Y-92532034D01*
X137432281Y-92726723D01*
X137478324Y-92817086D01*
X137515071Y-92889206D01*
X137525215Y-92909113D01*
X137645528Y-93074713D01*
X137790286Y-93219471D01*
X137910887Y-93307091D01*
X137955890Y-93339787D01*
X138024707Y-93374851D01*
X138048580Y-93387015D01*
X138099376Y-93434990D01*
X138116171Y-93502811D01*
X138093634Y-93568946D01*
X138048580Y-93607985D01*
X137955886Y-93655215D01*
X137790286Y-93775528D01*
X137645528Y-93920286D01*
X137525215Y-94085886D01*
X137432281Y-94268276D01*
X137369022Y-94462965D01*
X137337000Y-94665148D01*
X137337000Y-94869851D01*
X137369022Y-95072034D01*
X137432281Y-95266723D01*
X137490143Y-95380281D01*
X137515467Y-95429983D01*
X137525215Y-95449113D01*
X137645528Y-95614713D01*
X137790286Y-95759471D01*
X137921476Y-95854784D01*
X137955890Y-95879787D01*
X138072107Y-95939003D01*
X138138276Y-95972718D01*
X138138278Y-95972718D01*
X138138281Y-95972720D01*
X138242637Y-96006627D01*
X138332965Y-96035977D01*
X138421502Y-96050000D01*
X138535148Y-96068000D01*
X138535149Y-96068000D01*
X138739851Y-96068000D01*
X138739852Y-96068000D01*
X138942034Y-96035977D01*
X139136719Y-95972720D01*
X139319110Y-95879787D01*
X139419175Y-95807086D01*
X139484713Y-95759471D01*
X139484715Y-95759468D01*
X139484719Y-95759466D01*
X139629466Y-95614719D01*
X139629468Y-95614715D01*
X139629471Y-95614713D01*
X139723787Y-95484896D01*
X139749787Y-95449110D01*
X139842720Y-95266719D01*
X139905977Y-95072034D01*
X139938000Y-94869852D01*
X139938000Y-94665148D01*
X139918333Y-94540977D01*
X139905977Y-94462965D01*
X139842718Y-94268276D01*
X139798290Y-94181082D01*
X139749787Y-94085890D01*
X139731621Y-94060886D01*
X139629471Y-93920286D01*
X139484713Y-93775528D01*
X139319114Y-93655215D01*
X139308879Y-93650000D01*
X139226417Y-93607983D01*
X139175623Y-93560011D01*
X139158828Y-93492190D01*
X139181365Y-93426055D01*
X139226417Y-93387016D01*
X139319110Y-93339787D01*
X139364113Y-93307091D01*
X139484713Y-93219471D01*
X139484715Y-93219468D01*
X139484719Y-93219466D01*
X139629466Y-93074719D01*
X139629468Y-93074715D01*
X139629471Y-93074713D01*
X139707026Y-92967966D01*
X139749787Y-92909110D01*
X139842720Y-92726719D01*
X139905977Y-92532034D01*
X139938000Y-92329852D01*
X139938000Y-92125148D01*
X139928835Y-92067281D01*
X139905977Y-91922965D01*
X139863091Y-91790977D01*
X139842720Y-91728281D01*
X139842718Y-91728278D01*
X139842718Y-91728276D01*
X139809003Y-91662107D01*
X139749787Y-91545890D01*
X139726956Y-91514466D01*
X139629471Y-91380286D01*
X139484713Y-91235528D01*
X139319114Y-91115215D01*
X139285394Y-91098034D01*
X139226417Y-91067983D01*
X139175623Y-91020011D01*
X139158828Y-90952190D01*
X139181365Y-90886055D01*
X139226417Y-90847016D01*
X139319110Y-90799787D01*
X139366992Y-90764999D01*
X139484713Y-90679471D01*
X139484715Y-90679468D01*
X139484719Y-90679466D01*
X139629466Y-90534719D01*
X139629468Y-90534715D01*
X139629471Y-90534713D01*
X139712706Y-90420148D01*
X139749787Y-90369110D01*
X139842720Y-90186719D01*
X139905977Y-89992034D01*
X139938000Y-89789852D01*
X139938000Y-89585148D01*
X139909318Y-89404058D01*
X139905977Y-89382965D01*
X139864081Y-89254023D01*
X139842720Y-89188281D01*
X139842718Y-89188278D01*
X139842718Y-89188276D01*
X139809003Y-89122107D01*
X139749787Y-89005890D01*
X139731621Y-88980886D01*
X139629471Y-88840286D01*
X139484713Y-88695528D01*
X139319114Y-88575215D01*
X139272109Y-88551265D01*
X139226417Y-88527983D01*
X139175623Y-88480011D01*
X139158828Y-88412190D01*
X139181365Y-88346055D01*
X139226417Y-88307016D01*
X139319110Y-88259787D01*
X139418293Y-88187727D01*
X139484713Y-88139471D01*
X139484715Y-88139468D01*
X139484719Y-88139466D01*
X139629466Y-87994719D01*
X139629468Y-87994715D01*
X139629471Y-87994713D01*
X139720287Y-87869713D01*
X139749787Y-87829110D01*
X139842720Y-87646719D01*
X139905977Y-87452034D01*
X139938000Y-87249852D01*
X139938000Y-87045148D01*
X139910321Y-86870392D01*
X139905977Y-86842965D01*
X139851281Y-86674629D01*
X139842720Y-86648281D01*
X139842718Y-86648278D01*
X139842718Y-86648276D01*
X139753149Y-86472488D01*
X139749785Y-86465886D01*
X139716100Y-86419522D01*
X141937000Y-86419522D01*
X141937000Y-88115257D01*
X141937001Y-88115263D01*
X141943408Y-88174870D01*
X141993702Y-88309715D01*
X141993703Y-88309716D01*
X141993704Y-88309718D01*
X142079954Y-88424933D01*
X142088480Y-88431315D01*
X142130350Y-88487248D01*
X142135334Y-88556939D01*
X142124653Y-88586876D01*
X142032281Y-88768163D01*
X141969022Y-88962852D01*
X141937000Y-89165035D01*
X141937000Y-89369738D01*
X141969022Y-89571921D01*
X142032281Y-89766610D01*
X142125215Y-89949000D01*
X142245528Y-90114600D01*
X142390286Y-90259358D01*
X142541350Y-90369110D01*
X142555890Y-90379674D01*
X142635325Y-90420148D01*
X142738276Y-90472605D01*
X142738278Y-90472605D01*
X142738281Y-90472607D01*
X142842301Y-90506405D01*
X142932965Y-90535864D01*
X143025025Y-90550445D01*
X143135148Y-90567887D01*
X143135149Y-90567887D01*
X143339851Y-90567887D01*
X143339852Y-90567887D01*
X143542034Y-90535864D01*
X143736719Y-90472607D01*
X143919110Y-90379674D01*
X144012090Y-90312119D01*
X144084713Y-90259358D01*
X144084715Y-90259355D01*
X144084719Y-90259353D01*
X144229466Y-90114606D01*
X144229468Y-90114602D01*
X144229471Y-90114600D01*
X144295817Y-90023281D01*
X144349787Y-89948997D01*
X144442720Y-89766606D01*
X144505977Y-89571921D01*
X144538000Y-89369739D01*
X144538000Y-89165035D01*
X144505977Y-88962853D01*
X144442720Y-88768168D01*
X144442718Y-88768165D01*
X144442718Y-88768163D01*
X144350347Y-88586876D01*
X144337451Y-88518207D01*
X144363727Y-88453466D01*
X144386526Y-88431311D01*
X144395045Y-88424934D01*
X144395048Y-88424930D01*
X144481296Y-88309718D01*
X144531591Y-88174870D01*
X144538000Y-88115260D01*
X144537999Y-86419515D01*
X144531591Y-86359904D01*
X144524499Y-86340890D01*
X144481297Y-86225058D01*
X144481293Y-86225051D01*
X144395047Y-86109842D01*
X144395044Y-86109839D01*
X144279835Y-86023593D01*
X144279828Y-86023589D01*
X144144982Y-85973295D01*
X144144983Y-85973295D01*
X144085383Y-85966888D01*
X144085381Y-85966887D01*
X144085373Y-85966887D01*
X144085364Y-85966887D01*
X142389629Y-85966887D01*
X142389623Y-85966888D01*
X142330016Y-85973295D01*
X142195171Y-86023589D01*
X142195164Y-86023593D01*
X142079955Y-86109839D01*
X142079952Y-86109842D01*
X141993706Y-86225051D01*
X141993702Y-86225058D01*
X141943408Y-86359904D01*
X141937249Y-86417198D01*
X141937001Y-86419510D01*
X141937000Y-86419522D01*
X139716100Y-86419522D01*
X139629471Y-86300286D01*
X139484713Y-86155528D01*
X139319114Y-86035215D01*
X139309915Y-86030528D01*
X139226417Y-85987983D01*
X139175623Y-85940011D01*
X139158828Y-85872190D01*
X139181365Y-85806055D01*
X139226417Y-85767016D01*
X139319110Y-85719787D01*
X139353524Y-85694784D01*
X139484713Y-85599471D01*
X139484715Y-85599468D01*
X139484719Y-85599466D01*
X139629466Y-85454719D01*
X139629468Y-85454715D01*
X139629471Y-85454713D01*
X139693161Y-85367049D01*
X139749787Y-85289110D01*
X139842720Y-85106719D01*
X139905977Y-84912034D01*
X139938000Y-84709852D01*
X139938000Y-84505148D01*
X139924989Y-84423000D01*
X139905977Y-84302965D01*
X139842718Y-84108276D01*
X139803387Y-84031086D01*
X139749787Y-83925890D01*
X139731621Y-83900886D01*
X139629471Y-83760286D01*
X139484713Y-83615528D01*
X139319113Y-83495215D01*
X139319112Y-83495214D01*
X139319110Y-83495213D01*
X139239456Y-83454627D01*
X139136723Y-83402281D01*
X138952524Y-83342431D01*
X138894849Y-83302993D01*
X138867651Y-83238634D01*
X138879566Y-83169788D01*
X138926810Y-83118312D01*
X138990843Y-83100500D01*
X146484218Y-83100500D01*
X146551257Y-83120185D01*
X146571899Y-83136819D01*
X148318181Y-84883101D01*
X148351666Y-84944424D01*
X148354500Y-84970782D01*
X148354500Y-92203544D01*
X148392947Y-92396833D01*
X148392949Y-92396836D01*
X148415038Y-92450165D01*
X148427772Y-92480908D01*
X148468366Y-92578911D01*
X148468371Y-92578920D01*
X148577859Y-92742780D01*
X148577860Y-92742781D01*
X148577861Y-92742782D01*
X148717218Y-92882139D01*
X148717219Y-92882139D01*
X148724286Y-92889206D01*
X148724285Y-92889206D01*
X148724288Y-92889208D01*
X151215360Y-95380281D01*
X151215361Y-95380282D01*
X151319972Y-95484893D01*
X151354719Y-95519640D01*
X151518579Y-95629128D01*
X151518592Y-95629135D01*
X151647333Y-95682461D01*
X151676512Y-95694547D01*
X151700664Y-95704551D01*
X151797312Y-95723775D01*
X151845635Y-95733387D01*
X151893958Y-95743000D01*
X151893959Y-95743000D01*
X151893960Y-95743000D01*
X152091040Y-95743000D01*
X154241738Y-95743000D01*
X154308777Y-95762685D01*
X154314619Y-95766679D01*
X154435890Y-95854787D01*
X154545953Y-95910867D01*
X154618276Y-95947718D01*
X154618278Y-95947718D01*
X154618281Y-95947720D01*
X154722637Y-95981627D01*
X154812965Y-96010977D01*
X154914057Y-96026988D01*
X155015148Y-96043000D01*
X155015149Y-96043000D01*
X155219851Y-96043000D01*
X155219852Y-96043000D01*
X155422034Y-96010977D01*
X155616719Y-95947720D01*
X155799110Y-95854787D01*
X155920907Y-95766297D01*
X155964713Y-95734471D01*
X155964715Y-95734468D01*
X155964719Y-95734466D01*
X156109466Y-95589719D01*
X156109468Y-95589715D01*
X156109471Y-95589713D01*
X156167828Y-95509390D01*
X156229787Y-95424110D01*
X156322720Y-95241719D01*
X156385977Y-95047034D01*
X156418000Y-94844852D01*
X156418000Y-94640148D01*
X156408474Y-94580004D01*
X156385977Y-94437965D01*
X156322718Y-94243276D01*
X156289003Y-94177107D01*
X156229787Y-94060890D01*
X156200977Y-94021236D01*
X156109471Y-93895286D01*
X155964713Y-93750528D01*
X155799113Y-93630215D01*
X155799112Y-93630214D01*
X155799110Y-93630213D01*
X155742153Y-93601191D01*
X155616723Y-93537281D01*
X155422034Y-93474022D01*
X155247495Y-93446378D01*
X155219852Y-93442000D01*
X155015148Y-93442000D01*
X154990829Y-93445851D01*
X154812965Y-93474022D01*
X154618276Y-93537281D01*
X154435886Y-93630215D01*
X154333363Y-93704701D01*
X154317244Y-93716414D01*
X154314623Y-93718318D01*
X154248817Y-93741798D01*
X154241738Y-93742000D01*
X152458283Y-93742000D01*
X152391244Y-93722315D01*
X152370602Y-93705681D01*
X150391819Y-91726898D01*
X150358334Y-91665575D01*
X150355500Y-91639217D01*
X150355500Y-84609675D01*
X150355501Y-84609654D01*
X150355501Y-84406457D01*
X150355500Y-84406455D01*
X150338382Y-84320396D01*
X150317052Y-84213165D01*
X150241632Y-84031086D01*
X150241631Y-84031085D01*
X150241628Y-84031079D01*
X150132140Y-83867219D01*
X150132137Y-83867215D01*
X147977101Y-81712181D01*
X147943616Y-81650858D01*
X147948600Y-81581166D01*
X147990472Y-81525233D01*
X148055936Y-81500816D01*
X148064782Y-81500500D01*
X152690539Y-81500500D01*
X152757578Y-81520185D01*
X152778220Y-81536819D01*
X154497863Y-83256462D01*
X154531348Y-83317785D01*
X154526364Y-83387477D01*
X154484492Y-83443410D01*
X154466478Y-83454627D01*
X154435888Y-83470213D01*
X154270286Y-83590528D01*
X154125528Y-83735286D01*
X154005215Y-83900886D01*
X153912281Y-84083276D01*
X153849022Y-84277965D01*
X153817000Y-84480148D01*
X153817000Y-84684851D01*
X153849022Y-84887034D01*
X153912281Y-85081723D01*
X154005215Y-85264113D01*
X154125528Y-85429713D01*
X154270286Y-85574471D01*
X154425249Y-85687056D01*
X154435890Y-85694787D01*
X154527340Y-85741383D01*
X154528580Y-85742015D01*
X154579376Y-85789990D01*
X154596171Y-85857811D01*
X154573634Y-85923946D01*
X154528580Y-85962985D01*
X154435886Y-86010215D01*
X154270286Y-86130528D01*
X154125528Y-86275286D01*
X154005215Y-86440886D01*
X153912281Y-86623276D01*
X153849022Y-86817965D01*
X153817000Y-87020148D01*
X153817000Y-87224851D01*
X153849022Y-87427034D01*
X153912281Y-87621723D01*
X153954260Y-87704110D01*
X153982691Y-87759909D01*
X154005215Y-87804113D01*
X154125528Y-87969713D01*
X154270286Y-88114471D01*
X154383653Y-88196835D01*
X154435890Y-88234787D01*
X154527340Y-88281383D01*
X154528580Y-88282015D01*
X154579376Y-88329990D01*
X154596171Y-88397811D01*
X154573634Y-88463946D01*
X154528580Y-88502985D01*
X154435886Y-88550215D01*
X154270286Y-88670528D01*
X154125528Y-88815286D01*
X154005215Y-88980886D01*
X153912281Y-89163276D01*
X153849022Y-89357965D01*
X153828406Y-89488132D01*
X153817000Y-89560148D01*
X153817000Y-89764852D01*
X153818120Y-89771921D01*
X153849022Y-89967034D01*
X153912281Y-90161723D01*
X153962310Y-90259909D01*
X153996798Y-90327595D01*
X154005215Y-90344113D01*
X154125528Y-90509713D01*
X154270286Y-90654471D01*
X154412329Y-90757669D01*
X154435890Y-90774787D01*
X154552107Y-90834003D01*
X154618276Y-90867718D01*
X154618278Y-90867718D01*
X154618281Y-90867720D01*
X154722637Y-90901627D01*
X154812965Y-90930977D01*
X154875875Y-90940941D01*
X155015148Y-90963000D01*
X155015149Y-90963000D01*
X155219851Y-90963000D01*
X155219852Y-90963000D01*
X155422034Y-90930977D01*
X155616719Y-90867720D01*
X155799110Y-90774787D01*
X155918563Y-90688000D01*
X155964713Y-90654471D01*
X155964715Y-90654468D01*
X155964719Y-90654466D01*
X156109466Y-90509719D01*
X156109468Y-90509715D01*
X156109471Y-90509713D01*
X156162232Y-90437090D01*
X156229787Y-90344110D01*
X156322720Y-90161719D01*
X156385977Y-89967034D01*
X156418000Y-89764852D01*
X156418000Y-89560148D01*
X156385977Y-89357966D01*
X156378474Y-89334875D01*
X156352204Y-89254023D01*
X156322720Y-89163281D01*
X156322718Y-89163278D01*
X156322718Y-89163276D01*
X156274634Y-89068907D01*
X156229787Y-88980890D01*
X156220540Y-88968163D01*
X156109471Y-88815286D01*
X155964713Y-88670528D01*
X155799114Y-88550215D01*
X155775048Y-88537953D01*
X155706417Y-88502983D01*
X155655623Y-88455011D01*
X155638828Y-88387190D01*
X155661365Y-88321055D01*
X155706417Y-88282016D01*
X155799110Y-88234787D01*
X155863883Y-88187727D01*
X155964713Y-88114471D01*
X155964715Y-88114468D01*
X155964719Y-88114466D01*
X156109466Y-87969719D01*
X156109468Y-87969715D01*
X156109471Y-87969713D01*
X156162232Y-87897090D01*
X156229787Y-87804110D01*
X156322720Y-87621719D01*
X156385977Y-87427034D01*
X156418000Y-87224852D01*
X156418000Y-87020148D01*
X156385977Y-86817966D01*
X156322720Y-86623281D01*
X156322718Y-86623278D01*
X156322718Y-86623276D01*
X156271765Y-86523276D01*
X156229787Y-86440890D01*
X156222056Y-86430249D01*
X156109471Y-86275286D01*
X155964713Y-86130528D01*
X155799114Y-86010215D01*
X155726654Y-85973295D01*
X155706417Y-85962983D01*
X155655623Y-85915011D01*
X155638828Y-85847190D01*
X155661365Y-85781055D01*
X155706417Y-85742016D01*
X155799110Y-85694787D01*
X155820270Y-85679413D01*
X155964713Y-85574471D01*
X155964715Y-85574468D01*
X155964719Y-85574466D01*
X156109466Y-85429719D01*
X156109468Y-85429715D01*
X156109471Y-85429713D01*
X156229786Y-85264112D01*
X156230123Y-85263449D01*
X156245371Y-85233523D01*
X156293343Y-85182728D01*
X156361163Y-85165931D01*
X156427299Y-85188466D01*
X156443537Y-85202136D01*
X160200681Y-88959280D01*
X160234166Y-89020603D01*
X160237000Y-89046961D01*
X160237000Y-93341041D01*
X160240468Y-93358477D01*
X160243076Y-93371584D01*
X160243076Y-93371587D01*
X160268424Y-93499023D01*
X160275449Y-93534336D01*
X160276669Y-93537281D01*
X160278571Y-93541874D01*
X160350866Y-93716411D01*
X160350871Y-93716420D01*
X160460359Y-93880280D01*
X160460360Y-93880281D01*
X160460361Y-93880282D01*
X160599718Y-94019639D01*
X160599719Y-94019639D01*
X160606786Y-94026706D01*
X160606785Y-94026706D01*
X160606789Y-94026709D01*
X161410781Y-94830701D01*
X161444266Y-94892024D01*
X161445573Y-94898983D01*
X161469023Y-95047035D01*
X161532281Y-95241723D01*
X161596191Y-95367153D01*
X161624030Y-95421789D01*
X161625215Y-95424113D01*
X161745528Y-95589713D01*
X161890286Y-95734471D01*
X162045249Y-95847056D01*
X162055890Y-95854787D01*
X162165953Y-95910867D01*
X162238276Y-95947718D01*
X162238278Y-95947718D01*
X162238281Y-95947720D01*
X162342637Y-95981627D01*
X162432965Y-96010977D01*
X162534057Y-96026988D01*
X162635148Y-96043000D01*
X162635149Y-96043000D01*
X162839851Y-96043000D01*
X162839852Y-96043000D01*
X163042034Y-96010977D01*
X163236719Y-95947720D01*
X163306278Y-95912278D01*
X184967000Y-95912278D01*
X184967000Y-96132721D01*
X185001485Y-96350452D01*
X185069603Y-96560103D01*
X185069604Y-96560106D01*
X185137622Y-96693596D01*
X185151663Y-96721153D01*
X185169687Y-96756525D01*
X185299252Y-96934858D01*
X185299256Y-96934863D01*
X185455136Y-97090743D01*
X185455141Y-97090747D01*
X185571795Y-97175500D01*
X185633478Y-97220315D01*
X185751131Y-97280263D01*
X185829893Y-97320395D01*
X185829896Y-97320396D01*
X185934721Y-97354455D01*
X186039549Y-97388515D01*
X186257278Y-97423000D01*
X186257279Y-97423000D01*
X186477721Y-97423000D01*
X186477722Y-97423000D01*
X186695451Y-97388515D01*
X186905106Y-97320395D01*
X187101522Y-97220315D01*
X187279865Y-97090742D01*
X187435742Y-96934865D01*
X187565315Y-96756522D01*
X187665395Y-96560106D01*
X187733515Y-96350451D01*
X187768000Y-96132722D01*
X187768000Y-95912278D01*
X187733515Y-95694549D01*
X187677580Y-95522396D01*
X187665396Y-95484896D01*
X187665395Y-95484893D01*
X187630737Y-95416875D01*
X187565315Y-95288478D01*
X187527733Y-95236751D01*
X187435747Y-95110141D01*
X187435743Y-95110136D01*
X187279863Y-94954256D01*
X187279858Y-94954252D01*
X187101525Y-94824687D01*
X187101524Y-94824686D01*
X187101522Y-94824685D01*
X187038596Y-94792622D01*
X186905106Y-94724604D01*
X186905103Y-94724603D01*
X186695452Y-94656485D01*
X186586586Y-94639242D01*
X186477722Y-94622000D01*
X186257278Y-94622000D01*
X186184701Y-94633495D01*
X186039547Y-94656485D01*
X185829896Y-94724603D01*
X185829893Y-94724604D01*
X185633474Y-94824687D01*
X185455141Y-94954252D01*
X185455136Y-94954256D01*
X185299256Y-95110136D01*
X185299252Y-95110141D01*
X185169687Y-95288474D01*
X185069604Y-95484893D01*
X185069603Y-95484896D01*
X185001485Y-95694547D01*
X184967000Y-95912278D01*
X163306278Y-95912278D01*
X163419110Y-95854787D01*
X163484764Y-95807087D01*
X163484766Y-95807086D01*
X163584712Y-95734471D01*
X163584710Y-95734471D01*
X163584719Y-95734466D01*
X163729466Y-95589719D01*
X163729468Y-95589715D01*
X163729471Y-95589713D01*
X163787828Y-95509390D01*
X163849787Y-95424110D01*
X163942720Y-95241719D01*
X164005977Y-95047034D01*
X164038000Y-94844852D01*
X164038000Y-94640148D01*
X164028474Y-94580004D01*
X164005977Y-94437965D01*
X163942718Y-94243276D01*
X163909003Y-94177107D01*
X163849787Y-94060890D01*
X163820977Y-94021236D01*
X163729471Y-93895286D01*
X163584713Y-93750528D01*
X163419114Y-93630215D01*
X163392216Y-93616510D01*
X163326417Y-93582983D01*
X163275623Y-93535011D01*
X163258828Y-93467190D01*
X163281365Y-93401055D01*
X163326417Y-93362016D01*
X163419110Y-93314787D01*
X163468772Y-93278706D01*
X163584713Y-93194471D01*
X163584715Y-93194468D01*
X163584719Y-93194466D01*
X163609037Y-93170148D01*
X192337000Y-93170148D01*
X192337000Y-93374852D01*
X192341150Y-93401055D01*
X192369022Y-93577034D01*
X192432281Y-93771723D01*
X192459657Y-93825450D01*
X192512340Y-93928846D01*
X192525215Y-93954113D01*
X192645528Y-94119713D01*
X192790286Y-94264471D01*
X192931045Y-94366736D01*
X192955890Y-94384787D01*
X193043085Y-94429215D01*
X193138276Y-94477718D01*
X193138278Y-94477718D01*
X193138281Y-94477720D01*
X193202802Y-94498684D01*
X193332965Y-94540977D01*
X193434057Y-94556988D01*
X193535148Y-94573000D01*
X193535149Y-94573000D01*
X193739851Y-94573000D01*
X193739852Y-94573000D01*
X193942034Y-94540977D01*
X194136719Y-94477720D01*
X194319110Y-94384787D01*
X194412090Y-94317232D01*
X194484713Y-94264471D01*
X194484715Y-94264468D01*
X194484719Y-94264466D01*
X194629466Y-94119719D01*
X194629468Y-94119715D01*
X194629471Y-94119713D01*
X194697043Y-94026706D01*
X194749787Y-93954110D01*
X194842720Y-93771719D01*
X194874264Y-93674635D01*
X197837000Y-93674635D01*
X197837000Y-95370370D01*
X197837001Y-95370376D01*
X197843408Y-95429983D01*
X197893702Y-95564828D01*
X197893706Y-95564835D01*
X197979952Y-95680044D01*
X197979955Y-95680047D01*
X198095164Y-95766293D01*
X198095171Y-95766297D01*
X198230017Y-95816591D01*
X198230016Y-95816591D01*
X198236944Y-95817335D01*
X198289627Y-95823000D01*
X199985372Y-95822999D01*
X200044983Y-95816591D01*
X200179831Y-95766296D01*
X200295046Y-95680046D01*
X200381296Y-95564831D01*
X200431591Y-95429983D01*
X200438000Y-95370373D01*
X200437999Y-93674628D01*
X200432799Y-93626257D01*
X200431591Y-93615016D01*
X200381297Y-93480171D01*
X200381293Y-93480164D01*
X200295047Y-93364955D01*
X200295044Y-93364952D01*
X200179835Y-93278706D01*
X200179828Y-93278702D01*
X200044982Y-93228408D01*
X200044983Y-93228408D01*
X199985383Y-93222001D01*
X199985381Y-93222000D01*
X199985373Y-93222000D01*
X199985364Y-93222000D01*
X198289629Y-93222000D01*
X198289623Y-93222001D01*
X198230016Y-93228408D01*
X198095171Y-93278702D01*
X198095164Y-93278706D01*
X197979955Y-93364952D01*
X197979952Y-93364955D01*
X197893706Y-93480164D01*
X197893702Y-93480171D01*
X197843408Y-93615017D01*
X197837764Y-93667517D01*
X197837001Y-93674623D01*
X197837000Y-93674635D01*
X194874264Y-93674635D01*
X194877962Y-93663255D01*
X194887797Y-93632987D01*
X194887797Y-93632986D01*
X194887961Y-93632483D01*
X194895920Y-93607985D01*
X194905976Y-93577038D01*
X194905976Y-93577037D01*
X194905977Y-93577034D01*
X194938000Y-93374852D01*
X194938000Y-93170148D01*
X194929120Y-93114084D01*
X194905977Y-92967965D01*
X194861153Y-92830013D01*
X194842720Y-92773281D01*
X194842718Y-92773278D01*
X194842718Y-92773276D01*
X194804816Y-92698890D01*
X194749787Y-92590890D01*
X194707026Y-92532034D01*
X194629471Y-92425286D01*
X194484713Y-92280528D01*
X194319113Y-92160215D01*
X194319112Y-92160214D01*
X194319110Y-92160213D01*
X194201226Y-92100148D01*
X194136722Y-92067281D01*
X194136719Y-92067280D01*
X194129486Y-92064930D01*
X194071813Y-92025492D01*
X194044615Y-91961134D01*
X194056530Y-91892287D01*
X194103775Y-91840812D01*
X194167807Y-91823000D01*
X194239851Y-91823000D01*
X194239852Y-91823000D01*
X194442034Y-91790977D01*
X194636719Y-91727720D01*
X194819110Y-91634787D01*
X194912090Y-91567232D01*
X194984713Y-91514471D01*
X194984715Y-91514468D01*
X194984719Y-91514466D01*
X195129466Y-91369719D01*
X195129468Y-91369715D01*
X195129471Y-91369713D01*
X195226956Y-91235534D01*
X195249787Y-91204110D01*
X195342720Y-91021719D01*
X195405977Y-90827034D01*
X195429425Y-90678983D01*
X195459354Y-90615850D01*
X195464199Y-90610719D01*
X197251158Y-88823763D01*
X205383000Y-88823763D01*
X205383000Y-89021236D01*
X205413889Y-89216263D01*
X205468055Y-89382966D01*
X205474909Y-89404061D01*
X205560439Y-89571921D01*
X205564558Y-89580004D01*
X205680615Y-89739746D01*
X205820253Y-89879384D01*
X205969734Y-89987986D01*
X205979999Y-89995444D01*
X206110651Y-90062015D01*
X206161447Y-90109990D01*
X206178242Y-90177811D01*
X206155704Y-90243946D01*
X206110651Y-90282984D01*
X205993517Y-90342667D01*
X205979995Y-90349558D01*
X205820253Y-90465615D01*
X205680615Y-90605253D01*
X205564558Y-90764995D01*
X205474908Y-90940941D01*
X205413889Y-91128736D01*
X205383000Y-91323763D01*
X205383000Y-91521236D01*
X205413889Y-91716263D01*
X205452101Y-91833866D01*
X205474909Y-91904061D01*
X205558075Y-92067281D01*
X205564558Y-92080004D01*
X205680615Y-92239746D01*
X205820253Y-92379384D01*
X205935748Y-92463294D01*
X205979999Y-92495444D01*
X206110651Y-92562015D01*
X206161447Y-92609990D01*
X206178242Y-92677811D01*
X206155704Y-92743946D01*
X206110651Y-92782984D01*
X206029001Y-92824588D01*
X205979995Y-92849558D01*
X205820253Y-92965615D01*
X205680615Y-93105253D01*
X205564558Y-93264995D01*
X205474908Y-93440941D01*
X205413889Y-93628736D01*
X205383000Y-93823763D01*
X205383000Y-94021236D01*
X205413889Y-94216263D01*
X205474908Y-94404058D01*
X205474909Y-94404061D01*
X205557682Y-94566510D01*
X205564558Y-94580004D01*
X205680615Y-94739746D01*
X205820253Y-94879384D01*
X205934154Y-94962136D01*
X205979999Y-94995444D01*
X206155939Y-95085091D01*
X206281137Y-95125770D01*
X206343736Y-95146110D01*
X206538764Y-95177000D01*
X206538769Y-95177000D01*
X206736236Y-95177000D01*
X206931263Y-95146110D01*
X207119061Y-95085091D01*
X207295001Y-94995444D01*
X207384692Y-94930279D01*
X207454746Y-94879384D01*
X207454748Y-94879381D01*
X207454752Y-94879379D01*
X207594379Y-94739752D01*
X207594381Y-94739748D01*
X207594384Y-94739746D01*
X207650966Y-94661866D01*
X207710444Y-94580001D01*
X207800091Y-94404061D01*
X207861110Y-94216263D01*
X207876402Y-94119713D01*
X207892000Y-94021236D01*
X207892000Y-93823763D01*
X207861110Y-93628736D01*
X207838780Y-93560011D01*
X207800091Y-93440939D01*
X207710444Y-93264999D01*
X207696472Y-93245768D01*
X207594384Y-93105253D01*
X207454746Y-92965615D01*
X207295005Y-92849558D01*
X207279194Y-92841502D01*
X207164346Y-92782983D01*
X207113552Y-92735010D01*
X207096757Y-92667189D01*
X207119294Y-92601054D01*
X207164345Y-92562017D01*
X207295001Y-92495444D01*
X207339252Y-92463294D01*
X207454746Y-92379384D01*
X207454748Y-92379381D01*
X207454752Y-92379379D01*
X207594379Y-92239752D01*
X207594381Y-92239748D01*
X207594384Y-92239746D01*
X207645279Y-92169692D01*
X207710444Y-92080001D01*
X207800091Y-91904061D01*
X207861110Y-91716263D01*
X207874015Y-91634784D01*
X207892000Y-91521236D01*
X207892000Y-91323763D01*
X207861110Y-91128736D01*
X207840770Y-91066137D01*
X207800091Y-90940939D01*
X207710444Y-90764999D01*
X207702986Y-90754734D01*
X207594384Y-90605253D01*
X207454746Y-90465615D01*
X207295005Y-90349558D01*
X207284313Y-90344110D01*
X207164346Y-90282983D01*
X207113552Y-90235010D01*
X207096757Y-90167189D01*
X207119294Y-90101054D01*
X207164345Y-90062017D01*
X207295001Y-89995444D01*
X207334688Y-89966610D01*
X207454746Y-89879384D01*
X207454748Y-89879381D01*
X207454752Y-89879379D01*
X207594379Y-89739752D01*
X207594381Y-89739748D01*
X207594384Y-89739746D01*
X207700057Y-89594297D01*
X207710444Y-89580001D01*
X207800091Y-89404061D01*
X207861110Y-89216263D01*
X207892000Y-89021236D01*
X207892000Y-88823763D01*
X207861110Y-88628736D01*
X207838555Y-88559319D01*
X207800091Y-88440939D01*
X207710444Y-88264999D01*
X207688492Y-88234784D01*
X207594384Y-88105253D01*
X207454746Y-87965615D01*
X207295004Y-87849558D01*
X207295003Y-87849557D01*
X207295001Y-87849556D01*
X207119061Y-87759909D01*
X207119058Y-87759908D01*
X206931263Y-87698889D01*
X206736236Y-87668000D01*
X206736231Y-87668000D01*
X206538769Y-87668000D01*
X206538764Y-87668000D01*
X206343736Y-87698889D01*
X206155941Y-87759908D01*
X206155939Y-87759908D01*
X206155939Y-87759909D01*
X206097292Y-87789791D01*
X205979995Y-87849558D01*
X205820253Y-87965615D01*
X205680615Y-88105253D01*
X205564558Y-88264995D01*
X205474908Y-88440941D01*
X205413889Y-88628736D01*
X205383000Y-88823763D01*
X197251158Y-88823763D01*
X197515602Y-88559319D01*
X197542529Y-88544615D01*
X197568348Y-88528023D01*
X197574548Y-88527131D01*
X197576925Y-88525834D01*
X197603283Y-88523000D01*
X197800320Y-88523000D01*
X197867359Y-88542685D01*
X197899585Y-88572687D01*
X197979954Y-88680046D01*
X198011338Y-88703540D01*
X198095164Y-88766293D01*
X198095171Y-88766297D01*
X198230017Y-88816591D01*
X198230016Y-88816591D01*
X198236944Y-88817335D01*
X198289627Y-88823000D01*
X199985372Y-88822999D01*
X200044983Y-88816591D01*
X200179831Y-88766296D01*
X200192330Y-88756939D01*
X200242168Y-88719631D01*
X200275731Y-88694505D01*
X200295046Y-88680046D01*
X200381296Y-88564831D01*
X200431591Y-88429983D01*
X200438000Y-88370373D01*
X200437999Y-86674628D01*
X200431591Y-86615017D01*
X200411237Y-86560446D01*
X200381297Y-86480171D01*
X200381293Y-86480164D01*
X200295047Y-86364955D01*
X200295044Y-86364952D01*
X200179835Y-86278706D01*
X200179828Y-86278702D01*
X200044982Y-86228408D01*
X200044983Y-86228408D01*
X199985383Y-86222001D01*
X199985381Y-86222000D01*
X199985373Y-86222000D01*
X199985364Y-86222000D01*
X198289629Y-86222000D01*
X198289623Y-86222001D01*
X198230016Y-86228408D01*
X198095171Y-86278702D01*
X198095164Y-86278706D01*
X197979956Y-86364952D01*
X197979955Y-86364953D01*
X197979954Y-86364954D01*
X197903647Y-86466887D01*
X197899587Y-86472311D01*
X197843653Y-86514182D01*
X197800320Y-86522000D01*
X197038954Y-86522000D01*
X197006891Y-86528376D01*
X197006892Y-86528377D01*
X196845670Y-86560446D01*
X196845664Y-86560448D01*
X196663588Y-86635866D01*
X196663579Y-86635871D01*
X196499719Y-86745359D01*
X196499715Y-86745362D01*
X195500893Y-87744185D01*
X195439570Y-87777670D01*
X195369878Y-87772686D01*
X195313945Y-87730814D01*
X195289528Y-87665350D01*
X195302727Y-87600209D01*
X195327504Y-87551583D01*
X195342720Y-87521719D01*
X195405977Y-87327034D01*
X195438000Y-87124852D01*
X195438000Y-86920148D01*
X195405977Y-86717966D01*
X195395818Y-86686701D01*
X195372527Y-86615017D01*
X195342720Y-86523281D01*
X195342718Y-86523278D01*
X195342718Y-86523276D01*
X195303956Y-86447202D01*
X195249787Y-86340890D01*
X195228964Y-86312229D01*
X195129471Y-86175286D01*
X194984713Y-86030528D01*
X194819113Y-85910215D01*
X194819112Y-85910214D01*
X194819110Y-85910213D01*
X194752124Y-85876082D01*
X194636723Y-85817281D01*
X194442034Y-85754022D01*
X194267495Y-85726378D01*
X194239852Y-85722000D01*
X194035148Y-85722000D01*
X194010829Y-85725851D01*
X193832965Y-85754022D01*
X193638276Y-85817281D01*
X193455886Y-85910215D01*
X193290286Y-86030528D01*
X193145528Y-86175286D01*
X193025215Y-86340886D01*
X192932281Y-86523276D01*
X192869022Y-86717965D01*
X192837000Y-86920148D01*
X192837000Y-87124851D01*
X192869022Y-87327034D01*
X192932281Y-87521723D01*
X192995971Y-87646719D01*
X193022553Y-87698890D01*
X193025215Y-87704113D01*
X193145528Y-87869713D01*
X193290286Y-88014471D01*
X193427920Y-88114466D01*
X193455890Y-88134787D01*
X193572107Y-88194003D01*
X193638276Y-88227718D01*
X193638278Y-88227718D01*
X193638281Y-88227720D01*
X193690005Y-88244526D01*
X193832965Y-88290977D01*
X193924059Y-88305405D01*
X194035148Y-88323000D01*
X194035149Y-88323000D01*
X194239851Y-88323000D01*
X194239852Y-88323000D01*
X194442034Y-88290977D01*
X194636719Y-88227720D01*
X194715210Y-88187726D01*
X194783877Y-88174830D01*
X194848617Y-88201105D01*
X194888875Y-88258211D01*
X194891869Y-88328017D01*
X194859185Y-88385892D01*
X194049297Y-89195781D01*
X193987974Y-89229266D01*
X193981015Y-89230573D01*
X193832968Y-89254022D01*
X193638278Y-89317281D01*
X193455886Y-89410215D01*
X193290286Y-89530528D01*
X193145528Y-89675286D01*
X193025215Y-89840886D01*
X192932281Y-90023276D01*
X192869022Y-90217965D01*
X192837000Y-90420148D01*
X192837000Y-90624851D01*
X192869022Y-90827034D01*
X192932281Y-91021723D01*
X193025215Y-91204113D01*
X193145528Y-91369713D01*
X193290286Y-91514471D01*
X193395320Y-91590781D01*
X193455890Y-91634787D01*
X193638281Y-91727720D01*
X193645513Y-91730069D01*
X193703187Y-91769508D01*
X193730385Y-91833866D01*
X193718470Y-91902713D01*
X193671225Y-91954188D01*
X193607193Y-91972000D01*
X193535148Y-91972000D01*
X193510829Y-91975851D01*
X193332965Y-92004022D01*
X193138276Y-92067281D01*
X192955886Y-92160215D01*
X192790286Y-92280528D01*
X192645528Y-92425286D01*
X192525215Y-92590886D01*
X192432281Y-92773276D01*
X192369022Y-92967965D01*
X192340399Y-93148687D01*
X192337000Y-93170148D01*
X163609037Y-93170148D01*
X163729466Y-93049719D01*
X163729468Y-93049715D01*
X163729471Y-93049713D01*
X163782232Y-92977090D01*
X163849787Y-92884110D01*
X163942720Y-92701719D01*
X164005977Y-92507034D01*
X164038000Y-92304852D01*
X164038000Y-92100148D01*
X164032422Y-92064931D01*
X164005977Y-91897965D01*
X163971214Y-91790977D01*
X163942720Y-91703281D01*
X163942718Y-91703278D01*
X163942718Y-91703276D01*
X163909003Y-91637107D01*
X163849787Y-91520890D01*
X163842056Y-91510249D01*
X163729471Y-91355286D01*
X163584713Y-91210528D01*
X163419114Y-91090215D01*
X163375485Y-91067985D01*
X163326417Y-91042983D01*
X163275623Y-90995011D01*
X163258828Y-90927190D01*
X163281365Y-90861055D01*
X163326417Y-90822016D01*
X163419110Y-90774787D01*
X163471370Y-90736818D01*
X163584713Y-90654471D01*
X163584715Y-90654468D01*
X163584719Y-90654466D01*
X163729466Y-90509719D01*
X163729468Y-90509715D01*
X163729471Y-90509713D01*
X163782232Y-90437090D01*
X163849787Y-90344110D01*
X163942720Y-90161719D01*
X164005977Y-89967034D01*
X164038000Y-89764852D01*
X164038000Y-89560148D01*
X164005977Y-89357966D01*
X163998474Y-89334875D01*
X163972204Y-89254023D01*
X163942720Y-89163281D01*
X163942718Y-89163278D01*
X163942718Y-89163276D01*
X163894634Y-89068907D01*
X163849787Y-88980890D01*
X163840540Y-88968163D01*
X163729471Y-88815286D01*
X163584713Y-88670528D01*
X163419114Y-88550215D01*
X163395048Y-88537953D01*
X163326417Y-88502983D01*
X163275623Y-88455011D01*
X163258828Y-88387190D01*
X163281365Y-88321055D01*
X163326417Y-88282016D01*
X163419110Y-88234787D01*
X163483883Y-88187727D01*
X163584713Y-88114471D01*
X163584715Y-88114468D01*
X163584719Y-88114466D01*
X163729466Y-87969719D01*
X163729468Y-87969715D01*
X163729471Y-87969713D01*
X163782232Y-87897090D01*
X163849787Y-87804110D01*
X163942720Y-87621719D01*
X164005977Y-87427034D01*
X164038000Y-87224852D01*
X164038000Y-87020148D01*
X164005977Y-86817966D01*
X163942720Y-86623281D01*
X163940805Y-86619522D01*
X166737000Y-86619522D01*
X166737000Y-88315257D01*
X166737001Y-88315263D01*
X166743408Y-88374870D01*
X166793702Y-88509715D01*
X166793703Y-88509716D01*
X166793704Y-88509718D01*
X166879954Y-88624933D01*
X166888480Y-88631315D01*
X166930350Y-88687248D01*
X166935334Y-88756939D01*
X166924653Y-88786876D01*
X166832281Y-88968163D01*
X166769022Y-89162852D01*
X166737000Y-89365035D01*
X166737000Y-89569738D01*
X166769022Y-89771921D01*
X166832281Y-89966610D01*
X166925215Y-90149000D01*
X167045528Y-90314600D01*
X167190286Y-90459358D01*
X167294014Y-90534719D01*
X167355890Y-90579674D01*
X167444555Y-90624851D01*
X167538276Y-90672605D01*
X167538278Y-90672605D01*
X167538281Y-90672607D01*
X167624127Y-90700500D01*
X167732965Y-90735864D01*
X167834057Y-90751875D01*
X167935148Y-90767887D01*
X167935149Y-90767887D01*
X168139851Y-90767887D01*
X168139852Y-90767887D01*
X168342034Y-90735864D01*
X168536719Y-90672607D01*
X168719110Y-90579674D01*
X168819957Y-90506405D01*
X168884713Y-90459358D01*
X168884715Y-90459355D01*
X168884719Y-90459353D01*
X168923924Y-90420148D01*
X185217000Y-90420148D01*
X185217000Y-90624851D01*
X185249022Y-90827034D01*
X185312281Y-91021723D01*
X185405215Y-91204113D01*
X185525528Y-91369713D01*
X185670286Y-91514471D01*
X185775320Y-91590781D01*
X185835890Y-91634787D01*
X185945388Y-91690579D01*
X186018276Y-91727718D01*
X186018278Y-91727718D01*
X186018281Y-91727720D01*
X186122637Y-91761627D01*
X186212965Y-91790977D01*
X186314057Y-91806988D01*
X186415148Y-91823000D01*
X186415149Y-91823000D01*
X186619851Y-91823000D01*
X186619852Y-91823000D01*
X186822034Y-91790977D01*
X187016719Y-91727720D01*
X187199110Y-91634787D01*
X187292090Y-91567232D01*
X187364713Y-91514471D01*
X187364715Y-91514468D01*
X187364719Y-91514466D01*
X187509466Y-91369719D01*
X187509468Y-91369715D01*
X187509471Y-91369713D01*
X187606956Y-91235534D01*
X187629787Y-91204110D01*
X187722720Y-91021719D01*
X187785977Y-90827034D01*
X187818000Y-90624852D01*
X187818000Y-90420148D01*
X187809916Y-90369110D01*
X187785977Y-90217965D01*
X187722718Y-90023276D01*
X187684870Y-89948997D01*
X187629787Y-89840890D01*
X187596714Y-89795368D01*
X187509471Y-89675286D01*
X187364713Y-89530528D01*
X187199113Y-89410215D01*
X187199112Y-89410214D01*
X187199110Y-89410213D01*
X187142153Y-89381191D01*
X187016723Y-89317281D01*
X186822034Y-89254022D01*
X186634190Y-89224271D01*
X186619852Y-89222000D01*
X186415148Y-89222000D01*
X186400810Y-89224271D01*
X186212965Y-89254022D01*
X186018276Y-89317281D01*
X185835886Y-89410215D01*
X185670286Y-89530528D01*
X185525528Y-89675286D01*
X185405215Y-89840886D01*
X185312281Y-90023276D01*
X185249022Y-90217965D01*
X185217000Y-90420148D01*
X168923924Y-90420148D01*
X169029466Y-90314606D01*
X169029468Y-90314602D01*
X169029471Y-90314600D01*
X169113538Y-90198890D01*
X169149787Y-90148997D01*
X169242720Y-89966606D01*
X169305977Y-89771921D01*
X169338000Y-89569739D01*
X169338000Y-89365035D01*
X169328484Y-89304952D01*
X169305977Y-89162852D01*
X169259757Y-89020603D01*
X169242720Y-88968168D01*
X169242718Y-88968165D01*
X169242718Y-88968163D01*
X169150347Y-88786876D01*
X169137451Y-88718207D01*
X169163727Y-88653466D01*
X169164987Y-88651906D01*
X169174507Y-88640308D01*
X169195046Y-88624933D01*
X169277078Y-88515351D01*
X169278835Y-88513212D01*
X169305507Y-88495048D01*
X169331347Y-88475705D01*
X169334835Y-88475075D01*
X169336585Y-88473884D01*
X169342282Y-88473732D01*
X169374680Y-88467887D01*
X170791156Y-88467887D01*
X170832096Y-88459743D01*
X170891132Y-88448000D01*
X170984449Y-88429438D01*
X171037778Y-88407348D01*
X171166527Y-88354019D01*
X171330395Y-88244526D01*
X171469752Y-88105169D01*
X171469753Y-88105166D01*
X171476819Y-88098101D01*
X171476822Y-88098097D01*
X172654771Y-86920148D01*
X185217000Y-86920148D01*
X185217000Y-87124851D01*
X185249022Y-87327034D01*
X185312281Y-87521723D01*
X185375971Y-87646719D01*
X185402553Y-87698890D01*
X185405215Y-87704113D01*
X185525528Y-87869713D01*
X185670286Y-88014471D01*
X185807920Y-88114466D01*
X185835890Y-88134787D01*
X185952107Y-88194003D01*
X186018276Y-88227718D01*
X186018278Y-88227718D01*
X186018281Y-88227720D01*
X186070005Y-88244526D01*
X186212965Y-88290977D01*
X186304059Y-88305405D01*
X186415148Y-88323000D01*
X186415149Y-88323000D01*
X186619851Y-88323000D01*
X186619852Y-88323000D01*
X186822034Y-88290977D01*
X187016719Y-88227720D01*
X187199110Y-88134787D01*
X187292090Y-88067232D01*
X187364713Y-88014471D01*
X187364715Y-88014468D01*
X187364719Y-88014466D01*
X187509466Y-87869719D01*
X187509468Y-87869715D01*
X187509471Y-87869713D01*
X187589247Y-87759909D01*
X187629787Y-87704110D01*
X187722720Y-87521719D01*
X187785977Y-87327034D01*
X187818000Y-87124852D01*
X187818000Y-86920148D01*
X187785977Y-86717966D01*
X187775818Y-86686701D01*
X187752527Y-86615017D01*
X187722720Y-86523281D01*
X187722718Y-86523278D01*
X187722718Y-86523276D01*
X187683956Y-86447202D01*
X187629787Y-86340890D01*
X187608964Y-86312229D01*
X187509471Y-86175286D01*
X187364713Y-86030528D01*
X187199113Y-85910215D01*
X187199112Y-85910214D01*
X187199110Y-85910213D01*
X187132124Y-85876082D01*
X187016723Y-85817281D01*
X186822034Y-85754022D01*
X186647495Y-85726378D01*
X186619852Y-85722000D01*
X186415148Y-85722000D01*
X186390829Y-85725851D01*
X186212965Y-85754022D01*
X186018276Y-85817281D01*
X185835886Y-85910215D01*
X185670286Y-86030528D01*
X185525528Y-86175286D01*
X185405215Y-86340886D01*
X185312281Y-86523276D01*
X185249022Y-86717965D01*
X185217000Y-86920148D01*
X172654771Y-86920148D01*
X176662641Y-82912278D01*
X190217000Y-82912278D01*
X190217000Y-83132721D01*
X190251485Y-83350452D01*
X190319603Y-83560103D01*
X190319604Y-83560106D01*
X190419687Y-83756525D01*
X190549252Y-83934858D01*
X190549256Y-83934863D01*
X190705136Y-84090743D01*
X190705141Y-84090747D01*
X190860692Y-84203760D01*
X190883478Y-84220315D01*
X190996623Y-84277966D01*
X191079893Y-84320395D01*
X191079896Y-84320396D01*
X191184721Y-84354455D01*
X191289549Y-84388515D01*
X191507278Y-84423000D01*
X191507279Y-84423000D01*
X191727721Y-84423000D01*
X191727722Y-84423000D01*
X191945451Y-84388515D01*
X192155106Y-84320395D01*
X192351522Y-84220315D01*
X192529865Y-84090742D01*
X192685742Y-83934865D01*
X192815315Y-83756522D01*
X192915395Y-83560106D01*
X192983515Y-83350451D01*
X193018000Y-83132722D01*
X193018000Y-82912278D01*
X192983515Y-82694549D01*
X192945022Y-82576079D01*
X192915396Y-82484896D01*
X192915395Y-82484893D01*
X192851900Y-82360280D01*
X192815315Y-82288478D01*
X192774971Y-82232949D01*
X192685747Y-82110141D01*
X192685743Y-82110136D01*
X192529863Y-81954256D01*
X192529858Y-81954252D01*
X192351525Y-81824687D01*
X192351524Y-81824686D01*
X192351522Y-81824685D01*
X192288596Y-81792622D01*
X192155106Y-81724604D01*
X192155103Y-81724603D01*
X191945452Y-81656485D01*
X191836586Y-81639242D01*
X191727722Y-81622000D01*
X191507278Y-81622000D01*
X191434701Y-81633495D01*
X191289547Y-81656485D01*
X191079896Y-81724603D01*
X191079893Y-81724604D01*
X190883474Y-81824687D01*
X190705141Y-81954252D01*
X190705136Y-81954256D01*
X190549256Y-82110136D01*
X190549252Y-82110141D01*
X190419687Y-82288474D01*
X190319604Y-82484893D01*
X190319603Y-82484896D01*
X190251485Y-82694547D01*
X190217000Y-82912278D01*
X176662641Y-82912278D01*
X177075278Y-82499641D01*
X177075282Y-82499639D01*
X177214639Y-82360282D01*
X177324132Y-82196414D01*
X177399551Y-82014335D01*
X177401310Y-82005495D01*
X177422393Y-81899500D01*
X177438000Y-81821041D01*
X177438000Y-81526999D01*
X177457685Y-81459960D01*
X177510489Y-81414205D01*
X177562000Y-81402999D01*
X177585371Y-81402999D01*
X177585372Y-81402999D01*
X177644983Y-81396591D01*
X177779831Y-81346296D01*
X177895046Y-81260046D01*
X177981296Y-81144831D01*
X178031591Y-81009983D01*
X178038000Y-80950373D01*
X178037999Y-79024635D01*
X200687000Y-79024635D01*
X200687000Y-81520370D01*
X200687001Y-81520376D01*
X200693408Y-81579983D01*
X200743702Y-81714828D01*
X200743706Y-81714835D01*
X200829952Y-81830044D01*
X200829955Y-81830047D01*
X200945164Y-81916293D01*
X200945171Y-81916297D01*
X201080017Y-81966591D01*
X201080016Y-81966591D01*
X201086944Y-81967335D01*
X201139627Y-81973000D01*
X203635372Y-81972999D01*
X203694983Y-81966591D01*
X203829831Y-81916296D01*
X203945046Y-81830046D01*
X204031296Y-81714831D01*
X204081591Y-81579983D01*
X204088000Y-81520373D01*
X204087999Y-79024628D01*
X204081591Y-78965017D01*
X204067678Y-78927715D01*
X204031297Y-78830171D01*
X204031293Y-78830164D01*
X203945047Y-78714955D01*
X203945044Y-78714952D01*
X203829835Y-78628706D01*
X203829828Y-78628702D01*
X203694982Y-78578408D01*
X203694983Y-78578408D01*
X203635383Y-78572001D01*
X203635381Y-78572000D01*
X203635373Y-78572000D01*
X203635364Y-78572000D01*
X201139629Y-78572000D01*
X201139623Y-78572001D01*
X201080016Y-78578408D01*
X200945171Y-78628702D01*
X200945164Y-78628706D01*
X200829955Y-78714952D01*
X200829952Y-78714955D01*
X200743706Y-78830164D01*
X200743702Y-78830171D01*
X200693408Y-78965017D01*
X200687001Y-79024616D01*
X200687001Y-79024623D01*
X200687000Y-79024635D01*
X178037999Y-79024635D01*
X178037999Y-78654628D01*
X178031591Y-78595017D01*
X178025396Y-78578408D01*
X177981297Y-78460171D01*
X177981293Y-78460164D01*
X177895047Y-78344955D01*
X177895044Y-78344952D01*
X177779835Y-78258706D01*
X177779828Y-78258702D01*
X177644982Y-78208408D01*
X177644983Y-78208408D01*
X177585383Y-78202001D01*
X177585381Y-78202000D01*
X177585373Y-78202000D01*
X177585364Y-78202000D01*
X175289629Y-78202000D01*
X175289623Y-78202001D01*
X175230016Y-78208408D01*
X175095171Y-78258702D01*
X175095164Y-78258706D01*
X174979955Y-78344952D01*
X174979952Y-78344955D01*
X174893706Y-78460164D01*
X174893702Y-78460171D01*
X174843408Y-78595017D01*
X174837001Y-78654616D01*
X174837001Y-78654623D01*
X174837000Y-78654635D01*
X174837000Y-80950370D01*
X174837001Y-80950373D01*
X174843408Y-81009983D01*
X174893702Y-81144828D01*
X174893706Y-81144835D01*
X174979952Y-81260044D01*
X174979955Y-81260047D01*
X175095164Y-81346293D01*
X175095169Y-81346296D01*
X175135520Y-81361346D01*
X175191454Y-81403216D01*
X175215872Y-81468680D01*
X175201021Y-81536953D01*
X175179869Y-81565209D01*
X170314512Y-86430568D01*
X170253189Y-86464053D01*
X170226831Y-86466887D01*
X169374680Y-86466887D01*
X169307641Y-86447202D01*
X169275413Y-86417198D01*
X169195046Y-86309841D01*
X169153455Y-86278706D01*
X169079835Y-86223593D01*
X169079828Y-86223589D01*
X168944982Y-86173295D01*
X168944983Y-86173295D01*
X168885383Y-86166888D01*
X168885381Y-86166887D01*
X168885373Y-86166887D01*
X168885364Y-86166887D01*
X167189629Y-86166887D01*
X167189623Y-86166888D01*
X167130016Y-86173295D01*
X166995171Y-86223589D01*
X166995164Y-86223593D01*
X166879955Y-86309839D01*
X166879952Y-86309842D01*
X166793706Y-86425051D01*
X166793702Y-86425058D01*
X166743408Y-86559904D01*
X166737001Y-86619503D01*
X166737000Y-86619522D01*
X163940805Y-86619522D01*
X163849787Y-86440890D01*
X163842056Y-86430249D01*
X163729471Y-86275286D01*
X163584713Y-86130528D01*
X163419114Y-86010215D01*
X163346654Y-85973295D01*
X163326417Y-85962983D01*
X163275623Y-85915011D01*
X163258828Y-85847190D01*
X163281365Y-85781055D01*
X163326417Y-85742016D01*
X163419110Y-85694787D01*
X163440270Y-85679413D01*
X163584713Y-85574471D01*
X163584715Y-85574468D01*
X163584719Y-85574466D01*
X163729466Y-85429719D01*
X163729468Y-85429715D01*
X163729471Y-85429713D01*
X163817593Y-85308421D01*
X163849787Y-85264110D01*
X163942720Y-85081719D01*
X164005977Y-84887034D01*
X164038000Y-84684852D01*
X164038000Y-84480148D01*
X164029409Y-84425909D01*
X164005977Y-84277965D01*
X163945146Y-84090747D01*
X163942720Y-84083281D01*
X163942718Y-84083278D01*
X163942718Y-84083276D01*
X163867916Y-83936471D01*
X163849787Y-83900890D01*
X163825321Y-83867215D01*
X163729471Y-83735286D01*
X163584713Y-83590528D01*
X163419113Y-83470215D01*
X163419112Y-83470214D01*
X163419110Y-83470213D01*
X163335986Y-83427859D01*
X163236723Y-83377281D01*
X163042034Y-83314022D01*
X162867495Y-83286378D01*
X162839852Y-83282000D01*
X162635148Y-83282000D01*
X162610829Y-83285851D01*
X162432965Y-83314022D01*
X162238276Y-83377281D01*
X162055886Y-83470215D01*
X161890286Y-83590528D01*
X161745528Y-83735286D01*
X161625215Y-83900886D01*
X161532281Y-84083276D01*
X161469022Y-84277965D01*
X161437000Y-84480148D01*
X161437000Y-84684851D01*
X161469022Y-84887034D01*
X161532281Y-85081723D01*
X161625215Y-85264113D01*
X161745528Y-85429713D01*
X161890286Y-85574471D01*
X162045249Y-85687056D01*
X162055890Y-85694787D01*
X162147340Y-85741383D01*
X162148580Y-85742015D01*
X162199376Y-85789990D01*
X162216171Y-85857811D01*
X162193634Y-85923946D01*
X162148580Y-85962985D01*
X162055886Y-86010215D01*
X161890286Y-86130528D01*
X161745528Y-86275286D01*
X161625215Y-86440886D01*
X161532281Y-86623276D01*
X161469022Y-86817965D01*
X161437000Y-87020148D01*
X161437000Y-87066397D01*
X161417315Y-87133436D01*
X161364511Y-87179191D01*
X161295353Y-87189135D01*
X161231797Y-87160110D01*
X161225319Y-87154078D01*
X153983422Y-79912181D01*
X153949937Y-79850858D01*
X153954921Y-79781166D01*
X153996793Y-79725233D01*
X154062257Y-79700816D01*
X154071103Y-79700500D01*
X154458542Y-79700500D01*
X154489566Y-79694328D01*
X154555188Y-79681275D01*
X154651836Y-79662051D01*
X154705165Y-79639961D01*
X154833914Y-79586632D01*
X154997782Y-79477139D01*
X155137139Y-79337782D01*
X155137140Y-79337779D01*
X155144206Y-79330714D01*
X155144209Y-79330710D01*
X159050284Y-75424635D01*
X163277000Y-75424635D01*
X163277000Y-77120370D01*
X163277001Y-77120376D01*
X163283408Y-77179983D01*
X163333702Y-77314828D01*
X163333706Y-77314835D01*
X163419952Y-77430044D01*
X163419955Y-77430047D01*
X163535164Y-77516293D01*
X163535171Y-77516297D01*
X163670017Y-77566591D01*
X163670016Y-77566591D01*
X163676944Y-77567335D01*
X163729627Y-77573000D01*
X165425372Y-77572999D01*
X165484983Y-77566591D01*
X165619831Y-77516296D01*
X165735046Y-77430046D01*
X165821296Y-77314831D01*
X165871591Y-77179983D01*
X165878000Y-77120373D01*
X165877999Y-76666213D01*
X186022000Y-76666213D01*
X186022000Y-76878786D01*
X186052302Y-77070109D01*
X186055254Y-77088743D01*
X186084899Y-77179982D01*
X186120944Y-77290914D01*
X186217451Y-77480320D01*
X186342390Y-77652286D01*
X186492713Y-77802609D01*
X186664679Y-77927548D01*
X186664681Y-77927549D01*
X186664684Y-77927551D01*
X186854088Y-78024057D01*
X187056257Y-78089746D01*
X187266213Y-78123000D01*
X187266214Y-78123000D01*
X187478786Y-78123000D01*
X187478787Y-78123000D01*
X187688743Y-78089746D01*
X187890912Y-78024057D01*
X188080316Y-77927551D01*
X188102289Y-77911586D01*
X188252286Y-77802609D01*
X188252288Y-77802606D01*
X188252292Y-77802604D01*
X188402604Y-77652292D01*
X188402606Y-77652288D01*
X188402609Y-77652286D01*
X188527548Y-77480320D01*
X188527547Y-77480320D01*
X188527551Y-77480316D01*
X188624057Y-77290912D01*
X188689746Y-77088743D01*
X188723000Y-76878787D01*
X188723000Y-76666213D01*
X188689746Y-76456257D01*
X188624057Y-76254088D01*
X188527551Y-76064684D01*
X188527549Y-76064681D01*
X188527548Y-76064679D01*
X188402609Y-75892713D01*
X188252286Y-75742390D01*
X188080320Y-75617451D01*
X187890914Y-75520944D01*
X187890913Y-75520943D01*
X187890912Y-75520943D01*
X187688743Y-75455254D01*
X187688741Y-75455253D01*
X187688740Y-75455253D01*
X187527457Y-75429708D01*
X187478787Y-75422000D01*
X187266213Y-75422000D01*
X187217542Y-75429708D01*
X187056260Y-75455253D01*
X186854085Y-75520944D01*
X186664679Y-75617451D01*
X186492713Y-75742390D01*
X186342390Y-75892713D01*
X186217451Y-76064679D01*
X186120944Y-76254085D01*
X186055253Y-76456260D01*
X186022000Y-76666213D01*
X165877999Y-76666213D01*
X165877999Y-76254088D01*
X165877999Y-75424629D01*
X165877998Y-75424623D01*
X165877997Y-75424616D01*
X165871591Y-75365017D01*
X165859343Y-75332179D01*
X165821297Y-75230171D01*
X165821293Y-75230164D01*
X165735047Y-75114955D01*
X165735044Y-75114952D01*
X165619835Y-75028706D01*
X165619828Y-75028702D01*
X165484982Y-74978408D01*
X165484983Y-74978408D01*
X165425383Y-74972001D01*
X165425381Y-74972000D01*
X165425373Y-74972000D01*
X165425364Y-74972000D01*
X163729629Y-74972000D01*
X163729623Y-74972001D01*
X163670016Y-74978408D01*
X163535171Y-75028702D01*
X163535164Y-75028706D01*
X163419955Y-75114952D01*
X163419952Y-75114955D01*
X163333706Y-75230164D01*
X163333702Y-75230171D01*
X163283408Y-75365017D01*
X163277282Y-75422000D01*
X163277001Y-75424623D01*
X163277000Y-75424635D01*
X159050284Y-75424635D01*
X159675278Y-74799641D01*
X159675282Y-74799639D01*
X159814639Y-74660282D01*
X159924132Y-74496414D01*
X159999551Y-74314335D01*
X160038000Y-74121041D01*
X160038000Y-73946999D01*
X160057685Y-73879960D01*
X160110489Y-73834205D01*
X160161995Y-73822999D01*
X161795372Y-73822999D01*
X161854983Y-73816591D01*
X161989831Y-73766296D01*
X162105046Y-73680046D01*
X162191296Y-73564831D01*
X162241591Y-73429983D01*
X162248000Y-73370373D01*
X162247999Y-72420148D01*
X163277000Y-72420148D01*
X163277000Y-72624851D01*
X163309022Y-72827034D01*
X163372281Y-73021723D01*
X163465215Y-73204113D01*
X163585528Y-73369713D01*
X163730286Y-73514471D01*
X163880707Y-73623756D01*
X163895890Y-73634787D01*
X163984712Y-73680044D01*
X164078276Y-73727718D01*
X164078278Y-73727718D01*
X164078281Y-73727720D01*
X164182637Y-73761627D01*
X164272965Y-73790977D01*
X164374057Y-73806988D01*
X164475148Y-73823000D01*
X164475149Y-73823000D01*
X164679851Y-73823000D01*
X164679852Y-73823000D01*
X164882034Y-73790977D01*
X165076719Y-73727720D01*
X165259110Y-73634787D01*
X165366565Y-73556717D01*
X165424713Y-73514471D01*
X165424715Y-73514468D01*
X165424719Y-73514466D01*
X165569466Y-73369719D01*
X165569468Y-73369715D01*
X165569471Y-73369713D01*
X165622232Y-73297090D01*
X165689787Y-73204110D01*
X165782720Y-73021719D01*
X165845977Y-72827034D01*
X165878000Y-72624852D01*
X165878000Y-72420148D01*
X165845977Y-72217966D01*
X165842155Y-72206204D01*
X165805926Y-72094701D01*
X165782720Y-72023281D01*
X165782718Y-72023278D01*
X165782718Y-72023276D01*
X165689787Y-71840890D01*
X165619532Y-71744191D01*
X165619531Y-71744188D01*
X165569471Y-71675287D01*
X165569467Y-71675282D01*
X165568820Y-71674635D01*
X170897000Y-71674635D01*
X170897000Y-73370370D01*
X170897001Y-73370376D01*
X170903408Y-73429983D01*
X170953702Y-73564828D01*
X170953706Y-73564835D01*
X171039952Y-73680044D01*
X171039955Y-73680047D01*
X171155164Y-73766293D01*
X171155171Y-73766297D01*
X171290017Y-73816591D01*
X171290016Y-73816591D01*
X171296944Y-73817335D01*
X171349627Y-73823000D01*
X173045372Y-73822999D01*
X173104983Y-73816591D01*
X173239831Y-73766296D01*
X173355046Y-73680046D01*
X173441296Y-73564831D01*
X173491591Y-73429983D01*
X173498000Y-73370373D01*
X173497999Y-71674628D01*
X173491591Y-71615017D01*
X173441296Y-71480169D01*
X173441295Y-71480168D01*
X173441293Y-71480164D01*
X173355047Y-71364955D01*
X173355044Y-71364952D01*
X173239835Y-71278706D01*
X173239828Y-71278702D01*
X173104982Y-71228408D01*
X173104983Y-71228408D01*
X173045383Y-71222001D01*
X173045381Y-71222000D01*
X173045373Y-71222000D01*
X173045364Y-71222000D01*
X171349629Y-71222000D01*
X171349623Y-71222001D01*
X171290016Y-71228408D01*
X171155171Y-71278702D01*
X171155164Y-71278706D01*
X171039955Y-71364952D01*
X171039952Y-71364955D01*
X170953706Y-71480164D01*
X170953702Y-71480171D01*
X170903408Y-71615017D01*
X170897001Y-71674616D01*
X170897001Y-71674623D01*
X170897000Y-71674635D01*
X165568820Y-71674635D01*
X165424713Y-71530528D01*
X165259113Y-71410215D01*
X165259112Y-71410214D01*
X165259110Y-71410213D01*
X165202153Y-71381191D01*
X165076723Y-71317281D01*
X164882034Y-71254022D01*
X164707495Y-71226378D01*
X164679852Y-71222000D01*
X164475148Y-71222000D01*
X164450829Y-71225851D01*
X164272965Y-71254022D01*
X164078276Y-71317281D01*
X163895886Y-71410215D01*
X163730286Y-71530528D01*
X163585528Y-71675286D01*
X163465215Y-71840886D01*
X163372281Y-72023276D01*
X163309022Y-72217965D01*
X163277000Y-72420148D01*
X162247999Y-72420148D01*
X162247999Y-71674628D01*
X162241591Y-71615017D01*
X162191296Y-71480169D01*
X162191295Y-71480168D01*
X162191293Y-71480164D01*
X162105047Y-71364955D01*
X162105044Y-71364952D01*
X161989835Y-71278706D01*
X161989828Y-71278702D01*
X161854982Y-71228408D01*
X161854983Y-71228408D01*
X161795383Y-71222001D01*
X161795381Y-71222000D01*
X161795373Y-71222000D01*
X161795365Y-71222000D01*
X160162000Y-71222000D01*
X160094961Y-71202315D01*
X160049206Y-71149511D01*
X160038000Y-71098000D01*
X160038000Y-70712579D01*
X160057685Y-70645540D01*
X160110489Y-70599785D01*
X160179647Y-70589841D01*
X160234884Y-70612260D01*
X160265890Y-70634787D01*
X160352061Y-70678693D01*
X160448276Y-70727718D01*
X160448278Y-70727718D01*
X160448281Y-70727720D01*
X160552637Y-70761627D01*
X160642965Y-70790977D01*
X160744057Y-70806988D01*
X160845148Y-70823000D01*
X160845149Y-70823000D01*
X161049851Y-70823000D01*
X161049852Y-70823000D01*
X161252034Y-70790977D01*
X161446719Y-70727720D01*
X161629110Y-70634787D01*
X161722090Y-70567232D01*
X161794713Y-70514471D01*
X161794715Y-70514468D01*
X161794719Y-70514466D01*
X161939466Y-70369719D01*
X161939468Y-70369715D01*
X161939471Y-70369713D01*
X161992232Y-70297090D01*
X162059787Y-70204110D01*
X162152720Y-70021719D01*
X162215977Y-69827034D01*
X162248000Y-69624852D01*
X162248000Y-69420148D01*
X163277000Y-69420148D01*
X163277000Y-69624851D01*
X163309022Y-69827034D01*
X163372281Y-70021723D01*
X163465215Y-70204113D01*
X163585528Y-70369713D01*
X163730286Y-70514471D01*
X163848074Y-70600047D01*
X163895890Y-70634787D01*
X163994731Y-70685149D01*
X164078276Y-70727718D01*
X164078278Y-70727718D01*
X164078281Y-70727720D01*
X164182637Y-70761627D01*
X164272965Y-70790977D01*
X164374057Y-70806988D01*
X164475148Y-70823000D01*
X164475149Y-70823000D01*
X164679851Y-70823000D01*
X164679852Y-70823000D01*
X164882034Y-70790977D01*
X165076719Y-70727720D01*
X165259110Y-70634787D01*
X165352090Y-70567232D01*
X165424713Y-70514471D01*
X165424715Y-70514468D01*
X165424719Y-70514466D01*
X165569466Y-70369719D01*
X165569468Y-70369715D01*
X165569471Y-70369713D01*
X165622232Y-70297090D01*
X165689787Y-70204110D01*
X165782720Y-70021719D01*
X165845977Y-69827034D01*
X165878000Y-69624852D01*
X165878000Y-69420148D01*
X170897000Y-69420148D01*
X170897000Y-69624851D01*
X170929022Y-69827034D01*
X170992281Y-70021723D01*
X171085215Y-70204113D01*
X171205528Y-70369713D01*
X171350286Y-70514471D01*
X171468074Y-70600047D01*
X171515890Y-70634787D01*
X171614731Y-70685149D01*
X171698276Y-70727718D01*
X171698278Y-70727718D01*
X171698281Y-70727720D01*
X171802637Y-70761627D01*
X171892965Y-70790977D01*
X171994057Y-70806988D01*
X172095148Y-70823000D01*
X172095149Y-70823000D01*
X172299851Y-70823000D01*
X172299852Y-70823000D01*
X172502034Y-70790977D01*
X172696719Y-70727720D01*
X172879110Y-70634787D01*
X172972090Y-70567232D01*
X173044713Y-70514471D01*
X173044715Y-70514468D01*
X173044719Y-70514466D01*
X173189466Y-70369719D01*
X173189468Y-70369715D01*
X173189471Y-70369713D01*
X173242232Y-70297090D01*
X173309787Y-70204110D01*
X173402720Y-70021719D01*
X173465977Y-69827034D01*
X173498000Y-69624852D01*
X173498000Y-69516538D01*
X174837000Y-69516538D01*
X174837000Y-69768461D01*
X174876410Y-70017285D01*
X174954260Y-70256883D01*
X175011754Y-70369719D01*
X175053772Y-70452185D01*
X175068632Y-70481348D01*
X175216701Y-70685149D01*
X175216705Y-70685154D01*
X175394845Y-70863294D01*
X175394850Y-70863298D01*
X175572617Y-70992452D01*
X175598655Y-71011370D01*
X175741684Y-71084247D01*
X175823116Y-71125739D01*
X175823118Y-71125739D01*
X175823121Y-71125741D01*
X176062715Y-71203590D01*
X176311538Y-71243000D01*
X176311539Y-71243000D01*
X176563461Y-71243000D01*
X176563462Y-71243000D01*
X176812285Y-71203590D01*
X177051879Y-71125741D01*
X177276345Y-71011370D01*
X177480156Y-70863293D01*
X177658293Y-70685156D01*
X177806370Y-70481345D01*
X177920741Y-70256879D01*
X177998590Y-70017285D01*
X178038000Y-69768462D01*
X178038000Y-69516538D01*
X177998590Y-69267715D01*
X177920741Y-69028121D01*
X177920739Y-69028118D01*
X177920739Y-69028116D01*
X177879247Y-68946684D01*
X177806370Y-68803655D01*
X177713101Y-68675281D01*
X177658298Y-68599850D01*
X177658294Y-68599845D01*
X177480154Y-68421705D01*
X177480149Y-68421701D01*
X177276348Y-68273632D01*
X177276347Y-68273631D01*
X177276345Y-68273630D01*
X177206247Y-68237913D01*
X177051883Y-68159260D01*
X176812285Y-68081410D01*
X176796223Y-68078866D01*
X176563462Y-68042000D01*
X176311538Y-68042000D01*
X176187126Y-68061705D01*
X176062714Y-68081410D01*
X175823116Y-68159260D01*
X175598651Y-68273632D01*
X175394850Y-68421701D01*
X175394845Y-68421705D01*
X175216705Y-68599845D01*
X175216701Y-68599850D01*
X175068632Y-68803651D01*
X174954260Y-69028116D01*
X174876410Y-69267714D01*
X174837000Y-69516538D01*
X173498000Y-69516538D01*
X173498000Y-69420148D01*
X173473857Y-69267715D01*
X173465977Y-69217965D01*
X173436627Y-69127637D01*
X173402720Y-69023281D01*
X173402718Y-69023278D01*
X173402718Y-69023276D01*
X173369003Y-68957107D01*
X173309787Y-68840890D01*
X173302056Y-68830249D01*
X173189471Y-68675286D01*
X173044713Y-68530528D01*
X172879113Y-68410215D01*
X172879112Y-68410214D01*
X172879110Y-68410213D01*
X172822153Y-68381191D01*
X172696723Y-68317281D01*
X172502034Y-68254022D01*
X172327495Y-68226378D01*
X172299852Y-68222000D01*
X172095148Y-68222000D01*
X172070829Y-68225851D01*
X171892965Y-68254022D01*
X171698276Y-68317281D01*
X171515886Y-68410215D01*
X171350286Y-68530528D01*
X171205528Y-68675286D01*
X171085215Y-68840886D01*
X170992281Y-69023276D01*
X170929022Y-69217965D01*
X170897000Y-69420148D01*
X165878000Y-69420148D01*
X165853857Y-69267715D01*
X165845977Y-69217965D01*
X165816627Y-69127637D01*
X165782720Y-69023281D01*
X165782718Y-69023278D01*
X165782718Y-69023276D01*
X165749003Y-68957107D01*
X165689787Y-68840890D01*
X165682056Y-68830249D01*
X165569471Y-68675286D01*
X165424713Y-68530528D01*
X165259113Y-68410215D01*
X165259112Y-68410214D01*
X165259110Y-68410213D01*
X165202153Y-68381191D01*
X165076723Y-68317281D01*
X164882034Y-68254022D01*
X164707495Y-68226378D01*
X164679852Y-68222000D01*
X164475148Y-68222000D01*
X164450829Y-68225851D01*
X164272965Y-68254022D01*
X164078276Y-68317281D01*
X163895886Y-68410215D01*
X163730286Y-68530528D01*
X163585528Y-68675286D01*
X163465215Y-68840886D01*
X163372281Y-69023276D01*
X163309022Y-69217965D01*
X163277000Y-69420148D01*
X162248000Y-69420148D01*
X162223857Y-69267715D01*
X162215977Y-69217965D01*
X162186627Y-69127637D01*
X162152720Y-69023281D01*
X162152718Y-69023278D01*
X162152718Y-69023276D01*
X162119003Y-68957107D01*
X162059787Y-68840890D01*
X162052056Y-68830249D01*
X161939471Y-68675286D01*
X161794713Y-68530528D01*
X161629113Y-68410215D01*
X161629112Y-68410214D01*
X161629110Y-68410213D01*
X161572153Y-68381191D01*
X161446723Y-68317281D01*
X161252034Y-68254022D01*
X161077495Y-68226378D01*
X161049852Y-68222000D01*
X160845148Y-68222000D01*
X160820829Y-68225851D01*
X160642965Y-68254022D01*
X160448276Y-68317281D01*
X160265887Y-68410214D01*
X160234884Y-68432739D01*
X160169077Y-68456218D01*
X160101024Y-68440392D01*
X160052329Y-68390285D01*
X160038000Y-68332420D01*
X160038000Y-67888282D01*
X160057685Y-67821243D01*
X160074319Y-67800601D01*
X160454637Y-67420284D01*
X160454637Y-67420283D01*
X160454640Y-67420281D01*
X160564132Y-67256414D01*
X160639552Y-67074335D01*
X160678000Y-66881040D01*
X160678000Y-66683959D01*
X160678000Y-66120714D01*
X160697685Y-66053675D01*
X160714319Y-66033033D01*
X160731982Y-66015370D01*
X160785786Y-65961566D01*
X160920217Y-65776538D01*
X161024048Y-65572758D01*
X161076851Y-65410246D01*
X161094721Y-65355249D01*
X161094721Y-65355248D01*
X161094722Y-65355245D01*
X161130500Y-65129354D01*
X161130500Y-64805646D01*
X161094722Y-64579755D01*
X161094721Y-64579751D01*
X161094721Y-64579750D01*
X161024049Y-64362244D01*
X161024048Y-64362242D01*
X160920217Y-64158462D01*
X160786659Y-63974635D01*
X164604500Y-63974635D01*
X164604500Y-66070370D01*
X164604501Y-66070376D01*
X164610908Y-66129983D01*
X164661202Y-66264828D01*
X164661206Y-66264835D01*
X164747452Y-66380044D01*
X164747455Y-66380047D01*
X164862664Y-66466293D01*
X164862671Y-66466297D01*
X164997517Y-66516591D01*
X164997516Y-66516591D01*
X165004444Y-66517335D01*
X165057127Y-66523000D01*
X167057872Y-66522999D01*
X167117483Y-66516591D01*
X167252331Y-66466296D01*
X167367546Y-66380046D01*
X167453796Y-66264831D01*
X167464190Y-66236960D01*
X167506060Y-66181027D01*
X167571523Y-66156608D01*
X167639797Y-66171458D01*
X167653246Y-66179965D01*
X167835962Y-66312717D01*
X168029434Y-66411296D01*
X168039744Y-66416549D01*
X168257251Y-66487221D01*
X168257252Y-66487221D01*
X168257255Y-66487222D01*
X168483146Y-66523000D01*
X168483147Y-66523000D01*
X168711853Y-66523000D01*
X168711854Y-66523000D01*
X168937745Y-66487222D01*
X168937748Y-66487221D01*
X168937749Y-66487221D01*
X169155255Y-66416549D01*
X169155255Y-66416548D01*
X169155258Y-66416548D01*
X169359038Y-66312717D01*
X169544066Y-66178286D01*
X169705786Y-66016566D01*
X169840217Y-65831538D01*
X169944048Y-65627758D01*
X169961919Y-65572758D01*
X170014721Y-65410249D01*
X170014721Y-65410248D01*
X170014722Y-65410245D01*
X170050500Y-65184354D01*
X170050500Y-64860646D01*
X170014722Y-64634755D01*
X170014721Y-64634751D01*
X170014721Y-64634750D01*
X169944049Y-64417244D01*
X169927258Y-64384289D01*
X169840217Y-64213462D01*
X169705786Y-64028434D01*
X169651987Y-63974635D01*
X178604500Y-63974635D01*
X178604500Y-66070370D01*
X178604501Y-66070376D01*
X178610908Y-66129983D01*
X178661202Y-66264828D01*
X178661206Y-66264835D01*
X178747452Y-66380044D01*
X178747455Y-66380047D01*
X178862664Y-66466293D01*
X178862671Y-66466297D01*
X178997517Y-66516591D01*
X178997516Y-66516591D01*
X179004444Y-66517335D01*
X179057127Y-66523000D01*
X181057872Y-66522999D01*
X181117483Y-66516591D01*
X181252331Y-66466296D01*
X181367546Y-66380046D01*
X181453796Y-66264831D01*
X181504091Y-66129983D01*
X181510500Y-66070373D01*
X181510499Y-64860646D01*
X183684500Y-64860646D01*
X183684500Y-65184353D01*
X183720278Y-65410246D01*
X183720278Y-65410249D01*
X183790950Y-65627755D01*
X183790952Y-65627758D01*
X183894783Y-65831538D01*
X184029214Y-66016566D01*
X184190934Y-66178286D01*
X184375962Y-66312717D01*
X184569434Y-66411296D01*
X184579744Y-66416549D01*
X184797251Y-66487221D01*
X184797252Y-66487221D01*
X184797255Y-66487222D01*
X185023146Y-66523000D01*
X185023147Y-66523000D01*
X185251853Y-66523000D01*
X185251854Y-66523000D01*
X185477745Y-66487222D01*
X185477748Y-66487221D01*
X185477749Y-66487221D01*
X185695255Y-66416549D01*
X185695255Y-66416548D01*
X185695258Y-66416548D01*
X185899038Y-66312717D01*
X186084066Y-66178286D01*
X186245786Y-66016566D01*
X186380217Y-65831538D01*
X186484048Y-65627758D01*
X186501919Y-65572758D01*
X186554721Y-65410249D01*
X186554721Y-65410248D01*
X186554722Y-65410245D01*
X186590500Y-65184354D01*
X186590500Y-64860646D01*
X186554722Y-64634755D01*
X186554721Y-64634751D01*
X186554721Y-64634750D01*
X186484049Y-64417244D01*
X186467258Y-64384289D01*
X186380217Y-64213462D01*
X186245786Y-64028434D01*
X186191987Y-63974635D01*
X191644500Y-63974635D01*
X191644500Y-66070370D01*
X191644501Y-66070376D01*
X191650908Y-66129983D01*
X191701202Y-66264828D01*
X191701206Y-66264835D01*
X191787452Y-66380044D01*
X191787455Y-66380047D01*
X191902664Y-66466293D01*
X191902671Y-66466297D01*
X192037517Y-66516591D01*
X192037516Y-66516591D01*
X192044444Y-66517335D01*
X192097127Y-66523000D01*
X194097872Y-66522999D01*
X194157483Y-66516591D01*
X194292331Y-66466296D01*
X194407546Y-66380046D01*
X194493796Y-66264831D01*
X194544091Y-66129983D01*
X194550500Y-66070373D01*
X194550499Y-64860646D01*
X196724500Y-64860646D01*
X196724500Y-65184353D01*
X196760278Y-65410246D01*
X196760278Y-65410249D01*
X196830950Y-65627755D01*
X196830952Y-65627758D01*
X196934783Y-65831538D01*
X197069214Y-66016566D01*
X197230934Y-66178286D01*
X197415962Y-66312717D01*
X197609434Y-66411296D01*
X197619744Y-66416549D01*
X197837251Y-66487221D01*
X197837252Y-66487221D01*
X197837255Y-66487222D01*
X198063146Y-66523000D01*
X198063147Y-66523000D01*
X198291853Y-66523000D01*
X198291854Y-66523000D01*
X198517745Y-66487222D01*
X198517748Y-66487221D01*
X198517749Y-66487221D01*
X198735255Y-66416549D01*
X198735255Y-66416548D01*
X198735258Y-66416548D01*
X198939038Y-66312717D01*
X199124066Y-66178286D01*
X199285786Y-66016566D01*
X199420217Y-65831538D01*
X199524048Y-65627758D01*
X199541919Y-65572758D01*
X199594721Y-65410249D01*
X199594721Y-65410248D01*
X199594722Y-65410245D01*
X199630500Y-65184354D01*
X199630500Y-64860646D01*
X199594722Y-64634755D01*
X199594721Y-64634751D01*
X199594721Y-64634750D01*
X199524049Y-64417244D01*
X199507258Y-64384289D01*
X199420217Y-64213462D01*
X199285786Y-64028434D01*
X199158563Y-63901211D01*
X204787000Y-63901211D01*
X204787000Y-64143788D01*
X204818661Y-64384285D01*
X204881447Y-64618604D01*
X204958923Y-64805646D01*
X204974276Y-64842712D01*
X205095564Y-65052789D01*
X205095566Y-65052792D01*
X205095567Y-65052793D01*
X205243233Y-65245236D01*
X205243239Y-65245243D01*
X205414756Y-65416760D01*
X205414762Y-65416765D01*
X205607211Y-65564436D01*
X205817288Y-65685724D01*
X206041400Y-65778554D01*
X206275711Y-65841338D01*
X206438043Y-65862709D01*
X206516211Y-65873000D01*
X206516212Y-65873000D01*
X206758789Y-65873000D01*
X206836957Y-65862709D01*
X206999289Y-65841338D01*
X207233600Y-65778554D01*
X207457712Y-65685724D01*
X207667789Y-65564436D01*
X207860238Y-65416765D01*
X208031765Y-65245238D01*
X208179436Y-65052789D01*
X208300724Y-64842712D01*
X208393554Y-64618600D01*
X208456338Y-64384289D01*
X208488000Y-64143788D01*
X208488000Y-63901212D01*
X208487143Y-63894706D01*
X208472064Y-63780164D01*
X208456338Y-63660711D01*
X208393554Y-63426400D01*
X208300724Y-63202288D01*
X208179436Y-62992211D01*
X208031765Y-62799762D01*
X208031760Y-62799756D01*
X207860243Y-62628239D01*
X207860236Y-62628233D01*
X207667793Y-62480567D01*
X207667792Y-62480566D01*
X207667789Y-62480564D01*
X207457712Y-62359276D01*
X207457705Y-62359273D01*
X207233604Y-62266447D01*
X206999285Y-62203661D01*
X206758789Y-62172000D01*
X206758788Y-62172000D01*
X206516212Y-62172000D01*
X206516211Y-62172000D01*
X206275714Y-62203661D01*
X206041395Y-62266447D01*
X205817294Y-62359273D01*
X205817285Y-62359277D01*
X205607206Y-62480567D01*
X205414763Y-62628233D01*
X205414756Y-62628239D01*
X205243239Y-62799756D01*
X205243233Y-62799763D01*
X205095567Y-62992206D01*
X204974277Y-63202285D01*
X204974273Y-63202294D01*
X204881447Y-63426395D01*
X204818661Y-63660714D01*
X204787000Y-63901211D01*
X199158563Y-63901211D01*
X199124066Y-63866714D01*
X198939038Y-63732283D01*
X198917502Y-63721310D01*
X198735255Y-63628450D01*
X198517748Y-63557778D01*
X198332312Y-63528408D01*
X198291854Y-63522000D01*
X198063146Y-63522000D01*
X198022688Y-63528408D01*
X197837253Y-63557778D01*
X197837250Y-63557778D01*
X197619744Y-63628450D01*
X197415961Y-63732283D01*
X197350050Y-63780171D01*
X197230934Y-63866714D01*
X197230932Y-63866716D01*
X197230931Y-63866716D01*
X197069216Y-64028431D01*
X197069216Y-64028432D01*
X197069214Y-64028434D01*
X197042255Y-64065540D01*
X196934783Y-64213461D01*
X196830950Y-64417244D01*
X196760278Y-64634750D01*
X196760278Y-64634753D01*
X196724500Y-64860646D01*
X194550499Y-64860646D01*
X194550499Y-63974628D01*
X194544091Y-63915017D01*
X194541340Y-63907642D01*
X194493797Y-63780171D01*
X194493793Y-63780164D01*
X194407547Y-63664955D01*
X194407544Y-63664952D01*
X194292335Y-63578706D01*
X194292328Y-63578702D01*
X194157482Y-63528408D01*
X194157483Y-63528408D01*
X194097883Y-63522001D01*
X194097881Y-63522000D01*
X194097873Y-63522000D01*
X194097864Y-63522000D01*
X192097129Y-63522000D01*
X192097123Y-63522001D01*
X192037516Y-63528408D01*
X191902671Y-63578702D01*
X191902664Y-63578706D01*
X191787455Y-63664952D01*
X191787452Y-63664955D01*
X191701206Y-63780164D01*
X191701202Y-63780171D01*
X191650908Y-63915017D01*
X191644628Y-63973432D01*
X191644501Y-63974623D01*
X191644500Y-63974635D01*
X186191987Y-63974635D01*
X186084066Y-63866714D01*
X185899038Y-63732283D01*
X185877502Y-63721310D01*
X185695255Y-63628450D01*
X185477748Y-63557778D01*
X185292312Y-63528408D01*
X185251854Y-63522000D01*
X185023146Y-63522000D01*
X184982688Y-63528408D01*
X184797253Y-63557778D01*
X184797250Y-63557778D01*
X184579744Y-63628450D01*
X184375961Y-63732283D01*
X184310050Y-63780171D01*
X184190934Y-63866714D01*
X184190932Y-63866716D01*
X184190931Y-63866716D01*
X184029216Y-64028431D01*
X184029216Y-64028432D01*
X184029214Y-64028434D01*
X184002255Y-64065540D01*
X183894783Y-64213461D01*
X183790950Y-64417244D01*
X183720278Y-64634750D01*
X183720278Y-64634753D01*
X183684500Y-64860646D01*
X181510499Y-64860646D01*
X181510499Y-63974628D01*
X181504091Y-63915017D01*
X181501340Y-63907642D01*
X181453797Y-63780171D01*
X181453793Y-63780164D01*
X181367547Y-63664955D01*
X181367544Y-63664952D01*
X181252335Y-63578706D01*
X181252328Y-63578702D01*
X181117482Y-63528408D01*
X181117483Y-63528408D01*
X181057883Y-63522001D01*
X181057881Y-63522000D01*
X181057873Y-63522000D01*
X181057864Y-63522000D01*
X179057129Y-63522000D01*
X179057123Y-63522001D01*
X178997516Y-63528408D01*
X178862671Y-63578702D01*
X178862664Y-63578706D01*
X178747455Y-63664952D01*
X178747452Y-63664955D01*
X178661206Y-63780164D01*
X178661202Y-63780171D01*
X178610908Y-63915017D01*
X178604628Y-63973432D01*
X178604501Y-63974623D01*
X178604500Y-63974635D01*
X169651987Y-63974635D01*
X169544066Y-63866714D01*
X169359038Y-63732283D01*
X169337502Y-63721310D01*
X169155255Y-63628450D01*
X168937748Y-63557778D01*
X168752312Y-63528408D01*
X168711854Y-63522000D01*
X168483146Y-63522000D01*
X168442688Y-63528408D01*
X168257253Y-63557778D01*
X168257250Y-63557778D01*
X168039744Y-63628450D01*
X167835961Y-63732283D01*
X167653259Y-63865025D01*
X167587452Y-63888505D01*
X167519398Y-63872680D01*
X167470703Y-63822574D01*
X167464190Y-63808038D01*
X167458806Y-63793603D01*
X167453796Y-63780169D01*
X167453793Y-63780164D01*
X167367547Y-63664955D01*
X167367544Y-63664952D01*
X167252335Y-63578706D01*
X167252328Y-63578702D01*
X167117482Y-63528408D01*
X167117483Y-63528408D01*
X167057883Y-63522001D01*
X167057881Y-63522000D01*
X167057873Y-63522000D01*
X167057864Y-63522000D01*
X165057129Y-63522000D01*
X165057123Y-63522001D01*
X164997516Y-63528408D01*
X164862671Y-63578702D01*
X164862664Y-63578706D01*
X164747455Y-63664952D01*
X164747452Y-63664955D01*
X164661206Y-63780164D01*
X164661202Y-63780171D01*
X164610908Y-63915017D01*
X164604628Y-63973432D01*
X164604501Y-63974623D01*
X164604500Y-63974635D01*
X160786659Y-63974635D01*
X160785786Y-63973434D01*
X160624066Y-63811714D01*
X160439038Y-63677283D01*
X160414837Y-63664952D01*
X160235255Y-63573450D01*
X160017748Y-63502778D01*
X159832312Y-63473408D01*
X159791854Y-63467000D01*
X159563146Y-63467000D01*
X159522688Y-63473408D01*
X159337253Y-63502778D01*
X159337250Y-63502778D01*
X159119744Y-63573450D01*
X158915961Y-63677283D01*
X158850050Y-63725171D01*
X158730934Y-63811714D01*
X158730932Y-63811716D01*
X158730931Y-63811716D01*
X158569215Y-63973432D01*
X158507818Y-64057938D01*
X158452487Y-64100603D01*
X158382874Y-64106582D01*
X158321079Y-64073976D01*
X158307182Y-64057938D01*
X158285744Y-64028431D01*
X158245786Y-63973434D01*
X158084066Y-63811714D01*
X157899038Y-63677283D01*
X157874837Y-63664952D01*
X157695255Y-63573450D01*
X157477748Y-63502778D01*
X157292312Y-63473408D01*
X157251854Y-63467000D01*
X157023146Y-63467000D01*
X156982688Y-63473408D01*
X156797253Y-63502778D01*
X156797250Y-63502778D01*
X156579744Y-63573450D01*
X156375961Y-63677283D01*
X156193259Y-63810025D01*
X156127452Y-63833505D01*
X156059398Y-63817680D01*
X156010703Y-63767574D01*
X156004190Y-63753038D01*
X156001767Y-63746542D01*
X155993796Y-63725169D01*
X155993793Y-63725164D01*
X155907547Y-63609955D01*
X155907544Y-63609952D01*
X155792335Y-63523706D01*
X155792328Y-63523702D01*
X155657482Y-63473408D01*
X155657483Y-63473408D01*
X155597883Y-63467001D01*
X155597881Y-63467000D01*
X155597873Y-63467000D01*
X155597864Y-63467000D01*
X153597129Y-63467000D01*
X153597123Y-63467001D01*
X153537516Y-63473408D01*
X153402671Y-63523702D01*
X153402664Y-63523706D01*
X153287455Y-63609952D01*
X153287452Y-63609955D01*
X153201206Y-63725164D01*
X153201202Y-63725171D01*
X153150908Y-63860017D01*
X153144501Y-63919616D01*
X153144500Y-63919635D01*
X153144500Y-66015370D01*
X153144501Y-66015376D01*
X153150908Y-66074983D01*
X153201202Y-66209828D01*
X153201206Y-66209835D01*
X153287452Y-66325044D01*
X153287455Y-66325047D01*
X153402664Y-66411293D01*
X153402671Y-66411297D01*
X153537517Y-66461591D01*
X153537516Y-66461591D01*
X153544444Y-66462335D01*
X153597127Y-66468000D01*
X155597872Y-66467999D01*
X155657483Y-66461591D01*
X155792331Y-66411296D01*
X155907546Y-66325046D01*
X155993796Y-66209831D01*
X156004190Y-66181960D01*
X156046060Y-66126027D01*
X156111523Y-66101608D01*
X156179797Y-66116458D01*
X156193246Y-66124965D01*
X156375962Y-66257717D01*
X156508099Y-66325044D01*
X156579744Y-66361549D01*
X156797251Y-66432221D01*
X156797252Y-66432221D01*
X156797255Y-66432222D01*
X157023146Y-66468000D01*
X157023147Y-66468000D01*
X157251853Y-66468000D01*
X157251854Y-66468000D01*
X157477745Y-66432222D01*
X157477748Y-66432221D01*
X157477749Y-66432221D01*
X157695255Y-66361549D01*
X157695255Y-66361548D01*
X157695258Y-66361548D01*
X157899038Y-66257717D01*
X158084066Y-66123286D01*
X158245786Y-65961566D01*
X158307183Y-65877059D01*
X158325793Y-65862709D01*
X158341331Y-65845077D01*
X158352948Y-65841770D01*
X158362512Y-65834396D01*
X158385925Y-65832385D01*
X158408532Y-65825951D01*
X158420092Y-65829450D01*
X158432125Y-65828417D01*
X158452908Y-65839383D01*
X158475405Y-65846193D01*
X158487321Y-65857541D01*
X158493920Y-65861023D01*
X158501885Y-65869527D01*
X158504998Y-65873181D01*
X158569214Y-65961566D01*
X158644177Y-66036529D01*
X158647385Y-66040294D01*
X158659696Y-66067857D01*
X158674166Y-66094356D01*
X158675000Y-66102120D01*
X158675880Y-66104089D01*
X158675488Y-66106658D01*
X158677000Y-66120714D01*
X158677000Y-66316717D01*
X158657315Y-66383756D01*
X158640681Y-66404398D01*
X158399720Y-66645359D01*
X158399718Y-66645361D01*
X158361120Y-66683959D01*
X158260359Y-66784719D01*
X158150871Y-66948579D01*
X158150864Y-66948592D01*
X158075450Y-67130660D01*
X158075447Y-67130670D01*
X158037000Y-67323956D01*
X158037000Y-73556717D01*
X158017315Y-73623756D01*
X158000681Y-73644398D01*
X154899680Y-76745399D01*
X154838357Y-76778884D01*
X154768665Y-76773900D01*
X154712732Y-76732028D01*
X154688315Y-76666564D01*
X154687999Y-76657718D01*
X154687999Y-75424629D01*
X154687998Y-75424623D01*
X154687997Y-75424616D01*
X154681591Y-75365017D01*
X154669343Y-75332179D01*
X154631297Y-75230171D01*
X154631293Y-75230164D01*
X154545047Y-75114955D01*
X154545044Y-75114952D01*
X154429835Y-75028706D01*
X154429828Y-75028702D01*
X154294982Y-74978408D01*
X154294983Y-74978408D01*
X154235383Y-74972001D01*
X154235381Y-74972000D01*
X154235373Y-74972000D01*
X154235364Y-74972000D01*
X152539629Y-74972000D01*
X152539623Y-74972001D01*
X152480016Y-74978408D01*
X152345171Y-75028702D01*
X152345164Y-75028706D01*
X152229955Y-75114952D01*
X152229952Y-75114955D01*
X152143706Y-75230164D01*
X152143702Y-75230171D01*
X152093408Y-75365017D01*
X152087282Y-75422000D01*
X152087001Y-75424623D01*
X152087000Y-75424635D01*
X152087000Y-77120370D01*
X152087001Y-77120376D01*
X152093408Y-77179983D01*
X152143702Y-77314828D01*
X152143706Y-77314835D01*
X152229952Y-77430044D01*
X152229953Y-77430044D01*
X152229954Y-77430046D01*
X152281307Y-77468489D01*
X152291653Y-77476234D01*
X152333523Y-77532168D01*
X152338507Y-77601859D01*
X152305021Y-77663182D01*
X152243698Y-77696667D01*
X152217341Y-77699500D01*
X142997659Y-77699500D01*
X142930620Y-77679815D01*
X142884865Y-77627011D01*
X142874921Y-77557853D01*
X142903946Y-77494297D01*
X142923347Y-77476234D01*
X142927967Y-77472775D01*
X142985046Y-77430046D01*
X143071296Y-77314831D01*
X143121591Y-77179983D01*
X143128000Y-77120373D01*
X143127999Y-75424628D01*
X143121591Y-75365017D01*
X143109343Y-75332179D01*
X143071297Y-75230171D01*
X143071293Y-75230164D01*
X142985047Y-75114955D01*
X142985044Y-75114952D01*
X142869835Y-75028706D01*
X142869828Y-75028702D01*
X142734982Y-74978408D01*
X142734983Y-74978408D01*
X142675383Y-74972001D01*
X142675381Y-74972000D01*
X142675373Y-74972000D01*
X142675364Y-74972000D01*
X140979629Y-74972000D01*
X140979623Y-74972001D01*
X140920016Y-74978408D01*
X140785171Y-75028702D01*
X140785164Y-75028706D01*
X140669955Y-75114952D01*
X140669952Y-75114955D01*
X140583706Y-75230164D01*
X140583702Y-75230171D01*
X140533408Y-75365017D01*
X140527282Y-75422000D01*
X140527001Y-75424623D01*
X140527000Y-75424635D01*
X140527000Y-77120370D01*
X140527001Y-77120376D01*
X140533408Y-77179983D01*
X140583702Y-77314828D01*
X140583706Y-77314835D01*
X140669952Y-77430044D01*
X140669953Y-77430044D01*
X140669954Y-77430046D01*
X140721307Y-77468489D01*
X140731653Y-77476234D01*
X140773523Y-77532168D01*
X140778507Y-77601859D01*
X140745021Y-77663182D01*
X140683698Y-77696667D01*
X140657341Y-77699500D01*
X130997659Y-77699500D01*
X130930620Y-77679815D01*
X130884865Y-77627011D01*
X130874921Y-77557853D01*
X130903946Y-77494297D01*
X130923347Y-77476234D01*
X130927967Y-77472775D01*
X130985046Y-77430046D01*
X131071296Y-77314831D01*
X131121591Y-77179983D01*
X131128000Y-77120373D01*
X131127999Y-75424628D01*
X131121591Y-75365017D01*
X131109343Y-75332179D01*
X131071297Y-75230171D01*
X131071293Y-75230164D01*
X130985047Y-75114955D01*
X130985044Y-75114952D01*
X130869835Y-75028706D01*
X130869828Y-75028702D01*
X130734982Y-74978408D01*
X130734983Y-74978408D01*
X130675383Y-74972001D01*
X130675381Y-74972000D01*
X130675373Y-74972000D01*
X130675364Y-74972000D01*
X128979629Y-74972000D01*
X128979623Y-74972001D01*
X128920016Y-74978408D01*
X128785171Y-75028702D01*
X128785164Y-75028706D01*
X128669955Y-75114952D01*
X128669952Y-75114955D01*
X128583706Y-75230164D01*
X128583702Y-75230171D01*
X128533408Y-75365017D01*
X128527282Y-75422000D01*
X128527001Y-75424623D01*
X128527000Y-75424635D01*
X128527000Y-76762718D01*
X128507315Y-76829757D01*
X128454511Y-76875512D01*
X128385353Y-76885456D01*
X128321797Y-76856431D01*
X128315319Y-76850399D01*
X126871479Y-75406559D01*
X126871459Y-75406537D01*
X126727785Y-75262863D01*
X126727781Y-75262860D01*
X126563920Y-75153371D01*
X126563911Y-75153366D01*
X126491315Y-75123296D01*
X126435165Y-75100038D01*
X126381836Y-75077949D01*
X126381832Y-75077948D01*
X126381828Y-75077946D01*
X126285188Y-75058724D01*
X126188544Y-75039500D01*
X126188541Y-75039500D01*
X120320860Y-75039500D01*
X120253821Y-75019815D01*
X120208066Y-74967011D01*
X120198122Y-74897853D01*
X120227147Y-74834297D01*
X120277527Y-74799318D01*
X120292328Y-74793797D01*
X120292327Y-74793797D01*
X120292331Y-74793796D01*
X120407546Y-74707546D01*
X120493796Y-74592331D01*
X120544091Y-74457483D01*
X120550500Y-74397873D01*
X120550499Y-72602128D01*
X120544091Y-72542517D01*
X120544091Y-72542516D01*
X120512796Y-72458609D01*
X120498451Y-72420148D01*
X128527000Y-72420148D01*
X128527000Y-72624851D01*
X128559022Y-72827034D01*
X128622281Y-73021723D01*
X128715215Y-73204113D01*
X128835528Y-73369713D01*
X128980286Y-73514471D01*
X129130707Y-73623756D01*
X129145890Y-73634787D01*
X129234712Y-73680044D01*
X129328276Y-73727718D01*
X129328278Y-73727718D01*
X129328281Y-73727720D01*
X129432637Y-73761627D01*
X129522965Y-73790977D01*
X129624057Y-73806988D01*
X129725148Y-73823000D01*
X129725149Y-73823000D01*
X129929851Y-73823000D01*
X129929852Y-73823000D01*
X130132034Y-73790977D01*
X130326719Y-73727720D01*
X130509110Y-73634787D01*
X130616565Y-73556717D01*
X130674713Y-73514471D01*
X130674715Y-73514468D01*
X130674719Y-73514466D01*
X130819466Y-73369719D01*
X130819468Y-73369715D01*
X130819471Y-73369713D01*
X130872232Y-73297090D01*
X130939787Y-73204110D01*
X131032720Y-73021719D01*
X131095977Y-72827034D01*
X131128000Y-72624852D01*
X131128000Y-72420148D01*
X131095977Y-72217966D01*
X131092155Y-72206204D01*
X131055926Y-72094701D01*
X131032720Y-72023281D01*
X131032718Y-72023278D01*
X131032718Y-72023276D01*
X130939787Y-71840890D01*
X130869532Y-71744191D01*
X130869531Y-71744188D01*
X130819471Y-71675287D01*
X130819467Y-71675282D01*
X130818820Y-71674635D01*
X136147000Y-71674635D01*
X136147000Y-73370370D01*
X136147001Y-73370376D01*
X136153408Y-73429983D01*
X136203702Y-73564828D01*
X136203706Y-73564835D01*
X136289952Y-73680044D01*
X136289955Y-73680047D01*
X136405164Y-73766293D01*
X136405171Y-73766297D01*
X136540017Y-73816591D01*
X136540016Y-73816591D01*
X136546944Y-73817335D01*
X136599627Y-73823000D01*
X138295372Y-73822999D01*
X138354983Y-73816591D01*
X138489831Y-73766296D01*
X138605046Y-73680046D01*
X138691296Y-73564831D01*
X138741591Y-73429983D01*
X138748000Y-73370373D01*
X138747999Y-72420148D01*
X140587000Y-72420148D01*
X140587000Y-72624851D01*
X140619022Y-72827034D01*
X140682281Y-73021723D01*
X140775215Y-73204113D01*
X140895528Y-73369713D01*
X141040286Y-73514471D01*
X141190707Y-73623756D01*
X141205890Y-73634787D01*
X141294712Y-73680044D01*
X141388276Y-73727718D01*
X141388278Y-73727718D01*
X141388281Y-73727720D01*
X141492637Y-73761627D01*
X141582965Y-73790977D01*
X141684057Y-73806988D01*
X141785148Y-73823000D01*
X141785149Y-73823000D01*
X141989851Y-73823000D01*
X141989852Y-73823000D01*
X142192034Y-73790977D01*
X142386719Y-73727720D01*
X142569110Y-73634787D01*
X142676565Y-73556717D01*
X142734713Y-73514471D01*
X142734715Y-73514468D01*
X142734719Y-73514466D01*
X142879466Y-73369719D01*
X142879468Y-73369715D01*
X142879471Y-73369713D01*
X142932232Y-73297090D01*
X142999787Y-73204110D01*
X143092720Y-73021719D01*
X143155977Y-72827034D01*
X143188000Y-72624852D01*
X143188000Y-72420148D01*
X143155977Y-72217966D01*
X143152155Y-72206204D01*
X143115926Y-72094701D01*
X143092720Y-72023281D01*
X143092718Y-72023278D01*
X143092718Y-72023276D01*
X142999787Y-71840890D01*
X142929532Y-71744191D01*
X142929531Y-71744188D01*
X142879471Y-71675287D01*
X142879467Y-71675282D01*
X142878820Y-71674635D01*
X148207000Y-71674635D01*
X148207000Y-73370370D01*
X148207001Y-73370376D01*
X148213408Y-73429983D01*
X148263702Y-73564828D01*
X148263706Y-73564835D01*
X148349952Y-73680044D01*
X148349955Y-73680047D01*
X148465164Y-73766293D01*
X148465171Y-73766297D01*
X148600017Y-73816591D01*
X148600016Y-73816591D01*
X148606944Y-73817335D01*
X148659627Y-73823000D01*
X150355372Y-73822999D01*
X150414983Y-73816591D01*
X150549831Y-73766296D01*
X150665046Y-73680046D01*
X150751296Y-73564831D01*
X150801591Y-73429983D01*
X150808000Y-73370373D01*
X150807999Y-72420148D01*
X152027000Y-72420148D01*
X152027000Y-72624851D01*
X152059022Y-72827034D01*
X152122281Y-73021723D01*
X152215215Y-73204113D01*
X152335528Y-73369713D01*
X152480286Y-73514471D01*
X152630707Y-73623756D01*
X152645890Y-73634787D01*
X152734712Y-73680044D01*
X152828276Y-73727718D01*
X152828278Y-73727718D01*
X152828281Y-73727720D01*
X152932637Y-73761627D01*
X153022965Y-73790977D01*
X153124057Y-73806988D01*
X153225148Y-73823000D01*
X153225149Y-73823000D01*
X153429851Y-73823000D01*
X153429852Y-73823000D01*
X153632034Y-73790977D01*
X153826719Y-73727720D01*
X154009110Y-73634787D01*
X154116565Y-73556717D01*
X154174713Y-73514471D01*
X154174715Y-73514468D01*
X154174719Y-73514466D01*
X154319466Y-73369719D01*
X154319468Y-73369715D01*
X154319471Y-73369713D01*
X154372232Y-73297090D01*
X154439787Y-73204110D01*
X154532720Y-73021719D01*
X154595977Y-72827034D01*
X154628000Y-72624852D01*
X154628000Y-72420148D01*
X154595977Y-72217966D01*
X154592155Y-72206204D01*
X154555926Y-72094701D01*
X154532720Y-72023281D01*
X154532718Y-72023278D01*
X154532718Y-72023276D01*
X154477252Y-71914420D01*
X154439787Y-71840890D01*
X154369532Y-71744191D01*
X154319471Y-71675286D01*
X154174713Y-71530528D01*
X154009113Y-71410215D01*
X154009112Y-71410214D01*
X154009110Y-71410213D01*
X153952153Y-71381191D01*
X153826723Y-71317281D01*
X153632034Y-71254022D01*
X153457495Y-71226378D01*
X153429852Y-71222000D01*
X153225148Y-71222000D01*
X153200829Y-71225851D01*
X153022965Y-71254022D01*
X152828276Y-71317281D01*
X152645886Y-71410215D01*
X152480286Y-71530528D01*
X152335528Y-71675286D01*
X152215215Y-71840886D01*
X152122281Y-72023276D01*
X152059022Y-72217965D01*
X152027000Y-72420148D01*
X150807999Y-72420148D01*
X150807999Y-71674628D01*
X150801591Y-71615017D01*
X150751296Y-71480169D01*
X150751295Y-71480168D01*
X150751293Y-71480164D01*
X150665047Y-71364955D01*
X150665044Y-71364952D01*
X150549835Y-71278706D01*
X150549828Y-71278702D01*
X150414982Y-71228408D01*
X150414983Y-71228408D01*
X150355383Y-71222001D01*
X150355381Y-71222000D01*
X150355373Y-71222000D01*
X150355364Y-71222000D01*
X148659629Y-71222000D01*
X148659623Y-71222001D01*
X148600016Y-71228408D01*
X148465171Y-71278702D01*
X148465164Y-71278706D01*
X148349955Y-71364952D01*
X148349952Y-71364955D01*
X148263706Y-71480164D01*
X148263702Y-71480171D01*
X148213408Y-71615017D01*
X148207001Y-71674616D01*
X148207001Y-71674623D01*
X148207000Y-71674635D01*
X142878820Y-71674635D01*
X142734713Y-71530528D01*
X142569113Y-71410215D01*
X142569112Y-71410214D01*
X142569110Y-71410213D01*
X142512153Y-71381191D01*
X142386723Y-71317281D01*
X142192034Y-71254022D01*
X142017495Y-71226378D01*
X141989852Y-71222000D01*
X141785148Y-71222000D01*
X141760829Y-71225851D01*
X141582965Y-71254022D01*
X141388276Y-71317281D01*
X141205886Y-71410215D01*
X141040286Y-71530528D01*
X140895528Y-71675286D01*
X140775215Y-71840886D01*
X140682281Y-72023276D01*
X140619022Y-72217965D01*
X140587000Y-72420148D01*
X138747999Y-72420148D01*
X138747999Y-71674628D01*
X138741591Y-71615017D01*
X138691296Y-71480169D01*
X138691295Y-71480168D01*
X138691293Y-71480164D01*
X138605047Y-71364955D01*
X138605044Y-71364952D01*
X138489835Y-71278706D01*
X138489828Y-71278702D01*
X138354982Y-71228408D01*
X138354983Y-71228408D01*
X138295383Y-71222001D01*
X138295381Y-71222000D01*
X138295373Y-71222000D01*
X138295364Y-71222000D01*
X136599629Y-71222000D01*
X136599623Y-71222001D01*
X136540016Y-71228408D01*
X136405171Y-71278702D01*
X136405164Y-71278706D01*
X136289955Y-71364952D01*
X136289952Y-71364955D01*
X136203706Y-71480164D01*
X136203702Y-71480171D01*
X136153408Y-71615017D01*
X136147001Y-71674616D01*
X136147001Y-71674623D01*
X136147000Y-71674635D01*
X130818820Y-71674635D01*
X130674713Y-71530528D01*
X130509113Y-71410215D01*
X130509112Y-71410214D01*
X130509110Y-71410213D01*
X130452153Y-71381191D01*
X130326723Y-71317281D01*
X130132034Y-71254022D01*
X129957495Y-71226378D01*
X129929852Y-71222000D01*
X129725148Y-71222000D01*
X129700829Y-71225851D01*
X129522965Y-71254022D01*
X129328276Y-71317281D01*
X129145886Y-71410215D01*
X128980286Y-71530528D01*
X128835528Y-71675286D01*
X128715215Y-71840886D01*
X128622281Y-72023276D01*
X128559022Y-72217965D01*
X128527000Y-72420148D01*
X120498451Y-72420148D01*
X120493797Y-72407671D01*
X120493793Y-72407664D01*
X120407547Y-72292455D01*
X120407544Y-72292452D01*
X120292335Y-72206206D01*
X120292332Y-72206205D01*
X120292331Y-72206204D01*
X120281161Y-72202038D01*
X120263437Y-72188768D01*
X120243297Y-72179571D01*
X120236014Y-72168238D01*
X120225231Y-72160166D01*
X120217493Y-72139420D01*
X120205523Y-72120793D01*
X120202370Y-72098870D01*
X120200816Y-72094701D01*
X120200500Y-72085858D01*
X120200500Y-71965782D01*
X120220185Y-71898743D01*
X120236819Y-71878101D01*
X123928101Y-68186819D01*
X123989424Y-68153334D01*
X124015782Y-68150500D01*
X124213000Y-68150500D01*
X124280039Y-68170185D01*
X124325794Y-68222989D01*
X124337000Y-68274500D01*
X124337000Y-70290370D01*
X124337001Y-70290376D01*
X124343408Y-70349983D01*
X124393702Y-70484828D01*
X124393706Y-70484835D01*
X124479952Y-70600044D01*
X124479955Y-70600047D01*
X124595164Y-70686293D01*
X124595171Y-70686297D01*
X124730017Y-70736591D01*
X124730016Y-70736591D01*
X124736944Y-70737335D01*
X124789627Y-70743000D01*
X127085372Y-70742999D01*
X127144983Y-70736591D01*
X127279831Y-70686296D01*
X127395046Y-70600046D01*
X127481296Y-70484831D01*
X127531591Y-70349983D01*
X127538000Y-70290373D01*
X127537999Y-68274499D01*
X127557684Y-68207461D01*
X127610487Y-68161706D01*
X127661999Y-68150500D01*
X129139108Y-68150500D01*
X129206147Y-68170185D01*
X129251902Y-68222989D01*
X129261846Y-68292147D01*
X129232821Y-68355703D01*
X129195403Y-68384985D01*
X129145885Y-68410215D01*
X128980286Y-68530528D01*
X128835528Y-68675286D01*
X128715215Y-68840886D01*
X128622281Y-69023276D01*
X128559022Y-69217965D01*
X128527000Y-69420148D01*
X128527000Y-69624851D01*
X128559022Y-69827034D01*
X128622281Y-70021723D01*
X128715215Y-70204113D01*
X128835528Y-70369713D01*
X128980286Y-70514471D01*
X129098074Y-70600047D01*
X129145890Y-70634787D01*
X129244731Y-70685149D01*
X129328276Y-70727718D01*
X129328278Y-70727718D01*
X129328281Y-70727720D01*
X129432637Y-70761627D01*
X129522965Y-70790977D01*
X129624057Y-70806988D01*
X129725148Y-70823000D01*
X129725149Y-70823000D01*
X129929851Y-70823000D01*
X129929852Y-70823000D01*
X130132034Y-70790977D01*
X130326719Y-70727720D01*
X130509110Y-70634787D01*
X130602090Y-70567232D01*
X130674713Y-70514471D01*
X130674715Y-70514468D01*
X130674719Y-70514466D01*
X130819466Y-70369719D01*
X130819468Y-70369715D01*
X130819471Y-70369713D01*
X130872232Y-70297090D01*
X130939787Y-70204110D01*
X131032720Y-70021719D01*
X131095977Y-69827034D01*
X131128000Y-69624852D01*
X131128000Y-69420148D01*
X136147000Y-69420148D01*
X136147000Y-69624851D01*
X136179022Y-69827034D01*
X136242281Y-70021723D01*
X136335215Y-70204113D01*
X136455528Y-70369713D01*
X136600286Y-70514471D01*
X136718074Y-70600047D01*
X136765890Y-70634787D01*
X136864731Y-70685149D01*
X136948276Y-70727718D01*
X136948278Y-70727718D01*
X136948281Y-70727720D01*
X137052637Y-70761627D01*
X137142965Y-70790977D01*
X137244057Y-70806988D01*
X137345148Y-70823000D01*
X137345149Y-70823000D01*
X137549851Y-70823000D01*
X137549852Y-70823000D01*
X137752034Y-70790977D01*
X137946719Y-70727720D01*
X138129110Y-70634787D01*
X138222090Y-70567232D01*
X138294713Y-70514471D01*
X138294715Y-70514468D01*
X138294719Y-70514466D01*
X138439466Y-70369719D01*
X138439468Y-70369715D01*
X138439471Y-70369713D01*
X138492232Y-70297090D01*
X138559787Y-70204110D01*
X138652720Y-70021719D01*
X138715977Y-69827034D01*
X138748000Y-69624852D01*
X138748000Y-69420148D01*
X140527000Y-69420148D01*
X140527000Y-69624851D01*
X140559022Y-69827034D01*
X140622281Y-70021723D01*
X140715215Y-70204113D01*
X140835528Y-70369713D01*
X140980286Y-70514471D01*
X141098074Y-70600047D01*
X141145890Y-70634787D01*
X141244731Y-70685149D01*
X141328276Y-70727718D01*
X141328278Y-70727718D01*
X141328281Y-70727720D01*
X141432637Y-70761627D01*
X141522965Y-70790977D01*
X141624057Y-70806988D01*
X141725148Y-70823000D01*
X141725149Y-70823000D01*
X141929851Y-70823000D01*
X141929852Y-70823000D01*
X142132034Y-70790977D01*
X142326719Y-70727720D01*
X142509110Y-70634787D01*
X142602090Y-70567232D01*
X142674713Y-70514471D01*
X142674715Y-70514468D01*
X142674719Y-70514466D01*
X142819466Y-70369719D01*
X142819468Y-70369715D01*
X142819471Y-70369713D01*
X142872232Y-70297090D01*
X142939787Y-70204110D01*
X143032720Y-70021719D01*
X143095977Y-69827034D01*
X143128000Y-69624852D01*
X143128000Y-69420148D01*
X148147000Y-69420148D01*
X148147000Y-69624851D01*
X148179022Y-69827034D01*
X148242281Y-70021723D01*
X148335215Y-70204113D01*
X148455528Y-70369713D01*
X148600286Y-70514471D01*
X148718074Y-70600047D01*
X148765890Y-70634787D01*
X148864731Y-70685149D01*
X148948276Y-70727718D01*
X148948278Y-70727718D01*
X148948281Y-70727720D01*
X149052637Y-70761627D01*
X149142965Y-70790977D01*
X149244057Y-70806988D01*
X149345148Y-70823000D01*
X149345149Y-70823000D01*
X149549851Y-70823000D01*
X149549852Y-70823000D01*
X149752034Y-70790977D01*
X149946719Y-70727720D01*
X150129110Y-70634787D01*
X150222090Y-70567232D01*
X150294713Y-70514471D01*
X150294715Y-70514468D01*
X150294719Y-70514466D01*
X150439466Y-70369719D01*
X150439468Y-70369715D01*
X150439471Y-70369713D01*
X150492232Y-70297090D01*
X150559787Y-70204110D01*
X150652720Y-70021719D01*
X150715977Y-69827034D01*
X150748000Y-69624852D01*
X150748000Y-69420148D01*
X152027000Y-69420148D01*
X152027000Y-69624851D01*
X152059022Y-69827034D01*
X152122281Y-70021723D01*
X152215215Y-70204113D01*
X152335528Y-70369713D01*
X152480286Y-70514471D01*
X152598074Y-70600047D01*
X152645890Y-70634787D01*
X152744731Y-70685149D01*
X152828276Y-70727718D01*
X152828278Y-70727718D01*
X152828281Y-70727720D01*
X152932637Y-70761627D01*
X153022965Y-70790977D01*
X153124057Y-70806988D01*
X153225148Y-70823000D01*
X153225149Y-70823000D01*
X153429851Y-70823000D01*
X153429852Y-70823000D01*
X153632034Y-70790977D01*
X153826719Y-70727720D01*
X154009110Y-70634787D01*
X154102090Y-70567232D01*
X154174713Y-70514471D01*
X154174715Y-70514468D01*
X154174719Y-70514466D01*
X154319466Y-70369719D01*
X154319468Y-70369715D01*
X154319471Y-70369713D01*
X154372232Y-70297090D01*
X154439787Y-70204110D01*
X154532720Y-70021719D01*
X154595977Y-69827034D01*
X154628000Y-69624852D01*
X154628000Y-69420148D01*
X154603857Y-69267715D01*
X154595977Y-69217965D01*
X154566627Y-69127637D01*
X154532720Y-69023281D01*
X154532718Y-69023278D01*
X154532718Y-69023276D01*
X154499003Y-68957107D01*
X154439787Y-68840890D01*
X154432056Y-68830249D01*
X154319471Y-68675286D01*
X154174713Y-68530528D01*
X154009113Y-68410215D01*
X154009112Y-68410214D01*
X154009110Y-68410213D01*
X153952153Y-68381191D01*
X153826723Y-68317281D01*
X153632034Y-68254022D01*
X153457495Y-68226378D01*
X153429852Y-68222000D01*
X153225148Y-68222000D01*
X153200829Y-68225851D01*
X153022965Y-68254022D01*
X152828276Y-68317281D01*
X152645886Y-68410215D01*
X152480286Y-68530528D01*
X152335528Y-68675286D01*
X152215215Y-68840886D01*
X152122281Y-69023276D01*
X152059022Y-69217965D01*
X152027000Y-69420148D01*
X150748000Y-69420148D01*
X150723857Y-69267715D01*
X150715977Y-69217965D01*
X150686627Y-69127637D01*
X150652720Y-69023281D01*
X150652718Y-69023278D01*
X150652718Y-69023276D01*
X150619003Y-68957107D01*
X150559787Y-68840890D01*
X150552056Y-68830249D01*
X150439471Y-68675286D01*
X150294713Y-68530528D01*
X150129113Y-68410215D01*
X150129112Y-68410214D01*
X150129110Y-68410213D01*
X150072153Y-68381191D01*
X149946723Y-68317281D01*
X149752034Y-68254022D01*
X149577495Y-68226378D01*
X149549852Y-68222000D01*
X149345148Y-68222000D01*
X149320829Y-68225851D01*
X149142965Y-68254022D01*
X148948276Y-68317281D01*
X148765886Y-68410215D01*
X148600286Y-68530528D01*
X148455528Y-68675286D01*
X148335215Y-68840886D01*
X148242281Y-69023276D01*
X148179022Y-69217965D01*
X148147000Y-69420148D01*
X143128000Y-69420148D01*
X143103857Y-69267715D01*
X143095977Y-69217965D01*
X143066627Y-69127637D01*
X143032720Y-69023281D01*
X143032718Y-69023278D01*
X143032718Y-69023276D01*
X142999003Y-68957107D01*
X142939787Y-68840890D01*
X142932056Y-68830249D01*
X142819471Y-68675286D01*
X142674713Y-68530528D01*
X142509113Y-68410215D01*
X142509112Y-68410214D01*
X142509110Y-68410213D01*
X142452153Y-68381191D01*
X142326723Y-68317281D01*
X142132034Y-68254022D01*
X141957495Y-68226378D01*
X141929852Y-68222000D01*
X141725148Y-68222000D01*
X141700829Y-68225851D01*
X141522965Y-68254022D01*
X141328276Y-68317281D01*
X141145886Y-68410215D01*
X140980286Y-68530528D01*
X140835528Y-68675286D01*
X140715215Y-68840886D01*
X140622281Y-69023276D01*
X140559022Y-69217965D01*
X140527000Y-69420148D01*
X138748000Y-69420148D01*
X138723857Y-69267715D01*
X138715977Y-69217965D01*
X138686627Y-69127637D01*
X138652720Y-69023281D01*
X138652718Y-69023278D01*
X138652718Y-69023276D01*
X138619003Y-68957107D01*
X138559787Y-68840890D01*
X138552056Y-68830249D01*
X138439471Y-68675286D01*
X138294713Y-68530528D01*
X138129113Y-68410215D01*
X138129112Y-68410214D01*
X138129110Y-68410213D01*
X138072153Y-68381191D01*
X137946723Y-68317281D01*
X137752034Y-68254022D01*
X137577495Y-68226378D01*
X137549852Y-68222000D01*
X137345148Y-68222000D01*
X137320829Y-68225851D01*
X137142965Y-68254022D01*
X136948276Y-68317281D01*
X136765886Y-68410215D01*
X136600286Y-68530528D01*
X136455528Y-68675286D01*
X136335215Y-68840886D01*
X136242281Y-69023276D01*
X136179022Y-69217965D01*
X136147000Y-69420148D01*
X131128000Y-69420148D01*
X131103857Y-69267715D01*
X131095977Y-69217965D01*
X131066627Y-69127637D01*
X131032720Y-69023281D01*
X131032718Y-69023278D01*
X131032718Y-69023276D01*
X130999003Y-68957107D01*
X130939787Y-68840890D01*
X130932056Y-68830249D01*
X130819471Y-68675286D01*
X130674713Y-68530528D01*
X130509114Y-68410215D01*
X130459597Y-68384985D01*
X130408801Y-68337010D01*
X130392006Y-68269189D01*
X130414543Y-68203055D01*
X130469258Y-68159603D01*
X130515892Y-68150500D01*
X134093542Y-68150500D01*
X134118540Y-68145527D01*
X134190188Y-68131275D01*
X134286836Y-68112051D01*
X134360809Y-68081410D01*
X134468914Y-68036632D01*
X134632782Y-67927139D01*
X134772139Y-67787782D01*
X134772140Y-67787779D01*
X134779206Y-67780714D01*
X134779208Y-67780710D01*
X136055601Y-66504319D01*
X136116924Y-66470834D01*
X136143282Y-66468000D01*
X136291853Y-66468000D01*
X136291854Y-66468000D01*
X136517745Y-66432222D01*
X136517748Y-66432221D01*
X136517749Y-66432221D01*
X136735255Y-66361549D01*
X136735255Y-66361548D01*
X136735258Y-66361548D01*
X136939038Y-66257717D01*
X137124066Y-66123286D01*
X137285786Y-65961566D01*
X137420217Y-65776538D01*
X137524048Y-65572758D01*
X137576851Y-65410246D01*
X137594721Y-65355249D01*
X137594721Y-65355248D01*
X137594722Y-65355245D01*
X137630500Y-65129354D01*
X137630500Y-64805646D01*
X137594722Y-64579755D01*
X137594721Y-64579751D01*
X137594721Y-64579750D01*
X137524049Y-64362244D01*
X137524048Y-64362242D01*
X137420217Y-64158462D01*
X137285786Y-63973434D01*
X137281317Y-63968965D01*
X137247832Y-63907642D01*
X137252816Y-63837950D01*
X137281317Y-63793603D01*
X137515601Y-63559319D01*
X137576924Y-63525834D01*
X137603282Y-63523000D01*
X141604825Y-63523000D01*
X141671864Y-63542685D01*
X141717619Y-63595489D01*
X141727563Y-63664647D01*
X141704092Y-63721310D01*
X141701206Y-63725164D01*
X141701202Y-63725171D01*
X141650908Y-63860017D01*
X141644501Y-63919616D01*
X141644500Y-63919635D01*
X141644500Y-66015370D01*
X141644501Y-66015376D01*
X141650908Y-66074983D01*
X141701202Y-66209828D01*
X141701206Y-66209835D01*
X141787452Y-66325044D01*
X141787455Y-66325047D01*
X141902664Y-66411293D01*
X141902671Y-66411297D01*
X142037517Y-66461591D01*
X142037516Y-66461591D01*
X142044444Y-66462335D01*
X142097127Y-66468000D01*
X144097872Y-66467999D01*
X144157483Y-66461591D01*
X144292331Y-66411296D01*
X144407546Y-66325046D01*
X144493796Y-66209831D01*
X144504190Y-66181960D01*
X144546060Y-66126027D01*
X144611523Y-66101608D01*
X144679797Y-66116458D01*
X144693246Y-66124965D01*
X144875962Y-66257717D01*
X145008099Y-66325044D01*
X145079744Y-66361549D01*
X145297251Y-66432221D01*
X145297252Y-66432221D01*
X145297255Y-66432222D01*
X145523146Y-66468000D01*
X145523147Y-66468000D01*
X145751853Y-66468000D01*
X145751854Y-66468000D01*
X145977745Y-66432222D01*
X145977748Y-66432221D01*
X145977749Y-66432221D01*
X146195255Y-66361549D01*
X146195255Y-66361548D01*
X146195258Y-66361548D01*
X146399038Y-66257717D01*
X146584066Y-66123286D01*
X146745786Y-65961566D01*
X146880217Y-65776538D01*
X146984048Y-65572758D01*
X147036851Y-65410246D01*
X147054721Y-65355249D01*
X147054721Y-65355248D01*
X147054722Y-65355245D01*
X147090500Y-65129354D01*
X147090500Y-64805646D01*
X147054722Y-64579755D01*
X147054721Y-64579751D01*
X147054721Y-64579750D01*
X146984049Y-64362244D01*
X146984048Y-64362242D01*
X146880217Y-64158462D01*
X146745786Y-63973434D01*
X146674319Y-63901967D01*
X146659615Y-63875039D01*
X146643023Y-63849221D01*
X146642131Y-63843020D01*
X146640834Y-63840644D01*
X146638000Y-63814286D01*
X146638000Y-63627175D01*
X146638001Y-63627154D01*
X146638001Y-63423957D01*
X146638000Y-63423955D01*
X146599552Y-63230665D01*
X146524132Y-63048586D01*
X146524131Y-63048585D01*
X146524128Y-63048579D01*
X146414640Y-62884719D01*
X146414637Y-62884715D01*
X145421709Y-61891789D01*
X145421706Y-61891785D01*
X145421706Y-61891786D01*
X145414639Y-61884719D01*
X145414639Y-61884718D01*
X145275282Y-61745361D01*
X145275281Y-61745360D01*
X145275280Y-61745359D01*
X145111420Y-61635871D01*
X145111411Y-61635866D01*
X145038815Y-61605796D01*
X144982665Y-61582538D01*
X144929336Y-61560449D01*
X144929332Y-61560448D01*
X144929328Y-61560446D01*
X144832688Y-61541224D01*
X144736044Y-61522000D01*
X144736041Y-61522000D01*
X137038959Y-61522000D01*
X137038955Y-61522000D01*
X136942312Y-61541224D01*
X136845667Y-61560447D01*
X136845661Y-61560449D01*
X136792334Y-61582537D01*
X136792334Y-61582538D01*
X136746815Y-61601392D01*
X136663589Y-61635866D01*
X136663579Y-61635871D01*
X136499719Y-61745359D01*
X136430040Y-61815038D01*
X136360361Y-61884718D01*
X136360358Y-61884721D01*
X135539721Y-62705358D01*
X135539718Y-62705361D01*
X135470038Y-62775040D01*
X135400359Y-62844719D01*
X135290871Y-63008579D01*
X135290864Y-63008592D01*
X135215450Y-63190660D01*
X135215447Y-63190670D01*
X135177000Y-63383956D01*
X135177000Y-63814286D01*
X135169695Y-63839162D01*
X135166219Y-63864857D01*
X135159122Y-63875168D01*
X135157315Y-63881325D01*
X135147385Y-63894706D01*
X135144177Y-63898470D01*
X135069214Y-63973434D01*
X135005003Y-64061811D01*
X135001885Y-64065472D01*
X134976508Y-64082080D01*
X134952487Y-64100603D01*
X134947560Y-64101026D01*
X134943423Y-64103734D01*
X134913091Y-64103986D01*
X134882874Y-64106582D01*
X134878501Y-64104274D01*
X134873556Y-64104316D01*
X134847901Y-64088129D01*
X134821079Y-64073976D01*
X134815780Y-64067861D01*
X134814466Y-64067032D01*
X134813770Y-64065540D01*
X134807182Y-64057938D01*
X134785744Y-64028431D01*
X134745786Y-63973434D01*
X134584066Y-63811714D01*
X134399038Y-63677283D01*
X134374837Y-63664952D01*
X134195255Y-63573450D01*
X133977748Y-63502778D01*
X133792312Y-63473408D01*
X133751854Y-63467000D01*
X133523146Y-63467000D01*
X133482688Y-63473408D01*
X133297253Y-63502778D01*
X133297250Y-63502778D01*
X133079744Y-63573450D01*
X132875961Y-63677283D01*
X132693259Y-63810025D01*
X132627452Y-63833505D01*
X132559398Y-63817680D01*
X132510703Y-63767574D01*
X132504190Y-63753038D01*
X132501767Y-63746542D01*
X132493796Y-63725169D01*
X132493793Y-63725164D01*
X132407547Y-63609955D01*
X132407544Y-63609952D01*
X132292335Y-63523706D01*
X132292328Y-63523702D01*
X132157482Y-63473408D01*
X132157483Y-63473408D01*
X132097883Y-63467001D01*
X132097881Y-63467000D01*
X132097873Y-63467000D01*
X132097864Y-63467000D01*
X130097129Y-63467000D01*
X130097123Y-63467001D01*
X130037516Y-63473408D01*
X129902671Y-63523702D01*
X129902664Y-63523706D01*
X129787455Y-63609952D01*
X129787452Y-63609955D01*
X129701206Y-63725164D01*
X129701202Y-63725171D01*
X129650908Y-63860017D01*
X129644501Y-63919616D01*
X129644500Y-63919635D01*
X129644500Y-66015370D01*
X129644679Y-66018696D01*
X129642971Y-66018787D01*
X129631783Y-66080956D01*
X129584195Y-66132114D01*
X129520875Y-66149500D01*
X123451455Y-66149500D01*
X123359416Y-66167808D01*
X123359413Y-66167808D01*
X123354812Y-66168724D01*
X123258164Y-66187949D01*
X123205337Y-66209831D01*
X123198413Y-66212698D01*
X123198409Y-66212700D01*
X123076089Y-66263366D01*
X123076080Y-66263371D01*
X122912219Y-66372859D01*
X122873786Y-66411293D01*
X122772861Y-66512218D01*
X122772858Y-66512221D01*
X118562221Y-70722858D01*
X118562218Y-70722861D01*
X118494102Y-70790977D01*
X118422859Y-70862219D01*
X118313371Y-71026079D01*
X118313364Y-71026092D01*
X118237950Y-71208160D01*
X118237947Y-71208170D01*
X118199500Y-71401456D01*
X118199500Y-72085858D01*
X118179815Y-72152897D01*
X118127011Y-72198652D01*
X118118847Y-72202034D01*
X118107669Y-72206204D01*
X118107664Y-72206206D01*
X117992455Y-72292452D01*
X117992452Y-72292455D01*
X117906206Y-72407664D01*
X117906202Y-72407671D01*
X117855908Y-72542517D01*
X117849501Y-72602116D01*
X117849501Y-72602123D01*
X117849500Y-72602135D01*
X117849500Y-74397870D01*
X117849501Y-74397876D01*
X117855908Y-74457483D01*
X117906202Y-74592328D01*
X117906206Y-74592335D01*
X117992452Y-74707544D01*
X117992455Y-74707547D01*
X118107664Y-74793793D01*
X118107671Y-74793797D01*
X118239082Y-74842810D01*
X118295016Y-74884681D01*
X118319433Y-74950145D01*
X118304582Y-75018418D01*
X118283431Y-75046673D01*
X118169889Y-75160215D01*
X118044951Y-75332179D01*
X117948444Y-75521585D01*
X117882753Y-75723760D01*
X117849500Y-75933713D01*
X117849500Y-76146286D01*
X117882753Y-76356239D01*
X117948444Y-76558414D01*
X118044951Y-76747820D01*
X118169890Y-76919786D01*
X118320213Y-77070109D01*
X118492179Y-77195048D01*
X118492181Y-77195049D01*
X118492184Y-77195051D01*
X118681588Y-77291557D01*
X118883757Y-77357246D01*
X119093713Y-77390500D01*
X119093714Y-77390500D01*
X119306286Y-77390500D01*
X119306287Y-77390500D01*
X119516243Y-77357246D01*
X119718412Y-77291557D01*
X119907816Y-77195051D01*
X119922769Y-77184186D01*
X120083734Y-77067241D01*
X120084364Y-77068108D01*
X120143419Y-77041641D01*
X120160200Y-77040500D01*
X125624218Y-77040500D01*
X125691257Y-77060185D01*
X125711899Y-77076819D01*
X126125399Y-77490319D01*
X126158884Y-77551642D01*
X126153900Y-77621334D01*
X126112028Y-77677267D01*
X126046564Y-77701684D01*
X126037718Y-77702000D01*
X125811538Y-77702000D01*
X125687126Y-77721705D01*
X125562714Y-77741410D01*
X125323116Y-77819260D01*
X125098651Y-77933632D01*
X124894850Y-78081701D01*
X124894845Y-78081705D01*
X124716705Y-78259845D01*
X124716701Y-78259850D01*
X124568632Y-78463651D01*
X124454260Y-78688116D01*
X124376410Y-78927714D01*
X124361060Y-79024628D01*
X124337000Y-79176538D01*
X124337000Y-79428462D01*
X124362051Y-79586628D01*
X124376410Y-79677285D01*
X124454260Y-79916883D01*
X124568632Y-80141348D01*
X124716701Y-80345149D01*
X124716705Y-80345154D01*
X124894845Y-80523294D01*
X124894850Y-80523298D01*
X125102596Y-80674234D01*
X125101477Y-80675773D01*
X125142923Y-80721584D01*
X125154346Y-80790514D01*
X125126689Y-80854677D01*
X125068733Y-80893702D01*
X125031258Y-80899500D01*
X117826082Y-80899500D01*
X117812412Y-80902219D01*
X117812408Y-80902219D01*
X117808487Y-80903000D01*
X117681088Y-80928341D01*
X117627899Y-80950373D01*
X117620342Y-80953503D01*
X117620339Y-80953504D01*
X117544506Y-80984915D01*
X117462372Y-81039795D01*
X117421585Y-81067047D01*
X117421581Y-81067050D01*
X116317048Y-82171583D01*
X116296478Y-82202369D01*
X116276045Y-82232951D01*
X116234919Y-82294499D01*
X116234912Y-82294511D01*
X116178343Y-82431082D01*
X116178340Y-82431092D01*
X116149500Y-82576079D01*
X116149500Y-82576082D01*
X116149500Y-84823918D01*
X116149500Y-84823920D01*
X116149499Y-84823920D01*
X116178340Y-84968907D01*
X116178343Y-84968917D01*
X116225069Y-85081723D01*
X116234916Y-85105495D01*
X116235734Y-85106719D01*
X116259829Y-85142781D01*
X116317049Y-85228418D01*
X116317052Y-85228421D01*
X117313181Y-86224548D01*
X117346666Y-86285871D01*
X117349500Y-86312229D01*
X117349500Y-90809954D01*
X117329815Y-90876993D01*
X117277011Y-90922748D01*
X117207853Y-90932692D01*
X117169206Y-90920439D01*
X117099226Y-90884782D01*
X116904534Y-90821522D01*
X116729995Y-90793878D01*
X116702352Y-90789500D01*
X116497648Y-90789500D01*
X116473329Y-90793351D01*
X116295465Y-90821522D01*
X116100776Y-90884781D01*
X115918386Y-90977715D01*
X115752786Y-91098028D01*
X115608028Y-91242786D01*
X115487715Y-91408386D01*
X115394781Y-91590776D01*
X115331522Y-91785465D01*
X115299500Y-91987648D01*
X115299500Y-92192351D01*
X115331522Y-92394534D01*
X115394781Y-92589223D01*
X115437214Y-92672500D01*
X115473617Y-92743946D01*
X115487715Y-92771613D01*
X115608028Y-92937213D01*
X115752786Y-93081971D01*
X115882313Y-93176076D01*
X115918390Y-93202287D01*
X116005485Y-93246664D01*
X116100776Y-93295218D01*
X116100778Y-93295218D01*
X116100781Y-93295220D01*
X116205137Y-93329127D01*
X116295465Y-93358477D01*
X116368502Y-93370045D01*
X116497648Y-93390500D01*
X116497649Y-93390500D01*
X116702351Y-93390500D01*
X116702352Y-93390500D01*
X116904534Y-93358477D01*
X117099219Y-93295220D01*
X117169205Y-93259559D01*
X117237874Y-93246664D01*
X117302614Y-93272940D01*
X117342872Y-93330046D01*
X117349500Y-93370045D01*
X117349500Y-93737769D01*
X117329815Y-93804808D01*
X117313181Y-93825450D01*
X116017052Y-95121578D01*
X116017049Y-95121581D01*
X115978564Y-95179178D01*
X115978565Y-95179179D01*
X115934914Y-95244508D01*
X115878343Y-95381082D01*
X115878340Y-95381092D01*
X115849500Y-95526079D01*
X115849500Y-98584582D01*
X115829815Y-98651621D01*
X115798385Y-98684900D01*
X115752787Y-98718028D01*
X115752782Y-98718032D01*
X115608028Y-98862786D01*
X115487715Y-99028386D01*
X115394781Y-99210776D01*
X115331522Y-99405465D01*
X115299500Y-99607648D01*
X115299500Y-99812351D01*
X115331522Y-100014534D01*
X115394781Y-100209223D01*
X115445876Y-100309500D01*
X115481209Y-100378846D01*
X115487715Y-100391613D01*
X115608028Y-100557213D01*
X115752786Y-100701971D01*
X115898523Y-100807853D01*
X115918390Y-100822287D01*
X116025792Y-100877011D01*
X116100776Y-100915218D01*
X116100778Y-100915218D01*
X116100781Y-100915220D01*
X116168912Y-100937357D01*
X116295465Y-100978477D01*
X116305378Y-100980047D01*
X116497648Y-101010500D01*
X116497649Y-101010500D01*
X116702350Y-101010500D01*
X116702352Y-101010500D01*
X116758026Y-101001681D01*
X116827318Y-101010635D01*
X116865105Y-101036473D01*
X118111578Y-102282947D01*
X118111585Y-102282953D01*
X118184272Y-102331520D01*
X118184274Y-102331521D01*
X118184277Y-102331523D01*
X118234505Y-102365084D01*
X118234506Y-102365084D01*
X118234507Y-102365085D01*
X118371082Y-102421656D01*
X118371087Y-102421658D01*
X118371091Y-102421658D01*
X118371092Y-102421659D01*
X118516079Y-102450500D01*
X118516082Y-102450500D01*
X118516083Y-102450500D01*
X118663917Y-102450500D01*
X121050500Y-102450500D01*
X121117539Y-102470185D01*
X121163294Y-102522989D01*
X121174500Y-102574500D01*
X121174500Y-104698918D01*
X121174500Y-104698920D01*
X121174499Y-104698920D01*
X121203340Y-104843907D01*
X121203343Y-104843917D01*
X121259912Y-104980487D01*
X121259916Y-104980495D01*
X121265527Y-104988892D01*
X121338346Y-105097876D01*
X121342051Y-105103420D01*
X121342052Y-105103421D01*
X123613181Y-107374548D01*
X123646666Y-107435871D01*
X123649500Y-107462229D01*
X123649500Y-108125001D01*
X123649501Y-108125019D01*
X123660000Y-108227796D01*
X123660001Y-108227799D01*
X123698155Y-108342938D01*
X123715186Y-108394334D01*
X123807288Y-108543656D01*
X123931344Y-108667712D01*
X124080666Y-108759814D01*
X124142473Y-108780294D01*
X124199917Y-108820067D01*
X124226740Y-108884582D01*
X124214425Y-108953358D01*
X124166882Y-109004558D01*
X124103468Y-109022000D01*
X119140206Y-109022000D01*
X119134797Y-109021882D01*
X118750749Y-109005114D01*
X118739973Y-109004171D01*
X118361542Y-108954349D01*
X118350889Y-108952471D01*
X117978227Y-108869854D01*
X117967778Y-108867054D01*
X117603744Y-108752275D01*
X117593578Y-108748575D01*
X117240927Y-108602502D01*
X117231123Y-108597930D01*
X116892557Y-108421683D01*
X116883189Y-108416275D01*
X116561255Y-108211181D01*
X116552394Y-108204976D01*
X116249569Y-107972610D01*
X116241282Y-107965656D01*
X115959864Y-107707784D01*
X115952215Y-107700135D01*
X115694343Y-107418717D01*
X115687389Y-107410430D01*
X115455023Y-107107605D01*
X115448818Y-107098744D01*
X115243724Y-106776810D01*
X115238316Y-106767442D01*
X115144767Y-106587737D01*
X115062066Y-106428869D01*
X115057497Y-106419072D01*
X115056542Y-106416766D01*
X114911420Y-106066411D01*
X114907724Y-106056255D01*
X114907270Y-106054815D01*
X114792942Y-105692210D01*
X114790148Y-105681784D01*
X114707525Y-105309097D01*
X114705652Y-105298471D01*
X114655826Y-104920006D01*
X114654886Y-104909271D01*
X114654534Y-104901211D01*
X116787000Y-104901211D01*
X116787000Y-105143788D01*
X116818661Y-105384285D01*
X116881447Y-105618604D01*
X116974273Y-105842705D01*
X116974276Y-105842712D01*
X117095564Y-106052789D01*
X117095566Y-106052792D01*
X117095567Y-106052793D01*
X117243233Y-106245236D01*
X117243239Y-106245243D01*
X117414756Y-106416760D01*
X117414763Y-106416766D01*
X117468592Y-106458070D01*
X117607211Y-106564436D01*
X117817288Y-106685724D01*
X117978633Y-106752555D01*
X118037189Y-106776810D01*
X118041400Y-106778554D01*
X118275711Y-106841338D01*
X118456086Y-106865084D01*
X118516211Y-106873000D01*
X118516212Y-106873000D01*
X118758789Y-106873000D01*
X118806888Y-106866667D01*
X118999289Y-106841338D01*
X119233600Y-106778554D01*
X119457712Y-106685724D01*
X119667789Y-106564436D01*
X119860238Y-106416765D01*
X120031765Y-106245238D01*
X120179436Y-106052789D01*
X120300724Y-105842712D01*
X120393554Y-105618600D01*
X120456338Y-105384289D01*
X120488000Y-105143788D01*
X120488000Y-104901212D01*
X120456338Y-104660711D01*
X120393554Y-104426400D01*
X120300724Y-104202288D01*
X120179436Y-103992211D01*
X120031765Y-103799762D01*
X120031760Y-103799756D01*
X119860243Y-103628239D01*
X119860236Y-103628233D01*
X119667793Y-103480567D01*
X119667792Y-103480566D01*
X119667789Y-103480564D01*
X119496161Y-103381474D01*
X119457714Y-103359277D01*
X119457705Y-103359273D01*
X119233604Y-103266447D01*
X119116444Y-103235054D01*
X118999289Y-103203662D01*
X118999288Y-103203661D01*
X118999285Y-103203661D01*
X118758789Y-103172000D01*
X118758788Y-103172000D01*
X118516212Y-103172000D01*
X118516211Y-103172000D01*
X118275714Y-103203661D01*
X118041395Y-103266447D01*
X117817294Y-103359273D01*
X117817285Y-103359277D01*
X117607206Y-103480567D01*
X117414763Y-103628233D01*
X117414756Y-103628239D01*
X117243239Y-103799756D01*
X117243233Y-103799763D01*
X117095567Y-103992206D01*
X116974277Y-104202285D01*
X116974273Y-104202294D01*
X116881447Y-104426395D01*
X116818661Y-104660714D01*
X116787000Y-104901211D01*
X114654534Y-104901211D01*
X114638118Y-104525202D01*
X114638000Y-104519793D01*
X114638000Y-64525206D01*
X114638118Y-64519797D01*
X114640877Y-64456608D01*
X114654886Y-64135726D01*
X114655826Y-64124995D01*
X114685288Y-63901211D01*
X116787000Y-63901211D01*
X116787000Y-64143788D01*
X116818661Y-64384285D01*
X116881447Y-64618604D01*
X116958923Y-64805646D01*
X116974276Y-64842712D01*
X117095564Y-65052789D01*
X117095566Y-65052792D01*
X117095567Y-65052793D01*
X117243233Y-65245236D01*
X117243239Y-65245243D01*
X117414756Y-65416760D01*
X117414762Y-65416765D01*
X117607211Y-65564436D01*
X117817288Y-65685724D01*
X118041400Y-65778554D01*
X118275711Y-65841338D01*
X118438043Y-65862709D01*
X118516211Y-65873000D01*
X118516212Y-65873000D01*
X118758789Y-65873000D01*
X118836957Y-65862709D01*
X118999289Y-65841338D01*
X119233600Y-65778554D01*
X119457712Y-65685724D01*
X119667789Y-65564436D01*
X119860238Y-65416765D01*
X120031765Y-65245238D01*
X120179436Y-65052789D01*
X120300724Y-64842712D01*
X120393554Y-64618600D01*
X120456338Y-64384289D01*
X120488000Y-64143788D01*
X120488000Y-63901212D01*
X120487143Y-63894706D01*
X120472064Y-63780164D01*
X120456338Y-63660711D01*
X120393554Y-63426400D01*
X120300724Y-63202288D01*
X120179436Y-62992211D01*
X120031765Y-62799762D01*
X120031760Y-62799756D01*
X119860243Y-62628239D01*
X119860236Y-62628233D01*
X119667793Y-62480567D01*
X119667792Y-62480566D01*
X119667789Y-62480564D01*
X119457712Y-62359276D01*
X119457705Y-62359273D01*
X119233604Y-62266447D01*
X118999285Y-62203661D01*
X118758789Y-62172000D01*
X118758788Y-62172000D01*
X118516212Y-62172000D01*
X118516211Y-62172000D01*
X118275714Y-62203661D01*
X118041395Y-62266447D01*
X117817294Y-62359273D01*
X117817285Y-62359277D01*
X117607206Y-62480567D01*
X117414763Y-62628233D01*
X117414756Y-62628239D01*
X117243239Y-62799756D01*
X117243233Y-62799763D01*
X117095567Y-62992206D01*
X116974277Y-63202285D01*
X116974273Y-63202294D01*
X116881447Y-63426395D01*
X116818661Y-63660714D01*
X116787000Y-63901211D01*
X114685288Y-63901211D01*
X114705653Y-63746521D01*
X114707525Y-63735905D01*
X114790149Y-63363209D01*
X114792940Y-63352795D01*
X114907730Y-62988727D01*
X114911417Y-62978595D01*
X115057503Y-62625912D01*
X115062061Y-62616138D01*
X115238322Y-62277545D01*
X115243717Y-62268200D01*
X115448825Y-61946244D01*
X115455015Y-61937405D01*
X115687396Y-61634560D01*
X115694334Y-61626291D01*
X115952226Y-61344852D01*
X115959852Y-61337226D01*
X116241291Y-61079334D01*
X116249560Y-61072396D01*
X116552405Y-60840015D01*
X116561244Y-60833825D01*
X116883200Y-60628717D01*
X116892545Y-60623322D01*
X117231138Y-60447061D01*
X117240912Y-60442503D01*
X117593595Y-60296417D01*
X117603727Y-60292730D01*
X117967795Y-60177940D01*
X117978209Y-60175149D01*
X118350905Y-60092525D01*
X118361525Y-60090652D01*
X118739995Y-60040826D01*
X118750726Y-60039886D01*
X119134797Y-60023117D01*
X119140206Y-60023000D01*
X119203392Y-60023000D01*
X206071608Y-60023000D01*
X206134794Y-60023000D01*
X206140202Y-60023117D01*
G37*
%TD.AperFunction*%
%TA.AperFunction,Conductor*%
G36*
X127918390Y-100340952D02*
G01*
X128020814Y-100409390D01*
X128020827Y-100409397D01*
X128104498Y-100444054D01*
X128166503Y-100469737D01*
X128321153Y-100500499D01*
X128321156Y-100500500D01*
X128321158Y-100500500D01*
X128478844Y-100500500D01*
X128478845Y-100500499D01*
X128633497Y-100469737D01*
X128748079Y-100422275D01*
X128817548Y-100414807D01*
X128880027Y-100446082D01*
X128915679Y-100506171D01*
X128917148Y-100512643D01*
X128928341Y-100568910D01*
X128928343Y-100568917D01*
X128984912Y-100705488D01*
X128984920Y-100705502D01*
X129013315Y-100747997D01*
X129013316Y-100748000D01*
X129013317Y-100748000D01*
X129063620Y-100823286D01*
X129067051Y-100828420D01*
X129067052Y-100828421D01*
X130417049Y-102178416D01*
X130483138Y-102244505D01*
X130521585Y-102282952D01*
X130644498Y-102365080D01*
X130644511Y-102365087D01*
X130781082Y-102421656D01*
X130781087Y-102421658D01*
X130781091Y-102421658D01*
X130781092Y-102421659D01*
X130926079Y-102450500D01*
X130926082Y-102450500D01*
X132187770Y-102450500D01*
X132254809Y-102470185D01*
X132275451Y-102486819D01*
X133963181Y-104174549D01*
X133996666Y-104235872D01*
X133999500Y-104262230D01*
X133999500Y-106317796D01*
X133992365Y-106342091D01*
X133989224Y-106367222D01*
X133981772Y-106378166D01*
X133979815Y-106384835D01*
X133970692Y-106397259D01*
X133967120Y-106401537D01*
X133910586Y-106458072D01*
X133847875Y-106544385D01*
X133845192Y-106547600D01*
X133819482Y-106564799D01*
X133794987Y-106583689D01*
X133790697Y-106584057D01*
X133787120Y-106586451D01*
X133756194Y-106587020D01*
X133725374Y-106589667D01*
X133721566Y-106587657D01*
X133717262Y-106587737D01*
X133690942Y-106571499D01*
X133663579Y-106557061D01*
X133659030Y-106551811D01*
X133657798Y-106551051D01*
X133657088Y-106549569D01*
X133649683Y-106541023D01*
X133589418Y-106458078D01*
X133589414Y-106458072D01*
X133466928Y-106335586D01*
X133326788Y-106233768D01*
X133172445Y-106155127D01*
X133007701Y-106101598D01*
X133007699Y-106101597D01*
X133007698Y-106101597D01*
X132876271Y-106080781D01*
X132836611Y-106074500D01*
X132663389Y-106074500D01*
X132623728Y-106080781D01*
X132492302Y-106101597D01*
X132327552Y-106155128D01*
X132173211Y-106233768D01*
X132093256Y-106291859D01*
X132033072Y-106335586D01*
X132033070Y-106335588D01*
X132033069Y-106335588D01*
X131910588Y-106458069D01*
X131910581Y-106458078D01*
X131850317Y-106541023D01*
X131794987Y-106583689D01*
X131725374Y-106589667D01*
X131663579Y-106557061D01*
X131649683Y-106541023D01*
X131589418Y-106458078D01*
X131589414Y-106458072D01*
X131466928Y-106335586D01*
X131326788Y-106233768D01*
X131172445Y-106155127D01*
X131007701Y-106101598D01*
X131007699Y-106101597D01*
X131007698Y-106101597D01*
X130876271Y-106080781D01*
X130836611Y-106074500D01*
X130663389Y-106074500D01*
X130623728Y-106080781D01*
X130492302Y-106101597D01*
X130327552Y-106155128D01*
X130173211Y-106233768D01*
X130093256Y-106291859D01*
X130033072Y-106335586D01*
X130033070Y-106335588D01*
X130033069Y-106335588D01*
X129910588Y-106458069D01*
X129910581Y-106458078D01*
X129850317Y-106541023D01*
X129794987Y-106583689D01*
X129725374Y-106589667D01*
X129663579Y-106557061D01*
X129649683Y-106541023D01*
X129589418Y-106458078D01*
X129589414Y-106458072D01*
X129466928Y-106335586D01*
X129326788Y-106233768D01*
X129172445Y-106155127D01*
X129007701Y-106101598D01*
X129007699Y-106101597D01*
X129007698Y-106101597D01*
X128876271Y-106080781D01*
X128836611Y-106074500D01*
X128663389Y-106074500D01*
X128623728Y-106080781D01*
X128492302Y-106101597D01*
X128327552Y-106155128D01*
X128173211Y-106233768D01*
X128093256Y-106291859D01*
X128033072Y-106335586D01*
X128033070Y-106335588D01*
X128033069Y-106335588D01*
X127910588Y-106458069D01*
X127910588Y-106458070D01*
X127910586Y-106458072D01*
X127910582Y-106458078D01*
X127808768Y-106598211D01*
X127730128Y-106752552D01*
X127676597Y-106917302D01*
X127649500Y-107088389D01*
X127649500Y-107811610D01*
X127674999Y-107972610D01*
X127676598Y-107982701D01*
X127730127Y-108147445D01*
X127808768Y-108301788D01*
X127910586Y-108441928D01*
X128033072Y-108564414D01*
X128173212Y-108666232D01*
X128327555Y-108744873D01*
X128435877Y-108780069D01*
X128493553Y-108819507D01*
X128520751Y-108883865D01*
X128508836Y-108952712D01*
X128461592Y-109004187D01*
X128397559Y-109022000D01*
X125396533Y-109022000D01*
X125329494Y-109002315D01*
X125283739Y-108949511D01*
X125273795Y-108880353D01*
X125302820Y-108816797D01*
X125357528Y-108780294D01*
X125419334Y-108759814D01*
X125568656Y-108667712D01*
X125692712Y-108543656D01*
X125784814Y-108394334D01*
X125839999Y-108227797D01*
X125850500Y-108125009D01*
X125850499Y-106774992D01*
X125839999Y-106672203D01*
X125784814Y-106505666D01*
X125692712Y-106356344D01*
X125568656Y-106232288D01*
X125443559Y-106155128D01*
X125419336Y-106140187D01*
X125419331Y-106140185D01*
X125417862Y-106139698D01*
X125252797Y-106085001D01*
X125252795Y-106085000D01*
X125150016Y-106074500D01*
X125150009Y-106074500D01*
X124487230Y-106074500D01*
X124420191Y-106054815D01*
X124399549Y-106038181D01*
X123466832Y-105105464D01*
X123433347Y-105044141D01*
X123438331Y-104974449D01*
X123480203Y-104918516D01*
X123535112Y-104895311D01*
X123704534Y-104868477D01*
X123899219Y-104805220D01*
X124081610Y-104712287D01*
X124174590Y-104644732D01*
X124247213Y-104591971D01*
X124247215Y-104591968D01*
X124247219Y-104591966D01*
X124391966Y-104447219D01*
X124391968Y-104447215D01*
X124391971Y-104447213D01*
X124458032Y-104356286D01*
X124512287Y-104281610D01*
X124605220Y-104099219D01*
X124668477Y-103904534D01*
X124700500Y-103702352D01*
X124700500Y-103497648D01*
X124688453Y-103421586D01*
X124668477Y-103295465D01*
X124610636Y-103117451D01*
X124605220Y-103100781D01*
X124605218Y-103100778D01*
X124605218Y-103100776D01*
X124512287Y-102918390D01*
X124403540Y-102768711D01*
X124398778Y-102755364D01*
X124389778Y-102744422D01*
X124387271Y-102723113D01*
X124380061Y-102702904D01*
X124383110Y-102687743D01*
X124381615Y-102675030D01*
X124389808Y-102654444D01*
X124392426Y-102641433D01*
X124396100Y-102633905D01*
X124415084Y-102605495D01*
X124442299Y-102539792D01*
X124471659Y-102468912D01*
X124500500Y-102323917D01*
X124500500Y-102176082D01*
X124500500Y-101539954D01*
X124520185Y-101472915D01*
X124572989Y-101427160D01*
X124642147Y-101417216D01*
X124705703Y-101446241D01*
X124712181Y-101452273D01*
X124717455Y-101457547D01*
X124832664Y-101543793D01*
X124832671Y-101543797D01*
X124859258Y-101553713D01*
X124967517Y-101594091D01*
X125027127Y-101600500D01*
X125672872Y-101600499D01*
X125732483Y-101594091D01*
X125732486Y-101594089D01*
X125736744Y-101593632D01*
X125763254Y-101593632D01*
X125767514Y-101594089D01*
X125767517Y-101594091D01*
X125827127Y-101600500D01*
X126472872Y-101600499D01*
X126532483Y-101594091D01*
X126532486Y-101594089D01*
X126536744Y-101593632D01*
X126563254Y-101593632D01*
X126567514Y-101594089D01*
X126567517Y-101594091D01*
X126627127Y-101600500D01*
X127272872Y-101600499D01*
X127332483Y-101594091D01*
X127467331Y-101543796D01*
X127582546Y-101457546D01*
X127668796Y-101342331D01*
X127719091Y-101207483D01*
X127725500Y-101147873D01*
X127725499Y-100444052D01*
X127745183Y-100377015D01*
X127797987Y-100331260D01*
X127867146Y-100321316D01*
X127918390Y-100340952D01*
G37*
%TD.AperFunction*%
%TA.AperFunction,Conductor*%
G36*
X125367328Y-92820249D02*
G01*
X125376359Y-92819604D01*
X125399550Y-92832267D01*
X125424310Y-92841502D01*
X125433749Y-92850941D01*
X125437682Y-92853089D01*
X125449261Y-92866452D01*
X125517454Y-92957546D01*
X125563643Y-92992123D01*
X125632664Y-93043793D01*
X125632671Y-93043797D01*
X125648533Y-93049713D01*
X125767517Y-93094091D01*
X125827127Y-93100500D01*
X126238771Y-93100499D01*
X126305809Y-93120183D01*
X126351564Y-93172987D01*
X126361508Y-93242146D01*
X126332483Y-93305702D01*
X126326451Y-93312180D01*
X125717048Y-93921583D01*
X125698780Y-93948923D01*
X125680634Y-93976083D01*
X125634919Y-94044499D01*
X125634912Y-94044511D01*
X125578343Y-94181082D01*
X125578340Y-94181092D01*
X125549500Y-94326079D01*
X125549500Y-96495396D01*
X125540062Y-96542844D01*
X125532914Y-96560103D01*
X125530262Y-96566506D01*
X125530260Y-96566511D01*
X125499500Y-96721153D01*
X125499500Y-96878846D01*
X125530261Y-97033489D01*
X125530264Y-97033501D01*
X125590602Y-97179172D01*
X125590609Y-97179185D01*
X125678210Y-97310288D01*
X125678213Y-97310292D01*
X125789707Y-97421786D01*
X125789711Y-97421789D01*
X125920814Y-97509390D01*
X125920827Y-97509397D01*
X125994013Y-97539711D01*
X126066503Y-97569737D01*
X126221153Y-97600499D01*
X126221156Y-97600500D01*
X126221158Y-97600500D01*
X126378844Y-97600500D01*
X126378845Y-97600499D01*
X126533497Y-97569737D01*
X126679179Y-97509394D01*
X126810289Y-97421789D01*
X126887820Y-97344257D01*
X126905415Y-97334650D01*
X126920103Y-97321002D01*
X126935453Y-97318247D01*
X126949141Y-97310774D01*
X126969137Y-97312204D01*
X126988874Y-97308663D01*
X127003277Y-97314645D01*
X127018833Y-97315758D01*
X127034884Y-97327773D01*
X127053399Y-97335464D01*
X127062280Y-97348281D01*
X127074767Y-97357629D01*
X127081774Y-97376416D01*
X127093192Y-97392895D01*
X127097220Y-97417827D01*
X127099184Y-97423093D01*
X127099425Y-97427634D01*
X127099500Y-97429814D01*
X127099501Y-97572872D01*
X127105909Y-97632483D01*
X127106607Y-97634357D01*
X127107002Y-97645697D01*
X127106367Y-97648175D01*
X127106367Y-97663257D01*
X127105909Y-97667516D01*
X127105909Y-97667517D01*
X127099500Y-97727127D01*
X127099500Y-97727132D01*
X127099500Y-97727133D01*
X127099500Y-98372870D01*
X127099501Y-98372879D01*
X127106367Y-98436751D01*
X127106367Y-98463257D01*
X127105909Y-98467516D01*
X127105909Y-98467517D01*
X127099500Y-98527127D01*
X127099500Y-98527132D01*
X127099500Y-98875500D01*
X127079815Y-98942539D01*
X127027011Y-98988294D01*
X126975500Y-98999500D01*
X126627130Y-98999500D01*
X126627120Y-98999501D01*
X126563248Y-99006367D01*
X126536742Y-99006367D01*
X126532483Y-99005909D01*
X126472873Y-98999500D01*
X126472864Y-98999500D01*
X125827129Y-98999500D01*
X125827120Y-98999501D01*
X125763248Y-99006367D01*
X125736742Y-99006367D01*
X125732483Y-99005909D01*
X125672873Y-98999500D01*
X125672864Y-98999500D01*
X125027129Y-98999500D01*
X125027123Y-98999501D01*
X124967516Y-99005908D01*
X124832671Y-99056202D01*
X124832664Y-99056206D01*
X124717455Y-99142452D01*
X124717452Y-99142455D01*
X124649266Y-99233540D01*
X124593332Y-99275411D01*
X124523641Y-99280395D01*
X124462318Y-99246909D01*
X124450734Y-99233540D01*
X124382547Y-99142455D01*
X124382544Y-99142452D01*
X124267335Y-99056206D01*
X124267328Y-99056202D01*
X124132486Y-99005910D01*
X124132485Y-99005909D01*
X124132483Y-99005909D01*
X124072873Y-98999500D01*
X124072863Y-98999500D01*
X123427129Y-98999500D01*
X123427120Y-98999501D01*
X123363248Y-99006367D01*
X123336742Y-99006367D01*
X123332483Y-99005909D01*
X123272873Y-98999500D01*
X123272864Y-98999500D01*
X122627129Y-98999500D01*
X122627120Y-98999501D01*
X122563248Y-99006367D01*
X122544647Y-99006962D01*
X122534083Y-99006505D01*
X122532483Y-99005909D01*
X122472873Y-98999500D01*
X122371815Y-98999500D01*
X122369151Y-98999385D01*
X122338500Y-98988929D01*
X122307461Y-98979815D01*
X122305647Y-98977722D01*
X122303023Y-98976827D01*
X122282891Y-98951460D01*
X122261706Y-98927011D01*
X122261033Y-98923917D01*
X122259589Y-98922098D01*
X122258697Y-98913182D01*
X122250500Y-98875500D01*
X122250500Y-98771155D01*
X122248569Y-98761450D01*
X122254793Y-98691858D01*
X122282503Y-98649574D01*
X122371789Y-98560289D01*
X122459394Y-98429179D01*
X122519737Y-98283497D01*
X122550500Y-98128842D01*
X122550500Y-97971158D01*
X122550500Y-97971155D01*
X122550499Y-97971153D01*
X122519738Y-97816510D01*
X122519737Y-97816503D01*
X122482717Y-97727127D01*
X122459397Y-97670827D01*
X122459390Y-97670814D01*
X122371789Y-97539711D01*
X122371786Y-97539707D01*
X122260292Y-97428213D01*
X122260288Y-97428210D01*
X122129185Y-97340609D01*
X122129172Y-97340602D01*
X121983501Y-97280264D01*
X121983489Y-97280261D01*
X121828845Y-97249500D01*
X121828842Y-97249500D01*
X121671158Y-97249500D01*
X121671155Y-97249500D01*
X121516511Y-97280260D01*
X121516506Y-97280262D01*
X121516504Y-97280262D01*
X121516503Y-97280263D01*
X121492844Y-97290062D01*
X121484670Y-97291688D01*
X121480331Y-97294477D01*
X121445396Y-97299500D01*
X121324500Y-97299500D01*
X121257461Y-97279815D01*
X121211706Y-97227011D01*
X121200500Y-97175500D01*
X121200499Y-96927130D01*
X121200499Y-96927128D01*
X121194091Y-96867517D01*
X121194089Y-96867513D01*
X121193632Y-96863255D01*
X121193632Y-96836745D01*
X121194089Y-96832486D01*
X121194091Y-96832483D01*
X121200500Y-96772873D01*
X121200499Y-96127128D01*
X121194091Y-96067517D01*
X121194089Y-96067513D01*
X121193632Y-96063255D01*
X121193632Y-96036745D01*
X121194089Y-96032486D01*
X121194091Y-96032483D01*
X121200500Y-95972873D01*
X121200499Y-95645132D01*
X121220183Y-95578095D01*
X121272987Y-95532340D01*
X121342146Y-95522396D01*
X121371951Y-95530573D01*
X121454659Y-95564831D01*
X121466503Y-95569737D01*
X121566959Y-95589719D01*
X121621153Y-95600499D01*
X121621156Y-95600500D01*
X121621158Y-95600500D01*
X121778844Y-95600500D01*
X121778845Y-95600499D01*
X121933497Y-95569737D01*
X122079179Y-95509394D01*
X122210289Y-95421789D01*
X122321789Y-95310289D01*
X122409394Y-95179179D01*
X122412007Y-95172872D01*
X122448366Y-95085091D01*
X122469737Y-95033497D01*
X122500500Y-94878842D01*
X122500500Y-94721158D01*
X122500500Y-94721155D01*
X122500499Y-94721153D01*
X122488706Y-94661866D01*
X122469737Y-94566503D01*
X122459164Y-94540977D01*
X122441646Y-94498684D01*
X122434177Y-94429215D01*
X122465452Y-94366736D01*
X122468505Y-94363572D01*
X122471789Y-94360289D01*
X122559394Y-94229179D01*
X122619737Y-94083497D01*
X122650500Y-93928842D01*
X122650500Y-93771158D01*
X122650500Y-93771155D01*
X122650499Y-93771153D01*
X122631299Y-93674628D01*
X122619737Y-93616503D01*
X122619735Y-93616498D01*
X122559397Y-93470827D01*
X122559390Y-93470814D01*
X122471789Y-93339711D01*
X122471786Y-93339707D01*
X122439170Y-93307091D01*
X122431666Y-93293350D01*
X122420207Y-93282680D01*
X122415263Y-93263310D01*
X122405685Y-93245768D01*
X122406801Y-93230152D01*
X122402930Y-93214981D01*
X122409243Y-93196015D01*
X122410669Y-93176076D01*
X122420052Y-93163541D01*
X122424997Y-93148687D01*
X122440561Y-93136145D01*
X122452541Y-93120143D01*
X122467938Y-93114084D01*
X122479402Y-93104848D01*
X122513594Y-93096121D01*
X122532483Y-93094091D01*
X122532485Y-93094090D01*
X122536748Y-93093632D01*
X122563254Y-93093632D01*
X122567514Y-93094089D01*
X122567517Y-93094091D01*
X122627127Y-93100500D01*
X123272872Y-93100499D01*
X123332483Y-93094091D01*
X123467331Y-93043796D01*
X123582546Y-92957546D01*
X123650734Y-92866457D01*
X123706667Y-92824588D01*
X123776359Y-92819604D01*
X123837682Y-92853089D01*
X123849261Y-92866452D01*
X123917454Y-92957546D01*
X123963643Y-92992123D01*
X124032664Y-93043793D01*
X124032671Y-93043797D01*
X124048533Y-93049713D01*
X124167517Y-93094091D01*
X124227127Y-93100500D01*
X124872872Y-93100499D01*
X124932483Y-93094091D01*
X125067331Y-93043796D01*
X125182546Y-92957546D01*
X125250734Y-92866457D01*
X125271886Y-92850624D01*
X125290572Y-92831938D01*
X125299419Y-92830013D01*
X125306667Y-92824588D01*
X125333023Y-92822703D01*
X125358845Y-92817086D01*
X125367328Y-92820249D01*
G37*
%TD.AperFunction*%
%TA.AperFunction,Conductor*%
G36*
X120092348Y-82420185D02*
G01*
X120138103Y-82472989D01*
X120148047Y-82542147D01*
X120125627Y-82597385D01*
X120037715Y-82718386D01*
X119944781Y-82900776D01*
X119881522Y-83095465D01*
X119849500Y-83297648D01*
X119849500Y-83502351D01*
X119881522Y-83704534D01*
X119944781Y-83899223D01*
X120037715Y-84081613D01*
X120158028Y-84247213D01*
X120158034Y-84247219D01*
X120302781Y-84391966D01*
X120348384Y-84425098D01*
X120391050Y-84480425D01*
X120399500Y-84525416D01*
X120399500Y-86586385D01*
X120379815Y-86653424D01*
X120348388Y-86686701D01*
X120335356Y-86696169D01*
X120196171Y-86835355D01*
X120080476Y-86994594D01*
X119991117Y-87169970D01*
X119930290Y-87357173D01*
X119899500Y-87551577D01*
X119899500Y-87748422D01*
X119930290Y-87942826D01*
X119991117Y-88130029D01*
X120059886Y-88264995D01*
X120080476Y-88305405D01*
X120196172Y-88464646D01*
X120335354Y-88603828D01*
X120348385Y-88613295D01*
X120391050Y-88668622D01*
X120399500Y-88713613D01*
X120399500Y-88923918D01*
X120428340Y-89068907D01*
X120428343Y-89068917D01*
X120477988Y-89188770D01*
X120484916Y-89205495D01*
X120506628Y-89237990D01*
X120517340Y-89254022D01*
X120567049Y-89328418D01*
X120570917Y-89333131D01*
X120568790Y-89334875D01*
X120596636Y-89385734D01*
X120599500Y-89412230D01*
X120599500Y-90820299D01*
X120591682Y-90863632D01*
X120580908Y-90892516D01*
X120574501Y-90952116D01*
X120574501Y-90952123D01*
X120574500Y-90952135D01*
X120574500Y-92350500D01*
X120554815Y-92417539D01*
X120502011Y-92463294D01*
X120450500Y-92474500D01*
X119052129Y-92474500D01*
X119052120Y-92474501D01*
X118987752Y-92481420D01*
X118918992Y-92469012D01*
X118867856Y-92421400D01*
X118850500Y-92358130D01*
X118850500Y-85876079D01*
X118821659Y-85731092D01*
X118821658Y-85731091D01*
X118821658Y-85731087D01*
X118817894Y-85722000D01*
X118765087Y-85594511D01*
X118765080Y-85594498D01*
X118682952Y-85471585D01*
X118641080Y-85429713D01*
X118578416Y-85367049D01*
X118155791Y-84944424D01*
X117686819Y-84475451D01*
X117653334Y-84414128D01*
X117650500Y-84387770D01*
X117650500Y-83012229D01*
X117670185Y-82945190D01*
X117686819Y-82924548D01*
X118174548Y-82436819D01*
X118235871Y-82403334D01*
X118262229Y-82400500D01*
X120025309Y-82400500D01*
X120092348Y-82420185D01*
G37*
%TD.AperFunction*%
%TA.AperFunction,Conductor*%
G36*
X124942348Y-82420185D02*
G01*
X124988103Y-82472989D01*
X124998047Y-82542147D01*
X124975627Y-82597385D01*
X124887715Y-82718386D01*
X124794781Y-82900776D01*
X124731522Y-83095465D01*
X124699500Y-83297648D01*
X124699500Y-83502351D01*
X124731522Y-83704534D01*
X124794781Y-83899223D01*
X124887715Y-84081613D01*
X125008028Y-84247213D01*
X125152784Y-84391969D01*
X125248385Y-84461426D01*
X125291051Y-84516755D01*
X125299500Y-84561744D01*
X125299500Y-86586385D01*
X125279815Y-86653424D01*
X125248388Y-86686701D01*
X125235356Y-86696169D01*
X125096170Y-86835356D01*
X125086703Y-86848387D01*
X125085762Y-86849112D01*
X125085343Y-86850223D01*
X125058164Y-86870392D01*
X125031372Y-86891052D01*
X125029877Y-86891385D01*
X125029236Y-86891861D01*
X125021763Y-86893193D01*
X124994718Y-86899220D01*
X124990560Y-86899500D01*
X124926082Y-86899500D01*
X124900946Y-86904500D01*
X124893085Y-86906063D01*
X124893078Y-86906064D01*
X124781095Y-86928339D01*
X124781092Y-86928340D01*
X124781088Y-86928341D01*
X124701080Y-86961481D01*
X124701078Y-86961481D01*
X124644506Y-86984915D01*
X124644503Y-86984917D01*
X124637686Y-86989472D01*
X124571331Y-87033809D01*
X124571330Y-87033810D01*
X124521586Y-87067046D01*
X124521581Y-87067050D01*
X122312181Y-89276451D01*
X122250858Y-89309936D01*
X122181166Y-89304952D01*
X122125233Y-89263080D01*
X122100816Y-89197616D01*
X122100500Y-89188770D01*
X122100500Y-88976081D01*
X122100499Y-88976080D01*
X122090124Y-88923918D01*
X122071659Y-88831088D01*
X122015084Y-88694506D01*
X122015084Y-88694505D01*
X122011031Y-88688440D01*
X122007708Y-88681915D01*
X122002560Y-88654483D01*
X121994220Y-88627844D01*
X121996203Y-88620613D01*
X121994821Y-88613244D01*
X122005321Y-88587381D01*
X122012707Y-88560465D01*
X122019986Y-88551265D01*
X122021106Y-88548507D01*
X122023507Y-88546814D01*
X122030511Y-88537962D01*
X122103828Y-88464646D01*
X122219524Y-88305405D01*
X122308884Y-88130025D01*
X122369709Y-87942826D01*
X122384481Y-87849558D01*
X122400500Y-87748422D01*
X122400500Y-87551577D01*
X122369709Y-87357173D01*
X122308882Y-87169970D01*
X122239504Y-87033809D01*
X122219524Y-86994595D01*
X122103828Y-86835354D01*
X121964646Y-86696172D01*
X121964645Y-86696171D01*
X121964643Y-86696169D01*
X121951612Y-86686701D01*
X121908948Y-86631370D01*
X121900500Y-86586385D01*
X121900500Y-84525416D01*
X121920185Y-84458377D01*
X121951613Y-84425099D01*
X121997219Y-84391966D01*
X122141966Y-84247219D01*
X122141968Y-84247215D01*
X122141971Y-84247213D01*
X122194732Y-84174590D01*
X122262287Y-84081610D01*
X122355220Y-83899219D01*
X122418477Y-83704534D01*
X122450500Y-83502352D01*
X122450500Y-83297648D01*
X122418477Y-83095466D01*
X122355220Y-82900781D01*
X122355218Y-82900778D01*
X122355218Y-82900776D01*
X122321503Y-82834607D01*
X122262287Y-82718390D01*
X122244964Y-82694547D01*
X122174373Y-82597385D01*
X122150893Y-82531579D01*
X122166719Y-82463525D01*
X122216825Y-82414830D01*
X122274691Y-82400500D01*
X124875309Y-82400500D01*
X124942348Y-82420185D01*
G37*
%TD.AperFunction*%
%TD*%
M02*
