%TF.GenerationSoftware,KiCad,Pcbnew,9.0.1*%
%TF.CreationDate,2025-06-18T14:20:43+03:00*%
%TF.ProjectId,H bridge,48206272-6964-4676-952e-6b696361645f,2.1v*%
%TF.SameCoordinates,Original*%
%TF.FileFunction,Copper,L2,Bot*%
%TF.FilePolarity,Positive*%
%FSLAX46Y46*%
G04 Gerber Fmt 4.6, Leading zero omitted, Abs format (unit mm)*
G04 Created by KiCad (PCBNEW 9.0.1) date 2025-06-18 14:20:43*
%MOMM*%
%LPD*%
G01*
G04 APERTURE LIST*
G04 Aperture macros list*
%AMRoundRect*
0 Rectangle with rounded corners*
0 $1 Rounding radius*
0 $2 $3 $4 $5 $6 $7 $8 $9 X,Y pos of 4 corners*
0 Add a 4 corners polygon primitive as box body*
4,1,4,$2,$3,$4,$5,$6,$7,$8,$9,$2,$3,0*
0 Add four circle primitives for the rounded corners*
1,1,$1+$1,$2,$3*
1,1,$1+$1,$4,$5*
1,1,$1+$1,$6,$7*
1,1,$1+$1,$8,$9*
0 Add four rect primitives between the rounded corners*
20,1,$1+$1,$2,$3,$4,$5,0*
20,1,$1+$1,$4,$5,$6,$7,0*
20,1,$1+$1,$6,$7,$8,$9,0*
20,1,$1+$1,$8,$9,$2,$3,0*%
G04 Aperture macros list end*
%TA.AperFunction,ComponentPad*%
%ADD10C,1.600000*%
%TD*%
%TA.AperFunction,ComponentPad*%
%ADD11O,1.600000X1.600000*%
%TD*%
%TA.AperFunction,ComponentPad*%
%ADD12R,1.600000X1.600000*%
%TD*%
%TA.AperFunction,ComponentPad*%
%ADD13R,1.905000X2.000000*%
%TD*%
%TA.AperFunction,ComponentPad*%
%ADD14O,1.905000X2.000000*%
%TD*%
%TA.AperFunction,ComponentPad*%
%ADD15R,1.700000X1.700000*%
%TD*%
%TA.AperFunction,ComponentPad*%
%ADD16O,1.700000X1.700000*%
%TD*%
%TA.AperFunction,ComponentPad*%
%ADD17R,2.200000X2.200000*%
%TD*%
%TA.AperFunction,ComponentPad*%
%ADD18O,2.200000X2.200000*%
%TD*%
%TA.AperFunction,ComponentPad*%
%ADD19R,1.800000X1.800000*%
%TD*%
%TA.AperFunction,ComponentPad*%
%ADD20C,1.800000*%
%TD*%
%TA.AperFunction,ComponentPad*%
%ADD21C,1.508000*%
%TD*%
%TA.AperFunction,ComponentPad*%
%ADD22RoundRect,0.250000X-0.350000X-0.625000X0.350000X-0.625000X0.350000X0.625000X-0.350000X0.625000X0*%
%TD*%
%TA.AperFunction,ComponentPad*%
%ADD23O,1.200000X1.750000*%
%TD*%
%TA.AperFunction,ComponentPad*%
%ADD24C,1.500000*%
%TD*%
%TA.AperFunction,ComponentPad*%
%ADD25R,2.400000X2.400000*%
%TD*%
%TA.AperFunction,ComponentPad*%
%ADD26C,2.400000*%
%TD*%
%TA.AperFunction,ViaPad*%
%ADD27C,0.600000*%
%TD*%
%TA.AperFunction,Conductor*%
%ADD28C,1.000000*%
%TD*%
%TA.AperFunction,Conductor*%
%ADD29C,0.500000*%
%TD*%
%TA.AperFunction,Conductor*%
%ADD30C,0.800000*%
%TD*%
G04 APERTURE END LIST*
D10*
%TO.P,R5,1*%
%TO.N,+15V*%
X194137500Y-87022500D03*
D11*
%TO.P,R5,2*%
%TO.N,Net-(D11-A)*%
X186517500Y-87022500D03*
%TD*%
D12*
%TO.P,C7,1*%
%TO.N,+5V*%
X199137500Y-87522500D03*
D10*
%TO.P,C7,2*%
%TO.N,GND*%
X199137500Y-89522500D03*
%TD*%
D13*
%TO.P,Q1,1,G*%
%TO.N,Net-(D2-A)*%
X131097500Y-64967500D03*
D14*
%TO.P,Q1,2,D*%
%TO.N,Net-(Q1-D)*%
X133637500Y-64967500D03*
%TO.P,Q1,3,S*%
%TO.N,Net-(J3-Pin_1)*%
X136177500Y-64967500D03*
%TD*%
D10*
%TO.P,R6,1*%
%TO.N,+5V*%
X116600000Y-99710000D03*
D11*
%TO.P,R6,2*%
%TO.N,RESET*%
X116600000Y-92090000D03*
%TD*%
D12*
%TO.P,U1,1,LO*%
%TO.N,Net-(D3-K)*%
X138637500Y-99847500D03*
D11*
%TO.P,U1,2,COM*%
%TO.N,GND*%
X138637500Y-97307500D03*
%TO.P,U1,3,VCC*%
%TO.N,+15V*%
X138637500Y-94767500D03*
%TO.P,U1,4,NC*%
%TO.N,unconnected-(U1-NC-Pad4)*%
X138637500Y-92227500D03*
%TO.P,U1,5,VS*%
%TO.N,Net-(J3-Pin_1)*%
X138637500Y-89687500D03*
%TO.P,U1,6,VB*%
%TO.N,Net-(D1-K)*%
X138637500Y-87147500D03*
%TO.P,U1,7,HO*%
%TO.N,Net-(D2-K)*%
X138637500Y-84607500D03*
%TO.P,U1,8,NC*%
%TO.N,unconnected-(U1-NC-Pad8)*%
X131017500Y-84607500D03*
%TO.P,U1,9,VDD*%
%TO.N,+5V*%
X131017500Y-87147500D03*
%TO.P,U1,10,HIN*%
%TO.N,5*%
X131017500Y-89687500D03*
%TO.P,U1,11,SD*%
%TO.N,GND*%
X131017500Y-92227500D03*
%TO.P,U1,12,LIN*%
%TO.N,6*%
X131017500Y-94767500D03*
%TO.P,U1,13,VSS*%
%TO.N,GND*%
X131017500Y-97307500D03*
%TO.P,U1,14,NC*%
%TO.N,unconnected-(U1-NC-Pad14)*%
X131017500Y-99847500D03*
%TD*%
D12*
%TO.P,D9,1,K*%
%TO.N,Net-(D9-K)*%
X160947500Y-72522500D03*
D11*
%TO.P,D9,2,A*%
%TO.N,Net-(D7-K)*%
X153327500Y-72522500D03*
%TD*%
D12*
%TO.P,D2,1,K*%
%TO.N,Net-(D2-K)*%
X137447500Y-72522500D03*
D11*
%TO.P,D2,2,A*%
%TO.N,Net-(D2-A)*%
X129827500Y-72522500D03*
%TD*%
D13*
%TO.P,Q4,1,G*%
%TO.N,Net-(D6-K)*%
X166057500Y-65022500D03*
D14*
%TO.P,Q4,2,D*%
%TO.N,Net-(J3-Pin_2)*%
X168597500Y-65022500D03*
%TO.P,Q4,3,S*%
%TO.N,GND*%
X171137500Y-65022500D03*
%TD*%
D12*
%TO.P,D8,1,K*%
%TO.N,Net-(D8-K)*%
X172197500Y-72522500D03*
D11*
%TO.P,D8,2,A*%
%TO.N,Net-(D6-K)*%
X164577500Y-72522500D03*
%TD*%
D10*
%TO.P,C6,1*%
%TO.N,GND*%
X125900000Y-103600000D03*
%TO.P,C6,2*%
%TO.N,Net-(U4-AREF)*%
X123400000Y-103600000D03*
%TD*%
%TO.P,R1,1*%
%TO.N,Net-(D2-K)*%
X137447500Y-69522500D03*
D11*
%TO.P,R1,2*%
%TO.N,Net-(D2-A)*%
X129827500Y-69522500D03*
%TD*%
D15*
%TO.P,J3,1,Pin_1*%
%TO.N,Net-(J3-Pin_1)*%
X119200000Y-73500000D03*
D16*
%TO.P,J3,2,Pin_2*%
%TO.N,Net-(J3-Pin_2)*%
X119200000Y-76040000D03*
%TD*%
D12*
%TO.P,C1,1*%
%TO.N,Net-(D1-K)*%
X143237500Y-87267387D03*
D10*
%TO.P,C1,2*%
%TO.N,Net-(J3-Pin_1)*%
X143237500Y-89267387D03*
%TD*%
D12*
%TO.P,D7,1,K*%
%TO.N,Net-(D7-K)*%
X153387500Y-76272500D03*
D11*
%TO.P,D7,2,A*%
%TO.N,GND*%
X161007500Y-76272500D03*
%TD*%
D12*
%TO.P,D5,1,K*%
%TO.N,Net-(D3-A)*%
X141827500Y-76272500D03*
D11*
%TO.P,D5,2,A*%
%TO.N,GND*%
X149447500Y-76272500D03*
%TD*%
D17*
%TO.P,D1,1,K*%
%TO.N,Net-(D1-K)*%
X125937500Y-69142500D03*
D18*
%TO.P,D1,2,A*%
%TO.N,+15V*%
X125937500Y-79302500D03*
%TD*%
D15*
%TO.P,J1,1,Pin_1*%
%TO.N,GND*%
X189912500Y-76772500D03*
D16*
%TO.P,J1,2,Pin_2*%
%TO.N,+15V*%
X187372500Y-76772500D03*
%TD*%
D12*
%TO.P,C2,1*%
%TO.N,Net-(D10-K)*%
X168037500Y-87467387D03*
D10*
%TO.P,C2,2*%
%TO.N,Net-(J3-Pin_2)*%
X168037500Y-89467387D03*
%TD*%
D15*
%TO.P,J4,1,Pin_1*%
%TO.N,GND*%
X195862500Y-104272500D03*
D16*
%TO.P,J4,2,Pin_2*%
%TO.N,+24V*%
X198402500Y-104272500D03*
%TD*%
D13*
%TO.P,U5,1,VI*%
%TO.N,+15V*%
X180057500Y-65022500D03*
D14*
%TO.P,U5,2,GND*%
%TO.N,GND*%
X182597500Y-65022500D03*
%TO.P,U5,3,VO*%
%TO.N,+5V*%
X185137500Y-65022500D03*
%TD*%
D15*
%TO.P,J6,1,Pin_1*%
%TO.N,A2*%
X177500000Y-104200000D03*
D16*
%TO.P,J6,2,Pin_2*%
%TO.N,+5V*%
X177500000Y-101660000D03*
%TD*%
D19*
%TO.P,D12,1,K*%
%TO.N,GND*%
X188907500Y-96022500D03*
D20*
%TO.P,D12,2,A*%
%TO.N,Net-(D12-A)*%
X186367500Y-96022500D03*
%TD*%
D13*
%TO.P,U3,1,VI*%
%TO.N,+24V*%
X193097500Y-65022500D03*
D14*
%TO.P,U3,2,GND*%
%TO.N,GND*%
X195637500Y-65022500D03*
%TO.P,U3,3,VO*%
%TO.N,+15V*%
X198177500Y-65022500D03*
%TD*%
D17*
%TO.P,D10,1,K*%
%TO.N,Net-(D10-K)*%
X176437500Y-79802500D03*
D18*
%TO.P,D10,2,A*%
%TO.N,+15V*%
X176437500Y-69642500D03*
%TD*%
D15*
%TO.P,J5,1,Pin_1*%
%TO.N,GND*%
X189525000Y-104250000D03*
D16*
%TO.P,J5,2,Pin_2*%
%TO.N,A2*%
X186985000Y-104250000D03*
%TO.P,J5,3,Pin_3*%
%TO.N,2*%
X184445000Y-104250000D03*
%TD*%
D12*
%TO.P,D4,1,K*%
%TO.N,Net-(D2-A)*%
X129827500Y-76272500D03*
D11*
%TO.P,D4,2,A*%
%TO.N,GND*%
X137447500Y-76272500D03*
%TD*%
D10*
%TO.P,R7,1*%
%TO.N,+5V*%
X194137500Y-90522500D03*
D11*
%TO.P,R7,2*%
%TO.N,Net-(D12-A)*%
X186517500Y-90522500D03*
%TD*%
D10*
%TO.P,R4,1*%
%TO.N,Net-(D9-K)*%
X160947500Y-69522500D03*
D11*
%TO.P,R4,2*%
%TO.N,Net-(D7-K)*%
X153327500Y-69522500D03*
%TD*%
D12*
%TO.P,C4,1*%
%TO.N,+15V*%
X199137500Y-94522500D03*
D10*
%TO.P,C4,2*%
%TO.N,GND*%
X199137500Y-96522500D03*
%TD*%
%TO.P,R2,1*%
%TO.N,Net-(D3-K)*%
X149447500Y-69522500D03*
D11*
%TO.P,R2,2*%
%TO.N,Net-(D3-A)*%
X141827500Y-69522500D03*
%TD*%
D10*
%TO.P,C5,1*%
%TO.N,+15V*%
X193637500Y-93272500D03*
%TO.P,C5,2*%
%TO.N,GND*%
X193637500Y-98272500D03*
%TD*%
D12*
%TO.P,U2,1,LO*%
%TO.N,Net-(D8-K)*%
X162737500Y-99822500D03*
D11*
%TO.P,U2,2,COM*%
%TO.N,GND*%
X162737500Y-97282500D03*
%TO.P,U2,3,VCC*%
%TO.N,+15V*%
X162737500Y-94742500D03*
%TO.P,U2,4,NC*%
%TO.N,unconnected-(U2-NC-Pad4)*%
X162737500Y-92202500D03*
%TO.P,U2,5,VS*%
%TO.N,Net-(J3-Pin_2)*%
X162737500Y-89662500D03*
%TO.P,U2,6,VB*%
%TO.N,Net-(D10-K)*%
X162737500Y-87122500D03*
%TO.P,U2,7,HO*%
%TO.N,Net-(D9-K)*%
X162737500Y-84582500D03*
%TO.P,U2,8,NC*%
%TO.N,unconnected-(U2-NC-Pad8)*%
X155117500Y-84582500D03*
%TO.P,U2,9,VDD*%
%TO.N,+5V*%
X155117500Y-87122500D03*
%TO.P,U2,10,HIN*%
%TO.N,6*%
X155117500Y-89662500D03*
%TO.P,U2,11,SD*%
%TO.N,GND*%
X155117500Y-92202500D03*
%TO.P,U2,12,LIN*%
%TO.N,5*%
X155117500Y-94742500D03*
%TO.P,U2,13,VSS*%
%TO.N,GND*%
X155117500Y-97282500D03*
%TO.P,U2,14,NC*%
%TO.N,unconnected-(U2-NC-Pad14)*%
X155117500Y-99822500D03*
%TD*%
D21*
%TO.P,OFF/ON,1,A*%
%TO.N,Net-(Q1-D)*%
X206637500Y-88922500D03*
%TO.P,OFF/ON,2,B*%
%TO.N,+24V*%
X206637500Y-91422500D03*
%TO.P,OFF/ON,3*%
%TO.N,N/C*%
X206637500Y-93922500D03*
%TD*%
D22*
%TO.P,J7,1,Pin_1*%
%TO.N,+5V*%
X124750000Y-107450000D03*
D23*
%TO.P,J7,2,Pin_2*%
%TO.N,GND*%
X126750000Y-107450000D03*
%TO.P,J7,3,Pin_3*%
%TO.N,13{slash}SCK*%
X128750000Y-107450000D03*
%TO.P,J7,4,Pin_4*%
%TO.N,12{slash}MISO*%
X130750000Y-107450000D03*
%TO.P,J7,5,Pin_5*%
%TO.N,11{slash}MOSI*%
X132750000Y-107450000D03*
%TO.P,J7,6,Pin_6*%
%TO.N,RESET*%
X134750000Y-107450000D03*
%TD*%
D24*
%TO.P,Y1,1,1*%
%TO.N,XTAL2*%
X121150000Y-87650000D03*
%TO.P,Y1,2,2*%
%TO.N,XTAL1*%
X126050000Y-87650000D03*
%TD*%
D12*
%TO.P,D6,1,K*%
%TO.N,Net-(D6-K)*%
X164577500Y-76272500D03*
D11*
%TO.P,D6,2,A*%
%TO.N,GND*%
X172197500Y-76272500D03*
%TD*%
D10*
%TO.P,C9,1*%
%TO.N,XTAL2*%
X121150000Y-83400000D03*
%TO.P,C9,2*%
%TO.N,GND*%
X118650000Y-83400000D03*
%TD*%
%TO.P,C8,1*%
%TO.N,XTAL1*%
X126000000Y-83400000D03*
%TO.P,C8,2*%
%TO.N,GND*%
X123500000Y-83400000D03*
%TD*%
D25*
%TO.P,C3,1*%
%TO.N,+24V*%
X202387500Y-80272500D03*
D26*
%TO.P,C3,2*%
%TO.N,GND*%
X202387500Y-72772500D03*
%TD*%
D13*
%TO.P,Q3,1,G*%
%TO.N,Net-(D7-K)*%
X154597500Y-64967500D03*
D14*
%TO.P,Q3,2,D*%
%TO.N,Net-(Q1-D)*%
X157137500Y-64967500D03*
%TO.P,Q3,3,S*%
%TO.N,Net-(J3-Pin_2)*%
X159677500Y-64967500D03*
%TD*%
D19*
%TO.P,D11,1,K*%
%TO.N,GND*%
X194157500Y-83022500D03*
D20*
%TO.P,D11,2,A*%
%TO.N,Net-(D11-A)*%
X191617500Y-83022500D03*
%TD*%
D12*
%TO.P,D3,1,K*%
%TO.N,Net-(D3-K)*%
X149507500Y-72522500D03*
D11*
%TO.P,D3,2,A*%
%TO.N,Net-(D3-A)*%
X141887500Y-72522500D03*
%TD*%
D13*
%TO.P,Q2,1,G*%
%TO.N,Net-(D3-A)*%
X143097500Y-64967500D03*
D14*
%TO.P,Q2,2,D*%
%TO.N,Net-(J3-Pin_1)*%
X145637500Y-64967500D03*
%TO.P,Q2,3,S*%
%TO.N,GND*%
X148177500Y-64967500D03*
%TD*%
D15*
%TO.P,J2,1,Pin_1*%
%TO.N,GND*%
X170000000Y-104272500D03*
D16*
%TO.P,J2,2,Pin_2*%
%TO.N,+5V*%
X172540000Y-104272500D03*
%TD*%
D10*
%TO.P,R3,1*%
%TO.N,Net-(D8-K)*%
X172197500Y-69522500D03*
D11*
%TO.P,R3,2*%
%TO.N,Net-(D6-K)*%
X164577500Y-69522500D03*
%TD*%
D27*
%TO.N,GND*%
X123000000Y-93150000D03*
%TO.N,RESET*%
X127200000Y-95650000D03*
%TO.N,5*%
X121850000Y-93850000D03*
X126100000Y-90450000D03*
%TO.N,2*%
X126300000Y-96800000D03*
%TO.N,A2*%
X128400000Y-99700000D03*
%TO.N,6*%
X121700000Y-94800000D03*
%TO.N,13{slash}SCK*%
X120200000Y-100300000D03*
%TO.N,11{slash}MOSI*%
X121750000Y-98050000D03*
%TO.N,12{slash}MISO*%
X121450000Y-98850000D03*
%TD*%
D28*
%TO.N,+5V*%
X170922500Y-102122500D02*
X172540000Y-103740000D01*
X165437500Y-103822500D02*
X167137500Y-102122500D01*
X160937500Y-103822500D02*
X165437500Y-103822500D01*
X167137500Y-102122500D02*
X170922500Y-102122500D01*
X172540000Y-103740000D02*
X172540000Y-104272500D01*
X158737500Y-101622500D02*
X160937500Y-103822500D01*
%TO.N,GND*%
X130127500Y-92227500D02*
X128600000Y-90700000D01*
D29*
X123500000Y-84850000D02*
X123500000Y-83400000D01*
D28*
X128600000Y-90700000D02*
X128600000Y-83350000D01*
X131017500Y-92227500D02*
X130127500Y-92227500D01*
X126900000Y-81650000D02*
X124450000Y-81650000D01*
D29*
X123500000Y-88300000D02*
X123500000Y-83400000D01*
X118650000Y-84850000D02*
X119400000Y-85600000D01*
X123000000Y-88800000D02*
X123500000Y-88300000D01*
D28*
X124450000Y-81650000D02*
X123500000Y-82600000D01*
D29*
X122750000Y-85600000D02*
X123500000Y-84850000D01*
X119400000Y-85600000D02*
X122750000Y-85600000D01*
X123000000Y-93150000D02*
X123000000Y-88800000D01*
D28*
X123500000Y-82600000D02*
X123500000Y-83400000D01*
X128600000Y-83350000D02*
X126900000Y-81650000D01*
D29*
X118650000Y-83400000D02*
X118650000Y-84850000D01*
D28*
%TO.N,+24V*%
X202387500Y-75772500D02*
X202387500Y-80272500D01*
X204637500Y-98037500D02*
X204637500Y-92522500D01*
X204637500Y-92522500D02*
X205737500Y-91422500D01*
X198402500Y-104272500D02*
X204637500Y-98037500D01*
X202387500Y-80272500D02*
X202387500Y-87722500D01*
X206087500Y-91422500D02*
X206637500Y-91422500D01*
X198402500Y-104272500D02*
X198402500Y-104187500D01*
X193097500Y-65022500D02*
X193097500Y-66482500D01*
X193097500Y-66482500D02*
X202387500Y-75772500D01*
X202387500Y-87722500D02*
X206087500Y-91422500D01*
X205737500Y-91422500D02*
X206637500Y-91422500D01*
%TO.N,Net-(D1-K)*%
X125937500Y-69142500D02*
X125937500Y-75887500D01*
X138637500Y-87147500D02*
X143117613Y-87147500D01*
X131000000Y-78700000D02*
X136250000Y-83950000D01*
X125937500Y-75887500D02*
X128750000Y-78700000D01*
X143117613Y-87147500D02*
X143237500Y-87267387D01*
X128750000Y-78700000D02*
X131000000Y-78700000D01*
X136250000Y-86150000D02*
X137247500Y-87147500D01*
X136250000Y-83950000D02*
X136250000Y-86150000D01*
X137247500Y-87147500D02*
X138637500Y-87147500D01*
%TO.N,+5V*%
X177500000Y-101660000D02*
X175152500Y-101660000D01*
X199137500Y-77022500D02*
X199137500Y-87522500D01*
X142060000Y-102100000D02*
X149037500Y-95122500D01*
X149037500Y-91922500D02*
X153837500Y-87122500D01*
X185137500Y-65022500D02*
X187137500Y-65022500D01*
D30*
X172540000Y-104272500D02*
X172540000Y-96160000D01*
X179927500Y-88772500D02*
X192387500Y-88772500D01*
D28*
X175152500Y-101660000D02*
X172540000Y-104272500D01*
X187137500Y-65022500D02*
X199137500Y-77022500D01*
D30*
X192387500Y-88772500D02*
X194137500Y-90522500D01*
D28*
X131017500Y-87147500D02*
X133337500Y-89467500D01*
X158737500Y-89922500D02*
X158737500Y-101622500D01*
X133337500Y-92519556D02*
X134900000Y-94082056D01*
X134900000Y-94082056D02*
X134900000Y-101000000D01*
X155117500Y-87122500D02*
X155937500Y-87122500D01*
X153837500Y-87122500D02*
X155117500Y-87122500D01*
X136000000Y-102100000D02*
X142060000Y-102100000D01*
X133337500Y-89467500D02*
X133337500Y-92519556D01*
X149037500Y-95122500D02*
X149037500Y-91922500D01*
D30*
X172540000Y-96160000D02*
X179927500Y-88772500D01*
D28*
X134900000Y-101000000D02*
X136000000Y-102100000D01*
X155937500Y-87122500D02*
X158737500Y-89922500D01*
%TO.N,Net-(Q1-D)*%
X155637500Y-62522500D02*
X157137500Y-64022500D01*
X134637500Y-62522500D02*
X155637500Y-62522500D01*
X157137500Y-64022500D02*
X157137500Y-64967500D01*
X157137500Y-63062500D02*
X157137500Y-64967500D01*
X206637500Y-70322500D02*
X197237500Y-60922500D01*
X133637500Y-64967500D02*
X133637500Y-63522500D01*
X159277500Y-60922500D02*
X157137500Y-63062500D01*
X197237500Y-60922500D02*
X159277500Y-60922500D01*
X133637500Y-63522500D02*
X134637500Y-62522500D01*
X206637500Y-88922500D02*
X206637500Y-70322500D01*
%TO.N,+15V*%
X193637500Y-93272500D02*
X195387500Y-93272500D01*
X180057500Y-67202500D02*
X180057500Y-65022500D01*
X195387500Y-93272500D02*
X196637500Y-92022500D01*
X164537500Y-101922500D02*
X187372500Y-79087500D01*
X177617500Y-69642500D02*
X180057500Y-67202500D01*
X134537500Y-92022500D02*
X137282500Y-94767500D01*
X196637500Y-87022500D02*
X196637500Y-92022500D01*
X187372500Y-76772500D02*
X187372500Y-73757500D01*
X180057500Y-65022500D02*
X180057500Y-64102500D01*
X160337500Y-100622500D02*
X161637500Y-101922500D01*
X192887500Y-73772500D02*
X196637500Y-77522500D01*
X196637500Y-92022500D02*
X199137500Y-94522500D01*
X162737500Y-94742500D02*
X160337500Y-97142500D01*
X181637500Y-62522500D02*
X196637500Y-62522500D01*
X176437500Y-69642500D02*
X177617500Y-69642500D01*
X187372500Y-79087500D02*
X187372500Y-76772500D01*
X180057500Y-64102500D02*
X181637500Y-62522500D01*
X180057500Y-65022500D02*
X180057500Y-66442500D01*
X196637500Y-62522500D02*
X198177500Y-64062500D01*
X127085000Y-80450000D02*
X129900000Y-80450000D01*
X194137500Y-87022500D02*
X196637500Y-87022500D01*
X198177500Y-64062500D02*
X198177500Y-65022500D01*
X125937500Y-79302500D02*
X127085000Y-80450000D01*
X137282500Y-94767500D02*
X138637500Y-94767500D01*
X129900000Y-80450000D02*
X134537500Y-85087500D01*
X180057500Y-66442500D02*
X187372500Y-73757500D01*
X187387500Y-73772500D02*
X192887500Y-73772500D01*
X162457500Y-94742500D02*
X162737500Y-94742500D01*
X161637500Y-101922500D02*
X164537500Y-101922500D01*
X160337500Y-97142500D02*
X160337500Y-100622500D01*
X196637500Y-77522500D02*
X196637500Y-87022500D01*
X134537500Y-85087500D02*
X134537500Y-92022500D01*
%TO.N,Net-(D2-K)*%
X138637500Y-84607500D02*
X139537500Y-83707500D01*
X137447500Y-69522500D02*
X137447500Y-72522500D01*
X139537500Y-74612500D02*
X137447500Y-72522500D01*
X139537500Y-83707500D02*
X139537500Y-74612500D01*
%TO.N,Net-(D8-K)*%
X162737500Y-99822500D02*
X174037500Y-88522500D01*
X172197500Y-69522500D02*
X172197500Y-72522500D01*
X174037500Y-88522500D02*
X174037500Y-74402500D01*
X174037500Y-74402500D02*
X172197500Y-72562500D01*
X172197500Y-72562500D02*
X172197500Y-72522500D01*
%TO.N,Net-(D3-A)*%
X141887500Y-76212500D02*
X141827500Y-76272500D01*
X141887500Y-72522500D02*
X141887500Y-76212500D01*
X141827500Y-72712500D02*
X141887500Y-72772500D01*
X141827500Y-72462500D02*
X141887500Y-72522500D01*
X141827500Y-69522500D02*
X141827500Y-72462500D01*
X143097500Y-64967500D02*
X143097500Y-68252500D01*
X143097500Y-68252500D02*
X141827500Y-69522500D01*
%TO.N,Net-(D9-K)*%
X160947500Y-69522500D02*
X160947500Y-72522500D01*
X162737500Y-84582500D02*
X162737500Y-74312500D01*
X162737500Y-74312500D02*
X160947500Y-72522500D01*
%TO.N,Net-(D10-K)*%
X167692613Y-87122500D02*
X162737500Y-87122500D01*
X168037500Y-87467387D02*
X167692613Y-87122500D01*
%TO.N,Net-(J3-Pin_1)*%
X143237500Y-89422500D02*
X142937500Y-89722500D01*
X143237500Y-89422500D02*
X142972500Y-89687500D01*
X145637500Y-64967500D02*
X145637500Y-87867387D01*
X144237500Y-89267387D02*
X143237500Y-89267387D01*
X143237500Y-89267387D02*
X143237500Y-89422500D01*
X145637500Y-87867387D02*
X144237500Y-89267387D01*
X142972500Y-89687500D02*
X138637500Y-89687500D01*
%TO.N,Net-(J3-Pin_2)*%
X168597500Y-63982500D02*
X167137500Y-62522500D01*
X167137500Y-62522500D02*
X161137500Y-62522500D01*
X169292613Y-89467387D02*
X168037500Y-89467387D01*
X162777500Y-89622500D02*
X162737500Y-89662500D01*
X168597500Y-83182500D02*
X170537500Y-85122500D01*
X168037500Y-89467387D02*
X167882387Y-89622500D01*
X159677500Y-63982500D02*
X159677500Y-64967500D01*
X170537500Y-88222500D02*
X169292613Y-89467387D01*
X167882387Y-89622500D02*
X162777500Y-89622500D01*
X168597500Y-65022500D02*
X168597500Y-83182500D01*
X170537500Y-85122500D02*
X170537500Y-88222500D01*
X168597500Y-65022500D02*
X168597500Y-63982500D01*
X161137500Y-62522500D02*
X159677500Y-63982500D01*
%TO.N,Net-(D2-A)*%
X131097500Y-68252500D02*
X129827500Y-69522500D01*
X131097500Y-64967500D02*
X131097500Y-68252500D01*
X129827500Y-69522500D02*
X129827500Y-72522500D01*
X129827500Y-76272500D02*
X129827500Y-72522500D01*
%TO.N,Net-(D3-K)*%
X149447500Y-72712500D02*
X149507500Y-72772500D01*
X149447500Y-69522500D02*
X149447500Y-72462500D01*
X138637500Y-99847500D02*
X139412500Y-99847500D01*
X147137500Y-89322500D02*
X147137500Y-74892500D01*
X141137500Y-95322500D02*
X147137500Y-89322500D01*
X149447500Y-72462500D02*
X149507500Y-72522500D01*
X139412500Y-99847500D02*
X141137500Y-98122500D01*
X147137500Y-74892500D02*
X149507500Y-72522500D01*
X141137500Y-98122500D02*
X141137500Y-95322500D01*
%TO.N,Net-(D6-K)*%
X166057500Y-68042500D02*
X164577500Y-69522500D01*
X164577500Y-76272500D02*
X164577500Y-72522500D01*
X164577500Y-69522500D02*
X164577500Y-72522500D01*
X166057500Y-65022500D02*
X166057500Y-68042500D01*
%TO.N,Net-(D7-K)*%
X153327500Y-72522500D02*
X153327500Y-76212500D01*
X154597500Y-64967500D02*
X154597500Y-68252500D01*
X154597500Y-68252500D02*
X153327500Y-69522500D01*
X153327500Y-76212500D02*
X153387500Y-76272500D01*
X153327500Y-69522500D02*
X153327500Y-72522500D01*
%TO.N,Net-(D11-A)*%
X190517500Y-83022500D02*
X186517500Y-87022500D01*
X191617500Y-83022500D02*
X190517500Y-83022500D01*
%TO.N,Net-(D12-A)*%
X186367500Y-96022500D02*
X186367500Y-90562500D01*
X186367500Y-90562500D02*
X186327500Y-90522500D01*
D29*
%TO.N,RESET*%
X121489339Y-95650000D02*
X120689339Y-94850000D01*
X116600000Y-93350000D02*
X116600000Y-92090000D01*
X118100000Y-94850000D02*
X116600000Y-93350000D01*
X127200000Y-95650000D02*
X121489339Y-95650000D01*
X120689339Y-94850000D02*
X118100000Y-94850000D01*
%TO.N,5*%
X126050000Y-90450000D02*
X123850000Y-92650000D01*
X123850000Y-92650000D02*
X123850000Y-93360661D01*
X121900000Y-93900000D02*
X121850000Y-93850000D01*
X123850000Y-93360661D02*
X123310661Y-93900000D01*
X126100000Y-90450000D02*
X126050000Y-90450000D01*
X123310661Y-93900000D02*
X121900000Y-93900000D01*
%TO.N,2*%
X126300000Y-99465075D02*
X126300000Y-96800000D01*
X181350000Y-107400000D02*
X137650000Y-107400000D01*
X184450000Y-104300000D02*
X181350000Y-107400000D01*
X130584925Y-103750000D02*
X126300000Y-99465075D01*
X184540000Y-104300000D02*
X184450000Y-104300000D01*
X132000000Y-103750000D02*
X130584925Y-103750000D01*
X135750000Y-105500000D02*
X133750000Y-105500000D01*
X133750000Y-105500000D02*
X132000000Y-103750000D01*
X137650000Y-107400000D02*
X135750000Y-105500000D01*
%TO.N,A2*%
X128400000Y-100240200D02*
X128400000Y-99700000D01*
X132389950Y-102800000D02*
X130959800Y-102800000D01*
X136046448Y-104400000D02*
X133989950Y-104400000D01*
X174900000Y-106500000D02*
X138146448Y-106500000D01*
D28*
X186000000Y-102250000D02*
X181750000Y-102250000D01*
D29*
X177200000Y-104200000D02*
X174900000Y-106500000D01*
D28*
X181750000Y-102250000D02*
X179800000Y-104200000D01*
X179800000Y-104200000D02*
X177500000Y-104200000D01*
D29*
X130959800Y-102800000D02*
X128400000Y-100240200D01*
D28*
X186985000Y-103235000D02*
X186000000Y-102250000D01*
X186985000Y-104250000D02*
X186985000Y-103235000D01*
D29*
X138146448Y-106500000D02*
X136046448Y-104400000D01*
X133989950Y-104400000D02*
X132389950Y-102800000D01*
X177500000Y-104200000D02*
X177200000Y-104200000D01*
%TO.N,6*%
X121732500Y-94767500D02*
X131017500Y-94767500D01*
D28*
X135400000Y-103400000D02*
X143600000Y-103400000D01*
X151337500Y-93442500D02*
X155117500Y-89662500D01*
X133600000Y-101600000D02*
X135400000Y-103400000D01*
X131017500Y-94767500D02*
X133600000Y-97350000D01*
X143600000Y-103400000D02*
X151337500Y-95662500D01*
X133600000Y-97350000D02*
X133600000Y-101600000D01*
X151337500Y-95662500D02*
X151337500Y-93442500D01*
D29*
X121700000Y-94800000D02*
X121732500Y-94767500D01*
%TO.N,13{slash}SCK*%
X122575000Y-105250000D02*
X127500000Y-105250000D01*
X121350000Y-104025000D02*
X122575000Y-105250000D01*
X128750000Y-106500000D02*
X128750000Y-107450000D01*
X121350000Y-101450000D02*
X121350000Y-104025000D01*
X120200000Y-100300000D02*
X121350000Y-101450000D01*
X127500000Y-105250000D02*
X128750000Y-106500000D01*
%TO.N,11{slash}MOSI*%
X121750000Y-98050000D02*
X123550000Y-98050000D01*
X132750000Y-106075000D02*
X132750000Y-107450000D01*
X123550000Y-98050000D02*
X130250000Y-104750000D01*
X130250000Y-104750000D02*
X131425000Y-104750000D01*
X131425000Y-104750000D02*
X132750000Y-106075000D01*
%TO.N,12{slash}MISO*%
X130750000Y-106550000D02*
X130750000Y-107450000D01*
X121450000Y-98850000D02*
X123050000Y-98850000D01*
X123050000Y-98850000D02*
X130750000Y-106550000D01*
%TD*%
%TA.AperFunction,Conductor*%
%TO.N,+5V*%
G36*
X158529756Y-60042685D02*
G01*
X158575511Y-60095489D01*
X158585455Y-60164647D01*
X158556430Y-60228203D01*
X158550398Y-60234681D01*
X158500358Y-60284721D01*
X156745180Y-62039898D01*
X156737234Y-62044236D01*
X156731809Y-62051484D01*
X156707049Y-62060718D01*
X156683857Y-62073383D01*
X156674827Y-62072737D01*
X156666345Y-62075901D01*
X156640524Y-62070284D01*
X156614165Y-62068399D01*
X156605111Y-62062580D01*
X156598072Y-62061049D01*
X156569820Y-62039899D01*
X156421708Y-61891788D01*
X156421706Y-61891785D01*
X156421706Y-61891786D01*
X156414639Y-61884719D01*
X156414639Y-61884718D01*
X156275282Y-61745361D01*
X156275281Y-61745360D01*
X156275280Y-61745359D01*
X156111420Y-61635871D01*
X156111411Y-61635866D01*
X156038815Y-61605796D01*
X155982665Y-61582538D01*
X155929336Y-61560449D01*
X155929332Y-61560448D01*
X155929328Y-61560446D01*
X155832688Y-61541224D01*
X155736044Y-61522000D01*
X155736041Y-61522000D01*
X134742175Y-61522000D01*
X134742155Y-61521999D01*
X134736041Y-61521999D01*
X134538960Y-61521999D01*
X134538957Y-61521999D01*
X134345672Y-61560446D01*
X134345664Y-61560448D01*
X134163588Y-61635866D01*
X134163579Y-61635871D01*
X133999719Y-61745359D01*
X133999715Y-61745362D01*
X133223764Y-62521315D01*
X132999720Y-62745359D01*
X132999718Y-62745361D01*
X132945323Y-62799756D01*
X132860359Y-62884719D01*
X132750871Y-63048579D01*
X132750864Y-63048592D01*
X132675450Y-63230660D01*
X132675447Y-63230670D01*
X132637000Y-63423956D01*
X132637000Y-63543908D01*
X132617315Y-63610947D01*
X132564511Y-63656702D01*
X132495353Y-63666646D01*
X132431797Y-63637621D01*
X132413735Y-63618221D01*
X132407546Y-63609954D01*
X132407544Y-63609952D01*
X132292335Y-63523706D01*
X132292328Y-63523702D01*
X132157482Y-63473408D01*
X132157483Y-63473408D01*
X132097883Y-63467001D01*
X132097881Y-63467000D01*
X132097873Y-63467000D01*
X132097864Y-63467000D01*
X130097129Y-63467000D01*
X130097123Y-63467001D01*
X130037516Y-63473408D01*
X129902671Y-63523702D01*
X129902664Y-63523706D01*
X129787455Y-63609952D01*
X129787452Y-63609955D01*
X129701206Y-63725164D01*
X129701202Y-63725171D01*
X129650908Y-63860017D01*
X129644501Y-63919616D01*
X129644500Y-63919635D01*
X129644500Y-66015370D01*
X129644501Y-66015376D01*
X129650908Y-66074983D01*
X129701202Y-66209828D01*
X129701206Y-66209835D01*
X129787452Y-66325044D01*
X129787455Y-66325047D01*
X129902664Y-66411293D01*
X129902671Y-66411297D01*
X130016333Y-66453690D01*
X130072267Y-66495561D01*
X130096684Y-66561025D01*
X130097000Y-66569872D01*
X130097000Y-67786717D01*
X130077315Y-67853756D01*
X130060681Y-67874398D01*
X129739297Y-68195781D01*
X129677974Y-68229266D01*
X129671015Y-68230573D01*
X129522968Y-68254022D01*
X129328278Y-68317281D01*
X129145886Y-68410215D01*
X128980286Y-68530528D01*
X128835528Y-68675286D01*
X128715215Y-68840886D01*
X128622281Y-69023276D01*
X128559022Y-69217965D01*
X128527000Y-69420148D01*
X128527000Y-69624851D01*
X128559022Y-69827034D01*
X128622281Y-70021723D01*
X128715213Y-70204110D01*
X128803319Y-70325377D01*
X128826798Y-70391181D01*
X128827000Y-70398261D01*
X128827000Y-71646737D01*
X128807315Y-71713776D01*
X128803318Y-71719622D01*
X128715215Y-71840886D01*
X128622281Y-72023276D01*
X128559022Y-72217965D01*
X128528976Y-72407671D01*
X128527000Y-72420148D01*
X128527000Y-72624852D01*
X128550306Y-72772000D01*
X128559023Y-72827034D01*
X128559022Y-72827034D01*
X128622281Y-73021723D01*
X128715213Y-73204110D01*
X128803319Y-73325377D01*
X128826798Y-73391181D01*
X128827000Y-73398261D01*
X128827000Y-74935319D01*
X128807315Y-75002358D01*
X128777312Y-75034585D01*
X128669952Y-75114955D01*
X128583706Y-75230164D01*
X128583702Y-75230171D01*
X128533408Y-75365017D01*
X128527313Y-75421717D01*
X128527001Y-75424623D01*
X128527000Y-75424635D01*
X128527000Y-76762717D01*
X128507315Y-76829756D01*
X128454511Y-76875511D01*
X128385353Y-76885455D01*
X128321797Y-76856430D01*
X128315319Y-76850398D01*
X126974319Y-75509398D01*
X126940834Y-75448075D01*
X126938000Y-75421717D01*
X126938000Y-70866999D01*
X126957685Y-70799960D01*
X127010489Y-70754205D01*
X127062000Y-70742999D01*
X127085371Y-70742999D01*
X127085372Y-70742999D01*
X127144983Y-70736591D01*
X127279831Y-70686296D01*
X127395046Y-70600046D01*
X127481296Y-70484831D01*
X127531591Y-70349983D01*
X127538000Y-70290373D01*
X127537999Y-67994628D01*
X127531591Y-67935017D01*
X127481296Y-67800169D01*
X127481295Y-67800168D01*
X127481293Y-67800164D01*
X127395047Y-67684955D01*
X127395044Y-67684952D01*
X127279835Y-67598706D01*
X127279828Y-67598702D01*
X127144982Y-67548408D01*
X127144983Y-67548408D01*
X127085383Y-67542001D01*
X127085381Y-67542000D01*
X127085373Y-67542000D01*
X127085364Y-67542000D01*
X124789629Y-67542000D01*
X124789623Y-67542001D01*
X124730016Y-67548408D01*
X124595171Y-67598702D01*
X124595164Y-67598706D01*
X124479955Y-67684952D01*
X124479952Y-67684955D01*
X124393706Y-67800164D01*
X124393702Y-67800171D01*
X124343408Y-67935017D01*
X124337001Y-67994616D01*
X124337001Y-67994623D01*
X124337000Y-67994635D01*
X124337000Y-70290370D01*
X124337001Y-70290376D01*
X124343408Y-70349983D01*
X124393702Y-70484828D01*
X124393706Y-70484835D01*
X124479952Y-70600044D01*
X124479955Y-70600047D01*
X124595164Y-70686293D01*
X124595171Y-70686297D01*
X124633523Y-70700601D01*
X124730017Y-70736591D01*
X124789627Y-70743000D01*
X124812997Y-70742999D01*
X124880036Y-70762681D01*
X124925792Y-70815483D01*
X124937000Y-70866999D01*
X124937000Y-75986044D01*
X124973618Y-76170137D01*
X124975447Y-76179330D01*
X124975451Y-76179342D01*
X125050864Y-76361407D01*
X125050871Y-76361420D01*
X125160359Y-76525280D01*
X125160360Y-76525281D01*
X125160361Y-76525282D01*
X125299718Y-76664639D01*
X125299719Y-76664639D01*
X125306786Y-76671706D01*
X125306785Y-76671706D01*
X125306789Y-76671709D01*
X126125398Y-77490319D01*
X126158883Y-77551642D01*
X126153899Y-77621334D01*
X126112027Y-77677267D01*
X126046563Y-77701684D01*
X126037717Y-77702000D01*
X125811538Y-77702000D01*
X125705948Y-77718724D01*
X125562714Y-77741410D01*
X125323116Y-77819260D01*
X125098651Y-77933632D01*
X124894850Y-78081701D01*
X124894845Y-78081705D01*
X124716705Y-78259845D01*
X124716701Y-78259850D01*
X124568632Y-78463651D01*
X124454260Y-78688116D01*
X124376410Y-78927714D01*
X124337000Y-79176538D01*
X124337000Y-79428461D01*
X124376410Y-79677285D01*
X124454260Y-79916883D01*
X124568632Y-80141348D01*
X124716701Y-80345149D01*
X124716705Y-80345154D01*
X124809370Y-80437819D01*
X124842855Y-80499142D01*
X124837871Y-80568834D01*
X124795999Y-80624767D01*
X124730535Y-80649184D01*
X124721689Y-80649500D01*
X124351455Y-80649500D01*
X124254812Y-80668724D01*
X124158167Y-80687947D01*
X124158161Y-80687949D01*
X124104834Y-80710037D01*
X124104834Y-80710038D01*
X124059315Y-80728892D01*
X123976089Y-80763366D01*
X123976079Y-80763371D01*
X123812219Y-80872859D01*
X123742540Y-80942538D01*
X123672861Y-81012218D01*
X123672858Y-81012221D01*
X122862221Y-81822858D01*
X122862218Y-81822861D01*
X122804915Y-81880164D01*
X122722859Y-81962219D01*
X122613371Y-82126080D01*
X122613364Y-82126093D01*
X122574282Y-82220449D01*
X122546105Y-82288475D01*
X122546104Y-82288479D01*
X122537948Y-82308167D01*
X122537947Y-82308171D01*
X122499500Y-82501454D01*
X122499500Y-82524237D01*
X122493504Y-82544656D01*
X122492289Y-82565907D01*
X122480959Y-82587379D01*
X122479815Y-82591276D01*
X122475818Y-82597123D01*
X122425318Y-82666630D01*
X122369988Y-82709295D01*
X122300375Y-82715274D01*
X122238580Y-82682668D01*
X122224682Y-82666629D01*
X122141971Y-82552787D01*
X122141967Y-82552782D01*
X121997213Y-82408028D01*
X121831613Y-82287715D01*
X121831612Y-82287714D01*
X121831610Y-82287713D01*
X121748488Y-82245360D01*
X121649223Y-82194781D01*
X121454534Y-82131522D01*
X121279995Y-82103878D01*
X121252352Y-82099500D01*
X121047648Y-82099500D01*
X121023329Y-82103351D01*
X120845465Y-82131522D01*
X120650776Y-82194781D01*
X120468386Y-82287715D01*
X120302786Y-82408028D01*
X120158028Y-82552786D01*
X120037713Y-82718388D01*
X120010484Y-82771828D01*
X119962510Y-82822623D01*
X119894688Y-82839418D01*
X119828554Y-82816880D01*
X119789516Y-82771828D01*
X119762286Y-82718388D01*
X119641971Y-82552786D01*
X119497213Y-82408028D01*
X119331613Y-82287715D01*
X119331612Y-82287714D01*
X119331610Y-82287713D01*
X119248488Y-82245360D01*
X119149223Y-82194781D01*
X118954534Y-82131522D01*
X118779995Y-82103878D01*
X118752352Y-82099500D01*
X118547648Y-82099500D01*
X118523329Y-82103351D01*
X118345465Y-82131522D01*
X118150776Y-82194781D01*
X117968386Y-82287715D01*
X117802786Y-82408028D01*
X117658028Y-82552786D01*
X117537715Y-82718386D01*
X117444781Y-82900776D01*
X117381522Y-83095465D01*
X117349500Y-83297648D01*
X117349500Y-83502351D01*
X117381522Y-83704534D01*
X117444781Y-83899223D01*
X117507850Y-84023000D01*
X117533048Y-84072455D01*
X117537715Y-84081613D01*
X117658028Y-84247213D01*
X117658034Y-84247219D01*
X117802781Y-84391966D01*
X117848384Y-84425098D01*
X117891050Y-84480425D01*
X117899500Y-84525416D01*
X117899500Y-84923918D01*
X117899500Y-84923920D01*
X117899499Y-84923920D01*
X117928340Y-85068907D01*
X117928343Y-85068917D01*
X117984913Y-85205490D01*
X117984914Y-85205491D01*
X117984916Y-85205495D01*
X117995303Y-85221040D01*
X118025646Y-85266453D01*
X118067051Y-85328420D01*
X118067052Y-85328421D01*
X118817049Y-86078416D01*
X118873438Y-86134805D01*
X118921585Y-86182952D01*
X119044498Y-86265080D01*
X119044511Y-86265087D01*
X119181082Y-86321656D01*
X119181087Y-86321658D01*
X119181091Y-86321658D01*
X119181092Y-86321659D01*
X119326079Y-86350500D01*
X119326082Y-86350500D01*
X120430211Y-86350500D01*
X120497250Y-86370185D01*
X120543005Y-86422989D01*
X120552949Y-86492147D01*
X120523924Y-86555703D01*
X120498364Y-86577374D01*
X120498537Y-86577612D01*
X120495370Y-86579912D01*
X120494995Y-86580231D01*
X120494594Y-86580476D01*
X120435686Y-86623276D01*
X120335354Y-86696172D01*
X120335352Y-86696174D01*
X120335351Y-86696174D01*
X120196174Y-86835351D01*
X120196174Y-86835352D01*
X120196172Y-86835354D01*
X120183409Y-86852921D01*
X120080476Y-86994594D01*
X119991117Y-87169970D01*
X119930290Y-87357173D01*
X119899500Y-87551577D01*
X119899500Y-87748422D01*
X119930290Y-87942826D01*
X119991117Y-88130029D01*
X120059888Y-88264999D01*
X120080476Y-88305405D01*
X120196172Y-88464646D01*
X120335354Y-88603828D01*
X120494595Y-88719524D01*
X120577455Y-88761743D01*
X120669970Y-88808882D01*
X120669972Y-88808882D01*
X120669975Y-88808884D01*
X120766620Y-88840286D01*
X120857173Y-88869709D01*
X121051578Y-88900500D01*
X121051583Y-88900500D01*
X121248422Y-88900500D01*
X121442826Y-88869709D01*
X121471845Y-88860280D01*
X121630025Y-88808884D01*
X121805405Y-88719524D01*
X121964646Y-88603828D01*
X122061543Y-88506930D01*
X122122862Y-88473448D01*
X122192554Y-88478432D01*
X122248488Y-88520303D01*
X122272905Y-88585767D01*
X122270838Y-88618805D01*
X122249500Y-88726077D01*
X122249500Y-92845396D01*
X122245311Y-92877355D01*
X122243199Y-92885271D01*
X122230263Y-92916503D01*
X122216757Y-92984397D01*
X122215727Y-92988262D01*
X122199564Y-93014845D01*
X122185147Y-93042406D01*
X122181568Y-93044443D01*
X122179429Y-93047963D01*
X122151463Y-93061586D01*
X122124431Y-93076980D01*
X122119691Y-93077064D01*
X122116616Y-93078563D01*
X122106021Y-93077308D01*
X122071725Y-93077920D01*
X121928846Y-93049500D01*
X121928842Y-93049500D01*
X121771158Y-93049500D01*
X121771155Y-93049500D01*
X121616510Y-93080261D01*
X121616498Y-93080264D01*
X121470827Y-93140602D01*
X121470814Y-93140609D01*
X121339711Y-93228210D01*
X121339707Y-93228213D01*
X121228213Y-93339707D01*
X121228210Y-93339711D01*
X121140609Y-93470814D01*
X121140602Y-93470827D01*
X121080264Y-93616498D01*
X121080261Y-93616510D01*
X121049500Y-93771153D01*
X121049500Y-93928846D01*
X121060440Y-93983844D01*
X121054213Y-94053435D01*
X121011350Y-94108613D01*
X120945460Y-94131857D01*
X120914502Y-94128139D01*
X120914226Y-94129530D01*
X120763259Y-94099500D01*
X120763257Y-94099500D01*
X118462229Y-94099500D01*
X118395190Y-94079815D01*
X118374548Y-94063181D01*
X117507957Y-93196590D01*
X117474472Y-93135267D01*
X117479456Y-93065575D01*
X117507957Y-93021228D01*
X117540923Y-92988262D01*
X117591966Y-92937219D01*
X117591968Y-92937215D01*
X117591971Y-92937213D01*
X117688232Y-92804719D01*
X117712287Y-92771610D01*
X117805220Y-92589219D01*
X117868477Y-92394534D01*
X117900500Y-92192352D01*
X117900500Y-91987648D01*
X117868477Y-91785466D01*
X117855446Y-91745362D01*
X117836851Y-91688132D01*
X117805220Y-91590781D01*
X117805218Y-91590778D01*
X117805218Y-91590776D01*
X117756676Y-91495508D01*
X117712287Y-91408390D01*
X117698032Y-91388769D01*
X117591971Y-91242786D01*
X117447213Y-91098028D01*
X117281613Y-90977715D01*
X117281612Y-90977714D01*
X117281610Y-90977713D01*
X117189886Y-90930977D01*
X117099223Y-90884781D01*
X116904534Y-90821522D01*
X116711677Y-90790977D01*
X116702352Y-90789500D01*
X116497648Y-90789500D01*
X116488323Y-90790977D01*
X116295465Y-90821522D01*
X116100776Y-90884781D01*
X115918386Y-90977715D01*
X115752786Y-91098028D01*
X115608028Y-91242786D01*
X115487715Y-91408386D01*
X115394781Y-91590776D01*
X115331522Y-91785465D01*
X115299500Y-91987648D01*
X115299500Y-92192351D01*
X115331522Y-92394534D01*
X115394781Y-92589223D01*
X115437214Y-92672500D01*
X115469064Y-92735010D01*
X115487715Y-92771613D01*
X115608028Y-92937213D01*
X115608034Y-92937219D01*
X115752781Y-93081966D01*
X115798384Y-93115098D01*
X115841050Y-93170425D01*
X115849500Y-93215416D01*
X115849500Y-93423918D01*
X115849500Y-93423920D01*
X115849499Y-93423920D01*
X115878340Y-93568907D01*
X115878343Y-93568917D01*
X115934912Y-93705488D01*
X115934916Y-93705495D01*
X115954185Y-93734333D01*
X115954186Y-93734336D01*
X115954187Y-93734336D01*
X115984997Y-93780448D01*
X116017051Y-93828420D01*
X116017052Y-93828421D01*
X117178965Y-94990332D01*
X117517048Y-95328415D01*
X117517049Y-95328416D01*
X117590788Y-95402155D01*
X117621585Y-95432952D01*
X117744498Y-95515080D01*
X117744511Y-95515087D01*
X117879880Y-95571158D01*
X117881087Y-95571658D01*
X117881091Y-95571658D01*
X117881092Y-95571659D01*
X118026079Y-95600500D01*
X118026082Y-95600500D01*
X120327109Y-95600500D01*
X120394148Y-95620185D01*
X120414790Y-95636819D01*
X121010925Y-96232954D01*
X121037745Y-96250873D01*
X121051156Y-96259834D01*
X121133844Y-96315084D01*
X121133845Y-96315084D01*
X121133846Y-96315085D01*
X121255226Y-96365362D01*
X121270426Y-96371658D01*
X121270430Y-96371658D01*
X121270431Y-96371659D01*
X121415418Y-96400500D01*
X121415421Y-96400500D01*
X121415422Y-96400500D01*
X121563257Y-96400500D01*
X125413445Y-96400500D01*
X125480484Y-96420185D01*
X125526239Y-96472989D01*
X125536183Y-96542147D01*
X125531159Y-96560411D01*
X125532031Y-96560676D01*
X125530261Y-96566510D01*
X125499500Y-96721153D01*
X125499500Y-96878846D01*
X125530261Y-97033489D01*
X125530263Y-97033497D01*
X125540061Y-97057151D01*
X125549500Y-97104604D01*
X125549500Y-98688770D01*
X125529815Y-98755809D01*
X125477011Y-98801564D01*
X125407853Y-98811508D01*
X125344297Y-98782483D01*
X125337819Y-98776451D01*
X124028417Y-97467049D01*
X124009866Y-97454654D01*
X123937956Y-97406606D01*
X123905495Y-97384916D01*
X123905493Y-97384915D01*
X123905490Y-97384913D01*
X123768917Y-97328343D01*
X123768907Y-97328340D01*
X123623920Y-97299500D01*
X123623918Y-97299500D01*
X122054604Y-97299500D01*
X122007155Y-97290062D01*
X121983497Y-97280263D01*
X121983493Y-97280262D01*
X121983488Y-97280260D01*
X121828845Y-97249500D01*
X121828842Y-97249500D01*
X121671158Y-97249500D01*
X121671155Y-97249500D01*
X121516510Y-97280261D01*
X121516498Y-97280264D01*
X121370827Y-97340602D01*
X121370814Y-97340609D01*
X121239711Y-97428210D01*
X121239707Y-97428213D01*
X121128213Y-97539707D01*
X121128210Y-97539711D01*
X121040609Y-97670814D01*
X121040602Y-97670827D01*
X120980264Y-97816498D01*
X120980261Y-97816510D01*
X120949500Y-97971153D01*
X120949500Y-98128842D01*
X120951432Y-98138556D01*
X120945203Y-98208148D01*
X120917495Y-98250426D01*
X120828213Y-98339707D01*
X120828210Y-98339711D01*
X120740609Y-98470814D01*
X120740602Y-98470827D01*
X120680264Y-98616498D01*
X120680261Y-98616510D01*
X120649500Y-98771153D01*
X120649500Y-98928846D01*
X120680261Y-99083489D01*
X120680264Y-99083501D01*
X120740602Y-99229172D01*
X120740609Y-99229185D01*
X120828210Y-99360288D01*
X120828213Y-99360292D01*
X120939707Y-99471786D01*
X120939711Y-99471789D01*
X121070814Y-99559390D01*
X121070827Y-99559397D01*
X121146181Y-99590609D01*
X121216503Y-99619737D01*
X121371153Y-99650499D01*
X121371156Y-99650500D01*
X121371158Y-99650500D01*
X121528844Y-99650500D01*
X121528845Y-99650499D01*
X121605152Y-99635320D01*
X121683488Y-99619739D01*
X121683489Y-99619738D01*
X121683497Y-99619737D01*
X121707155Y-99609937D01*
X121754604Y-99600500D01*
X122687770Y-99600500D01*
X122754809Y-99620185D01*
X122775451Y-99636819D01*
X124110217Y-100971585D01*
X125367961Y-102229328D01*
X125401446Y-102290651D01*
X125396462Y-102360343D01*
X125354590Y-102416276D01*
X125336575Y-102427493D01*
X125218391Y-102487711D01*
X125218389Y-102487712D01*
X125052786Y-102608028D01*
X124908028Y-102752786D01*
X124787713Y-102918388D01*
X124760484Y-102971828D01*
X124712510Y-103022623D01*
X124644688Y-103039418D01*
X124578554Y-103016880D01*
X124539516Y-102971828D01*
X124512286Y-102918388D01*
X124391971Y-102752786D01*
X124247213Y-102608028D01*
X124081613Y-102487715D01*
X124081612Y-102487714D01*
X124081610Y-102487713D01*
X124023020Y-102457860D01*
X123899223Y-102394781D01*
X123704534Y-102331522D01*
X123529995Y-102303878D01*
X123502352Y-102299500D01*
X123297648Y-102299500D01*
X123273329Y-102303351D01*
X123095465Y-102331522D01*
X122900776Y-102394781D01*
X122718386Y-102487715D01*
X122552786Y-102608028D01*
X122408032Y-102752782D01*
X122408028Y-102752787D01*
X122324818Y-102867317D01*
X122269488Y-102909983D01*
X122199875Y-102915962D01*
X122138080Y-102883356D01*
X122103723Y-102822518D01*
X122100500Y-102794432D01*
X122100500Y-101376080D01*
X122086990Y-101308164D01*
X122082969Y-101287949D01*
X122071659Y-101231088D01*
X122026887Y-101123000D01*
X122022387Y-101112137D01*
X122015087Y-101094511D01*
X122015080Y-101094498D01*
X121932952Y-100971585D01*
X121883156Y-100921789D01*
X121828416Y-100867049D01*
X120946071Y-99984703D01*
X120919191Y-99944475D01*
X120909394Y-99920821D01*
X120882828Y-99881062D01*
X120821789Y-99789710D01*
X120710292Y-99678213D01*
X120710288Y-99678210D01*
X120579185Y-99590609D01*
X120579172Y-99590602D01*
X120433501Y-99530264D01*
X120433489Y-99530261D01*
X120278845Y-99499500D01*
X120278842Y-99499500D01*
X120121158Y-99499500D01*
X120121155Y-99499500D01*
X119966510Y-99530261D01*
X119966498Y-99530264D01*
X119820827Y-99590602D01*
X119820814Y-99590609D01*
X119689711Y-99678210D01*
X119689707Y-99678213D01*
X119578213Y-99789707D01*
X119578210Y-99789711D01*
X119490609Y-99920814D01*
X119490602Y-99920827D01*
X119430264Y-100066498D01*
X119430261Y-100066510D01*
X119399500Y-100221153D01*
X119399500Y-100378846D01*
X119430261Y-100533489D01*
X119430264Y-100533501D01*
X119490602Y-100679172D01*
X119490609Y-100679185D01*
X119578210Y-100810288D01*
X119578213Y-100810292D01*
X119689710Y-100921789D01*
X119814311Y-101005044D01*
X119820821Y-101009394D01*
X119844475Y-101019191D01*
X119884703Y-101046071D01*
X120563181Y-101724548D01*
X120596666Y-101785871D01*
X120599500Y-101812229D01*
X120599500Y-104098918D01*
X120599500Y-104098920D01*
X120599499Y-104098920D01*
X120628340Y-104243907D01*
X120628343Y-104243917D01*
X120684913Y-104380490D01*
X120684914Y-104380491D01*
X120684916Y-104380495D01*
X120698282Y-104400498D01*
X120698283Y-104400501D01*
X120767046Y-104503414D01*
X120767052Y-104503421D01*
X122096579Y-105832947D01*
X122096582Y-105832950D01*
X122131212Y-105856089D01*
X122131211Y-105856089D01*
X122219502Y-105915083D01*
X122219506Y-105915085D01*
X122269665Y-105935861D01*
X122276080Y-105938518D01*
X122356088Y-105971659D01*
X122472241Y-105994763D01*
X122495380Y-105999365D01*
X122501081Y-106000500D01*
X122501082Y-106000500D01*
X122501083Y-106000500D01*
X122648918Y-106000500D01*
X126114529Y-106000500D01*
X126181568Y-106020185D01*
X126227323Y-106072989D01*
X126237267Y-106142147D01*
X126208242Y-106205703D01*
X126176801Y-106230305D01*
X126177364Y-106231223D01*
X126173218Y-106233763D01*
X126150182Y-106250500D01*
X126033072Y-106335586D01*
X126033070Y-106335588D01*
X126033069Y-106335588D01*
X125910588Y-106458069D01*
X125910588Y-106458070D01*
X125910586Y-106458072D01*
X125910582Y-106458078D01*
X125808768Y-106598211D01*
X125730128Y-106752552D01*
X125676597Y-106917302D01*
X125649500Y-107088389D01*
X125649500Y-107811610D01*
X125674999Y-107972610D01*
X125676598Y-107982701D01*
X125730127Y-108147445D01*
X125808768Y-108301788D01*
X125910586Y-108441928D01*
X126033072Y-108564414D01*
X126173212Y-108666232D01*
X126327555Y-108744873D01*
X126435877Y-108780069D01*
X126493553Y-108819507D01*
X126520751Y-108883865D01*
X126508836Y-108952712D01*
X126461592Y-109004187D01*
X126397559Y-109022000D01*
X119140206Y-109022000D01*
X119134797Y-109021882D01*
X118750749Y-109005114D01*
X118739973Y-109004171D01*
X118361542Y-108954349D01*
X118350889Y-108952471D01*
X117978227Y-108869854D01*
X117967778Y-108867054D01*
X117603744Y-108752275D01*
X117593578Y-108748575D01*
X117240927Y-108602502D01*
X117231123Y-108597930D01*
X116892557Y-108421683D01*
X116883189Y-108416275D01*
X116561255Y-108211181D01*
X116552394Y-108204976D01*
X116249569Y-107972610D01*
X116241282Y-107965656D01*
X115959864Y-107707784D01*
X115952215Y-107700135D01*
X115694343Y-107418717D01*
X115687389Y-107410430D01*
X115455023Y-107107605D01*
X115448818Y-107098744D01*
X115243724Y-106776810D01*
X115238316Y-106767442D01*
X115166672Y-106629815D01*
X115062066Y-106428869D01*
X115057497Y-106419072D01*
X115056542Y-106416766D01*
X114911420Y-106066411D01*
X114907724Y-106056255D01*
X114792942Y-105692210D01*
X114790148Y-105681784D01*
X114707525Y-105309097D01*
X114705652Y-105298471D01*
X114655826Y-104920006D01*
X114654886Y-104909271D01*
X114654534Y-104901211D01*
X116787000Y-104901211D01*
X116787000Y-105143788D01*
X116818661Y-105384285D01*
X116881447Y-105618604D01*
X116934493Y-105746667D01*
X116974276Y-105842712D01*
X117095564Y-106052789D01*
X117095566Y-106052792D01*
X117095567Y-106052793D01*
X117243233Y-106245236D01*
X117243239Y-106245243D01*
X117414756Y-106416760D01*
X117414763Y-106416766D01*
X117468592Y-106458070D01*
X117607211Y-106564436D01*
X117817288Y-106685724D01*
X117978633Y-106752555D01*
X118037189Y-106776810D01*
X118041400Y-106778554D01*
X118275711Y-106841338D01*
X118456086Y-106865084D01*
X118516211Y-106873000D01*
X118516212Y-106873000D01*
X118758789Y-106873000D01*
X118806888Y-106866667D01*
X118999289Y-106841338D01*
X119233600Y-106778554D01*
X119457712Y-106685724D01*
X119667789Y-106564436D01*
X119860238Y-106416765D01*
X120031765Y-106245238D01*
X120179436Y-106052789D01*
X120300724Y-105842712D01*
X120393554Y-105618600D01*
X120456338Y-105384289D01*
X120488000Y-105143788D01*
X120488000Y-104901212D01*
X120456338Y-104660711D01*
X120393554Y-104426400D01*
X120300724Y-104202288D01*
X120179436Y-103992211D01*
X120031765Y-103799762D01*
X120031760Y-103799756D01*
X119860243Y-103628239D01*
X119860236Y-103628233D01*
X119667793Y-103480567D01*
X119667792Y-103480566D01*
X119667789Y-103480564D01*
X119484304Y-103374629D01*
X119457714Y-103359277D01*
X119457705Y-103359273D01*
X119233604Y-103266447D01*
X118999285Y-103203661D01*
X118758789Y-103172000D01*
X118758788Y-103172000D01*
X118516212Y-103172000D01*
X118516211Y-103172000D01*
X118275714Y-103203661D01*
X118041395Y-103266447D01*
X117817294Y-103359273D01*
X117817285Y-103359277D01*
X117607206Y-103480567D01*
X117414763Y-103628233D01*
X117414756Y-103628239D01*
X117243239Y-103799756D01*
X117243233Y-103799763D01*
X117095567Y-103992206D01*
X116974277Y-104202285D01*
X116974273Y-104202294D01*
X116881447Y-104426395D01*
X116818661Y-104660714D01*
X116787000Y-104901211D01*
X114654534Y-104901211D01*
X114638118Y-104525202D01*
X114638000Y-104519793D01*
X114638000Y-72602135D01*
X117849500Y-72602135D01*
X117849500Y-74397870D01*
X117849501Y-74397876D01*
X117855908Y-74457483D01*
X117906202Y-74592328D01*
X117906206Y-74592335D01*
X117992452Y-74707544D01*
X117992455Y-74707547D01*
X118107664Y-74793793D01*
X118107671Y-74793797D01*
X118239082Y-74842810D01*
X118295016Y-74884681D01*
X118319433Y-74950145D01*
X118304582Y-75018418D01*
X118283431Y-75046673D01*
X118169889Y-75160215D01*
X118044951Y-75332179D01*
X117948444Y-75521585D01*
X117882753Y-75723760D01*
X117849500Y-75933713D01*
X117849500Y-76146287D01*
X117882754Y-76356243D01*
X117937678Y-76525282D01*
X117948444Y-76558414D01*
X118044951Y-76747820D01*
X118169890Y-76919786D01*
X118320213Y-77070109D01*
X118492179Y-77195048D01*
X118492181Y-77195049D01*
X118492184Y-77195051D01*
X118681588Y-77291557D01*
X118883757Y-77357246D01*
X119093713Y-77390500D01*
X119093714Y-77390500D01*
X119306286Y-77390500D01*
X119306287Y-77390500D01*
X119516243Y-77357246D01*
X119718412Y-77291557D01*
X119907816Y-77195051D01*
X119929789Y-77179086D01*
X120079786Y-77070109D01*
X120079788Y-77070106D01*
X120079792Y-77070104D01*
X120230104Y-76919792D01*
X120230106Y-76919788D01*
X120230109Y-76919786D01*
X120355048Y-76747820D01*
X120355047Y-76747820D01*
X120355051Y-76747816D01*
X120451557Y-76558412D01*
X120517246Y-76356243D01*
X120550500Y-76146287D01*
X120550500Y-75933713D01*
X120517246Y-75723757D01*
X120451557Y-75521588D01*
X120355051Y-75332184D01*
X120355049Y-75332181D01*
X120355048Y-75332179D01*
X120230109Y-75160213D01*
X120116569Y-75046673D01*
X120083084Y-74985350D01*
X120088068Y-74915658D01*
X120129940Y-74859725D01*
X120160915Y-74842810D01*
X120292331Y-74793796D01*
X120407546Y-74707546D01*
X120493796Y-74592331D01*
X120544091Y-74457483D01*
X120550500Y-74397873D01*
X120550499Y-72602128D01*
X120544091Y-72542517D01*
X120534534Y-72516894D01*
X120493797Y-72407671D01*
X120493793Y-72407664D01*
X120407547Y-72292455D01*
X120407544Y-72292452D01*
X120292335Y-72206206D01*
X120292328Y-72206202D01*
X120157482Y-72155908D01*
X120157483Y-72155908D01*
X120097883Y-72149501D01*
X120097881Y-72149500D01*
X120097873Y-72149500D01*
X120097864Y-72149500D01*
X118302129Y-72149500D01*
X118302123Y-72149501D01*
X118242516Y-72155908D01*
X118107671Y-72206202D01*
X118107664Y-72206206D01*
X117992455Y-72292452D01*
X117992452Y-72292455D01*
X117906206Y-72407664D01*
X117906202Y-72407671D01*
X117855908Y-72542517D01*
X117849501Y-72602116D01*
X117849501Y-72602123D01*
X117849500Y-72602135D01*
X114638000Y-72602135D01*
X114638000Y-64525206D01*
X114638118Y-64519797D01*
X114640877Y-64456608D01*
X114654886Y-64135726D01*
X114655826Y-64124995D01*
X114685288Y-63901211D01*
X116787000Y-63901211D01*
X116787000Y-64143788D01*
X116818661Y-64384285D01*
X116881447Y-64618604D01*
X116958923Y-64805646D01*
X116974276Y-64842712D01*
X117095564Y-65052789D01*
X117095566Y-65052792D01*
X117095567Y-65052793D01*
X117243233Y-65245236D01*
X117243239Y-65245243D01*
X117414756Y-65416760D01*
X117414762Y-65416765D01*
X117607211Y-65564436D01*
X117817288Y-65685724D01*
X118041400Y-65778554D01*
X118275711Y-65841338D01*
X118456086Y-65865084D01*
X118516211Y-65873000D01*
X118516212Y-65873000D01*
X118758789Y-65873000D01*
X118806888Y-65866667D01*
X118999289Y-65841338D01*
X119233600Y-65778554D01*
X119457712Y-65685724D01*
X119667789Y-65564436D01*
X119860238Y-65416765D01*
X120031765Y-65245238D01*
X120179436Y-65052789D01*
X120300724Y-64842712D01*
X120393554Y-64618600D01*
X120456338Y-64384289D01*
X120488000Y-64143788D01*
X120488000Y-63901212D01*
X120487143Y-63894706D01*
X120478745Y-63830911D01*
X120456338Y-63660711D01*
X120393554Y-63426400D01*
X120300724Y-63202288D01*
X120179436Y-62992211D01*
X120031765Y-62799762D01*
X120031760Y-62799756D01*
X119860243Y-62628239D01*
X119860236Y-62628233D01*
X119667793Y-62480567D01*
X119667792Y-62480566D01*
X119667789Y-62480564D01*
X119457712Y-62359276D01*
X119457705Y-62359273D01*
X119233604Y-62266447D01*
X118999285Y-62203661D01*
X118758789Y-62172000D01*
X118758788Y-62172000D01*
X118516212Y-62172000D01*
X118516211Y-62172000D01*
X118275714Y-62203661D01*
X118041395Y-62266447D01*
X117817294Y-62359273D01*
X117817285Y-62359277D01*
X117607206Y-62480567D01*
X117414763Y-62628233D01*
X117414756Y-62628239D01*
X117243239Y-62799756D01*
X117243233Y-62799763D01*
X117095567Y-62992206D01*
X116974277Y-63202285D01*
X116974273Y-63202294D01*
X116881447Y-63426395D01*
X116818661Y-63660714D01*
X116787000Y-63901211D01*
X114685288Y-63901211D01*
X114705653Y-63746521D01*
X114707525Y-63735905D01*
X114790149Y-63363209D01*
X114792940Y-63352795D01*
X114907730Y-62988727D01*
X114911417Y-62978595D01*
X115057503Y-62625912D01*
X115062061Y-62616138D01*
X115238322Y-62277545D01*
X115243717Y-62268200D01*
X115448825Y-61946244D01*
X115455015Y-61937405D01*
X115687396Y-61634560D01*
X115694334Y-61626291D01*
X115952226Y-61344852D01*
X115959852Y-61337226D01*
X116241291Y-61079334D01*
X116249560Y-61072396D01*
X116552405Y-60840015D01*
X116561244Y-60833825D01*
X116883200Y-60628717D01*
X116892545Y-60623322D01*
X117231138Y-60447061D01*
X117240912Y-60442503D01*
X117593595Y-60296417D01*
X117603727Y-60292730D01*
X117967795Y-60177940D01*
X117978209Y-60175149D01*
X118350905Y-60092525D01*
X118361525Y-60090652D01*
X118739995Y-60040826D01*
X118750726Y-60039886D01*
X119134797Y-60023117D01*
X119140206Y-60023000D01*
X119203392Y-60023000D01*
X158462717Y-60023000D01*
X158529756Y-60042685D01*
G37*
%TD.AperFunction*%
%TA.AperFunction,Conductor*%
G36*
X206140202Y-60023117D02*
G01*
X206524271Y-60039886D01*
X206535006Y-60040826D01*
X206913471Y-60090652D01*
X206924097Y-60092525D01*
X207296784Y-60175148D01*
X207307210Y-60177942D01*
X207671265Y-60292727D01*
X207681411Y-60296420D01*
X208034078Y-60442500D01*
X208043869Y-60447066D01*
X208382442Y-60623316D01*
X208391810Y-60628724D01*
X208713744Y-60833818D01*
X208722605Y-60840023D01*
X209025430Y-61072389D01*
X209033717Y-61079343D01*
X209315135Y-61337215D01*
X209322784Y-61344864D01*
X209580656Y-61626282D01*
X209587610Y-61634569D01*
X209819976Y-61937394D01*
X209826181Y-61946255D01*
X210031275Y-62268189D01*
X210036683Y-62277557D01*
X210212930Y-62616123D01*
X210217502Y-62625927D01*
X210363575Y-62978578D01*
X210367275Y-62988744D01*
X210482054Y-63352778D01*
X210484854Y-63363227D01*
X210567471Y-63735889D01*
X210569349Y-63746542D01*
X210619171Y-64124973D01*
X210620114Y-64135749D01*
X210636882Y-64519797D01*
X210637000Y-64525206D01*
X210637000Y-104519793D01*
X210636882Y-104525202D01*
X210620114Y-104909250D01*
X210619171Y-104920026D01*
X210569349Y-105298457D01*
X210567471Y-105309110D01*
X210484854Y-105681772D01*
X210482054Y-105692221D01*
X210367275Y-106056255D01*
X210363575Y-106066421D01*
X210217502Y-106419072D01*
X210212930Y-106428876D01*
X210036683Y-106767442D01*
X210031275Y-106776810D01*
X209826181Y-107098744D01*
X209819976Y-107107605D01*
X209587610Y-107410430D01*
X209580656Y-107418717D01*
X209322784Y-107700135D01*
X209315135Y-107707784D01*
X209033717Y-107965656D01*
X209025430Y-107972610D01*
X208722605Y-108204976D01*
X208713744Y-108211181D01*
X208391810Y-108416275D01*
X208382442Y-108421683D01*
X208043876Y-108597930D01*
X208034072Y-108602502D01*
X207681421Y-108748575D01*
X207671255Y-108752275D01*
X207307221Y-108867054D01*
X207296772Y-108869854D01*
X206924110Y-108952471D01*
X206913457Y-108954349D01*
X206535026Y-109004171D01*
X206524250Y-109005114D01*
X206140203Y-109021882D01*
X206134794Y-109022000D01*
X135102441Y-109022000D01*
X135035402Y-109002315D01*
X134989647Y-108949511D01*
X134979703Y-108880353D01*
X135008728Y-108816797D01*
X135064122Y-108780069D01*
X135172445Y-108744873D01*
X135326788Y-108666232D01*
X135466928Y-108564414D01*
X135589414Y-108441928D01*
X135691232Y-108301788D01*
X135769873Y-108147445D01*
X135823402Y-107982701D01*
X135850500Y-107811611D01*
X135850500Y-107088389D01*
X135829933Y-106958534D01*
X135838888Y-106889240D01*
X135883884Y-106835788D01*
X135950635Y-106815149D01*
X136017949Y-106833874D01*
X136040087Y-106851455D01*
X137171586Y-107982954D01*
X137201058Y-108002645D01*
X137245270Y-108032186D01*
X137294505Y-108065084D01*
X137294506Y-108065084D01*
X137294507Y-108065085D01*
X137294509Y-108065086D01*
X137331744Y-108080509D01*
X137431087Y-108121658D01*
X137431091Y-108121658D01*
X137431092Y-108121659D01*
X137576079Y-108150500D01*
X137576082Y-108150500D01*
X181423920Y-108150500D01*
X181521462Y-108131096D01*
X181568913Y-108121658D01*
X181705495Y-108065084D01*
X181754729Y-108032186D01*
X181754734Y-108032183D01*
X181779071Y-108015921D01*
X181828416Y-107982952D01*
X184183673Y-105627693D01*
X184244994Y-105594210D01*
X184290750Y-105592903D01*
X184338713Y-105600500D01*
X184338714Y-105600500D01*
X184551286Y-105600500D01*
X184551287Y-105600500D01*
X184761243Y-105567246D01*
X184963412Y-105501557D01*
X185152816Y-105405051D01*
X185208169Y-105364835D01*
X185324786Y-105280109D01*
X185324788Y-105280106D01*
X185324792Y-105280104D01*
X185475104Y-105129792D01*
X185475106Y-105129788D01*
X185475109Y-105129786D01*
X185600048Y-104957820D01*
X185600047Y-104957820D01*
X185600051Y-104957816D01*
X185604514Y-104949054D01*
X185652488Y-104898259D01*
X185720308Y-104881463D01*
X185786444Y-104903999D01*
X185825486Y-104949056D01*
X185829951Y-104957820D01*
X185954890Y-105129786D01*
X186105213Y-105280109D01*
X186277179Y-105405048D01*
X186277181Y-105405049D01*
X186277184Y-105405051D01*
X186466588Y-105501557D01*
X186668757Y-105567246D01*
X186878713Y-105600500D01*
X186878714Y-105600500D01*
X187091286Y-105600500D01*
X187091287Y-105600500D01*
X187301243Y-105567246D01*
X187503412Y-105501557D01*
X187692816Y-105405051D01*
X187779147Y-105342328D01*
X187864784Y-105280110D01*
X187864784Y-105280109D01*
X187864792Y-105280104D01*
X187978329Y-105166566D01*
X188039648Y-105133084D01*
X188109340Y-105138068D01*
X188165274Y-105179939D01*
X188182189Y-105210917D01*
X188231202Y-105342328D01*
X188231206Y-105342335D01*
X188317452Y-105457544D01*
X188317455Y-105457547D01*
X188432664Y-105543793D01*
X188432671Y-105543797D01*
X188567517Y-105594091D01*
X188567516Y-105594091D01*
X188574444Y-105594835D01*
X188627127Y-105600500D01*
X190422872Y-105600499D01*
X190482483Y-105594091D01*
X190617331Y-105543796D01*
X190732546Y-105457546D01*
X190818796Y-105342331D01*
X190869091Y-105207483D01*
X190875500Y-105147873D01*
X190875499Y-103352128D01*
X190869091Y-103292517D01*
X190859367Y-103266446D01*
X190818797Y-103157671D01*
X190818793Y-103157664D01*
X190732547Y-103042455D01*
X190732544Y-103042452D01*
X190617335Y-102956206D01*
X190617328Y-102956202D01*
X190482482Y-102905908D01*
X190482483Y-102905908D01*
X190422883Y-102899501D01*
X190422881Y-102899500D01*
X190422873Y-102899500D01*
X190422864Y-102899500D01*
X188627129Y-102899500D01*
X188627123Y-102899501D01*
X188567516Y-102905908D01*
X188432671Y-102956202D01*
X188432664Y-102956206D01*
X188317455Y-103042452D01*
X188317452Y-103042455D01*
X188231206Y-103157664D01*
X188231201Y-103157674D01*
X188225585Y-103172731D01*
X188224583Y-103174068D01*
X188224421Y-103175733D01*
X188203723Y-103201933D01*
X188183713Y-103228664D01*
X188182146Y-103229248D01*
X188181110Y-103230560D01*
X188149531Y-103241412D01*
X188118248Y-103253080D01*
X188116614Y-103252724D01*
X188115034Y-103253268D01*
X188082592Y-103245323D01*
X188049975Y-103238227D01*
X188048793Y-103237045D01*
X188047170Y-103236648D01*
X188024184Y-103212435D01*
X188000571Y-103188821D01*
X187999846Y-103186797D01*
X187999065Y-103185975D01*
X187996836Y-103178397D01*
X187987594Y-103152597D01*
X187985500Y-103141603D01*
X187985500Y-103136459D01*
X187962522Y-103020943D01*
X187947051Y-102943164D01*
X187891533Y-102809132D01*
X187871632Y-102761086D01*
X187830575Y-102699640D01*
X187762140Y-102597219D01*
X187720861Y-102555940D01*
X187622782Y-102457861D01*
X187622781Y-102457860D01*
X186784208Y-101619288D01*
X186784206Y-101619285D01*
X186784206Y-101619286D01*
X186777139Y-101612219D01*
X186777139Y-101612218D01*
X186637782Y-101472861D01*
X186637781Y-101472860D01*
X186637780Y-101472859D01*
X186473920Y-101363371D01*
X186473907Y-101363364D01*
X186348569Y-101311448D01*
X186348564Y-101311446D01*
X186340639Y-101308164D01*
X186291836Y-101287949D01*
X186152740Y-101260281D01*
X186149196Y-101259576D01*
X186149192Y-101259575D01*
X186098543Y-101249500D01*
X186098541Y-101249500D01*
X181848540Y-101249500D01*
X181651459Y-101249500D01*
X181651456Y-101249500D01*
X181458171Y-101287947D01*
X181458163Y-101287949D01*
X181409361Y-101308164D01*
X181409360Y-101308164D01*
X181276090Y-101363365D01*
X181276087Y-101363367D01*
X181257055Y-101376082D01*
X181257056Y-101376083D01*
X181112218Y-101472860D01*
X181112214Y-101472863D01*
X179421899Y-103163181D01*
X179360576Y-103196666D01*
X179334218Y-103199500D01*
X178914141Y-103199500D01*
X178847102Y-103179815D01*
X178801347Y-103127011D01*
X178797969Y-103118859D01*
X178793796Y-103107669D01*
X178793793Y-103107665D01*
X178793793Y-103107664D01*
X178707547Y-102992455D01*
X178707544Y-102992452D01*
X178592335Y-102906206D01*
X178592328Y-102906202D01*
X178457482Y-102855908D01*
X178457483Y-102855908D01*
X178397883Y-102849501D01*
X178397881Y-102849500D01*
X178397873Y-102849500D01*
X178397864Y-102849500D01*
X176602129Y-102849500D01*
X176602123Y-102849501D01*
X176542516Y-102855908D01*
X176407671Y-102906202D01*
X176407664Y-102906206D01*
X176292455Y-102992452D01*
X176292452Y-102992455D01*
X176206206Y-103107664D01*
X176206202Y-103107671D01*
X176155908Y-103242517D01*
X176149501Y-103302116D01*
X176149500Y-103302135D01*
X176149500Y-104137770D01*
X176129815Y-104204809D01*
X176113181Y-104225451D01*
X174625451Y-105713181D01*
X174564128Y-105746666D01*
X174537770Y-105749500D01*
X171220159Y-105749500D01*
X171153120Y-105729815D01*
X171107365Y-105677011D01*
X171097421Y-105607853D01*
X171126446Y-105544297D01*
X171145847Y-105526234D01*
X171153927Y-105520185D01*
X171207546Y-105480046D01*
X171293796Y-105364831D01*
X171344091Y-105229983D01*
X171350500Y-105170373D01*
X171350499Y-103374628D01*
X171344091Y-103315017D01*
X171339286Y-103302135D01*
X171293797Y-103180171D01*
X171293793Y-103180164D01*
X171207547Y-103064955D01*
X171207544Y-103064952D01*
X171092335Y-102978706D01*
X171092328Y-102978702D01*
X170957482Y-102928408D01*
X170957483Y-102928408D01*
X170897883Y-102922001D01*
X170897881Y-102922000D01*
X170897873Y-102922000D01*
X170897864Y-102922000D01*
X169102129Y-102922000D01*
X169102123Y-102922001D01*
X169042516Y-102928408D01*
X168907671Y-102978702D01*
X168907664Y-102978706D01*
X168792455Y-103064952D01*
X168792452Y-103064955D01*
X168706206Y-103180164D01*
X168706202Y-103180171D01*
X168655908Y-103315017D01*
X168651150Y-103359276D01*
X168649501Y-103374623D01*
X168649500Y-103374635D01*
X168649500Y-105170370D01*
X168649501Y-105170376D01*
X168655908Y-105229983D01*
X168706202Y-105364828D01*
X168706206Y-105364835D01*
X168792452Y-105480044D01*
X168792453Y-105480044D01*
X168792454Y-105480046D01*
X168826487Y-105505523D01*
X168854153Y-105526234D01*
X168896023Y-105582168D01*
X168901007Y-105651859D01*
X168867521Y-105713182D01*
X168806198Y-105746667D01*
X168779841Y-105749500D01*
X138508677Y-105749500D01*
X138441638Y-105729815D01*
X138420996Y-105713181D01*
X137319997Y-104612181D01*
X137286512Y-104550858D01*
X137291496Y-104481166D01*
X137333368Y-104425233D01*
X137398832Y-104400816D01*
X137407678Y-104400500D01*
X143698543Y-104400500D01*
X143728750Y-104394490D01*
X143799117Y-104380494D01*
X143891836Y-104362051D01*
X143945165Y-104339961D01*
X144073914Y-104286632D01*
X144237782Y-104177139D01*
X144377139Y-104037782D01*
X144377139Y-104037780D01*
X144387347Y-104027573D01*
X144387348Y-104027570D01*
X152114639Y-96300282D01*
X152215388Y-96149500D01*
X152224132Y-96136414D01*
X152297088Y-95960281D01*
X152299551Y-95954336D01*
X152331905Y-95791682D01*
X152338000Y-95761043D01*
X152338000Y-93908281D01*
X152357685Y-93841242D01*
X152374314Y-93820605D01*
X153666425Y-92528493D01*
X153727746Y-92495010D01*
X153797438Y-92499994D01*
X153853371Y-92541866D01*
X153872035Y-92577858D01*
X153875728Y-92589223D01*
X153912280Y-92701719D01*
X154001771Y-92877355D01*
X154005215Y-92884113D01*
X154125528Y-93049713D01*
X154270286Y-93194471D01*
X154386228Y-93278706D01*
X154435890Y-93314787D01*
X154527340Y-93361383D01*
X154528580Y-93362015D01*
X154579376Y-93409990D01*
X154596171Y-93477811D01*
X154573634Y-93543946D01*
X154528580Y-93582985D01*
X154435886Y-93630215D01*
X154270286Y-93750528D01*
X154125528Y-93895286D01*
X154005215Y-94060886D01*
X153912281Y-94243276D01*
X153849022Y-94437965D01*
X153820512Y-94617974D01*
X153817000Y-94640148D01*
X153817000Y-94844852D01*
X153820602Y-94867594D01*
X153849022Y-95047034D01*
X153912281Y-95241723D01*
X153956454Y-95328415D01*
X153994026Y-95402155D01*
X154005215Y-95424113D01*
X154125528Y-95589713D01*
X154270286Y-95734471D01*
X154416762Y-95840890D01*
X154435890Y-95854787D01*
X154527340Y-95901383D01*
X154528580Y-95902015D01*
X154579376Y-95949990D01*
X154596171Y-96017811D01*
X154573634Y-96083946D01*
X154528580Y-96122985D01*
X154435886Y-96170215D01*
X154270286Y-96290528D01*
X154125528Y-96435286D01*
X154005215Y-96600886D01*
X153912281Y-96783276D01*
X153849022Y-96977965D01*
X153817000Y-97180148D01*
X153817000Y-97384851D01*
X153849022Y-97587034D01*
X153912281Y-97781723D01*
X153976191Y-97907153D01*
X153981168Y-97916920D01*
X154005215Y-97964113D01*
X154125528Y-98129713D01*
X154270286Y-98274471D01*
X154425249Y-98387056D01*
X154435890Y-98394787D01*
X154527340Y-98441383D01*
X154528580Y-98442015D01*
X154579376Y-98489990D01*
X154596171Y-98557811D01*
X154573634Y-98623946D01*
X154528580Y-98662985D01*
X154435886Y-98710215D01*
X154270286Y-98830528D01*
X154125528Y-98975286D01*
X154005215Y-99140886D01*
X153912281Y-99323276D01*
X153849022Y-99517965D01*
X153830198Y-99636819D01*
X153817000Y-99720148D01*
X153817000Y-99924852D01*
X153820057Y-99944154D01*
X153849022Y-100127034D01*
X153912281Y-100321723D01*
X154005215Y-100504113D01*
X154125528Y-100669713D01*
X154270286Y-100814471D01*
X154374018Y-100889835D01*
X154435890Y-100934787D01*
X154552107Y-100994003D01*
X154618276Y-101027718D01*
X154618278Y-101027718D01*
X154618281Y-101027720D01*
X154674760Y-101046071D01*
X154812965Y-101090977D01*
X154847293Y-101096414D01*
X155015148Y-101123000D01*
X155015149Y-101123000D01*
X155219851Y-101123000D01*
X155219852Y-101123000D01*
X155422034Y-101090977D01*
X155616719Y-101027720D01*
X155799110Y-100934787D01*
X155895397Y-100864831D01*
X155964713Y-100814471D01*
X155964715Y-100814468D01*
X155964719Y-100814466D01*
X156109466Y-100669719D01*
X156109468Y-100669715D01*
X156109471Y-100669713D01*
X156211621Y-100529113D01*
X156229787Y-100504110D01*
X156322720Y-100321719D01*
X156385977Y-100127034D01*
X156418000Y-99924852D01*
X156418000Y-99720148D01*
X156402321Y-99621155D01*
X156385977Y-99517965D01*
X156356627Y-99427637D01*
X156322720Y-99323281D01*
X156322718Y-99323278D01*
X156322718Y-99323276D01*
X156289003Y-99257107D01*
X156229787Y-99140890D01*
X156221296Y-99129203D01*
X156109471Y-98975286D01*
X155964713Y-98830528D01*
X155799114Y-98710215D01*
X155777197Y-98699048D01*
X155706417Y-98662983D01*
X155655623Y-98615011D01*
X155638828Y-98547190D01*
X155661365Y-98481055D01*
X155706417Y-98442016D01*
X155799110Y-98394787D01*
X155826550Y-98374851D01*
X155964713Y-98274471D01*
X155964715Y-98274468D01*
X155964719Y-98274466D01*
X156109466Y-98129719D01*
X156109468Y-98129715D01*
X156109471Y-98129713D01*
X156162232Y-98057090D01*
X156229787Y-97964110D01*
X156322720Y-97781719D01*
X156385977Y-97587034D01*
X156418000Y-97384852D01*
X156418000Y-97180148D01*
X156398681Y-97058172D01*
X156385977Y-96977965D01*
X156322718Y-96783276D01*
X156264283Y-96668592D01*
X156229787Y-96600890D01*
X156177629Y-96529100D01*
X156109471Y-96435286D01*
X155964713Y-96290528D01*
X155799114Y-96170215D01*
X155775996Y-96158436D01*
X155706417Y-96122983D01*
X155655623Y-96075011D01*
X155638828Y-96007190D01*
X155661365Y-95941055D01*
X155706417Y-95902016D01*
X155799110Y-95854787D01*
X155857930Y-95812052D01*
X155964713Y-95734471D01*
X155964715Y-95734468D01*
X155964719Y-95734466D01*
X156109466Y-95589719D01*
X156109468Y-95589715D01*
X156109471Y-95589713D01*
X156163694Y-95515080D01*
X156229787Y-95424110D01*
X156322720Y-95241719D01*
X156385977Y-95047034D01*
X156418000Y-94844852D01*
X156418000Y-94640148D01*
X156408474Y-94580004D01*
X156385977Y-94437965D01*
X156329603Y-94264466D01*
X156322720Y-94243281D01*
X156322718Y-94243278D01*
X156322718Y-94243276D01*
X156279842Y-94159128D01*
X156229787Y-94060890D01*
X156200977Y-94021236D01*
X156109471Y-93895286D01*
X155964713Y-93750528D01*
X155799114Y-93630215D01*
X155772216Y-93616510D01*
X155706417Y-93582983D01*
X155655623Y-93535011D01*
X155638828Y-93467190D01*
X155661365Y-93401055D01*
X155706417Y-93362016D01*
X155799110Y-93314787D01*
X155848772Y-93278706D01*
X155964713Y-93194471D01*
X155964715Y-93194468D01*
X155964719Y-93194466D01*
X156109466Y-93049719D01*
X156109468Y-93049715D01*
X156109471Y-93049713D01*
X156168417Y-92968579D01*
X156229787Y-92884110D01*
X156322720Y-92701719D01*
X156385977Y-92507034D01*
X156418000Y-92304852D01*
X156418000Y-92100148D01*
X156402775Y-92004022D01*
X156385977Y-91897965D01*
X156356627Y-91807637D01*
X156322720Y-91703281D01*
X156322718Y-91703278D01*
X156322718Y-91703276D01*
X156282200Y-91623757D01*
X156229787Y-91520890D01*
X156211346Y-91495508D01*
X156109471Y-91355286D01*
X155964713Y-91210528D01*
X155799114Y-91090215D01*
X155755485Y-91067985D01*
X155706417Y-91042983D01*
X155655623Y-90995011D01*
X155638828Y-90927190D01*
X155661365Y-90861055D01*
X155706417Y-90822016D01*
X155799110Y-90774787D01*
X155820270Y-90759413D01*
X155964713Y-90654471D01*
X155964715Y-90654468D01*
X155964719Y-90654466D01*
X156109466Y-90509719D01*
X156109468Y-90509715D01*
X156109471Y-90509713D01*
X156173871Y-90421072D01*
X156229787Y-90344110D01*
X156322720Y-90161719D01*
X156385977Y-89967034D01*
X156418000Y-89764852D01*
X156418000Y-89560148D01*
X156385977Y-89357966D01*
X156322720Y-89163281D01*
X156322718Y-89163278D01*
X156322718Y-89163276D01*
X156277509Y-89074549D01*
X156229787Y-88980890D01*
X156222056Y-88970249D01*
X156109471Y-88815286D01*
X155964713Y-88670528D01*
X155799113Y-88550215D01*
X155799112Y-88550214D01*
X155799110Y-88550213D01*
X155737669Y-88518907D01*
X155616723Y-88457281D01*
X155422034Y-88394022D01*
X155247495Y-88366378D01*
X155219852Y-88362000D01*
X155015148Y-88362000D01*
X154990829Y-88365851D01*
X154812965Y-88394022D01*
X154618276Y-88457281D01*
X154435886Y-88550215D01*
X154270286Y-88670528D01*
X154125528Y-88815286D01*
X154005215Y-88980886D01*
X153912281Y-89163278D01*
X153849022Y-89357968D01*
X153825573Y-89506014D01*
X153795643Y-89569149D01*
X153790781Y-89574296D01*
X151467114Y-91897965D01*
X150699720Y-92665359D01*
X150699718Y-92665361D01*
X150663360Y-92701719D01*
X150560359Y-92804719D01*
X150450871Y-92968579D01*
X150450864Y-92968592D01*
X150399171Y-93093393D01*
X150375450Y-93150659D01*
X150375449Y-93150662D01*
X150373261Y-93161660D01*
X150368856Y-93183809D01*
X150368856Y-93183810D01*
X150337000Y-93343956D01*
X150337000Y-95196717D01*
X150317315Y-95263756D01*
X150300681Y-95284398D01*
X143221899Y-102363181D01*
X143160576Y-102396666D01*
X143134218Y-102399500D01*
X135865783Y-102399500D01*
X135798744Y-102379815D01*
X135778102Y-102363181D01*
X134636819Y-101221898D01*
X134603334Y-101160575D01*
X134600500Y-101134217D01*
X134600500Y-97454675D01*
X134600501Y-97454654D01*
X134600501Y-97251457D01*
X134600500Y-97251455D01*
X134568532Y-97090742D01*
X134562052Y-97058165D01*
X134487775Y-96878846D01*
X134486633Y-96876088D01*
X134486628Y-96876079D01*
X134377140Y-96712219D01*
X134377137Y-96712215D01*
X132344217Y-94679297D01*
X132310732Y-94617974D01*
X132309425Y-94611013D01*
X132303404Y-94573000D01*
X132285977Y-94462966D01*
X132222720Y-94268281D01*
X132222718Y-94268278D01*
X132222718Y-94268276D01*
X132180243Y-94184916D01*
X132129787Y-94085890D01*
X132106207Y-94053435D01*
X132009471Y-93920286D01*
X131864713Y-93775528D01*
X131699114Y-93655215D01*
X131692506Y-93651848D01*
X131606417Y-93607983D01*
X131555623Y-93560011D01*
X131538828Y-93492190D01*
X131561365Y-93426055D01*
X131606417Y-93387016D01*
X131699110Y-93339787D01*
X131733524Y-93314784D01*
X131864713Y-93219471D01*
X131864715Y-93219468D01*
X131864719Y-93219466D01*
X132009466Y-93074719D01*
X132009468Y-93074715D01*
X132009471Y-93074713D01*
X132086571Y-92968592D01*
X132129787Y-92909110D01*
X132222720Y-92726719D01*
X132285977Y-92532034D01*
X132318000Y-92329852D01*
X132318000Y-92125148D01*
X132308835Y-92067281D01*
X132285977Y-91922965D01*
X132256627Y-91832637D01*
X132222720Y-91728281D01*
X132222718Y-91728278D01*
X132222718Y-91728276D01*
X132152660Y-91590781D01*
X132129787Y-91545890D01*
X132104573Y-91511185D01*
X132009471Y-91380286D01*
X131864713Y-91235528D01*
X131699114Y-91115215D01*
X131665394Y-91098034D01*
X131606417Y-91067983D01*
X131555623Y-91020011D01*
X131538828Y-90952190D01*
X131561365Y-90886055D01*
X131606417Y-90847016D01*
X131699110Y-90799787D01*
X131746992Y-90764999D01*
X131864713Y-90679471D01*
X131864715Y-90679468D01*
X131864719Y-90679466D01*
X132009466Y-90534719D01*
X132009468Y-90534715D01*
X132009471Y-90534713D01*
X132085956Y-90429438D01*
X132129787Y-90369110D01*
X132222720Y-90186719D01*
X132285977Y-89992034D01*
X132318000Y-89789852D01*
X132318000Y-89585148D01*
X132285977Y-89382966D01*
X132222720Y-89188281D01*
X132222718Y-89188278D01*
X132222718Y-89188276D01*
X132183276Y-89110868D01*
X132129787Y-89005890D01*
X132058724Y-88908079D01*
X132009471Y-88840286D01*
X131864713Y-88695528D01*
X131699113Y-88575215D01*
X131699112Y-88575214D01*
X131699110Y-88575213D01*
X131611411Y-88530528D01*
X131516723Y-88482281D01*
X131322034Y-88419022D01*
X131144961Y-88390977D01*
X131119852Y-88387000D01*
X130915148Y-88387000D01*
X130890829Y-88390851D01*
X130712965Y-88419022D01*
X130518276Y-88482281D01*
X130335886Y-88575215D01*
X130170286Y-88695528D01*
X130025528Y-88840286D01*
X129905215Y-89005886D01*
X129834985Y-89143719D01*
X129787010Y-89194515D01*
X129719189Y-89211310D01*
X129653054Y-89188772D01*
X129609603Y-89134057D01*
X129600500Y-89087424D01*
X129600500Y-85207575D01*
X129620185Y-85140536D01*
X129672989Y-85094781D01*
X129742147Y-85084837D01*
X129805703Y-85113862D01*
X129834984Y-85151279D01*
X129892476Y-85264113D01*
X129905215Y-85289113D01*
X130025528Y-85454713D01*
X130170286Y-85599471D01*
X130286933Y-85684218D01*
X130335890Y-85719787D01*
X130452107Y-85779003D01*
X130518276Y-85812718D01*
X130518278Y-85812718D01*
X130518281Y-85812720D01*
X130622637Y-85846627D01*
X130712965Y-85875977D01*
X130814057Y-85891988D01*
X130915148Y-85908000D01*
X130915149Y-85908000D01*
X131119851Y-85908000D01*
X131119852Y-85908000D01*
X131322034Y-85875977D01*
X131516719Y-85812720D01*
X131699110Y-85719787D01*
X131792090Y-85652232D01*
X131864713Y-85599471D01*
X131864715Y-85599468D01*
X131864719Y-85599466D01*
X132009466Y-85454719D01*
X132009468Y-85454715D01*
X132009471Y-85454713D01*
X132101226Y-85328421D01*
X132129787Y-85289110D01*
X132222720Y-85106719D01*
X132285977Y-84912034D01*
X132318000Y-84709852D01*
X132318000Y-84582282D01*
X132337685Y-84515243D01*
X132390489Y-84469488D01*
X132459647Y-84459544D01*
X132523203Y-84488569D01*
X132529681Y-84494601D01*
X133500681Y-85465601D01*
X133534166Y-85526924D01*
X133537000Y-85553282D01*
X133537000Y-92121043D01*
X133551185Y-92192352D01*
X133551185Y-92192353D01*
X133575447Y-92314328D01*
X133575450Y-92314340D01*
X133581876Y-92329853D01*
X133650864Y-92496407D01*
X133650871Y-92496420D01*
X133760360Y-92660281D01*
X133760363Y-92660285D01*
X133904037Y-92803959D01*
X133904059Y-92803979D01*
X136502235Y-95402155D01*
X136502264Y-95402186D01*
X136644714Y-95544636D01*
X136644718Y-95544639D01*
X136808579Y-95654128D01*
X136808583Y-95654130D01*
X136808586Y-95654132D01*
X136930309Y-95704551D01*
X136990664Y-95729551D01*
X137058277Y-95743000D01*
X137100361Y-95751371D01*
X137183956Y-95768000D01*
X137183959Y-95768000D01*
X137183960Y-95768000D01*
X137381040Y-95768000D01*
X137761738Y-95768000D01*
X137828777Y-95787685D01*
X137834619Y-95791679D01*
X137955890Y-95879787D01*
X138047340Y-95926383D01*
X138048580Y-95927015D01*
X138099376Y-95974990D01*
X138116171Y-96042811D01*
X138093634Y-96108946D01*
X138048580Y-96147985D01*
X137955886Y-96195215D01*
X137790286Y-96315528D01*
X137645528Y-96460286D01*
X137525215Y-96625886D01*
X137432281Y-96808276D01*
X137369022Y-97002965D01*
X137343385Y-97164835D01*
X137337000Y-97205148D01*
X137337000Y-97409852D01*
X137339444Y-97425281D01*
X137369022Y-97612034D01*
X137432281Y-97806723D01*
X137488430Y-97916920D01*
X137516063Y-97971153D01*
X137525215Y-97989113D01*
X137645528Y-98154713D01*
X137790284Y-98299469D01*
X137826568Y-98325830D01*
X137869235Y-98381159D01*
X137875215Y-98450773D01*
X137842609Y-98512568D01*
X137781771Y-98546926D01*
X137766940Y-98549438D01*
X137730019Y-98553407D01*
X137595171Y-98603702D01*
X137595164Y-98603706D01*
X137479955Y-98689952D01*
X137479952Y-98689955D01*
X137393706Y-98805164D01*
X137393702Y-98805171D01*
X137343408Y-98940017D01*
X137337001Y-98999616D01*
X137337000Y-98999635D01*
X137337000Y-100695370D01*
X137337001Y-100695376D01*
X137343408Y-100754983D01*
X137393702Y-100889828D01*
X137393706Y-100889835D01*
X137479952Y-101005044D01*
X137479955Y-101005047D01*
X137595164Y-101091293D01*
X137595171Y-101091297D01*
X137730017Y-101141591D01*
X137730016Y-101141591D01*
X137736944Y-101142335D01*
X137789627Y-101148000D01*
X139485372Y-101147999D01*
X139544983Y-101141591D01*
X139679831Y-101091296D01*
X139795046Y-101005046D01*
X139881296Y-100889831D01*
X139931591Y-100754983D01*
X139931591Y-100754981D01*
X139933374Y-100747438D01*
X139935337Y-100747901D01*
X139958040Y-100693087D01*
X139985697Y-100667792D01*
X140050282Y-100624639D01*
X140189639Y-100485282D01*
X140189639Y-100485280D01*
X140199847Y-100475073D01*
X140199848Y-100475070D01*
X141914639Y-98760282D01*
X141948093Y-98710215D01*
X141955555Y-98699048D01*
X141955555Y-98699047D01*
X141971435Y-98675281D01*
X142024132Y-98596414D01*
X142029767Y-98582811D01*
X142041946Y-98553407D01*
X142078702Y-98464669D01*
X142099551Y-98414336D01*
X142138000Y-98221041D01*
X142138000Y-98023960D01*
X142138000Y-95788282D01*
X142157685Y-95721243D01*
X142174319Y-95700601D01*
X145029525Y-92845396D01*
X147914639Y-89960282D01*
X147922535Y-89948465D01*
X148024132Y-89796414D01*
X148082042Y-89656606D01*
X148099551Y-89614336D01*
X148138000Y-89421041D01*
X148138000Y-89223960D01*
X148138000Y-84480148D01*
X153817000Y-84480148D01*
X153817000Y-84684852D01*
X153819534Y-84700850D01*
X153849022Y-84887034D01*
X153912281Y-85081723D01*
X154005215Y-85264113D01*
X154125528Y-85429713D01*
X154270286Y-85574471D01*
X154421343Y-85684218D01*
X154435890Y-85694787D01*
X154515951Y-85735580D01*
X154618276Y-85787718D01*
X154618278Y-85787718D01*
X154618281Y-85787720D01*
X154722637Y-85821627D01*
X154812965Y-85850977D01*
X154832197Y-85854023D01*
X155015148Y-85883000D01*
X155015149Y-85883000D01*
X155219851Y-85883000D01*
X155219852Y-85883000D01*
X155422034Y-85850977D01*
X155616719Y-85787720D01*
X155799110Y-85694787D01*
X155892090Y-85627232D01*
X155964713Y-85574471D01*
X155964715Y-85574468D01*
X155964719Y-85574466D01*
X156109466Y-85429719D01*
X156109468Y-85429715D01*
X156109471Y-85429713D01*
X156162232Y-85357090D01*
X156229787Y-85264110D01*
X156322720Y-85081719D01*
X156385977Y-84887034D01*
X156418000Y-84684852D01*
X156418000Y-84480148D01*
X156414552Y-84458377D01*
X156385977Y-84277965D01*
X156354603Y-84181407D01*
X156322720Y-84083281D01*
X156322718Y-84083278D01*
X156322718Y-84083276D01*
X156279948Y-83999336D01*
X156229787Y-83900890D01*
X156171225Y-83820285D01*
X156109471Y-83735286D01*
X155964713Y-83590528D01*
X155799113Y-83470215D01*
X155799112Y-83470214D01*
X155799110Y-83470213D01*
X155742153Y-83441191D01*
X155616723Y-83377281D01*
X155422034Y-83314022D01*
X155247495Y-83286378D01*
X155219852Y-83282000D01*
X155015148Y-83282000D01*
X154990829Y-83285851D01*
X154812965Y-83314022D01*
X154618276Y-83377281D01*
X154435886Y-83470215D01*
X154270286Y-83590528D01*
X154125528Y-83735286D01*
X154005215Y-83900886D01*
X153912281Y-84083276D01*
X153849022Y-84277965D01*
X153820448Y-84458377D01*
X153817000Y-84480148D01*
X148138000Y-84480148D01*
X148138000Y-77064303D01*
X148157685Y-76997264D01*
X148210489Y-76951509D01*
X148279647Y-76941565D01*
X148343203Y-76970590D01*
X148362319Y-76991418D01*
X148455534Y-77119719D01*
X148600286Y-77264471D01*
X148755249Y-77377056D01*
X148765890Y-77384787D01*
X148854712Y-77430044D01*
X148948276Y-77477718D01*
X148948278Y-77477718D01*
X148948281Y-77477720D01*
X148987057Y-77490319D01*
X149142965Y-77540977D01*
X149174881Y-77546032D01*
X149345148Y-77573000D01*
X149345149Y-77573000D01*
X149549851Y-77573000D01*
X149549852Y-77573000D01*
X149752034Y-77540977D01*
X149946719Y-77477720D01*
X150129110Y-77384787D01*
X150228329Y-77312701D01*
X150294713Y-77264471D01*
X150294715Y-77264468D01*
X150294719Y-77264466D01*
X150439466Y-77119719D01*
X150439468Y-77119715D01*
X150439471Y-77119713D01*
X150532681Y-76991418D01*
X150559787Y-76954110D01*
X150652720Y-76771719D01*
X150715977Y-76577034D01*
X150748000Y-76374852D01*
X150748000Y-76170148D01*
X150715977Y-75967966D01*
X150652720Y-75773281D01*
X150652718Y-75773278D01*
X150652718Y-75773276D01*
X150602111Y-75673956D01*
X150559787Y-75590890D01*
X150509437Y-75521588D01*
X150439471Y-75425286D01*
X150294713Y-75280528D01*
X150129113Y-75160215D01*
X150129112Y-75160214D01*
X150129110Y-75160213D01*
X150072153Y-75131191D01*
X149946723Y-75067281D01*
X149752034Y-75004022D01*
X149577495Y-74976378D01*
X149549852Y-74972000D01*
X149345148Y-74972000D01*
X149320829Y-74975851D01*
X149142965Y-75004022D01*
X148948276Y-75067281D01*
X148765886Y-75160215D01*
X148600286Y-75280528D01*
X148455532Y-75425282D01*
X148455528Y-75425287D01*
X148362318Y-75553581D01*
X148306988Y-75596247D01*
X148237375Y-75602226D01*
X148175580Y-75569621D01*
X148141223Y-75508782D01*
X148138000Y-75480696D01*
X148138000Y-75358281D01*
X148157685Y-75291242D01*
X148174314Y-75270605D01*
X149585601Y-73859317D01*
X149646924Y-73825833D01*
X149673282Y-73822999D01*
X150355371Y-73822999D01*
X150355372Y-73822999D01*
X150414983Y-73816591D01*
X150549831Y-73766296D01*
X150665046Y-73680046D01*
X150751296Y-73564831D01*
X150801591Y-73429983D01*
X150808000Y-73370373D01*
X150807999Y-71674628D01*
X150801591Y-71615017D01*
X150755429Y-71491251D01*
X150751297Y-71480171D01*
X150751293Y-71480164D01*
X150665047Y-71364955D01*
X150665044Y-71364952D01*
X150549834Y-71278705D01*
X150528664Y-71270809D01*
X150472731Y-71228936D01*
X150448316Y-71163471D01*
X150448000Y-71154628D01*
X150448000Y-70398261D01*
X150467685Y-70331222D01*
X150471665Y-70325399D01*
X150559787Y-70204110D01*
X150652720Y-70021719D01*
X150715977Y-69827034D01*
X150748000Y-69624852D01*
X150748000Y-69420148D01*
X150723857Y-69267715D01*
X150715977Y-69217965D01*
X150654786Y-69029641D01*
X150652720Y-69023281D01*
X150652718Y-69023278D01*
X150652718Y-69023276D01*
X150619003Y-68957107D01*
X150559787Y-68840890D01*
X150544347Y-68819639D01*
X150439471Y-68675286D01*
X150294713Y-68530528D01*
X150129113Y-68410215D01*
X150129112Y-68410214D01*
X150129110Y-68410213D01*
X150072153Y-68381191D01*
X149946723Y-68317281D01*
X149752034Y-68254022D01*
X149564190Y-68224271D01*
X149549852Y-68222000D01*
X149345148Y-68222000D01*
X149330810Y-68224271D01*
X149142965Y-68254022D01*
X148948276Y-68317281D01*
X148765886Y-68410215D01*
X148600286Y-68530528D01*
X148455528Y-68675286D01*
X148335215Y-68840886D01*
X148242281Y-69023276D01*
X148179022Y-69217965D01*
X148147000Y-69420148D01*
X148147000Y-69624851D01*
X148179022Y-69827034D01*
X148242281Y-70021723D01*
X148335213Y-70204110D01*
X148423319Y-70325377D01*
X148446798Y-70391181D01*
X148447000Y-70398261D01*
X148447000Y-71230235D01*
X148427315Y-71297274D01*
X148397312Y-71329501D01*
X148349957Y-71364951D01*
X148349951Y-71364957D01*
X148263706Y-71480164D01*
X148263702Y-71480171D01*
X148213408Y-71615017D01*
X148208558Y-71660134D01*
X148207001Y-71674623D01*
X148207000Y-71674635D01*
X148207000Y-72356717D01*
X148187315Y-72423756D01*
X148170681Y-72444398D01*
X146849681Y-73765398D01*
X146788358Y-73798883D01*
X146718666Y-73793899D01*
X146662733Y-73752027D01*
X146638316Y-73686563D01*
X146638000Y-73677717D01*
X146638000Y-66120714D01*
X146645304Y-66095837D01*
X146648781Y-66070143D01*
X146655877Y-66059831D01*
X146657685Y-66053675D01*
X146667615Y-66040294D01*
X146670822Y-66036529D01*
X146745786Y-65961566D01*
X146810001Y-65873181D01*
X146813115Y-65869527D01*
X146838490Y-65852919D01*
X146862512Y-65834396D01*
X146867438Y-65833972D01*
X146871576Y-65831265D01*
X146901907Y-65831012D01*
X146932125Y-65828417D01*
X146936497Y-65830724D01*
X146941443Y-65830683D01*
X146967099Y-65846871D01*
X146993920Y-65861023D01*
X146999217Y-65867136D01*
X147000534Y-65867967D01*
X147001230Y-65869459D01*
X147007814Y-65877056D01*
X147069214Y-65961566D01*
X147230934Y-66123286D01*
X147415962Y-66257717D01*
X147613581Y-66358409D01*
X147619744Y-66361549D01*
X147837251Y-66432221D01*
X147837252Y-66432221D01*
X147837255Y-66432222D01*
X148063146Y-66468000D01*
X148063147Y-66468000D01*
X148291853Y-66468000D01*
X148291854Y-66468000D01*
X148517745Y-66432222D01*
X148517748Y-66432221D01*
X148517749Y-66432221D01*
X148735255Y-66361549D01*
X148735255Y-66361548D01*
X148735258Y-66361548D01*
X148939038Y-66257717D01*
X149124066Y-66123286D01*
X149285786Y-65961566D01*
X149420217Y-65776538D01*
X149524048Y-65572758D01*
X149576851Y-65410246D01*
X149594721Y-65355249D01*
X149594721Y-65355248D01*
X149594722Y-65355245D01*
X149630500Y-65129354D01*
X149630500Y-64805646D01*
X149594722Y-64579755D01*
X149594721Y-64579751D01*
X149594721Y-64579750D01*
X149524049Y-64362244D01*
X149524048Y-64362242D01*
X149420217Y-64158462D01*
X149285786Y-63973434D01*
X149124066Y-63811714D01*
X149035431Y-63747316D01*
X148992767Y-63691988D01*
X148986788Y-63622375D01*
X149019394Y-63560580D01*
X149080233Y-63526222D01*
X149108318Y-63523000D01*
X153104825Y-63523000D01*
X153171864Y-63542685D01*
X153217619Y-63595489D01*
X153227563Y-63664647D01*
X153204092Y-63721310D01*
X153201206Y-63725164D01*
X153201202Y-63725171D01*
X153150908Y-63860017D01*
X153144501Y-63919616D01*
X153144500Y-63919635D01*
X153144500Y-66015370D01*
X153144501Y-66015376D01*
X153150908Y-66074983D01*
X153201202Y-66209828D01*
X153201206Y-66209835D01*
X153287452Y-66325044D01*
X153287455Y-66325047D01*
X153402664Y-66411293D01*
X153402671Y-66411297D01*
X153516333Y-66453690D01*
X153572267Y-66495561D01*
X153596684Y-66561025D01*
X153597000Y-66569872D01*
X153597000Y-67786717D01*
X153577315Y-67853756D01*
X153560681Y-67874398D01*
X153239297Y-68195781D01*
X153177974Y-68229266D01*
X153171015Y-68230573D01*
X153022968Y-68254022D01*
X152828278Y-68317281D01*
X152645886Y-68410215D01*
X152480286Y-68530528D01*
X152335528Y-68675286D01*
X152215215Y-68840886D01*
X152122281Y-69023276D01*
X152059022Y-69217965D01*
X152027000Y-69420148D01*
X152027000Y-69624851D01*
X152059022Y-69827034D01*
X152122281Y-70021723D01*
X152215213Y-70204110D01*
X152303319Y-70325377D01*
X152326798Y-70391181D01*
X152327000Y-70398261D01*
X152327000Y-71646737D01*
X152307315Y-71713776D01*
X152303318Y-71719622D01*
X152215215Y-71840886D01*
X152122281Y-72023276D01*
X152059022Y-72217965D01*
X152028976Y-72407671D01*
X152027000Y-72420148D01*
X152027000Y-72624852D01*
X152050306Y-72772000D01*
X152059023Y-72827034D01*
X152059022Y-72827034D01*
X152122281Y-73021723D01*
X152215213Y-73204110D01*
X152303319Y-73325377D01*
X152326798Y-73391181D01*
X152327000Y-73398261D01*
X152327000Y-74980235D01*
X152307315Y-75047274D01*
X152277312Y-75079501D01*
X152229957Y-75114951D01*
X152229951Y-75114957D01*
X152143706Y-75230164D01*
X152143702Y-75230171D01*
X152093408Y-75365017D01*
X152087313Y-75421717D01*
X152087001Y-75424623D01*
X152087000Y-75424635D01*
X152087000Y-77120370D01*
X152087001Y-77120376D01*
X152093408Y-77179983D01*
X152143702Y-77314828D01*
X152143706Y-77314835D01*
X152229952Y-77430044D01*
X152229955Y-77430047D01*
X152345164Y-77516293D01*
X152345171Y-77516297D01*
X152480017Y-77566591D01*
X152480016Y-77566591D01*
X152486944Y-77567335D01*
X152539627Y-77573000D01*
X154235372Y-77572999D01*
X154294983Y-77566591D01*
X154429831Y-77516296D01*
X154545046Y-77430046D01*
X154631296Y-77314831D01*
X154681591Y-77179983D01*
X154688000Y-77120373D01*
X154687999Y-75424628D01*
X154681591Y-75365017D01*
X154674569Y-75346191D01*
X154631297Y-75230171D01*
X154631293Y-75230164D01*
X154545047Y-75114955D01*
X154545044Y-75114952D01*
X154429834Y-75028705D01*
X154408664Y-75020809D01*
X154352731Y-74978936D01*
X154328316Y-74913471D01*
X154328000Y-74904628D01*
X154328000Y-73398261D01*
X154347685Y-73331222D01*
X154351665Y-73325399D01*
X154439787Y-73204110D01*
X154532720Y-73021719D01*
X154595977Y-72827034D01*
X154628000Y-72624852D01*
X154628000Y-72420148D01*
X154595977Y-72217966D01*
X154592155Y-72206204D01*
X154532718Y-72023276D01*
X154499003Y-71957107D01*
X154439787Y-71840890D01*
X154388000Y-71769610D01*
X154351682Y-71719622D01*
X154328202Y-71653816D01*
X154328000Y-71646737D01*
X154328000Y-70398261D01*
X154347685Y-70331222D01*
X154351665Y-70325399D01*
X154439787Y-70204110D01*
X154532720Y-70021719D01*
X154595977Y-69827034D01*
X154619425Y-69678983D01*
X154649354Y-69615850D01*
X154654199Y-69610719D01*
X155235278Y-69029641D01*
X155235282Y-69029639D01*
X155374639Y-68890282D01*
X155484132Y-68726414D01*
X155539808Y-68592000D01*
X155559551Y-68544336D01*
X155578775Y-68447688D01*
X155596932Y-68356410D01*
X155598000Y-68351042D01*
X155598000Y-66569872D01*
X155617685Y-66502833D01*
X155670489Y-66457078D01*
X155678667Y-66453690D01*
X155778247Y-66416549D01*
X155792331Y-66411296D01*
X155907546Y-66325046D01*
X155993796Y-66209831D01*
X156004190Y-66181960D01*
X156046060Y-66126027D01*
X156111523Y-66101608D01*
X156179797Y-66116458D01*
X156193246Y-66124965D01*
X156375962Y-66257717D01*
X156573581Y-66358409D01*
X156579744Y-66361549D01*
X156797251Y-66432221D01*
X156797252Y-66432221D01*
X156797255Y-66432222D01*
X157023146Y-66468000D01*
X157023147Y-66468000D01*
X157251853Y-66468000D01*
X157251854Y-66468000D01*
X157477745Y-66432222D01*
X157477748Y-66432221D01*
X157477749Y-66432221D01*
X157695255Y-66361549D01*
X157695255Y-66361548D01*
X157695258Y-66361548D01*
X157899038Y-66257717D01*
X158084066Y-66123286D01*
X158245786Y-65961566D01*
X158307183Y-65877059D01*
X158362512Y-65834396D01*
X158432125Y-65828417D01*
X158493920Y-65861023D01*
X158507814Y-65877056D01*
X158569214Y-65961566D01*
X158730934Y-66123286D01*
X158915962Y-66257717D01*
X159113581Y-66358409D01*
X159119744Y-66361549D01*
X159337251Y-66432221D01*
X159337252Y-66432221D01*
X159337255Y-66432222D01*
X159563146Y-66468000D01*
X159563147Y-66468000D01*
X159791853Y-66468000D01*
X159791854Y-66468000D01*
X160017745Y-66432222D01*
X160017748Y-66432221D01*
X160017749Y-66432221D01*
X160235255Y-66361549D01*
X160235255Y-66361548D01*
X160235258Y-66361548D01*
X160439038Y-66257717D01*
X160624066Y-66123286D01*
X160785786Y-65961566D01*
X160920217Y-65776538D01*
X161024048Y-65572758D01*
X161076851Y-65410246D01*
X161094721Y-65355249D01*
X161094721Y-65355248D01*
X161094722Y-65355245D01*
X161130500Y-65129354D01*
X161130500Y-64805646D01*
X161094722Y-64579755D01*
X161094721Y-64579751D01*
X161094721Y-64579750D01*
X161024049Y-64362244D01*
X160959848Y-64236242D01*
X160946952Y-64167573D01*
X160973228Y-64102832D01*
X160982642Y-64092276D01*
X161515601Y-63559319D01*
X161576924Y-63525834D01*
X161603282Y-63523000D01*
X164605999Y-63523000D01*
X164673038Y-63542685D01*
X164718793Y-63595489D01*
X164728737Y-63664647D01*
X164705265Y-63721310D01*
X164694352Y-63735889D01*
X164661204Y-63780168D01*
X164661202Y-63780171D01*
X164610908Y-63915017D01*
X164604501Y-63974616D01*
X164604500Y-63974635D01*
X164604500Y-66070370D01*
X164604501Y-66070376D01*
X164610908Y-66129983D01*
X164661202Y-66264828D01*
X164661206Y-66264835D01*
X164747452Y-66380044D01*
X164747455Y-66380047D01*
X164862664Y-66466293D01*
X164862671Y-66466297D01*
X164976333Y-66508690D01*
X165032267Y-66550561D01*
X165056684Y-66616025D01*
X165057000Y-66624872D01*
X165057000Y-67576717D01*
X165037315Y-67643756D01*
X165020681Y-67664398D01*
X164489297Y-68195781D01*
X164427974Y-68229266D01*
X164421015Y-68230573D01*
X164272968Y-68254022D01*
X164078278Y-68317281D01*
X163895886Y-68410215D01*
X163730286Y-68530528D01*
X163585528Y-68675286D01*
X163465215Y-68840886D01*
X163372281Y-69023276D01*
X163309022Y-69217965D01*
X163277000Y-69420148D01*
X163277000Y-69624851D01*
X163309022Y-69827034D01*
X163372281Y-70021723D01*
X163465213Y-70204110D01*
X163553319Y-70325377D01*
X163576798Y-70391181D01*
X163577000Y-70398261D01*
X163577000Y-71646737D01*
X163557315Y-71713776D01*
X163553318Y-71719622D01*
X163465215Y-71840886D01*
X163372281Y-72023276D01*
X163309022Y-72217965D01*
X163278976Y-72407671D01*
X163277000Y-72420148D01*
X163277000Y-72624852D01*
X163300306Y-72772000D01*
X163309023Y-72827034D01*
X163309022Y-72827034D01*
X163372281Y-73021723D01*
X163465213Y-73204110D01*
X163553319Y-73325377D01*
X163560470Y-73345421D01*
X163571977Y-73363326D01*
X163575431Y-73387350D01*
X163576798Y-73391181D01*
X163577000Y-73398261D01*
X163577000Y-73437717D01*
X163557315Y-73504756D01*
X163504511Y-73550511D01*
X163435353Y-73560455D01*
X163371797Y-73531430D01*
X163365319Y-73525398D01*
X162284318Y-72444397D01*
X162250833Y-72383074D01*
X162247999Y-72356716D01*
X162247999Y-71674629D01*
X162247998Y-71674623D01*
X162247997Y-71674616D01*
X162241591Y-71615017D01*
X162195429Y-71491251D01*
X162191297Y-71480171D01*
X162191293Y-71480164D01*
X162105047Y-71364955D01*
X162092494Y-71355558D01*
X162057687Y-71329501D01*
X161997688Y-71284585D01*
X161955818Y-71228651D01*
X161948000Y-71185319D01*
X161948000Y-70398261D01*
X161967685Y-70331222D01*
X161971665Y-70325399D01*
X162059787Y-70204110D01*
X162152720Y-70021719D01*
X162215977Y-69827034D01*
X162248000Y-69624852D01*
X162248000Y-69420148D01*
X162223857Y-69267715D01*
X162215977Y-69217965D01*
X162154786Y-69029641D01*
X162152720Y-69023281D01*
X162152718Y-69023278D01*
X162152718Y-69023276D01*
X162119003Y-68957107D01*
X162059787Y-68840890D01*
X162044347Y-68819639D01*
X161939471Y-68675286D01*
X161794713Y-68530528D01*
X161629113Y-68410215D01*
X161629112Y-68410214D01*
X161629110Y-68410213D01*
X161572153Y-68381191D01*
X161446723Y-68317281D01*
X161252034Y-68254022D01*
X161064190Y-68224271D01*
X161049852Y-68222000D01*
X160845148Y-68222000D01*
X160830810Y-68224271D01*
X160642965Y-68254022D01*
X160448276Y-68317281D01*
X160265886Y-68410215D01*
X160100286Y-68530528D01*
X159955528Y-68675286D01*
X159835215Y-68840886D01*
X159742281Y-69023276D01*
X159679022Y-69217965D01*
X159647000Y-69420148D01*
X159647000Y-69624851D01*
X159679022Y-69827034D01*
X159742281Y-70021723D01*
X159835213Y-70204110D01*
X159923319Y-70325377D01*
X159946798Y-70391181D01*
X159947000Y-70398261D01*
X159947000Y-71185319D01*
X159927315Y-71252358D01*
X159897312Y-71284585D01*
X159789952Y-71364955D01*
X159703706Y-71480164D01*
X159703702Y-71480171D01*
X159653408Y-71615017D01*
X159648558Y-71660134D01*
X159647001Y-71674623D01*
X159647000Y-71674635D01*
X159647000Y-73370370D01*
X159647001Y-73370376D01*
X159653408Y-73429983D01*
X159703702Y-73564828D01*
X159703706Y-73564835D01*
X159789952Y-73680044D01*
X159789955Y-73680047D01*
X159905164Y-73766293D01*
X159905171Y-73766297D01*
X159950118Y-73783061D01*
X160040017Y-73816591D01*
X160099627Y-73823000D01*
X160781717Y-73822999D01*
X160848756Y-73842683D01*
X160869398Y-73859318D01*
X161700681Y-74690601D01*
X161715384Y-74717528D01*
X161731977Y-74743347D01*
X161732868Y-74749547D01*
X161734166Y-74751924D01*
X161737000Y-74778282D01*
X161737000Y-74982264D01*
X161717315Y-75049303D01*
X161664511Y-75095058D01*
X161595353Y-75105002D01*
X161556705Y-75092749D01*
X161506723Y-75067281D01*
X161312034Y-75004022D01*
X161137495Y-74976378D01*
X161109852Y-74972000D01*
X160905148Y-74972000D01*
X160880829Y-74975851D01*
X160702965Y-75004022D01*
X160508276Y-75067281D01*
X160325886Y-75160215D01*
X160160286Y-75280528D01*
X160015528Y-75425286D01*
X159895215Y-75590886D01*
X159802281Y-75773276D01*
X159739022Y-75967965D01*
X159707000Y-76170148D01*
X159707000Y-76374851D01*
X159739022Y-76577034D01*
X159802281Y-76771723D01*
X159895215Y-76954113D01*
X160015528Y-77119713D01*
X160160286Y-77264471D01*
X160315249Y-77377056D01*
X160325890Y-77384787D01*
X160414712Y-77430044D01*
X160508276Y-77477718D01*
X160508278Y-77477718D01*
X160508281Y-77477720D01*
X160547057Y-77490319D01*
X160702965Y-77540977D01*
X160734881Y-77546032D01*
X160905148Y-77573000D01*
X160905149Y-77573000D01*
X161109851Y-77573000D01*
X161109852Y-77573000D01*
X161312034Y-77540977D01*
X161506719Y-77477720D01*
X161509636Y-77476234D01*
X161548858Y-77456249D01*
X161556705Y-77452250D01*
X161625373Y-77439354D01*
X161690113Y-77465629D01*
X161730371Y-77522735D01*
X161737000Y-77562735D01*
X161737000Y-83706737D01*
X161717315Y-83773776D01*
X161713318Y-83779622D01*
X161625215Y-83900886D01*
X161532281Y-84083276D01*
X161469022Y-84277965D01*
X161440448Y-84458377D01*
X161437000Y-84480148D01*
X161437000Y-84684852D01*
X161439534Y-84700850D01*
X161469022Y-84887034D01*
X161532281Y-85081723D01*
X161625215Y-85264113D01*
X161745528Y-85429713D01*
X161890286Y-85574471D01*
X162041343Y-85684218D01*
X162055890Y-85694787D01*
X162113756Y-85724271D01*
X162148580Y-85742015D01*
X162199376Y-85789990D01*
X162216171Y-85857811D01*
X162193634Y-85923946D01*
X162148580Y-85962985D01*
X162055886Y-86010215D01*
X161890286Y-86130528D01*
X161745528Y-86275286D01*
X161625215Y-86440886D01*
X161532281Y-86623276D01*
X161469022Y-86817965D01*
X161437000Y-87020148D01*
X161437000Y-87224851D01*
X161469022Y-87427034D01*
X161532281Y-87621723D01*
X161574260Y-87704110D01*
X161614026Y-87782155D01*
X161625215Y-87804113D01*
X161745528Y-87969713D01*
X161890286Y-88114471D01*
X162036210Y-88220489D01*
X162055890Y-88234787D01*
X162147340Y-88281383D01*
X162148580Y-88282015D01*
X162199376Y-88329990D01*
X162216171Y-88397811D01*
X162193634Y-88463946D01*
X162148580Y-88502985D01*
X162055886Y-88550215D01*
X161890286Y-88670528D01*
X161745528Y-88815286D01*
X161625215Y-88980886D01*
X161532281Y-89163276D01*
X161469022Y-89357965D01*
X161437000Y-89560148D01*
X161437000Y-89764851D01*
X161469022Y-89967034D01*
X161532281Y-90161723D01*
X161625215Y-90344113D01*
X161745528Y-90509713D01*
X161890286Y-90654471D01*
X162042412Y-90764995D01*
X162055890Y-90774787D01*
X162147340Y-90821383D01*
X162148580Y-90822015D01*
X162199376Y-90869990D01*
X162216171Y-90937811D01*
X162193634Y-91003946D01*
X162148580Y-91042985D01*
X162055886Y-91090215D01*
X161890286Y-91210528D01*
X161745528Y-91355286D01*
X161625215Y-91520886D01*
X161532281Y-91703276D01*
X161469022Y-91897965D01*
X161437000Y-92100148D01*
X161437000Y-92304851D01*
X161469022Y-92507034D01*
X161532281Y-92701723D01*
X161573687Y-92782985D01*
X161621771Y-92877355D01*
X161625215Y-92884113D01*
X161745528Y-93049713D01*
X161890286Y-93194471D01*
X162006228Y-93278706D01*
X162055890Y-93314787D01*
X162147340Y-93361383D01*
X162148580Y-93362015D01*
X162199376Y-93409990D01*
X162216171Y-93477811D01*
X162193634Y-93543946D01*
X162148580Y-93582985D01*
X162055886Y-93630215D01*
X161890286Y-93750528D01*
X161745528Y-93895286D01*
X161625215Y-94060886D01*
X161532281Y-94243278D01*
X161532280Y-94243280D01*
X161532280Y-94243281D01*
X161528027Y-94256368D01*
X161469022Y-94437968D01*
X161445573Y-94586014D01*
X161415643Y-94649149D01*
X161410781Y-94654296D01*
X160124024Y-95941055D01*
X159699720Y-96365359D01*
X159699718Y-96365361D01*
X159664579Y-96400500D01*
X159560359Y-96504719D01*
X159450871Y-96668579D01*
X159450864Y-96668592D01*
X159375450Y-96850660D01*
X159375447Y-96850670D01*
X159337000Y-97043956D01*
X159337000Y-100721044D01*
X159375447Y-100914328D01*
X159375449Y-100914336D01*
X159395283Y-100962219D01*
X159395283Y-100962220D01*
X159450864Y-101096407D01*
X159450871Y-101096420D01*
X159560359Y-101260280D01*
X159560360Y-101260281D01*
X159560361Y-101260282D01*
X159699718Y-101399639D01*
X159699719Y-101399639D01*
X159706786Y-101406706D01*
X159706785Y-101406706D01*
X159706789Y-101406709D01*
X160999715Y-102699637D01*
X160999719Y-102699640D01*
X161163579Y-102809128D01*
X161163586Y-102809132D01*
X161345665Y-102884552D01*
X161506889Y-102916621D01*
X161538957Y-102922999D01*
X161538958Y-102923000D01*
X161538959Y-102923000D01*
X164636043Y-102923000D01*
X164673938Y-102915461D01*
X164754182Y-102899500D01*
X164829336Y-102884551D01*
X164898483Y-102855909D01*
X165011414Y-102809132D01*
X165175282Y-102699639D01*
X165314639Y-102560282D01*
X165318959Y-102555962D01*
X165318968Y-102555951D01*
X169704772Y-98170148D01*
X192337000Y-98170148D01*
X192337000Y-98374851D01*
X192369022Y-98577034D01*
X192432281Y-98771723D01*
X192474983Y-98855528D01*
X192518032Y-98940017D01*
X192525215Y-98954113D01*
X192645528Y-99119713D01*
X192790286Y-99264471D01*
X192922171Y-99360289D01*
X192955890Y-99384787D01*
X193072107Y-99444003D01*
X193138276Y-99477718D01*
X193138278Y-99477718D01*
X193138281Y-99477720D01*
X193205313Y-99499500D01*
X193332965Y-99540977D01*
X193420227Y-99554798D01*
X193535148Y-99573000D01*
X193535149Y-99573000D01*
X193739851Y-99573000D01*
X193739852Y-99573000D01*
X193942034Y-99540977D01*
X194136719Y-99477720D01*
X194319110Y-99384787D01*
X194412090Y-99317232D01*
X194484713Y-99264471D01*
X194484715Y-99264468D01*
X194484719Y-99264466D01*
X194629466Y-99119719D01*
X194629468Y-99119715D01*
X194629471Y-99119713D01*
X194723274Y-98990602D01*
X194749787Y-98954110D01*
X194842720Y-98771719D01*
X194905977Y-98577034D01*
X194938000Y-98374852D01*
X194938000Y-98170148D01*
X194914846Y-98023960D01*
X194905977Y-97967965D01*
X194858942Y-97823207D01*
X194842720Y-97773281D01*
X194842718Y-97773278D01*
X194842718Y-97773276D01*
X194809003Y-97707107D01*
X194749787Y-97590890D01*
X194694266Y-97514471D01*
X194629471Y-97425286D01*
X194484713Y-97280528D01*
X194319113Y-97160215D01*
X194319112Y-97160214D01*
X194319110Y-97160213D01*
X194262153Y-97131191D01*
X194136723Y-97067281D01*
X193942034Y-97004022D01*
X193767495Y-96976378D01*
X193739852Y-96972000D01*
X193535148Y-96972000D01*
X193510829Y-96975851D01*
X193332965Y-97004022D01*
X193138276Y-97067281D01*
X192955886Y-97160215D01*
X192790286Y-97280528D01*
X192645528Y-97425286D01*
X192525215Y-97590886D01*
X192432281Y-97773276D01*
X192369022Y-97967965D01*
X192337000Y-98170148D01*
X169704772Y-98170148D01*
X171962642Y-95912278D01*
X184967000Y-95912278D01*
X184967000Y-96132722D01*
X184971073Y-96158436D01*
X185001485Y-96350452D01*
X185069603Y-96560103D01*
X185069604Y-96560106D01*
X185124875Y-96668579D01*
X185151664Y-96721155D01*
X185169687Y-96756525D01*
X185299252Y-96934858D01*
X185299256Y-96934863D01*
X185455136Y-97090743D01*
X185455141Y-97090747D01*
X185610692Y-97203760D01*
X185633478Y-97220315D01*
X185751663Y-97280534D01*
X185829893Y-97320395D01*
X185829896Y-97320396D01*
X185892098Y-97340606D01*
X186039549Y-97388515D01*
X186257278Y-97423000D01*
X186257279Y-97423000D01*
X186477721Y-97423000D01*
X186477722Y-97423000D01*
X186695451Y-97388515D01*
X186905106Y-97320395D01*
X187101522Y-97220315D01*
X187279865Y-97090742D01*
X187330036Y-97040570D01*
X187391357Y-97007086D01*
X187461048Y-97012070D01*
X187516982Y-97053941D01*
X187533898Y-97084919D01*
X187563702Y-97164828D01*
X187563706Y-97164835D01*
X187649952Y-97280044D01*
X187649955Y-97280047D01*
X187765164Y-97366293D01*
X187765171Y-97366297D01*
X187900017Y-97416591D01*
X187900016Y-97416591D01*
X187906944Y-97417335D01*
X187959627Y-97423000D01*
X189855372Y-97422999D01*
X189914983Y-97416591D01*
X190049831Y-97366296D01*
X190165046Y-97280046D01*
X190251296Y-97164831D01*
X190301591Y-97029983D01*
X190308000Y-96970373D01*
X190307999Y-95074628D01*
X190301591Y-95015017D01*
X190251296Y-94880169D01*
X190251295Y-94880168D01*
X190251293Y-94880164D01*
X190165047Y-94764955D01*
X190165044Y-94764952D01*
X190049835Y-94678706D01*
X190049828Y-94678702D01*
X189914982Y-94628408D01*
X189914983Y-94628408D01*
X189855383Y-94622001D01*
X189855381Y-94622000D01*
X189855373Y-94622000D01*
X189855364Y-94622000D01*
X187959629Y-94622000D01*
X187959623Y-94622001D01*
X187900016Y-94628408D01*
X187765171Y-94678702D01*
X187765164Y-94678706D01*
X187649955Y-94764952D01*
X187591266Y-94843350D01*
X187535332Y-94885220D01*
X187465640Y-94890204D01*
X187404317Y-94856718D01*
X187370833Y-94795394D01*
X187368000Y-94769038D01*
X187368000Y-91562547D01*
X187387685Y-91495508D01*
X187404319Y-91474866D01*
X187416106Y-91463079D01*
X187509466Y-91369719D01*
X187509468Y-91369715D01*
X187509471Y-91369713D01*
X187566780Y-91290833D01*
X187629787Y-91204110D01*
X187722720Y-91021719D01*
X187785977Y-90827034D01*
X187818000Y-90624852D01*
X187818000Y-90420148D01*
X187807377Y-90353075D01*
X187785977Y-90217965D01*
X187742803Y-90085091D01*
X187722720Y-90023281D01*
X187722718Y-90023278D01*
X187722718Y-90023276D01*
X187680136Y-89939705D01*
X187629787Y-89840890D01*
X187597474Y-89796414D01*
X187509471Y-89675286D01*
X187364713Y-89530528D01*
X187199113Y-89410215D01*
X187199112Y-89410214D01*
X187199110Y-89410213D01*
X187096568Y-89357965D01*
X187016723Y-89317281D01*
X186822034Y-89254022D01*
X186647495Y-89226378D01*
X186619852Y-89222000D01*
X186415148Y-89222000D01*
X186390829Y-89225851D01*
X186212965Y-89254022D01*
X186018276Y-89317281D01*
X185835886Y-89410215D01*
X185670286Y-89530528D01*
X185525528Y-89675286D01*
X185405215Y-89840886D01*
X185312281Y-90023276D01*
X185249022Y-90217965D01*
X185217000Y-90420148D01*
X185217000Y-90624851D01*
X185249022Y-90827034D01*
X185271103Y-90894990D01*
X185312280Y-91021719D01*
X185347180Y-91090213D01*
X185353485Y-91102587D01*
X185367000Y-91158882D01*
X185367000Y-94991031D01*
X185347315Y-95058070D01*
X185330681Y-95078712D01*
X185299256Y-95110136D01*
X185299252Y-95110141D01*
X185169687Y-95288474D01*
X185069604Y-95484893D01*
X185069603Y-95484896D01*
X185001485Y-95694547D01*
X184967000Y-95912278D01*
X171962642Y-95912278D01*
X188149640Y-79725281D01*
X188259132Y-79561414D01*
X188334552Y-79379335D01*
X188373000Y-79186040D01*
X188373000Y-78988960D01*
X188373000Y-77893359D01*
X188392685Y-77826320D01*
X188445489Y-77780565D01*
X188514647Y-77770621D01*
X188578203Y-77799646D01*
X188613181Y-77850025D01*
X188616421Y-77858711D01*
X188618704Y-77864832D01*
X188618706Y-77864835D01*
X188704952Y-77980044D01*
X188704955Y-77980047D01*
X188820164Y-78066293D01*
X188820171Y-78066297D01*
X188955017Y-78116591D01*
X188955016Y-78116591D01*
X188961944Y-78117335D01*
X189014627Y-78123000D01*
X190810372Y-78122999D01*
X190869983Y-78116591D01*
X191004831Y-78066296D01*
X191120046Y-77980046D01*
X191206296Y-77864831D01*
X191256591Y-77729983D01*
X191263000Y-77670373D01*
X191262999Y-75874628D01*
X191256591Y-75815017D01*
X191246872Y-75788960D01*
X191206297Y-75680171D01*
X191206293Y-75680164D01*
X191120047Y-75564955D01*
X191120044Y-75564952D01*
X191004835Y-75478706D01*
X191004828Y-75478702D01*
X190869982Y-75428408D01*
X190869983Y-75428408D01*
X190810383Y-75422001D01*
X190810381Y-75422000D01*
X190810373Y-75422000D01*
X190810364Y-75422000D01*
X189014629Y-75422000D01*
X189014623Y-75422001D01*
X188955016Y-75428408D01*
X188820171Y-75478702D01*
X188820164Y-75478706D01*
X188704955Y-75564952D01*
X188704952Y-75564955D01*
X188618706Y-75680164D01*
X188618702Y-75680171D01*
X188613182Y-75694973D01*
X188571311Y-75750907D01*
X188505846Y-75775324D01*
X188437573Y-75760472D01*
X188388168Y-75711067D01*
X188373000Y-75651640D01*
X188373000Y-74897000D01*
X188392685Y-74829961D01*
X188445489Y-74784206D01*
X188497000Y-74773000D01*
X192421718Y-74773000D01*
X192488757Y-74792685D01*
X192509399Y-74809319D01*
X195600681Y-77900601D01*
X195634166Y-77961924D01*
X195637000Y-77988282D01*
X195637000Y-81688889D01*
X195617315Y-81755928D01*
X195564511Y-81801683D01*
X195495353Y-81811627D01*
X195431797Y-81782602D01*
X195419673Y-81769581D01*
X195415044Y-81764952D01*
X195299835Y-81678706D01*
X195299828Y-81678702D01*
X195164982Y-81628408D01*
X195164983Y-81628408D01*
X195105383Y-81622001D01*
X195105381Y-81622000D01*
X195105373Y-81622000D01*
X195105364Y-81622000D01*
X193209629Y-81622000D01*
X193209623Y-81622001D01*
X193150016Y-81628408D01*
X193015171Y-81678702D01*
X193015164Y-81678706D01*
X192899955Y-81764952D01*
X192899952Y-81764955D01*
X192813706Y-81880164D01*
X192813703Y-81880169D01*
X192783898Y-81960081D01*
X192742026Y-82016014D01*
X192676562Y-82040431D01*
X192608289Y-82025579D01*
X192580035Y-82004428D01*
X192529863Y-81954256D01*
X192529858Y-81954252D01*
X192351525Y-81824687D01*
X192351524Y-81824686D01*
X192351522Y-81824685D01*
X192288596Y-81792622D01*
X192155106Y-81724604D01*
X192155103Y-81724603D01*
X191945452Y-81656485D01*
X191836586Y-81639242D01*
X191727722Y-81622000D01*
X191507278Y-81622000D01*
X191434701Y-81633495D01*
X191289547Y-81656485D01*
X191079896Y-81724603D01*
X191079893Y-81724604D01*
X190883474Y-81824687D01*
X190705141Y-81954252D01*
X190705136Y-81954256D01*
X190673712Y-81985681D01*
X190612389Y-82019166D01*
X190586031Y-82022000D01*
X190418955Y-82022000D01*
X190322312Y-82041224D01*
X190225667Y-82060447D01*
X190225661Y-82060449D01*
X190172334Y-82082537D01*
X190172334Y-82082538D01*
X190137423Y-82096999D01*
X190043589Y-82135866D01*
X190043579Y-82135871D01*
X189879718Y-82245360D01*
X189879714Y-82245363D01*
X186429297Y-85695781D01*
X186367974Y-85729266D01*
X186361015Y-85730573D01*
X186212968Y-85754022D01*
X186018278Y-85817281D01*
X185835886Y-85910215D01*
X185670286Y-86030528D01*
X185525528Y-86175286D01*
X185405215Y-86340886D01*
X185312281Y-86523276D01*
X185249022Y-86717965D01*
X185217000Y-86920148D01*
X185217000Y-87124851D01*
X185249022Y-87327034D01*
X185312281Y-87521723D01*
X185405215Y-87704113D01*
X185525528Y-87869713D01*
X185670286Y-88014471D01*
X185799129Y-88108079D01*
X185835890Y-88134787D01*
X185915835Y-88175521D01*
X186018276Y-88227718D01*
X186018278Y-88227718D01*
X186018281Y-88227720D01*
X186116964Y-88259784D01*
X186212965Y-88290977D01*
X186302399Y-88305142D01*
X186415148Y-88323000D01*
X186415149Y-88323000D01*
X186619851Y-88323000D01*
X186619852Y-88323000D01*
X186822034Y-88290977D01*
X187016719Y-88227720D01*
X187199110Y-88134787D01*
X187337654Y-88034130D01*
X187364713Y-88014471D01*
X187364715Y-88014468D01*
X187364719Y-88014466D01*
X187509466Y-87869719D01*
X187509468Y-87869715D01*
X187509471Y-87869713D01*
X187562232Y-87797090D01*
X187629787Y-87704110D01*
X187722720Y-87521719D01*
X187785977Y-87327034D01*
X187809425Y-87178983D01*
X187839354Y-87115850D01*
X187844199Y-87110719D01*
X190722366Y-84232553D01*
X190783687Y-84199070D01*
X190853379Y-84204054D01*
X190879224Y-84217927D01*
X190879322Y-84217769D01*
X190882091Y-84219466D01*
X190882924Y-84219913D01*
X190883474Y-84220312D01*
X190883478Y-84220315D01*
X190936268Y-84247213D01*
X191079893Y-84320395D01*
X191079896Y-84320396D01*
X191184721Y-84354455D01*
X191289549Y-84388515D01*
X191507278Y-84423000D01*
X191507279Y-84423000D01*
X191727721Y-84423000D01*
X191727722Y-84423000D01*
X191945451Y-84388515D01*
X192155106Y-84320395D01*
X192351522Y-84220315D01*
X192529865Y-84090742D01*
X192580036Y-84040570D01*
X192641357Y-84007086D01*
X192711048Y-84012070D01*
X192766982Y-84053941D01*
X192783898Y-84084919D01*
X192813702Y-84164828D01*
X192813706Y-84164835D01*
X192899952Y-84280044D01*
X192899955Y-84280047D01*
X193015164Y-84366293D01*
X193015171Y-84366297D01*
X193150017Y-84416591D01*
X193150016Y-84416591D01*
X193156944Y-84417335D01*
X193209627Y-84423000D01*
X195105372Y-84422999D01*
X195164983Y-84416591D01*
X195299831Y-84366296D01*
X195415046Y-84280046D01*
X195415048Y-84280042D01*
X195421317Y-84273775D01*
X195422659Y-84275117D01*
X195469667Y-84239928D01*
X195539359Y-84234944D01*
X195600682Y-84268429D01*
X195634166Y-84329752D01*
X195637000Y-84356110D01*
X195637000Y-85898000D01*
X195617315Y-85965039D01*
X195564511Y-86010794D01*
X195513000Y-86022000D01*
X195013262Y-86022000D01*
X194946223Y-86002315D01*
X194940377Y-85998318D01*
X194819113Y-85910215D01*
X194819112Y-85910214D01*
X194819110Y-85910213D01*
X194744486Y-85872190D01*
X194636723Y-85817281D01*
X194442034Y-85754022D01*
X194254190Y-85724271D01*
X194239852Y-85722000D01*
X194035148Y-85722000D01*
X194020810Y-85724271D01*
X193832965Y-85754022D01*
X193638276Y-85817281D01*
X193455886Y-85910215D01*
X193290286Y-86030528D01*
X193145528Y-86175286D01*
X193025215Y-86340886D01*
X192932281Y-86523276D01*
X192869022Y-86717965D01*
X192837000Y-86920148D01*
X192837000Y-87124851D01*
X192869022Y-87327034D01*
X192932281Y-87521723D01*
X193025215Y-87704113D01*
X193145528Y-87869713D01*
X193290286Y-88014471D01*
X193419129Y-88108079D01*
X193455890Y-88134787D01*
X193535835Y-88175521D01*
X193638276Y-88227718D01*
X193638278Y-88227718D01*
X193638281Y-88227720D01*
X193736964Y-88259784D01*
X193832965Y-88290977D01*
X193922399Y-88305142D01*
X194035148Y-88323000D01*
X194035149Y-88323000D01*
X194239851Y-88323000D01*
X194239852Y-88323000D01*
X194442034Y-88290977D01*
X194636719Y-88227720D01*
X194819110Y-88134787D01*
X194940377Y-88046681D01*
X195006183Y-88023202D01*
X195013262Y-88023000D01*
X195513000Y-88023000D01*
X195580039Y-88042685D01*
X195625794Y-88095489D01*
X195637000Y-88147000D01*
X195637000Y-91556718D01*
X195617315Y-91623757D01*
X195600681Y-91644399D01*
X195009399Y-92235681D01*
X194948076Y-92269166D01*
X194921718Y-92272000D01*
X194513262Y-92272000D01*
X194446223Y-92252315D01*
X194440377Y-92248318D01*
X194416086Y-92230670D01*
X194319110Y-92160213D01*
X194242231Y-92121041D01*
X194136723Y-92067281D01*
X193942034Y-92004022D01*
X193767495Y-91976378D01*
X193739852Y-91972000D01*
X193535148Y-91972000D01*
X193510829Y-91975851D01*
X193332965Y-92004022D01*
X193138276Y-92067281D01*
X192955886Y-92160215D01*
X192790286Y-92280528D01*
X192645528Y-92425286D01*
X192525215Y-92590886D01*
X192432281Y-92773276D01*
X192369022Y-92967965D01*
X192340087Y-93150659D01*
X192337000Y-93170148D01*
X192337000Y-93374852D01*
X192341150Y-93401055D01*
X192369022Y-93577034D01*
X192432281Y-93771723D01*
X192475198Y-93855950D01*
X192515197Y-93934453D01*
X192525215Y-93954113D01*
X192645528Y-94119713D01*
X192790286Y-94264471D01*
X192945249Y-94377056D01*
X192955890Y-94384787D01*
X193072107Y-94444003D01*
X193138276Y-94477718D01*
X193138278Y-94477718D01*
X193138281Y-94477720D01*
X193242637Y-94511627D01*
X193332965Y-94540977D01*
X193360651Y-94545362D01*
X193535148Y-94573000D01*
X193535149Y-94573000D01*
X193739851Y-94573000D01*
X193739852Y-94573000D01*
X193942034Y-94540977D01*
X194136719Y-94477720D01*
X194319110Y-94384787D01*
X194440377Y-94296681D01*
X194506183Y-94273202D01*
X194513262Y-94273000D01*
X195486043Y-94273000D01*
X195537102Y-94262843D01*
X195635447Y-94243281D01*
X195679336Y-94234551D01*
X195749485Y-94205494D01*
X195861414Y-94159132D01*
X196025282Y-94049639D01*
X196164639Y-93910282D01*
X196164640Y-93910279D01*
X196171706Y-93903214D01*
X196171708Y-93903210D01*
X196549821Y-93525097D01*
X196611141Y-93491615D01*
X196680833Y-93496599D01*
X196725180Y-93525100D01*
X197800681Y-94600601D01*
X197834166Y-94661924D01*
X197837000Y-94688282D01*
X197837000Y-95370370D01*
X197837001Y-95370376D01*
X197843408Y-95429983D01*
X197893702Y-95564828D01*
X197893703Y-95564829D01*
X197893704Y-95564831D01*
X197979954Y-95680046D01*
X197988480Y-95686428D01*
X198030350Y-95742361D01*
X198035334Y-95812052D01*
X198024653Y-95841989D01*
X197932281Y-96023276D01*
X197869022Y-96217965D01*
X197844680Y-96371658D01*
X197837000Y-96420148D01*
X197837000Y-96624852D01*
X197841378Y-96652495D01*
X197869022Y-96827034D01*
X197932281Y-97021723D01*
X197974512Y-97104604D01*
X198005201Y-97164835D01*
X198025215Y-97204113D01*
X198145528Y-97369713D01*
X198290286Y-97514471D01*
X198424573Y-97612034D01*
X198455890Y-97634787D01*
X198572107Y-97694003D01*
X198638276Y-97727718D01*
X198638278Y-97727718D01*
X198638281Y-97727720D01*
X198742637Y-97761627D01*
X198832965Y-97790977D01*
X198915984Y-97804126D01*
X199035148Y-97823000D01*
X199035149Y-97823000D01*
X199239851Y-97823000D01*
X199239852Y-97823000D01*
X199442034Y-97790977D01*
X199636719Y-97727720D01*
X199819110Y-97634787D01*
X199949972Y-97539711D01*
X199984713Y-97514471D01*
X199984715Y-97514468D01*
X199984719Y-97514466D01*
X200129466Y-97369719D01*
X200129468Y-97369715D01*
X200129471Y-97369713D01*
X200194262Y-97280534D01*
X200249787Y-97204110D01*
X200342720Y-97021719D01*
X200405977Y-96827034D01*
X200438000Y-96624852D01*
X200438000Y-96420148D01*
X200430320Y-96371658D01*
X200405977Y-96217965D01*
X200359528Y-96075011D01*
X200342720Y-96023281D01*
X200342718Y-96023278D01*
X200342718Y-96023276D01*
X200250347Y-95841989D01*
X200237451Y-95773320D01*
X200263727Y-95708579D01*
X200286526Y-95686424D01*
X200295045Y-95680047D01*
X200314445Y-95654132D01*
X200381296Y-95564831D01*
X200431591Y-95429983D01*
X200438000Y-95370373D01*
X200437999Y-93674628D01*
X200432799Y-93626257D01*
X200431591Y-93615016D01*
X200381297Y-93480171D01*
X200381293Y-93480164D01*
X200295047Y-93364955D01*
X200295044Y-93364952D01*
X200179835Y-93278706D01*
X200179828Y-93278702D01*
X200044982Y-93228408D01*
X200044983Y-93228408D01*
X199985383Y-93222001D01*
X199985381Y-93222000D01*
X199985373Y-93222000D01*
X199985365Y-93222000D01*
X199303282Y-93222000D01*
X199236243Y-93202315D01*
X199215601Y-93185681D01*
X197674319Y-91644399D01*
X197640834Y-91583076D01*
X197638000Y-91556718D01*
X197638000Y-89898924D01*
X197657685Y-89831885D01*
X197710489Y-89786130D01*
X197779647Y-89776186D01*
X197843203Y-89805211D01*
X197879931Y-89860606D01*
X197892381Y-89898924D01*
X197932280Y-90021719D01*
X198022553Y-90198890D01*
X198025215Y-90204113D01*
X198145528Y-90369713D01*
X198290286Y-90514471D01*
X198445249Y-90627056D01*
X198455890Y-90634787D01*
X198553557Y-90684551D01*
X198638276Y-90727718D01*
X198638278Y-90727718D01*
X198638281Y-90727720D01*
X198742637Y-90761627D01*
X198832965Y-90790977D01*
X198888570Y-90799784D01*
X199035148Y-90823000D01*
X199035149Y-90823000D01*
X199239851Y-90823000D01*
X199239852Y-90823000D01*
X199442034Y-90790977D01*
X199636719Y-90727720D01*
X199819110Y-90634787D01*
X199949277Y-90540216D01*
X199984713Y-90514471D01*
X199984715Y-90514468D01*
X199984719Y-90514466D01*
X200129466Y-90369719D01*
X200129468Y-90369715D01*
X200129471Y-90369713D01*
X200203304Y-90268089D01*
X200249787Y-90204110D01*
X200342720Y-90021719D01*
X200405977Y-89827034D01*
X200438000Y-89624852D01*
X200438000Y-89420148D01*
X200432111Y-89382965D01*
X200405977Y-89217965D01*
X200366333Y-89095955D01*
X200342720Y-89023281D01*
X200342718Y-89023278D01*
X200342718Y-89023276D01*
X200309003Y-88957107D01*
X200249787Y-88840890D01*
X200231181Y-88815281D01*
X200129471Y-88675286D01*
X199984713Y-88530528D01*
X199819113Y-88410215D01*
X199819112Y-88410214D01*
X199819110Y-88410213D01*
X199724487Y-88362000D01*
X199636723Y-88317281D01*
X199442034Y-88254022D01*
X199267495Y-88226378D01*
X199239852Y-88222000D01*
X199035148Y-88222000D01*
X199010829Y-88225851D01*
X198832965Y-88254022D01*
X198638276Y-88317281D01*
X198455886Y-88410215D01*
X198290286Y-88530528D01*
X198145528Y-88675286D01*
X198025215Y-88840886D01*
X197932281Y-89023276D01*
X197879931Y-89184394D01*
X197840493Y-89242069D01*
X197776134Y-89269267D01*
X197707288Y-89257352D01*
X197655812Y-89210108D01*
X197638000Y-89146075D01*
X197638000Y-77423956D01*
X197599552Y-77230670D01*
X197599551Y-77230669D01*
X197599551Y-77230665D01*
X197599549Y-77230660D01*
X197524135Y-77048592D01*
X197524128Y-77048579D01*
X197414639Y-76884718D01*
X197414636Y-76884714D01*
X197272186Y-76742264D01*
X197272155Y-76742235D01*
X193668979Y-73139059D01*
X193668959Y-73139037D01*
X193525285Y-72995363D01*
X193525281Y-72995360D01*
X193361420Y-72885871D01*
X193361407Y-72885864D01*
X193227479Y-72830390D01*
X193227474Y-72830388D01*
X193219375Y-72827034D01*
X193179336Y-72810449D01*
X193052230Y-72785166D01*
X193048867Y-72784497D01*
X193048863Y-72784496D01*
X192986043Y-72772000D01*
X192986041Y-72772000D01*
X187853282Y-72772000D01*
X187786243Y-72752315D01*
X187765601Y-72735681D01*
X181461683Y-66431763D01*
X181428198Y-66370440D01*
X181433182Y-66300748D01*
X181437842Y-66289870D01*
X181443009Y-66279239D01*
X181453796Y-66264831D01*
X181466265Y-66231399D01*
X181468851Y-66226080D01*
X181488534Y-66204439D01*
X181506060Y-66181027D01*
X181511765Y-66178898D01*
X181515864Y-66174393D01*
X181544116Y-66166831D01*
X181571523Y-66156608D01*
X181577475Y-66157902D01*
X181583358Y-66156328D01*
X181611212Y-66165240D01*
X181639797Y-66171458D01*
X181649166Y-66177384D01*
X181649904Y-66177621D01*
X181650302Y-66178103D01*
X181653246Y-66179965D01*
X181835962Y-66312717D01*
X182029434Y-66411296D01*
X182039744Y-66416549D01*
X182257251Y-66487221D01*
X182257252Y-66487221D01*
X182257255Y-66487222D01*
X182483146Y-66523000D01*
X182483147Y-66523000D01*
X182711853Y-66523000D01*
X182711854Y-66523000D01*
X182937745Y-66487222D01*
X182937748Y-66487221D01*
X182937749Y-66487221D01*
X183155255Y-66416549D01*
X183155255Y-66416548D01*
X183155258Y-66416548D01*
X183359038Y-66312717D01*
X183544066Y-66178286D01*
X183705786Y-66016566D01*
X183840217Y-65831538D01*
X183944048Y-65627758D01*
X183961919Y-65572758D01*
X184014721Y-65410249D01*
X184014721Y-65410248D01*
X184014722Y-65410245D01*
X184050500Y-65184354D01*
X184050500Y-64860646D01*
X184014722Y-64634755D01*
X184014721Y-64634751D01*
X184014721Y-64634750D01*
X183944049Y-64417244D01*
X183927258Y-64384289D01*
X183840217Y-64213462D01*
X183705786Y-64028434D01*
X183544066Y-63866714D01*
X183379732Y-63747318D01*
X183337067Y-63691988D01*
X183331088Y-63622374D01*
X183363694Y-63560579D01*
X183424533Y-63526222D01*
X183452618Y-63523000D01*
X191645999Y-63523000D01*
X191713038Y-63542685D01*
X191758793Y-63595489D01*
X191768737Y-63664647D01*
X191745265Y-63721310D01*
X191734352Y-63735889D01*
X191701204Y-63780168D01*
X191701202Y-63780171D01*
X191650908Y-63915017D01*
X191644501Y-63974616D01*
X191644500Y-63974635D01*
X191644500Y-66070370D01*
X191644501Y-66070376D01*
X191650908Y-66129983D01*
X191701202Y-66264828D01*
X191701206Y-66264835D01*
X191787452Y-66380044D01*
X191787455Y-66380047D01*
X191902664Y-66466293D01*
X191902673Y-66466298D01*
X191997599Y-66501702D01*
X192016333Y-66508690D01*
X192023125Y-66511223D01*
X192079059Y-66553093D01*
X192101410Y-66603214D01*
X192127492Y-66734336D01*
X192135447Y-66774329D01*
X192135449Y-66774337D01*
X192210864Y-66956407D01*
X192210871Y-66956420D01*
X192320360Y-67120281D01*
X192320363Y-67120285D01*
X192464037Y-67263959D01*
X192464059Y-67263979D01*
X201350681Y-76150601D01*
X201384166Y-76211924D01*
X201387000Y-76238282D01*
X201387000Y-78448000D01*
X201367315Y-78515039D01*
X201314511Y-78560794D01*
X201263001Y-78572000D01*
X201139630Y-78572000D01*
X201139623Y-78572001D01*
X201080016Y-78578408D01*
X200945171Y-78628702D01*
X200945164Y-78628706D01*
X200829955Y-78714952D01*
X200829952Y-78714955D01*
X200743706Y-78830164D01*
X200743702Y-78830171D01*
X200693408Y-78965017D01*
X200687001Y-79024616D01*
X200687001Y-79024623D01*
X200687000Y-79024635D01*
X200687000Y-81520370D01*
X200687001Y-81520376D01*
X200693408Y-81579983D01*
X200743702Y-81714828D01*
X200743706Y-81714835D01*
X200829952Y-81830044D01*
X200829955Y-81830047D01*
X200945164Y-81916293D01*
X200945171Y-81916297D01*
X200990118Y-81933061D01*
X201080017Y-81966591D01*
X201139627Y-81973000D01*
X201263000Y-81972999D01*
X201330039Y-81992683D01*
X201375794Y-82045487D01*
X201387000Y-82096999D01*
X201387000Y-87821042D01*
X201401819Y-87895545D01*
X201401821Y-87895554D01*
X201402634Y-87899639D01*
X201425449Y-88014336D01*
X201446601Y-88065400D01*
X201449666Y-88072800D01*
X201449667Y-88072803D01*
X201500864Y-88196406D01*
X201500871Y-88196419D01*
X201610360Y-88360282D01*
X201754037Y-88503959D01*
X201754059Y-88503979D01*
X204409898Y-91159818D01*
X204443383Y-91221141D01*
X204438399Y-91290833D01*
X204409898Y-91335180D01*
X204199193Y-91545886D01*
X203999721Y-91745358D01*
X203999718Y-91745361D01*
X203959614Y-91785465D01*
X203860359Y-91884719D01*
X203750871Y-92048579D01*
X203750864Y-92048592D01*
X203675450Y-92230660D01*
X203675447Y-92230670D01*
X203637000Y-92423956D01*
X203637000Y-97571717D01*
X203617315Y-97638756D01*
X203600681Y-97659398D01*
X198374003Y-102886076D01*
X198312680Y-102919561D01*
X198297143Y-102921852D01*
X198086260Y-102955253D01*
X197884085Y-103020944D01*
X197694679Y-103117451D01*
X197522715Y-103242389D01*
X197409173Y-103355931D01*
X197347850Y-103389415D01*
X197278158Y-103384431D01*
X197222225Y-103342559D01*
X197205310Y-103311582D01*
X197156297Y-103180171D01*
X197156293Y-103180164D01*
X197070047Y-103064955D01*
X197070044Y-103064952D01*
X196954835Y-102978706D01*
X196954828Y-102978702D01*
X196819982Y-102928408D01*
X196819983Y-102928408D01*
X196760383Y-102922001D01*
X196760381Y-102922000D01*
X196760373Y-102922000D01*
X196760364Y-102922000D01*
X194964629Y-102922000D01*
X194964623Y-102922001D01*
X194905016Y-102928408D01*
X194770171Y-102978702D01*
X194770164Y-102978706D01*
X194654955Y-103064952D01*
X194654952Y-103064955D01*
X194568706Y-103180164D01*
X194568702Y-103180171D01*
X194518408Y-103315017D01*
X194513650Y-103359276D01*
X194512001Y-103374623D01*
X194512000Y-103374635D01*
X194512000Y-105170370D01*
X194512001Y-105170376D01*
X194518408Y-105229983D01*
X194568702Y-105364828D01*
X194568706Y-105364835D01*
X194654952Y-105480044D01*
X194654955Y-105480047D01*
X194770164Y-105566293D01*
X194770171Y-105566297D01*
X194905017Y-105616591D01*
X194905016Y-105616591D01*
X194911944Y-105617335D01*
X194964627Y-105623000D01*
X196760372Y-105622999D01*
X196819983Y-105616591D01*
X196954831Y-105566296D01*
X197070046Y-105480046D01*
X197156296Y-105364831D01*
X197205310Y-105233416D01*
X197247181Y-105177484D01*
X197312645Y-105153066D01*
X197380918Y-105167917D01*
X197409173Y-105189069D01*
X197522713Y-105302609D01*
X197694679Y-105427548D01*
X197694681Y-105427549D01*
X197694684Y-105427551D01*
X197884088Y-105524057D01*
X198086257Y-105589746D01*
X198296213Y-105623000D01*
X198296214Y-105623000D01*
X198508786Y-105623000D01*
X198508787Y-105623000D01*
X198718743Y-105589746D01*
X198920912Y-105524057D01*
X199110316Y-105427551D01*
X199141289Y-105405048D01*
X199282286Y-105302609D01*
X199282288Y-105302606D01*
X199282292Y-105302604D01*
X199432604Y-105152292D01*
X199432606Y-105152288D01*
X199432609Y-105152286D01*
X199557548Y-104980320D01*
X199557547Y-104980320D01*
X199557551Y-104980316D01*
X199597857Y-104901211D01*
X204787000Y-104901211D01*
X204787000Y-105143788D01*
X204818661Y-105384285D01*
X204881447Y-105618604D01*
X204934493Y-105746667D01*
X204974276Y-105842712D01*
X205095564Y-106052789D01*
X205095566Y-106052792D01*
X205095567Y-106052793D01*
X205243233Y-106245236D01*
X205243239Y-106245243D01*
X205414756Y-106416760D01*
X205414763Y-106416766D01*
X205468592Y-106458070D01*
X205607211Y-106564436D01*
X205817288Y-106685724D01*
X205978633Y-106752555D01*
X206037189Y-106776810D01*
X206041400Y-106778554D01*
X206275711Y-106841338D01*
X206456086Y-106865084D01*
X206516211Y-106873000D01*
X206516212Y-106873000D01*
X206758789Y-106873000D01*
X206806888Y-106866667D01*
X206999289Y-106841338D01*
X207233600Y-106778554D01*
X207457712Y-106685724D01*
X207667789Y-106564436D01*
X207860238Y-106416765D01*
X208031765Y-106245238D01*
X208179436Y-106052789D01*
X208300724Y-105842712D01*
X208393554Y-105618600D01*
X208456338Y-105384289D01*
X208488000Y-105143788D01*
X208488000Y-104901212D01*
X208456338Y-104660711D01*
X208393554Y-104426400D01*
X208300724Y-104202288D01*
X208179436Y-103992211D01*
X208031765Y-103799762D01*
X208031760Y-103799756D01*
X207860243Y-103628239D01*
X207860236Y-103628233D01*
X207667793Y-103480567D01*
X207667792Y-103480566D01*
X207667789Y-103480564D01*
X207484304Y-103374629D01*
X207457714Y-103359277D01*
X207457705Y-103359273D01*
X207233604Y-103266447D01*
X206999285Y-103203661D01*
X206758789Y-103172000D01*
X206758788Y-103172000D01*
X206516212Y-103172000D01*
X206516211Y-103172000D01*
X206275714Y-103203661D01*
X206041395Y-103266447D01*
X205817294Y-103359273D01*
X205817285Y-103359277D01*
X205607206Y-103480567D01*
X205414763Y-103628233D01*
X205414756Y-103628239D01*
X205243239Y-103799756D01*
X205243233Y-103799763D01*
X205095567Y-103992206D01*
X204974277Y-104202285D01*
X204974273Y-104202294D01*
X204881447Y-104426395D01*
X204818661Y-104660714D01*
X204787000Y-104901211D01*
X199597857Y-104901211D01*
X199635381Y-104827567D01*
X199654053Y-104790920D01*
X199654054Y-104790919D01*
X199654054Y-104790915D01*
X199654057Y-104790912D01*
X199719746Y-104588743D01*
X199753000Y-104378787D01*
X199753000Y-104378785D01*
X199753762Y-104373975D01*
X199754821Y-104374142D01*
X199777861Y-104313672D01*
X199788916Y-104301003D01*
X205414640Y-98675281D01*
X205524132Y-98511414D01*
X205599552Y-98329335D01*
X205638001Y-98136040D01*
X205638001Y-97938959D01*
X205638001Y-97933849D01*
X205638000Y-97933823D01*
X205638000Y-94990332D01*
X205657685Y-94923293D01*
X205710489Y-94877538D01*
X205779647Y-94867594D01*
X205834885Y-94890014D01*
X205962374Y-94982639D01*
X205979999Y-94995444D01*
X206155939Y-95085091D01*
X206281137Y-95125770D01*
X206343736Y-95146110D01*
X206538764Y-95177000D01*
X206538769Y-95177000D01*
X206736236Y-95177000D01*
X206931263Y-95146110D01*
X207119061Y-95085091D01*
X207295001Y-94995444D01*
X207439853Y-94890204D01*
X207454746Y-94879384D01*
X207454748Y-94879381D01*
X207454752Y-94879379D01*
X207594379Y-94739752D01*
X207594381Y-94739748D01*
X207594384Y-94739746D01*
X207669090Y-94636920D01*
X207710444Y-94580001D01*
X207800091Y-94404061D01*
X207861110Y-94216263D01*
X207870159Y-94159132D01*
X207892000Y-94021236D01*
X207892000Y-93823763D01*
X207861110Y-93628736D01*
X207820194Y-93502811D01*
X207800091Y-93440939D01*
X207710444Y-93264999D01*
X207683860Y-93228409D01*
X207594384Y-93105253D01*
X207454746Y-92965615D01*
X207295005Y-92849558D01*
X207286837Y-92845396D01*
X207164346Y-92782983D01*
X207113552Y-92735010D01*
X207096757Y-92667189D01*
X207119294Y-92601054D01*
X207164345Y-92562017D01*
X207295001Y-92495444D01*
X207391573Y-92425281D01*
X207454746Y-92379384D01*
X207454748Y-92379381D01*
X207454752Y-92379379D01*
X207594379Y-92239752D01*
X207594381Y-92239748D01*
X207594384Y-92239746D01*
X207645279Y-92169692D01*
X207710444Y-92080001D01*
X207800091Y-91904061D01*
X207861110Y-91716263D01*
X207872492Y-91644399D01*
X207892000Y-91521236D01*
X207892000Y-91323763D01*
X207861110Y-91128736D01*
X207840770Y-91066137D01*
X207800091Y-90940939D01*
X207710444Y-90764999D01*
X207702986Y-90754734D01*
X207594384Y-90605253D01*
X207454746Y-90465615D01*
X207295005Y-90349558D01*
X207284313Y-90344110D01*
X207164346Y-90282983D01*
X207113552Y-90235010D01*
X207096757Y-90167189D01*
X207119294Y-90101054D01*
X207164345Y-90062017D01*
X207295001Y-89995444D01*
X207334104Y-89967034D01*
X207454746Y-89879384D01*
X207454748Y-89879381D01*
X207454752Y-89879379D01*
X207594379Y-89739752D01*
X207594381Y-89739748D01*
X207594384Y-89739746D01*
X207677858Y-89624852D01*
X207710444Y-89580001D01*
X207800091Y-89404061D01*
X207861110Y-89216263D01*
X207869502Y-89163278D01*
X207892000Y-89021236D01*
X207892000Y-88823763D01*
X207861110Y-88628736D01*
X207840770Y-88566137D01*
X207800091Y-88440939D01*
X207710444Y-88264999D01*
X207671986Y-88212065D01*
X207661680Y-88197879D01*
X207638202Y-88132073D01*
X207638000Y-88124996D01*
X207638000Y-70223956D01*
X207637999Y-70223954D01*
X207599553Y-70030674D01*
X207599552Y-70030672D01*
X207599551Y-70030665D01*
X207595845Y-70021719D01*
X207565691Y-69948920D01*
X207524132Y-69848586D01*
X207414639Y-69684718D01*
X207275282Y-69545361D01*
X207275281Y-69545360D01*
X201631131Y-63901211D01*
X204787000Y-63901211D01*
X204787000Y-64143788D01*
X204818661Y-64384285D01*
X204881447Y-64618604D01*
X204958923Y-64805646D01*
X204974276Y-64842712D01*
X205095564Y-65052789D01*
X205095566Y-65052792D01*
X205095567Y-65052793D01*
X205243233Y-65245236D01*
X205243239Y-65245243D01*
X205414756Y-65416760D01*
X205414762Y-65416765D01*
X205607211Y-65564436D01*
X205817288Y-65685724D01*
X206041400Y-65778554D01*
X206275711Y-65841338D01*
X206456086Y-65865084D01*
X206516211Y-65873000D01*
X206516212Y-65873000D01*
X206758789Y-65873000D01*
X206806888Y-65866667D01*
X206999289Y-65841338D01*
X207233600Y-65778554D01*
X207457712Y-65685724D01*
X207667789Y-65564436D01*
X207860238Y-65416765D01*
X208031765Y-65245238D01*
X208179436Y-65052789D01*
X208300724Y-64842712D01*
X208393554Y-64618600D01*
X208456338Y-64384289D01*
X208488000Y-64143788D01*
X208488000Y-63901212D01*
X208487143Y-63894706D01*
X208478745Y-63830911D01*
X208456338Y-63660711D01*
X208393554Y-63426400D01*
X208300724Y-63202288D01*
X208179436Y-62992211D01*
X208031765Y-62799762D01*
X208031760Y-62799756D01*
X207860243Y-62628239D01*
X207860236Y-62628233D01*
X207667793Y-62480567D01*
X207667792Y-62480566D01*
X207667789Y-62480564D01*
X207457712Y-62359276D01*
X207457705Y-62359273D01*
X207233604Y-62266447D01*
X206999285Y-62203661D01*
X206758789Y-62172000D01*
X206758788Y-62172000D01*
X206516212Y-62172000D01*
X206516211Y-62172000D01*
X206275714Y-62203661D01*
X206041395Y-62266447D01*
X205817294Y-62359273D01*
X205817285Y-62359277D01*
X205607206Y-62480567D01*
X205414763Y-62628233D01*
X205414756Y-62628239D01*
X205243239Y-62799756D01*
X205243233Y-62799763D01*
X205095567Y-62992206D01*
X204974277Y-63202285D01*
X204974273Y-63202294D01*
X204881447Y-63426395D01*
X204818661Y-63660714D01*
X204787000Y-63901211D01*
X201631131Y-63901211D01*
X198014640Y-60284720D01*
X198014639Y-60284718D01*
X197964601Y-60234680D01*
X197932093Y-60175145D01*
X197931117Y-60173358D01*
X197936101Y-60103666D01*
X197946627Y-60089604D01*
X197977973Y-60047732D01*
X198025653Y-60029948D01*
X198043437Y-60023316D01*
X198052283Y-60023000D01*
X206071608Y-60023000D01*
X206134794Y-60023000D01*
X206140202Y-60023117D01*
G37*
%TD.AperFunction*%
%TD*%
M02*
