%TF.GenerationSoftware,KiCad,Pcbnew,8.0.7*%
%TF.CreationDate,2025-03-05T10:45:31+02:00*%
%TF.ProjectId,H bridge,48206272-6964-4676-952e-6b696361645f,rev?*%
%TF.SameCoordinates,Original*%
%TF.FileFunction,Drillmap*%
%TF.FilePolarity,Positive*%
%FSLAX45Y45*%
G04 Gerber Fmt 4.5, Leading zero omitted, Abs format (unit mm)*
G04 Created by KiCad (PCBNEW 8.0.7) date 2025-03-05 10:45:31*
%MOMM*%
%LPD*%
G01*
G04 APERTURE LIST*
%ADD10C,0.050000*%
%ADD11C,0.200000*%
%ADD12C,0.100000*%
%ADD13C,0.110000*%
G04 APERTURE END LIST*
D10*
X15600000Y-8750000D02*
X15600000Y-4750000D01*
X15600000Y-8750000D02*
G75*
G02*
X15100000Y-9250000I-500000J0D01*
G01*
X15100000Y-4250000D02*
G75*
G02*
X15600000Y-4750000I0J-500000D01*
G01*
X15100000Y-4250000D02*
X10500000Y-4250000D01*
X10000000Y-4750000D02*
X10000000Y-8750000D01*
X10000000Y-4750000D02*
G75*
G02*
X10500000Y-4250000I500000J0D01*
G01*
X10500000Y-9250000D02*
G75*
G02*
X10000000Y-8750000I0J500000D01*
G01*
X10500000Y-9250000D02*
X15100000Y-9250000D01*
D11*
D12*
X14241000Y-7875000D02*
X14291000Y-7925000D01*
X14291000Y-7875000D02*
X14241000Y-7925000D01*
X12451500Y-8325000D02*
G75*
G02*
X12376500Y-8325000I-37500J0D01*
G01*
X12376500Y-8325000D02*
G75*
G02*
X12451500Y-8325000I37500J0D01*
G01*
X12578500Y-8325000D02*
G75*
G02*
X12503500Y-8325000I-37500J0D01*
G01*
X12503500Y-8325000D02*
G75*
G02*
X12578500Y-8325000I37500J0D01*
G01*
X12705500Y-8325000D02*
G75*
G02*
X12630500Y-8325000I-37500J0D01*
G01*
X12630500Y-8325000D02*
G75*
G02*
X12705500Y-8325000I37500J0D01*
G01*
X13101500Y-8596000D02*
G75*
G02*
X13026500Y-8596000I-37500J0D01*
G01*
X13026500Y-8596000D02*
G75*
G02*
X13101500Y-8596000I37500J0D01*
G01*
X13228500Y-8596000D02*
G75*
G02*
X13153500Y-8596000I-37500J0D01*
G01*
X13153500Y-8596000D02*
G75*
G02*
X13228500Y-8596000I37500J0D01*
G01*
X13355500Y-8596000D02*
G75*
G02*
X13280500Y-8596000I-37500J0D01*
G01*
X13280500Y-8596000D02*
G75*
G02*
X13355500Y-8596000I37500J0D01*
G01*
X14407500Y-6266000D02*
G75*
G02*
X14332500Y-6266000I-37500J0D01*
G01*
X14332500Y-6266000D02*
G75*
G02*
X14407500Y-6266000I37500J0D01*
G01*
X14407500Y-6393000D02*
G75*
G02*
X14332500Y-6393000I-37500J0D01*
G01*
X14332500Y-6393000D02*
G75*
G02*
X14407500Y-6393000I37500J0D01*
G01*
X14407500Y-6520000D02*
G75*
G02*
X14332500Y-6520000I-37500J0D01*
G01*
X14332500Y-6520000D02*
G75*
G02*
X14407500Y-6520000I37500J0D01*
G01*
X11011000Y-6432000D02*
X11011000Y-6512000D01*
X10971000Y-6472000D02*
X11051000Y-6472000D01*
X11011000Y-7448000D02*
X11011000Y-7528000D01*
X10971000Y-7488000D02*
X11051000Y-7488000D01*
X11016000Y-7727000D02*
X11016000Y-7807000D01*
X10976000Y-7767000D02*
X11056000Y-7767000D01*
X11016000Y-8743000D02*
X11016000Y-8823000D01*
X10976000Y-8783000D02*
X11056000Y-8783000D01*
X13491000Y-5885000D02*
X13491000Y-5965000D01*
X13451000Y-5925000D02*
X13531000Y-5925000D01*
X13783000Y-7260000D02*
X13783000Y-7340000D01*
X13743000Y-7300000D02*
X13823000Y-7300000D01*
X14507000Y-5885000D02*
X14507000Y-5965000D01*
X14467000Y-5925000D02*
X14547000Y-5925000D01*
X14799000Y-7260000D02*
X14799000Y-7340000D01*
X14759000Y-7300000D02*
X14839000Y-7300000D01*
X14811000Y-5852000D02*
X14811000Y-5932000D01*
X14771000Y-5892000D02*
X14851000Y-5892000D01*
X14811000Y-6868000D02*
X14811000Y-6948000D01*
X14771000Y-6908000D02*
X14851000Y-6908000D01*
X10546356Y-6495356D02*
X10546356Y-6424644D01*
X10475644Y-6424644D01*
X10475644Y-6495356D01*
X10546356Y-6495356D01*
X10546356Y-6745356D02*
X10546356Y-6674644D01*
X10475644Y-6674644D01*
X10475644Y-6745356D01*
X10546356Y-6745356D01*
X10546356Y-6995356D02*
X10546356Y-6924644D01*
X10475644Y-6924644D01*
X10475644Y-6995356D01*
X10546356Y-6995356D01*
X11349856Y-4985356D02*
X11349856Y-4914644D01*
X11279144Y-4914644D01*
X11279144Y-4985356D01*
X11349856Y-4985356D01*
X11603856Y-4985356D02*
X11603856Y-4914644D01*
X11533144Y-4914644D01*
X11533144Y-4985356D01*
X11603856Y-4985356D01*
X12722356Y-4985356D02*
X12722356Y-4914644D01*
X12651644Y-4914644D01*
X12651644Y-4985356D01*
X12722356Y-4985356D01*
X12976356Y-4985356D02*
X12976356Y-4914644D01*
X12905644Y-4914644D01*
X12905644Y-4985356D01*
X12976356Y-4985356D01*
X14018356Y-4985356D02*
X14018356Y-4914644D01*
X13947644Y-4914644D01*
X13947644Y-4985356D01*
X14018356Y-4985356D01*
X14272356Y-4985356D02*
X14272356Y-4914644D01*
X14201644Y-4914644D01*
X14201644Y-4985356D01*
X14272356Y-4985356D01*
X14526356Y-4985356D02*
X14526356Y-4914644D01*
X14455644Y-4914644D01*
X14455644Y-4985356D01*
X14526356Y-4985356D01*
D13*
X11457000Y-6909500D02*
X11512000Y-6854500D01*
X11457000Y-6799500D01*
X11402000Y-6854500D01*
X11457000Y-6909500D01*
X11457000Y-7700500D02*
X11512000Y-7645500D01*
X11457000Y-7590500D01*
X11402000Y-7645500D01*
X11457000Y-7700500D01*
X11711000Y-6909500D02*
X11766000Y-6854500D01*
X11711000Y-6799500D01*
X11656000Y-6854500D01*
X11711000Y-6909500D01*
X11711000Y-7700500D02*
X11766000Y-7645500D01*
X11711000Y-7590500D01*
X11656000Y-7645500D01*
X11711000Y-7700500D01*
X11965000Y-6909500D02*
X12020000Y-6854500D01*
X11965000Y-6799500D01*
X11910000Y-6854500D01*
X11965000Y-6909500D01*
X11965000Y-7700500D02*
X12020000Y-7645500D01*
X11965000Y-7590500D01*
X11910000Y-7645500D01*
X11965000Y-7700500D01*
X12897000Y-6909500D02*
X12952000Y-6854500D01*
X12897000Y-6799500D01*
X12842000Y-6854500D01*
X12897000Y-6909500D01*
X12917000Y-7700500D02*
X12972000Y-7645500D01*
X12917000Y-7590500D01*
X12862000Y-7645500D01*
X12917000Y-7700500D01*
X13151000Y-6909500D02*
X13206000Y-6854500D01*
X13151000Y-6799500D01*
X13096000Y-6854500D01*
X13151000Y-6909500D01*
X13171000Y-7700500D02*
X13226000Y-7645500D01*
X13171000Y-7590500D01*
X13116000Y-7645500D01*
X13171000Y-7700500D01*
X13203000Y-8215000D02*
X13258000Y-8160000D01*
X13203000Y-8105000D01*
X13148000Y-8160000D01*
X13203000Y-8215000D01*
X13405000Y-6909500D02*
X13460000Y-6854500D01*
X13405000Y-6799500D01*
X13350000Y-6854500D01*
X13405000Y-6909500D01*
X13425000Y-7700500D02*
X13480000Y-7645500D01*
X13425000Y-7590500D01*
X13370000Y-7645500D01*
X13425000Y-7700500D01*
X14219000Y-8215000D02*
X14274000Y-8160000D01*
X14219000Y-8105000D01*
X14164000Y-8160000D01*
X14219000Y-8215000D01*
D11*
X10258277Y-9563984D02*
X10258277Y-9363984D01*
X10258277Y-9363984D02*
X10305896Y-9363984D01*
X10305896Y-9363984D02*
X10334467Y-9373508D01*
X10334467Y-9373508D02*
X10353515Y-9392555D01*
X10353515Y-9392555D02*
X10363039Y-9411603D01*
X10363039Y-9411603D02*
X10372563Y-9449698D01*
X10372563Y-9449698D02*
X10372563Y-9478270D01*
X10372563Y-9478270D02*
X10363039Y-9516365D01*
X10363039Y-9516365D02*
X10353515Y-9535412D01*
X10353515Y-9535412D02*
X10334467Y-9554460D01*
X10334467Y-9554460D02*
X10305896Y-9563984D01*
X10305896Y-9563984D02*
X10258277Y-9563984D01*
X10458277Y-9563984D02*
X10458277Y-9430650D01*
X10458277Y-9468746D02*
X10467801Y-9449698D01*
X10467801Y-9449698D02*
X10477324Y-9440174D01*
X10477324Y-9440174D02*
X10496372Y-9430650D01*
X10496372Y-9430650D02*
X10515420Y-9430650D01*
X10582086Y-9563984D02*
X10582086Y-9430650D01*
X10582086Y-9363984D02*
X10572563Y-9373508D01*
X10572563Y-9373508D02*
X10582086Y-9383031D01*
X10582086Y-9383031D02*
X10591610Y-9373508D01*
X10591610Y-9373508D02*
X10582086Y-9363984D01*
X10582086Y-9363984D02*
X10582086Y-9383031D01*
X10705896Y-9563984D02*
X10686848Y-9554460D01*
X10686848Y-9554460D02*
X10677324Y-9535412D01*
X10677324Y-9535412D02*
X10677324Y-9363984D01*
X10810658Y-9563984D02*
X10791610Y-9554460D01*
X10791610Y-9554460D02*
X10782086Y-9535412D01*
X10782086Y-9535412D02*
X10782086Y-9363984D01*
X11039229Y-9563984D02*
X11039229Y-9363984D01*
X11039229Y-9363984D02*
X11105896Y-9506841D01*
X11105896Y-9506841D02*
X11172563Y-9363984D01*
X11172563Y-9363984D02*
X11172563Y-9563984D01*
X11353515Y-9563984D02*
X11353515Y-9459222D01*
X11353515Y-9459222D02*
X11343991Y-9440174D01*
X11343991Y-9440174D02*
X11324943Y-9430650D01*
X11324943Y-9430650D02*
X11286848Y-9430650D01*
X11286848Y-9430650D02*
X11267801Y-9440174D01*
X11353515Y-9554460D02*
X11334467Y-9563984D01*
X11334467Y-9563984D02*
X11286848Y-9563984D01*
X11286848Y-9563984D02*
X11267801Y-9554460D01*
X11267801Y-9554460D02*
X11258277Y-9535412D01*
X11258277Y-9535412D02*
X11258277Y-9516365D01*
X11258277Y-9516365D02*
X11267801Y-9497317D01*
X11267801Y-9497317D02*
X11286848Y-9487793D01*
X11286848Y-9487793D02*
X11334467Y-9487793D01*
X11334467Y-9487793D02*
X11353515Y-9478270D01*
X11448753Y-9430650D02*
X11448753Y-9630650D01*
X11448753Y-9440174D02*
X11467801Y-9430650D01*
X11467801Y-9430650D02*
X11505896Y-9430650D01*
X11505896Y-9430650D02*
X11524943Y-9440174D01*
X11524943Y-9440174D02*
X11534467Y-9449698D01*
X11534467Y-9449698D02*
X11543991Y-9468746D01*
X11543991Y-9468746D02*
X11543991Y-9525889D01*
X11543991Y-9525889D02*
X11534467Y-9544936D01*
X11534467Y-9544936D02*
X11524943Y-9554460D01*
X11524943Y-9554460D02*
X11505896Y-9563984D01*
X11505896Y-9563984D02*
X11467801Y-9563984D01*
X11467801Y-9563984D02*
X11448753Y-9554460D01*
X11629705Y-9544936D02*
X11639229Y-9554460D01*
X11639229Y-9554460D02*
X11629705Y-9563984D01*
X11629705Y-9563984D02*
X11620182Y-9554460D01*
X11620182Y-9554460D02*
X11629705Y-9544936D01*
X11629705Y-9544936D02*
X11629705Y-9563984D01*
X11629705Y-9440174D02*
X11639229Y-9449698D01*
X11639229Y-9449698D02*
X11629705Y-9459222D01*
X11629705Y-9459222D02*
X11620182Y-9449698D01*
X11620182Y-9449698D02*
X11629705Y-9440174D01*
X11629705Y-9440174D02*
X11629705Y-9459222D01*
D12*
X9947500Y-9867500D02*
X9997500Y-9917500D01*
X9997500Y-9867500D02*
X9947500Y-9917500D01*
D11*
X10296372Y-9783984D02*
X10315420Y-9783984D01*
X10315420Y-9783984D02*
X10334467Y-9793508D01*
X10334467Y-9793508D02*
X10343991Y-9803031D01*
X10343991Y-9803031D02*
X10353515Y-9822079D01*
X10353515Y-9822079D02*
X10363039Y-9860174D01*
X10363039Y-9860174D02*
X10363039Y-9907793D01*
X10363039Y-9907793D02*
X10353515Y-9945889D01*
X10353515Y-9945889D02*
X10343991Y-9964936D01*
X10343991Y-9964936D02*
X10334467Y-9974460D01*
X10334467Y-9974460D02*
X10315420Y-9983984D01*
X10315420Y-9983984D02*
X10296372Y-9983984D01*
X10296372Y-9983984D02*
X10277324Y-9974460D01*
X10277324Y-9974460D02*
X10267801Y-9964936D01*
X10267801Y-9964936D02*
X10258277Y-9945889D01*
X10258277Y-9945889D02*
X10248753Y-9907793D01*
X10248753Y-9907793D02*
X10248753Y-9860174D01*
X10248753Y-9860174D02*
X10258277Y-9822079D01*
X10258277Y-9822079D02*
X10267801Y-9803031D01*
X10267801Y-9803031D02*
X10277324Y-9793508D01*
X10277324Y-9793508D02*
X10296372Y-9783984D01*
X10448753Y-9964936D02*
X10458277Y-9974460D01*
X10458277Y-9974460D02*
X10448753Y-9983984D01*
X10448753Y-9983984D02*
X10439229Y-9974460D01*
X10439229Y-9974460D02*
X10448753Y-9964936D01*
X10448753Y-9964936D02*
X10448753Y-9983984D01*
X10639229Y-9783984D02*
X10543991Y-9783984D01*
X10543991Y-9783984D02*
X10534467Y-9879222D01*
X10534467Y-9879222D02*
X10543991Y-9869698D01*
X10543991Y-9869698D02*
X10563039Y-9860174D01*
X10563039Y-9860174D02*
X10610658Y-9860174D01*
X10610658Y-9860174D02*
X10629705Y-9869698D01*
X10629705Y-9869698D02*
X10639229Y-9879222D01*
X10639229Y-9879222D02*
X10648753Y-9898270D01*
X10648753Y-9898270D02*
X10648753Y-9945889D01*
X10648753Y-9945889D02*
X10639229Y-9964936D01*
X10639229Y-9964936D02*
X10629705Y-9974460D01*
X10629705Y-9974460D02*
X10610658Y-9983984D01*
X10610658Y-9983984D02*
X10563039Y-9983984D01*
X10563039Y-9983984D02*
X10543991Y-9974460D01*
X10543991Y-9974460D02*
X10534467Y-9964936D01*
X10772563Y-9783984D02*
X10791610Y-9783984D01*
X10791610Y-9783984D02*
X10810658Y-9793508D01*
X10810658Y-9793508D02*
X10820182Y-9803031D01*
X10820182Y-9803031D02*
X10829705Y-9822079D01*
X10829705Y-9822079D02*
X10839229Y-9860174D01*
X10839229Y-9860174D02*
X10839229Y-9907793D01*
X10839229Y-9907793D02*
X10829705Y-9945889D01*
X10829705Y-9945889D02*
X10820182Y-9964936D01*
X10820182Y-9964936D02*
X10810658Y-9974460D01*
X10810658Y-9974460D02*
X10791610Y-9983984D01*
X10791610Y-9983984D02*
X10772563Y-9983984D01*
X10772563Y-9983984D02*
X10753515Y-9974460D01*
X10753515Y-9974460D02*
X10743991Y-9964936D01*
X10743991Y-9964936D02*
X10734467Y-9945889D01*
X10734467Y-9945889D02*
X10724944Y-9907793D01*
X10724944Y-9907793D02*
X10724944Y-9860174D01*
X10724944Y-9860174D02*
X10734467Y-9822079D01*
X10734467Y-9822079D02*
X10743991Y-9803031D01*
X10743991Y-9803031D02*
X10753515Y-9793508D01*
X10753515Y-9793508D02*
X10772563Y-9783984D01*
X10963039Y-9783984D02*
X10982086Y-9783984D01*
X10982086Y-9783984D02*
X11001134Y-9793508D01*
X11001134Y-9793508D02*
X11010658Y-9803031D01*
X11010658Y-9803031D02*
X11020182Y-9822079D01*
X11020182Y-9822079D02*
X11029705Y-9860174D01*
X11029705Y-9860174D02*
X11029705Y-9907793D01*
X11029705Y-9907793D02*
X11020182Y-9945889D01*
X11020182Y-9945889D02*
X11010658Y-9964936D01*
X11010658Y-9964936D02*
X11001134Y-9974460D01*
X11001134Y-9974460D02*
X10982086Y-9983984D01*
X10982086Y-9983984D02*
X10963039Y-9983984D01*
X10963039Y-9983984D02*
X10943991Y-9974460D01*
X10943991Y-9974460D02*
X10934467Y-9964936D01*
X10934467Y-9964936D02*
X10924944Y-9945889D01*
X10924944Y-9945889D02*
X10915420Y-9907793D01*
X10915420Y-9907793D02*
X10915420Y-9860174D01*
X10915420Y-9860174D02*
X10924944Y-9822079D01*
X10924944Y-9822079D02*
X10934467Y-9803031D01*
X10934467Y-9803031D02*
X10943991Y-9793508D01*
X10943991Y-9793508D02*
X10963039Y-9783984D01*
X11115420Y-9983984D02*
X11115420Y-9850650D01*
X11115420Y-9869698D02*
X11124944Y-9860174D01*
X11124944Y-9860174D02*
X11143991Y-9850650D01*
X11143991Y-9850650D02*
X11172563Y-9850650D01*
X11172563Y-9850650D02*
X11191610Y-9860174D01*
X11191610Y-9860174D02*
X11201134Y-9879222D01*
X11201134Y-9879222D02*
X11201134Y-9983984D01*
X11201134Y-9879222D02*
X11210658Y-9860174D01*
X11210658Y-9860174D02*
X11229705Y-9850650D01*
X11229705Y-9850650D02*
X11258277Y-9850650D01*
X11258277Y-9850650D02*
X11277324Y-9860174D01*
X11277324Y-9860174D02*
X11286848Y-9879222D01*
X11286848Y-9879222D02*
X11286848Y-9983984D01*
X11382086Y-9983984D02*
X11382086Y-9850650D01*
X11382086Y-9869698D02*
X11391610Y-9860174D01*
X11391610Y-9860174D02*
X11410658Y-9850650D01*
X11410658Y-9850650D02*
X11439229Y-9850650D01*
X11439229Y-9850650D02*
X11458277Y-9860174D01*
X11458277Y-9860174D02*
X11467801Y-9879222D01*
X11467801Y-9879222D02*
X11467801Y-9983984D01*
X11467801Y-9879222D02*
X11477324Y-9860174D01*
X11477324Y-9860174D02*
X11496372Y-9850650D01*
X11496372Y-9850650D02*
X11524943Y-9850650D01*
X11524943Y-9850650D02*
X11543991Y-9860174D01*
X11543991Y-9860174D02*
X11553515Y-9879222D01*
X11553515Y-9879222D02*
X11553515Y-9983984D01*
X11943991Y-9774460D02*
X11772563Y-10031603D01*
X12201134Y-9783984D02*
X12220182Y-9783984D01*
X12220182Y-9783984D02*
X12239229Y-9793508D01*
X12239229Y-9793508D02*
X12248753Y-9803031D01*
X12248753Y-9803031D02*
X12258277Y-9822079D01*
X12258277Y-9822079D02*
X12267801Y-9860174D01*
X12267801Y-9860174D02*
X12267801Y-9907793D01*
X12267801Y-9907793D02*
X12258277Y-9945889D01*
X12258277Y-9945889D02*
X12248753Y-9964936D01*
X12248753Y-9964936D02*
X12239229Y-9974460D01*
X12239229Y-9974460D02*
X12220182Y-9983984D01*
X12220182Y-9983984D02*
X12201134Y-9983984D01*
X12201134Y-9983984D02*
X12182086Y-9974460D01*
X12182086Y-9974460D02*
X12172563Y-9964936D01*
X12172563Y-9964936D02*
X12163039Y-9945889D01*
X12163039Y-9945889D02*
X12153515Y-9907793D01*
X12153515Y-9907793D02*
X12153515Y-9860174D01*
X12153515Y-9860174D02*
X12163039Y-9822079D01*
X12163039Y-9822079D02*
X12172563Y-9803031D01*
X12172563Y-9803031D02*
X12182086Y-9793508D01*
X12182086Y-9793508D02*
X12201134Y-9783984D01*
X12353515Y-9964936D02*
X12363039Y-9974460D01*
X12363039Y-9974460D02*
X12353515Y-9983984D01*
X12353515Y-9983984D02*
X12343991Y-9974460D01*
X12343991Y-9974460D02*
X12353515Y-9964936D01*
X12353515Y-9964936D02*
X12353515Y-9983984D01*
X12486848Y-9783984D02*
X12505896Y-9783984D01*
X12505896Y-9783984D02*
X12524944Y-9793508D01*
X12524944Y-9793508D02*
X12534467Y-9803031D01*
X12534467Y-9803031D02*
X12543991Y-9822079D01*
X12543991Y-9822079D02*
X12553515Y-9860174D01*
X12553515Y-9860174D02*
X12553515Y-9907793D01*
X12553515Y-9907793D02*
X12543991Y-9945889D01*
X12543991Y-9945889D02*
X12534467Y-9964936D01*
X12534467Y-9964936D02*
X12524944Y-9974460D01*
X12524944Y-9974460D02*
X12505896Y-9983984D01*
X12505896Y-9983984D02*
X12486848Y-9983984D01*
X12486848Y-9983984D02*
X12467801Y-9974460D01*
X12467801Y-9974460D02*
X12458277Y-9964936D01*
X12458277Y-9964936D02*
X12448753Y-9945889D01*
X12448753Y-9945889D02*
X12439229Y-9907793D01*
X12439229Y-9907793D02*
X12439229Y-9860174D01*
X12439229Y-9860174D02*
X12448753Y-9822079D01*
X12448753Y-9822079D02*
X12458277Y-9803031D01*
X12458277Y-9803031D02*
X12467801Y-9793508D01*
X12467801Y-9793508D02*
X12486848Y-9783984D01*
X12743991Y-9983984D02*
X12629706Y-9983984D01*
X12686848Y-9983984D02*
X12686848Y-9783984D01*
X12686848Y-9783984D02*
X12667801Y-9812555D01*
X12667801Y-9812555D02*
X12648753Y-9831603D01*
X12648753Y-9831603D02*
X12629706Y-9841127D01*
X12839229Y-9983984D02*
X12877325Y-9983984D01*
X12877325Y-9983984D02*
X12896372Y-9974460D01*
X12896372Y-9974460D02*
X12905896Y-9964936D01*
X12905896Y-9964936D02*
X12924944Y-9936365D01*
X12924944Y-9936365D02*
X12934467Y-9898270D01*
X12934467Y-9898270D02*
X12934467Y-9822079D01*
X12934467Y-9822079D02*
X12924944Y-9803031D01*
X12924944Y-9803031D02*
X12915420Y-9793508D01*
X12915420Y-9793508D02*
X12896372Y-9783984D01*
X12896372Y-9783984D02*
X12858277Y-9783984D01*
X12858277Y-9783984D02*
X12839229Y-9793508D01*
X12839229Y-9793508D02*
X12829706Y-9803031D01*
X12829706Y-9803031D02*
X12820182Y-9822079D01*
X12820182Y-9822079D02*
X12820182Y-9869698D01*
X12820182Y-9869698D02*
X12829706Y-9888746D01*
X12829706Y-9888746D02*
X12839229Y-9898270D01*
X12839229Y-9898270D02*
X12858277Y-9907793D01*
X12858277Y-9907793D02*
X12896372Y-9907793D01*
X12896372Y-9907793D02*
X12915420Y-9898270D01*
X12915420Y-9898270D02*
X12924944Y-9888746D01*
X12924944Y-9888746D02*
X12934467Y-9869698D01*
X13001134Y-9783984D02*
X13134467Y-9783984D01*
X13134467Y-9783984D02*
X13048753Y-9983984D01*
X13201134Y-9783984D02*
X13201134Y-9822079D01*
X13277325Y-9783984D02*
X13277325Y-9822079D01*
X13572563Y-10060174D02*
X13563039Y-10050650D01*
X13563039Y-10050650D02*
X13543991Y-10022079D01*
X13543991Y-10022079D02*
X13534468Y-10003031D01*
X13534468Y-10003031D02*
X13524944Y-9974460D01*
X13524944Y-9974460D02*
X13515420Y-9926841D01*
X13515420Y-9926841D02*
X13515420Y-9888746D01*
X13515420Y-9888746D02*
X13524944Y-9841127D01*
X13524944Y-9841127D02*
X13534468Y-9812555D01*
X13534468Y-9812555D02*
X13543991Y-9793508D01*
X13543991Y-9793508D02*
X13563039Y-9764936D01*
X13563039Y-9764936D02*
X13572563Y-9755412D01*
X13753515Y-9983984D02*
X13639229Y-9983984D01*
X13696372Y-9983984D02*
X13696372Y-9783984D01*
X13696372Y-9783984D02*
X13677325Y-9812555D01*
X13677325Y-9812555D02*
X13658277Y-9831603D01*
X13658277Y-9831603D02*
X13639229Y-9841127D01*
X13991610Y-9983984D02*
X13991610Y-9783984D01*
X14077325Y-9983984D02*
X14077325Y-9879222D01*
X14077325Y-9879222D02*
X14067801Y-9860174D01*
X14067801Y-9860174D02*
X14048753Y-9850650D01*
X14048753Y-9850650D02*
X14020182Y-9850650D01*
X14020182Y-9850650D02*
X14001134Y-9860174D01*
X14001134Y-9860174D02*
X13991610Y-9869698D01*
X14201134Y-9983984D02*
X14182087Y-9974460D01*
X14182087Y-9974460D02*
X14172563Y-9964936D01*
X14172563Y-9964936D02*
X14163039Y-9945889D01*
X14163039Y-9945889D02*
X14163039Y-9888746D01*
X14163039Y-9888746D02*
X14172563Y-9869698D01*
X14172563Y-9869698D02*
X14182087Y-9860174D01*
X14182087Y-9860174D02*
X14201134Y-9850650D01*
X14201134Y-9850650D02*
X14229706Y-9850650D01*
X14229706Y-9850650D02*
X14248753Y-9860174D01*
X14248753Y-9860174D02*
X14258277Y-9869698D01*
X14258277Y-9869698D02*
X14267801Y-9888746D01*
X14267801Y-9888746D02*
X14267801Y-9945889D01*
X14267801Y-9945889D02*
X14258277Y-9964936D01*
X14258277Y-9964936D02*
X14248753Y-9974460D01*
X14248753Y-9974460D02*
X14229706Y-9983984D01*
X14229706Y-9983984D02*
X14201134Y-9983984D01*
X14382087Y-9983984D02*
X14363039Y-9974460D01*
X14363039Y-9974460D02*
X14353515Y-9955412D01*
X14353515Y-9955412D02*
X14353515Y-9783984D01*
X14534468Y-9974460D02*
X14515420Y-9983984D01*
X14515420Y-9983984D02*
X14477325Y-9983984D01*
X14477325Y-9983984D02*
X14458277Y-9974460D01*
X14458277Y-9974460D02*
X14448753Y-9955412D01*
X14448753Y-9955412D02*
X14448753Y-9879222D01*
X14448753Y-9879222D02*
X14458277Y-9860174D01*
X14458277Y-9860174D02*
X14477325Y-9850650D01*
X14477325Y-9850650D02*
X14515420Y-9850650D01*
X14515420Y-9850650D02*
X14534468Y-9860174D01*
X14534468Y-9860174D02*
X14543991Y-9879222D01*
X14543991Y-9879222D02*
X14543991Y-9898270D01*
X14543991Y-9898270D02*
X14448753Y-9917317D01*
X14610658Y-10060174D02*
X14620182Y-10050650D01*
X14620182Y-10050650D02*
X14639230Y-10022079D01*
X14639230Y-10022079D02*
X14648753Y-10003031D01*
X14648753Y-10003031D02*
X14658277Y-9974460D01*
X14658277Y-9974460D02*
X14667801Y-9926841D01*
X14667801Y-9926841D02*
X14667801Y-9888746D01*
X14667801Y-9888746D02*
X14658277Y-9841127D01*
X14658277Y-9841127D02*
X14648753Y-9812555D01*
X14648753Y-9812555D02*
X14639230Y-9793508D01*
X14639230Y-9793508D02*
X14620182Y-9764936D01*
X14620182Y-9764936D02*
X14610658Y-9755412D01*
D12*
X9997500Y-10156500D02*
G75*
G02*
X9922500Y-10156500I-37500J0D01*
G01*
X9922500Y-10156500D02*
G75*
G02*
X9997500Y-10156500I37500J0D01*
G01*
D11*
X10296372Y-10047984D02*
X10315420Y-10047984D01*
X10315420Y-10047984D02*
X10334467Y-10057508D01*
X10334467Y-10057508D02*
X10343991Y-10067031D01*
X10343991Y-10067031D02*
X10353515Y-10086079D01*
X10353515Y-10086079D02*
X10363039Y-10124174D01*
X10363039Y-10124174D02*
X10363039Y-10171793D01*
X10363039Y-10171793D02*
X10353515Y-10209889D01*
X10353515Y-10209889D02*
X10343991Y-10228936D01*
X10343991Y-10228936D02*
X10334467Y-10238460D01*
X10334467Y-10238460D02*
X10315420Y-10247984D01*
X10315420Y-10247984D02*
X10296372Y-10247984D01*
X10296372Y-10247984D02*
X10277324Y-10238460D01*
X10277324Y-10238460D02*
X10267801Y-10228936D01*
X10267801Y-10228936D02*
X10258277Y-10209889D01*
X10258277Y-10209889D02*
X10248753Y-10171793D01*
X10248753Y-10171793D02*
X10248753Y-10124174D01*
X10248753Y-10124174D02*
X10258277Y-10086079D01*
X10258277Y-10086079D02*
X10267801Y-10067031D01*
X10267801Y-10067031D02*
X10277324Y-10057508D01*
X10277324Y-10057508D02*
X10296372Y-10047984D01*
X10448753Y-10228936D02*
X10458277Y-10238460D01*
X10458277Y-10238460D02*
X10448753Y-10247984D01*
X10448753Y-10247984D02*
X10439229Y-10238460D01*
X10439229Y-10238460D02*
X10448753Y-10228936D01*
X10448753Y-10228936D02*
X10448753Y-10247984D01*
X10524944Y-10047984D02*
X10658277Y-10047984D01*
X10658277Y-10047984D02*
X10572563Y-10247984D01*
X10829705Y-10047984D02*
X10734467Y-10047984D01*
X10734467Y-10047984D02*
X10724944Y-10143222D01*
X10724944Y-10143222D02*
X10734467Y-10133698D01*
X10734467Y-10133698D02*
X10753515Y-10124174D01*
X10753515Y-10124174D02*
X10801134Y-10124174D01*
X10801134Y-10124174D02*
X10820182Y-10133698D01*
X10820182Y-10133698D02*
X10829705Y-10143222D01*
X10829705Y-10143222D02*
X10839229Y-10162270D01*
X10839229Y-10162270D02*
X10839229Y-10209889D01*
X10839229Y-10209889D02*
X10829705Y-10228936D01*
X10829705Y-10228936D02*
X10820182Y-10238460D01*
X10820182Y-10238460D02*
X10801134Y-10247984D01*
X10801134Y-10247984D02*
X10753515Y-10247984D01*
X10753515Y-10247984D02*
X10734467Y-10238460D01*
X10734467Y-10238460D02*
X10724944Y-10228936D01*
X10963039Y-10047984D02*
X10982086Y-10047984D01*
X10982086Y-10047984D02*
X11001134Y-10057508D01*
X11001134Y-10057508D02*
X11010658Y-10067031D01*
X11010658Y-10067031D02*
X11020182Y-10086079D01*
X11020182Y-10086079D02*
X11029705Y-10124174D01*
X11029705Y-10124174D02*
X11029705Y-10171793D01*
X11029705Y-10171793D02*
X11020182Y-10209889D01*
X11020182Y-10209889D02*
X11010658Y-10228936D01*
X11010658Y-10228936D02*
X11001134Y-10238460D01*
X11001134Y-10238460D02*
X10982086Y-10247984D01*
X10982086Y-10247984D02*
X10963039Y-10247984D01*
X10963039Y-10247984D02*
X10943991Y-10238460D01*
X10943991Y-10238460D02*
X10934467Y-10228936D01*
X10934467Y-10228936D02*
X10924944Y-10209889D01*
X10924944Y-10209889D02*
X10915420Y-10171793D01*
X10915420Y-10171793D02*
X10915420Y-10124174D01*
X10915420Y-10124174D02*
X10924944Y-10086079D01*
X10924944Y-10086079D02*
X10934467Y-10067031D01*
X10934467Y-10067031D02*
X10943991Y-10057508D01*
X10943991Y-10057508D02*
X10963039Y-10047984D01*
X11115420Y-10247984D02*
X11115420Y-10114650D01*
X11115420Y-10133698D02*
X11124944Y-10124174D01*
X11124944Y-10124174D02*
X11143991Y-10114650D01*
X11143991Y-10114650D02*
X11172563Y-10114650D01*
X11172563Y-10114650D02*
X11191610Y-10124174D01*
X11191610Y-10124174D02*
X11201134Y-10143222D01*
X11201134Y-10143222D02*
X11201134Y-10247984D01*
X11201134Y-10143222D02*
X11210658Y-10124174D01*
X11210658Y-10124174D02*
X11229705Y-10114650D01*
X11229705Y-10114650D02*
X11258277Y-10114650D01*
X11258277Y-10114650D02*
X11277324Y-10124174D01*
X11277324Y-10124174D02*
X11286848Y-10143222D01*
X11286848Y-10143222D02*
X11286848Y-10247984D01*
X11382086Y-10247984D02*
X11382086Y-10114650D01*
X11382086Y-10133698D02*
X11391610Y-10124174D01*
X11391610Y-10124174D02*
X11410658Y-10114650D01*
X11410658Y-10114650D02*
X11439229Y-10114650D01*
X11439229Y-10114650D02*
X11458277Y-10124174D01*
X11458277Y-10124174D02*
X11467801Y-10143222D01*
X11467801Y-10143222D02*
X11467801Y-10247984D01*
X11467801Y-10143222D02*
X11477324Y-10124174D01*
X11477324Y-10124174D02*
X11496372Y-10114650D01*
X11496372Y-10114650D02*
X11524943Y-10114650D01*
X11524943Y-10114650D02*
X11543991Y-10124174D01*
X11543991Y-10124174D02*
X11553515Y-10143222D01*
X11553515Y-10143222D02*
X11553515Y-10247984D01*
X11943991Y-10038460D02*
X11772563Y-10295603D01*
X12201134Y-10047984D02*
X12220182Y-10047984D01*
X12220182Y-10047984D02*
X12239229Y-10057508D01*
X12239229Y-10057508D02*
X12248753Y-10067031D01*
X12248753Y-10067031D02*
X12258277Y-10086079D01*
X12258277Y-10086079D02*
X12267801Y-10124174D01*
X12267801Y-10124174D02*
X12267801Y-10171793D01*
X12267801Y-10171793D02*
X12258277Y-10209889D01*
X12258277Y-10209889D02*
X12248753Y-10228936D01*
X12248753Y-10228936D02*
X12239229Y-10238460D01*
X12239229Y-10238460D02*
X12220182Y-10247984D01*
X12220182Y-10247984D02*
X12201134Y-10247984D01*
X12201134Y-10247984D02*
X12182086Y-10238460D01*
X12182086Y-10238460D02*
X12172563Y-10228936D01*
X12172563Y-10228936D02*
X12163039Y-10209889D01*
X12163039Y-10209889D02*
X12153515Y-10171793D01*
X12153515Y-10171793D02*
X12153515Y-10124174D01*
X12153515Y-10124174D02*
X12163039Y-10086079D01*
X12163039Y-10086079D02*
X12172563Y-10067031D01*
X12172563Y-10067031D02*
X12182086Y-10057508D01*
X12182086Y-10057508D02*
X12201134Y-10047984D01*
X12353515Y-10228936D02*
X12363039Y-10238460D01*
X12363039Y-10238460D02*
X12353515Y-10247984D01*
X12353515Y-10247984D02*
X12343991Y-10238460D01*
X12343991Y-10238460D02*
X12353515Y-10228936D01*
X12353515Y-10228936D02*
X12353515Y-10247984D01*
X12486848Y-10047984D02*
X12505896Y-10047984D01*
X12505896Y-10047984D02*
X12524944Y-10057508D01*
X12524944Y-10057508D02*
X12534467Y-10067031D01*
X12534467Y-10067031D02*
X12543991Y-10086079D01*
X12543991Y-10086079D02*
X12553515Y-10124174D01*
X12553515Y-10124174D02*
X12553515Y-10171793D01*
X12553515Y-10171793D02*
X12543991Y-10209889D01*
X12543991Y-10209889D02*
X12534467Y-10228936D01*
X12534467Y-10228936D02*
X12524944Y-10238460D01*
X12524944Y-10238460D02*
X12505896Y-10247984D01*
X12505896Y-10247984D02*
X12486848Y-10247984D01*
X12486848Y-10247984D02*
X12467801Y-10238460D01*
X12467801Y-10238460D02*
X12458277Y-10228936D01*
X12458277Y-10228936D02*
X12448753Y-10209889D01*
X12448753Y-10209889D02*
X12439229Y-10171793D01*
X12439229Y-10171793D02*
X12439229Y-10124174D01*
X12439229Y-10124174D02*
X12448753Y-10086079D01*
X12448753Y-10086079D02*
X12458277Y-10067031D01*
X12458277Y-10067031D02*
X12467801Y-10057508D01*
X12467801Y-10057508D02*
X12486848Y-10047984D01*
X12629706Y-10067031D02*
X12639229Y-10057508D01*
X12639229Y-10057508D02*
X12658277Y-10047984D01*
X12658277Y-10047984D02*
X12705896Y-10047984D01*
X12705896Y-10047984D02*
X12724944Y-10057508D01*
X12724944Y-10057508D02*
X12734467Y-10067031D01*
X12734467Y-10067031D02*
X12743991Y-10086079D01*
X12743991Y-10086079D02*
X12743991Y-10105127D01*
X12743991Y-10105127D02*
X12734467Y-10133698D01*
X12734467Y-10133698D02*
X12620182Y-10247984D01*
X12620182Y-10247984D02*
X12743991Y-10247984D01*
X12839229Y-10247984D02*
X12877325Y-10247984D01*
X12877325Y-10247984D02*
X12896372Y-10238460D01*
X12896372Y-10238460D02*
X12905896Y-10228936D01*
X12905896Y-10228936D02*
X12924944Y-10200365D01*
X12924944Y-10200365D02*
X12934467Y-10162270D01*
X12934467Y-10162270D02*
X12934467Y-10086079D01*
X12934467Y-10086079D02*
X12924944Y-10067031D01*
X12924944Y-10067031D02*
X12915420Y-10057508D01*
X12915420Y-10057508D02*
X12896372Y-10047984D01*
X12896372Y-10047984D02*
X12858277Y-10047984D01*
X12858277Y-10047984D02*
X12839229Y-10057508D01*
X12839229Y-10057508D02*
X12829706Y-10067031D01*
X12829706Y-10067031D02*
X12820182Y-10086079D01*
X12820182Y-10086079D02*
X12820182Y-10133698D01*
X12820182Y-10133698D02*
X12829706Y-10152746D01*
X12829706Y-10152746D02*
X12839229Y-10162270D01*
X12839229Y-10162270D02*
X12858277Y-10171793D01*
X12858277Y-10171793D02*
X12896372Y-10171793D01*
X12896372Y-10171793D02*
X12915420Y-10162270D01*
X12915420Y-10162270D02*
X12924944Y-10152746D01*
X12924944Y-10152746D02*
X12934467Y-10133698D01*
X13115420Y-10047984D02*
X13020182Y-10047984D01*
X13020182Y-10047984D02*
X13010658Y-10143222D01*
X13010658Y-10143222D02*
X13020182Y-10133698D01*
X13020182Y-10133698D02*
X13039229Y-10124174D01*
X13039229Y-10124174D02*
X13086848Y-10124174D01*
X13086848Y-10124174D02*
X13105896Y-10133698D01*
X13105896Y-10133698D02*
X13115420Y-10143222D01*
X13115420Y-10143222D02*
X13124944Y-10162270D01*
X13124944Y-10162270D02*
X13124944Y-10209889D01*
X13124944Y-10209889D02*
X13115420Y-10228936D01*
X13115420Y-10228936D02*
X13105896Y-10238460D01*
X13105896Y-10238460D02*
X13086848Y-10247984D01*
X13086848Y-10247984D02*
X13039229Y-10247984D01*
X13039229Y-10247984D02*
X13020182Y-10238460D01*
X13020182Y-10238460D02*
X13010658Y-10228936D01*
X13201134Y-10047984D02*
X13201134Y-10086079D01*
X13277325Y-10047984D02*
X13277325Y-10086079D01*
X13572563Y-10324174D02*
X13563039Y-10314650D01*
X13563039Y-10314650D02*
X13543991Y-10286079D01*
X13543991Y-10286079D02*
X13534468Y-10267031D01*
X13534468Y-10267031D02*
X13524944Y-10238460D01*
X13524944Y-10238460D02*
X13515420Y-10190841D01*
X13515420Y-10190841D02*
X13515420Y-10152746D01*
X13515420Y-10152746D02*
X13524944Y-10105127D01*
X13524944Y-10105127D02*
X13534468Y-10076555D01*
X13534468Y-10076555D02*
X13543991Y-10057508D01*
X13543991Y-10057508D02*
X13563039Y-10028936D01*
X13563039Y-10028936D02*
X13572563Y-10019412D01*
X13658277Y-10247984D02*
X13696372Y-10247984D01*
X13696372Y-10247984D02*
X13715420Y-10238460D01*
X13715420Y-10238460D02*
X13724944Y-10228936D01*
X13724944Y-10228936D02*
X13743991Y-10200365D01*
X13743991Y-10200365D02*
X13753515Y-10162270D01*
X13753515Y-10162270D02*
X13753515Y-10086079D01*
X13753515Y-10086079D02*
X13743991Y-10067031D01*
X13743991Y-10067031D02*
X13734468Y-10057508D01*
X13734468Y-10057508D02*
X13715420Y-10047984D01*
X13715420Y-10047984D02*
X13677325Y-10047984D01*
X13677325Y-10047984D02*
X13658277Y-10057508D01*
X13658277Y-10057508D02*
X13648753Y-10067031D01*
X13648753Y-10067031D02*
X13639229Y-10086079D01*
X13639229Y-10086079D02*
X13639229Y-10133698D01*
X13639229Y-10133698D02*
X13648753Y-10152746D01*
X13648753Y-10152746D02*
X13658277Y-10162270D01*
X13658277Y-10162270D02*
X13677325Y-10171793D01*
X13677325Y-10171793D02*
X13715420Y-10171793D01*
X13715420Y-10171793D02*
X13734468Y-10162270D01*
X13734468Y-10162270D02*
X13743991Y-10152746D01*
X13743991Y-10152746D02*
X13753515Y-10133698D01*
X13991610Y-10247984D02*
X13991610Y-10047984D01*
X14077325Y-10247984D02*
X14077325Y-10143222D01*
X14077325Y-10143222D02*
X14067801Y-10124174D01*
X14067801Y-10124174D02*
X14048753Y-10114650D01*
X14048753Y-10114650D02*
X14020182Y-10114650D01*
X14020182Y-10114650D02*
X14001134Y-10124174D01*
X14001134Y-10124174D02*
X13991610Y-10133698D01*
X14201134Y-10247984D02*
X14182087Y-10238460D01*
X14182087Y-10238460D02*
X14172563Y-10228936D01*
X14172563Y-10228936D02*
X14163039Y-10209889D01*
X14163039Y-10209889D02*
X14163039Y-10152746D01*
X14163039Y-10152746D02*
X14172563Y-10133698D01*
X14172563Y-10133698D02*
X14182087Y-10124174D01*
X14182087Y-10124174D02*
X14201134Y-10114650D01*
X14201134Y-10114650D02*
X14229706Y-10114650D01*
X14229706Y-10114650D02*
X14248753Y-10124174D01*
X14248753Y-10124174D02*
X14258277Y-10133698D01*
X14258277Y-10133698D02*
X14267801Y-10152746D01*
X14267801Y-10152746D02*
X14267801Y-10209889D01*
X14267801Y-10209889D02*
X14258277Y-10228936D01*
X14258277Y-10228936D02*
X14248753Y-10238460D01*
X14248753Y-10238460D02*
X14229706Y-10247984D01*
X14229706Y-10247984D02*
X14201134Y-10247984D01*
X14382087Y-10247984D02*
X14363039Y-10238460D01*
X14363039Y-10238460D02*
X14353515Y-10219412D01*
X14353515Y-10219412D02*
X14353515Y-10047984D01*
X14534468Y-10238460D02*
X14515420Y-10247984D01*
X14515420Y-10247984D02*
X14477325Y-10247984D01*
X14477325Y-10247984D02*
X14458277Y-10238460D01*
X14458277Y-10238460D02*
X14448753Y-10219412D01*
X14448753Y-10219412D02*
X14448753Y-10143222D01*
X14448753Y-10143222D02*
X14458277Y-10124174D01*
X14458277Y-10124174D02*
X14477325Y-10114650D01*
X14477325Y-10114650D02*
X14515420Y-10114650D01*
X14515420Y-10114650D02*
X14534468Y-10124174D01*
X14534468Y-10124174D02*
X14543991Y-10143222D01*
X14543991Y-10143222D02*
X14543991Y-10162270D01*
X14543991Y-10162270D02*
X14448753Y-10181317D01*
X14620182Y-10238460D02*
X14639230Y-10247984D01*
X14639230Y-10247984D02*
X14677325Y-10247984D01*
X14677325Y-10247984D02*
X14696372Y-10238460D01*
X14696372Y-10238460D02*
X14705896Y-10219412D01*
X14705896Y-10219412D02*
X14705896Y-10209889D01*
X14705896Y-10209889D02*
X14696372Y-10190841D01*
X14696372Y-10190841D02*
X14677325Y-10181317D01*
X14677325Y-10181317D02*
X14648753Y-10181317D01*
X14648753Y-10181317D02*
X14629706Y-10171793D01*
X14629706Y-10171793D02*
X14620182Y-10152746D01*
X14620182Y-10152746D02*
X14620182Y-10143222D01*
X14620182Y-10143222D02*
X14629706Y-10124174D01*
X14629706Y-10124174D02*
X14648753Y-10114650D01*
X14648753Y-10114650D02*
X14677325Y-10114650D01*
X14677325Y-10114650D02*
X14696372Y-10124174D01*
X14772563Y-10324174D02*
X14782087Y-10314650D01*
X14782087Y-10314650D02*
X14801134Y-10286079D01*
X14801134Y-10286079D02*
X14810658Y-10267031D01*
X14810658Y-10267031D02*
X14820182Y-10238460D01*
X14820182Y-10238460D02*
X14829706Y-10190841D01*
X14829706Y-10190841D02*
X14829706Y-10152746D01*
X14829706Y-10152746D02*
X14820182Y-10105127D01*
X14820182Y-10105127D02*
X14810658Y-10076555D01*
X14810658Y-10076555D02*
X14801134Y-10057508D01*
X14801134Y-10057508D02*
X14782087Y-10028936D01*
X14782087Y-10028936D02*
X14772563Y-10019412D01*
D12*
X9957500Y-10380500D02*
X9957500Y-10460500D01*
X9917500Y-10420500D02*
X9997500Y-10420500D01*
D11*
X10296372Y-10311984D02*
X10315420Y-10311984D01*
X10315420Y-10311984D02*
X10334467Y-10321508D01*
X10334467Y-10321508D02*
X10343991Y-10331031D01*
X10343991Y-10331031D02*
X10353515Y-10350079D01*
X10353515Y-10350079D02*
X10363039Y-10388174D01*
X10363039Y-10388174D02*
X10363039Y-10435793D01*
X10363039Y-10435793D02*
X10353515Y-10473889D01*
X10353515Y-10473889D02*
X10343991Y-10492936D01*
X10343991Y-10492936D02*
X10334467Y-10502460D01*
X10334467Y-10502460D02*
X10315420Y-10511984D01*
X10315420Y-10511984D02*
X10296372Y-10511984D01*
X10296372Y-10511984D02*
X10277324Y-10502460D01*
X10277324Y-10502460D02*
X10267801Y-10492936D01*
X10267801Y-10492936D02*
X10258277Y-10473889D01*
X10258277Y-10473889D02*
X10248753Y-10435793D01*
X10248753Y-10435793D02*
X10248753Y-10388174D01*
X10248753Y-10388174D02*
X10258277Y-10350079D01*
X10258277Y-10350079D02*
X10267801Y-10331031D01*
X10267801Y-10331031D02*
X10277324Y-10321508D01*
X10277324Y-10321508D02*
X10296372Y-10311984D01*
X10448753Y-10492936D02*
X10458277Y-10502460D01*
X10458277Y-10502460D02*
X10448753Y-10511984D01*
X10448753Y-10511984D02*
X10439229Y-10502460D01*
X10439229Y-10502460D02*
X10448753Y-10492936D01*
X10448753Y-10492936D02*
X10448753Y-10511984D01*
X10572563Y-10397698D02*
X10553515Y-10388174D01*
X10553515Y-10388174D02*
X10543991Y-10378650D01*
X10543991Y-10378650D02*
X10534467Y-10359603D01*
X10534467Y-10359603D02*
X10534467Y-10350079D01*
X10534467Y-10350079D02*
X10543991Y-10331031D01*
X10543991Y-10331031D02*
X10553515Y-10321508D01*
X10553515Y-10321508D02*
X10572563Y-10311984D01*
X10572563Y-10311984D02*
X10610658Y-10311984D01*
X10610658Y-10311984D02*
X10629705Y-10321508D01*
X10629705Y-10321508D02*
X10639229Y-10331031D01*
X10639229Y-10331031D02*
X10648753Y-10350079D01*
X10648753Y-10350079D02*
X10648753Y-10359603D01*
X10648753Y-10359603D02*
X10639229Y-10378650D01*
X10639229Y-10378650D02*
X10629705Y-10388174D01*
X10629705Y-10388174D02*
X10610658Y-10397698D01*
X10610658Y-10397698D02*
X10572563Y-10397698D01*
X10572563Y-10397698D02*
X10553515Y-10407222D01*
X10553515Y-10407222D02*
X10543991Y-10416746D01*
X10543991Y-10416746D02*
X10534467Y-10435793D01*
X10534467Y-10435793D02*
X10534467Y-10473889D01*
X10534467Y-10473889D02*
X10543991Y-10492936D01*
X10543991Y-10492936D02*
X10553515Y-10502460D01*
X10553515Y-10502460D02*
X10572563Y-10511984D01*
X10572563Y-10511984D02*
X10610658Y-10511984D01*
X10610658Y-10511984D02*
X10629705Y-10502460D01*
X10629705Y-10502460D02*
X10639229Y-10492936D01*
X10639229Y-10492936D02*
X10648753Y-10473889D01*
X10648753Y-10473889D02*
X10648753Y-10435793D01*
X10648753Y-10435793D02*
X10639229Y-10416746D01*
X10639229Y-10416746D02*
X10629705Y-10407222D01*
X10629705Y-10407222D02*
X10610658Y-10397698D01*
X10772563Y-10311984D02*
X10791610Y-10311984D01*
X10791610Y-10311984D02*
X10810658Y-10321508D01*
X10810658Y-10321508D02*
X10820182Y-10331031D01*
X10820182Y-10331031D02*
X10829705Y-10350079D01*
X10829705Y-10350079D02*
X10839229Y-10388174D01*
X10839229Y-10388174D02*
X10839229Y-10435793D01*
X10839229Y-10435793D02*
X10829705Y-10473889D01*
X10829705Y-10473889D02*
X10820182Y-10492936D01*
X10820182Y-10492936D02*
X10810658Y-10502460D01*
X10810658Y-10502460D02*
X10791610Y-10511984D01*
X10791610Y-10511984D02*
X10772563Y-10511984D01*
X10772563Y-10511984D02*
X10753515Y-10502460D01*
X10753515Y-10502460D02*
X10743991Y-10492936D01*
X10743991Y-10492936D02*
X10734467Y-10473889D01*
X10734467Y-10473889D02*
X10724944Y-10435793D01*
X10724944Y-10435793D02*
X10724944Y-10388174D01*
X10724944Y-10388174D02*
X10734467Y-10350079D01*
X10734467Y-10350079D02*
X10743991Y-10331031D01*
X10743991Y-10331031D02*
X10753515Y-10321508D01*
X10753515Y-10321508D02*
X10772563Y-10311984D01*
X10963039Y-10311984D02*
X10982086Y-10311984D01*
X10982086Y-10311984D02*
X11001134Y-10321508D01*
X11001134Y-10321508D02*
X11010658Y-10331031D01*
X11010658Y-10331031D02*
X11020182Y-10350079D01*
X11020182Y-10350079D02*
X11029705Y-10388174D01*
X11029705Y-10388174D02*
X11029705Y-10435793D01*
X11029705Y-10435793D02*
X11020182Y-10473889D01*
X11020182Y-10473889D02*
X11010658Y-10492936D01*
X11010658Y-10492936D02*
X11001134Y-10502460D01*
X11001134Y-10502460D02*
X10982086Y-10511984D01*
X10982086Y-10511984D02*
X10963039Y-10511984D01*
X10963039Y-10511984D02*
X10943991Y-10502460D01*
X10943991Y-10502460D02*
X10934467Y-10492936D01*
X10934467Y-10492936D02*
X10924944Y-10473889D01*
X10924944Y-10473889D02*
X10915420Y-10435793D01*
X10915420Y-10435793D02*
X10915420Y-10388174D01*
X10915420Y-10388174D02*
X10924944Y-10350079D01*
X10924944Y-10350079D02*
X10934467Y-10331031D01*
X10934467Y-10331031D02*
X10943991Y-10321508D01*
X10943991Y-10321508D02*
X10963039Y-10311984D01*
X11115420Y-10511984D02*
X11115420Y-10378650D01*
X11115420Y-10397698D02*
X11124944Y-10388174D01*
X11124944Y-10388174D02*
X11143991Y-10378650D01*
X11143991Y-10378650D02*
X11172563Y-10378650D01*
X11172563Y-10378650D02*
X11191610Y-10388174D01*
X11191610Y-10388174D02*
X11201134Y-10407222D01*
X11201134Y-10407222D02*
X11201134Y-10511984D01*
X11201134Y-10407222D02*
X11210658Y-10388174D01*
X11210658Y-10388174D02*
X11229705Y-10378650D01*
X11229705Y-10378650D02*
X11258277Y-10378650D01*
X11258277Y-10378650D02*
X11277324Y-10388174D01*
X11277324Y-10388174D02*
X11286848Y-10407222D01*
X11286848Y-10407222D02*
X11286848Y-10511984D01*
X11382086Y-10511984D02*
X11382086Y-10378650D01*
X11382086Y-10397698D02*
X11391610Y-10388174D01*
X11391610Y-10388174D02*
X11410658Y-10378650D01*
X11410658Y-10378650D02*
X11439229Y-10378650D01*
X11439229Y-10378650D02*
X11458277Y-10388174D01*
X11458277Y-10388174D02*
X11467801Y-10407222D01*
X11467801Y-10407222D02*
X11467801Y-10511984D01*
X11467801Y-10407222D02*
X11477324Y-10388174D01*
X11477324Y-10388174D02*
X11496372Y-10378650D01*
X11496372Y-10378650D02*
X11524943Y-10378650D01*
X11524943Y-10378650D02*
X11543991Y-10388174D01*
X11543991Y-10388174D02*
X11553515Y-10407222D01*
X11553515Y-10407222D02*
X11553515Y-10511984D01*
X11943991Y-10302460D02*
X11772563Y-10559603D01*
X12201134Y-10311984D02*
X12220182Y-10311984D01*
X12220182Y-10311984D02*
X12239229Y-10321508D01*
X12239229Y-10321508D02*
X12248753Y-10331031D01*
X12248753Y-10331031D02*
X12258277Y-10350079D01*
X12258277Y-10350079D02*
X12267801Y-10388174D01*
X12267801Y-10388174D02*
X12267801Y-10435793D01*
X12267801Y-10435793D02*
X12258277Y-10473889D01*
X12258277Y-10473889D02*
X12248753Y-10492936D01*
X12248753Y-10492936D02*
X12239229Y-10502460D01*
X12239229Y-10502460D02*
X12220182Y-10511984D01*
X12220182Y-10511984D02*
X12201134Y-10511984D01*
X12201134Y-10511984D02*
X12182086Y-10502460D01*
X12182086Y-10502460D02*
X12172563Y-10492936D01*
X12172563Y-10492936D02*
X12163039Y-10473889D01*
X12163039Y-10473889D02*
X12153515Y-10435793D01*
X12153515Y-10435793D02*
X12153515Y-10388174D01*
X12153515Y-10388174D02*
X12163039Y-10350079D01*
X12163039Y-10350079D02*
X12172563Y-10331031D01*
X12172563Y-10331031D02*
X12182086Y-10321508D01*
X12182086Y-10321508D02*
X12201134Y-10311984D01*
X12353515Y-10492936D02*
X12363039Y-10502460D01*
X12363039Y-10502460D02*
X12353515Y-10511984D01*
X12353515Y-10511984D02*
X12343991Y-10502460D01*
X12343991Y-10502460D02*
X12353515Y-10492936D01*
X12353515Y-10492936D02*
X12353515Y-10511984D01*
X12486848Y-10311984D02*
X12505896Y-10311984D01*
X12505896Y-10311984D02*
X12524944Y-10321508D01*
X12524944Y-10321508D02*
X12534467Y-10331031D01*
X12534467Y-10331031D02*
X12543991Y-10350079D01*
X12543991Y-10350079D02*
X12553515Y-10388174D01*
X12553515Y-10388174D02*
X12553515Y-10435793D01*
X12553515Y-10435793D02*
X12543991Y-10473889D01*
X12543991Y-10473889D02*
X12534467Y-10492936D01*
X12534467Y-10492936D02*
X12524944Y-10502460D01*
X12524944Y-10502460D02*
X12505896Y-10511984D01*
X12505896Y-10511984D02*
X12486848Y-10511984D01*
X12486848Y-10511984D02*
X12467801Y-10502460D01*
X12467801Y-10502460D02*
X12458277Y-10492936D01*
X12458277Y-10492936D02*
X12448753Y-10473889D01*
X12448753Y-10473889D02*
X12439229Y-10435793D01*
X12439229Y-10435793D02*
X12439229Y-10388174D01*
X12439229Y-10388174D02*
X12448753Y-10350079D01*
X12448753Y-10350079D02*
X12458277Y-10331031D01*
X12458277Y-10331031D02*
X12467801Y-10321508D01*
X12467801Y-10321508D02*
X12486848Y-10311984D01*
X12620182Y-10311984D02*
X12743991Y-10311984D01*
X12743991Y-10311984D02*
X12677325Y-10388174D01*
X12677325Y-10388174D02*
X12705896Y-10388174D01*
X12705896Y-10388174D02*
X12724944Y-10397698D01*
X12724944Y-10397698D02*
X12734467Y-10407222D01*
X12734467Y-10407222D02*
X12743991Y-10426270D01*
X12743991Y-10426270D02*
X12743991Y-10473889D01*
X12743991Y-10473889D02*
X12734467Y-10492936D01*
X12734467Y-10492936D02*
X12724944Y-10502460D01*
X12724944Y-10502460D02*
X12705896Y-10511984D01*
X12705896Y-10511984D02*
X12648753Y-10511984D01*
X12648753Y-10511984D02*
X12629706Y-10502460D01*
X12629706Y-10502460D02*
X12620182Y-10492936D01*
X12934467Y-10511984D02*
X12820182Y-10511984D01*
X12877325Y-10511984D02*
X12877325Y-10311984D01*
X12877325Y-10311984D02*
X12858277Y-10340555D01*
X12858277Y-10340555D02*
X12839229Y-10359603D01*
X12839229Y-10359603D02*
X12820182Y-10369127D01*
X13115420Y-10311984D02*
X13020182Y-10311984D01*
X13020182Y-10311984D02*
X13010658Y-10407222D01*
X13010658Y-10407222D02*
X13020182Y-10397698D01*
X13020182Y-10397698D02*
X13039229Y-10388174D01*
X13039229Y-10388174D02*
X13086848Y-10388174D01*
X13086848Y-10388174D02*
X13105896Y-10397698D01*
X13105896Y-10397698D02*
X13115420Y-10407222D01*
X13115420Y-10407222D02*
X13124944Y-10426270D01*
X13124944Y-10426270D02*
X13124944Y-10473889D01*
X13124944Y-10473889D02*
X13115420Y-10492936D01*
X13115420Y-10492936D02*
X13105896Y-10502460D01*
X13105896Y-10502460D02*
X13086848Y-10511984D01*
X13086848Y-10511984D02*
X13039229Y-10511984D01*
X13039229Y-10511984D02*
X13020182Y-10502460D01*
X13020182Y-10502460D02*
X13010658Y-10492936D01*
X13201134Y-10311984D02*
X13201134Y-10350079D01*
X13277325Y-10311984D02*
X13277325Y-10350079D01*
X13572563Y-10588174D02*
X13563039Y-10578650D01*
X13563039Y-10578650D02*
X13543991Y-10550079D01*
X13543991Y-10550079D02*
X13534468Y-10531031D01*
X13534468Y-10531031D02*
X13524944Y-10502460D01*
X13524944Y-10502460D02*
X13515420Y-10454841D01*
X13515420Y-10454841D02*
X13515420Y-10416746D01*
X13515420Y-10416746D02*
X13524944Y-10369127D01*
X13524944Y-10369127D02*
X13534468Y-10340555D01*
X13534468Y-10340555D02*
X13543991Y-10321508D01*
X13543991Y-10321508D02*
X13563039Y-10292936D01*
X13563039Y-10292936D02*
X13572563Y-10283412D01*
X13753515Y-10511984D02*
X13639229Y-10511984D01*
X13696372Y-10511984D02*
X13696372Y-10311984D01*
X13696372Y-10311984D02*
X13677325Y-10340555D01*
X13677325Y-10340555D02*
X13658277Y-10359603D01*
X13658277Y-10359603D02*
X13639229Y-10369127D01*
X13877325Y-10311984D02*
X13896372Y-10311984D01*
X13896372Y-10311984D02*
X13915420Y-10321508D01*
X13915420Y-10321508D02*
X13924944Y-10331031D01*
X13924944Y-10331031D02*
X13934468Y-10350079D01*
X13934468Y-10350079D02*
X13943991Y-10388174D01*
X13943991Y-10388174D02*
X13943991Y-10435793D01*
X13943991Y-10435793D02*
X13934468Y-10473889D01*
X13934468Y-10473889D02*
X13924944Y-10492936D01*
X13924944Y-10492936D02*
X13915420Y-10502460D01*
X13915420Y-10502460D02*
X13896372Y-10511984D01*
X13896372Y-10511984D02*
X13877325Y-10511984D01*
X13877325Y-10511984D02*
X13858277Y-10502460D01*
X13858277Y-10502460D02*
X13848753Y-10492936D01*
X13848753Y-10492936D02*
X13839229Y-10473889D01*
X13839229Y-10473889D02*
X13829706Y-10435793D01*
X13829706Y-10435793D02*
X13829706Y-10388174D01*
X13829706Y-10388174D02*
X13839229Y-10350079D01*
X13839229Y-10350079D02*
X13848753Y-10331031D01*
X13848753Y-10331031D02*
X13858277Y-10321508D01*
X13858277Y-10321508D02*
X13877325Y-10311984D01*
X14182087Y-10511984D02*
X14182087Y-10311984D01*
X14267801Y-10511984D02*
X14267801Y-10407222D01*
X14267801Y-10407222D02*
X14258277Y-10388174D01*
X14258277Y-10388174D02*
X14239230Y-10378650D01*
X14239230Y-10378650D02*
X14210658Y-10378650D01*
X14210658Y-10378650D02*
X14191610Y-10388174D01*
X14191610Y-10388174D02*
X14182087Y-10397698D01*
X14391610Y-10511984D02*
X14372563Y-10502460D01*
X14372563Y-10502460D02*
X14363039Y-10492936D01*
X14363039Y-10492936D02*
X14353515Y-10473889D01*
X14353515Y-10473889D02*
X14353515Y-10416746D01*
X14353515Y-10416746D02*
X14363039Y-10397698D01*
X14363039Y-10397698D02*
X14372563Y-10388174D01*
X14372563Y-10388174D02*
X14391610Y-10378650D01*
X14391610Y-10378650D02*
X14420182Y-10378650D01*
X14420182Y-10378650D02*
X14439230Y-10388174D01*
X14439230Y-10388174D02*
X14448753Y-10397698D01*
X14448753Y-10397698D02*
X14458277Y-10416746D01*
X14458277Y-10416746D02*
X14458277Y-10473889D01*
X14458277Y-10473889D02*
X14448753Y-10492936D01*
X14448753Y-10492936D02*
X14439230Y-10502460D01*
X14439230Y-10502460D02*
X14420182Y-10511984D01*
X14420182Y-10511984D02*
X14391610Y-10511984D01*
X14572563Y-10511984D02*
X14553515Y-10502460D01*
X14553515Y-10502460D02*
X14543991Y-10483412D01*
X14543991Y-10483412D02*
X14543991Y-10311984D01*
X14724944Y-10502460D02*
X14705896Y-10511984D01*
X14705896Y-10511984D02*
X14667801Y-10511984D01*
X14667801Y-10511984D02*
X14648753Y-10502460D01*
X14648753Y-10502460D02*
X14639230Y-10483412D01*
X14639230Y-10483412D02*
X14639230Y-10407222D01*
X14639230Y-10407222D02*
X14648753Y-10388174D01*
X14648753Y-10388174D02*
X14667801Y-10378650D01*
X14667801Y-10378650D02*
X14705896Y-10378650D01*
X14705896Y-10378650D02*
X14724944Y-10388174D01*
X14724944Y-10388174D02*
X14734468Y-10407222D01*
X14734468Y-10407222D02*
X14734468Y-10426270D01*
X14734468Y-10426270D02*
X14639230Y-10445317D01*
X14810658Y-10502460D02*
X14829706Y-10511984D01*
X14829706Y-10511984D02*
X14867801Y-10511984D01*
X14867801Y-10511984D02*
X14886849Y-10502460D01*
X14886849Y-10502460D02*
X14896372Y-10483412D01*
X14896372Y-10483412D02*
X14896372Y-10473889D01*
X14896372Y-10473889D02*
X14886849Y-10454841D01*
X14886849Y-10454841D02*
X14867801Y-10445317D01*
X14867801Y-10445317D02*
X14839230Y-10445317D01*
X14839230Y-10445317D02*
X14820182Y-10435793D01*
X14820182Y-10435793D02*
X14810658Y-10416746D01*
X14810658Y-10416746D02*
X14810658Y-10407222D01*
X14810658Y-10407222D02*
X14820182Y-10388174D01*
X14820182Y-10388174D02*
X14839230Y-10378650D01*
X14839230Y-10378650D02*
X14867801Y-10378650D01*
X14867801Y-10378650D02*
X14886849Y-10388174D01*
X14963039Y-10588174D02*
X14972563Y-10578650D01*
X14972563Y-10578650D02*
X14991611Y-10550079D01*
X14991611Y-10550079D02*
X15001134Y-10531031D01*
X15001134Y-10531031D02*
X15010658Y-10502460D01*
X15010658Y-10502460D02*
X15020182Y-10454841D01*
X15020182Y-10454841D02*
X15020182Y-10416746D01*
X15020182Y-10416746D02*
X15010658Y-10369127D01*
X15010658Y-10369127D02*
X15001134Y-10340555D01*
X15001134Y-10340555D02*
X14991611Y-10321508D01*
X14991611Y-10321508D02*
X14972563Y-10292936D01*
X14972563Y-10292936D02*
X14963039Y-10283412D01*
D12*
X9982856Y-10719856D02*
X9982856Y-10649144D01*
X9912144Y-10649144D01*
X9912144Y-10719856D01*
X9982856Y-10719856D01*
D11*
X10363039Y-10775984D02*
X10248753Y-10775984D01*
X10305896Y-10775984D02*
X10305896Y-10575984D01*
X10305896Y-10575984D02*
X10286848Y-10604555D01*
X10286848Y-10604555D02*
X10267801Y-10623603D01*
X10267801Y-10623603D02*
X10248753Y-10633127D01*
X10448753Y-10756936D02*
X10458277Y-10766460D01*
X10458277Y-10766460D02*
X10448753Y-10775984D01*
X10448753Y-10775984D02*
X10439229Y-10766460D01*
X10439229Y-10766460D02*
X10448753Y-10756936D01*
X10448753Y-10756936D02*
X10448753Y-10775984D01*
X10582086Y-10575984D02*
X10601134Y-10575984D01*
X10601134Y-10575984D02*
X10620182Y-10585508D01*
X10620182Y-10585508D02*
X10629705Y-10595031D01*
X10629705Y-10595031D02*
X10639229Y-10614079D01*
X10639229Y-10614079D02*
X10648753Y-10652174D01*
X10648753Y-10652174D02*
X10648753Y-10699793D01*
X10648753Y-10699793D02*
X10639229Y-10737889D01*
X10639229Y-10737889D02*
X10629705Y-10756936D01*
X10629705Y-10756936D02*
X10620182Y-10766460D01*
X10620182Y-10766460D02*
X10601134Y-10775984D01*
X10601134Y-10775984D02*
X10582086Y-10775984D01*
X10582086Y-10775984D02*
X10563039Y-10766460D01*
X10563039Y-10766460D02*
X10553515Y-10756936D01*
X10553515Y-10756936D02*
X10543991Y-10737889D01*
X10543991Y-10737889D02*
X10534467Y-10699793D01*
X10534467Y-10699793D02*
X10534467Y-10652174D01*
X10534467Y-10652174D02*
X10543991Y-10614079D01*
X10543991Y-10614079D02*
X10553515Y-10595031D01*
X10553515Y-10595031D02*
X10563039Y-10585508D01*
X10563039Y-10585508D02*
X10582086Y-10575984D01*
X10772563Y-10575984D02*
X10791610Y-10575984D01*
X10791610Y-10575984D02*
X10810658Y-10585508D01*
X10810658Y-10585508D02*
X10820182Y-10595031D01*
X10820182Y-10595031D02*
X10829705Y-10614079D01*
X10829705Y-10614079D02*
X10839229Y-10652174D01*
X10839229Y-10652174D02*
X10839229Y-10699793D01*
X10839229Y-10699793D02*
X10829705Y-10737889D01*
X10829705Y-10737889D02*
X10820182Y-10756936D01*
X10820182Y-10756936D02*
X10810658Y-10766460D01*
X10810658Y-10766460D02*
X10791610Y-10775984D01*
X10791610Y-10775984D02*
X10772563Y-10775984D01*
X10772563Y-10775984D02*
X10753515Y-10766460D01*
X10753515Y-10766460D02*
X10743991Y-10756936D01*
X10743991Y-10756936D02*
X10734467Y-10737889D01*
X10734467Y-10737889D02*
X10724944Y-10699793D01*
X10724944Y-10699793D02*
X10724944Y-10652174D01*
X10724944Y-10652174D02*
X10734467Y-10614079D01*
X10734467Y-10614079D02*
X10743991Y-10595031D01*
X10743991Y-10595031D02*
X10753515Y-10585508D01*
X10753515Y-10585508D02*
X10772563Y-10575984D01*
X10963039Y-10575984D02*
X10982086Y-10575984D01*
X10982086Y-10575984D02*
X11001134Y-10585508D01*
X11001134Y-10585508D02*
X11010658Y-10595031D01*
X11010658Y-10595031D02*
X11020182Y-10614079D01*
X11020182Y-10614079D02*
X11029705Y-10652174D01*
X11029705Y-10652174D02*
X11029705Y-10699793D01*
X11029705Y-10699793D02*
X11020182Y-10737889D01*
X11020182Y-10737889D02*
X11010658Y-10756936D01*
X11010658Y-10756936D02*
X11001134Y-10766460D01*
X11001134Y-10766460D02*
X10982086Y-10775984D01*
X10982086Y-10775984D02*
X10963039Y-10775984D01*
X10963039Y-10775984D02*
X10943991Y-10766460D01*
X10943991Y-10766460D02*
X10934467Y-10756936D01*
X10934467Y-10756936D02*
X10924944Y-10737889D01*
X10924944Y-10737889D02*
X10915420Y-10699793D01*
X10915420Y-10699793D02*
X10915420Y-10652174D01*
X10915420Y-10652174D02*
X10924944Y-10614079D01*
X10924944Y-10614079D02*
X10934467Y-10595031D01*
X10934467Y-10595031D02*
X10943991Y-10585508D01*
X10943991Y-10585508D02*
X10963039Y-10575984D01*
X11115420Y-10775984D02*
X11115420Y-10642650D01*
X11115420Y-10661698D02*
X11124944Y-10652174D01*
X11124944Y-10652174D02*
X11143991Y-10642650D01*
X11143991Y-10642650D02*
X11172563Y-10642650D01*
X11172563Y-10642650D02*
X11191610Y-10652174D01*
X11191610Y-10652174D02*
X11201134Y-10671222D01*
X11201134Y-10671222D02*
X11201134Y-10775984D01*
X11201134Y-10671222D02*
X11210658Y-10652174D01*
X11210658Y-10652174D02*
X11229705Y-10642650D01*
X11229705Y-10642650D02*
X11258277Y-10642650D01*
X11258277Y-10642650D02*
X11277324Y-10652174D01*
X11277324Y-10652174D02*
X11286848Y-10671222D01*
X11286848Y-10671222D02*
X11286848Y-10775984D01*
X11382086Y-10775984D02*
X11382086Y-10642650D01*
X11382086Y-10661698D02*
X11391610Y-10652174D01*
X11391610Y-10652174D02*
X11410658Y-10642650D01*
X11410658Y-10642650D02*
X11439229Y-10642650D01*
X11439229Y-10642650D02*
X11458277Y-10652174D01*
X11458277Y-10652174D02*
X11467801Y-10671222D01*
X11467801Y-10671222D02*
X11467801Y-10775984D01*
X11467801Y-10671222D02*
X11477324Y-10652174D01*
X11477324Y-10652174D02*
X11496372Y-10642650D01*
X11496372Y-10642650D02*
X11524943Y-10642650D01*
X11524943Y-10642650D02*
X11543991Y-10652174D01*
X11543991Y-10652174D02*
X11553515Y-10671222D01*
X11553515Y-10671222D02*
X11553515Y-10775984D01*
X11943991Y-10566460D02*
X11772563Y-10823603D01*
X12201134Y-10575984D02*
X12220182Y-10575984D01*
X12220182Y-10575984D02*
X12239229Y-10585508D01*
X12239229Y-10585508D02*
X12248753Y-10595031D01*
X12248753Y-10595031D02*
X12258277Y-10614079D01*
X12258277Y-10614079D02*
X12267801Y-10652174D01*
X12267801Y-10652174D02*
X12267801Y-10699793D01*
X12267801Y-10699793D02*
X12258277Y-10737889D01*
X12258277Y-10737889D02*
X12248753Y-10756936D01*
X12248753Y-10756936D02*
X12239229Y-10766460D01*
X12239229Y-10766460D02*
X12220182Y-10775984D01*
X12220182Y-10775984D02*
X12201134Y-10775984D01*
X12201134Y-10775984D02*
X12182086Y-10766460D01*
X12182086Y-10766460D02*
X12172563Y-10756936D01*
X12172563Y-10756936D02*
X12163039Y-10737889D01*
X12163039Y-10737889D02*
X12153515Y-10699793D01*
X12153515Y-10699793D02*
X12153515Y-10652174D01*
X12153515Y-10652174D02*
X12163039Y-10614079D01*
X12163039Y-10614079D02*
X12172563Y-10595031D01*
X12172563Y-10595031D02*
X12182086Y-10585508D01*
X12182086Y-10585508D02*
X12201134Y-10575984D01*
X12353515Y-10756936D02*
X12363039Y-10766460D01*
X12363039Y-10766460D02*
X12353515Y-10775984D01*
X12353515Y-10775984D02*
X12343991Y-10766460D01*
X12343991Y-10766460D02*
X12353515Y-10756936D01*
X12353515Y-10756936D02*
X12353515Y-10775984D01*
X12486848Y-10575984D02*
X12505896Y-10575984D01*
X12505896Y-10575984D02*
X12524944Y-10585508D01*
X12524944Y-10585508D02*
X12534467Y-10595031D01*
X12534467Y-10595031D02*
X12543991Y-10614079D01*
X12543991Y-10614079D02*
X12553515Y-10652174D01*
X12553515Y-10652174D02*
X12553515Y-10699793D01*
X12553515Y-10699793D02*
X12543991Y-10737889D01*
X12543991Y-10737889D02*
X12534467Y-10756936D01*
X12534467Y-10756936D02*
X12524944Y-10766460D01*
X12524944Y-10766460D02*
X12505896Y-10775984D01*
X12505896Y-10775984D02*
X12486848Y-10775984D01*
X12486848Y-10775984D02*
X12467801Y-10766460D01*
X12467801Y-10766460D02*
X12458277Y-10756936D01*
X12458277Y-10756936D02*
X12448753Y-10737889D01*
X12448753Y-10737889D02*
X12439229Y-10699793D01*
X12439229Y-10699793D02*
X12439229Y-10652174D01*
X12439229Y-10652174D02*
X12448753Y-10614079D01*
X12448753Y-10614079D02*
X12458277Y-10595031D01*
X12458277Y-10595031D02*
X12467801Y-10585508D01*
X12467801Y-10585508D02*
X12486848Y-10575984D01*
X12620182Y-10575984D02*
X12743991Y-10575984D01*
X12743991Y-10575984D02*
X12677325Y-10652174D01*
X12677325Y-10652174D02*
X12705896Y-10652174D01*
X12705896Y-10652174D02*
X12724944Y-10661698D01*
X12724944Y-10661698D02*
X12734467Y-10671222D01*
X12734467Y-10671222D02*
X12743991Y-10690270D01*
X12743991Y-10690270D02*
X12743991Y-10737889D01*
X12743991Y-10737889D02*
X12734467Y-10756936D01*
X12734467Y-10756936D02*
X12724944Y-10766460D01*
X12724944Y-10766460D02*
X12705896Y-10775984D01*
X12705896Y-10775984D02*
X12648753Y-10775984D01*
X12648753Y-10775984D02*
X12629706Y-10766460D01*
X12629706Y-10766460D02*
X12620182Y-10756936D01*
X12839229Y-10775984D02*
X12877325Y-10775984D01*
X12877325Y-10775984D02*
X12896372Y-10766460D01*
X12896372Y-10766460D02*
X12905896Y-10756936D01*
X12905896Y-10756936D02*
X12924944Y-10728365D01*
X12924944Y-10728365D02*
X12934467Y-10690270D01*
X12934467Y-10690270D02*
X12934467Y-10614079D01*
X12934467Y-10614079D02*
X12924944Y-10595031D01*
X12924944Y-10595031D02*
X12915420Y-10585508D01*
X12915420Y-10585508D02*
X12896372Y-10575984D01*
X12896372Y-10575984D02*
X12858277Y-10575984D01*
X12858277Y-10575984D02*
X12839229Y-10585508D01*
X12839229Y-10585508D02*
X12829706Y-10595031D01*
X12829706Y-10595031D02*
X12820182Y-10614079D01*
X12820182Y-10614079D02*
X12820182Y-10661698D01*
X12820182Y-10661698D02*
X12829706Y-10680746D01*
X12829706Y-10680746D02*
X12839229Y-10690270D01*
X12839229Y-10690270D02*
X12858277Y-10699793D01*
X12858277Y-10699793D02*
X12896372Y-10699793D01*
X12896372Y-10699793D02*
X12915420Y-10690270D01*
X12915420Y-10690270D02*
X12924944Y-10680746D01*
X12924944Y-10680746D02*
X12934467Y-10661698D01*
X13105896Y-10642650D02*
X13105896Y-10775984D01*
X13058277Y-10566460D02*
X13010658Y-10709317D01*
X13010658Y-10709317D02*
X13134467Y-10709317D01*
X13201134Y-10575984D02*
X13201134Y-10614079D01*
X13277325Y-10575984D02*
X13277325Y-10614079D01*
X13572563Y-10852174D02*
X13563039Y-10842650D01*
X13563039Y-10842650D02*
X13543991Y-10814079D01*
X13543991Y-10814079D02*
X13534468Y-10795031D01*
X13534468Y-10795031D02*
X13524944Y-10766460D01*
X13524944Y-10766460D02*
X13515420Y-10718841D01*
X13515420Y-10718841D02*
X13515420Y-10680746D01*
X13515420Y-10680746D02*
X13524944Y-10633127D01*
X13524944Y-10633127D02*
X13534468Y-10604555D01*
X13534468Y-10604555D02*
X13543991Y-10585508D01*
X13543991Y-10585508D02*
X13563039Y-10556936D01*
X13563039Y-10556936D02*
X13572563Y-10547412D01*
X13753515Y-10775984D02*
X13639229Y-10775984D01*
X13696372Y-10775984D02*
X13696372Y-10575984D01*
X13696372Y-10575984D02*
X13677325Y-10604555D01*
X13677325Y-10604555D02*
X13658277Y-10623603D01*
X13658277Y-10623603D02*
X13639229Y-10633127D01*
X13877325Y-10575984D02*
X13896372Y-10575984D01*
X13896372Y-10575984D02*
X13915420Y-10585508D01*
X13915420Y-10585508D02*
X13924944Y-10595031D01*
X13924944Y-10595031D02*
X13934468Y-10614079D01*
X13934468Y-10614079D02*
X13943991Y-10652174D01*
X13943991Y-10652174D02*
X13943991Y-10699793D01*
X13943991Y-10699793D02*
X13934468Y-10737889D01*
X13934468Y-10737889D02*
X13924944Y-10756936D01*
X13924944Y-10756936D02*
X13915420Y-10766460D01*
X13915420Y-10766460D02*
X13896372Y-10775984D01*
X13896372Y-10775984D02*
X13877325Y-10775984D01*
X13877325Y-10775984D02*
X13858277Y-10766460D01*
X13858277Y-10766460D02*
X13848753Y-10756936D01*
X13848753Y-10756936D02*
X13839229Y-10737889D01*
X13839229Y-10737889D02*
X13829706Y-10699793D01*
X13829706Y-10699793D02*
X13829706Y-10652174D01*
X13829706Y-10652174D02*
X13839229Y-10614079D01*
X13839229Y-10614079D02*
X13848753Y-10595031D01*
X13848753Y-10595031D02*
X13858277Y-10585508D01*
X13858277Y-10585508D02*
X13877325Y-10575984D01*
X14182087Y-10775984D02*
X14182087Y-10575984D01*
X14267801Y-10775984D02*
X14267801Y-10671222D01*
X14267801Y-10671222D02*
X14258277Y-10652174D01*
X14258277Y-10652174D02*
X14239230Y-10642650D01*
X14239230Y-10642650D02*
X14210658Y-10642650D01*
X14210658Y-10642650D02*
X14191610Y-10652174D01*
X14191610Y-10652174D02*
X14182087Y-10661698D01*
X14391610Y-10775984D02*
X14372563Y-10766460D01*
X14372563Y-10766460D02*
X14363039Y-10756936D01*
X14363039Y-10756936D02*
X14353515Y-10737889D01*
X14353515Y-10737889D02*
X14353515Y-10680746D01*
X14353515Y-10680746D02*
X14363039Y-10661698D01*
X14363039Y-10661698D02*
X14372563Y-10652174D01*
X14372563Y-10652174D02*
X14391610Y-10642650D01*
X14391610Y-10642650D02*
X14420182Y-10642650D01*
X14420182Y-10642650D02*
X14439230Y-10652174D01*
X14439230Y-10652174D02*
X14448753Y-10661698D01*
X14448753Y-10661698D02*
X14458277Y-10680746D01*
X14458277Y-10680746D02*
X14458277Y-10737889D01*
X14458277Y-10737889D02*
X14448753Y-10756936D01*
X14448753Y-10756936D02*
X14439230Y-10766460D01*
X14439230Y-10766460D02*
X14420182Y-10775984D01*
X14420182Y-10775984D02*
X14391610Y-10775984D01*
X14572563Y-10775984D02*
X14553515Y-10766460D01*
X14553515Y-10766460D02*
X14543991Y-10747412D01*
X14543991Y-10747412D02*
X14543991Y-10575984D01*
X14724944Y-10766460D02*
X14705896Y-10775984D01*
X14705896Y-10775984D02*
X14667801Y-10775984D01*
X14667801Y-10775984D02*
X14648753Y-10766460D01*
X14648753Y-10766460D02*
X14639230Y-10747412D01*
X14639230Y-10747412D02*
X14639230Y-10671222D01*
X14639230Y-10671222D02*
X14648753Y-10652174D01*
X14648753Y-10652174D02*
X14667801Y-10642650D01*
X14667801Y-10642650D02*
X14705896Y-10642650D01*
X14705896Y-10642650D02*
X14724944Y-10652174D01*
X14724944Y-10652174D02*
X14734468Y-10671222D01*
X14734468Y-10671222D02*
X14734468Y-10690270D01*
X14734468Y-10690270D02*
X14639230Y-10709317D01*
X14810658Y-10766460D02*
X14829706Y-10775984D01*
X14829706Y-10775984D02*
X14867801Y-10775984D01*
X14867801Y-10775984D02*
X14886849Y-10766460D01*
X14886849Y-10766460D02*
X14896372Y-10747412D01*
X14896372Y-10747412D02*
X14896372Y-10737889D01*
X14896372Y-10737889D02*
X14886849Y-10718841D01*
X14886849Y-10718841D02*
X14867801Y-10709317D01*
X14867801Y-10709317D02*
X14839230Y-10709317D01*
X14839230Y-10709317D02*
X14820182Y-10699793D01*
X14820182Y-10699793D02*
X14810658Y-10680746D01*
X14810658Y-10680746D02*
X14810658Y-10671222D01*
X14810658Y-10671222D02*
X14820182Y-10652174D01*
X14820182Y-10652174D02*
X14839230Y-10642650D01*
X14839230Y-10642650D02*
X14867801Y-10642650D01*
X14867801Y-10642650D02*
X14886849Y-10652174D01*
X14963039Y-10852174D02*
X14972563Y-10842650D01*
X14972563Y-10842650D02*
X14991611Y-10814079D01*
X14991611Y-10814079D02*
X15001134Y-10795031D01*
X15001134Y-10795031D02*
X15010658Y-10766460D01*
X15010658Y-10766460D02*
X15020182Y-10718841D01*
X15020182Y-10718841D02*
X15020182Y-10680746D01*
X15020182Y-10680746D02*
X15010658Y-10633127D01*
X15010658Y-10633127D02*
X15001134Y-10604555D01*
X15001134Y-10604555D02*
X14991611Y-10585508D01*
X14991611Y-10585508D02*
X14972563Y-10556936D01*
X14972563Y-10556936D02*
X14963039Y-10547412D01*
D13*
X9942500Y-11003500D02*
X9997500Y-10948500D01*
X9942500Y-10893500D01*
X9887500Y-10948500D01*
X9942500Y-11003500D01*
D11*
X10363039Y-11039984D02*
X10248753Y-11039984D01*
X10305896Y-11039984D02*
X10305896Y-10839984D01*
X10305896Y-10839984D02*
X10286848Y-10868555D01*
X10286848Y-10868555D02*
X10267801Y-10887603D01*
X10267801Y-10887603D02*
X10248753Y-10897127D01*
X10448753Y-11020936D02*
X10458277Y-11030460D01*
X10458277Y-11030460D02*
X10448753Y-11039984D01*
X10448753Y-11039984D02*
X10439229Y-11030460D01*
X10439229Y-11030460D02*
X10448753Y-11020936D01*
X10448753Y-11020936D02*
X10448753Y-11039984D01*
X10648753Y-11039984D02*
X10534467Y-11039984D01*
X10591610Y-11039984D02*
X10591610Y-10839984D01*
X10591610Y-10839984D02*
X10572563Y-10868555D01*
X10572563Y-10868555D02*
X10553515Y-10887603D01*
X10553515Y-10887603D02*
X10534467Y-10897127D01*
X10772563Y-10839984D02*
X10791610Y-10839984D01*
X10791610Y-10839984D02*
X10810658Y-10849508D01*
X10810658Y-10849508D02*
X10820182Y-10859031D01*
X10820182Y-10859031D02*
X10829705Y-10878079D01*
X10829705Y-10878079D02*
X10839229Y-10916174D01*
X10839229Y-10916174D02*
X10839229Y-10963793D01*
X10839229Y-10963793D02*
X10829705Y-11001889D01*
X10829705Y-11001889D02*
X10820182Y-11020936D01*
X10820182Y-11020936D02*
X10810658Y-11030460D01*
X10810658Y-11030460D02*
X10791610Y-11039984D01*
X10791610Y-11039984D02*
X10772563Y-11039984D01*
X10772563Y-11039984D02*
X10753515Y-11030460D01*
X10753515Y-11030460D02*
X10743991Y-11020936D01*
X10743991Y-11020936D02*
X10734467Y-11001889D01*
X10734467Y-11001889D02*
X10724944Y-10963793D01*
X10724944Y-10963793D02*
X10724944Y-10916174D01*
X10724944Y-10916174D02*
X10734467Y-10878079D01*
X10734467Y-10878079D02*
X10743991Y-10859031D01*
X10743991Y-10859031D02*
X10753515Y-10849508D01*
X10753515Y-10849508D02*
X10772563Y-10839984D01*
X10963039Y-10839984D02*
X10982086Y-10839984D01*
X10982086Y-10839984D02*
X11001134Y-10849508D01*
X11001134Y-10849508D02*
X11010658Y-10859031D01*
X11010658Y-10859031D02*
X11020182Y-10878079D01*
X11020182Y-10878079D02*
X11029705Y-10916174D01*
X11029705Y-10916174D02*
X11029705Y-10963793D01*
X11029705Y-10963793D02*
X11020182Y-11001889D01*
X11020182Y-11001889D02*
X11010658Y-11020936D01*
X11010658Y-11020936D02*
X11001134Y-11030460D01*
X11001134Y-11030460D02*
X10982086Y-11039984D01*
X10982086Y-11039984D02*
X10963039Y-11039984D01*
X10963039Y-11039984D02*
X10943991Y-11030460D01*
X10943991Y-11030460D02*
X10934467Y-11020936D01*
X10934467Y-11020936D02*
X10924944Y-11001889D01*
X10924944Y-11001889D02*
X10915420Y-10963793D01*
X10915420Y-10963793D02*
X10915420Y-10916174D01*
X10915420Y-10916174D02*
X10924944Y-10878079D01*
X10924944Y-10878079D02*
X10934467Y-10859031D01*
X10934467Y-10859031D02*
X10943991Y-10849508D01*
X10943991Y-10849508D02*
X10963039Y-10839984D01*
X11115420Y-11039984D02*
X11115420Y-10906650D01*
X11115420Y-10925698D02*
X11124944Y-10916174D01*
X11124944Y-10916174D02*
X11143991Y-10906650D01*
X11143991Y-10906650D02*
X11172563Y-10906650D01*
X11172563Y-10906650D02*
X11191610Y-10916174D01*
X11191610Y-10916174D02*
X11201134Y-10935222D01*
X11201134Y-10935222D02*
X11201134Y-11039984D01*
X11201134Y-10935222D02*
X11210658Y-10916174D01*
X11210658Y-10916174D02*
X11229705Y-10906650D01*
X11229705Y-10906650D02*
X11258277Y-10906650D01*
X11258277Y-10906650D02*
X11277324Y-10916174D01*
X11277324Y-10916174D02*
X11286848Y-10935222D01*
X11286848Y-10935222D02*
X11286848Y-11039984D01*
X11382086Y-11039984D02*
X11382086Y-10906650D01*
X11382086Y-10925698D02*
X11391610Y-10916174D01*
X11391610Y-10916174D02*
X11410658Y-10906650D01*
X11410658Y-10906650D02*
X11439229Y-10906650D01*
X11439229Y-10906650D02*
X11458277Y-10916174D01*
X11458277Y-10916174D02*
X11467801Y-10935222D01*
X11467801Y-10935222D02*
X11467801Y-11039984D01*
X11467801Y-10935222D02*
X11477324Y-10916174D01*
X11477324Y-10916174D02*
X11496372Y-10906650D01*
X11496372Y-10906650D02*
X11524943Y-10906650D01*
X11524943Y-10906650D02*
X11543991Y-10916174D01*
X11543991Y-10916174D02*
X11553515Y-10935222D01*
X11553515Y-10935222D02*
X11553515Y-11039984D01*
X11943991Y-10830460D02*
X11772563Y-11087603D01*
X12201134Y-10839984D02*
X12220182Y-10839984D01*
X12220182Y-10839984D02*
X12239229Y-10849508D01*
X12239229Y-10849508D02*
X12248753Y-10859031D01*
X12248753Y-10859031D02*
X12258277Y-10878079D01*
X12258277Y-10878079D02*
X12267801Y-10916174D01*
X12267801Y-10916174D02*
X12267801Y-10963793D01*
X12267801Y-10963793D02*
X12258277Y-11001889D01*
X12258277Y-11001889D02*
X12248753Y-11020936D01*
X12248753Y-11020936D02*
X12239229Y-11030460D01*
X12239229Y-11030460D02*
X12220182Y-11039984D01*
X12220182Y-11039984D02*
X12201134Y-11039984D01*
X12201134Y-11039984D02*
X12182086Y-11030460D01*
X12182086Y-11030460D02*
X12172563Y-11020936D01*
X12172563Y-11020936D02*
X12163039Y-11001889D01*
X12163039Y-11001889D02*
X12153515Y-10963793D01*
X12153515Y-10963793D02*
X12153515Y-10916174D01*
X12153515Y-10916174D02*
X12163039Y-10878079D01*
X12163039Y-10878079D02*
X12172563Y-10859031D01*
X12172563Y-10859031D02*
X12182086Y-10849508D01*
X12182086Y-10849508D02*
X12201134Y-10839984D01*
X12353515Y-11020936D02*
X12363039Y-11030460D01*
X12363039Y-11030460D02*
X12353515Y-11039984D01*
X12353515Y-11039984D02*
X12343991Y-11030460D01*
X12343991Y-11030460D02*
X12353515Y-11020936D01*
X12353515Y-11020936D02*
X12353515Y-11039984D01*
X12486848Y-10839984D02*
X12505896Y-10839984D01*
X12505896Y-10839984D02*
X12524944Y-10849508D01*
X12524944Y-10849508D02*
X12534467Y-10859031D01*
X12534467Y-10859031D02*
X12543991Y-10878079D01*
X12543991Y-10878079D02*
X12553515Y-10916174D01*
X12553515Y-10916174D02*
X12553515Y-10963793D01*
X12553515Y-10963793D02*
X12543991Y-11001889D01*
X12543991Y-11001889D02*
X12534467Y-11020936D01*
X12534467Y-11020936D02*
X12524944Y-11030460D01*
X12524944Y-11030460D02*
X12505896Y-11039984D01*
X12505896Y-11039984D02*
X12486848Y-11039984D01*
X12486848Y-11039984D02*
X12467801Y-11030460D01*
X12467801Y-11030460D02*
X12458277Y-11020936D01*
X12458277Y-11020936D02*
X12448753Y-11001889D01*
X12448753Y-11001889D02*
X12439229Y-10963793D01*
X12439229Y-10963793D02*
X12439229Y-10916174D01*
X12439229Y-10916174D02*
X12448753Y-10878079D01*
X12448753Y-10878079D02*
X12458277Y-10859031D01*
X12458277Y-10859031D02*
X12467801Y-10849508D01*
X12467801Y-10849508D02*
X12486848Y-10839984D01*
X12724944Y-10906650D02*
X12724944Y-11039984D01*
X12677325Y-10830460D02*
X12629706Y-10973317D01*
X12629706Y-10973317D02*
X12753515Y-10973317D01*
X12810658Y-10839984D02*
X12934467Y-10839984D01*
X12934467Y-10839984D02*
X12867801Y-10916174D01*
X12867801Y-10916174D02*
X12896372Y-10916174D01*
X12896372Y-10916174D02*
X12915420Y-10925698D01*
X12915420Y-10925698D02*
X12924944Y-10935222D01*
X12924944Y-10935222D02*
X12934467Y-10954270D01*
X12934467Y-10954270D02*
X12934467Y-11001889D01*
X12934467Y-11001889D02*
X12924944Y-11020936D01*
X12924944Y-11020936D02*
X12915420Y-11030460D01*
X12915420Y-11030460D02*
X12896372Y-11039984D01*
X12896372Y-11039984D02*
X12839229Y-11039984D01*
X12839229Y-11039984D02*
X12820182Y-11030460D01*
X12820182Y-11030460D02*
X12810658Y-11020936D01*
X13001134Y-10839984D02*
X13124944Y-10839984D01*
X13124944Y-10839984D02*
X13058277Y-10916174D01*
X13058277Y-10916174D02*
X13086848Y-10916174D01*
X13086848Y-10916174D02*
X13105896Y-10925698D01*
X13105896Y-10925698D02*
X13115420Y-10935222D01*
X13115420Y-10935222D02*
X13124944Y-10954270D01*
X13124944Y-10954270D02*
X13124944Y-11001889D01*
X13124944Y-11001889D02*
X13115420Y-11020936D01*
X13115420Y-11020936D02*
X13105896Y-11030460D01*
X13105896Y-11030460D02*
X13086848Y-11039984D01*
X13086848Y-11039984D02*
X13029706Y-11039984D01*
X13029706Y-11039984D02*
X13010658Y-11030460D01*
X13010658Y-11030460D02*
X13001134Y-11020936D01*
X13201134Y-10839984D02*
X13201134Y-10878079D01*
X13277325Y-10839984D02*
X13277325Y-10878079D01*
X13572563Y-11116174D02*
X13563039Y-11106650D01*
X13563039Y-11106650D02*
X13543991Y-11078079D01*
X13543991Y-11078079D02*
X13534468Y-11059031D01*
X13534468Y-11059031D02*
X13524944Y-11030460D01*
X13524944Y-11030460D02*
X13515420Y-10982841D01*
X13515420Y-10982841D02*
X13515420Y-10944746D01*
X13515420Y-10944746D02*
X13524944Y-10897127D01*
X13524944Y-10897127D02*
X13534468Y-10868555D01*
X13534468Y-10868555D02*
X13543991Y-10849508D01*
X13543991Y-10849508D02*
X13563039Y-10820936D01*
X13563039Y-10820936D02*
X13572563Y-10811412D01*
X13753515Y-11039984D02*
X13639229Y-11039984D01*
X13696372Y-11039984D02*
X13696372Y-10839984D01*
X13696372Y-10839984D02*
X13677325Y-10868555D01*
X13677325Y-10868555D02*
X13658277Y-10887603D01*
X13658277Y-10887603D02*
X13639229Y-10897127D01*
X13924944Y-10906650D02*
X13924944Y-11039984D01*
X13877325Y-10830460D02*
X13829706Y-10973317D01*
X13829706Y-10973317D02*
X13953515Y-10973317D01*
X14182087Y-11039984D02*
X14182087Y-10839984D01*
X14267801Y-11039984D02*
X14267801Y-10935222D01*
X14267801Y-10935222D02*
X14258277Y-10916174D01*
X14258277Y-10916174D02*
X14239230Y-10906650D01*
X14239230Y-10906650D02*
X14210658Y-10906650D01*
X14210658Y-10906650D02*
X14191610Y-10916174D01*
X14191610Y-10916174D02*
X14182087Y-10925698D01*
X14391610Y-11039984D02*
X14372563Y-11030460D01*
X14372563Y-11030460D02*
X14363039Y-11020936D01*
X14363039Y-11020936D02*
X14353515Y-11001889D01*
X14353515Y-11001889D02*
X14353515Y-10944746D01*
X14353515Y-10944746D02*
X14363039Y-10925698D01*
X14363039Y-10925698D02*
X14372563Y-10916174D01*
X14372563Y-10916174D02*
X14391610Y-10906650D01*
X14391610Y-10906650D02*
X14420182Y-10906650D01*
X14420182Y-10906650D02*
X14439230Y-10916174D01*
X14439230Y-10916174D02*
X14448753Y-10925698D01*
X14448753Y-10925698D02*
X14458277Y-10944746D01*
X14458277Y-10944746D02*
X14458277Y-11001889D01*
X14458277Y-11001889D02*
X14448753Y-11020936D01*
X14448753Y-11020936D02*
X14439230Y-11030460D01*
X14439230Y-11030460D02*
X14420182Y-11039984D01*
X14420182Y-11039984D02*
X14391610Y-11039984D01*
X14572563Y-11039984D02*
X14553515Y-11030460D01*
X14553515Y-11030460D02*
X14543991Y-11011412D01*
X14543991Y-11011412D02*
X14543991Y-10839984D01*
X14724944Y-11030460D02*
X14705896Y-11039984D01*
X14705896Y-11039984D02*
X14667801Y-11039984D01*
X14667801Y-11039984D02*
X14648753Y-11030460D01*
X14648753Y-11030460D02*
X14639230Y-11011412D01*
X14639230Y-11011412D02*
X14639230Y-10935222D01*
X14639230Y-10935222D02*
X14648753Y-10916174D01*
X14648753Y-10916174D02*
X14667801Y-10906650D01*
X14667801Y-10906650D02*
X14705896Y-10906650D01*
X14705896Y-10906650D02*
X14724944Y-10916174D01*
X14724944Y-10916174D02*
X14734468Y-10935222D01*
X14734468Y-10935222D02*
X14734468Y-10954270D01*
X14734468Y-10954270D02*
X14639230Y-10973317D01*
X14810658Y-11030460D02*
X14829706Y-11039984D01*
X14829706Y-11039984D02*
X14867801Y-11039984D01*
X14867801Y-11039984D02*
X14886849Y-11030460D01*
X14886849Y-11030460D02*
X14896372Y-11011412D01*
X14896372Y-11011412D02*
X14896372Y-11001889D01*
X14896372Y-11001889D02*
X14886849Y-10982841D01*
X14886849Y-10982841D02*
X14867801Y-10973317D01*
X14867801Y-10973317D02*
X14839230Y-10973317D01*
X14839230Y-10973317D02*
X14820182Y-10963793D01*
X14820182Y-10963793D02*
X14810658Y-10944746D01*
X14810658Y-10944746D02*
X14810658Y-10935222D01*
X14810658Y-10935222D02*
X14820182Y-10916174D01*
X14820182Y-10916174D02*
X14839230Y-10906650D01*
X14839230Y-10906650D02*
X14867801Y-10906650D01*
X14867801Y-10906650D02*
X14886849Y-10916174D01*
X14963039Y-11116174D02*
X14972563Y-11106650D01*
X14972563Y-11106650D02*
X14991611Y-11078079D01*
X14991611Y-11078079D02*
X15001134Y-11059031D01*
X15001134Y-11059031D02*
X15010658Y-11030460D01*
X15010658Y-11030460D02*
X15020182Y-10982841D01*
X15020182Y-10982841D02*
X15020182Y-10944746D01*
X15020182Y-10944746D02*
X15010658Y-10897127D01*
X15010658Y-10897127D02*
X15001134Y-10868555D01*
X15001134Y-10868555D02*
X14991611Y-10849508D01*
X14991611Y-10849508D02*
X14972563Y-10820936D01*
X14972563Y-10820936D02*
X14963039Y-10811412D01*
M02*
