%TF.GenerationSoftware,KiCad,Pcbnew,8.0.7*%
%TF.CreationDate,2025-03-05T10:46:07+02:00*%
%TF.ProjectId,H bridge,48206272-6964-4676-952e-6b696361645f,rev?*%
%TF.SameCoordinates,Original*%
%TF.FileFunction,Copper,L2,Bot*%
%TF.FilePolarity,Positive*%
%FSLAX46Y46*%
G04 Gerber Fmt 4.6, Leading zero omitted, Abs format (unit mm)*
G04 Created by KiCad (PCBNEW 8.0.7) date 2025-03-05 10:46:07*
%MOMM*%
%LPD*%
G01*
G04 APERTURE LIST*
%TA.AperFunction,ComponentPad*%
%ADD10R,1.700000X1.700000*%
%TD*%
%TA.AperFunction,ComponentPad*%
%ADD11O,1.700000X1.700000*%
%TD*%
%TA.AperFunction,ComponentPad*%
%ADD12C,1.508000*%
%TD*%
%TA.AperFunction,ComponentPad*%
%ADD13O,1.600000X1.600000*%
%TD*%
%TA.AperFunction,ComponentPad*%
%ADD14C,1.600000*%
%TD*%
%TA.AperFunction,ComponentPad*%
%ADD15O,1.500000X1.050000*%
%TD*%
%TA.AperFunction,ComponentPad*%
%ADD16R,1.500000X1.050000*%
%TD*%
%TA.AperFunction,ComponentPad*%
%ADD17O,1.905000X2.000000*%
%TD*%
%TA.AperFunction,ComponentPad*%
%ADD18R,1.905000X2.000000*%
%TD*%
%TA.AperFunction,ComponentPad*%
%ADD19O,2.200000X2.200000*%
%TD*%
%TA.AperFunction,ComponentPad*%
%ADD20R,2.200000X2.200000*%
%TD*%
%TA.AperFunction,ComponentPad*%
%ADD21O,1.050000X1.500000*%
%TD*%
%TA.AperFunction,ComponentPad*%
%ADD22R,1.050000X1.500000*%
%TD*%
%TA.AperFunction,ViaPad*%
%ADD23C,1.000000*%
%TD*%
%TA.AperFunction,Conductor*%
%ADD24C,1.000000*%
%TD*%
G04 APERTURE END LIST*
D10*
%TO.P,J6,1,Pin_1*%
%TO.N,Signal_in*%
X144910000Y-49500000D03*
D11*
%TO.P,J6,2,Pin_2*%
%TO.N,+5V*%
X142370000Y-49500000D03*
%TO.P,J6,3,Pin_3*%
%TO.N,GND*%
X139830000Y-49500000D03*
%TD*%
D10*
%TO.P,J5,1,Pin_1*%
%TO.N,Net-(J5-Pin_1)*%
X126870000Y-49500000D03*
D11*
%TO.P,J5,2,Pin_2*%
%TO.N,Net-(J5-Pin_2)*%
X129410000Y-49500000D03*
%TD*%
D10*
%TO.P,J4,1,Pin_1*%
%TO.N,GND*%
X115685000Y-49500000D03*
D11*
%TO.P,J4,2,Pin_2*%
%TO.N,+24V*%
X113145000Y-49500000D03*
%TD*%
D12*
%TO.P,SW1,3*%
%TO.N,N/C*%
X105110000Y-64600000D03*
%TO.P,SW1,2,B*%
%TO.N,+24V*%
X105110000Y-67100000D03*
%TO.P,SW1,1,A*%
%TO.N,Net-(Q1-D)*%
X105110000Y-69600000D03*
%TD*%
D13*
%TO.P,R5,2*%
%TO.N,Net-(Q6-B)*%
X148110000Y-69080000D03*
D14*
%TO.P,R5,1*%
%TO.N,Net-(D1-K)*%
X148110000Y-58920000D03*
%TD*%
D13*
%TO.P,R1,2*%
%TO.N,Net-(Q1-D)*%
X110110000Y-74880000D03*
D14*
%TO.P,R1,1*%
%TO.N,Net-(Q1-G)*%
X110110000Y-64720000D03*
%TD*%
D15*
%TO.P,Q7,3,C*%
%TO.N,Net-(Q6-B)*%
X143700000Y-65200000D03*
%TO.P,Q7,2,B*%
%TO.N,Net-(D1-K)*%
X143700000Y-63930000D03*
D16*
%TO.P,Q7,1,E*%
%TO.N,+5V*%
X143700000Y-62660000D03*
%TD*%
D17*
%TO.P,Q2,3,S*%
%TO.N,GND*%
X134050000Y-68545000D03*
%TO.P,Q2,2,D*%
%TO.N,Net-(J5-Pin_1)*%
X131510000Y-68545000D03*
D18*
%TO.P,Q2,1,G*%
%TO.N,Net-(Q2-G)*%
X128970000Y-68545000D03*
%TD*%
D17*
%TO.P,Q1,3,S*%
%TO.N,Net-(J5-Pin_1)*%
X119650000Y-68545000D03*
%TO.P,Q1,2,D*%
%TO.N,Net-(Q1-D)*%
X117110000Y-68545000D03*
D18*
%TO.P,Q1,1,G*%
%TO.N,Net-(Q1-G)*%
X114570000Y-68545000D03*
%TD*%
D19*
%TO.P,D1,2,A*%
%TO.N,Signal_in*%
X132030000Y-81600000D03*
D20*
%TO.P,D1,1,K*%
%TO.N,Net-(D1-K)*%
X142190000Y-81600000D03*
%TD*%
D13*
%TO.P,R4,2*%
%TO.N,GND*%
X137830000Y-73000000D03*
D14*
%TO.P,R4,1*%
%TO.N,Net-(Q6-B)*%
X147990000Y-73000000D03*
%TD*%
D13*
%TO.P,R3,2*%
%TO.N,GND*%
X134910000Y-59250000D03*
D14*
%TO.P,R3,1*%
%TO.N,Signal_in*%
X145070000Y-59250000D03*
%TD*%
D17*
%TO.P,Q3,3,S*%
%TO.N,Net-(J5-Pin_2)*%
X114570000Y-76455000D03*
%TO.P,Q3,2,D*%
%TO.N,Net-(Q1-D)*%
X117110000Y-76455000D03*
D18*
%TO.P,Q3,1,G*%
%TO.N,Net-(Q2-G)*%
X119650000Y-76455000D03*
%TD*%
D17*
%TO.P,Q4,3,S*%
%TO.N,GND*%
X129170000Y-76455000D03*
%TO.P,Q4,2,D*%
%TO.N,Net-(J5-Pin_2)*%
X131710000Y-76455000D03*
D18*
%TO.P,Q4,1,G*%
%TO.N,Net-(Q1-G)*%
X134250000Y-76455000D03*
%TD*%
D21*
%TO.P,Q6,3,C*%
%TO.N,Net-(Q2-G)*%
X124140000Y-83250000D03*
%TO.P,Q6,2,B*%
%TO.N,Net-(Q6-B)*%
X125410000Y-83250000D03*
D22*
%TO.P,Q6,1,E*%
%TO.N,GND*%
X126680000Y-83250000D03*
%TD*%
D13*
%TO.P,R2,2*%
%TO.N,Net-(Q2-G)*%
X110160000Y-87830000D03*
D14*
%TO.P,R2,1*%
%TO.N,Net-(Q1-D)*%
X110160000Y-77670000D03*
%TD*%
D21*
%TO.P,Q5,3,C*%
%TO.N,Net-(Q1-G)*%
X133180000Y-85960000D03*
%TO.P,Q5,2,B*%
%TO.N,Signal_in*%
X131910000Y-85960000D03*
D22*
%TO.P,Q5,1,E*%
%TO.N,GND*%
X130640000Y-85960000D03*
%TD*%
D23*
%TO.N,Signal_in*%
X142660000Y-79000000D03*
%TD*%
D24*
%TO.N,GND*%
X118685000Y-46500000D02*
X136830000Y-46500000D01*
X115685000Y-49500000D02*
X118685000Y-46500000D01*
X136830000Y-46500000D02*
X139830000Y-49500000D01*
X135705000Y-68545000D02*
X134050000Y-68545000D01*
X137830000Y-70670000D02*
X135705000Y-68545000D01*
X137830000Y-73000000D02*
X137830000Y-70670000D01*
X134050000Y-60200000D02*
X134050000Y-68545000D01*
X135000000Y-59250000D02*
X134050000Y-60200000D01*
X133910000Y-68405000D02*
X134050000Y-68545000D01*
%TO.N,Signal_in*%
X143160000Y-78500000D02*
X142660000Y-79000000D01*
X143160000Y-73000000D02*
X143160000Y-78500000D01*
X145160000Y-71000000D02*
X143160000Y-73000000D01*
X149160000Y-71000000D02*
X145160000Y-71000000D01*
X150410000Y-53000000D02*
X150410000Y-69750000D01*
X146910000Y-49500000D02*
X150410000Y-53000000D01*
X144910000Y-49500000D02*
X146910000Y-49500000D01*
X150410000Y-69750000D02*
X149160000Y-71000000D01*
X144910000Y-59000000D02*
X144910000Y-49500000D01*
X145160000Y-59250000D02*
X144910000Y-59000000D01*
%TO.N,+5V*%
X142410000Y-61370000D02*
X142410000Y-49540000D01*
X143700000Y-62660000D02*
X142410000Y-61370000D01*
X142370000Y-49500000D02*
X142410000Y-49540000D01*
%TO.N,+24V*%
X106910000Y-65800000D02*
X105610000Y-67100000D01*
X113145000Y-49585000D02*
X106910000Y-55820000D01*
X113145000Y-49500000D02*
X113145000Y-49585000D01*
X106910000Y-55820000D02*
X106910000Y-65800000D01*
X105610000Y-67100000D02*
X105110000Y-67100000D01*
%TO.N,Net-(J5-Pin_2)*%
X114570000Y-80160000D02*
X114570000Y-76455000D01*
X125410000Y-91000000D02*
X114570000Y-80160000D01*
X136660000Y-91000000D02*
X125410000Y-91000000D01*
X139410000Y-88250000D02*
X136660000Y-91000000D01*
X139410000Y-58000000D02*
X139410000Y-88250000D01*
X136160000Y-54750000D02*
X139410000Y-58000000D01*
X131910000Y-54750000D02*
X136160000Y-54750000D01*
X129410000Y-52250000D02*
X131910000Y-54750000D01*
X129410000Y-49500000D02*
X129410000Y-52250000D01*
%TO.N,Net-(J5-Pin_1)*%
X126870000Y-53210000D02*
X126870000Y-49500000D01*
X131510000Y-57850000D02*
X126870000Y-53210000D01*
X131510000Y-68545000D02*
X131510000Y-57850000D01*
X129910000Y-66000000D02*
X122195000Y-66000000D01*
X131510000Y-68545000D02*
X131510000Y-67600000D01*
X131510000Y-67600000D02*
X129910000Y-66000000D01*
X122195000Y-66000000D02*
X119650000Y-68545000D01*
%TO.N,GND*%
X129110000Y-84430000D02*
X129110000Y-76515000D01*
X129110000Y-76515000D02*
X129170000Y-76455000D01*
X127930000Y-83250000D02*
X130640000Y-85960000D01*
X130640000Y-85960000D02*
X129110000Y-84430000D01*
X126680000Y-83250000D02*
X127930000Y-83250000D01*
%TO.N,Net-(Q1-G)*%
X110110000Y-64720000D02*
X110745000Y-64720000D01*
X134310000Y-76515000D02*
X134250000Y-76455000D01*
X110745000Y-64720000D02*
X114570000Y-68545000D01*
X134310000Y-84830000D02*
X134310000Y-76515000D01*
X130195000Y-72400000D02*
X134250000Y-76455000D01*
X114570000Y-68545000D02*
X118425000Y-72400000D01*
X133180000Y-85960000D02*
X134310000Y-84830000D01*
X118425000Y-72400000D02*
X130195000Y-72400000D01*
%TO.N,Net-(Q2-G)*%
X119650000Y-76455000D02*
X119650000Y-82540000D01*
X128970000Y-70260000D02*
X128970000Y-68545000D01*
X129710000Y-71000000D02*
X128970000Y-70260000D01*
X137910000Y-75400000D02*
X133510000Y-71000000D01*
X135710000Y-89000000D02*
X137910000Y-86800000D01*
X124140000Y-83250000D02*
X120410000Y-83250000D01*
X126110000Y-89000000D02*
X135710000Y-89000000D01*
X120410000Y-83250000D02*
X119700000Y-82540000D01*
X119700000Y-82540000D02*
X119650000Y-82540000D01*
X133510000Y-71000000D02*
X129710000Y-71000000D01*
X119650000Y-82540000D02*
X126110000Y-89000000D01*
X137910000Y-86800000D02*
X137910000Y-75400000D01*
%TO.N,Net-(D1-K)*%
X148110000Y-60925000D02*
X148110000Y-58920000D01*
X141410000Y-65250000D02*
X142730000Y-63930000D01*
X143700000Y-63930000D02*
X145105000Y-63930000D01*
X142190000Y-81600000D02*
X141410000Y-80820000D01*
X145105000Y-63930000D02*
X148110000Y-60925000D01*
X142730000Y-63930000D02*
X143700000Y-63930000D01*
X141410000Y-80820000D02*
X141410000Y-65250000D01*
%TO.N,Net-(Q6-B)*%
X143700000Y-65200000D02*
X145610000Y-65200000D01*
X148110000Y-67700000D02*
X148110000Y-69080000D01*
X145610000Y-65200000D02*
X148110000Y-67700000D01*
%TO.N,Signal_in*%
X131910000Y-85960000D02*
X131910000Y-81720000D01*
X131910000Y-81720000D02*
X132030000Y-81600000D01*
%TO.N,Net-(Q1-D)*%
X117110000Y-76455000D02*
X114255000Y-73600000D01*
X106310000Y-69600000D02*
X105110000Y-69600000D01*
X105110000Y-71800000D02*
X108190000Y-74880000D01*
X114255000Y-73600000D02*
X112310000Y-73600000D01*
X108310000Y-63600000D02*
X108310000Y-67600000D01*
X108310000Y-67600000D02*
X106310000Y-69600000D01*
X117110000Y-68545000D02*
X117110000Y-66545000D01*
X111910000Y-73600000D02*
X112310000Y-73600000D01*
X113165000Y-62600000D02*
X109310000Y-62600000D01*
X105110000Y-69600000D02*
X105110000Y-71800000D01*
X110160000Y-74930000D02*
X110110000Y-74880000D01*
X117110000Y-66545000D02*
X113165000Y-62600000D01*
X109310000Y-62600000D02*
X108310000Y-63600000D01*
X108190000Y-74880000D02*
X110110000Y-74880000D01*
X110110000Y-74880000D02*
X111390000Y-73600000D01*
X111390000Y-73600000D02*
X112310000Y-73600000D01*
X110160000Y-77670000D02*
X110160000Y-74930000D01*
%TD*%
%TA.AperFunction,Conductor*%
%TO.N,GND*%
G36*
X151010878Y-43000975D02*
G01*
X151043854Y-43002414D01*
X151370400Y-43016672D01*
X151413740Y-43020463D01*
X151759732Y-43066014D01*
X151802598Y-43073573D01*
X152143292Y-43149102D01*
X152185334Y-43160368D01*
X152518149Y-43265304D01*
X152559027Y-43280181D01*
X152881455Y-43413735D01*
X152920897Y-43432128D01*
X153230427Y-43593260D01*
X153268113Y-43615017D01*
X153562442Y-43802525D01*
X153598096Y-43827491D01*
X153874936Y-44039918D01*
X153908284Y-44067900D01*
X154165564Y-44303654D01*
X154196345Y-44334435D01*
X154432099Y-44591715D01*
X154460081Y-44625063D01*
X154672508Y-44901903D01*
X154697478Y-44937563D01*
X154884978Y-45231880D01*
X154906743Y-45269579D01*
X155067870Y-45579101D01*
X155086268Y-45618554D01*
X155219812Y-45940959D01*
X155234698Y-45981858D01*
X155339631Y-46314666D01*
X155350898Y-46356714D01*
X155426426Y-46697401D01*
X155433985Y-46740270D01*
X155479534Y-47086242D01*
X155483328Y-47129609D01*
X155499025Y-47489119D01*
X155499500Y-47510886D01*
X155499500Y-87489113D01*
X155499025Y-87510880D01*
X155483328Y-87870390D01*
X155479534Y-87913757D01*
X155433985Y-88259729D01*
X155426426Y-88302598D01*
X155350898Y-88643285D01*
X155339631Y-88685333D01*
X155234698Y-89018141D01*
X155219809Y-89059050D01*
X155086268Y-89381445D01*
X155067870Y-89420898D01*
X154906743Y-89730420D01*
X154884978Y-89768119D01*
X154697478Y-90062436D01*
X154672508Y-90098096D01*
X154460081Y-90374936D01*
X154432099Y-90408284D01*
X154196345Y-90665564D01*
X154165564Y-90696345D01*
X153908284Y-90932099D01*
X153874936Y-90960081D01*
X153598096Y-91172508D01*
X153562436Y-91197478D01*
X153268119Y-91384978D01*
X153230420Y-91406743D01*
X152920898Y-91567870D01*
X152881445Y-91586268D01*
X152559050Y-91719809D01*
X152518141Y-91734698D01*
X152185333Y-91839631D01*
X152143285Y-91850898D01*
X151802598Y-91926426D01*
X151759729Y-91933985D01*
X151413757Y-91979534D01*
X151370390Y-91983328D01*
X151039932Y-91997756D01*
X151010878Y-91999025D01*
X150989113Y-91999500D01*
X138987219Y-91999500D01*
X138846634Y-91979287D01*
X138717439Y-91920286D01*
X138610100Y-91827276D01*
X138533313Y-91707792D01*
X138493298Y-91571515D01*
X138493298Y-91429485D01*
X138533313Y-91293208D01*
X138610100Y-91173724D01*
X138634373Y-91147654D01*
X139463996Y-90318031D01*
X140554517Y-89227510D01*
X140693343Y-89036434D01*
X140800568Y-88825992D01*
X140834117Y-88722738D01*
X140873553Y-88601368D01*
X140889387Y-88501392D01*
X140910500Y-88368096D01*
X140910500Y-87378712D01*
X149149500Y-87378712D01*
X149149500Y-87621287D01*
X149181160Y-87861781D01*
X149181161Y-87861787D01*
X149243946Y-88096101D01*
X149243947Y-88096104D01*
X149336775Y-88320211D01*
X149458061Y-88530284D01*
X149458066Y-88530293D01*
X149605728Y-88722730D01*
X149605739Y-88722742D01*
X149777257Y-88894260D01*
X149777269Y-88894271D01*
X149969706Y-89041933D01*
X149969709Y-89041935D01*
X149969711Y-89041936D01*
X150019764Y-89070834D01*
X150179788Y-89163224D01*
X150369084Y-89241633D01*
X150403900Y-89256054D01*
X150638211Y-89318838D01*
X150638215Y-89318838D01*
X150638218Y-89318839D01*
X150878712Y-89350500D01*
X151121288Y-89350500D01*
X151361781Y-89318839D01*
X151361779Y-89318839D01*
X151361789Y-89318838D01*
X151596100Y-89256054D01*
X151820212Y-89163224D01*
X152030289Y-89041936D01*
X152222738Y-88894265D01*
X152394265Y-88722738D01*
X152541936Y-88530289D01*
X152663224Y-88320212D01*
X152756054Y-88096100D01*
X152818838Y-87861789D01*
X152850500Y-87621288D01*
X152850500Y-87378712D01*
X152818838Y-87138211D01*
X152756054Y-86903900D01*
X152695547Y-86757824D01*
X152663224Y-86679788D01*
X152541938Y-86469715D01*
X152541933Y-86469706D01*
X152394271Y-86277269D01*
X152394260Y-86277257D01*
X152222742Y-86105739D01*
X152222730Y-86105728D01*
X152030293Y-85958066D01*
X152030284Y-85958061D01*
X151820211Y-85836775D01*
X151596104Y-85743947D01*
X151596101Y-85743946D01*
X151361787Y-85681161D01*
X151361781Y-85681160D01*
X151121288Y-85649500D01*
X150878712Y-85649500D01*
X150638218Y-85681160D01*
X150638212Y-85681161D01*
X150403898Y-85743946D01*
X150403895Y-85743947D01*
X150179788Y-85836775D01*
X149969715Y-85958061D01*
X149969706Y-85958066D01*
X149777269Y-86105728D01*
X149777257Y-86105739D01*
X149605739Y-86277257D01*
X149605728Y-86277269D01*
X149458066Y-86469706D01*
X149458061Y-86469715D01*
X149336775Y-86679788D01*
X149243947Y-86903895D01*
X149243946Y-86903898D01*
X149181161Y-87138212D01*
X149181160Y-87138218D01*
X149149500Y-87378712D01*
X140910500Y-87378712D01*
X140910500Y-84199499D01*
X140930713Y-84058914D01*
X140989714Y-83929719D01*
X141082724Y-83822380D01*
X141202208Y-83745593D01*
X141338485Y-83705578D01*
X141409488Y-83700499D01*
X143348036Y-83700499D01*
X143467418Y-83689886D01*
X143663049Y-83633909D01*
X143843407Y-83539698D01*
X144001109Y-83411109D01*
X144129698Y-83253407D01*
X144223909Y-83073049D01*
X144279886Y-82877418D01*
X144290500Y-82758037D01*
X144290499Y-80441964D01*
X144279886Y-80322582D01*
X144223909Y-80126951D01*
X144198381Y-80078081D01*
X144151207Y-79944118D01*
X144143685Y-79802287D01*
X144176427Y-79664082D01*
X144246778Y-79540700D01*
X144287818Y-79494209D01*
X144304518Y-79477510D01*
X144443343Y-79286433D01*
X144550568Y-79075992D01*
X144623553Y-78851368D01*
X144660500Y-78618092D01*
X144660500Y-78381908D01*
X144660500Y-73828219D01*
X144680713Y-73687634D01*
X144739714Y-73558439D01*
X144806648Y-73475378D01*
X145352381Y-72929645D01*
X145466075Y-72844535D01*
X145599150Y-72794901D01*
X145740819Y-72784768D01*
X145879603Y-72814959D01*
X146004260Y-72883027D01*
X146104691Y-72983457D01*
X146172759Y-73108114D01*
X146202825Y-73245196D01*
X146204617Y-73269102D01*
X146204617Y-73269105D01*
X146264667Y-73532200D01*
X146363255Y-73783395D01*
X146363256Y-73783397D01*
X146498180Y-74017094D01*
X146498191Y-74017110D01*
X146666436Y-74228082D01*
X146666438Y-74228084D01*
X146666439Y-74228085D01*
X146864259Y-74411635D01*
X147087226Y-74563651D01*
X147330359Y-74680738D01*
X147588228Y-74760280D01*
X147855071Y-74800500D01*
X147855075Y-74800500D01*
X148124925Y-74800500D01*
X148124929Y-74800500D01*
X148391772Y-74760280D01*
X148649641Y-74680738D01*
X148892775Y-74563651D01*
X149115741Y-74411635D01*
X149313561Y-74228085D01*
X149481815Y-74017102D01*
X149616743Y-73783398D01*
X149715334Y-73532195D01*
X149775383Y-73269103D01*
X149795549Y-73000000D01*
X149775383Y-72730897D01*
X149775381Y-72730892D01*
X149773987Y-72712278D01*
X149776474Y-72712091D01*
X149775689Y-72597362D01*
X149814770Y-72460814D01*
X149890737Y-72340808D01*
X149976773Y-72261299D01*
X150137510Y-72144517D01*
X151554517Y-70727510D01*
X151693343Y-70536434D01*
X151800568Y-70325992D01*
X151873553Y-70101368D01*
X151910500Y-69868092D01*
X151910500Y-69631908D01*
X151910500Y-52881908D01*
X151873553Y-52648632D01*
X151806624Y-52442646D01*
X151802357Y-52427518D01*
X151693345Y-52213569D01*
X151693340Y-52213562D01*
X151554519Y-52022492D01*
X149345894Y-49813867D01*
X149260778Y-49700166D01*
X149211144Y-49567091D01*
X149201011Y-49425423D01*
X149231202Y-49286638D01*
X149249643Y-49252864D01*
X149118794Y-49293834D01*
X148976787Y-49296368D01*
X148839818Y-49258792D01*
X148718983Y-49184148D01*
X148686132Y-49154105D01*
X147887511Y-48355484D01*
X147887510Y-48355483D01*
X147696434Y-48216657D01*
X147696433Y-48216656D01*
X147696431Y-48216655D01*
X147696424Y-48216651D01*
X147485997Y-48109434D01*
X147485979Y-48109427D01*
X147261373Y-48036448D01*
X147261367Y-48036446D01*
X147028092Y-47999500D01*
X146723095Y-47999500D01*
X146582510Y-47979287D01*
X146453315Y-47920286D01*
X146407757Y-47887234D01*
X146353396Y-47842909D01*
X146313407Y-47810302D01*
X146133049Y-47716091D01*
X145937418Y-47660114D01*
X145818037Y-47649500D01*
X145818029Y-47649500D01*
X144001969Y-47649500D01*
X143882582Y-47660114D01*
X143686953Y-47716090D01*
X143686941Y-47716095D01*
X143548875Y-47788215D01*
X143414908Y-47835389D01*
X143273077Y-47842909D01*
X143143459Y-47813459D01*
X142892676Y-47719922D01*
X142634033Y-47663658D01*
X142634034Y-47663658D01*
X142634028Y-47663657D01*
X142634026Y-47663657D01*
X142370000Y-47644773D01*
X142105974Y-47663657D01*
X142105971Y-47663657D01*
X142105965Y-47663658D01*
X141847324Y-47719922D01*
X141847321Y-47719923D01*
X141599313Y-47812424D01*
X141599310Y-47812425D01*
X141401781Y-47920286D01*
X141366989Y-47939284D01*
X141187196Y-48073875D01*
X141155085Y-48097913D01*
X141040408Y-48212590D01*
X140926707Y-48297705D01*
X140793631Y-48347339D01*
X140651963Y-48357470D01*
X140513179Y-48327279D01*
X140476676Y-48311989D01*
X140330000Y-48243592D01*
X140330000Y-49434174D01*
X140295925Y-49307007D01*
X140230099Y-49192993D01*
X140137007Y-49099901D01*
X140022993Y-49034075D01*
X139895826Y-49000000D01*
X139764174Y-49000000D01*
X139637007Y-49034075D01*
X139522993Y-49099901D01*
X139429901Y-49192993D01*
X139364075Y-49307007D01*
X139330000Y-49434174D01*
X139330000Y-49565826D01*
X139364075Y-49692993D01*
X139429901Y-49807007D01*
X139522993Y-49900099D01*
X139637007Y-49965925D01*
X139764174Y-50000000D01*
X139895826Y-50000000D01*
X140022993Y-49965925D01*
X140137007Y-49900099D01*
X140230099Y-49807007D01*
X140295925Y-49692993D01*
X140330000Y-49565826D01*
X140330000Y-50756406D01*
X140360618Y-50775912D01*
X140477593Y-50774984D01*
X140614183Y-50813916D01*
X140734272Y-50889752D01*
X140828131Y-50996350D01*
X140888156Y-51125073D01*
X140909484Y-51265493D01*
X140909500Y-51269453D01*
X140909500Y-56172781D01*
X140889287Y-56313366D01*
X140830286Y-56442561D01*
X140737276Y-56549900D01*
X140617792Y-56626687D01*
X140481515Y-56666702D01*
X140339485Y-56666702D01*
X140203208Y-56626687D01*
X140083724Y-56549900D01*
X140057654Y-56525627D01*
X137137511Y-53605484D01*
X137137510Y-53605483D01*
X136946434Y-53466657D01*
X136946433Y-53466656D01*
X136946431Y-53466655D01*
X136946424Y-53466651D01*
X136735997Y-53359434D01*
X136735979Y-53359427D01*
X136511373Y-53286448D01*
X136511367Y-53286446D01*
X136278092Y-53249500D01*
X132738219Y-53249500D01*
X132597634Y-53229287D01*
X132468439Y-53170286D01*
X132385373Y-53103346D01*
X131056654Y-51774627D01*
X130971538Y-51660926D01*
X130921904Y-51527851D01*
X130910500Y-51421781D01*
X130910500Y-50740650D01*
X130930713Y-50600065D01*
X130971539Y-50501503D01*
X130995636Y-50457374D01*
X131097574Y-50270689D01*
X131190077Y-50022678D01*
X131195010Y-50000000D01*
X138573592Y-50000000D01*
X138656398Y-50177576D01*
X138656398Y-50177577D01*
X138791890Y-50371078D01*
X138791894Y-50371083D01*
X138958918Y-50538107D01*
X139152422Y-50673600D01*
X139330000Y-50756405D01*
X139330000Y-50000000D01*
X138573592Y-50000000D01*
X131195010Y-50000000D01*
X131246343Y-49764026D01*
X131265227Y-49500000D01*
X131246343Y-49235974D01*
X131195010Y-49000000D01*
X138573594Y-49000000D01*
X139330000Y-49000000D01*
X139330000Y-48243593D01*
X139152420Y-48326400D01*
X138958923Y-48461888D01*
X138958917Y-48461893D01*
X138791893Y-48628917D01*
X138791888Y-48628923D01*
X138656401Y-48822420D01*
X138656398Y-48822424D01*
X138573594Y-49000000D01*
X131195010Y-49000000D01*
X131190077Y-48977322D01*
X131124246Y-48800822D01*
X131097575Y-48729313D01*
X131097574Y-48729310D01*
X131028152Y-48602175D01*
X130970716Y-48496989D01*
X130812087Y-48285085D01*
X130624915Y-48097913D01*
X130413011Y-47939284D01*
X130314959Y-47885743D01*
X130180689Y-47812425D01*
X130180686Y-47812424D01*
X129932678Y-47719923D01*
X129932675Y-47719922D01*
X129674033Y-47663658D01*
X129674034Y-47663658D01*
X129674028Y-47663657D01*
X129674026Y-47663657D01*
X129410000Y-47644773D01*
X129145974Y-47663657D01*
X129145971Y-47663657D01*
X129145965Y-47663658D01*
X128887324Y-47719922D01*
X128887317Y-47719924D01*
X128636539Y-47813459D01*
X128497755Y-47843650D01*
X128356087Y-47833517D01*
X128231124Y-47788215D01*
X128093049Y-47716091D01*
X127897418Y-47660114D01*
X127778037Y-47649500D01*
X127778029Y-47649500D01*
X125961969Y-47649500D01*
X125842582Y-47660114D01*
X125646953Y-47716090D01*
X125646942Y-47716095D01*
X125466592Y-47810302D01*
X125466589Y-47810304D01*
X125308891Y-47938889D01*
X125308889Y-47938891D01*
X125180304Y-48096589D01*
X125180302Y-48096592D01*
X125086095Y-48276942D01*
X125086090Y-48276953D01*
X125030114Y-48472581D01*
X125030114Y-48472582D01*
X125019500Y-48591963D01*
X125019500Y-48591969D01*
X125019500Y-48591970D01*
X125019500Y-50408030D01*
X125030114Y-50527417D01*
X125086090Y-50723046D01*
X125086095Y-50723057D01*
X125180301Y-50903406D01*
X125257233Y-50997755D01*
X125330409Y-51119483D01*
X125366326Y-51256897D01*
X125369500Y-51313094D01*
X125369500Y-53328092D01*
X125406446Y-53561367D01*
X125406448Y-53561373D01*
X125479427Y-53785979D01*
X125479434Y-53785997D01*
X125586651Y-53996424D01*
X125586655Y-53996431D01*
X125586657Y-53996434D01*
X125725483Y-54187510D01*
X125725484Y-54187511D01*
X129863346Y-58325373D01*
X129948462Y-58439074D01*
X129998096Y-58572149D01*
X130009500Y-58678219D01*
X130009500Y-64000500D01*
X129989287Y-64141085D01*
X129930286Y-64270280D01*
X129837276Y-64377619D01*
X129717792Y-64454406D01*
X129581515Y-64494421D01*
X129510500Y-64499500D01*
X122076908Y-64499500D01*
X121843632Y-64536446D01*
X121843626Y-64536448D01*
X121619020Y-64609427D01*
X121619008Y-64609432D01*
X121408566Y-64716656D01*
X121217489Y-64855481D01*
X121217486Y-64855484D01*
X119649230Y-66423742D01*
X119535529Y-66508858D01*
X119402454Y-66558492D01*
X119361519Y-66565627D01*
X119268169Y-66577917D01*
X119195527Y-66597381D01*
X119054501Y-66614242D01*
X118914437Y-66590688D01*
X118786683Y-66528627D01*
X118681589Y-66433088D01*
X118607667Y-66311811D01*
X118579017Y-66212487D01*
X118578131Y-66212700D01*
X118573554Y-66193638D01*
X118573553Y-66193632D01*
X118542967Y-66099499D01*
X118500572Y-65969020D01*
X118500570Y-65969013D01*
X118500568Y-65969010D01*
X118500568Y-65969008D01*
X118393343Y-65758567D01*
X118357644Y-65709432D01*
X118254518Y-65567490D01*
X118254515Y-65567487D01*
X118254512Y-65567483D01*
X114142511Y-61455484D01*
X114142510Y-61455483D01*
X113951434Y-61316657D01*
X113951433Y-61316656D01*
X113951431Y-61316655D01*
X113951424Y-61316651D01*
X113740997Y-61209434D01*
X113740979Y-61209427D01*
X113516373Y-61136448D01*
X113516367Y-61136446D01*
X113283092Y-61099500D01*
X109191908Y-61099500D01*
X109191907Y-61099500D01*
X108987560Y-61131865D01*
X108845544Y-61133892D01*
X108708710Y-61095828D01*
X108588142Y-61020754D01*
X108493609Y-60914754D01*
X108432769Y-60786414D01*
X108410551Y-60646132D01*
X108410500Y-60639008D01*
X108410500Y-56648219D01*
X108430713Y-56507634D01*
X108489714Y-56378439D01*
X108556654Y-56295373D01*
X110855603Y-53996424D01*
X113442100Y-51409926D01*
X113555798Y-51324813D01*
X113654352Y-51283990D01*
X113667666Y-51280080D01*
X113667668Y-51280079D01*
X113667678Y-51280077D01*
X113915689Y-51187574D01*
X114148011Y-51060716D01*
X114320773Y-50931387D01*
X114445423Y-50863324D01*
X114584207Y-50833133D01*
X114696488Y-50841164D01*
X114696586Y-50840261D01*
X114721877Y-50842979D01*
X114725876Y-50843266D01*
X114727081Y-50843539D01*
X114787175Y-50850000D01*
X115185000Y-50850000D01*
X116185000Y-50850000D01*
X116582825Y-50850000D01*
X116642374Y-50843597D01*
X116777089Y-50793352D01*
X116777090Y-50793351D01*
X116892188Y-50707188D01*
X116978351Y-50592090D01*
X116978352Y-50592089D01*
X117028597Y-50457374D01*
X117035000Y-50397824D01*
X117035000Y-50000000D01*
X116185000Y-50000000D01*
X116185000Y-50850000D01*
X115185000Y-50850000D01*
X115185000Y-49565826D01*
X115219075Y-49692993D01*
X115284901Y-49807007D01*
X115377993Y-49900099D01*
X115492007Y-49965925D01*
X115619174Y-50000000D01*
X115750826Y-50000000D01*
X115877993Y-49965925D01*
X115992007Y-49900099D01*
X116085099Y-49807007D01*
X116150925Y-49692993D01*
X116185000Y-49565826D01*
X116185000Y-49434174D01*
X116150925Y-49307007D01*
X116085099Y-49192993D01*
X115992007Y-49099901D01*
X115877993Y-49034075D01*
X115750826Y-49000000D01*
X116185000Y-49000000D01*
X117035000Y-49000000D01*
X117035000Y-48602175D01*
X117028597Y-48542625D01*
X116978352Y-48407910D01*
X116978351Y-48407909D01*
X116892188Y-48292811D01*
X116777090Y-48206648D01*
X116777089Y-48206647D01*
X116642374Y-48156402D01*
X116582825Y-48150000D01*
X116185000Y-48150000D01*
X116185000Y-49000000D01*
X115750826Y-49000000D01*
X115619174Y-49000000D01*
X115492007Y-49034075D01*
X115377993Y-49099901D01*
X115284901Y-49192993D01*
X115219075Y-49307007D01*
X115185000Y-49434174D01*
X115185000Y-48150000D01*
X114787175Y-48150000D01*
X114696586Y-48159739D01*
X114696418Y-48158176D01*
X114593087Y-48167421D01*
X114453786Y-48139710D01*
X114327935Y-48073875D01*
X114320855Y-48068673D01*
X114148011Y-47939284D01*
X114148007Y-47939282D01*
X114148008Y-47939282D01*
X113915689Y-47812425D01*
X113915686Y-47812424D01*
X113667678Y-47719923D01*
X113667675Y-47719922D01*
X113409033Y-47663658D01*
X113409034Y-47663658D01*
X113409028Y-47663657D01*
X113409026Y-47663657D01*
X113145000Y-47644773D01*
X112880974Y-47663657D01*
X112880971Y-47663657D01*
X112880965Y-47663658D01*
X112622324Y-47719922D01*
X112622321Y-47719923D01*
X112374313Y-47812424D01*
X112374310Y-47812425D01*
X112176781Y-47920286D01*
X112141989Y-47939284D01*
X111962196Y-48073875D01*
X111930081Y-48097916D01*
X111742916Y-48285081D01*
X111742913Y-48285084D01*
X111742913Y-48285085D01*
X111584284Y-48496989D01*
X111584282Y-48496993D01*
X111457425Y-48729310D01*
X111457424Y-48729313D01*
X111364923Y-48977321D01*
X111364922Y-48977324D01*
X111322192Y-49173752D01*
X111272558Y-49306827D01*
X111187442Y-49420528D01*
X105765484Y-54842488D01*
X105765483Y-54842490D01*
X105626655Y-55033568D01*
X105626651Y-55033575D01*
X105519434Y-55244002D01*
X105519427Y-55244020D01*
X105446448Y-55468626D01*
X105446446Y-55468632D01*
X105409500Y-55701907D01*
X105409500Y-62351116D01*
X105389287Y-62491701D01*
X105330286Y-62620896D01*
X105237276Y-62728235D01*
X105117792Y-62805022D01*
X104984870Y-62844543D01*
X104978520Y-62845500D01*
X104978518Y-62845500D01*
X104873277Y-62861362D01*
X104718495Y-62884691D01*
X104467217Y-62962200D01*
X104467214Y-62962201D01*
X104467212Y-62962202D01*
X104359119Y-63014257D01*
X104230283Y-63076301D01*
X104013023Y-63224426D01*
X104013021Y-63224428D01*
X103820256Y-63403287D01*
X103656306Y-63608873D01*
X103656296Y-63608887D01*
X103524814Y-63836620D01*
X103428749Y-64081391D01*
X103428746Y-64081400D01*
X103384124Y-64276902D01*
X103370231Y-64337772D01*
X103350580Y-64600000D01*
X103370231Y-64862228D01*
X103370231Y-64862232D01*
X103370232Y-64862233D01*
X103428746Y-65118599D01*
X103428749Y-65118608D01*
X103524815Y-65363380D01*
X103524817Y-65363384D01*
X103661716Y-65600501D01*
X103714503Y-65732357D01*
X103728004Y-65873744D01*
X103701124Y-66013208D01*
X103661716Y-66099499D01*
X103524817Y-66336615D01*
X103524815Y-66336619D01*
X103428749Y-66581391D01*
X103428746Y-66581400D01*
X103400242Y-66706284D01*
X103370231Y-66837772D01*
X103350580Y-67100000D01*
X103370231Y-67362228D01*
X103370231Y-67362232D01*
X103370232Y-67362233D01*
X103428746Y-67618599D01*
X103428749Y-67618608D01*
X103524815Y-67863380D01*
X103524817Y-67863384D01*
X103661716Y-68100501D01*
X103714503Y-68232357D01*
X103728004Y-68373744D01*
X103701124Y-68513208D01*
X103661716Y-68599499D01*
X103524817Y-68836615D01*
X103524815Y-68836619D01*
X103428749Y-69081391D01*
X103428746Y-69081400D01*
X103370232Y-69337766D01*
X103370231Y-69337772D01*
X103350580Y-69600000D01*
X103370231Y-69862228D01*
X103370231Y-69862232D01*
X103370232Y-69862233D01*
X103428746Y-70118599D01*
X103428751Y-70118613D01*
X103524813Y-70363377D01*
X103524816Y-70363383D01*
X103524817Y-70363384D01*
X103542645Y-70394263D01*
X103595433Y-70526116D01*
X103609500Y-70643765D01*
X103609500Y-71918092D01*
X103646446Y-72151367D01*
X103646448Y-72151373D01*
X103719427Y-72375979D01*
X103719434Y-72375997D01*
X103826651Y-72586424D01*
X103826655Y-72586431D01*
X103826657Y-72586434D01*
X103965483Y-72777510D01*
X103965484Y-72777511D01*
X107212482Y-76024511D01*
X107212485Y-76024513D01*
X107212490Y-76024518D01*
X107327511Y-76108085D01*
X107403567Y-76163343D01*
X107614008Y-76270568D01*
X107614018Y-76270571D01*
X107614020Y-76270572D01*
X107838626Y-76343551D01*
X107838632Y-76343553D01*
X108079958Y-76381775D01*
X108215650Y-76423732D01*
X108334025Y-76502217D01*
X108425493Y-76610873D01*
X108482643Y-76740898D01*
X108500847Y-76881757D01*
X108478629Y-77022038D01*
X108466404Y-77056937D01*
X108434667Y-77137800D01*
X108434666Y-77137805D01*
X108374617Y-77400897D01*
X108354451Y-77670000D01*
X108374617Y-77939103D01*
X108374618Y-77939107D01*
X108434667Y-78202200D01*
X108533255Y-78453395D01*
X108533256Y-78453397D01*
X108668180Y-78687094D01*
X108668191Y-78687110D01*
X108836436Y-78898082D01*
X108836438Y-78898084D01*
X108836439Y-78898085D01*
X109034259Y-79081635D01*
X109257226Y-79233651D01*
X109500359Y-79350738D01*
X109758228Y-79430280D01*
X110025071Y-79470500D01*
X110025075Y-79470500D01*
X110294925Y-79470500D01*
X110294929Y-79470500D01*
X110561772Y-79430280D01*
X110819641Y-79350738D01*
X111062775Y-79233651D01*
X111285741Y-79081635D01*
X111483561Y-78898085D01*
X111651815Y-78687102D01*
X111786743Y-78453398D01*
X111885334Y-78202195D01*
X111945383Y-77939103D01*
X111962229Y-77714290D01*
X111992891Y-77575614D01*
X112061382Y-77451189D01*
X112162154Y-77351100D01*
X112287041Y-77283456D01*
X112425927Y-77253737D01*
X112567560Y-77264351D01*
X112700466Y-77314437D01*
X112813877Y-77399939D01*
X112891980Y-77502084D01*
X112942656Y-77589857D01*
X112966380Y-77620774D01*
X113035928Y-77744612D01*
X113067769Y-77883027D01*
X113069500Y-77924550D01*
X113069500Y-80278092D01*
X113106446Y-80511367D01*
X113106448Y-80511373D01*
X113179427Y-80735979D01*
X113179434Y-80735997D01*
X113286651Y-80946424D01*
X113286655Y-80946431D01*
X113286657Y-80946434D01*
X113425483Y-81137510D01*
X113425484Y-81137511D01*
X123435627Y-91147654D01*
X123520743Y-91261355D01*
X123570377Y-91394430D01*
X123580510Y-91536098D01*
X123550319Y-91674883D01*
X123482251Y-91799540D01*
X123381821Y-91899970D01*
X123257164Y-91968038D01*
X123118379Y-91998229D01*
X123082781Y-91999500D01*
X105010887Y-91999500D01*
X104989121Y-91999025D01*
X104956541Y-91997602D01*
X104629609Y-91983328D01*
X104586242Y-91979534D01*
X104240270Y-91933985D01*
X104197401Y-91926426D01*
X103856714Y-91850898D01*
X103814666Y-91839631D01*
X103481858Y-91734698D01*
X103440959Y-91719812D01*
X103118554Y-91586268D01*
X103079101Y-91567870D01*
X102769579Y-91406743D01*
X102731880Y-91384978D01*
X102437563Y-91197478D01*
X102401903Y-91172508D01*
X102125063Y-90960081D01*
X102091715Y-90932099D01*
X101834435Y-90696345D01*
X101803654Y-90665564D01*
X101567900Y-90408284D01*
X101539918Y-90374936D01*
X101327491Y-90098096D01*
X101302521Y-90062436D01*
X101115021Y-89768119D01*
X101093256Y-89730420D01*
X100932129Y-89420898D01*
X100913735Y-89381455D01*
X100780181Y-89059027D01*
X100765301Y-89018141D01*
X100726245Y-88894271D01*
X100660368Y-88685333D01*
X100649101Y-88643285D01*
X100642475Y-88613398D01*
X100573573Y-88302598D01*
X100566014Y-88259729D01*
X100555643Y-88180953D01*
X100520463Y-87913740D01*
X100516672Y-87870400D01*
X100500975Y-87510878D01*
X100500500Y-87489113D01*
X100500500Y-87378712D01*
X103149500Y-87378712D01*
X103149500Y-87621287D01*
X103181160Y-87861781D01*
X103181161Y-87861787D01*
X103243946Y-88096101D01*
X103243947Y-88096104D01*
X103336775Y-88320211D01*
X103458061Y-88530284D01*
X103458066Y-88530293D01*
X103605728Y-88722730D01*
X103605739Y-88722742D01*
X103777257Y-88894260D01*
X103777269Y-88894271D01*
X103969706Y-89041933D01*
X103969709Y-89041935D01*
X103969711Y-89041936D01*
X104019764Y-89070834D01*
X104179788Y-89163224D01*
X104369084Y-89241633D01*
X104403900Y-89256054D01*
X104638211Y-89318838D01*
X104638215Y-89318838D01*
X104638218Y-89318839D01*
X104878712Y-89350500D01*
X105121288Y-89350500D01*
X105361781Y-89318839D01*
X105361779Y-89318839D01*
X105361789Y-89318838D01*
X105596100Y-89256054D01*
X105820212Y-89163224D01*
X106030289Y-89041936D01*
X106222738Y-88894265D01*
X106394265Y-88722738D01*
X106541936Y-88530289D01*
X106663224Y-88320212D01*
X106756054Y-88096100D01*
X106818838Y-87861789D01*
X106823023Y-87830000D01*
X108354451Y-87830000D01*
X108374617Y-88099103D01*
X108374618Y-88099107D01*
X108434667Y-88362200D01*
X108533255Y-88613395D01*
X108533256Y-88613397D01*
X108668180Y-88847094D01*
X108668191Y-88847110D01*
X108836436Y-89058082D01*
X108836438Y-89058084D01*
X108836439Y-89058085D01*
X109034259Y-89241635D01*
X109257226Y-89393651D01*
X109500359Y-89510738D01*
X109758228Y-89590280D01*
X110025071Y-89630500D01*
X110025075Y-89630500D01*
X110294925Y-89630500D01*
X110294929Y-89630500D01*
X110561772Y-89590280D01*
X110819641Y-89510738D01*
X111062775Y-89393651D01*
X111285741Y-89241635D01*
X111483561Y-89058085D01*
X111651815Y-88847102D01*
X111786743Y-88613398D01*
X111885334Y-88362195D01*
X111945383Y-88099103D01*
X111965549Y-87830000D01*
X111945383Y-87560897D01*
X111885334Y-87297805D01*
X111822697Y-87138211D01*
X111786744Y-87046604D01*
X111786743Y-87046602D01*
X111651819Y-86812905D01*
X111651815Y-86812898D01*
X111483561Y-86601915D01*
X111285741Y-86418365D01*
X111062775Y-86266349D01*
X110979428Y-86226211D01*
X110819649Y-86149265D01*
X110819646Y-86149264D01*
X110819643Y-86149263D01*
X110819641Y-86149262D01*
X110561772Y-86069720D01*
X110561770Y-86069719D01*
X110561768Y-86069719D01*
X110455805Y-86053748D01*
X110294929Y-86029500D01*
X110025071Y-86029500D01*
X109901458Y-86048131D01*
X109758230Y-86069719D01*
X109641493Y-86105728D01*
X109500359Y-86149262D01*
X109500355Y-86149263D01*
X109500349Y-86149266D01*
X109257233Y-86266345D01*
X109257222Y-86266351D01*
X109034257Y-86418366D01*
X108836436Y-86601917D01*
X108668191Y-86812889D01*
X108668180Y-86812905D01*
X108533256Y-87046602D01*
X108533255Y-87046604D01*
X108434667Y-87297799D01*
X108386033Y-87510880D01*
X108374617Y-87560897D01*
X108354451Y-87830000D01*
X106823023Y-87830000D01*
X106850500Y-87621288D01*
X106850500Y-87378712D01*
X106818838Y-87138211D01*
X106756054Y-86903900D01*
X106695547Y-86757824D01*
X106663224Y-86679788D01*
X106541938Y-86469715D01*
X106541933Y-86469706D01*
X106394271Y-86277269D01*
X106394260Y-86277257D01*
X106222742Y-86105739D01*
X106222730Y-86105728D01*
X106030293Y-85958066D01*
X106030284Y-85958061D01*
X105820211Y-85836775D01*
X105596104Y-85743947D01*
X105596101Y-85743946D01*
X105361787Y-85681161D01*
X105361781Y-85681160D01*
X105121288Y-85649500D01*
X104878712Y-85649500D01*
X104638218Y-85681160D01*
X104638212Y-85681161D01*
X104403898Y-85743946D01*
X104403895Y-85743947D01*
X104179788Y-85836775D01*
X103969715Y-85958061D01*
X103969706Y-85958066D01*
X103777269Y-86105728D01*
X103777257Y-86105739D01*
X103605739Y-86277257D01*
X103605728Y-86277269D01*
X103458066Y-86469706D01*
X103458061Y-86469715D01*
X103336775Y-86679788D01*
X103243947Y-86903895D01*
X103243946Y-86903898D01*
X103181161Y-87138212D01*
X103181160Y-87138218D01*
X103149500Y-87378712D01*
X100500500Y-87378712D01*
X100500500Y-47510886D01*
X100500975Y-47489121D01*
X100503377Y-47434108D01*
X100505796Y-47378712D01*
X103149500Y-47378712D01*
X103149500Y-47621287D01*
X103181160Y-47861781D01*
X103181161Y-47861787D01*
X103243946Y-48096101D01*
X103243947Y-48096104D01*
X103336775Y-48320211D01*
X103458061Y-48530284D01*
X103458066Y-48530293D01*
X103605728Y-48722730D01*
X103605739Y-48722742D01*
X103777257Y-48894260D01*
X103777269Y-48894271D01*
X103969706Y-49041933D01*
X103969709Y-49041935D01*
X103969711Y-49041936D01*
X104163993Y-49154105D01*
X104179788Y-49163224D01*
X104396198Y-49252864D01*
X104403900Y-49256054D01*
X104638211Y-49318838D01*
X104638215Y-49318838D01*
X104638218Y-49318839D01*
X104878712Y-49350500D01*
X105121288Y-49350500D01*
X105361781Y-49318839D01*
X105361779Y-49318839D01*
X105361789Y-49318838D01*
X105596100Y-49256054D01*
X105820212Y-49163224D01*
X106030289Y-49041936D01*
X106222738Y-48894265D01*
X106394265Y-48722738D01*
X106541936Y-48530289D01*
X106663224Y-48320212D01*
X106756054Y-48096100D01*
X106818838Y-47861789D01*
X106850500Y-47621288D01*
X106850500Y-47378712D01*
X149149500Y-47378712D01*
X149149500Y-47621287D01*
X149181160Y-47861781D01*
X149181161Y-47861787D01*
X149243946Y-48096101D01*
X149243947Y-48096104D01*
X149336775Y-48320211D01*
X149466231Y-48544435D01*
X149464204Y-48545605D01*
X149515180Y-48652154D01*
X149537899Y-48792356D01*
X149520197Y-48933279D01*
X149484522Y-49015234D01*
X149524357Y-48993483D01*
X149663142Y-48963292D01*
X149804810Y-48973425D01*
X149937885Y-49023059D01*
X149955759Y-49033881D01*
X150179788Y-49163224D01*
X150396198Y-49252864D01*
X150403900Y-49256054D01*
X150638211Y-49318838D01*
X150638215Y-49318838D01*
X150638218Y-49318839D01*
X150878712Y-49350500D01*
X151121288Y-49350500D01*
X151361781Y-49318839D01*
X151361779Y-49318839D01*
X151361789Y-49318838D01*
X151596100Y-49256054D01*
X151820212Y-49163224D01*
X152030289Y-49041936D01*
X152222738Y-48894265D01*
X152394265Y-48722738D01*
X152541936Y-48530289D01*
X152663224Y-48320212D01*
X152756054Y-48096100D01*
X152818838Y-47861789D01*
X152850500Y-47621288D01*
X152850500Y-47378712D01*
X152818838Y-47138211D01*
X152756054Y-46903900D01*
X152663224Y-46679788D01*
X152541936Y-46469711D01*
X152541935Y-46469709D01*
X152541933Y-46469706D01*
X152394271Y-46277269D01*
X152394260Y-46277257D01*
X152222742Y-46105739D01*
X152222730Y-46105728D01*
X152030293Y-45958066D01*
X152030284Y-45958061D01*
X151820211Y-45836775D01*
X151596104Y-45743947D01*
X151596101Y-45743946D01*
X151361787Y-45681161D01*
X151361781Y-45681160D01*
X151121288Y-45649500D01*
X150878712Y-45649500D01*
X150638218Y-45681160D01*
X150638212Y-45681161D01*
X150403898Y-45743946D01*
X150403895Y-45743947D01*
X150179788Y-45836775D01*
X149969715Y-45958061D01*
X149969706Y-45958066D01*
X149777269Y-46105728D01*
X149777257Y-46105739D01*
X149605739Y-46277257D01*
X149605728Y-46277269D01*
X149458066Y-46469706D01*
X149458061Y-46469715D01*
X149336775Y-46679788D01*
X149243947Y-46903895D01*
X149243946Y-46903898D01*
X149181161Y-47138212D01*
X149181160Y-47138218D01*
X149149500Y-47378712D01*
X106850500Y-47378712D01*
X106818838Y-47138211D01*
X106756054Y-46903900D01*
X106663224Y-46679788D01*
X106541936Y-46469711D01*
X106541935Y-46469709D01*
X106541933Y-46469706D01*
X106394271Y-46277269D01*
X106394260Y-46277257D01*
X106222742Y-46105739D01*
X106222730Y-46105728D01*
X106030293Y-45958066D01*
X106030284Y-45958061D01*
X105820211Y-45836775D01*
X105596104Y-45743947D01*
X105596101Y-45743946D01*
X105361787Y-45681161D01*
X105361781Y-45681160D01*
X105121288Y-45649500D01*
X104878712Y-45649500D01*
X104638218Y-45681160D01*
X104638212Y-45681161D01*
X104403898Y-45743946D01*
X104403895Y-45743947D01*
X104179788Y-45836775D01*
X103969715Y-45958061D01*
X103969706Y-45958066D01*
X103777269Y-46105728D01*
X103777257Y-46105739D01*
X103605739Y-46277257D01*
X103605728Y-46277269D01*
X103458066Y-46469706D01*
X103458061Y-46469715D01*
X103336775Y-46679788D01*
X103243947Y-46903895D01*
X103243946Y-46903898D01*
X103181161Y-47138212D01*
X103181160Y-47138218D01*
X103149500Y-47378712D01*
X100505796Y-47378712D01*
X100516672Y-47129597D01*
X100520463Y-47086261D01*
X100566015Y-46740263D01*
X100573573Y-46697401D01*
X100577478Y-46679788D01*
X100649104Y-46356701D01*
X100660368Y-46314666D01*
X100672159Y-46277269D01*
X100765306Y-45981842D01*
X100780178Y-45940979D01*
X100913739Y-45618535D01*
X100932124Y-45579111D01*
X101093265Y-45269562D01*
X101115011Y-45231895D01*
X101302532Y-44937546D01*
X101327479Y-44901919D01*
X101539929Y-44625049D01*
X101567887Y-44591729D01*
X101803664Y-44334424D01*
X101834424Y-44303664D01*
X102091729Y-44067887D01*
X102125049Y-44039929D01*
X102401919Y-43827479D01*
X102437546Y-43802532D01*
X102731895Y-43615011D01*
X102769562Y-43593265D01*
X103079111Y-43432124D01*
X103118535Y-43413739D01*
X103440979Y-43280178D01*
X103481842Y-43265306D01*
X103814671Y-43160366D01*
X103856701Y-43149104D01*
X104197405Y-43073572D01*
X104240263Y-43066015D01*
X104586261Y-43020463D01*
X104629597Y-43016672D01*
X104958394Y-43002316D01*
X104989122Y-43000975D01*
X105010887Y-43000500D01*
X105065892Y-43000500D01*
X150934108Y-43000500D01*
X150989113Y-43000500D01*
X151010878Y-43000975D01*
G37*
%TD.AperFunction*%
%TA.AperFunction,Conductor*%
G36*
X129507366Y-73920713D02*
G01*
X129636561Y-73979714D01*
X129719627Y-74046654D01*
X129862523Y-74189550D01*
X129947639Y-74303251D01*
X129997273Y-74436326D01*
X130007406Y-74577994D01*
X129977215Y-74716779D01*
X129909147Y-74841436D01*
X129808717Y-74941866D01*
X129802979Y-74946097D01*
X129670000Y-75042710D01*
X129670000Y-76221025D01*
X129610110Y-76117292D01*
X129507708Y-76014890D01*
X129382292Y-75942482D01*
X129242409Y-75905000D01*
X129097591Y-75905000D01*
X128957708Y-75942482D01*
X128832292Y-76014890D01*
X128729890Y-76117292D01*
X128657482Y-76242708D01*
X128620000Y-76382591D01*
X128620000Y-76527409D01*
X128657482Y-76667292D01*
X128729890Y-76792708D01*
X128832292Y-76895110D01*
X128957708Y-76967518D01*
X129097591Y-77005000D01*
X129242409Y-77005000D01*
X129382292Y-76967518D01*
X129507708Y-76895110D01*
X129610110Y-76792708D01*
X129670000Y-76688974D01*
X129670000Y-77867287D01*
X129727567Y-77848583D01*
X129779857Y-77821940D01*
X129914295Y-77776125D01*
X130056195Y-77770042D01*
X130194061Y-77804182D01*
X130316724Y-77875782D01*
X130359247Y-77913705D01*
X130419535Y-77973993D01*
X130622643Y-78129844D01*
X130831077Y-78250183D01*
X130844359Y-78257851D01*
X131015797Y-78328863D01*
X131080882Y-78355822D01*
X131328171Y-78422083D01*
X131581994Y-78455500D01*
X131581995Y-78455500D01*
X131838005Y-78455500D01*
X131838006Y-78455500D01*
X132091829Y-78422083D01*
X132181350Y-78398095D01*
X132322374Y-78381234D01*
X132462438Y-78404787D01*
X132590192Y-78466846D01*
X132695288Y-78562384D01*
X132769211Y-78683661D01*
X132805971Y-78820851D01*
X132809500Y-78880093D01*
X132809500Y-79014614D01*
X132789287Y-79155199D01*
X132730286Y-79284394D01*
X132637276Y-79391733D01*
X132517792Y-79468520D01*
X132381515Y-79508535D01*
X132242557Y-79508967D01*
X132210729Y-79504592D01*
X132173678Y-79499500D01*
X131886322Y-79499500D01*
X131753154Y-79517803D01*
X131601647Y-79538628D01*
X131601637Y-79538630D01*
X131324948Y-79616154D01*
X131324945Y-79616155D01*
X131324942Y-79616156D01*
X131061375Y-79730639D01*
X131061372Y-79730640D01*
X131061369Y-79730642D01*
X130815858Y-79879941D01*
X130815847Y-79879949D01*
X130592946Y-80061292D01*
X130396817Y-80271295D01*
X130396813Y-80271299D01*
X130231097Y-80506066D01*
X130098894Y-80761205D01*
X130002668Y-81031960D01*
X130002664Y-81031973D01*
X129944204Y-81313303D01*
X129944202Y-81313313D01*
X129924592Y-81600000D01*
X129944202Y-81886686D01*
X129944204Y-81886696D01*
X130002664Y-82168026D01*
X130002668Y-82168039D01*
X130098894Y-82438794D01*
X130231099Y-82693936D01*
X130318169Y-82817287D01*
X130382727Y-82943797D01*
X130409029Y-83083371D01*
X130409500Y-83105049D01*
X130409500Y-84226610D01*
X130389287Y-84367195D01*
X130330286Y-84496390D01*
X130237276Y-84603729D01*
X130117792Y-84680516D01*
X130025256Y-84712236D01*
X130007623Y-84716402D01*
X129872910Y-84766647D01*
X129872909Y-84766648D01*
X129757811Y-84852811D01*
X129671648Y-84967909D01*
X129671647Y-84967910D01*
X129621402Y-85102625D01*
X129615000Y-85162175D01*
X129615000Y-85460000D01*
X129885500Y-85460000D01*
X130026085Y-85480213D01*
X130155280Y-85539214D01*
X130262619Y-85632224D01*
X130332999Y-85741739D01*
X130290556Y-85815255D01*
X130265000Y-85910630D01*
X130265000Y-86009370D01*
X130290556Y-86104745D01*
X130330917Y-86174653D01*
X130305286Y-86230780D01*
X130212276Y-86338119D01*
X130092792Y-86414906D01*
X129956515Y-86454921D01*
X129885500Y-86460000D01*
X129615000Y-86460000D01*
X129615000Y-86757824D01*
X129621402Y-86817376D01*
X129621402Y-86817379D01*
X129624664Y-86826123D01*
X129654853Y-86964908D01*
X129644719Y-87106576D01*
X129595083Y-87239651D01*
X129509966Y-87353351D01*
X129396264Y-87438465D01*
X129263188Y-87488098D01*
X129157124Y-87499500D01*
X126938220Y-87499500D01*
X126797635Y-87479287D01*
X126668440Y-87420286D01*
X126585374Y-87353346D01*
X125084374Y-85852346D01*
X124999258Y-85738645D01*
X124949624Y-85605570D01*
X124939491Y-85463902D01*
X124969682Y-85325117D01*
X125037750Y-85200460D01*
X125138180Y-85100030D01*
X125262837Y-85031962D01*
X125401622Y-85001771D01*
X125437220Y-85000500D01*
X125530059Y-85000500D01*
X125767222Y-84962937D01*
X125767232Y-84962933D01*
X125767235Y-84962933D01*
X125995580Y-84888739D01*
X125995580Y-84888738D01*
X125995589Y-84888736D01*
X126209536Y-84779724D01*
X126403796Y-84638586D01*
X126403799Y-84638583D01*
X126508345Y-84534038D01*
X126622046Y-84448922D01*
X126755121Y-84399288D01*
X126896789Y-84389155D01*
X127035574Y-84419346D01*
X127160231Y-84487414D01*
X127174756Y-84500000D01*
X127252825Y-84500000D01*
X127312374Y-84493597D01*
X127447089Y-84443352D01*
X127447090Y-84443351D01*
X127562188Y-84357188D01*
X127648351Y-84242090D01*
X127648352Y-84242089D01*
X127698597Y-84107374D01*
X127705000Y-84047824D01*
X127705000Y-83750000D01*
X127434500Y-83750000D01*
X127293915Y-83729787D01*
X127164720Y-83670786D01*
X127057381Y-83577776D01*
X126987000Y-83468260D01*
X127029444Y-83394745D01*
X127055000Y-83299370D01*
X127055000Y-83200630D01*
X127029444Y-83105255D01*
X126989082Y-83035346D01*
X127014714Y-82979220D01*
X127107724Y-82871881D01*
X127227208Y-82795094D01*
X127363485Y-82755079D01*
X127434500Y-82750000D01*
X127705000Y-82750000D01*
X127705000Y-82452175D01*
X127698597Y-82392625D01*
X127648352Y-82257910D01*
X127648351Y-82257909D01*
X127562188Y-82142811D01*
X127447090Y-82056648D01*
X127447089Y-82056647D01*
X127312374Y-82006402D01*
X127252825Y-82000000D01*
X127168568Y-82000000D01*
X127100336Y-82051078D01*
X126967261Y-82100712D01*
X126825593Y-82110845D01*
X126686808Y-82080654D01*
X126562151Y-82012586D01*
X126508345Y-81965962D01*
X126403799Y-81861416D01*
X126374217Y-81839924D01*
X126209536Y-81720276D01*
X126209529Y-81720272D01*
X126209527Y-81720271D01*
X125995589Y-81611264D01*
X125995580Y-81611260D01*
X125767235Y-81537066D01*
X125767215Y-81537061D01*
X125530059Y-81499500D01*
X125289941Y-81499500D01*
X125052784Y-81537061D01*
X125052767Y-81537066D01*
X124929197Y-81577216D01*
X124789247Y-81601435D01*
X124648143Y-81585244D01*
X124620803Y-81577216D01*
X124497232Y-81537066D01*
X124497215Y-81537061D01*
X124260059Y-81499500D01*
X124019941Y-81499500D01*
X123782784Y-81537061D01*
X123782764Y-81537066D01*
X123554419Y-81611260D01*
X123554410Y-81611264D01*
X123389851Y-81695112D01*
X123255413Y-81740926D01*
X123163309Y-81749500D01*
X121649500Y-81749500D01*
X121508915Y-81729287D01*
X121379720Y-81670286D01*
X121272381Y-81577276D01*
X121195594Y-81457792D01*
X121155579Y-81321515D01*
X121150500Y-81250500D01*
X121150500Y-78535911D01*
X121170713Y-78395326D01*
X121229714Y-78266131D01*
X121296654Y-78183065D01*
X121313610Y-78166108D01*
X121345756Y-78126683D01*
X121442198Y-78008407D01*
X121536409Y-77828049D01*
X121592386Y-77632418D01*
X121603000Y-77513037D01*
X121603000Y-76955000D01*
X127789778Y-76955000D01*
X127823913Y-77060059D01*
X127823916Y-77060067D01*
X127927711Y-77263775D01*
X127927713Y-77263780D01*
X128062094Y-77448740D01*
X128223759Y-77610405D01*
X128408719Y-77744786D01*
X128408729Y-77744792D01*
X128612428Y-77848582D01*
X128670000Y-77867287D01*
X128670000Y-76955000D01*
X127789778Y-76955000D01*
X121603000Y-76955000D01*
X121602999Y-75955000D01*
X127789777Y-75955000D01*
X128670000Y-75955000D01*
X128670000Y-75042710D01*
X128612435Y-75061415D01*
X128612426Y-75061419D01*
X128408729Y-75165207D01*
X128408719Y-75165213D01*
X128223759Y-75299594D01*
X128062094Y-75461259D01*
X127927713Y-75646219D01*
X127927711Y-75646224D01*
X127823916Y-75849932D01*
X127823913Y-75849940D01*
X127789777Y-75955000D01*
X121602999Y-75955000D01*
X121602999Y-75396964D01*
X121592386Y-75277582D01*
X121536409Y-75081951D01*
X121442198Y-74901593D01*
X121442195Y-74901589D01*
X121297617Y-74724277D01*
X121299750Y-74722537D01*
X121236949Y-74638645D01*
X121187315Y-74505570D01*
X121177182Y-74363902D01*
X121207373Y-74225117D01*
X121275441Y-74100460D01*
X121375871Y-74000030D01*
X121500528Y-73931962D01*
X121639313Y-73901771D01*
X121674911Y-73900500D01*
X129366781Y-73900500D01*
X129507366Y-73920713D01*
G37*
%TD.AperFunction*%
%TA.AperFunction,Conductor*%
G36*
X135472366Y-56270713D02*
G01*
X135601561Y-56329714D01*
X135684627Y-56396654D01*
X137763346Y-58475373D01*
X137848462Y-58589074D01*
X137898096Y-58722149D01*
X137909500Y-58828219D01*
X137909500Y-71258387D01*
X137889287Y-71398972D01*
X137830286Y-71528167D01*
X137737276Y-71635506D01*
X137617792Y-71712293D01*
X137481515Y-71752308D01*
X137429620Y-71752308D01*
X137177520Y-71869864D01*
X137177515Y-71869867D01*
X137123127Y-71907950D01*
X136996373Y-71972029D01*
X136856701Y-71997801D01*
X136715425Y-71983178D01*
X136583992Y-71929346D01*
X136484067Y-71852039D01*
X135017182Y-70385155D01*
X134932066Y-70271454D01*
X134882432Y-70138379D01*
X134872299Y-69996711D01*
X134902490Y-69857927D01*
X134970558Y-69733270D01*
X135017183Y-69679462D01*
X135157905Y-69538740D01*
X135292286Y-69353780D01*
X135292288Y-69353775D01*
X135396083Y-69150067D01*
X135396086Y-69150059D01*
X135430222Y-69045000D01*
X134549000Y-69045000D01*
X134408415Y-69024787D01*
X134358481Y-69001983D01*
X134387708Y-68985110D01*
X134490110Y-68882708D01*
X134562518Y-68757292D01*
X134600000Y-68617409D01*
X134600000Y-68472591D01*
X134562518Y-68332708D01*
X134490110Y-68207292D01*
X134387708Y-68104890D01*
X134283974Y-68045000D01*
X134550000Y-68045000D01*
X135430222Y-68045000D01*
X135396086Y-67939940D01*
X135396083Y-67939932D01*
X135292288Y-67736224D01*
X135292286Y-67736219D01*
X135157905Y-67551259D01*
X134996240Y-67389594D01*
X134811280Y-67255213D01*
X134811270Y-67255207D01*
X134607573Y-67151419D01*
X134607564Y-67151415D01*
X134550000Y-67132710D01*
X134550000Y-68045000D01*
X134283974Y-68045000D01*
X134262292Y-68032482D01*
X134122409Y-67995000D01*
X133977591Y-67995000D01*
X133837708Y-68032482D01*
X133712292Y-68104890D01*
X133609890Y-68207292D01*
X133591128Y-68239787D01*
X133555079Y-68117015D01*
X133550000Y-68046000D01*
X133550000Y-67132710D01*
X133530804Y-67118764D01*
X133523754Y-67119985D01*
X133382649Y-67103796D01*
X133251821Y-67048509D01*
X133141869Y-66958603D01*
X133061700Y-66841362D01*
X133017809Y-66706284D01*
X133010500Y-66621189D01*
X133010500Y-60386339D01*
X133030713Y-60245754D01*
X133089714Y-60116559D01*
X133182724Y-60009220D01*
X133302208Y-59932433D01*
X133438485Y-59892418D01*
X133580515Y-59892418D01*
X133716792Y-59932433D01*
X133836276Y-60009220D01*
X133894440Y-60073719D01*
X133896336Y-60072129D01*
X133910342Y-60088821D01*
X134071180Y-60249659D01*
X134257517Y-60380133D01*
X134257518Y-60380134D01*
X134410000Y-60451236D01*
X134410000Y-60451235D01*
X135410000Y-60451235D01*
X135562481Y-60380134D01*
X135562482Y-60380133D01*
X135748819Y-60249659D01*
X135909659Y-60088819D01*
X136040135Y-59902479D01*
X136111238Y-59750000D01*
X135410000Y-59750000D01*
X135410000Y-60451235D01*
X134410000Y-60451235D01*
X134410000Y-59197339D01*
X134510000Y-59197339D01*
X134510000Y-59302661D01*
X134537259Y-59404394D01*
X134589920Y-59495606D01*
X134664394Y-59570080D01*
X134755606Y-59622741D01*
X134857339Y-59650000D01*
X134962661Y-59650000D01*
X135064394Y-59622741D01*
X135155606Y-59570080D01*
X135230080Y-59495606D01*
X135282741Y-59404394D01*
X135310000Y-59302661D01*
X135310000Y-59197339D01*
X135282741Y-59095606D01*
X135230080Y-59004394D01*
X135155606Y-58929920D01*
X135064394Y-58877259D01*
X134962661Y-58850000D01*
X134857339Y-58850000D01*
X134755606Y-58877259D01*
X134664394Y-58929920D01*
X134589920Y-59004394D01*
X134537259Y-59095606D01*
X134510000Y-59197339D01*
X134410000Y-59197339D01*
X134410000Y-58750000D01*
X135410000Y-58750000D01*
X136111238Y-58750000D01*
X136040135Y-58597520D01*
X135909659Y-58411180D01*
X135748819Y-58250340D01*
X135562479Y-58119864D01*
X135410000Y-58048761D01*
X135410000Y-58750000D01*
X134410000Y-58750000D01*
X134410000Y-58048761D01*
X134257520Y-58119864D01*
X134071180Y-58250340D01*
X133910342Y-58411178D01*
X133896336Y-58427871D01*
X133893900Y-58425827D01*
X133821062Y-58503442D01*
X133698627Y-58575431D01*
X133560870Y-58610009D01*
X133418952Y-58604376D01*
X133284369Y-58558988D01*
X133168025Y-58477522D01*
X133079345Y-58366579D01*
X133025514Y-58235145D01*
X133010500Y-58113660D01*
X133010500Y-57731907D01*
X132973553Y-57498632D01*
X132973551Y-57498626D01*
X132900569Y-57274011D01*
X132900568Y-57274010D01*
X132900568Y-57274008D01*
X132868244Y-57210568D01*
X132793343Y-57063566D01*
X132778261Y-57042807D01*
X132711980Y-56917191D01*
X132683773Y-56777990D01*
X132695926Y-56636481D01*
X132747455Y-56504127D01*
X132834185Y-56391653D01*
X132949090Y-56308169D01*
X133082860Y-56260439D01*
X133181959Y-56250500D01*
X135331781Y-56250500D01*
X135472366Y-56270713D01*
G37*
%TD.AperFunction*%
%TD*%
M02*
