%TF.GenerationSoftware,KiCad,Pcbnew,9.0.1*%
%TF.CreationDate,2025-06-18T14:20:43+03:00*%
%TF.ProjectId,H bridge,48206272-6964-4676-952e-6b696361645f,2.1v*%
%TF.SameCoordinates,Original*%
%TF.FileFunction,Legend,Bot*%
%TF.FilePolarity,Positive*%
%FSLAX46Y46*%
G04 Gerber Fmt 4.6, Leading zero omitted, Abs format (unit mm)*
G04 Created by KiCad (PCBNEW 9.0.1) date 2025-06-18 14:20:43*
%MOMM*%
%LPD*%
G01*
G04 APERTURE LIST*
%ADD10C,0.010000*%
G04 APERTURE END LIST*
D10*
%TO.C,REF\u002A\u002A*%
X145356184Y-108533026D02*
X140677237Y-108533026D01*
X140677237Y-107380000D01*
X145356184Y-107380000D01*
X145356184Y-108533026D01*
G36*
X145356184Y-108533026D02*
G01*
X140677237Y-108533026D01*
X140677237Y-107380000D01*
X145356184Y-107380000D01*
X145356184Y-108533026D01*
G37*
X143985938Y-101167862D02*
X143986595Y-101185072D01*
X143995141Y-101213967D01*
X144019466Y-101238472D01*
X144066918Y-101267643D01*
X144108573Y-101294293D01*
X144171989Y-101345460D01*
X144229460Y-101402900D01*
X144273422Y-101458779D01*
X144296311Y-101505262D01*
X144301919Y-101523174D01*
X144312309Y-101535470D01*
X144315812Y-101539616D01*
X144344445Y-101546583D01*
X144397141Y-101548026D01*
X144487237Y-101548026D01*
X144487237Y-101698421D01*
X144275228Y-101698421D01*
X144255433Y-101934683D01*
X144252775Y-101966983D01*
X144246583Y-102047840D01*
X144242208Y-102113635D01*
X144240030Y-102158291D01*
X144240426Y-102175733D01*
X144246185Y-102170719D01*
X144272462Y-102144583D01*
X144317888Y-102098258D01*
X144380166Y-102034147D01*
X144456997Y-101954650D01*
X144546080Y-101862169D01*
X144645119Y-101759106D01*
X144751814Y-101647862D01*
X144863865Y-101530838D01*
X144978975Y-101410436D01*
X145094844Y-101289058D01*
X145209174Y-101169104D01*
X145319666Y-101052976D01*
X145424021Y-100943075D01*
X145519940Y-100841804D01*
X145605124Y-100751563D01*
X145677275Y-100674753D01*
X145806194Y-100537039D01*
X145806781Y-100654352D01*
X145807368Y-100771664D01*
X145009286Y-101610985D01*
X144211204Y-102450307D01*
X144195250Y-102641606D01*
X144131419Y-103407028D01*
X144120138Y-103542787D01*
X144106140Y-103712654D01*
X144093220Y-103871005D01*
X144081627Y-104014728D01*
X144071607Y-104140710D01*
X144063407Y-104245838D01*
X144057274Y-104327001D01*
X144053456Y-104381086D01*
X144052199Y-104404980D01*
X144055517Y-104415929D01*
X144070429Y-104439571D01*
X144098709Y-104475203D01*
X144112358Y-104490777D01*
X144141864Y-104524448D01*
X144201399Y-104588928D01*
X144278820Y-104670268D01*
X144375632Y-104770091D01*
X144493342Y-104890020D01*
X144633454Y-105031679D01*
X144725628Y-105124636D01*
X144854119Y-105254295D01*
X144982159Y-105383579D01*
X145105900Y-105508597D01*
X145221492Y-105625459D01*
X145325085Y-105730274D01*
X145412831Y-105819152D01*
X145480881Y-105888202D01*
X145747617Y-106159257D01*
X145699169Y-106209826D01*
X145687743Y-106221219D01*
X145654035Y-106249197D01*
X145630910Y-106260395D01*
X145612805Y-106250835D01*
X145579145Y-106222149D01*
X145538792Y-106181020D01*
X145514230Y-106155042D01*
X145468423Y-106107604D01*
X145403683Y-106041066D01*
X145322295Y-105957763D01*
X145226545Y-105860028D01*
X145118721Y-105750195D01*
X145001108Y-105630596D01*
X144875992Y-105503566D01*
X144745659Y-105371438D01*
X144024831Y-104641232D01*
X143995469Y-105020517D01*
X143989068Y-105101472D01*
X143979721Y-105210293D01*
X143971290Y-105292717D01*
X143963151Y-105353075D01*
X143954679Y-105395700D01*
X143945250Y-105424924D01*
X143934237Y-105445080D01*
X143918825Y-105473250D01*
X143906143Y-105525039D01*
X143902368Y-105599652D01*
X143902368Y-105708947D01*
X143601579Y-105708947D01*
X143601579Y-105475000D01*
X142477832Y-105475000D01*
X142412875Y-105548795D01*
X142395110Y-105568011D01*
X142298831Y-105645212D01*
X142190049Y-105692739D01*
X142072262Y-105708947D01*
X141968327Y-105700354D01*
X141850770Y-105664128D01*
X141750134Y-105599382D01*
X141730520Y-105580878D01*
X141681503Y-105520975D01*
X141638497Y-105451193D01*
X141607658Y-105382409D01*
X141595141Y-105325502D01*
X141594899Y-105317241D01*
X141593099Y-105286971D01*
X141588392Y-105266063D01*
X141578544Y-105256169D01*
X141561323Y-105258944D01*
X141534494Y-105276040D01*
X141495824Y-105309110D01*
X141443080Y-105359807D01*
X141374028Y-105429785D01*
X141286434Y-105520697D01*
X141178065Y-105634195D01*
X141120342Y-105694780D01*
X141023855Y-105796218D01*
X140932568Y-105892389D01*
X140850059Y-105979513D01*
X140779906Y-106053811D01*
X140725685Y-106111503D01*
X140690974Y-106148810D01*
X140596092Y-106252039D01*
X140537449Y-106193552D01*
X140478805Y-106135066D01*
X141204179Y-105374737D01*
X141249916Y-105326763D01*
X141412633Y-105155440D01*
X141552313Y-105007238D01*
X141669373Y-104881698D01*
X141764233Y-104778361D01*
X141831309Y-104703467D01*
X142105947Y-104703467D01*
X142108106Y-104721089D01*
X142108483Y-104722930D01*
X142126480Y-104764671D01*
X142162428Y-104784120D01*
X142273237Y-104825583D01*
X142371963Y-104894656D01*
X142449611Y-104986024D01*
X142502828Y-105095695D01*
X142528258Y-105219673D01*
X142536681Y-105324605D01*
X143798482Y-105324605D01*
X143807280Y-105287006D01*
X143808836Y-105277779D01*
X143813672Y-105236518D01*
X143820271Y-105169804D01*
X143828142Y-105082953D01*
X143836797Y-104981277D01*
X143845743Y-104870092D01*
X143875409Y-104490777D01*
X143475532Y-104084698D01*
X143402187Y-104010461D01*
X143312447Y-103920337D01*
X143231940Y-103840275D01*
X143163488Y-103773042D01*
X143109917Y-103721410D01*
X143074052Y-103688146D01*
X143058715Y-103676021D01*
X143048431Y-103681814D01*
X143017801Y-103708175D01*
X142971705Y-103752209D01*
X142914265Y-103809944D01*
X142849605Y-103877411D01*
X142832738Y-103895304D01*
X142757107Y-103975339D01*
X142666984Y-104070477D01*
X142569155Y-104173567D01*
X142470405Y-104277456D01*
X142377520Y-104374993D01*
X142371940Y-104380846D01*
X142285584Y-104471714D01*
X142219690Y-104542077D01*
X142171651Y-104595283D01*
X142138863Y-104634677D01*
X142118720Y-104663608D01*
X142108616Y-104685422D01*
X142105947Y-104703467D01*
X141831309Y-104703467D01*
X141837311Y-104696766D01*
X141889026Y-104636455D01*
X141919796Y-104596966D01*
X141930040Y-104577842D01*
X141930041Y-104577729D01*
X141928636Y-104553894D01*
X141924531Y-104500467D01*
X141918048Y-104421084D01*
X141909508Y-104319380D01*
X141899233Y-104198993D01*
X141887544Y-104063557D01*
X141874763Y-103916711D01*
X141861212Y-103762090D01*
X141847212Y-103603330D01*
X141833085Y-103444068D01*
X141819153Y-103287941D01*
X141805736Y-103138583D01*
X141793157Y-102999633D01*
X141781738Y-102874726D01*
X141771799Y-102767498D01*
X141763662Y-102681587D01*
X141757650Y-102620627D01*
X141754083Y-102588256D01*
X141746891Y-102534038D01*
X141918573Y-102534038D01*
X141920772Y-102575130D01*
X141925611Y-102644235D01*
X141932848Y-102738370D01*
X141942241Y-102854553D01*
X141953547Y-102989799D01*
X141966523Y-103141127D01*
X141980929Y-103305554D01*
X141996521Y-103480097D01*
X142008710Y-103614706D01*
X142023976Y-103781645D01*
X142038269Y-103936118D01*
X142051305Y-104075149D01*
X142062800Y-104195764D01*
X142072470Y-104294989D01*
X142080030Y-104369848D01*
X142085197Y-104417367D01*
X142087686Y-104434572D01*
X142095236Y-104429242D01*
X142122922Y-104403078D01*
X142167909Y-104358137D01*
X142227100Y-104297691D01*
X142297399Y-104225009D01*
X142375708Y-104143364D01*
X142458930Y-104056026D01*
X142543969Y-103966267D01*
X142627727Y-103877358D01*
X142707107Y-103792570D01*
X142779013Y-103715173D01*
X142840347Y-103648441D01*
X142888013Y-103595642D01*
X142918913Y-103560050D01*
X142927941Y-103547686D01*
X143169574Y-103547686D01*
X143535971Y-103913799D01*
X143625569Y-104003179D01*
X143710013Y-104086820D01*
X143775427Y-104150527D01*
X143824208Y-104196368D01*
X143858753Y-104226409D01*
X143881459Y-104242718D01*
X143894722Y-104247362D01*
X143900940Y-104242408D01*
X143902509Y-104229923D01*
X143903515Y-104209863D01*
X143907140Y-104158212D01*
X143913130Y-104079820D01*
X143921198Y-103978259D01*
X143931055Y-103857102D01*
X143942413Y-103719921D01*
X143954984Y-103570287D01*
X143968480Y-103411771D01*
X143980395Y-103272063D01*
X143992811Y-103124914D01*
X144003943Y-102991305D01*
X144013526Y-102874528D01*
X144021290Y-102777878D01*
X144026969Y-102704645D01*
X144030297Y-102658124D01*
X144031004Y-102641606D01*
X144030444Y-102641916D01*
X144014663Y-102657123D01*
X143979606Y-102692803D01*
X143928363Y-102745720D01*
X143864019Y-102812639D01*
X143789664Y-102890323D01*
X143708385Y-102975536D01*
X143623270Y-103065041D01*
X143537406Y-103155602D01*
X143453881Y-103243983D01*
X143375784Y-103326948D01*
X143306202Y-103401260D01*
X143172141Y-103544934D01*
X143169574Y-103547686D01*
X142927941Y-103547686D01*
X142929951Y-103544934D01*
X142919131Y-103530285D01*
X142887674Y-103495222D01*
X142838503Y-103442765D01*
X142774544Y-103375872D01*
X142698723Y-103297499D01*
X142613967Y-103210603D01*
X142523202Y-103118141D01*
X142429356Y-103023069D01*
X142335354Y-102928345D01*
X142244124Y-102836924D01*
X142158591Y-102751765D01*
X142081683Y-102675823D01*
X142016326Y-102612056D01*
X141965446Y-102563420D01*
X141931970Y-102532872D01*
X141918824Y-102523368D01*
X141918573Y-102534038D01*
X141746891Y-102534038D01*
X141744663Y-102517237D01*
X141379079Y-102517237D01*
X141378641Y-102237335D01*
X141378414Y-102092084D01*
X141512763Y-102092084D01*
X141512763Y-102383552D01*
X141621382Y-102383552D01*
X141631045Y-102383544D01*
X141685604Y-102382380D01*
X141715276Y-102377402D01*
X141727571Y-102365977D01*
X141730000Y-102345471D01*
X141719301Y-102315329D01*
X141682654Y-102265187D01*
X141621382Y-102199737D01*
X141512763Y-102092084D01*
X141378414Y-102092084D01*
X141378204Y-101957434D01*
X140777885Y-101347500D01*
X140177567Y-100737566D01*
X140176744Y-100621837D01*
X140175921Y-100506110D01*
X140895969Y-101235949D01*
X140965564Y-101306444D01*
X141109975Y-101452328D01*
X141233442Y-101576375D01*
X141337560Y-101680111D01*
X141423925Y-101765062D01*
X141494132Y-101832756D01*
X141549776Y-101884719D01*
X141592452Y-101922477D01*
X141623756Y-101947557D01*
X141645282Y-101961486D01*
X141658625Y-101965789D01*
X141681125Y-101964486D01*
X141693756Y-101954968D01*
X141695934Y-101928927D01*
X141690697Y-101878059D01*
X141687086Y-101846033D01*
X141682061Y-101792502D01*
X141680037Y-101756908D01*
X141679045Y-101744638D01*
X141669386Y-101731496D01*
X141642703Y-101727141D01*
X141590902Y-101729042D01*
X141577676Y-101729787D01*
X141524733Y-101728947D01*
X141487073Y-101717313D01*
X141460529Y-101698421D01*
X141836974Y-101698421D01*
X141842504Y-101761085D01*
X141845058Y-101789517D01*
X141853018Y-101867142D01*
X141860861Y-101918269D01*
X141870031Y-101948211D01*
X141881973Y-101962280D01*
X141898129Y-101965789D01*
X141912656Y-101968179D01*
X141922289Y-101979598D01*
X141927672Y-102006145D01*
X141930015Y-102053914D01*
X141930526Y-102129002D01*
X141930526Y-102292215D01*
X141983948Y-102345471D01*
X142114342Y-102475460D01*
X142298158Y-102658706D01*
X142298158Y-102517237D01*
X143300790Y-102517237D01*
X143300790Y-102834737D01*
X142478827Y-102834737D01*
X142757589Y-103122993D01*
X142810984Y-103178048D01*
X142884817Y-103253620D01*
X142948929Y-103318582D01*
X142999961Y-103369560D01*
X143034557Y-103403181D01*
X143049357Y-103416074D01*
X143054983Y-103412518D01*
X143081363Y-103388618D01*
X143126849Y-103344362D01*
X143189012Y-103282208D01*
X143265422Y-103204615D01*
X143353649Y-103114040D01*
X143451262Y-103012941D01*
X143555833Y-102903775D01*
X143660940Y-102793464D01*
X143763974Y-102684746D01*
X143847530Y-102595636D01*
X143913654Y-102523771D01*
X143964387Y-102466789D01*
X144001775Y-102422328D01*
X144027860Y-102388025D01*
X144044687Y-102361517D01*
X144054298Y-102340442D01*
X144058739Y-102322439D01*
X144059916Y-102313669D01*
X144065136Y-102265347D01*
X144071742Y-102194207D01*
X144079008Y-102108361D01*
X144086207Y-102015921D01*
X144088648Y-101983725D01*
X144095701Y-101896736D01*
X144102425Y-101821703D01*
X144108160Y-101765755D01*
X144112240Y-101736020D01*
X144120242Y-101698421D01*
X141836974Y-101698421D01*
X141460529Y-101698421D01*
X141449956Y-101690896D01*
X141443563Y-101685335D01*
X141391285Y-101617987D01*
X141370581Y-101548026D01*
X141823481Y-101548026D01*
X143703306Y-101548026D01*
X143700583Y-101481184D01*
X143985921Y-101481184D01*
X143985921Y-101548026D01*
X144061706Y-101548026D01*
X144084412Y-101547866D01*
X144118054Y-101544942D01*
X144127766Y-101535470D01*
X144120227Y-101515767D01*
X144117999Y-101512011D01*
X144092990Y-101483123D01*
X144056757Y-101451063D01*
X144020613Y-101425060D01*
X143995874Y-101414342D01*
X143993650Y-101416036D01*
X143988131Y-101439310D01*
X143985921Y-101481184D01*
X143700583Y-101481184D01*
X143698397Y-101427507D01*
X143693487Y-101306988D01*
X143593224Y-101286848D01*
X143542943Y-101277714D01*
X143458975Y-101264925D01*
X143380165Y-101255276D01*
X143267368Y-101243845D01*
X143267368Y-101380921D01*
X142498684Y-101380921D01*
X142498684Y-101260096D01*
X142402599Y-101271565D01*
X142255787Y-101296146D01*
X142108032Y-101340589D01*
X141985814Y-101402562D01*
X141887062Y-101482913D01*
X141823481Y-101548026D01*
X141370581Y-101548026D01*
X141368281Y-101540254D01*
X141375328Y-101458711D01*
X141413203Y-101379934D01*
X141416868Y-101375029D01*
X141467486Y-101332827D01*
X141533474Y-101307865D01*
X141604607Y-101301225D01*
X141670664Y-101313992D01*
X141721419Y-101347250D01*
X141738604Y-101364229D01*
X141755345Y-101368344D01*
X141779318Y-101355615D01*
X141819799Y-101323832D01*
X141832219Y-101314064D01*
X141928111Y-101252411D01*
X142041715Y-101197584D01*
X142134630Y-101163684D01*
X142632368Y-101163684D01*
X142632368Y-101247237D01*
X143133684Y-101247237D01*
X143133684Y-101163684D01*
X142632368Y-101163684D01*
X142134630Y-101163684D01*
X142162453Y-101153533D01*
X142279746Y-101124206D01*
X142383017Y-101113552D01*
X142393988Y-101113468D01*
X142454970Y-101107531D01*
X142488460Y-101090885D01*
X142498684Y-101061633D01*
X142499885Y-101052417D01*
X142506449Y-101044491D01*
X142522391Y-101038689D01*
X142551719Y-101034681D01*
X142598440Y-101032139D01*
X142666559Y-101030730D01*
X142760086Y-101030128D01*
X142883026Y-101030000D01*
X142998219Y-101030225D01*
X143096126Y-101031135D01*
X143167800Y-101032969D01*
X143217001Y-101035966D01*
X143247490Y-101040363D01*
X143263025Y-101046398D01*
X143267368Y-101054308D01*
X143281653Y-101073732D01*
X143321678Y-101086127D01*
X143336997Y-101088296D01*
X143389230Y-101095930D01*
X143458737Y-101106278D01*
X143534737Y-101117740D01*
X143576651Y-101123575D01*
X143637992Y-101129894D01*
X143681273Y-101131418D01*
X143699057Y-101127697D01*
X143702094Y-101125273D01*
X143730130Y-101119285D01*
X143780564Y-101115117D01*
X143845274Y-101113552D01*
X143985921Y-101113552D01*
X143985937Y-101163684D01*
X143985938Y-101167862D01*
G36*
X143985938Y-101167862D02*
G01*
X143986595Y-101185072D01*
X143995141Y-101213967D01*
X144019466Y-101238472D01*
X144066918Y-101267643D01*
X144108573Y-101294293D01*
X144171989Y-101345460D01*
X144229460Y-101402900D01*
X144273422Y-101458779D01*
X144296311Y-101505262D01*
X144301919Y-101523174D01*
X144312309Y-101535470D01*
X144315812Y-101539616D01*
X144344445Y-101546583D01*
X144397141Y-101548026D01*
X144487237Y-101548026D01*
X144487237Y-101698421D01*
X144275228Y-101698421D01*
X144255433Y-101934683D01*
X144252775Y-101966983D01*
X144246583Y-102047840D01*
X144242208Y-102113635D01*
X144240030Y-102158291D01*
X144240426Y-102175733D01*
X144246185Y-102170719D01*
X144272462Y-102144583D01*
X144317888Y-102098258D01*
X144380166Y-102034147D01*
X144456997Y-101954650D01*
X144546080Y-101862169D01*
X144645119Y-101759106D01*
X144751814Y-101647862D01*
X144863865Y-101530838D01*
X144978975Y-101410436D01*
X145094844Y-101289058D01*
X145209174Y-101169104D01*
X145319666Y-101052976D01*
X145424021Y-100943075D01*
X145519940Y-100841804D01*
X145605124Y-100751563D01*
X145677275Y-100674753D01*
X145806194Y-100537039D01*
X145806781Y-100654352D01*
X145807368Y-100771664D01*
X145009286Y-101610985D01*
X144211204Y-102450307D01*
X144195250Y-102641606D01*
X144131419Y-103407028D01*
X144120138Y-103542787D01*
X144106140Y-103712654D01*
X144093220Y-103871005D01*
X144081627Y-104014728D01*
X144071607Y-104140710D01*
X144063407Y-104245838D01*
X144057274Y-104327001D01*
X144053456Y-104381086D01*
X144052199Y-104404980D01*
X144055517Y-104415929D01*
X144070429Y-104439571D01*
X144098709Y-104475203D01*
X144112358Y-104490777D01*
X144141864Y-104524448D01*
X144201399Y-104588928D01*
X144278820Y-104670268D01*
X144375632Y-104770091D01*
X144493342Y-104890020D01*
X144633454Y-105031679D01*
X144725628Y-105124636D01*
X144854119Y-105254295D01*
X144982159Y-105383579D01*
X145105900Y-105508597D01*
X145221492Y-105625459D01*
X145325085Y-105730274D01*
X145412831Y-105819152D01*
X145480881Y-105888202D01*
X145747617Y-106159257D01*
X145699169Y-106209826D01*
X145687743Y-106221219D01*
X145654035Y-106249197D01*
X145630910Y-106260395D01*
X145612805Y-106250835D01*
X145579145Y-106222149D01*
X145538792Y-106181020D01*
X145514230Y-106155042D01*
X145468423Y-106107604D01*
X145403683Y-106041066D01*
X145322295Y-105957763D01*
X145226545Y-105860028D01*
X145118721Y-105750195D01*
X145001108Y-105630596D01*
X144875992Y-105503566D01*
X144745659Y-105371438D01*
X144024831Y-104641232D01*
X143995469Y-105020517D01*
X143989068Y-105101472D01*
X143979721Y-105210293D01*
X143971290Y-105292717D01*
X143963151Y-105353075D01*
X143954679Y-105395700D01*
X143945250Y-105424924D01*
X143934237Y-105445080D01*
X143918825Y-105473250D01*
X143906143Y-105525039D01*
X143902368Y-105599652D01*
X143902368Y-105708947D01*
X143601579Y-105708947D01*
X143601579Y-105475000D01*
X142477832Y-105475000D01*
X142412875Y-105548795D01*
X142395110Y-105568011D01*
X142298831Y-105645212D01*
X142190049Y-105692739D01*
X142072262Y-105708947D01*
X141968327Y-105700354D01*
X141850770Y-105664128D01*
X141750134Y-105599382D01*
X141730520Y-105580878D01*
X141681503Y-105520975D01*
X141638497Y-105451193D01*
X141607658Y-105382409D01*
X141595141Y-105325502D01*
X141594899Y-105317241D01*
X141593099Y-105286971D01*
X141588392Y-105266063D01*
X141578544Y-105256169D01*
X141561323Y-105258944D01*
X141534494Y-105276040D01*
X141495824Y-105309110D01*
X141443080Y-105359807D01*
X141374028Y-105429785D01*
X141286434Y-105520697D01*
X141178065Y-105634195D01*
X141120342Y-105694780D01*
X141023855Y-105796218D01*
X140932568Y-105892389D01*
X140850059Y-105979513D01*
X140779906Y-106053811D01*
X140725685Y-106111503D01*
X140690974Y-106148810D01*
X140596092Y-106252039D01*
X140537449Y-106193552D01*
X140478805Y-106135066D01*
X141204179Y-105374737D01*
X141249916Y-105326763D01*
X141412633Y-105155440D01*
X141552313Y-105007238D01*
X141669373Y-104881698D01*
X141764233Y-104778361D01*
X141831309Y-104703467D01*
X142105947Y-104703467D01*
X142108106Y-104721089D01*
X142108483Y-104722930D01*
X142126480Y-104764671D01*
X142162428Y-104784120D01*
X142273237Y-104825583D01*
X142371963Y-104894656D01*
X142449611Y-104986024D01*
X142502828Y-105095695D01*
X142528258Y-105219673D01*
X142536681Y-105324605D01*
X143798482Y-105324605D01*
X143807280Y-105287006D01*
X143808836Y-105277779D01*
X143813672Y-105236518D01*
X143820271Y-105169804D01*
X143828142Y-105082953D01*
X143836797Y-104981277D01*
X143845743Y-104870092D01*
X143875409Y-104490777D01*
X143475532Y-104084698D01*
X143402187Y-104010461D01*
X143312447Y-103920337D01*
X143231940Y-103840275D01*
X143163488Y-103773042D01*
X143109917Y-103721410D01*
X143074052Y-103688146D01*
X143058715Y-103676021D01*
X143048431Y-103681814D01*
X143017801Y-103708175D01*
X142971705Y-103752209D01*
X142914265Y-103809944D01*
X142849605Y-103877411D01*
X142832738Y-103895304D01*
X142757107Y-103975339D01*
X142666984Y-104070477D01*
X142569155Y-104173567D01*
X142470405Y-104277456D01*
X142377520Y-104374993D01*
X142371940Y-104380846D01*
X142285584Y-104471714D01*
X142219690Y-104542077D01*
X142171651Y-104595283D01*
X142138863Y-104634677D01*
X142118720Y-104663608D01*
X142108616Y-104685422D01*
X142105947Y-104703467D01*
X141831309Y-104703467D01*
X141837311Y-104696766D01*
X141889026Y-104636455D01*
X141919796Y-104596966D01*
X141930040Y-104577842D01*
X141930041Y-104577729D01*
X141928636Y-104553894D01*
X141924531Y-104500467D01*
X141918048Y-104421084D01*
X141909508Y-104319380D01*
X141899233Y-104198993D01*
X141887544Y-104063557D01*
X141874763Y-103916711D01*
X141861212Y-103762090D01*
X141847212Y-103603330D01*
X141833085Y-103444068D01*
X141819153Y-103287941D01*
X141805736Y-103138583D01*
X141793157Y-102999633D01*
X141781738Y-102874726D01*
X141771799Y-102767498D01*
X141763662Y-102681587D01*
X141757650Y-102620627D01*
X141754083Y-102588256D01*
X141746891Y-102534038D01*
X141918573Y-102534038D01*
X141920772Y-102575130D01*
X141925611Y-102644235D01*
X141932848Y-102738370D01*
X141942241Y-102854553D01*
X141953547Y-102989799D01*
X141966523Y-103141127D01*
X141980929Y-103305554D01*
X141996521Y-103480097D01*
X142008710Y-103614706D01*
X142023976Y-103781645D01*
X142038269Y-103936118D01*
X142051305Y-104075149D01*
X142062800Y-104195764D01*
X142072470Y-104294989D01*
X142080030Y-104369848D01*
X142085197Y-104417367D01*
X142087686Y-104434572D01*
X142095236Y-104429242D01*
X142122922Y-104403078D01*
X142167909Y-104358137D01*
X142227100Y-104297691D01*
X142297399Y-104225009D01*
X142375708Y-104143364D01*
X142458930Y-104056026D01*
X142543969Y-103966267D01*
X142627727Y-103877358D01*
X142707107Y-103792570D01*
X142779013Y-103715173D01*
X142840347Y-103648441D01*
X142888013Y-103595642D01*
X142918913Y-103560050D01*
X142927941Y-103547686D01*
X143169574Y-103547686D01*
X143535971Y-103913799D01*
X143625569Y-104003179D01*
X143710013Y-104086820D01*
X143775427Y-104150527D01*
X143824208Y-104196368D01*
X143858753Y-104226409D01*
X143881459Y-104242718D01*
X143894722Y-104247362D01*
X143900940Y-104242408D01*
X143902509Y-104229923D01*
X143903515Y-104209863D01*
X143907140Y-104158212D01*
X143913130Y-104079820D01*
X143921198Y-103978259D01*
X143931055Y-103857102D01*
X143942413Y-103719921D01*
X143954984Y-103570287D01*
X143968480Y-103411771D01*
X143980395Y-103272063D01*
X143992811Y-103124914D01*
X144003943Y-102991305D01*
X144013526Y-102874528D01*
X144021290Y-102777878D01*
X144026969Y-102704645D01*
X144030297Y-102658124D01*
X144031004Y-102641606D01*
X144030444Y-102641916D01*
X144014663Y-102657123D01*
X143979606Y-102692803D01*
X143928363Y-102745720D01*
X143864019Y-102812639D01*
X143789664Y-102890323D01*
X143708385Y-102975536D01*
X143623270Y-103065041D01*
X143537406Y-103155602D01*
X143453881Y-103243983D01*
X143375784Y-103326948D01*
X143306202Y-103401260D01*
X143172141Y-103544934D01*
X143169574Y-103547686D01*
X142927941Y-103547686D01*
X142929951Y-103544934D01*
X142919131Y-103530285D01*
X142887674Y-103495222D01*
X142838503Y-103442765D01*
X142774544Y-103375872D01*
X142698723Y-103297499D01*
X142613967Y-103210603D01*
X142523202Y-103118141D01*
X142429356Y-103023069D01*
X142335354Y-102928345D01*
X142244124Y-102836924D01*
X142158591Y-102751765D01*
X142081683Y-102675823D01*
X142016326Y-102612056D01*
X141965446Y-102563420D01*
X141931970Y-102532872D01*
X141918824Y-102523368D01*
X141918573Y-102534038D01*
X141746891Y-102534038D01*
X141744663Y-102517237D01*
X141379079Y-102517237D01*
X141378641Y-102237335D01*
X141378414Y-102092084D01*
X141512763Y-102092084D01*
X141512763Y-102383552D01*
X141621382Y-102383552D01*
X141631045Y-102383544D01*
X141685604Y-102382380D01*
X141715276Y-102377402D01*
X141727571Y-102365977D01*
X141730000Y-102345471D01*
X141719301Y-102315329D01*
X141682654Y-102265187D01*
X141621382Y-102199737D01*
X141512763Y-102092084D01*
X141378414Y-102092084D01*
X141378204Y-101957434D01*
X140777885Y-101347500D01*
X140177567Y-100737566D01*
X140176744Y-100621837D01*
X140175921Y-100506110D01*
X140895969Y-101235949D01*
X140965564Y-101306444D01*
X141109975Y-101452328D01*
X141233442Y-101576375D01*
X141337560Y-101680111D01*
X141423925Y-101765062D01*
X141494132Y-101832756D01*
X141549776Y-101884719D01*
X141592452Y-101922477D01*
X141623756Y-101947557D01*
X141645282Y-101961486D01*
X141658625Y-101965789D01*
X141681125Y-101964486D01*
X141693756Y-101954968D01*
X141695934Y-101928927D01*
X141690697Y-101878059D01*
X141687086Y-101846033D01*
X141682061Y-101792502D01*
X141680037Y-101756908D01*
X141679045Y-101744638D01*
X141669386Y-101731496D01*
X141642703Y-101727141D01*
X141590902Y-101729042D01*
X141577676Y-101729787D01*
X141524733Y-101728947D01*
X141487073Y-101717313D01*
X141460529Y-101698421D01*
X141836974Y-101698421D01*
X141842504Y-101761085D01*
X141845058Y-101789517D01*
X141853018Y-101867142D01*
X141860861Y-101918269D01*
X141870031Y-101948211D01*
X141881973Y-101962280D01*
X141898129Y-101965789D01*
X141912656Y-101968179D01*
X141922289Y-101979598D01*
X141927672Y-102006145D01*
X141930015Y-102053914D01*
X141930526Y-102129002D01*
X141930526Y-102292215D01*
X141983948Y-102345471D01*
X142114342Y-102475460D01*
X142298158Y-102658706D01*
X142298158Y-102517237D01*
X143300790Y-102517237D01*
X143300790Y-102834737D01*
X142478827Y-102834737D01*
X142757589Y-103122993D01*
X142810984Y-103178048D01*
X142884817Y-103253620D01*
X142948929Y-103318582D01*
X142999961Y-103369560D01*
X143034557Y-103403181D01*
X143049357Y-103416074D01*
X143054983Y-103412518D01*
X143081363Y-103388618D01*
X143126849Y-103344362D01*
X143189012Y-103282208D01*
X143265422Y-103204615D01*
X143353649Y-103114040D01*
X143451262Y-103012941D01*
X143555833Y-102903775D01*
X143660940Y-102793464D01*
X143763974Y-102684746D01*
X143847530Y-102595636D01*
X143913654Y-102523771D01*
X143964387Y-102466789D01*
X144001775Y-102422328D01*
X144027860Y-102388025D01*
X144044687Y-102361517D01*
X144054298Y-102340442D01*
X144058739Y-102322439D01*
X144059916Y-102313669D01*
X144065136Y-102265347D01*
X144071742Y-102194207D01*
X144079008Y-102108361D01*
X144086207Y-102015921D01*
X144088648Y-101983725D01*
X144095701Y-101896736D01*
X144102425Y-101821703D01*
X144108160Y-101765755D01*
X144112240Y-101736020D01*
X144120242Y-101698421D01*
X141836974Y-101698421D01*
X141460529Y-101698421D01*
X141449956Y-101690896D01*
X141443563Y-101685335D01*
X141391285Y-101617987D01*
X141370581Y-101548026D01*
X141823481Y-101548026D01*
X143703306Y-101548026D01*
X143700583Y-101481184D01*
X143985921Y-101481184D01*
X143985921Y-101548026D01*
X144061706Y-101548026D01*
X144084412Y-101547866D01*
X144118054Y-101544942D01*
X144127766Y-101535470D01*
X144120227Y-101515767D01*
X144117999Y-101512011D01*
X144092990Y-101483123D01*
X144056757Y-101451063D01*
X144020613Y-101425060D01*
X143995874Y-101414342D01*
X143993650Y-101416036D01*
X143988131Y-101439310D01*
X143985921Y-101481184D01*
X143700583Y-101481184D01*
X143698397Y-101427507D01*
X143693487Y-101306988D01*
X143593224Y-101286848D01*
X143542943Y-101277714D01*
X143458975Y-101264925D01*
X143380165Y-101255276D01*
X143267368Y-101243845D01*
X143267368Y-101380921D01*
X142498684Y-101380921D01*
X142498684Y-101260096D01*
X142402599Y-101271565D01*
X142255787Y-101296146D01*
X142108032Y-101340589D01*
X141985814Y-101402562D01*
X141887062Y-101482913D01*
X141823481Y-101548026D01*
X141370581Y-101548026D01*
X141368281Y-101540254D01*
X141375328Y-101458711D01*
X141413203Y-101379934D01*
X141416868Y-101375029D01*
X141467486Y-101332827D01*
X141533474Y-101307865D01*
X141604607Y-101301225D01*
X141670664Y-101313992D01*
X141721419Y-101347250D01*
X141738604Y-101364229D01*
X141755345Y-101368344D01*
X141779318Y-101355615D01*
X141819799Y-101323832D01*
X141832219Y-101314064D01*
X141928111Y-101252411D01*
X142041715Y-101197584D01*
X142134630Y-101163684D01*
X142632368Y-101163684D01*
X142632368Y-101247237D01*
X143133684Y-101247237D01*
X143133684Y-101163684D01*
X142632368Y-101163684D01*
X142134630Y-101163684D01*
X142162453Y-101153533D01*
X142279746Y-101124206D01*
X142383017Y-101113552D01*
X142393988Y-101113468D01*
X142454970Y-101107531D01*
X142488460Y-101090885D01*
X142498684Y-101061633D01*
X142499885Y-101052417D01*
X142506449Y-101044491D01*
X142522391Y-101038689D01*
X142551719Y-101034681D01*
X142598440Y-101032139D01*
X142666559Y-101030730D01*
X142760086Y-101030128D01*
X142883026Y-101030000D01*
X142998219Y-101030225D01*
X143096126Y-101031135D01*
X143167800Y-101032969D01*
X143217001Y-101035966D01*
X143247490Y-101040363D01*
X143263025Y-101046398D01*
X143267368Y-101054308D01*
X143281653Y-101073732D01*
X143321678Y-101086127D01*
X143336997Y-101088296D01*
X143389230Y-101095930D01*
X143458737Y-101106278D01*
X143534737Y-101117740D01*
X143576651Y-101123575D01*
X143637992Y-101129894D01*
X143681273Y-101131418D01*
X143699057Y-101127697D01*
X143702094Y-101125273D01*
X143730130Y-101119285D01*
X143780564Y-101115117D01*
X143845274Y-101113552D01*
X143985921Y-101113552D01*
X143985937Y-101163684D01*
X143985938Y-101167862D01*
G37*
X184347456Y-95153081D02*
X184364931Y-95184441D01*
X184365767Y-95220242D01*
X184345274Y-95251680D01*
X184340608Y-95255556D01*
X184331141Y-95261022D01*
X184317459Y-95265229D01*
X184296940Y-95268341D01*
X184266960Y-95270521D01*
X184224896Y-95271932D01*
X184168124Y-95272737D01*
X184094022Y-95273101D01*
X183999965Y-95273186D01*
X183678419Y-95273186D01*
X183656839Y-95246535D01*
X183642069Y-95222822D01*
X183635259Y-95199808D01*
X183641141Y-95178802D01*
X183656839Y-95153081D01*
X183678419Y-95126430D01*
X184325876Y-95126430D01*
X184347456Y-95153081D01*
G36*
X184347456Y-95153081D02*
G01*
X184364931Y-95184441D01*
X184365767Y-95220242D01*
X184345274Y-95251680D01*
X184340608Y-95255556D01*
X184331141Y-95261022D01*
X184317459Y-95265229D01*
X184296940Y-95268341D01*
X184266960Y-95270521D01*
X184224896Y-95271932D01*
X184168124Y-95272737D01*
X184094022Y-95273101D01*
X183999965Y-95273186D01*
X183678419Y-95273186D01*
X183656839Y-95246535D01*
X183642069Y-95222822D01*
X183635259Y-95199808D01*
X183641141Y-95178802D01*
X183656839Y-95153081D01*
X183678419Y-95126430D01*
X184325876Y-95126430D01*
X184347456Y-95153081D01*
G37*
X184087759Y-87986249D02*
X184161981Y-87986507D01*
X184218733Y-87987178D01*
X184260704Y-87988456D01*
X184290581Y-87990535D01*
X184311053Y-87993609D01*
X184324806Y-87997874D01*
X184334529Y-88003524D01*
X184342909Y-88010753D01*
X184364373Y-88042217D01*
X184366139Y-88077382D01*
X184346459Y-88110386D01*
X184340590Y-88115692D01*
X184331506Y-88121142D01*
X184318165Y-88125308D01*
X184297949Y-88128362D01*
X184268241Y-88130476D01*
X184226424Y-88131822D01*
X184169881Y-88132570D01*
X184095994Y-88132894D01*
X184002148Y-88132963D01*
X183926486Y-88132924D01*
X183848577Y-88132669D01*
X183788567Y-88132025D01*
X183743840Y-88130821D01*
X183711777Y-88128884D01*
X183689763Y-88126044D01*
X183675179Y-88122129D01*
X183665410Y-88116966D01*
X183657837Y-88110386D01*
X183638815Y-88081202D01*
X183639655Y-88048071D01*
X183662968Y-88013917D01*
X183690677Y-87986208D01*
X184003729Y-87986208D01*
X184087759Y-87986249D01*
G36*
X184087759Y-87986249D02*
G01*
X184161981Y-87986507D01*
X184218733Y-87987178D01*
X184260704Y-87988456D01*
X184290581Y-87990535D01*
X184311053Y-87993609D01*
X184324806Y-87997874D01*
X184334529Y-88003524D01*
X184342909Y-88010753D01*
X184364373Y-88042217D01*
X184366139Y-88077382D01*
X184346459Y-88110386D01*
X184340590Y-88115692D01*
X184331506Y-88121142D01*
X184318165Y-88125308D01*
X184297949Y-88128362D01*
X184268241Y-88130476D01*
X184226424Y-88131822D01*
X184169881Y-88132570D01*
X184095994Y-88132894D01*
X184002148Y-88132963D01*
X183926486Y-88132924D01*
X183848577Y-88132669D01*
X183788567Y-88132025D01*
X183743840Y-88130821D01*
X183711777Y-88128884D01*
X183689763Y-88126044D01*
X183675179Y-88122129D01*
X183665410Y-88116966D01*
X183657837Y-88110386D01*
X183638815Y-88081202D01*
X183639655Y-88048071D01*
X183662968Y-88013917D01*
X183690677Y-87986208D01*
X184003729Y-87986208D01*
X184087759Y-87986249D01*
G37*
X177645381Y-87597395D02*
X177695880Y-87600181D01*
X177735280Y-87607013D01*
X177772628Y-87619596D01*
X177816973Y-87639636D01*
X177828791Y-87645434D01*
X177937001Y-87713955D01*
X178026033Y-87800135D01*
X178093797Y-87901528D01*
X178138206Y-88015689D01*
X178150598Y-88074266D01*
X178156397Y-88193101D01*
X178137634Y-88308200D01*
X178096232Y-88416188D01*
X178034115Y-88513691D01*
X177953207Y-88597332D01*
X177855432Y-88663737D01*
X177742714Y-88709531D01*
X177650471Y-88726286D01*
X177548677Y-88727795D01*
X177449660Y-88714168D01*
X177363892Y-88686055D01*
X177302573Y-88653570D01*
X177205288Y-88581253D01*
X177128507Y-88495522D01*
X177072238Y-88399527D01*
X177036490Y-88296421D01*
X177021268Y-88189358D01*
X177026581Y-88081488D01*
X177052436Y-87975964D01*
X177098841Y-87875940D01*
X177165803Y-87784566D01*
X177253328Y-87704995D01*
X177361426Y-87640380D01*
X177399506Y-87623057D01*
X177438103Y-87609023D01*
X177476689Y-87601148D01*
X177524415Y-87597697D01*
X177590433Y-87596932D01*
X177645381Y-87597395D01*
G36*
X177645381Y-87597395D02*
G01*
X177695880Y-87600181D01*
X177735280Y-87607013D01*
X177772628Y-87619596D01*
X177816973Y-87639636D01*
X177828791Y-87645434D01*
X177937001Y-87713955D01*
X178026033Y-87800135D01*
X178093797Y-87901528D01*
X178138206Y-88015689D01*
X178150598Y-88074266D01*
X178156397Y-88193101D01*
X178137634Y-88308200D01*
X178096232Y-88416188D01*
X178034115Y-88513691D01*
X177953207Y-88597332D01*
X177855432Y-88663737D01*
X177742714Y-88709531D01*
X177650471Y-88726286D01*
X177548677Y-88727795D01*
X177449660Y-88714168D01*
X177363892Y-88686055D01*
X177302573Y-88653570D01*
X177205288Y-88581253D01*
X177128507Y-88495522D01*
X177072238Y-88399527D01*
X177036490Y-88296421D01*
X177021268Y-88189358D01*
X177026581Y-88081488D01*
X177052436Y-87975964D01*
X177098841Y-87875940D01*
X177165803Y-87784566D01*
X177253328Y-87704995D01*
X177361426Y-87640380D01*
X177399506Y-87623057D01*
X177438103Y-87609023D01*
X177476689Y-87601148D01*
X177524415Y-87597697D01*
X177590433Y-87596932D01*
X177645381Y-87597395D01*
G37*
X183761370Y-95523291D02*
X183762823Y-95524651D01*
X183771184Y-95535854D01*
X183776739Y-95552956D01*
X183780032Y-95580126D01*
X183781610Y-95621530D01*
X183782014Y-95681335D01*
X183782014Y-95820697D01*
X184045781Y-95820697D01*
X184121609Y-95820772D01*
X184188275Y-95821180D01*
X184238059Y-95822162D01*
X184273976Y-95823958D01*
X184299042Y-95826809D01*
X184316273Y-95830955D01*
X184328684Y-95836637D01*
X184339292Y-95844094D01*
X184342098Y-95846384D01*
X184364740Y-95877562D01*
X184366304Y-95911942D01*
X184346459Y-95944874D01*
X184338383Y-95951853D01*
X184327785Y-95957325D01*
X184311941Y-95961345D01*
X184287965Y-95964136D01*
X184252966Y-95965920D01*
X184204056Y-95966919D01*
X184138346Y-95967356D01*
X184052948Y-95967452D01*
X183782014Y-95967452D01*
X183782014Y-96113388D01*
X183782013Y-96124488D01*
X183781788Y-96181006D01*
X183780649Y-96219850D01*
X183777849Y-96245243D01*
X183772642Y-96261404D01*
X183764281Y-96272556D01*
X183752018Y-96282919D01*
X183721330Y-96298767D01*
X183687550Y-96295665D01*
X183655014Y-96270021D01*
X183651297Y-96265079D01*
X183646461Y-96254870D01*
X183642698Y-96239444D01*
X183639875Y-96216322D01*
X183637862Y-96183025D01*
X183636525Y-96137071D01*
X183635734Y-96075980D01*
X183635355Y-95997273D01*
X183635259Y-95898468D01*
X183635260Y-95878441D01*
X183635350Y-95784318D01*
X183635690Y-95709803D01*
X183636431Y-95652397D01*
X183637727Y-95609597D01*
X183639729Y-95578904D01*
X183642588Y-95557817D01*
X183646458Y-95543835D01*
X183651490Y-95534458D01*
X183657837Y-95527186D01*
X183690554Y-95508380D01*
X183728131Y-95506933D01*
X183761370Y-95523291D01*
G36*
X183761370Y-95523291D02*
G01*
X183762823Y-95524651D01*
X183771184Y-95535854D01*
X183776739Y-95552956D01*
X183780032Y-95580126D01*
X183781610Y-95621530D01*
X183782014Y-95681335D01*
X183782014Y-95820697D01*
X184045781Y-95820697D01*
X184121609Y-95820772D01*
X184188275Y-95821180D01*
X184238059Y-95822162D01*
X184273976Y-95823958D01*
X184299042Y-95826809D01*
X184316273Y-95830955D01*
X184328684Y-95836637D01*
X184339292Y-95844094D01*
X184342098Y-95846384D01*
X184364740Y-95877562D01*
X184366304Y-95911942D01*
X184346459Y-95944874D01*
X184338383Y-95951853D01*
X184327785Y-95957325D01*
X184311941Y-95961345D01*
X184287965Y-95964136D01*
X184252966Y-95965920D01*
X184204056Y-95966919D01*
X184138346Y-95967356D01*
X184052948Y-95967452D01*
X183782014Y-95967452D01*
X183782014Y-96113388D01*
X183782013Y-96124488D01*
X183781788Y-96181006D01*
X183780649Y-96219850D01*
X183777849Y-96245243D01*
X183772642Y-96261404D01*
X183764281Y-96272556D01*
X183752018Y-96282919D01*
X183721330Y-96298767D01*
X183687550Y-96295665D01*
X183655014Y-96270021D01*
X183651297Y-96265079D01*
X183646461Y-96254870D01*
X183642698Y-96239444D01*
X183639875Y-96216322D01*
X183637862Y-96183025D01*
X183636525Y-96137071D01*
X183635734Y-96075980D01*
X183635355Y-95997273D01*
X183635259Y-95898468D01*
X183635260Y-95878441D01*
X183635350Y-95784318D01*
X183635690Y-95709803D01*
X183636431Y-95652397D01*
X183637727Y-95609597D01*
X183639729Y-95578904D01*
X183642588Y-95557817D01*
X183646458Y-95543835D01*
X183651490Y-95534458D01*
X183657837Y-95527186D01*
X183690554Y-95508380D01*
X183728131Y-95506933D01*
X183761370Y-95523291D01*
G37*
X184043823Y-96531099D02*
X184160192Y-96531583D01*
X184174367Y-96531651D01*
X184236129Y-96532237D01*
X184279812Y-96533560D01*
X184309193Y-96536105D01*
X184328047Y-96540360D01*
X184340151Y-96546812D01*
X184349281Y-96555946D01*
X184366698Y-96589404D01*
X184363796Y-96624352D01*
X184339292Y-96655255D01*
X184326089Y-96664264D01*
X184307553Y-96671716D01*
X184281525Y-96676084D01*
X184242979Y-96678139D01*
X184186892Y-96678652D01*
X184064237Y-96678652D01*
X184064237Y-97175363D01*
X184199063Y-97175363D01*
X184234854Y-97175436D01*
X184281184Y-97176199D01*
X184311718Y-97178375D01*
X184330749Y-97182672D01*
X184342566Y-97189796D01*
X184351463Y-97200453D01*
X184366533Y-97232704D01*
X184363865Y-97267991D01*
X184339292Y-97298722D01*
X184333037Y-97303377D01*
X184322513Y-97309313D01*
X184308583Y-97313844D01*
X184288509Y-97317160D01*
X184259552Y-97319449D01*
X184218972Y-97320900D01*
X184164032Y-97321703D01*
X184091991Y-97322046D01*
X184000112Y-97322119D01*
X183690677Y-97322119D01*
X183662968Y-97294410D01*
X183640725Y-97263031D01*
X183638036Y-97229802D01*
X183657837Y-97197941D01*
X183667607Y-97189655D01*
X183683499Y-97182243D01*
X183707467Y-97177906D01*
X183744340Y-97175870D01*
X183798948Y-97175363D01*
X183917481Y-97175363D01*
X183917481Y-96678652D01*
X183801968Y-96678652D01*
X183750270Y-96678214D01*
X183715746Y-96676250D01*
X183693170Y-96671734D01*
X183677318Y-96663641D01*
X183662968Y-96650943D01*
X183640725Y-96619565D01*
X183638036Y-96586336D01*
X183657837Y-96554474D01*
X183664027Y-96548842D01*
X183672233Y-96543752D01*
X183684009Y-96539665D01*
X183701468Y-96536487D01*
X183726722Y-96534121D01*
X183761882Y-96532470D01*
X183809061Y-96531439D01*
X183870369Y-96530931D01*
X183947919Y-96530849D01*
X184043823Y-96531099D01*
G36*
X184043823Y-96531099D02*
G01*
X184160192Y-96531583D01*
X184174367Y-96531651D01*
X184236129Y-96532237D01*
X184279812Y-96533560D01*
X184309193Y-96536105D01*
X184328047Y-96540360D01*
X184340151Y-96546812D01*
X184349281Y-96555946D01*
X184366698Y-96589404D01*
X184363796Y-96624352D01*
X184339292Y-96655255D01*
X184326089Y-96664264D01*
X184307553Y-96671716D01*
X184281525Y-96676084D01*
X184242979Y-96678139D01*
X184186892Y-96678652D01*
X184064237Y-96678652D01*
X184064237Y-97175363D01*
X184199063Y-97175363D01*
X184234854Y-97175436D01*
X184281184Y-97176199D01*
X184311718Y-97178375D01*
X184330749Y-97182672D01*
X184342566Y-97189796D01*
X184351463Y-97200453D01*
X184366533Y-97232704D01*
X184363865Y-97267991D01*
X184339292Y-97298722D01*
X184333037Y-97303377D01*
X184322513Y-97309313D01*
X184308583Y-97313844D01*
X184288509Y-97317160D01*
X184259552Y-97319449D01*
X184218972Y-97320900D01*
X184164032Y-97321703D01*
X184091991Y-97322046D01*
X184000112Y-97322119D01*
X183690677Y-97322119D01*
X183662968Y-97294410D01*
X183640725Y-97263031D01*
X183638036Y-97229802D01*
X183657837Y-97197941D01*
X183667607Y-97189655D01*
X183683499Y-97182243D01*
X183707467Y-97177906D01*
X183744340Y-97175870D01*
X183798948Y-97175363D01*
X183917481Y-97175363D01*
X183917481Y-96678652D01*
X183801968Y-96678652D01*
X183750270Y-96678214D01*
X183715746Y-96676250D01*
X183693170Y-96671734D01*
X183677318Y-96663641D01*
X183662968Y-96650943D01*
X183640725Y-96619565D01*
X183638036Y-96586336D01*
X183657837Y-96554474D01*
X183664027Y-96548842D01*
X183672233Y-96543752D01*
X183684009Y-96539665D01*
X183701468Y-96536487D01*
X183726722Y-96534121D01*
X183761882Y-96532470D01*
X183809061Y-96531439D01*
X183870369Y-96530931D01*
X183947919Y-96530849D01*
X184043823Y-96531099D01*
G37*
X184061718Y-91847033D02*
X184140503Y-91847258D01*
X184201213Y-91847876D01*
X184222281Y-91848433D01*
X184246588Y-91849075D01*
X184279367Y-91851045D01*
X184302287Y-91853973D01*
X184318089Y-91858050D01*
X184329511Y-91863465D01*
X184339292Y-91870405D01*
X184369037Y-91893802D01*
X184368443Y-92059494D01*
X184368145Y-92094290D01*
X184364714Y-92192773D01*
X184357031Y-92273735D01*
X184344474Y-92340829D01*
X184326419Y-92397712D01*
X184302244Y-92448039D01*
X184300327Y-92451398D01*
X184263609Y-92509210D01*
X184226643Y-92551564D01*
X184183158Y-92584380D01*
X184126881Y-92613580D01*
X184117265Y-92617862D01*
X184054079Y-92640439D01*
X183998701Y-92647411D01*
X183943675Y-92638809D01*
X183881543Y-92614667D01*
X183879850Y-92613871D01*
X183810428Y-92573420D01*
X183753830Y-92522735D01*
X183709262Y-92460010D01*
X183675933Y-92383434D01*
X183653053Y-92291199D01*
X183639828Y-92181496D01*
X183635467Y-92052517D01*
X183635462Y-92048945D01*
X183635564Y-92005052D01*
X183782014Y-92005052D01*
X183782462Y-92092541D01*
X183784938Y-92159461D01*
X183796190Y-92251859D01*
X183815729Y-92331174D01*
X183842703Y-92393148D01*
X183863432Y-92424088D01*
X183893198Y-92452208D01*
X183935626Y-92475548D01*
X183951592Y-92482675D01*
X183984094Y-92494499D01*
X184008525Y-92496929D01*
X184033253Y-92491316D01*
X184049131Y-92485590D01*
X184109039Y-92452660D01*
X184154792Y-92405322D01*
X184187928Y-92341556D01*
X184209982Y-92259347D01*
X184210484Y-92256553D01*
X184216447Y-92210268D01*
X184220675Y-92153872D01*
X184222281Y-92098934D01*
X184222281Y-92005052D01*
X183782014Y-92005052D01*
X183635564Y-92005052D01*
X183635602Y-91988925D01*
X183636638Y-91946994D01*
X183639232Y-91918880D01*
X183644045Y-91900311D01*
X183651736Y-91887014D01*
X183662968Y-91874717D01*
X183690677Y-91847008D01*
X184000112Y-91847008D01*
X184061718Y-91847033D01*
G36*
X184061718Y-91847033D02*
G01*
X184140503Y-91847258D01*
X184201213Y-91847876D01*
X184222281Y-91848433D01*
X184246588Y-91849075D01*
X184279367Y-91851045D01*
X184302287Y-91853973D01*
X184318089Y-91858050D01*
X184329511Y-91863465D01*
X184339292Y-91870405D01*
X184369037Y-91893802D01*
X184368443Y-92059494D01*
X184368145Y-92094290D01*
X184364714Y-92192773D01*
X184357031Y-92273735D01*
X184344474Y-92340829D01*
X184326419Y-92397712D01*
X184302244Y-92448039D01*
X184300327Y-92451398D01*
X184263609Y-92509210D01*
X184226643Y-92551564D01*
X184183158Y-92584380D01*
X184126881Y-92613580D01*
X184117265Y-92617862D01*
X184054079Y-92640439D01*
X183998701Y-92647411D01*
X183943675Y-92638809D01*
X183881543Y-92614667D01*
X183879850Y-92613871D01*
X183810428Y-92573420D01*
X183753830Y-92522735D01*
X183709262Y-92460010D01*
X183675933Y-92383434D01*
X183653053Y-92291199D01*
X183639828Y-92181496D01*
X183635467Y-92052517D01*
X183635462Y-92048945D01*
X183635564Y-92005052D01*
X183782014Y-92005052D01*
X183782462Y-92092541D01*
X183784938Y-92159461D01*
X183796190Y-92251859D01*
X183815729Y-92331174D01*
X183842703Y-92393148D01*
X183863432Y-92424088D01*
X183893198Y-92452208D01*
X183935626Y-92475548D01*
X183951592Y-92482675D01*
X183984094Y-92494499D01*
X184008525Y-92496929D01*
X184033253Y-92491316D01*
X184049131Y-92485590D01*
X184109039Y-92452660D01*
X184154792Y-92405322D01*
X184187928Y-92341556D01*
X184209982Y-92259347D01*
X184210484Y-92256553D01*
X184216447Y-92210268D01*
X184220675Y-92153872D01*
X184222281Y-92098934D01*
X184222281Y-92005052D01*
X183782014Y-92005052D01*
X183635564Y-92005052D01*
X183635602Y-91988925D01*
X183636638Y-91946994D01*
X183639232Y-91918880D01*
X183644045Y-91900311D01*
X183651736Y-91887014D01*
X183662968Y-91874717D01*
X183690677Y-91847008D01*
X184000112Y-91847008D01*
X184061718Y-91847033D01*
G37*
X184002148Y-84757586D02*
X184077809Y-84757625D01*
X184155718Y-84757880D01*
X184215728Y-84758524D01*
X184260456Y-84759728D01*
X184292518Y-84761665D01*
X184314532Y-84764505D01*
X184329116Y-84768420D01*
X184338886Y-84773582D01*
X184346459Y-84780163D01*
X184352693Y-84787131D01*
X184359993Y-84800129D01*
X184364746Y-84819277D01*
X184367484Y-84848680D01*
X184368737Y-84892446D01*
X184369037Y-84954680D01*
X184368661Y-85003626D01*
X184364233Y-85110486D01*
X184354145Y-85199714D01*
X184337557Y-85274512D01*
X184313627Y-85338083D01*
X184281513Y-85393629D01*
X184240374Y-85444354D01*
X184234522Y-85450342D01*
X184186013Y-85487209D01*
X184125205Y-85518309D01*
X184060961Y-85539791D01*
X184002148Y-85547808D01*
X183980931Y-85546529D01*
X183923515Y-85534217D01*
X183863605Y-85511688D01*
X183809555Y-85482458D01*
X183769724Y-85450041D01*
X183752702Y-85430500D01*
X183713514Y-85375788D01*
X183683385Y-85315485D01*
X183661424Y-85246289D01*
X183646742Y-85164897D01*
X183638451Y-85068008D01*
X183636340Y-84980541D01*
X183782000Y-84980541D01*
X183782009Y-84983569D01*
X183783974Y-85034689D01*
X183788699Y-85094792D01*
X183795227Y-85151500D01*
X183804523Y-85201458D01*
X183830792Y-85276210D01*
X183870091Y-85333719D01*
X183923125Y-85375220D01*
X183974392Y-85396437D01*
X184022218Y-85397855D01*
X184073153Y-85379573D01*
X184119070Y-85349903D01*
X184161479Y-85303206D01*
X184191282Y-85241816D01*
X184210418Y-85162670D01*
X184210656Y-85161180D01*
X184216448Y-85112209D01*
X184220588Y-85053515D01*
X184222196Y-84997474D01*
X184222281Y-84904341D01*
X183782014Y-84904341D01*
X183782000Y-84980541D01*
X183636340Y-84980541D01*
X183635659Y-84952319D01*
X183635258Y-84912837D01*
X183634845Y-84867126D01*
X183636649Y-84831325D01*
X183642931Y-84804234D01*
X183655951Y-84784652D01*
X183677970Y-84771378D01*
X183711247Y-84763210D01*
X183758043Y-84758948D01*
X183782014Y-84758351D01*
X183820619Y-84757391D01*
X183901233Y-84757338D01*
X184002148Y-84757586D01*
G36*
X184002148Y-84757586D02*
G01*
X184077809Y-84757625D01*
X184155718Y-84757880D01*
X184215728Y-84758524D01*
X184260456Y-84759728D01*
X184292518Y-84761665D01*
X184314532Y-84764505D01*
X184329116Y-84768420D01*
X184338886Y-84773582D01*
X184346459Y-84780163D01*
X184352693Y-84787131D01*
X184359993Y-84800129D01*
X184364746Y-84819277D01*
X184367484Y-84848680D01*
X184368737Y-84892446D01*
X184369037Y-84954680D01*
X184368661Y-85003626D01*
X184364233Y-85110486D01*
X184354145Y-85199714D01*
X184337557Y-85274512D01*
X184313627Y-85338083D01*
X184281513Y-85393629D01*
X184240374Y-85444354D01*
X184234522Y-85450342D01*
X184186013Y-85487209D01*
X184125205Y-85518309D01*
X184060961Y-85539791D01*
X184002148Y-85547808D01*
X183980931Y-85546529D01*
X183923515Y-85534217D01*
X183863605Y-85511688D01*
X183809555Y-85482458D01*
X183769724Y-85450041D01*
X183752702Y-85430500D01*
X183713514Y-85375788D01*
X183683385Y-85315485D01*
X183661424Y-85246289D01*
X183646742Y-85164897D01*
X183638451Y-85068008D01*
X183636340Y-84980541D01*
X183782000Y-84980541D01*
X183782009Y-84983569D01*
X183783974Y-85034689D01*
X183788699Y-85094792D01*
X183795227Y-85151500D01*
X183804523Y-85201458D01*
X183830792Y-85276210D01*
X183870091Y-85333719D01*
X183923125Y-85375220D01*
X183974392Y-85396437D01*
X184022218Y-85397855D01*
X184073153Y-85379573D01*
X184119070Y-85349903D01*
X184161479Y-85303206D01*
X184191282Y-85241816D01*
X184210418Y-85162670D01*
X184210656Y-85161180D01*
X184216448Y-85112209D01*
X184220588Y-85053515D01*
X184222196Y-84997474D01*
X184222281Y-84904341D01*
X183782014Y-84904341D01*
X183782000Y-84980541D01*
X183636340Y-84980541D01*
X183635659Y-84952319D01*
X183635258Y-84912837D01*
X183634845Y-84867126D01*
X183636649Y-84831325D01*
X183642931Y-84804234D01*
X183655951Y-84784652D01*
X183677970Y-84771378D01*
X183711247Y-84763210D01*
X183758043Y-84758948D01*
X183782014Y-84758351D01*
X183820619Y-84757391D01*
X183901233Y-84757338D01*
X184002148Y-84757586D01*
G37*
X184060678Y-89645697D02*
X184139765Y-89645916D01*
X184200708Y-89646525D01*
X184246254Y-89647716D01*
X184279155Y-89649679D01*
X184302160Y-89652605D01*
X184318018Y-89656685D01*
X184329478Y-89662111D01*
X184339292Y-89669072D01*
X184363685Y-89699500D01*
X184366564Y-89734443D01*
X184347474Y-89771424D01*
X184343999Y-89775608D01*
X184335471Y-89783784D01*
X184323920Y-89789844D01*
X184306088Y-89794227D01*
X184278716Y-89797369D01*
X184238546Y-89799706D01*
X184182320Y-89801677D01*
X184106781Y-89803719D01*
X183887650Y-89809363D01*
X184128291Y-90074652D01*
X184195067Y-90148486D01*
X184253183Y-90213666D01*
X184298141Y-90265860D01*
X184331063Y-90306935D01*
X184353071Y-90338753D01*
X184365286Y-90363182D01*
X184368831Y-90382084D01*
X184364828Y-90397325D01*
X184354399Y-90410769D01*
X184338666Y-90424281D01*
X184330183Y-90430526D01*
X184319605Y-90436158D01*
X184305447Y-90440369D01*
X184284995Y-90443321D01*
X184255534Y-90445176D01*
X184214353Y-90446095D01*
X184158736Y-90446240D01*
X184085971Y-90445773D01*
X183993343Y-90444856D01*
X183678391Y-90441541D01*
X183656825Y-90414890D01*
X183640633Y-90388825D01*
X183637862Y-90355967D01*
X183656815Y-90321436D01*
X183660400Y-90317124D01*
X183668929Y-90308992D01*
X183680521Y-90302963D01*
X183698427Y-90298602D01*
X183725898Y-90295474D01*
X183766186Y-90293145D01*
X183822543Y-90291179D01*
X183898221Y-90289141D01*
X184118070Y-90283497D01*
X183954276Y-90102874D01*
X183875643Y-90016136D01*
X183807250Y-89940365D01*
X183751900Y-89878228D01*
X183708530Y-89828130D01*
X183676073Y-89788473D01*
X183653465Y-89757660D01*
X183639640Y-89734094D01*
X183633535Y-89716178D01*
X183634084Y-89702315D01*
X183640221Y-89690907D01*
X183650883Y-89680358D01*
X183665003Y-89669072D01*
X183670964Y-89664619D01*
X183681460Y-89658620D01*
X183695285Y-89654041D01*
X183715190Y-89650689D01*
X183743924Y-89648375D01*
X183784237Y-89646907D01*
X183838879Y-89646095D01*
X183910599Y-89645748D01*
X184002148Y-89645674D01*
X184060678Y-89645697D01*
G36*
X184060678Y-89645697D02*
G01*
X184139765Y-89645916D01*
X184200708Y-89646525D01*
X184246254Y-89647716D01*
X184279155Y-89649679D01*
X184302160Y-89652605D01*
X184318018Y-89656685D01*
X184329478Y-89662111D01*
X184339292Y-89669072D01*
X184363685Y-89699500D01*
X184366564Y-89734443D01*
X184347474Y-89771424D01*
X184343999Y-89775608D01*
X184335471Y-89783784D01*
X184323920Y-89789844D01*
X184306088Y-89794227D01*
X184278716Y-89797369D01*
X184238546Y-89799706D01*
X184182320Y-89801677D01*
X184106781Y-89803719D01*
X183887650Y-89809363D01*
X184128291Y-90074652D01*
X184195067Y-90148486D01*
X184253183Y-90213666D01*
X184298141Y-90265860D01*
X184331063Y-90306935D01*
X184353071Y-90338753D01*
X184365286Y-90363182D01*
X184368831Y-90382084D01*
X184364828Y-90397325D01*
X184354399Y-90410769D01*
X184338666Y-90424281D01*
X184330183Y-90430526D01*
X184319605Y-90436158D01*
X184305447Y-90440369D01*
X184284995Y-90443321D01*
X184255534Y-90445176D01*
X184214353Y-90446095D01*
X184158736Y-90446240D01*
X184085971Y-90445773D01*
X183993343Y-90444856D01*
X183678391Y-90441541D01*
X183656825Y-90414890D01*
X183640633Y-90388825D01*
X183637862Y-90355967D01*
X183656815Y-90321436D01*
X183660400Y-90317124D01*
X183668929Y-90308992D01*
X183680521Y-90302963D01*
X183698427Y-90298602D01*
X183725898Y-90295474D01*
X183766186Y-90293145D01*
X183822543Y-90291179D01*
X183898221Y-90289141D01*
X184118070Y-90283497D01*
X183954276Y-90102874D01*
X183875643Y-90016136D01*
X183807250Y-89940365D01*
X183751900Y-89878228D01*
X183708530Y-89828130D01*
X183676073Y-89788473D01*
X183653465Y-89757660D01*
X183639640Y-89734094D01*
X183633535Y-89716178D01*
X183634084Y-89702315D01*
X183640221Y-89690907D01*
X183650883Y-89680358D01*
X183665003Y-89669072D01*
X183670964Y-89664619D01*
X183681460Y-89658620D01*
X183695285Y-89654041D01*
X183715190Y-89650689D01*
X183743924Y-89648375D01*
X183784237Y-89646907D01*
X183838879Y-89646095D01*
X183910599Y-89645748D01*
X184002148Y-89645674D01*
X184060678Y-89645697D01*
G37*
X184020451Y-88461910D02*
X184071784Y-88474851D01*
X184128310Y-88498014D01*
X184182227Y-88527906D01*
X184225731Y-88561035D01*
X184236079Y-88571231D01*
X184287854Y-88638316D01*
X184327746Y-88718442D01*
X184352148Y-88804652D01*
X184360260Y-88859616D01*
X184366865Y-88953069D01*
X184364778Y-89042850D01*
X184354532Y-89125339D01*
X184336662Y-89196922D01*
X184311700Y-89253980D01*
X184280180Y-89292897D01*
X184278204Y-89294272D01*
X184252978Y-89301360D01*
X184205727Y-89305599D01*
X184136263Y-89307008D01*
X184074030Y-89306148D01*
X184026648Y-89301428D01*
X183994545Y-89289738D01*
X183974992Y-89267969D01*
X183965262Y-89233010D01*
X183962625Y-89181752D01*
X183964353Y-89111085D01*
X183967365Y-89062465D01*
X183975558Y-89012269D01*
X183989611Y-88979775D01*
X184010846Y-88962316D01*
X184040586Y-88957225D01*
X184045128Y-88957331D01*
X184079922Y-88966033D01*
X184103339Y-88990043D01*
X184116539Y-89031308D01*
X184120681Y-89091777D01*
X184120681Y-89160252D01*
X184159033Y-89160252D01*
X184168168Y-89160202D01*
X184185419Y-89157981D01*
X184195713Y-89148714D01*
X184202651Y-89127333D01*
X184209833Y-89088772D01*
X184210767Y-89083298D01*
X184220670Y-88986348D01*
X184217751Y-88896356D01*
X184203021Y-88815448D01*
X184177491Y-88745749D01*
X184142170Y-88689384D01*
X184098071Y-88648479D01*
X184046204Y-88625157D01*
X183987580Y-88621545D01*
X183958686Y-88627063D01*
X183902796Y-88653747D01*
X183857137Y-88699935D01*
X183822300Y-88764917D01*
X183798882Y-88847979D01*
X183794433Y-88872653D01*
X183783934Y-88961982D01*
X183785163Y-89041789D01*
X183798098Y-89119882D01*
X183804888Y-89155025D01*
X183805905Y-89200463D01*
X183793374Y-89231778D01*
X183766587Y-89251931D01*
X183738340Y-89258315D01*
X183707116Y-89248829D01*
X183693691Y-89239500D01*
X183670159Y-89205265D01*
X183652287Y-89152643D01*
X183640791Y-89084127D01*
X183636384Y-89002208D01*
X183640371Y-88905058D01*
X183656686Y-88799051D01*
X183684737Y-88705239D01*
X183723644Y-88626443D01*
X183772526Y-88565489D01*
X183805387Y-88539419D01*
X183854586Y-88509911D01*
X183908444Y-88484640D01*
X183959611Y-88466990D01*
X184000736Y-88460350D01*
X184020451Y-88461910D01*
G36*
X184020451Y-88461910D02*
G01*
X184071784Y-88474851D01*
X184128310Y-88498014D01*
X184182227Y-88527906D01*
X184225731Y-88561035D01*
X184236079Y-88571231D01*
X184287854Y-88638316D01*
X184327746Y-88718442D01*
X184352148Y-88804652D01*
X184360260Y-88859616D01*
X184366865Y-88953069D01*
X184364778Y-89042850D01*
X184354532Y-89125339D01*
X184336662Y-89196922D01*
X184311700Y-89253980D01*
X184280180Y-89292897D01*
X184278204Y-89294272D01*
X184252978Y-89301360D01*
X184205727Y-89305599D01*
X184136263Y-89307008D01*
X184074030Y-89306148D01*
X184026648Y-89301428D01*
X183994545Y-89289738D01*
X183974992Y-89267969D01*
X183965262Y-89233010D01*
X183962625Y-89181752D01*
X183964353Y-89111085D01*
X183967365Y-89062465D01*
X183975558Y-89012269D01*
X183989611Y-88979775D01*
X184010846Y-88962316D01*
X184040586Y-88957225D01*
X184045128Y-88957331D01*
X184079922Y-88966033D01*
X184103339Y-88990043D01*
X184116539Y-89031308D01*
X184120681Y-89091777D01*
X184120681Y-89160252D01*
X184159033Y-89160252D01*
X184168168Y-89160202D01*
X184185419Y-89157981D01*
X184195713Y-89148714D01*
X184202651Y-89127333D01*
X184209833Y-89088772D01*
X184210767Y-89083298D01*
X184220670Y-88986348D01*
X184217751Y-88896356D01*
X184203021Y-88815448D01*
X184177491Y-88745749D01*
X184142170Y-88689384D01*
X184098071Y-88648479D01*
X184046204Y-88625157D01*
X183987580Y-88621545D01*
X183958686Y-88627063D01*
X183902796Y-88653747D01*
X183857137Y-88699935D01*
X183822300Y-88764917D01*
X183798882Y-88847979D01*
X183794433Y-88872653D01*
X183783934Y-88961982D01*
X183785163Y-89041789D01*
X183798098Y-89119882D01*
X183804888Y-89155025D01*
X183805905Y-89200463D01*
X183793374Y-89231778D01*
X183766587Y-89251931D01*
X183738340Y-89258315D01*
X183707116Y-89248829D01*
X183693691Y-89239500D01*
X183670159Y-89205265D01*
X183652287Y-89152643D01*
X183640791Y-89084127D01*
X183636384Y-89002208D01*
X183640371Y-88905058D01*
X183656686Y-88799051D01*
X183684737Y-88705239D01*
X183723644Y-88626443D01*
X183772526Y-88565489D01*
X183805387Y-88539419D01*
X183854586Y-88509911D01*
X183908444Y-88484640D01*
X183959611Y-88466990D01*
X184000736Y-88460350D01*
X184020451Y-88461910D01*
G37*
X184073103Y-90831037D02*
X184151420Y-90831269D01*
X184211688Y-90831889D01*
X184256585Y-90833082D01*
X184288794Y-90835029D01*
X184310992Y-90837914D01*
X184325861Y-90841920D01*
X184336081Y-90847229D01*
X184344330Y-90854025D01*
X184348987Y-90858540D01*
X184355474Y-90866770D01*
X184360386Y-90878130D01*
X184363941Y-90895398D01*
X184366359Y-90921353D01*
X184367859Y-90958772D01*
X184368659Y-91010435D01*
X184368979Y-91079119D01*
X184369037Y-91167602D01*
X184369030Y-91187277D01*
X184368764Y-91274302D01*
X184367998Y-91341954D01*
X184366584Y-91392909D01*
X184364372Y-91429841D01*
X184361214Y-91455425D01*
X184356961Y-91472337D01*
X184351463Y-91483251D01*
X184341477Y-91493744D01*
X184310360Y-91507005D01*
X184274472Y-91505822D01*
X184242925Y-91489658D01*
X184240649Y-91487469D01*
X184234381Y-91478781D01*
X184229715Y-91465439D01*
X184226419Y-91444456D01*
X184224260Y-91412845D01*
X184223006Y-91367618D01*
X184222423Y-91305788D01*
X184222281Y-91224369D01*
X184222281Y-90977763D01*
X184064237Y-90977763D01*
X184064237Y-91140202D01*
X184064156Y-91175870D01*
X184063359Y-91231640D01*
X184061354Y-91270778D01*
X184057713Y-91297232D01*
X184052004Y-91314949D01*
X184043799Y-91327879D01*
X184040615Y-91331522D01*
X184009640Y-91349930D01*
X183973304Y-91350564D01*
X183939685Y-91333025D01*
X183939616Y-91332963D01*
X183930990Y-91323292D01*
X183924934Y-91309999D01*
X183921003Y-91289291D01*
X183918748Y-91257380D01*
X183917723Y-91210474D01*
X183917481Y-91144784D01*
X183917481Y-90976637D01*
X183852570Y-90980022D01*
X183787659Y-90983408D01*
X183784606Y-91225485D01*
X183784278Y-91250501D01*
X183782798Y-91332121D01*
X183780414Y-91394440D01*
X183776419Y-91440054D01*
X183770105Y-91471556D01*
X183760766Y-91491541D01*
X183747695Y-91502604D01*
X183730184Y-91507339D01*
X183707527Y-91508341D01*
X183705162Y-91508335D01*
X183685131Y-91507181D01*
X183669338Y-91502384D01*
X183657282Y-91491576D01*
X183648459Y-91472391D01*
X183642367Y-91442463D01*
X183638503Y-91399425D01*
X183636366Y-91340909D01*
X183635452Y-91264551D01*
X183635259Y-91167982D01*
X183635259Y-90877802D01*
X183665003Y-90854405D01*
X183671687Y-90849456D01*
X183682258Y-90843612D01*
X183696345Y-90839151D01*
X183716670Y-90835887D01*
X183745957Y-90833634D01*
X183786929Y-90832206D01*
X183842309Y-90831416D01*
X183914820Y-90831079D01*
X184007186Y-90831008D01*
X184073103Y-90831037D01*
G36*
X184073103Y-90831037D02*
G01*
X184151420Y-90831269D01*
X184211688Y-90831889D01*
X184256585Y-90833082D01*
X184288794Y-90835029D01*
X184310992Y-90837914D01*
X184325861Y-90841920D01*
X184336081Y-90847229D01*
X184344330Y-90854025D01*
X184348987Y-90858540D01*
X184355474Y-90866770D01*
X184360386Y-90878130D01*
X184363941Y-90895398D01*
X184366359Y-90921353D01*
X184367859Y-90958772D01*
X184368659Y-91010435D01*
X184368979Y-91079119D01*
X184369037Y-91167602D01*
X184369030Y-91187277D01*
X184368764Y-91274302D01*
X184367998Y-91341954D01*
X184366584Y-91392909D01*
X184364372Y-91429841D01*
X184361214Y-91455425D01*
X184356961Y-91472337D01*
X184351463Y-91483251D01*
X184341477Y-91493744D01*
X184310360Y-91507005D01*
X184274472Y-91505822D01*
X184242925Y-91489658D01*
X184240649Y-91487469D01*
X184234381Y-91478781D01*
X184229715Y-91465439D01*
X184226419Y-91444456D01*
X184224260Y-91412845D01*
X184223006Y-91367618D01*
X184222423Y-91305788D01*
X184222281Y-91224369D01*
X184222281Y-90977763D01*
X184064237Y-90977763D01*
X184064237Y-91140202D01*
X184064156Y-91175870D01*
X184063359Y-91231640D01*
X184061354Y-91270778D01*
X184057713Y-91297232D01*
X184052004Y-91314949D01*
X184043799Y-91327879D01*
X184040615Y-91331522D01*
X184009640Y-91349930D01*
X183973304Y-91350564D01*
X183939685Y-91333025D01*
X183939616Y-91332963D01*
X183930990Y-91323292D01*
X183924934Y-91309999D01*
X183921003Y-91289291D01*
X183918748Y-91257380D01*
X183917723Y-91210474D01*
X183917481Y-91144784D01*
X183917481Y-90976637D01*
X183852570Y-90980022D01*
X183787659Y-90983408D01*
X183784606Y-91225485D01*
X183784278Y-91250501D01*
X183782798Y-91332121D01*
X183780414Y-91394440D01*
X183776419Y-91440054D01*
X183770105Y-91471556D01*
X183760766Y-91491541D01*
X183747695Y-91502604D01*
X183730184Y-91507339D01*
X183707527Y-91508341D01*
X183705162Y-91508335D01*
X183685131Y-91507181D01*
X183669338Y-91502384D01*
X183657282Y-91491576D01*
X183648459Y-91472391D01*
X183642367Y-91442463D01*
X183638503Y-91399425D01*
X183636366Y-91340909D01*
X183635452Y-91264551D01*
X183635259Y-91167982D01*
X183635259Y-90877802D01*
X183665003Y-90854405D01*
X183671687Y-90849456D01*
X183682258Y-90843612D01*
X183696345Y-90839151D01*
X183716670Y-90835887D01*
X183745957Y-90833634D01*
X183786929Y-90832206D01*
X183842309Y-90831416D01*
X183914820Y-90831079D01*
X184007186Y-90831008D01*
X184073103Y-90831037D01*
G37*
X184076905Y-85886511D02*
X184155081Y-85886760D01*
X184215295Y-85887396D01*
X184260174Y-85888593D01*
X184292344Y-85890524D01*
X184314431Y-85893362D01*
X184329062Y-85897281D01*
X184338862Y-85902453D01*
X184346459Y-85909052D01*
X184349636Y-85912386D01*
X184355746Y-85920908D01*
X184360421Y-85932910D01*
X184363851Y-85951121D01*
X184366228Y-85978268D01*
X184367744Y-86017079D01*
X184368590Y-86070284D01*
X184368957Y-86140610D01*
X184369037Y-86230786D01*
X184369025Y-86272894D01*
X184368843Y-86354041D01*
X184368290Y-86416533D01*
X184367174Y-86463099D01*
X184365305Y-86496467D01*
X184362490Y-86519364D01*
X184358538Y-86534520D01*
X184353258Y-86544662D01*
X184346459Y-86552519D01*
X184324859Y-86567245D01*
X184295659Y-86575097D01*
X184271752Y-86569598D01*
X184244859Y-86552519D01*
X184240251Y-86547540D01*
X184233964Y-86537765D01*
X184229338Y-86523649D01*
X184226122Y-86502154D01*
X184224062Y-86470240D01*
X184222904Y-86424866D01*
X184222394Y-86362995D01*
X184222281Y-86281586D01*
X184222281Y-86033230D01*
X184064237Y-86033230D01*
X184064237Y-86194407D01*
X184064091Y-86230225D01*
X184062368Y-86295849D01*
X184057933Y-86343090D01*
X184049829Y-86374825D01*
X184037098Y-86393931D01*
X184018784Y-86403285D01*
X183993930Y-86405763D01*
X183973674Y-86404966D01*
X183951848Y-86399714D01*
X183936496Y-86386920D01*
X183926501Y-86363580D01*
X183920745Y-86326691D01*
X183918111Y-86273249D01*
X183917481Y-86200250D01*
X183917481Y-86032103D01*
X183852570Y-86035489D01*
X183787659Y-86038874D01*
X183784610Y-86286591D01*
X183783731Y-86349182D01*
X183782287Y-86417643D01*
X183780356Y-86468547D01*
X183777706Y-86504800D01*
X183774102Y-86529307D01*
X183769313Y-86544973D01*
X183763105Y-86554702D01*
X183756702Y-86560717D01*
X183725020Y-86573726D01*
X183689334Y-86570165D01*
X183658276Y-86550390D01*
X183655353Y-86547139D01*
X183649002Y-86538159D01*
X183644149Y-86526055D01*
X183640595Y-86508049D01*
X183638138Y-86481361D01*
X183636577Y-86443211D01*
X183635710Y-86390822D01*
X183635338Y-86321414D01*
X183635259Y-86232207D01*
X183635275Y-86177474D01*
X183635467Y-86100377D01*
X183636052Y-86041431D01*
X183637243Y-85997844D01*
X183639256Y-85966825D01*
X183642304Y-85945583D01*
X183646601Y-85931326D01*
X183652364Y-85921263D01*
X183659804Y-85912602D01*
X183661485Y-85910817D01*
X183669024Y-85903573D01*
X183678042Y-85897931D01*
X183691176Y-85893691D01*
X183711064Y-85890652D01*
X183740343Y-85888614D01*
X183781650Y-85887378D01*
X183837623Y-85886743D01*
X183910899Y-85886508D01*
X184004115Y-85886474D01*
X184076905Y-85886511D01*
G36*
X184076905Y-85886511D02*
G01*
X184155081Y-85886760D01*
X184215295Y-85887396D01*
X184260174Y-85888593D01*
X184292344Y-85890524D01*
X184314431Y-85893362D01*
X184329062Y-85897281D01*
X184338862Y-85902453D01*
X184346459Y-85909052D01*
X184349636Y-85912386D01*
X184355746Y-85920908D01*
X184360421Y-85932910D01*
X184363851Y-85951121D01*
X184366228Y-85978268D01*
X184367744Y-86017079D01*
X184368590Y-86070284D01*
X184368957Y-86140610D01*
X184369037Y-86230786D01*
X184369025Y-86272894D01*
X184368843Y-86354041D01*
X184368290Y-86416533D01*
X184367174Y-86463099D01*
X184365305Y-86496467D01*
X184362490Y-86519364D01*
X184358538Y-86534520D01*
X184353258Y-86544662D01*
X184346459Y-86552519D01*
X184324859Y-86567245D01*
X184295659Y-86575097D01*
X184271752Y-86569598D01*
X184244859Y-86552519D01*
X184240251Y-86547540D01*
X184233964Y-86537765D01*
X184229338Y-86523649D01*
X184226122Y-86502154D01*
X184224062Y-86470240D01*
X184222904Y-86424866D01*
X184222394Y-86362995D01*
X184222281Y-86281586D01*
X184222281Y-86033230D01*
X184064237Y-86033230D01*
X184064237Y-86194407D01*
X184064091Y-86230225D01*
X184062368Y-86295849D01*
X184057933Y-86343090D01*
X184049829Y-86374825D01*
X184037098Y-86393931D01*
X184018784Y-86403285D01*
X183993930Y-86405763D01*
X183973674Y-86404966D01*
X183951848Y-86399714D01*
X183936496Y-86386920D01*
X183926501Y-86363580D01*
X183920745Y-86326691D01*
X183918111Y-86273249D01*
X183917481Y-86200250D01*
X183917481Y-86032103D01*
X183852570Y-86035489D01*
X183787659Y-86038874D01*
X183784610Y-86286591D01*
X183783731Y-86349182D01*
X183782287Y-86417643D01*
X183780356Y-86468547D01*
X183777706Y-86504800D01*
X183774102Y-86529307D01*
X183769313Y-86544973D01*
X183763105Y-86554702D01*
X183756702Y-86560717D01*
X183725020Y-86573726D01*
X183689334Y-86570165D01*
X183658276Y-86550390D01*
X183655353Y-86547139D01*
X183649002Y-86538159D01*
X183644149Y-86526055D01*
X183640595Y-86508049D01*
X183638138Y-86481361D01*
X183636577Y-86443211D01*
X183635710Y-86390822D01*
X183635338Y-86321414D01*
X183635259Y-86232207D01*
X183635275Y-86177474D01*
X183635467Y-86100377D01*
X183636052Y-86041431D01*
X183637243Y-85997844D01*
X183639256Y-85966825D01*
X183642304Y-85945583D01*
X183646601Y-85931326D01*
X183652364Y-85921263D01*
X183659804Y-85912602D01*
X183661485Y-85910817D01*
X183669024Y-85903573D01*
X183678042Y-85897931D01*
X183691176Y-85893691D01*
X183711064Y-85890652D01*
X183740343Y-85888614D01*
X183781650Y-85887378D01*
X183837623Y-85886743D01*
X183910899Y-85886508D01*
X184004115Y-85886474D01*
X184076905Y-85886511D01*
G37*
X183718107Y-93738980D02*
X183752673Y-93751844D01*
X183801018Y-93771603D01*
X183860017Y-93796827D01*
X183926547Y-93826089D01*
X183997483Y-93857958D01*
X184069699Y-93891007D01*
X184140072Y-93923807D01*
X184205477Y-93954928D01*
X184262789Y-93982943D01*
X184308884Y-94006422D01*
X184340638Y-94023936D01*
X184354925Y-94034057D01*
X184368294Y-94068465D01*
X184361933Y-94110162D01*
X184357236Y-94115527D01*
X184335085Y-94131356D01*
X184298324Y-94153558D01*
X184250607Y-94179975D01*
X184195585Y-94208448D01*
X184036342Y-94288222D01*
X184182934Y-94361409D01*
X184202224Y-94371105D01*
X184254572Y-94398083D01*
X184299362Y-94422112D01*
X184332346Y-94440876D01*
X184349281Y-94452062D01*
X184350524Y-94453208D01*
X184365811Y-94481329D01*
X184367494Y-94516391D01*
X184354925Y-94547432D01*
X184352076Y-94549858D01*
X184331451Y-94562118D01*
X184293900Y-94581856D01*
X184242072Y-94607760D01*
X184178615Y-94638523D01*
X184106177Y-94672833D01*
X184027408Y-94709383D01*
X183983285Y-94729623D01*
X183902557Y-94766396D01*
X183838879Y-94794853D01*
X183789944Y-94815877D01*
X183753449Y-94830354D01*
X183727087Y-94839169D01*
X183708553Y-94843204D01*
X183695544Y-94843346D01*
X183685753Y-94840478D01*
X183664870Y-94825821D01*
X183644569Y-94799218D01*
X183644227Y-94798463D01*
X183637226Y-94778873D01*
X183636696Y-94761418D01*
X183644670Y-94744506D01*
X183663181Y-94726545D01*
X183694263Y-94705945D01*
X183739948Y-94681113D01*
X183802270Y-94650458D01*
X183883263Y-94612388D01*
X183914646Y-94597754D01*
X183977830Y-94568005D01*
X184032436Y-94541911D01*
X184075482Y-94520916D01*
X184103985Y-94506469D01*
X184114962Y-94500017D01*
X184114381Y-94498658D01*
X184100434Y-94488666D01*
X184070896Y-94471375D01*
X184029279Y-94448778D01*
X183979095Y-94422870D01*
X183947606Y-94406897D01*
X183892253Y-94377947D01*
X183853236Y-94355459D01*
X183827758Y-94337243D01*
X183813023Y-94321112D01*
X183806234Y-94304878D01*
X183804592Y-94286351D01*
X183805067Y-94275848D01*
X183809274Y-94259732D01*
X183820138Y-94244418D01*
X183840411Y-94227820D01*
X183872846Y-94207851D01*
X183920196Y-94182425D01*
X183985214Y-94149456D01*
X184004469Y-94139723D01*
X184051138Y-94115265D01*
X184087301Y-94095030D01*
X184109689Y-94080897D01*
X184115037Y-94074748D01*
X184111765Y-94073381D01*
X184090856Y-94064006D01*
X184053917Y-94047146D01*
X184004066Y-94024229D01*
X183944418Y-93996688D01*
X183878090Y-93965953D01*
X183820869Y-93939238D01*
X183758880Y-93909615D01*
X183713141Y-93886544D01*
X183681100Y-93868565D01*
X183660206Y-93854218D01*
X183647910Y-93842042D01*
X183641658Y-93830576D01*
X183638766Y-93821166D01*
X183638617Y-93796061D01*
X183653960Y-93768918D01*
X183654945Y-93767618D01*
X183677580Y-93745534D01*
X183699805Y-93734485D01*
X183700445Y-93734439D01*
X183718107Y-93738980D01*
G36*
X183718107Y-93738980D02*
G01*
X183752673Y-93751844D01*
X183801018Y-93771603D01*
X183860017Y-93796827D01*
X183926547Y-93826089D01*
X183997483Y-93857958D01*
X184069699Y-93891007D01*
X184140072Y-93923807D01*
X184205477Y-93954928D01*
X184262789Y-93982943D01*
X184308884Y-94006422D01*
X184340638Y-94023936D01*
X184354925Y-94034057D01*
X184368294Y-94068465D01*
X184361933Y-94110162D01*
X184357236Y-94115527D01*
X184335085Y-94131356D01*
X184298324Y-94153558D01*
X184250607Y-94179975D01*
X184195585Y-94208448D01*
X184036342Y-94288222D01*
X184182934Y-94361409D01*
X184202224Y-94371105D01*
X184254572Y-94398083D01*
X184299362Y-94422112D01*
X184332346Y-94440876D01*
X184349281Y-94452062D01*
X184350524Y-94453208D01*
X184365811Y-94481329D01*
X184367494Y-94516391D01*
X184354925Y-94547432D01*
X184352076Y-94549858D01*
X184331451Y-94562118D01*
X184293900Y-94581856D01*
X184242072Y-94607760D01*
X184178615Y-94638523D01*
X184106177Y-94672833D01*
X184027408Y-94709383D01*
X183983285Y-94729623D01*
X183902557Y-94766396D01*
X183838879Y-94794853D01*
X183789944Y-94815877D01*
X183753449Y-94830354D01*
X183727087Y-94839169D01*
X183708553Y-94843204D01*
X183695544Y-94843346D01*
X183685753Y-94840478D01*
X183664870Y-94825821D01*
X183644569Y-94799218D01*
X183644227Y-94798463D01*
X183637226Y-94778873D01*
X183636696Y-94761418D01*
X183644670Y-94744506D01*
X183663181Y-94726545D01*
X183694263Y-94705945D01*
X183739948Y-94681113D01*
X183802270Y-94650458D01*
X183883263Y-94612388D01*
X183914646Y-94597754D01*
X183977830Y-94568005D01*
X184032436Y-94541911D01*
X184075482Y-94520916D01*
X184103985Y-94506469D01*
X184114962Y-94500017D01*
X184114381Y-94498658D01*
X184100434Y-94488666D01*
X184070896Y-94471375D01*
X184029279Y-94448778D01*
X183979095Y-94422870D01*
X183947606Y-94406897D01*
X183892253Y-94377947D01*
X183853236Y-94355459D01*
X183827758Y-94337243D01*
X183813023Y-94321112D01*
X183806234Y-94304878D01*
X183804592Y-94286351D01*
X183805067Y-94275848D01*
X183809274Y-94259732D01*
X183820138Y-94244418D01*
X183840411Y-94227820D01*
X183872846Y-94207851D01*
X183920196Y-94182425D01*
X183985214Y-94149456D01*
X184004469Y-94139723D01*
X184051138Y-94115265D01*
X184087301Y-94095030D01*
X184109689Y-94080897D01*
X184115037Y-94074748D01*
X184111765Y-94073381D01*
X184090856Y-94064006D01*
X184053917Y-94047146D01*
X184004066Y-94024229D01*
X183944418Y-93996688D01*
X183878090Y-93965953D01*
X183820869Y-93939238D01*
X183758880Y-93909615D01*
X183713141Y-93886544D01*
X183681100Y-93868565D01*
X183660206Y-93854218D01*
X183647910Y-93842042D01*
X183641658Y-93830576D01*
X183638766Y-93821166D01*
X183638617Y-93796061D01*
X183653960Y-93768918D01*
X183654945Y-93767618D01*
X183677580Y-93745534D01*
X183699805Y-93734485D01*
X183700445Y-93734439D01*
X183718107Y-93738980D01*
G37*
X183886424Y-86858256D02*
X183911221Y-86864048D01*
X183932891Y-86878855D01*
X183960241Y-86906828D01*
X183967570Y-86914806D01*
X183988473Y-86938516D01*
X184005443Y-86960910D01*
X184019397Y-86984943D01*
X184031248Y-87013571D01*
X184041912Y-87049748D01*
X184052303Y-87096428D01*
X184063338Y-87156567D01*
X184075930Y-87233118D01*
X184090996Y-87329037D01*
X184094030Y-87347400D01*
X184107650Y-87409730D01*
X184123384Y-87454948D01*
X184140455Y-87481232D01*
X184158089Y-87486761D01*
X184162360Y-87484140D01*
X184177425Y-87466208D01*
X184194059Y-87438082D01*
X184200049Y-87425282D01*
X184207242Y-87403984D01*
X184212019Y-87377598D01*
X184214838Y-87341754D01*
X184216156Y-87292080D01*
X184216429Y-87224208D01*
X184216356Y-87206423D01*
X184215245Y-87138802D01*
X184213020Y-87073863D01*
X184209954Y-87018238D01*
X184206319Y-86978557D01*
X184202251Y-86943046D01*
X184201468Y-86913793D01*
X184206068Y-86894893D01*
X184216743Y-86879779D01*
X184220336Y-86876123D01*
X184252110Y-86859781D01*
X184287764Y-86861101D01*
X184318382Y-86880058D01*
X184329988Y-86900428D01*
X184342683Y-86936412D01*
X184352733Y-86978836D01*
X184353332Y-86982286D01*
X184358548Y-87024956D01*
X184362922Y-87082342D01*
X184366010Y-87147359D01*
X184367369Y-87212919D01*
X184367410Y-87229151D01*
X184364933Y-87327464D01*
X184356927Y-87407516D01*
X184342395Y-87472695D01*
X184320341Y-87526391D01*
X184289768Y-87571992D01*
X184249678Y-87612885D01*
X184223451Y-87633006D01*
X184193904Y-87644632D01*
X184154187Y-87647541D01*
X184142218Y-87647400D01*
X184109537Y-87643527D01*
X184083011Y-87631143D01*
X184052163Y-87605978D01*
X184030023Y-87584766D01*
X184007477Y-87558370D01*
X183989109Y-87528653D01*
X183973853Y-87492423D01*
X183960641Y-87446491D01*
X183948406Y-87387664D01*
X183936081Y-87312752D01*
X183922598Y-87218563D01*
X183915588Y-87173251D01*
X183901029Y-87105297D01*
X183884529Y-87056161D01*
X183866631Y-87026594D01*
X183847877Y-87017344D01*
X183828807Y-87029160D01*
X183809963Y-87062792D01*
X183808749Y-87065838D01*
X183796671Y-87112197D01*
X183788471Y-87174847D01*
X183784311Y-87248281D01*
X183784353Y-87326991D01*
X183788761Y-87405469D01*
X183797697Y-87478208D01*
X183798346Y-87482135D01*
X183806053Y-87530951D01*
X183809665Y-87563203D01*
X183809068Y-87584200D01*
X183804146Y-87599254D01*
X183794788Y-87613674D01*
X183793917Y-87614844D01*
X183763543Y-87639361D01*
X183728042Y-87644154D01*
X183693461Y-87628348D01*
X183689005Y-87623802D01*
X183673865Y-87594188D01*
X183660742Y-87547206D01*
X183649942Y-87486902D01*
X183641773Y-87417320D01*
X183636543Y-87342505D01*
X183634559Y-87266502D01*
X183636128Y-87193355D01*
X183641558Y-87127108D01*
X183651156Y-87071808D01*
X183666017Y-87020925D01*
X183699150Y-86949613D01*
X183741832Y-86898456D01*
X183793897Y-86867633D01*
X183855175Y-86857319D01*
X183886424Y-86858256D01*
G36*
X183886424Y-86858256D02*
G01*
X183911221Y-86864048D01*
X183932891Y-86878855D01*
X183960241Y-86906828D01*
X183967570Y-86914806D01*
X183988473Y-86938516D01*
X184005443Y-86960910D01*
X184019397Y-86984943D01*
X184031248Y-87013571D01*
X184041912Y-87049748D01*
X184052303Y-87096428D01*
X184063338Y-87156567D01*
X184075930Y-87233118D01*
X184090996Y-87329037D01*
X184094030Y-87347400D01*
X184107650Y-87409730D01*
X184123384Y-87454948D01*
X184140455Y-87481232D01*
X184158089Y-87486761D01*
X184162360Y-87484140D01*
X184177425Y-87466208D01*
X184194059Y-87438082D01*
X184200049Y-87425282D01*
X184207242Y-87403984D01*
X184212019Y-87377598D01*
X184214838Y-87341754D01*
X184216156Y-87292080D01*
X184216429Y-87224208D01*
X184216356Y-87206423D01*
X184215245Y-87138802D01*
X184213020Y-87073863D01*
X184209954Y-87018238D01*
X184206319Y-86978557D01*
X184202251Y-86943046D01*
X184201468Y-86913793D01*
X184206068Y-86894893D01*
X184216743Y-86879779D01*
X184220336Y-86876123D01*
X184252110Y-86859781D01*
X184287764Y-86861101D01*
X184318382Y-86880058D01*
X184329988Y-86900428D01*
X184342683Y-86936412D01*
X184352733Y-86978836D01*
X184353332Y-86982286D01*
X184358548Y-87024956D01*
X184362922Y-87082342D01*
X184366010Y-87147359D01*
X184367369Y-87212919D01*
X184367410Y-87229151D01*
X184364933Y-87327464D01*
X184356927Y-87407516D01*
X184342395Y-87472695D01*
X184320341Y-87526391D01*
X184289768Y-87571992D01*
X184249678Y-87612885D01*
X184223451Y-87633006D01*
X184193904Y-87644632D01*
X184154187Y-87647541D01*
X184142218Y-87647400D01*
X184109537Y-87643527D01*
X184083011Y-87631143D01*
X184052163Y-87605978D01*
X184030023Y-87584766D01*
X184007477Y-87558370D01*
X183989109Y-87528653D01*
X183973853Y-87492423D01*
X183960641Y-87446491D01*
X183948406Y-87387664D01*
X183936081Y-87312752D01*
X183922598Y-87218563D01*
X183915588Y-87173251D01*
X183901029Y-87105297D01*
X183884529Y-87056161D01*
X183866631Y-87026594D01*
X183847877Y-87017344D01*
X183828807Y-87029160D01*
X183809963Y-87062792D01*
X183808749Y-87065838D01*
X183796671Y-87112197D01*
X183788471Y-87174847D01*
X183784311Y-87248281D01*
X183784353Y-87326991D01*
X183788761Y-87405469D01*
X183797697Y-87478208D01*
X183798346Y-87482135D01*
X183806053Y-87530951D01*
X183809665Y-87563203D01*
X183809068Y-87584200D01*
X183804146Y-87599254D01*
X183794788Y-87613674D01*
X183793917Y-87614844D01*
X183763543Y-87639361D01*
X183728042Y-87644154D01*
X183693461Y-87628348D01*
X183689005Y-87623802D01*
X183673865Y-87594188D01*
X183660742Y-87547206D01*
X183649942Y-87486902D01*
X183641773Y-87417320D01*
X183636543Y-87342505D01*
X183634559Y-87266502D01*
X183636128Y-87193355D01*
X183641558Y-87127108D01*
X183651156Y-87071808D01*
X183666017Y-87020925D01*
X183699150Y-86949613D01*
X183741832Y-86898456D01*
X183793897Y-86867633D01*
X183855175Y-86857319D01*
X183886424Y-86858256D01*
G37*
X180559643Y-89425701D02*
X180806912Y-89455256D01*
X181038383Y-89505513D01*
X181255699Y-89576923D01*
X181460502Y-89669934D01*
X181654433Y-89784996D01*
X181802594Y-89893078D01*
X181969300Y-90042316D01*
X182112089Y-90204979D01*
X182230914Y-90380995D01*
X182325729Y-90570293D01*
X182396487Y-90772803D01*
X182443142Y-90988452D01*
X182443505Y-90990913D01*
X182447149Y-91032442D01*
X182449852Y-91095112D01*
X182451487Y-91173127D01*
X182451930Y-91260692D01*
X182451052Y-91352013D01*
X182449767Y-91416016D01*
X182446790Y-91510977D01*
X182442528Y-91587072D01*
X182436526Y-91649788D01*
X182428329Y-91704615D01*
X182417482Y-91757040D01*
X182403465Y-91816023D01*
X182387503Y-91877560D01*
X182370758Y-91933214D01*
X182351268Y-91988037D01*
X182327073Y-92047078D01*
X182296210Y-92115389D01*
X182256719Y-92198022D01*
X182206639Y-92300027D01*
X182067215Y-92582148D01*
X181696067Y-92356187D01*
X181647490Y-92326604D01*
X181560289Y-92273457D01*
X181482331Y-92225886D01*
X181416458Y-92185632D01*
X181365516Y-92154432D01*
X181332347Y-92134024D01*
X181319795Y-92126148D01*
X181320170Y-92123958D01*
X181332454Y-92106312D01*
X181357947Y-92075311D01*
X181392694Y-92035853D01*
X181452729Y-91965580D01*
X181541506Y-91840129D01*
X181603394Y-91718411D01*
X181634300Y-91630455D01*
X181665885Y-91481683D01*
X181671484Y-91335511D01*
X181651477Y-91194057D01*
X181606246Y-91059442D01*
X181536173Y-90933786D01*
X181441639Y-90819207D01*
X181372011Y-90755451D01*
X181243224Y-90665633D01*
X181093773Y-90591933D01*
X180922892Y-90533999D01*
X180729817Y-90491479D01*
X180717831Y-90489549D01*
X180640143Y-90480637D01*
X180543617Y-90474003D01*
X180434849Y-90469700D01*
X180320434Y-90467781D01*
X180206968Y-90468302D01*
X180101046Y-90471315D01*
X180009263Y-90476874D01*
X179938217Y-90485033D01*
X179777280Y-90516306D01*
X179589286Y-90568926D01*
X179424700Y-90635105D01*
X179283649Y-90714753D01*
X179166260Y-90807783D01*
X179072663Y-90914106D01*
X179002982Y-91033633D01*
X178957347Y-91166276D01*
X178951683Y-91195705D01*
X178944288Y-91269456D01*
X178941874Y-91355644D01*
X178944308Y-91444616D01*
X178951460Y-91526714D01*
X178963195Y-91592283D01*
X179000561Y-91701514D01*
X179068778Y-91828273D01*
X179158550Y-91941142D01*
X179177461Y-91961063D01*
X179210918Y-91997160D01*
X179233438Y-92022671D01*
X179240928Y-92033036D01*
X179237346Y-92035587D01*
X179214723Y-92051294D01*
X179173647Y-92079668D01*
X179116836Y-92118836D01*
X179047012Y-92166922D01*
X178966893Y-92222052D01*
X178879201Y-92282351D01*
X178520402Y-92528986D01*
X178503895Y-92473889D01*
X178502024Y-92468140D01*
X178487166Y-92430715D01*
X178463208Y-92376756D01*
X178433031Y-92312598D01*
X178399517Y-92244571D01*
X178384700Y-92214928D01*
X178308201Y-92050324D01*
X178249045Y-91898610D01*
X178205718Y-91753952D01*
X178176707Y-91610514D01*
X178160499Y-91462462D01*
X178155580Y-91303959D01*
X178158078Y-91193653D01*
X178175015Y-91009152D01*
X178209174Y-90837751D01*
X178261991Y-90673073D01*
X178334905Y-90508744D01*
X178428001Y-90346076D01*
X178554914Y-90171501D01*
X178701650Y-90009612D01*
X178864576Y-89863972D01*
X179040059Y-89738148D01*
X179224468Y-89635703D01*
X179244196Y-89626404D01*
X179434613Y-89548527D01*
X179632477Y-89489352D01*
X179841570Y-89448113D01*
X180065670Y-89424048D01*
X180308559Y-89416389D01*
X180559643Y-89425701D01*
G36*
X180559643Y-89425701D02*
G01*
X180806912Y-89455256D01*
X181038383Y-89505513D01*
X181255699Y-89576923D01*
X181460502Y-89669934D01*
X181654433Y-89784996D01*
X181802594Y-89893078D01*
X181969300Y-90042316D01*
X182112089Y-90204979D01*
X182230914Y-90380995D01*
X182325729Y-90570293D01*
X182396487Y-90772803D01*
X182443142Y-90988452D01*
X182443505Y-90990913D01*
X182447149Y-91032442D01*
X182449852Y-91095112D01*
X182451487Y-91173127D01*
X182451930Y-91260692D01*
X182451052Y-91352013D01*
X182449767Y-91416016D01*
X182446790Y-91510977D01*
X182442528Y-91587072D01*
X182436526Y-91649788D01*
X182428329Y-91704615D01*
X182417482Y-91757040D01*
X182403465Y-91816023D01*
X182387503Y-91877560D01*
X182370758Y-91933214D01*
X182351268Y-91988037D01*
X182327073Y-92047078D01*
X182296210Y-92115389D01*
X182256719Y-92198022D01*
X182206639Y-92300027D01*
X182067215Y-92582148D01*
X181696067Y-92356187D01*
X181647490Y-92326604D01*
X181560289Y-92273457D01*
X181482331Y-92225886D01*
X181416458Y-92185632D01*
X181365516Y-92154432D01*
X181332347Y-92134024D01*
X181319795Y-92126148D01*
X181320170Y-92123958D01*
X181332454Y-92106312D01*
X181357947Y-92075311D01*
X181392694Y-92035853D01*
X181452729Y-91965580D01*
X181541506Y-91840129D01*
X181603394Y-91718411D01*
X181634300Y-91630455D01*
X181665885Y-91481683D01*
X181671484Y-91335511D01*
X181651477Y-91194057D01*
X181606246Y-91059442D01*
X181536173Y-90933786D01*
X181441639Y-90819207D01*
X181372011Y-90755451D01*
X181243224Y-90665633D01*
X181093773Y-90591933D01*
X180922892Y-90533999D01*
X180729817Y-90491479D01*
X180717831Y-90489549D01*
X180640143Y-90480637D01*
X180543617Y-90474003D01*
X180434849Y-90469700D01*
X180320434Y-90467781D01*
X180206968Y-90468302D01*
X180101046Y-90471315D01*
X180009263Y-90476874D01*
X179938217Y-90485033D01*
X179777280Y-90516306D01*
X179589286Y-90568926D01*
X179424700Y-90635105D01*
X179283649Y-90714753D01*
X179166260Y-90807783D01*
X179072663Y-90914106D01*
X179002982Y-91033633D01*
X178957347Y-91166276D01*
X178951683Y-91195705D01*
X178944288Y-91269456D01*
X178941874Y-91355644D01*
X178944308Y-91444616D01*
X178951460Y-91526714D01*
X178963195Y-91592283D01*
X179000561Y-91701514D01*
X179068778Y-91828273D01*
X179158550Y-91941142D01*
X179177461Y-91961063D01*
X179210918Y-91997160D01*
X179233438Y-92022671D01*
X179240928Y-92033036D01*
X179237346Y-92035587D01*
X179214723Y-92051294D01*
X179173647Y-92079668D01*
X179116836Y-92118836D01*
X179047012Y-92166922D01*
X178966893Y-92222052D01*
X178879201Y-92282351D01*
X178520402Y-92528986D01*
X178503895Y-92473889D01*
X178502024Y-92468140D01*
X178487166Y-92430715D01*
X178463208Y-92376756D01*
X178433031Y-92312598D01*
X178399517Y-92244571D01*
X178384700Y-92214928D01*
X178308201Y-92050324D01*
X178249045Y-91898610D01*
X178205718Y-91753952D01*
X178176707Y-91610514D01*
X178160499Y-91462462D01*
X178155580Y-91303959D01*
X178158078Y-91193653D01*
X178175015Y-91009152D01*
X178209174Y-90837751D01*
X178261991Y-90673073D01*
X178334905Y-90508744D01*
X178428001Y-90346076D01*
X178554914Y-90171501D01*
X178701650Y-90009612D01*
X178864576Y-89863972D01*
X179040059Y-89738148D01*
X179224468Y-89635703D01*
X179244196Y-89626404D01*
X179434613Y-89548527D01*
X179632477Y-89489352D01*
X179841570Y-89448113D01*
X180065670Y-89424048D01*
X180308559Y-89416389D01*
X180559643Y-89425701D01*
G37*
X181146057Y-95681658D02*
X181258109Y-95689988D01*
X181361252Y-95704380D01*
X181461581Y-95725479D01*
X181565190Y-95753930D01*
X181689033Y-95797072D01*
X181856216Y-95876310D01*
X182005961Y-95973507D01*
X182136852Y-96087175D01*
X182247474Y-96215828D01*
X182336412Y-96357979D01*
X182402250Y-96512141D01*
X182443574Y-96676826D01*
X182443906Y-96678808D01*
X182455486Y-96799163D01*
X182453941Y-96931401D01*
X182440222Y-97066096D01*
X182415283Y-97193816D01*
X182380077Y-97305134D01*
X182358653Y-97352649D01*
X182326090Y-97414531D01*
X182288846Y-97478120D01*
X182251021Y-97536779D01*
X182216714Y-97583874D01*
X182190024Y-97612770D01*
X182182696Y-97619403D01*
X182180135Y-97627311D01*
X182192851Y-97632597D01*
X182224899Y-97636492D01*
X182280331Y-97640229D01*
X182395838Y-97647094D01*
X182399434Y-98172931D01*
X182403031Y-98698768D01*
X182340946Y-98662384D01*
X182337276Y-98660215D01*
X182320044Y-98649635D01*
X182304693Y-98640037D01*
X182289889Y-98631369D01*
X182274299Y-98623580D01*
X182256589Y-98616618D01*
X182235424Y-98610431D01*
X182209473Y-98604969D01*
X182177400Y-98600178D01*
X182137872Y-98596008D01*
X182089557Y-98592406D01*
X182031119Y-98589322D01*
X181961226Y-98586703D01*
X181878544Y-98584498D01*
X181781739Y-98582656D01*
X181669477Y-98581124D01*
X181540425Y-98579851D01*
X181393250Y-98578785D01*
X181226618Y-98577875D01*
X181039194Y-98577069D01*
X180829646Y-98576315D01*
X180596640Y-98575562D01*
X180338842Y-98574758D01*
X180054919Y-98573851D01*
X177961135Y-98566986D01*
X177957545Y-98021229D01*
X177957304Y-97981541D01*
X177956825Y-97864770D01*
X177956727Y-97757965D01*
X177956992Y-97664042D01*
X177957599Y-97585916D01*
X177958528Y-97526502D01*
X177959759Y-97488716D01*
X177961272Y-97475473D01*
X177966069Y-97477167D01*
X177988810Y-97489806D01*
X178021881Y-97510740D01*
X178025043Y-97512828D01*
X178050577Y-97529058D01*
X178075421Y-97542667D01*
X178102134Y-97553884D01*
X178133274Y-97562941D01*
X178171402Y-97570069D01*
X178219075Y-97575497D01*
X178278853Y-97579457D01*
X178353295Y-97582180D01*
X178444960Y-97583895D01*
X178556408Y-97584835D01*
X178690196Y-97585230D01*
X178848885Y-97585311D01*
X178972781Y-97585167D01*
X179094419Y-97584726D01*
X179204711Y-97584021D01*
X179300973Y-97583083D01*
X179380519Y-97581943D01*
X179440663Y-97580635D01*
X179478718Y-97579190D01*
X179492000Y-97577641D01*
X179489939Y-97572642D01*
X179475422Y-97550669D01*
X179451581Y-97519289D01*
X179419519Y-97473796D01*
X179372279Y-97388322D01*
X179330140Y-97290628D01*
X179297370Y-97189834D01*
X179296235Y-97184081D01*
X179980795Y-97184081D01*
X179990324Y-97290025D01*
X180020572Y-97397621D01*
X180071718Y-97502932D01*
X180116982Y-97578446D01*
X181544205Y-97578446D01*
X181589233Y-97509797D01*
X181605453Y-97483397D01*
X181637857Y-97422948D01*
X181663661Y-97365635D01*
X181672398Y-97340535D01*
X181689841Y-97260669D01*
X181698748Y-97159689D01*
X181700601Y-97108341D01*
X181700179Y-97060677D01*
X181695419Y-97025196D01*
X181685014Y-96993371D01*
X181667659Y-96956677D01*
X181621169Y-96886158D01*
X181555406Y-96825065D01*
X181470658Y-96776163D01*
X181365597Y-96738985D01*
X181238895Y-96713068D01*
X181089222Y-96697944D01*
X180915252Y-96693150D01*
X180875700Y-96693383D01*
X180692444Y-96700275D01*
X180532985Y-96717012D01*
X180395643Y-96743999D01*
X180278734Y-96781645D01*
X180180577Y-96830356D01*
X180099488Y-96890539D01*
X180074740Y-96915507D01*
X180023181Y-96992887D01*
X179991807Y-97083724D01*
X179980795Y-97184081D01*
X179296235Y-97184081D01*
X179280660Y-97105148D01*
X179270009Y-96999677D01*
X179266318Y-96885529D01*
X179269594Y-96771511D01*
X179279840Y-96666433D01*
X179297060Y-96579104D01*
X179326068Y-96490183D01*
X179396389Y-96341842D01*
X179489877Y-96204490D01*
X179604377Y-96080659D01*
X179737739Y-95972885D01*
X179887808Y-95883701D01*
X179933826Y-95861560D01*
X180089048Y-95799513D01*
X180257513Y-95751004D01*
X180442192Y-95715420D01*
X180646053Y-95692147D01*
X180872067Y-95680573D01*
X180915252Y-95680035D01*
X181019001Y-95678745D01*
X181146057Y-95681658D01*
G36*
X181146057Y-95681658D02*
G01*
X181258109Y-95689988D01*
X181361252Y-95704380D01*
X181461581Y-95725479D01*
X181565190Y-95753930D01*
X181689033Y-95797072D01*
X181856216Y-95876310D01*
X182005961Y-95973507D01*
X182136852Y-96087175D01*
X182247474Y-96215828D01*
X182336412Y-96357979D01*
X182402250Y-96512141D01*
X182443574Y-96676826D01*
X182443906Y-96678808D01*
X182455486Y-96799163D01*
X182453941Y-96931401D01*
X182440222Y-97066096D01*
X182415283Y-97193816D01*
X182380077Y-97305134D01*
X182358653Y-97352649D01*
X182326090Y-97414531D01*
X182288846Y-97478120D01*
X182251021Y-97536779D01*
X182216714Y-97583874D01*
X182190024Y-97612770D01*
X182182696Y-97619403D01*
X182180135Y-97627311D01*
X182192851Y-97632597D01*
X182224899Y-97636492D01*
X182280331Y-97640229D01*
X182395838Y-97647094D01*
X182399434Y-98172931D01*
X182403031Y-98698768D01*
X182340946Y-98662384D01*
X182337276Y-98660215D01*
X182320044Y-98649635D01*
X182304693Y-98640037D01*
X182289889Y-98631369D01*
X182274299Y-98623580D01*
X182256589Y-98616618D01*
X182235424Y-98610431D01*
X182209473Y-98604969D01*
X182177400Y-98600178D01*
X182137872Y-98596008D01*
X182089557Y-98592406D01*
X182031119Y-98589322D01*
X181961226Y-98586703D01*
X181878544Y-98584498D01*
X181781739Y-98582656D01*
X181669477Y-98581124D01*
X181540425Y-98579851D01*
X181393250Y-98578785D01*
X181226618Y-98577875D01*
X181039194Y-98577069D01*
X180829646Y-98576315D01*
X180596640Y-98575562D01*
X180338842Y-98574758D01*
X180054919Y-98573851D01*
X177961135Y-98566986D01*
X177957545Y-98021229D01*
X177957304Y-97981541D01*
X177956825Y-97864770D01*
X177956727Y-97757965D01*
X177956992Y-97664042D01*
X177957599Y-97585916D01*
X177958528Y-97526502D01*
X177959759Y-97488716D01*
X177961272Y-97475473D01*
X177966069Y-97477167D01*
X177988810Y-97489806D01*
X178021881Y-97510740D01*
X178025043Y-97512828D01*
X178050577Y-97529058D01*
X178075421Y-97542667D01*
X178102134Y-97553884D01*
X178133274Y-97562941D01*
X178171402Y-97570069D01*
X178219075Y-97575497D01*
X178278853Y-97579457D01*
X178353295Y-97582180D01*
X178444960Y-97583895D01*
X178556408Y-97584835D01*
X178690196Y-97585230D01*
X178848885Y-97585311D01*
X178972781Y-97585167D01*
X179094419Y-97584726D01*
X179204711Y-97584021D01*
X179300973Y-97583083D01*
X179380519Y-97581943D01*
X179440663Y-97580635D01*
X179478718Y-97579190D01*
X179492000Y-97577641D01*
X179489939Y-97572642D01*
X179475422Y-97550669D01*
X179451581Y-97519289D01*
X179419519Y-97473796D01*
X179372279Y-97388322D01*
X179330140Y-97290628D01*
X179297370Y-97189834D01*
X179296235Y-97184081D01*
X179980795Y-97184081D01*
X179990324Y-97290025D01*
X180020572Y-97397621D01*
X180071718Y-97502932D01*
X180116982Y-97578446D01*
X181544205Y-97578446D01*
X181589233Y-97509797D01*
X181605453Y-97483397D01*
X181637857Y-97422948D01*
X181663661Y-97365635D01*
X181672398Y-97340535D01*
X181689841Y-97260669D01*
X181698748Y-97159689D01*
X181700601Y-97108341D01*
X181700179Y-97060677D01*
X181695419Y-97025196D01*
X181685014Y-96993371D01*
X181667659Y-96956677D01*
X181621169Y-96886158D01*
X181555406Y-96825065D01*
X181470658Y-96776163D01*
X181365597Y-96738985D01*
X181238895Y-96713068D01*
X181089222Y-96697944D01*
X180915252Y-96693150D01*
X180875700Y-96693383D01*
X180692444Y-96700275D01*
X180532985Y-96717012D01*
X180395643Y-96743999D01*
X180278734Y-96781645D01*
X180180577Y-96830356D01*
X180099488Y-96890539D01*
X180074740Y-96915507D01*
X180023181Y-96992887D01*
X179991807Y-97083724D01*
X179980795Y-97184081D01*
X179296235Y-97184081D01*
X179280660Y-97105148D01*
X179270009Y-96999677D01*
X179266318Y-96885529D01*
X179269594Y-96771511D01*
X179279840Y-96666433D01*
X179297060Y-96579104D01*
X179326068Y-96490183D01*
X179396389Y-96341842D01*
X179489877Y-96204490D01*
X179604377Y-96080659D01*
X179737739Y-95972885D01*
X179887808Y-95883701D01*
X179933826Y-95861560D01*
X180089048Y-95799513D01*
X180257513Y-95751004D01*
X180442192Y-95715420D01*
X180646053Y-95692147D01*
X180872067Y-95680573D01*
X180915252Y-95680035D01*
X181019001Y-95678745D01*
X181146057Y-95681658D01*
G37*
X181561736Y-92581538D02*
X181664739Y-92594865D01*
X181750541Y-92614974D01*
X181838818Y-92647060D01*
X181984299Y-92721437D01*
X182112295Y-92816506D01*
X182221933Y-92931282D01*
X182312342Y-93064781D01*
X182382648Y-93216020D01*
X182431981Y-93384013D01*
X182443108Y-93452517D01*
X182450841Y-93550407D01*
X182452580Y-93657016D01*
X182448465Y-93763435D01*
X182438637Y-93860755D01*
X182423236Y-93940067D01*
X182411110Y-93979921D01*
X182375626Y-94070437D01*
X182330575Y-94162448D01*
X182280843Y-94246462D01*
X182231316Y-94312985D01*
X182230601Y-94313803D01*
X182199692Y-94350257D01*
X182177683Y-94378304D01*
X182169298Y-94391931D01*
X182171300Y-94393421D01*
X182192926Y-94396792D01*
X182233260Y-94399135D01*
X182286000Y-94400013D01*
X182402703Y-94400013D01*
X182402703Y-94914878D01*
X182402701Y-94928584D01*
X182402500Y-95043535D01*
X182401999Y-95149036D01*
X182401237Y-95242086D01*
X182400249Y-95319683D01*
X182399074Y-95378826D01*
X182397749Y-95416514D01*
X182396311Y-95429743D01*
X182395054Y-95429435D01*
X182376501Y-95420780D01*
X182341645Y-95402637D01*
X182296770Y-95378256D01*
X182203622Y-95326770D01*
X181235676Y-95318824D01*
X181094695Y-95317643D01*
X180914893Y-95315991D01*
X180758799Y-95314257D01*
X180624205Y-95312300D01*
X180508905Y-95309981D01*
X180410689Y-95307160D01*
X180327352Y-95303696D01*
X180256685Y-95299450D01*
X180196480Y-95294280D01*
X180144531Y-95288048D01*
X180098630Y-95280613D01*
X180056569Y-95271834D01*
X180016141Y-95261573D01*
X179975137Y-95249687D01*
X179931352Y-95236039D01*
X179794085Y-95182270D01*
X179667222Y-95108635D01*
X179558608Y-95016934D01*
X179467674Y-94906325D01*
X179393853Y-94775970D01*
X179336575Y-94625029D01*
X179295273Y-94452663D01*
X179269378Y-94258031D01*
X179264229Y-94190005D01*
X179260464Y-94075438D01*
X179263854Y-93961884D01*
X179274972Y-93844027D01*
X179294388Y-93716550D01*
X179322674Y-93574137D01*
X179360403Y-93411473D01*
X179369532Y-93373873D01*
X179391996Y-93279451D01*
X179412679Y-93189957D01*
X179430361Y-93110819D01*
X179443820Y-93047464D01*
X179451833Y-93005320D01*
X179467803Y-92908086D01*
X179799118Y-93044784D01*
X179881840Y-93078977D01*
X179962896Y-93112615D01*
X180032101Y-93141477D01*
X180086068Y-93164145D01*
X180121412Y-93179203D01*
X180134746Y-93185233D01*
X180134937Y-93186181D01*
X180128984Y-93203656D01*
X180113728Y-93238017D01*
X180091883Y-93283066D01*
X180049343Y-93376698D01*
X180002830Y-93505542D01*
X179967210Y-93637414D01*
X179943378Y-93767156D01*
X179932227Y-93889611D01*
X179934654Y-93999623D01*
X179951552Y-94092035D01*
X179978364Y-94156531D01*
X180033310Y-94229780D01*
X180107852Y-94286167D01*
X180199695Y-94324079D01*
X180306547Y-94341901D01*
X180405027Y-94348177D01*
X180405674Y-94111689D01*
X181036982Y-94111689D01*
X181036983Y-94126696D01*
X181037827Y-94195811D01*
X181039866Y-94255180D01*
X181042833Y-94298900D01*
X181046461Y-94321067D01*
X181047639Y-94323618D01*
X181055035Y-94331865D01*
X181069899Y-94337706D01*
X181096227Y-94341545D01*
X181138018Y-94343787D01*
X181199270Y-94344835D01*
X181283981Y-94345094D01*
X181356640Y-94344711D01*
X181432985Y-94342856D01*
X181488168Y-94339221D01*
X181525782Y-94333542D01*
X181549421Y-94325554D01*
X181566301Y-94315278D01*
X181612317Y-94276582D01*
X181660221Y-94224735D01*
X181702904Y-94167908D01*
X181733253Y-94114275D01*
X181744389Y-94084518D01*
X181759216Y-94016001D01*
X181766796Y-93926512D01*
X181765648Y-93832162D01*
X181750056Y-93742566D01*
X181717846Y-93667782D01*
X181667567Y-93603079D01*
X181648970Y-93584878D01*
X181585546Y-93537489D01*
X181517184Y-93511848D01*
X181434925Y-93504148D01*
X181391467Y-93506234D01*
X181302005Y-93526865D01*
X181225219Y-93570205D01*
X181160243Y-93637043D01*
X181106215Y-93728169D01*
X181062270Y-93844372D01*
X181050738Y-93891219D01*
X181042842Y-93947932D01*
X181038457Y-94019305D01*
X181036982Y-94111689D01*
X180405674Y-94111689D01*
X180405924Y-94020555D01*
X180406851Y-93910068D01*
X180410141Y-93787862D01*
X180416351Y-93683465D01*
X180426084Y-93591476D01*
X180439943Y-93506496D01*
X180458533Y-93423123D01*
X180482458Y-93335959D01*
X180527996Y-93205540D01*
X180602988Y-93052140D01*
X180694847Y-92917512D01*
X180802280Y-92802984D01*
X180923995Y-92709884D01*
X181058701Y-92639539D01*
X181205105Y-92593277D01*
X181244536Y-92586032D01*
X181342133Y-92576744D01*
X181434925Y-92575574D01*
X181451034Y-92575372D01*
X181561736Y-92581538D01*
G36*
X181561736Y-92581538D02*
G01*
X181664739Y-92594865D01*
X181750541Y-92614974D01*
X181838818Y-92647060D01*
X181984299Y-92721437D01*
X182112295Y-92816506D01*
X182221933Y-92931282D01*
X182312342Y-93064781D01*
X182382648Y-93216020D01*
X182431981Y-93384013D01*
X182443108Y-93452517D01*
X182450841Y-93550407D01*
X182452580Y-93657016D01*
X182448465Y-93763435D01*
X182438637Y-93860755D01*
X182423236Y-93940067D01*
X182411110Y-93979921D01*
X182375626Y-94070437D01*
X182330575Y-94162448D01*
X182280843Y-94246462D01*
X182231316Y-94312985D01*
X182230601Y-94313803D01*
X182199692Y-94350257D01*
X182177683Y-94378304D01*
X182169298Y-94391931D01*
X182171300Y-94393421D01*
X182192926Y-94396792D01*
X182233260Y-94399135D01*
X182286000Y-94400013D01*
X182402703Y-94400013D01*
X182402703Y-94914878D01*
X182402701Y-94928584D01*
X182402500Y-95043535D01*
X182401999Y-95149036D01*
X182401237Y-95242086D01*
X182400249Y-95319683D01*
X182399074Y-95378826D01*
X182397749Y-95416514D01*
X182396311Y-95429743D01*
X182395054Y-95429435D01*
X182376501Y-95420780D01*
X182341645Y-95402637D01*
X182296770Y-95378256D01*
X182203622Y-95326770D01*
X181235676Y-95318824D01*
X181094695Y-95317643D01*
X180914893Y-95315991D01*
X180758799Y-95314257D01*
X180624205Y-95312300D01*
X180508905Y-95309981D01*
X180410689Y-95307160D01*
X180327352Y-95303696D01*
X180256685Y-95299450D01*
X180196480Y-95294280D01*
X180144531Y-95288048D01*
X180098630Y-95280613D01*
X180056569Y-95271834D01*
X180016141Y-95261573D01*
X179975137Y-95249687D01*
X179931352Y-95236039D01*
X179794085Y-95182270D01*
X179667222Y-95108635D01*
X179558608Y-95016934D01*
X179467674Y-94906325D01*
X179393853Y-94775970D01*
X179336575Y-94625029D01*
X179295273Y-94452663D01*
X179269378Y-94258031D01*
X179264229Y-94190005D01*
X179260464Y-94075438D01*
X179263854Y-93961884D01*
X179274972Y-93844027D01*
X179294388Y-93716550D01*
X179322674Y-93574137D01*
X179360403Y-93411473D01*
X179369532Y-93373873D01*
X179391996Y-93279451D01*
X179412679Y-93189957D01*
X179430361Y-93110819D01*
X179443820Y-93047464D01*
X179451833Y-93005320D01*
X179467803Y-92908086D01*
X179799118Y-93044784D01*
X179881840Y-93078977D01*
X179962896Y-93112615D01*
X180032101Y-93141477D01*
X180086068Y-93164145D01*
X180121412Y-93179203D01*
X180134746Y-93185233D01*
X180134937Y-93186181D01*
X180128984Y-93203656D01*
X180113728Y-93238017D01*
X180091883Y-93283066D01*
X180049343Y-93376698D01*
X180002830Y-93505542D01*
X179967210Y-93637414D01*
X179943378Y-93767156D01*
X179932227Y-93889611D01*
X179934654Y-93999623D01*
X179951552Y-94092035D01*
X179978364Y-94156531D01*
X180033310Y-94229780D01*
X180107852Y-94286167D01*
X180199695Y-94324079D01*
X180306547Y-94341901D01*
X180405027Y-94348177D01*
X180405674Y-94111689D01*
X181036982Y-94111689D01*
X181036983Y-94126696D01*
X181037827Y-94195811D01*
X181039866Y-94255180D01*
X181042833Y-94298900D01*
X181046461Y-94321067D01*
X181047639Y-94323618D01*
X181055035Y-94331865D01*
X181069899Y-94337706D01*
X181096227Y-94341545D01*
X181138018Y-94343787D01*
X181199270Y-94344835D01*
X181283981Y-94345094D01*
X181356640Y-94344711D01*
X181432985Y-94342856D01*
X181488168Y-94339221D01*
X181525782Y-94333542D01*
X181549421Y-94325554D01*
X181566301Y-94315278D01*
X181612317Y-94276582D01*
X181660221Y-94224735D01*
X181702904Y-94167908D01*
X181733253Y-94114275D01*
X181744389Y-94084518D01*
X181759216Y-94016001D01*
X181766796Y-93926512D01*
X181765648Y-93832162D01*
X181750056Y-93742566D01*
X181717846Y-93667782D01*
X181667567Y-93603079D01*
X181648970Y-93584878D01*
X181585546Y-93537489D01*
X181517184Y-93511848D01*
X181434925Y-93504148D01*
X181391467Y-93506234D01*
X181302005Y-93526865D01*
X181225219Y-93570205D01*
X181160243Y-93637043D01*
X181106215Y-93728169D01*
X181062270Y-93844372D01*
X181050738Y-93891219D01*
X181042842Y-93947932D01*
X181038457Y-94019305D01*
X181036982Y-94111689D01*
X180405674Y-94111689D01*
X180405924Y-94020555D01*
X180406851Y-93910068D01*
X180410141Y-93787862D01*
X180416351Y-93683465D01*
X180426084Y-93591476D01*
X180439943Y-93506496D01*
X180458533Y-93423123D01*
X180482458Y-93335959D01*
X180527996Y-93205540D01*
X180602988Y-93052140D01*
X180694847Y-92917512D01*
X180802280Y-92802984D01*
X180923995Y-92709884D01*
X181058701Y-92639539D01*
X181205105Y-92593277D01*
X181244536Y-92586032D01*
X181342133Y-92576744D01*
X181434925Y-92575574D01*
X181451034Y-92575372D01*
X181561736Y-92581538D01*
G37*
X181417560Y-83361233D02*
X181636410Y-83361350D01*
X181833691Y-83361595D01*
X182010539Y-83362002D01*
X182168090Y-83362607D01*
X182307479Y-83363446D01*
X182388973Y-83364185D01*
X182429840Y-83364555D01*
X182536310Y-83365968D01*
X182628024Y-83367723D01*
X182706117Y-83369854D01*
X182771724Y-83372398D01*
X182825981Y-83375389D01*
X182870023Y-83378865D01*
X182904985Y-83382860D01*
X182932003Y-83387411D01*
X182952212Y-83392553D01*
X182966747Y-83398321D01*
X182976744Y-83404752D01*
X182983338Y-83411881D01*
X182987665Y-83419745D01*
X182990859Y-83428378D01*
X182994056Y-83437816D01*
X182998391Y-83448096D01*
X183000563Y-83453880D01*
X183002936Y-83464490D01*
X183005110Y-83480255D01*
X183007093Y-83502290D01*
X183008896Y-83531710D01*
X183010525Y-83569631D01*
X183011991Y-83617168D01*
X183013301Y-83675436D01*
X183014465Y-83745550D01*
X183015491Y-83828626D01*
X183016388Y-83925779D01*
X183017165Y-84038124D01*
X183017830Y-84166775D01*
X183018392Y-84312850D01*
X183018860Y-84477462D01*
X183019242Y-84661727D01*
X183019548Y-84866760D01*
X183019785Y-85093676D01*
X183019963Y-85343591D01*
X183020091Y-85617619D01*
X183020176Y-85916877D01*
X183020228Y-86242479D01*
X183020238Y-86345661D01*
X183020245Y-86664197D01*
X183020205Y-86956713D01*
X183020110Y-87224312D01*
X183019953Y-87468096D01*
X183019725Y-87689168D01*
X183019419Y-87888628D01*
X183019025Y-88067579D01*
X183018538Y-88227124D01*
X183017947Y-88368364D01*
X183017247Y-88492401D01*
X183016427Y-88600337D01*
X183015481Y-88693274D01*
X183014400Y-88772315D01*
X183013177Y-88838561D01*
X183011803Y-88893115D01*
X183010271Y-88937078D01*
X183008572Y-88971553D01*
X183006698Y-88997641D01*
X183004642Y-89016444D01*
X183002396Y-89029065D01*
X182999950Y-89036606D01*
X182998862Y-89039005D01*
X182995287Y-89048827D01*
X182992676Y-89057834D01*
X182989893Y-89066063D01*
X182985800Y-89073550D01*
X182979260Y-89080332D01*
X182969137Y-89086445D01*
X182954293Y-89091925D01*
X182933591Y-89096810D01*
X182905895Y-89101136D01*
X182870068Y-89104939D01*
X182824973Y-89108256D01*
X182769472Y-89111124D01*
X182702429Y-89113578D01*
X182622707Y-89115656D01*
X182529170Y-89117393D01*
X182420679Y-89118827D01*
X182296098Y-89119994D01*
X182154290Y-89120930D01*
X181994119Y-89121672D01*
X181814447Y-89122257D01*
X181614137Y-89122721D01*
X181392052Y-89123100D01*
X181147056Y-89123431D01*
X180878012Y-89123751D01*
X180583782Y-89124096D01*
X180263230Y-89124502D01*
X180224424Y-89124555D01*
X179905903Y-89125008D01*
X179613572Y-89125441D01*
X179346293Y-89125823D01*
X179102929Y-89126120D01*
X178882342Y-89126302D01*
X178683395Y-89126335D01*
X178504950Y-89126189D01*
X178345871Y-89125830D01*
X178205019Y-89125226D01*
X178081257Y-89124346D01*
X177973447Y-89123158D01*
X177880453Y-89121629D01*
X177801137Y-89119728D01*
X177734360Y-89117422D01*
X177678987Y-89114679D01*
X177633879Y-89111468D01*
X177597899Y-89107755D01*
X177569909Y-89103510D01*
X177548772Y-89098699D01*
X177533351Y-89093292D01*
X177522508Y-89087255D01*
X177515106Y-89080557D01*
X177510007Y-89073165D01*
X177506073Y-89065049D01*
X177502168Y-89056175D01*
X177497154Y-89046511D01*
X177495556Y-89043683D01*
X177480089Y-89000896D01*
X177473732Y-88954057D01*
X177473734Y-88901256D01*
X177593867Y-88900376D01*
X177607692Y-88900153D01*
X177748215Y-88883371D01*
X177880435Y-88840627D01*
X178002952Y-88772517D01*
X178114363Y-88679632D01*
X178159803Y-88629788D01*
X178235120Y-88518805D01*
X178287643Y-88397712D01*
X178317342Y-88270035D01*
X178324190Y-88139303D01*
X178308159Y-88009040D01*
X178269221Y-87882775D01*
X178207348Y-87764034D01*
X178122511Y-87656343D01*
X178092602Y-87626406D01*
X178013406Y-87563127D01*
X179327244Y-87563127D01*
X179327244Y-88646289D01*
X182176162Y-88654121D01*
X182258168Y-88692519D01*
X182298815Y-88712764D01*
X182339532Y-88735687D01*
X182364574Y-88752999D01*
X182364622Y-88753042D01*
X182370440Y-88757245D01*
X182375251Y-88756848D01*
X182379150Y-88749565D01*
X182382232Y-88733111D01*
X182384594Y-88705199D01*
X182386330Y-88663543D01*
X182387536Y-88605858D01*
X182388308Y-88529858D01*
X182388741Y-88433256D01*
X182388931Y-88313766D01*
X182388973Y-88169104D01*
X182388973Y-87563127D01*
X182296298Y-87614354D01*
X182203622Y-87665581D01*
X179512595Y-87665581D01*
X179419919Y-87614354D01*
X179327244Y-87563127D01*
X178013406Y-87563127D01*
X177981862Y-87537923D01*
X177861684Y-87475136D01*
X177731291Y-87437711D01*
X177589910Y-87425311D01*
X177473730Y-87425311D01*
X177473730Y-85454412D01*
X177473725Y-85331280D01*
X177473689Y-85066757D01*
X177473663Y-84827798D01*
X177473699Y-84613082D01*
X177473849Y-84421287D01*
X177473917Y-84384586D01*
X178215135Y-84384586D01*
X178215135Y-85038778D01*
X178256110Y-85004300D01*
X178284253Y-84984318D01*
X178350608Y-84951057D01*
X178433135Y-84921909D01*
X178524679Y-84899662D01*
X178533369Y-84898244D01*
X178579183Y-84894026D01*
X178649989Y-84890831D01*
X178746275Y-84888651D01*
X178868532Y-84887479D01*
X179017251Y-84887305D01*
X179192922Y-84888122D01*
X179779412Y-84892175D01*
X179249859Y-85310932D01*
X179234690Y-85322926D01*
X179100255Y-85429119D01*
X178985124Y-85519779D01*
X178887339Y-85596349D01*
X178804943Y-85660273D01*
X178735978Y-85712993D01*
X178678486Y-85755951D01*
X178630510Y-85790591D01*
X178590093Y-85818355D01*
X178555276Y-85840686D01*
X178524103Y-85859028D01*
X178494615Y-85874822D01*
X178464855Y-85889512D01*
X178412177Y-85912110D01*
X178356606Y-85926709D01*
X178296666Y-85930592D01*
X178215135Y-85930202D01*
X178215135Y-87319593D01*
X178258599Y-87259181D01*
X178299448Y-87208090D01*
X178366076Y-87136097D01*
X178449580Y-87054440D01*
X178546778Y-86966210D01*
X178654487Y-86874500D01*
X178683290Y-86850883D01*
X178732692Y-86810673D01*
X178797505Y-86758113D01*
X178875566Y-86694944D01*
X178964711Y-86622908D01*
X179062778Y-86543746D01*
X179167604Y-86459198D01*
X179277024Y-86371007D01*
X179327244Y-86330556D01*
X179388876Y-86280914D01*
X179500997Y-86190660D01*
X179611224Y-86101985D01*
X179717392Y-86016632D01*
X179817340Y-85936342D01*
X179908903Y-85862856D01*
X179989919Y-85797915D01*
X180058224Y-85743260D01*
X180111655Y-85700634D01*
X180148048Y-85671776D01*
X180165242Y-85658429D01*
X180171703Y-85657327D01*
X180183992Y-85660992D01*
X180203325Y-85670487D01*
X180231074Y-85686762D01*
X180268610Y-85710764D01*
X180317304Y-85743440D01*
X180378529Y-85785739D01*
X180453654Y-85838609D01*
X180544052Y-85902997D01*
X180651094Y-85979852D01*
X180776152Y-86070120D01*
X180920596Y-86174751D01*
X181085798Y-86294691D01*
X181217297Y-86390258D01*
X181377605Y-86506852D01*
X181518387Y-86609412D01*
X181641204Y-86699131D01*
X181747619Y-86777200D01*
X181839195Y-86844812D01*
X181917494Y-86903162D01*
X181984079Y-86953440D01*
X182040511Y-86996839D01*
X182088354Y-87034554D01*
X182129169Y-87067775D01*
X182164520Y-87097697D01*
X182195968Y-87125511D01*
X182225076Y-87152410D01*
X182253406Y-87179587D01*
X182282522Y-87208235D01*
X182388973Y-87313808D01*
X182389031Y-85894446D01*
X182303019Y-85898905D01*
X182298697Y-85899121D01*
X182264313Y-85899968D01*
X182231368Y-85898363D01*
X182198058Y-85893234D01*
X182162578Y-85883507D01*
X182123125Y-85868109D01*
X182077893Y-85845966D01*
X182025077Y-85816005D01*
X181962874Y-85777152D01*
X181889477Y-85728334D01*
X181803084Y-85668478D01*
X181701890Y-85596510D01*
X181584088Y-85511357D01*
X181447876Y-85411946D01*
X181291449Y-85297202D01*
X180740041Y-84892175D01*
X181379382Y-84888607D01*
X181439020Y-84888291D01*
X181599657Y-84887733D01*
X181736289Y-84887987D01*
X181851502Y-84889350D01*
X181947883Y-84892123D01*
X182028016Y-84896602D01*
X182094487Y-84903087D01*
X182149883Y-84911877D01*
X182196788Y-84923270D01*
X182237788Y-84937565D01*
X182275469Y-84955060D01*
X182312417Y-84976053D01*
X182351217Y-85000845D01*
X182388973Y-85025766D01*
X182388973Y-83730616D01*
X182344352Y-83764071D01*
X182337293Y-83769310D01*
X182272594Y-83811198D01*
X182207190Y-83840073D01*
X182132248Y-83859034D01*
X182038933Y-83871179D01*
X182034865Y-83871513D01*
X181996375Y-83873275D01*
X181932156Y-83874867D01*
X181843676Y-83876280D01*
X181732403Y-83877508D01*
X181599803Y-83878544D01*
X181447345Y-83879382D01*
X181276496Y-83880014D01*
X181088722Y-83880433D01*
X180885493Y-83880632D01*
X180668274Y-83880605D01*
X180438535Y-83880345D01*
X180197741Y-83879845D01*
X179981748Y-83879315D01*
X179746635Y-83878748D01*
X179536279Y-83878189D01*
X179349206Y-83877570D01*
X179183942Y-83876819D01*
X179039013Y-83875866D01*
X178912947Y-83874642D01*
X178804268Y-83873077D01*
X178711504Y-83871099D01*
X178633180Y-83868640D01*
X178567822Y-83865629D01*
X178513958Y-83861996D01*
X178470113Y-83857671D01*
X178434813Y-83852584D01*
X178406585Y-83846665D01*
X178383955Y-83839843D01*
X178365449Y-83832049D01*
X178349594Y-83823212D01*
X178334915Y-83813263D01*
X178319940Y-83802131D01*
X178303193Y-83789746D01*
X178286412Y-83777768D01*
X178253231Y-83754615D01*
X178232298Y-83740747D01*
X178231421Y-83740412D01*
X178227462Y-83745254D01*
X178224159Y-83762343D01*
X178221461Y-83793579D01*
X178219317Y-83840865D01*
X178217676Y-83906102D01*
X178216489Y-83991190D01*
X178215703Y-84098033D01*
X178215269Y-84228531D01*
X178215135Y-84384586D01*
X177473917Y-84384586D01*
X177474166Y-84251093D01*
X177474702Y-84101177D01*
X177475508Y-83970218D01*
X177476638Y-83856895D01*
X177478144Y-83759886D01*
X177480077Y-83677871D01*
X177482491Y-83609526D01*
X177485436Y-83553532D01*
X177488966Y-83508567D01*
X177493133Y-83473309D01*
X177497989Y-83446437D01*
X177503586Y-83426629D01*
X177509976Y-83412565D01*
X177517212Y-83402922D01*
X177525346Y-83396379D01*
X177534431Y-83391615D01*
X177544518Y-83387308D01*
X177555659Y-83382137D01*
X177555841Y-83382045D01*
X177563134Y-83379534D01*
X177575347Y-83377232D01*
X177593605Y-83375128D01*
X177619037Y-83373214D01*
X177652769Y-83371482D01*
X177695928Y-83369922D01*
X177749641Y-83368527D01*
X177815035Y-83367287D01*
X177893238Y-83366193D01*
X177985376Y-83365237D01*
X178092576Y-83364410D01*
X178215966Y-83363703D01*
X178356671Y-83363107D01*
X178515820Y-83362615D01*
X178694540Y-83362216D01*
X178893957Y-83361903D01*
X179115198Y-83361667D01*
X179359390Y-83361498D01*
X179627661Y-83361388D01*
X179921137Y-83361328D01*
X180240946Y-83361311D01*
X180303773Y-83361310D01*
X180620249Y-83361280D01*
X180910615Y-83361233D01*
X181176007Y-83361205D01*
X181417560Y-83361233D01*
G36*
X181417560Y-83361233D02*
G01*
X181636410Y-83361350D01*
X181833691Y-83361595D01*
X182010539Y-83362002D01*
X182168090Y-83362607D01*
X182307479Y-83363446D01*
X182388973Y-83364185D01*
X182429840Y-83364555D01*
X182536310Y-83365968D01*
X182628024Y-83367723D01*
X182706117Y-83369854D01*
X182771724Y-83372398D01*
X182825981Y-83375389D01*
X182870023Y-83378865D01*
X182904985Y-83382860D01*
X182932003Y-83387411D01*
X182952212Y-83392553D01*
X182966747Y-83398321D01*
X182976744Y-83404752D01*
X182983338Y-83411881D01*
X182987665Y-83419745D01*
X182990859Y-83428378D01*
X182994056Y-83437816D01*
X182998391Y-83448096D01*
X183000563Y-83453880D01*
X183002936Y-83464490D01*
X183005110Y-83480255D01*
X183007093Y-83502290D01*
X183008896Y-83531710D01*
X183010525Y-83569631D01*
X183011991Y-83617168D01*
X183013301Y-83675436D01*
X183014465Y-83745550D01*
X183015491Y-83828626D01*
X183016388Y-83925779D01*
X183017165Y-84038124D01*
X183017830Y-84166775D01*
X183018392Y-84312850D01*
X183018860Y-84477462D01*
X183019242Y-84661727D01*
X183019548Y-84866760D01*
X183019785Y-85093676D01*
X183019963Y-85343591D01*
X183020091Y-85617619D01*
X183020176Y-85916877D01*
X183020228Y-86242479D01*
X183020238Y-86345661D01*
X183020245Y-86664197D01*
X183020205Y-86956713D01*
X183020110Y-87224312D01*
X183019953Y-87468096D01*
X183019725Y-87689168D01*
X183019419Y-87888628D01*
X183019025Y-88067579D01*
X183018538Y-88227124D01*
X183017947Y-88368364D01*
X183017247Y-88492401D01*
X183016427Y-88600337D01*
X183015481Y-88693274D01*
X183014400Y-88772315D01*
X183013177Y-88838561D01*
X183011803Y-88893115D01*
X183010271Y-88937078D01*
X183008572Y-88971553D01*
X183006698Y-88997641D01*
X183004642Y-89016444D01*
X183002396Y-89029065D01*
X182999950Y-89036606D01*
X182998862Y-89039005D01*
X182995287Y-89048827D01*
X182992676Y-89057834D01*
X182989893Y-89066063D01*
X182985800Y-89073550D01*
X182979260Y-89080332D01*
X182969137Y-89086445D01*
X182954293Y-89091925D01*
X182933591Y-89096810D01*
X182905895Y-89101136D01*
X182870068Y-89104939D01*
X182824973Y-89108256D01*
X182769472Y-89111124D01*
X182702429Y-89113578D01*
X182622707Y-89115656D01*
X182529170Y-89117393D01*
X182420679Y-89118827D01*
X182296098Y-89119994D01*
X182154290Y-89120930D01*
X181994119Y-89121672D01*
X181814447Y-89122257D01*
X181614137Y-89122721D01*
X181392052Y-89123100D01*
X181147056Y-89123431D01*
X180878012Y-89123751D01*
X180583782Y-89124096D01*
X180263230Y-89124502D01*
X180224424Y-89124555D01*
X179905903Y-89125008D01*
X179613572Y-89125441D01*
X179346293Y-89125823D01*
X179102929Y-89126120D01*
X178882342Y-89126302D01*
X178683395Y-89126335D01*
X178504950Y-89126189D01*
X178345871Y-89125830D01*
X178205019Y-89125226D01*
X178081257Y-89124346D01*
X177973447Y-89123158D01*
X177880453Y-89121629D01*
X177801137Y-89119728D01*
X177734360Y-89117422D01*
X177678987Y-89114679D01*
X177633879Y-89111468D01*
X177597899Y-89107755D01*
X177569909Y-89103510D01*
X177548772Y-89098699D01*
X177533351Y-89093292D01*
X177522508Y-89087255D01*
X177515106Y-89080557D01*
X177510007Y-89073165D01*
X177506073Y-89065049D01*
X177502168Y-89056175D01*
X177497154Y-89046511D01*
X177495556Y-89043683D01*
X177480089Y-89000896D01*
X177473732Y-88954057D01*
X177473734Y-88901256D01*
X177593867Y-88900376D01*
X177607692Y-88900153D01*
X177748215Y-88883371D01*
X177880435Y-88840627D01*
X178002952Y-88772517D01*
X178114363Y-88679632D01*
X178159803Y-88629788D01*
X178235120Y-88518805D01*
X178287643Y-88397712D01*
X178317342Y-88270035D01*
X178324190Y-88139303D01*
X178308159Y-88009040D01*
X178269221Y-87882775D01*
X178207348Y-87764034D01*
X178122511Y-87656343D01*
X178092602Y-87626406D01*
X178013406Y-87563127D01*
X179327244Y-87563127D01*
X179327244Y-88646289D01*
X182176162Y-88654121D01*
X182258168Y-88692519D01*
X182298815Y-88712764D01*
X182339532Y-88735687D01*
X182364574Y-88752999D01*
X182364622Y-88753042D01*
X182370440Y-88757245D01*
X182375251Y-88756848D01*
X182379150Y-88749565D01*
X182382232Y-88733111D01*
X182384594Y-88705199D01*
X182386330Y-88663543D01*
X182387536Y-88605858D01*
X182388308Y-88529858D01*
X182388741Y-88433256D01*
X182388931Y-88313766D01*
X182388973Y-88169104D01*
X182388973Y-87563127D01*
X182296298Y-87614354D01*
X182203622Y-87665581D01*
X179512595Y-87665581D01*
X179419919Y-87614354D01*
X179327244Y-87563127D01*
X178013406Y-87563127D01*
X177981862Y-87537923D01*
X177861684Y-87475136D01*
X177731291Y-87437711D01*
X177589910Y-87425311D01*
X177473730Y-87425311D01*
X177473730Y-85454412D01*
X177473725Y-85331280D01*
X177473689Y-85066757D01*
X177473663Y-84827798D01*
X177473699Y-84613082D01*
X177473849Y-84421287D01*
X177473917Y-84384586D01*
X178215135Y-84384586D01*
X178215135Y-85038778D01*
X178256110Y-85004300D01*
X178284253Y-84984318D01*
X178350608Y-84951057D01*
X178433135Y-84921909D01*
X178524679Y-84899662D01*
X178533369Y-84898244D01*
X178579183Y-84894026D01*
X178649989Y-84890831D01*
X178746275Y-84888651D01*
X178868532Y-84887479D01*
X179017251Y-84887305D01*
X179192922Y-84888122D01*
X179779412Y-84892175D01*
X179249859Y-85310932D01*
X179234690Y-85322926D01*
X179100255Y-85429119D01*
X178985124Y-85519779D01*
X178887339Y-85596349D01*
X178804943Y-85660273D01*
X178735978Y-85712993D01*
X178678486Y-85755951D01*
X178630510Y-85790591D01*
X178590093Y-85818355D01*
X178555276Y-85840686D01*
X178524103Y-85859028D01*
X178494615Y-85874822D01*
X178464855Y-85889512D01*
X178412177Y-85912110D01*
X178356606Y-85926709D01*
X178296666Y-85930592D01*
X178215135Y-85930202D01*
X178215135Y-87319593D01*
X178258599Y-87259181D01*
X178299448Y-87208090D01*
X178366076Y-87136097D01*
X178449580Y-87054440D01*
X178546778Y-86966210D01*
X178654487Y-86874500D01*
X178683290Y-86850883D01*
X178732692Y-86810673D01*
X178797505Y-86758113D01*
X178875566Y-86694944D01*
X178964711Y-86622908D01*
X179062778Y-86543746D01*
X179167604Y-86459198D01*
X179277024Y-86371007D01*
X179327244Y-86330556D01*
X179388876Y-86280914D01*
X179500997Y-86190660D01*
X179611224Y-86101985D01*
X179717392Y-86016632D01*
X179817340Y-85936342D01*
X179908903Y-85862856D01*
X179989919Y-85797915D01*
X180058224Y-85743260D01*
X180111655Y-85700634D01*
X180148048Y-85671776D01*
X180165242Y-85658429D01*
X180171703Y-85657327D01*
X180183992Y-85660992D01*
X180203325Y-85670487D01*
X180231074Y-85686762D01*
X180268610Y-85710764D01*
X180317304Y-85743440D01*
X180378529Y-85785739D01*
X180453654Y-85838609D01*
X180544052Y-85902997D01*
X180651094Y-85979852D01*
X180776152Y-86070120D01*
X180920596Y-86174751D01*
X181085798Y-86294691D01*
X181217297Y-86390258D01*
X181377605Y-86506852D01*
X181518387Y-86609412D01*
X181641204Y-86699131D01*
X181747619Y-86777200D01*
X181839195Y-86844812D01*
X181917494Y-86903162D01*
X181984079Y-86953440D01*
X182040511Y-86996839D01*
X182088354Y-87034554D01*
X182129169Y-87067775D01*
X182164520Y-87097697D01*
X182195968Y-87125511D01*
X182225076Y-87152410D01*
X182253406Y-87179587D01*
X182282522Y-87208235D01*
X182388973Y-87313808D01*
X182389031Y-85894446D01*
X182303019Y-85898905D01*
X182298697Y-85899121D01*
X182264313Y-85899968D01*
X182231368Y-85898363D01*
X182198058Y-85893234D01*
X182162578Y-85883507D01*
X182123125Y-85868109D01*
X182077893Y-85845966D01*
X182025077Y-85816005D01*
X181962874Y-85777152D01*
X181889477Y-85728334D01*
X181803084Y-85668478D01*
X181701890Y-85596510D01*
X181584088Y-85511357D01*
X181447876Y-85411946D01*
X181291449Y-85297202D01*
X180740041Y-84892175D01*
X181379382Y-84888607D01*
X181439020Y-84888291D01*
X181599657Y-84887733D01*
X181736289Y-84887987D01*
X181851502Y-84889350D01*
X181947883Y-84892123D01*
X182028016Y-84896602D01*
X182094487Y-84903087D01*
X182149883Y-84911877D01*
X182196788Y-84923270D01*
X182237788Y-84937565D01*
X182275469Y-84955060D01*
X182312417Y-84976053D01*
X182351217Y-85000845D01*
X182388973Y-85025766D01*
X182388973Y-83730616D01*
X182344352Y-83764071D01*
X182337293Y-83769310D01*
X182272594Y-83811198D01*
X182207190Y-83840073D01*
X182132248Y-83859034D01*
X182038933Y-83871179D01*
X182034865Y-83871513D01*
X181996375Y-83873275D01*
X181932156Y-83874867D01*
X181843676Y-83876280D01*
X181732403Y-83877508D01*
X181599803Y-83878544D01*
X181447345Y-83879382D01*
X181276496Y-83880014D01*
X181088722Y-83880433D01*
X180885493Y-83880632D01*
X180668274Y-83880605D01*
X180438535Y-83880345D01*
X180197741Y-83879845D01*
X179981748Y-83879315D01*
X179746635Y-83878748D01*
X179536279Y-83878189D01*
X179349206Y-83877570D01*
X179183942Y-83876819D01*
X179039013Y-83875866D01*
X178912947Y-83874642D01*
X178804268Y-83873077D01*
X178711504Y-83871099D01*
X178633180Y-83868640D01*
X178567822Y-83865629D01*
X178513958Y-83861996D01*
X178470113Y-83857671D01*
X178434813Y-83852584D01*
X178406585Y-83846665D01*
X178383955Y-83839843D01*
X178365449Y-83832049D01*
X178349594Y-83823212D01*
X178334915Y-83813263D01*
X178319940Y-83802131D01*
X178303193Y-83789746D01*
X178286412Y-83777768D01*
X178253231Y-83754615D01*
X178232298Y-83740747D01*
X178231421Y-83740412D01*
X178227462Y-83745254D01*
X178224159Y-83762343D01*
X178221461Y-83793579D01*
X178219317Y-83840865D01*
X178217676Y-83906102D01*
X178216489Y-83991190D01*
X178215703Y-84098033D01*
X178215269Y-84228531D01*
X178215135Y-84384586D01*
X177473917Y-84384586D01*
X177474166Y-84251093D01*
X177474702Y-84101177D01*
X177475508Y-83970218D01*
X177476638Y-83856895D01*
X177478144Y-83759886D01*
X177480077Y-83677871D01*
X177482491Y-83609526D01*
X177485436Y-83553532D01*
X177488966Y-83508567D01*
X177493133Y-83473309D01*
X177497989Y-83446437D01*
X177503586Y-83426629D01*
X177509976Y-83412565D01*
X177517212Y-83402922D01*
X177525346Y-83396379D01*
X177534431Y-83391615D01*
X177544518Y-83387308D01*
X177555659Y-83382137D01*
X177555841Y-83382045D01*
X177563134Y-83379534D01*
X177575347Y-83377232D01*
X177593605Y-83375128D01*
X177619037Y-83373214D01*
X177652769Y-83371482D01*
X177695928Y-83369922D01*
X177749641Y-83368527D01*
X177815035Y-83367287D01*
X177893238Y-83366193D01*
X177985376Y-83365237D01*
X178092576Y-83364410D01*
X178215966Y-83363703D01*
X178356671Y-83363107D01*
X178515820Y-83362615D01*
X178694540Y-83362216D01*
X178893957Y-83361903D01*
X179115198Y-83361667D01*
X179359390Y-83361498D01*
X179627661Y-83361388D01*
X179921137Y-83361328D01*
X180240946Y-83361311D01*
X180303773Y-83361310D01*
X180620249Y-83361280D01*
X180910615Y-83361233D01*
X181176007Y-83361205D01*
X181417560Y-83361233D01*
G37*
X148223684Y-106454716D02*
X148264650Y-106467505D01*
X148315099Y-106488761D01*
X148339526Y-106500184D01*
X148357155Y-106502249D01*
X148361053Y-106486416D01*
X148361057Y-106485968D01*
X148369312Y-106470851D01*
X148397781Y-106463103D01*
X148452961Y-106460921D01*
X148544869Y-106460921D01*
X148544869Y-107263026D01*
X148361053Y-107263026D01*
X148361053Y-106709983D01*
X148315358Y-106667634D01*
X148301082Y-106655598D01*
X148258558Y-106635034D01*
X148206192Y-106634210D01*
X148134889Y-106652356D01*
X148110852Y-106653505D01*
X148082656Y-106635902D01*
X148045126Y-106594062D01*
X148026921Y-106570919D01*
X148005391Y-106538242D01*
X148002073Y-106517442D01*
X148014128Y-106499895D01*
X148051135Y-106477706D01*
X148108612Y-106460145D01*
X148170972Y-106451438D01*
X148223684Y-106454716D01*
G36*
X148223684Y-106454716D02*
G01*
X148264650Y-106467505D01*
X148315099Y-106488761D01*
X148339526Y-106500184D01*
X148357155Y-106502249D01*
X148361053Y-106486416D01*
X148361057Y-106485968D01*
X148369312Y-106470851D01*
X148397781Y-106463103D01*
X148452961Y-106460921D01*
X148544869Y-106460921D01*
X148544869Y-107263026D01*
X148361053Y-107263026D01*
X148361053Y-106709983D01*
X148315358Y-106667634D01*
X148301082Y-106655598D01*
X148258558Y-106635034D01*
X148206192Y-106634210D01*
X148134889Y-106652356D01*
X148110852Y-106653505D01*
X148082656Y-106635902D01*
X148045126Y-106594062D01*
X148026921Y-106570919D01*
X148005391Y-106538242D01*
X148002073Y-106517442D01*
X148014128Y-106499895D01*
X148051135Y-106477706D01*
X148108612Y-106460145D01*
X148170972Y-106451438D01*
X148223684Y-106454716D01*
G37*
X148467063Y-107725216D02*
X148517550Y-107748844D01*
X148561579Y-107783478D01*
X148561579Y-107748844D01*
X148562676Y-107735694D01*
X148572885Y-107721752D01*
X148600493Y-107715594D01*
X148653487Y-107714210D01*
X148745395Y-107714210D01*
X148745395Y-108533026D01*
X148561579Y-108533026D01*
X148561579Y-108266444D01*
X148561557Y-108251140D01*
X148559989Y-108143560D01*
X148556141Y-108055927D01*
X148550287Y-107992724D01*
X148542701Y-107958429D01*
X148535736Y-107945482D01*
X148492860Y-107904878D01*
X148434458Y-107886904D01*
X148370686Y-107895289D01*
X148355044Y-107900972D01*
X148321721Y-107911017D01*
X148298947Y-107907898D01*
X148276031Y-107887479D01*
X148242283Y-107845627D01*
X148187547Y-107776517D01*
X148226020Y-107745364D01*
X148262592Y-107726612D01*
X148326833Y-107713947D01*
X148399240Y-107713533D01*
X148467063Y-107725216D01*
G36*
X148467063Y-107725216D02*
G01*
X148517550Y-107748844D01*
X148561579Y-107783478D01*
X148561579Y-107748844D01*
X148562676Y-107735694D01*
X148572885Y-107721752D01*
X148600493Y-107715594D01*
X148653487Y-107714210D01*
X148745395Y-107714210D01*
X148745395Y-108533026D01*
X148561579Y-108533026D01*
X148561579Y-108266444D01*
X148561557Y-108251140D01*
X148559989Y-108143560D01*
X148556141Y-108055927D01*
X148550287Y-107992724D01*
X148542701Y-107958429D01*
X148535736Y-107945482D01*
X148492860Y-107904878D01*
X148434458Y-107886904D01*
X148370686Y-107895289D01*
X148355044Y-107900972D01*
X148321721Y-107911017D01*
X148298947Y-107907898D01*
X148276031Y-107887479D01*
X148242283Y-107845627D01*
X148187547Y-107776517D01*
X148226020Y-107745364D01*
X148262592Y-107726612D01*
X148326833Y-107713947D01*
X148399240Y-107713533D01*
X148467063Y-107725216D01*
G37*
X151953816Y-108533026D02*
X151786711Y-108533026D01*
X151786711Y-108275101D01*
X151786526Y-108215105D01*
X151784626Y-108115737D01*
X151779816Y-108042173D01*
X151771052Y-107989327D01*
X151757290Y-107952114D01*
X151737487Y-107925449D01*
X151710600Y-107904246D01*
X151681248Y-107888447D01*
X151646491Y-107883967D01*
X151597058Y-107893929D01*
X151581173Y-107898076D01*
X151541520Y-107904318D01*
X151513167Y-107895375D01*
X151480306Y-107867695D01*
X151474070Y-107861675D01*
X151439594Y-107824437D01*
X151417361Y-107794160D01*
X151414311Y-107786866D01*
X151420354Y-107759932D01*
X151450998Y-107738398D01*
X151499363Y-107723286D01*
X151558566Y-107715614D01*
X151621728Y-107716404D01*
X151681967Y-107726675D01*
X151732402Y-107747448D01*
X151748388Y-107757148D01*
X151775302Y-107771345D01*
X151785264Y-107768094D01*
X151786711Y-107747386D01*
X151787050Y-107739951D01*
X151795112Y-107723482D01*
X151820119Y-107715986D01*
X151870264Y-107714210D01*
X151953816Y-107714210D01*
X151953816Y-108533026D01*
G36*
X151953816Y-108533026D02*
G01*
X151786711Y-108533026D01*
X151786711Y-108275101D01*
X151786526Y-108215105D01*
X151784626Y-108115737D01*
X151779816Y-108042173D01*
X151771052Y-107989327D01*
X151757290Y-107952114D01*
X151737487Y-107925449D01*
X151710600Y-107904246D01*
X151681248Y-107888447D01*
X151646491Y-107883967D01*
X151597058Y-107893929D01*
X151581173Y-107898076D01*
X151541520Y-107904318D01*
X151513167Y-107895375D01*
X151480306Y-107867695D01*
X151474070Y-107861675D01*
X151439594Y-107824437D01*
X151417361Y-107794160D01*
X151414311Y-107786866D01*
X151420354Y-107759932D01*
X151450998Y-107738398D01*
X151499363Y-107723286D01*
X151558566Y-107715614D01*
X151621728Y-107716404D01*
X151681967Y-107726675D01*
X151732402Y-107747448D01*
X151748388Y-107757148D01*
X151775302Y-107771345D01*
X151785264Y-107768094D01*
X151786711Y-107747386D01*
X151787050Y-107739951D01*
X151795112Y-107723482D01*
X151820119Y-107715986D01*
X151870264Y-107714210D01*
X151953816Y-107714210D01*
X151953816Y-108533026D01*
G37*
X148879079Y-106721033D02*
X148880489Y-106838050D01*
X148886007Y-106932558D01*
X148897185Y-107001251D01*
X148915572Y-107047978D01*
X148942717Y-107076589D01*
X148980168Y-107090932D01*
X149029474Y-107094858D01*
X149076552Y-107091354D01*
X149114574Y-107077639D01*
X149142210Y-107049855D01*
X149161009Y-107004151D01*
X149172519Y-106936679D01*
X149178290Y-106843589D01*
X149179869Y-106721033D01*
X149179869Y-106460921D01*
X149346974Y-106460921D01*
X149346974Y-106774504D01*
X149346688Y-106858205D01*
X149344459Y-106966443D01*
X149338869Y-107048989D01*
X149328561Y-107110568D01*
X149312183Y-107155905D01*
X149288379Y-107189726D01*
X149255796Y-107216757D01*
X149213079Y-107241721D01*
X149123377Y-107273325D01*
X149029761Y-107275387D01*
X148941496Y-107246283D01*
X148902986Y-107227417D01*
X148883880Y-107224597D01*
X148879079Y-107237928D01*
X148871109Y-107252896D01*
X148842578Y-107260781D01*
X148787172Y-107263026D01*
X148695264Y-107263026D01*
X148695264Y-106460921D01*
X148879079Y-106460921D01*
X148879079Y-106721033D01*
G36*
X148879079Y-106721033D02*
G01*
X148880489Y-106838050D01*
X148886007Y-106932558D01*
X148897185Y-107001251D01*
X148915572Y-107047978D01*
X148942717Y-107076589D01*
X148980168Y-107090932D01*
X149029474Y-107094858D01*
X149076552Y-107091354D01*
X149114574Y-107077639D01*
X149142210Y-107049855D01*
X149161009Y-107004151D01*
X149172519Y-106936679D01*
X149178290Y-106843589D01*
X149179869Y-106721033D01*
X149179869Y-106460921D01*
X149346974Y-106460921D01*
X149346974Y-106774504D01*
X149346688Y-106858205D01*
X149344459Y-106966443D01*
X149338869Y-107048989D01*
X149328561Y-107110568D01*
X149312183Y-107155905D01*
X149288379Y-107189726D01*
X149255796Y-107216757D01*
X149213079Y-107241721D01*
X149123377Y-107273325D01*
X149029761Y-107275387D01*
X148941496Y-107246283D01*
X148902986Y-107227417D01*
X148883880Y-107224597D01*
X148879079Y-107237928D01*
X148871109Y-107252896D01*
X148842578Y-107260781D01*
X148787172Y-107263026D01*
X148695264Y-107263026D01*
X148695264Y-106460921D01*
X148879079Y-106460921D01*
X148879079Y-106721033D01*
G37*
X151672937Y-106459340D02*
X151749112Y-106483273D01*
X151782699Y-106499540D01*
X151799592Y-106501220D01*
X151803422Y-106486416D01*
X151803425Y-106485968D01*
X151811680Y-106470851D01*
X151840149Y-106463103D01*
X151895329Y-106460921D01*
X151987237Y-106460921D01*
X151987237Y-107263026D01*
X151803422Y-107263026D01*
X151803422Y-106986543D01*
X151803296Y-106893180D01*
X151802436Y-106816488D01*
X151800137Y-106762822D01*
X151795690Y-106726712D01*
X151788390Y-106702691D01*
X151777530Y-106685291D01*
X151762405Y-106669043D01*
X151741801Y-106651761D01*
X151682555Y-106628542D01*
X151620366Y-106635357D01*
X151563398Y-106672081D01*
X151547115Y-106689173D01*
X151535426Y-106706471D01*
X151527586Y-106729490D01*
X151522827Y-106763771D01*
X151520379Y-106814853D01*
X151519473Y-106888277D01*
X151519343Y-106989581D01*
X151519343Y-107263026D01*
X151335527Y-107263026D01*
X151335894Y-106966414D01*
X151335919Y-106953202D01*
X151337513Y-106827035D01*
X151342408Y-106729028D01*
X151351864Y-106654415D01*
X151367139Y-106598431D01*
X151389490Y-106556309D01*
X151420175Y-106523284D01*
X151460454Y-106494590D01*
X151502043Y-106474726D01*
X151585800Y-106456678D01*
X151672937Y-106459340D01*
G36*
X151672937Y-106459340D02*
G01*
X151749112Y-106483273D01*
X151782699Y-106499540D01*
X151799592Y-106501220D01*
X151803422Y-106486416D01*
X151803425Y-106485968D01*
X151811680Y-106470851D01*
X151840149Y-106463103D01*
X151895329Y-106460921D01*
X151987237Y-106460921D01*
X151987237Y-107263026D01*
X151803422Y-107263026D01*
X151803422Y-106986543D01*
X151803296Y-106893180D01*
X151802436Y-106816488D01*
X151800137Y-106762822D01*
X151795690Y-106726712D01*
X151788390Y-106702691D01*
X151777530Y-106685291D01*
X151762405Y-106669043D01*
X151741801Y-106651761D01*
X151682555Y-106628542D01*
X151620366Y-106635357D01*
X151563398Y-106672081D01*
X151547115Y-106689173D01*
X151535426Y-106706471D01*
X151527586Y-106729490D01*
X151522827Y-106763771D01*
X151520379Y-106814853D01*
X151519473Y-106888277D01*
X151519343Y-106989581D01*
X151519343Y-107263026D01*
X151335527Y-107263026D01*
X151335894Y-106966414D01*
X151335919Y-106953202D01*
X151337513Y-106827035D01*
X151342408Y-106729028D01*
X151351864Y-106654415D01*
X151367139Y-106598431D01*
X151389490Y-106556309D01*
X151420175Y-106523284D01*
X151460454Y-106494590D01*
X151502043Y-106474726D01*
X151585800Y-106456678D01*
X151672937Y-106459340D01*
G37*
X147753610Y-106464747D02*
X147844791Y-106500271D01*
X147921907Y-106558913D01*
X147978864Y-106639456D01*
X147982710Y-106647669D01*
X148007130Y-106727767D01*
X148019330Y-106823448D01*
X148019234Y-106923069D01*
X148006764Y-107014988D01*
X147981843Y-107087566D01*
X147951073Y-107138150D01*
X147883344Y-107209810D01*
X147798657Y-107255362D01*
X147726202Y-107273782D01*
X147615875Y-107275793D01*
X147510302Y-107248013D01*
X147416682Y-107191642D01*
X147356088Y-107141696D01*
X147410664Y-107085387D01*
X147445144Y-107052030D01*
X147476332Y-107033458D01*
X147505250Y-107037547D01*
X147542237Y-107062500D01*
X147556985Y-107072268D01*
X147619291Y-107092262D01*
X147690903Y-107092249D01*
X147757950Y-107071643D01*
X147783196Y-107055095D01*
X147820228Y-107006230D01*
X147838792Y-106934458D01*
X147839987Y-106836636D01*
X147839983Y-106836581D01*
X147826171Y-106749062D01*
X147795744Y-106688381D01*
X147745676Y-106650845D01*
X147672941Y-106632761D01*
X147627137Y-106630329D01*
X147587116Y-106640289D01*
X147546070Y-106669142D01*
X147492954Y-106713836D01*
X147425688Y-106659779D01*
X147401113Y-106639070D01*
X147370416Y-106609399D01*
X147358422Y-106591913D01*
X147362669Y-106584033D01*
X147387135Y-106559840D01*
X147426110Y-106529071D01*
X147456605Y-106509049D01*
X147553424Y-106467919D01*
X147654457Y-106453557D01*
X147753610Y-106464747D01*
G36*
X147753610Y-106464747D02*
G01*
X147844791Y-106500271D01*
X147921907Y-106558913D01*
X147978864Y-106639456D01*
X147982710Y-106647669D01*
X148007130Y-106727767D01*
X148019330Y-106823448D01*
X148019234Y-106923069D01*
X148006764Y-107014988D01*
X147981843Y-107087566D01*
X147951073Y-107138150D01*
X147883344Y-107209810D01*
X147798657Y-107255362D01*
X147726202Y-107273782D01*
X147615875Y-107275793D01*
X147510302Y-107248013D01*
X147416682Y-107191642D01*
X147356088Y-107141696D01*
X147410664Y-107085387D01*
X147445144Y-107052030D01*
X147476332Y-107033458D01*
X147505250Y-107037547D01*
X147542237Y-107062500D01*
X147556985Y-107072268D01*
X147619291Y-107092262D01*
X147690903Y-107092249D01*
X147757950Y-107071643D01*
X147783196Y-107055095D01*
X147820228Y-107006230D01*
X147838792Y-106934458D01*
X147839987Y-106836636D01*
X147839983Y-106836581D01*
X147826171Y-106749062D01*
X147795744Y-106688381D01*
X147745676Y-106650845D01*
X147672941Y-106632761D01*
X147627137Y-106630329D01*
X147587116Y-106640289D01*
X147546070Y-106669142D01*
X147492954Y-106713836D01*
X147425688Y-106659779D01*
X147401113Y-106639070D01*
X147370416Y-106609399D01*
X147358422Y-106591913D01*
X147362669Y-106584033D01*
X147387135Y-106559840D01*
X147426110Y-106529071D01*
X147456605Y-106509049D01*
X147553424Y-106467919D01*
X147654457Y-106453557D01*
X147753610Y-106464747D01*
G37*
X150144982Y-106919616D02*
X150140320Y-106972501D01*
X150119714Y-107073465D01*
X150082857Y-107150507D01*
X150026761Y-107208701D01*
X149948434Y-107253117D01*
X149918023Y-107263688D01*
X149839263Y-107276877D01*
X149756384Y-107276518D01*
X149686450Y-107262031D01*
X149685076Y-107261505D01*
X149628718Y-107228352D01*
X149571780Y-107177030D01*
X149524535Y-107118340D01*
X149497255Y-107063084D01*
X149489169Y-107022693D01*
X149482246Y-106947069D01*
X149481085Y-106879661D01*
X149649442Y-106879661D01*
X149659507Y-106960514D01*
X149683151Y-107026951D01*
X149718973Y-107070362D01*
X149732551Y-107077816D01*
X149784327Y-107091364D01*
X149844213Y-107094151D01*
X149894596Y-107084737D01*
X149914260Y-107071236D01*
X149941862Y-107024023D01*
X149959230Y-106950130D01*
X149965264Y-106853163D01*
X149965167Y-106825250D01*
X149963071Y-106768690D01*
X149956100Y-106731794D01*
X149941475Y-106704531D01*
X149916418Y-106676872D01*
X149868736Y-106643349D01*
X149806663Y-106629643D01*
X149746689Y-106642697D01*
X149696891Y-106680451D01*
X149665345Y-106740849D01*
X149654358Y-106793002D01*
X149649442Y-106879661D01*
X149481085Y-106879661D01*
X149480763Y-106860942D01*
X149484478Y-106775219D01*
X149493145Y-106700805D01*
X149506522Y-106648606D01*
X149537679Y-106589506D01*
X149603808Y-106516840D01*
X149688331Y-106470810D01*
X149788734Y-106452590D01*
X149902505Y-106463358D01*
X149921435Y-106467945D01*
X150009595Y-106507500D01*
X150076028Y-106572441D01*
X150120735Y-106662771D01*
X150143718Y-106778494D01*
X150144387Y-106853163D01*
X150144982Y-106919616D01*
G36*
X150144982Y-106919616D02*
G01*
X150140320Y-106972501D01*
X150119714Y-107073465D01*
X150082857Y-107150507D01*
X150026761Y-107208701D01*
X149948434Y-107253117D01*
X149918023Y-107263688D01*
X149839263Y-107276877D01*
X149756384Y-107276518D01*
X149686450Y-107262031D01*
X149685076Y-107261505D01*
X149628718Y-107228352D01*
X149571780Y-107177030D01*
X149524535Y-107118340D01*
X149497255Y-107063084D01*
X149489169Y-107022693D01*
X149482246Y-106947069D01*
X149481085Y-106879661D01*
X149649442Y-106879661D01*
X149659507Y-106960514D01*
X149683151Y-107026951D01*
X149718973Y-107070362D01*
X149732551Y-107077816D01*
X149784327Y-107091364D01*
X149844213Y-107094151D01*
X149894596Y-107084737D01*
X149914260Y-107071236D01*
X149941862Y-107024023D01*
X149959230Y-106950130D01*
X149965264Y-106853163D01*
X149965167Y-106825250D01*
X149963071Y-106768690D01*
X149956100Y-106731794D01*
X149941475Y-106704531D01*
X149916418Y-106676872D01*
X149868736Y-106643349D01*
X149806663Y-106629643D01*
X149746689Y-106642697D01*
X149696891Y-106680451D01*
X149665345Y-106740849D01*
X149654358Y-106793002D01*
X149649442Y-106879661D01*
X149481085Y-106879661D01*
X149480763Y-106860942D01*
X149484478Y-106775219D01*
X149493145Y-106700805D01*
X149506522Y-106648606D01*
X149537679Y-106589506D01*
X149603808Y-106516840D01*
X149688331Y-106470810D01*
X149788734Y-106452590D01*
X149902505Y-106463358D01*
X149921435Y-106467945D01*
X150009595Y-106507500D01*
X150076028Y-106572441D01*
X150120735Y-106662771D01*
X150143718Y-106778494D01*
X150144387Y-106853163D01*
X150144982Y-106919616D01*
G37*
X150278063Y-107976607D02*
X150300655Y-108044010D01*
X150327379Y-108118627D01*
X150349696Y-108175154D01*
X150365759Y-108208986D01*
X150373724Y-108215516D01*
X150375646Y-108209837D01*
X150386049Y-108175007D01*
X150402619Y-108116835D01*
X150423516Y-108041833D01*
X150446900Y-107956513D01*
X150510518Y-107722566D01*
X150607655Y-107717490D01*
X150615854Y-107717084D01*
X150668235Y-107716546D01*
X150693406Y-107721923D01*
X150696612Y-107734201D01*
X150692562Y-107746192D01*
X150679241Y-107787234D01*
X150658384Y-107852236D01*
X150631479Y-107936548D01*
X150600012Y-108035522D01*
X150565469Y-108144506D01*
X150442505Y-108533026D01*
X150288689Y-108533026D01*
X150216213Y-108286546D01*
X150202830Y-108241285D01*
X150178096Y-108159002D01*
X150156962Y-108090440D01*
X150141329Y-108041725D01*
X150133102Y-108018983D01*
X150130758Y-108017287D01*
X150119351Y-108031956D01*
X150103065Y-108070748D01*
X150084606Y-108127602D01*
X150083631Y-108130941D01*
X150058917Y-108214847D01*
X150030641Y-108309851D01*
X150004730Y-108396028D01*
X149962714Y-108534753D01*
X149807750Y-108524671D01*
X149735987Y-108299079D01*
X149704480Y-108199954D01*
X149669187Y-108088781D01*
X149635393Y-107982204D01*
X149607418Y-107893849D01*
X149550613Y-107714210D01*
X149740656Y-107714210D01*
X149786720Y-107885493D01*
X149798965Y-107930751D01*
X149822125Y-108015125D01*
X149843572Y-108091884D01*
X149859876Y-108148684D01*
X149886969Y-108240592D01*
X149973374Y-107981579D01*
X150059780Y-107722566D01*
X150125870Y-107717604D01*
X150191959Y-107712643D01*
X150278063Y-107976607D01*
G36*
X150278063Y-107976607D02*
G01*
X150300655Y-108044010D01*
X150327379Y-108118627D01*
X150349696Y-108175154D01*
X150365759Y-108208986D01*
X150373724Y-108215516D01*
X150375646Y-108209837D01*
X150386049Y-108175007D01*
X150402619Y-108116835D01*
X150423516Y-108041833D01*
X150446900Y-107956513D01*
X150510518Y-107722566D01*
X150607655Y-107717490D01*
X150615854Y-107717084D01*
X150668235Y-107716546D01*
X150693406Y-107721923D01*
X150696612Y-107734201D01*
X150692562Y-107746192D01*
X150679241Y-107787234D01*
X150658384Y-107852236D01*
X150631479Y-107936548D01*
X150600012Y-108035522D01*
X150565469Y-108144506D01*
X150442505Y-108533026D01*
X150288689Y-108533026D01*
X150216213Y-108286546D01*
X150202830Y-108241285D01*
X150178096Y-108159002D01*
X150156962Y-108090440D01*
X150141329Y-108041725D01*
X150133102Y-108018983D01*
X150130758Y-108017287D01*
X150119351Y-108031956D01*
X150103065Y-108070748D01*
X150084606Y-108127602D01*
X150083631Y-108130941D01*
X150058917Y-108214847D01*
X150030641Y-108309851D01*
X150004730Y-108396028D01*
X149962714Y-108534753D01*
X149807750Y-108524671D01*
X149735987Y-108299079D01*
X149704480Y-108199954D01*
X149669187Y-108088781D01*
X149635393Y-107982204D01*
X149607418Y-107893849D01*
X149550613Y-107714210D01*
X149740656Y-107714210D01*
X149786720Y-107885493D01*
X149798965Y-107930751D01*
X149822125Y-108015125D01*
X149843572Y-108091884D01*
X149859876Y-108148684D01*
X149886969Y-108240592D01*
X149973374Y-107981579D01*
X150059780Y-107722566D01*
X150125870Y-107717604D01*
X150191959Y-107712643D01*
X150278063Y-107976607D01*
G37*
X151417986Y-108186159D02*
X151415868Y-108257601D01*
X151411608Y-108307366D01*
X151410878Y-108311927D01*
X151382206Y-108393504D01*
X151329846Y-108462665D01*
X151261158Y-108509521D01*
X151187396Y-108528916D01*
X151096668Y-108527411D01*
X151013205Y-108501406D01*
X150991465Y-108490432D01*
X150963510Y-108478674D01*
X150952872Y-108482332D01*
X150951185Y-108501406D01*
X150950410Y-108510918D01*
X150940407Y-108524985D01*
X150912623Y-108531462D01*
X150859277Y-108533026D01*
X150767369Y-108533026D01*
X150767369Y-108131828D01*
X150951185Y-108131828D01*
X150952502Y-108201332D01*
X150957848Y-108247606D01*
X150969262Y-108279307D01*
X150988783Y-108305873D01*
X151040329Y-108345373D01*
X151100650Y-108358615D01*
X151159144Y-108342240D01*
X151208410Y-108296560D01*
X151221432Y-108263134D01*
X151231051Y-108203941D01*
X151235280Y-108132126D01*
X151233948Y-108058467D01*
X151226884Y-107993739D01*
X151213917Y-107948722D01*
X151209774Y-107941340D01*
X151169840Y-107904238D01*
X151115722Y-107887801D01*
X151057600Y-107891624D01*
X151005653Y-107915302D01*
X150970063Y-107958429D01*
X150968592Y-107962056D01*
X150959767Y-108002526D01*
X150953542Y-108062999D01*
X150951185Y-108131828D01*
X150767369Y-108131828D01*
X150767369Y-107396710D01*
X150951185Y-107396710D01*
X150951185Y-107786232D01*
X150985232Y-107755420D01*
X151018014Y-107736269D01*
X151080059Y-107720260D01*
X151152589Y-107715102D01*
X151223419Y-107721435D01*
X151280368Y-107739900D01*
X151321128Y-107766166D01*
X151363113Y-107810912D01*
X151391370Y-107871088D01*
X151408355Y-107952488D01*
X151416528Y-108060905D01*
X151417729Y-108104730D01*
X151417816Y-108132126D01*
X151417986Y-108186159D01*
G36*
X151417986Y-108186159D02*
G01*
X151415868Y-108257601D01*
X151411608Y-108307366D01*
X151410878Y-108311927D01*
X151382206Y-108393504D01*
X151329846Y-108462665D01*
X151261158Y-108509521D01*
X151187396Y-108528916D01*
X151096668Y-108527411D01*
X151013205Y-108501406D01*
X150991465Y-108490432D01*
X150963510Y-108478674D01*
X150952872Y-108482332D01*
X150951185Y-108501406D01*
X150950410Y-108510918D01*
X150940407Y-108524985D01*
X150912623Y-108531462D01*
X150859277Y-108533026D01*
X150767369Y-108533026D01*
X150767369Y-108131828D01*
X150951185Y-108131828D01*
X150952502Y-108201332D01*
X150957848Y-108247606D01*
X150969262Y-108279307D01*
X150988783Y-108305873D01*
X151040329Y-108345373D01*
X151100650Y-108358615D01*
X151159144Y-108342240D01*
X151208410Y-108296560D01*
X151221432Y-108263134D01*
X151231051Y-108203941D01*
X151235280Y-108132126D01*
X151233948Y-108058467D01*
X151226884Y-107993739D01*
X151213917Y-107948722D01*
X151209774Y-107941340D01*
X151169840Y-107904238D01*
X151115722Y-107887801D01*
X151057600Y-107891624D01*
X151005653Y-107915302D01*
X150970063Y-107958429D01*
X150968592Y-107962056D01*
X150959767Y-108002526D01*
X150953542Y-108062999D01*
X150951185Y-108131828D01*
X150767369Y-108131828D01*
X150767369Y-107396710D01*
X150951185Y-107396710D01*
X150951185Y-107786232D01*
X150985232Y-107755420D01*
X151018014Y-107736269D01*
X151080059Y-107720260D01*
X151152589Y-107715102D01*
X151223419Y-107721435D01*
X151280368Y-107739900D01*
X151321128Y-107766166D01*
X151363113Y-107810912D01*
X151391370Y-107871088D01*
X151408355Y-107952488D01*
X151416528Y-108060905D01*
X151417729Y-108104730D01*
X151417816Y-108132126D01*
X151417986Y-108186159D01*
G37*
X154307431Y-106907868D02*
X154305273Y-106960201D01*
X154300376Y-107024019D01*
X154292033Y-107069252D01*
X154278256Y-107105093D01*
X154257057Y-107140736D01*
X154256154Y-107142087D01*
X154203953Y-107199835D01*
X154140083Y-107243880D01*
X154065813Y-107270017D01*
X153968110Y-107278503D01*
X153872350Y-107261816D01*
X153786755Y-107221606D01*
X153719545Y-107159522D01*
X153700250Y-107130188D01*
X153664216Y-107038996D01*
X153646344Y-106926484D01*
X153646650Y-106898024D01*
X153826249Y-106898024D01*
X153826588Y-106951250D01*
X153832231Y-106986784D01*
X153845089Y-107014089D01*
X153867072Y-107042624D01*
X153897579Y-107070940D01*
X153958592Y-107096210D01*
X154024106Y-107091516D01*
X154086719Y-107056396D01*
X154104381Y-107039622D01*
X154123239Y-107010907D01*
X154133696Y-106970546D01*
X154139624Y-106907654D01*
X154141257Y-106860410D01*
X154132311Y-106763928D01*
X154104860Y-106694852D01*
X154058781Y-106652801D01*
X154004766Y-106632665D01*
X153940349Y-106634360D01*
X153880637Y-106668355D01*
X153866361Y-106681297D01*
X153848347Y-106703940D01*
X153837659Y-106733564D01*
X153831729Y-106778982D01*
X153827988Y-106849006D01*
X153826249Y-106898024D01*
X153646650Y-106898024D01*
X153647723Y-106798124D01*
X153649482Y-106779918D01*
X153674024Y-106663312D01*
X153719430Y-106572790D01*
X153785795Y-106508254D01*
X153873216Y-106469604D01*
X153981791Y-106456743D01*
X154022811Y-106457950D01*
X154106934Y-106472720D01*
X154175722Y-106507974D01*
X154239854Y-106568328D01*
X154250110Y-106580442D01*
X154277774Y-106621237D01*
X154295955Y-106667430D01*
X154306036Y-106725968D01*
X154309401Y-106803799D01*
X154308329Y-106860410D01*
X154307431Y-106907868D01*
G36*
X154307431Y-106907868D02*
G01*
X154305273Y-106960201D01*
X154300376Y-107024019D01*
X154292033Y-107069252D01*
X154278256Y-107105093D01*
X154257057Y-107140736D01*
X154256154Y-107142087D01*
X154203953Y-107199835D01*
X154140083Y-107243880D01*
X154065813Y-107270017D01*
X153968110Y-107278503D01*
X153872350Y-107261816D01*
X153786755Y-107221606D01*
X153719545Y-107159522D01*
X153700250Y-107130188D01*
X153664216Y-107038996D01*
X153646344Y-106926484D01*
X153646650Y-106898024D01*
X153826249Y-106898024D01*
X153826588Y-106951250D01*
X153832231Y-106986784D01*
X153845089Y-107014089D01*
X153867072Y-107042624D01*
X153897579Y-107070940D01*
X153958592Y-107096210D01*
X154024106Y-107091516D01*
X154086719Y-107056396D01*
X154104381Y-107039622D01*
X154123239Y-107010907D01*
X154133696Y-106970546D01*
X154139624Y-106907654D01*
X154141257Y-106860410D01*
X154132311Y-106763928D01*
X154104860Y-106694852D01*
X154058781Y-106652801D01*
X154004766Y-106632665D01*
X153940349Y-106634360D01*
X153880637Y-106668355D01*
X153866361Y-106681297D01*
X153848347Y-106703940D01*
X153837659Y-106733564D01*
X153831729Y-106778982D01*
X153827988Y-106849006D01*
X153826249Y-106898024D01*
X153646650Y-106898024D01*
X153647723Y-106798124D01*
X153649482Y-106779918D01*
X153674024Y-106663312D01*
X153719430Y-106572790D01*
X153785795Y-106508254D01*
X153873216Y-106469604D01*
X153981791Y-106456743D01*
X154022811Y-106457950D01*
X154106934Y-106472720D01*
X154175722Y-106507974D01*
X154239854Y-106568328D01*
X154250110Y-106580442D01*
X154277774Y-106621237D01*
X154295955Y-106667430D01*
X154306036Y-106725968D01*
X154309401Y-106803799D01*
X154308329Y-106860410D01*
X154307431Y-106907868D01*
G37*
X147336367Y-106808127D02*
X147334216Y-106936029D01*
X147333936Y-106938544D01*
X147309909Y-107055905D01*
X147266499Y-107147152D01*
X147202353Y-107214291D01*
X147116119Y-107259324D01*
X147100289Y-107264474D01*
X147002173Y-107279651D01*
X146900698Y-107271188D01*
X146806359Y-107240945D01*
X146729649Y-107190785D01*
X146672190Y-107137697D01*
X146733266Y-107089404D01*
X146794341Y-107041111D01*
X146867947Y-107076871D01*
X146953115Y-107105847D01*
X147028301Y-107106715D01*
X147089816Y-107080092D01*
X147134083Y-107026655D01*
X147149952Y-106994636D01*
X147158811Y-106967271D01*
X147153685Y-106948785D01*
X147130687Y-106937438D01*
X147085931Y-106931487D01*
X147015529Y-106929193D01*
X146915593Y-106928816D01*
X146673290Y-106928816D01*
X146673290Y-106812930D01*
X146675100Y-106762055D01*
X146845706Y-106762055D01*
X146853900Y-106771412D01*
X146878160Y-106776283D01*
X146924272Y-106778130D01*
X146998019Y-106778421D01*
X147037566Y-106777957D01*
X147099971Y-106774888D01*
X147142303Y-106769513D01*
X147157895Y-106762497D01*
X147153906Y-106736608D01*
X147125788Y-106687070D01*
X147078932Y-106646375D01*
X147023074Y-106621795D01*
X146967951Y-106620605D01*
X146926458Y-106640315D01*
X146879440Y-106685168D01*
X146849545Y-106740822D01*
X146847794Y-106746745D01*
X146845706Y-106762055D01*
X146675100Y-106762055D01*
X146675471Y-106751638D01*
X146681876Y-106690996D01*
X146691025Y-106650002D01*
X146697695Y-106634352D01*
X146746243Y-106564649D01*
X146816391Y-106506513D01*
X146898426Y-106468449D01*
X146941216Y-106458054D01*
X147043170Y-106453322D01*
X147134015Y-106477393D01*
X147211253Y-106527588D01*
X147272389Y-106601227D01*
X147314926Y-106695633D01*
X147327671Y-106762497D01*
X147336367Y-106808127D01*
G36*
X147336367Y-106808127D02*
G01*
X147334216Y-106936029D01*
X147333936Y-106938544D01*
X147309909Y-107055905D01*
X147266499Y-107147152D01*
X147202353Y-107214291D01*
X147116119Y-107259324D01*
X147100289Y-107264474D01*
X147002173Y-107279651D01*
X146900698Y-107271188D01*
X146806359Y-107240945D01*
X146729649Y-107190785D01*
X146672190Y-107137697D01*
X146733266Y-107089404D01*
X146794341Y-107041111D01*
X146867947Y-107076871D01*
X146953115Y-107105847D01*
X147028301Y-107106715D01*
X147089816Y-107080092D01*
X147134083Y-107026655D01*
X147149952Y-106994636D01*
X147158811Y-106967271D01*
X147153685Y-106948785D01*
X147130687Y-106937438D01*
X147085931Y-106931487D01*
X147015529Y-106929193D01*
X146915593Y-106928816D01*
X146673290Y-106928816D01*
X146673290Y-106812930D01*
X146675100Y-106762055D01*
X146845706Y-106762055D01*
X146853900Y-106771412D01*
X146878160Y-106776283D01*
X146924272Y-106778130D01*
X146998019Y-106778421D01*
X147037566Y-106777957D01*
X147099971Y-106774888D01*
X147142303Y-106769513D01*
X147157895Y-106762497D01*
X147153906Y-106736608D01*
X147125788Y-106687070D01*
X147078932Y-106646375D01*
X147023074Y-106621795D01*
X146967951Y-106620605D01*
X146926458Y-106640315D01*
X146879440Y-106685168D01*
X146849545Y-106740822D01*
X146847794Y-106746745D01*
X146845706Y-106762055D01*
X146675100Y-106762055D01*
X146675471Y-106751638D01*
X146681876Y-106690996D01*
X146691025Y-106650002D01*
X146697695Y-106634352D01*
X146746243Y-106564649D01*
X146816391Y-106506513D01*
X146898426Y-106468449D01*
X146941216Y-106458054D01*
X147043170Y-106453322D01*
X147134015Y-106477393D01*
X147211253Y-106527588D01*
X147272389Y-106601227D01*
X147314926Y-106695633D01*
X147327671Y-106762497D01*
X147336367Y-106808127D01*
G37*
X150631399Y-106460379D02*
X150727909Y-106484568D01*
X150798411Y-106529402D01*
X150843307Y-106595181D01*
X150862999Y-106682207D01*
X150859012Y-106765523D01*
X150830235Y-106835797D01*
X150775048Y-106887754D01*
X150692348Y-106922410D01*
X150581026Y-106940779D01*
X150508692Y-106950406D01*
X150442670Y-106971237D01*
X150408583Y-107001404D01*
X150406526Y-107040852D01*
X150420243Y-107065449D01*
X150462726Y-107094601D01*
X150523117Y-107108389D01*
X150593889Y-107106504D01*
X150667512Y-107088633D01*
X150736457Y-107054467D01*
X150805197Y-107008977D01*
X150926119Y-107131335D01*
X150875987Y-107172255D01*
X150856494Y-107186473D01*
X150801650Y-107218775D01*
X150742303Y-107246609D01*
X150695335Y-107262583D01*
X150626562Y-107274154D01*
X150541777Y-107274307D01*
X150437806Y-107261567D01*
X150344145Y-107229277D01*
X150277849Y-107177986D01*
X150238760Y-107107565D01*
X150226722Y-107017887D01*
X150235436Y-106938997D01*
X150263408Y-106874407D01*
X150313768Y-106828151D01*
X150389703Y-106797388D01*
X150494400Y-106779278D01*
X150506425Y-106777967D01*
X150571611Y-106769606D01*
X150624490Y-106760857D01*
X150654573Y-106753413D01*
X150664612Y-106747420D01*
X150681584Y-106716513D01*
X150678828Y-106676950D01*
X150656146Y-106642605D01*
X150644236Y-106635115D01*
X150594606Y-106623113D01*
X150530500Y-106623920D01*
X150463653Y-106636692D01*
X150405799Y-106660586D01*
X150345008Y-106696454D01*
X150297854Y-106641352D01*
X150286412Y-106627353D01*
X150260634Y-106589853D01*
X150250022Y-106564437D01*
X150261166Y-106548853D01*
X150295644Y-106524526D01*
X150345428Y-106498348D01*
X150352443Y-106495148D01*
X150418092Y-106470048D01*
X150481372Y-106458047D01*
X150559900Y-106455637D01*
X150631399Y-106460379D01*
G36*
X150631399Y-106460379D02*
G01*
X150727909Y-106484568D01*
X150798411Y-106529402D01*
X150843307Y-106595181D01*
X150862999Y-106682207D01*
X150859012Y-106765523D01*
X150830235Y-106835797D01*
X150775048Y-106887754D01*
X150692348Y-106922410D01*
X150581026Y-106940779D01*
X150508692Y-106950406D01*
X150442670Y-106971237D01*
X150408583Y-107001404D01*
X150406526Y-107040852D01*
X150420243Y-107065449D01*
X150462726Y-107094601D01*
X150523117Y-107108389D01*
X150593889Y-107106504D01*
X150667512Y-107088633D01*
X150736457Y-107054467D01*
X150805197Y-107008977D01*
X150926119Y-107131335D01*
X150875987Y-107172255D01*
X150856494Y-107186473D01*
X150801650Y-107218775D01*
X150742303Y-107246609D01*
X150695335Y-107262583D01*
X150626562Y-107274154D01*
X150541777Y-107274307D01*
X150437806Y-107261567D01*
X150344145Y-107229277D01*
X150277849Y-107177986D01*
X150238760Y-107107565D01*
X150226722Y-107017887D01*
X150235436Y-106938997D01*
X150263408Y-106874407D01*
X150313768Y-106828151D01*
X150389703Y-106797388D01*
X150494400Y-106779278D01*
X150506425Y-106777967D01*
X150571611Y-106769606D01*
X150624490Y-106760857D01*
X150654573Y-106753413D01*
X150664612Y-106747420D01*
X150681584Y-106716513D01*
X150678828Y-106676950D01*
X150656146Y-106642605D01*
X150644236Y-106635115D01*
X150594606Y-106623113D01*
X150530500Y-106623920D01*
X150463653Y-106636692D01*
X150405799Y-106660586D01*
X150345008Y-106696454D01*
X150297854Y-106641352D01*
X150286412Y-106627353D01*
X150260634Y-106589853D01*
X150250022Y-106564437D01*
X150261166Y-106548853D01*
X150295644Y-106524526D01*
X150345428Y-106498348D01*
X150352443Y-106495148D01*
X150418092Y-106470048D01*
X150481372Y-106458047D01*
X150559900Y-106455637D01*
X150631399Y-106460379D01*
G37*
X148193418Y-108123618D02*
X148191245Y-108185998D01*
X148171455Y-108305294D01*
X148130734Y-108399098D01*
X148068724Y-108468081D01*
X147985066Y-108512912D01*
X147958037Y-108520832D01*
X147861524Y-108531895D01*
X147759615Y-108522559D01*
X147667566Y-108493746D01*
X147635138Y-108477392D01*
X147588643Y-108449378D01*
X147560465Y-108426327D01*
X147556305Y-108421060D01*
X147548522Y-108401799D01*
X147559736Y-108380861D01*
X147593886Y-108349150D01*
X147610367Y-108335345D01*
X147642832Y-108310083D01*
X147659855Y-108299758D01*
X147664732Y-108300821D01*
X147692681Y-108312319D01*
X147734408Y-108332500D01*
X147748013Y-108339138D01*
X147828271Y-108363789D01*
X147897997Y-108357435D01*
X147959140Y-108319967D01*
X147966255Y-108313044D01*
X148000268Y-108269678D01*
X148019702Y-108228059D01*
X148030466Y-108182105D01*
X147525527Y-108182105D01*
X147525620Y-108094375D01*
X147525673Y-108085650D01*
X147532490Y-108015263D01*
X147709343Y-108015263D01*
X147711431Y-108029861D01*
X147722152Y-108039922D01*
X147747707Y-108045506D01*
X147794289Y-108047908D01*
X147868093Y-108048421D01*
X147909124Y-108047889D01*
X147969688Y-108044780D01*
X148011345Y-108039512D01*
X148026843Y-108032798D01*
X148013626Y-107977533D01*
X147974930Y-107925952D01*
X147919121Y-107890166D01*
X147854651Y-107877788D01*
X147807185Y-107891742D01*
X147759738Y-107925853D01*
X147723669Y-107970296D01*
X147709343Y-108015263D01*
X147532490Y-108015263D01*
X147536127Y-107977716D01*
X147566555Y-107889913D01*
X147619649Y-107814223D01*
X147652038Y-107782205D01*
X147718932Y-107739345D01*
X147798807Y-107718578D01*
X147899700Y-107717118D01*
X147948435Y-107722843D01*
X148038396Y-107752571D01*
X148107271Y-107806678D01*
X148155664Y-107885998D01*
X148184179Y-107991366D01*
X148187074Y-108032798D01*
X148193418Y-108123618D01*
G36*
X148193418Y-108123618D02*
G01*
X148191245Y-108185998D01*
X148171455Y-108305294D01*
X148130734Y-108399098D01*
X148068724Y-108468081D01*
X147985066Y-108512912D01*
X147958037Y-108520832D01*
X147861524Y-108531895D01*
X147759615Y-108522559D01*
X147667566Y-108493746D01*
X147635138Y-108477392D01*
X147588643Y-108449378D01*
X147560465Y-108426327D01*
X147556305Y-108421060D01*
X147548522Y-108401799D01*
X147559736Y-108380861D01*
X147593886Y-108349150D01*
X147610367Y-108335345D01*
X147642832Y-108310083D01*
X147659855Y-108299758D01*
X147664732Y-108300821D01*
X147692681Y-108312319D01*
X147734408Y-108332500D01*
X147748013Y-108339138D01*
X147828271Y-108363789D01*
X147897997Y-108357435D01*
X147959140Y-108319967D01*
X147966255Y-108313044D01*
X148000268Y-108269678D01*
X148019702Y-108228059D01*
X148030466Y-108182105D01*
X147525527Y-108182105D01*
X147525620Y-108094375D01*
X147525673Y-108085650D01*
X147532490Y-108015263D01*
X147709343Y-108015263D01*
X147711431Y-108029861D01*
X147722152Y-108039922D01*
X147747707Y-108045506D01*
X147794289Y-108047908D01*
X147868093Y-108048421D01*
X147909124Y-108047889D01*
X147969688Y-108044780D01*
X148011345Y-108039512D01*
X148026843Y-108032798D01*
X148013626Y-107977533D01*
X147974930Y-107925952D01*
X147919121Y-107890166D01*
X147854651Y-107877788D01*
X147807185Y-107891742D01*
X147759738Y-107925853D01*
X147723669Y-107970296D01*
X147709343Y-108015263D01*
X147532490Y-108015263D01*
X147536127Y-107977716D01*
X147566555Y-107889913D01*
X147619649Y-107814223D01*
X147652038Y-107782205D01*
X147718932Y-107739345D01*
X147798807Y-107718578D01*
X147899700Y-107717118D01*
X147948435Y-107722843D01*
X148038396Y-107752571D01*
X148107271Y-107806678D01*
X148155664Y-107885998D01*
X148184179Y-107991366D01*
X148187074Y-108032798D01*
X148193418Y-108123618D01*
G37*
X152768543Y-106761591D02*
X152774389Y-106878638D01*
X152772928Y-106929716D01*
X152756454Y-107041343D01*
X152720151Y-107129356D01*
X152662120Y-107197384D01*
X152580461Y-107249051D01*
X152501246Y-107273170D01*
X152401871Y-107277785D01*
X152301607Y-107260037D01*
X152212172Y-107220827D01*
X152179030Y-107199015D01*
X152142515Y-107171056D01*
X152125853Y-107152658D01*
X152126798Y-107145067D01*
X152145448Y-107119203D01*
X152180498Y-107087867D01*
X152241241Y-107041536D01*
X152312418Y-107077084D01*
X152331665Y-107085883D01*
X152388323Y-107105006D01*
X152435811Y-107112631D01*
X152470828Y-107106348D01*
X152525778Y-107076091D01*
X152571967Y-107029120D01*
X152598387Y-106974770D01*
X152609150Y-106928816D01*
X152104211Y-106928816D01*
X152104304Y-106841085D01*
X152105069Y-106813281D01*
X152110649Y-106753619D01*
X152288027Y-106753619D01*
X152288352Y-106757037D01*
X152297540Y-106767681D01*
X152323504Y-106774220D01*
X152371779Y-106777514D01*
X152447903Y-106778421D01*
X152472923Y-106778410D01*
X152537902Y-106777810D01*
X152576964Y-106775215D01*
X152595903Y-106769162D01*
X152600511Y-106758186D01*
X152596581Y-106740822D01*
X152595981Y-106738853D01*
X152562127Y-106678430D01*
X152508757Y-106636829D01*
X152445115Y-106621342D01*
X152421591Y-106622580D01*
X152377928Y-106637396D01*
X152336041Y-106675079D01*
X152324758Y-106688403D01*
X152298513Y-106726456D01*
X152288027Y-106753619D01*
X152110649Y-106753619D01*
X152111366Y-106745949D01*
X152121926Y-106690234D01*
X152133501Y-106659043D01*
X152174195Y-106591200D01*
X152228695Y-106529586D01*
X152286330Y-106487366D01*
X152302982Y-106479527D01*
X152399945Y-106453521D01*
X152498960Y-106456262D01*
X152592052Y-106486592D01*
X152671244Y-106543348D01*
X152714078Y-106595690D01*
X152749101Y-106669428D01*
X152767825Y-106758186D01*
X152768543Y-106761591D01*
G36*
X152768543Y-106761591D02*
G01*
X152774389Y-106878638D01*
X152772928Y-106929716D01*
X152756454Y-107041343D01*
X152720151Y-107129356D01*
X152662120Y-107197384D01*
X152580461Y-107249051D01*
X152501246Y-107273170D01*
X152401871Y-107277785D01*
X152301607Y-107260037D01*
X152212172Y-107220827D01*
X152179030Y-107199015D01*
X152142515Y-107171056D01*
X152125853Y-107152658D01*
X152126798Y-107145067D01*
X152145448Y-107119203D01*
X152180498Y-107087867D01*
X152241241Y-107041536D01*
X152312418Y-107077084D01*
X152331665Y-107085883D01*
X152388323Y-107105006D01*
X152435811Y-107112631D01*
X152470828Y-107106348D01*
X152525778Y-107076091D01*
X152571967Y-107029120D01*
X152598387Y-106974770D01*
X152609150Y-106928816D01*
X152104211Y-106928816D01*
X152104304Y-106841085D01*
X152105069Y-106813281D01*
X152110649Y-106753619D01*
X152288027Y-106753619D01*
X152288352Y-106757037D01*
X152297540Y-106767681D01*
X152323504Y-106774220D01*
X152371779Y-106777514D01*
X152447903Y-106778421D01*
X152472923Y-106778410D01*
X152537902Y-106777810D01*
X152576964Y-106775215D01*
X152595903Y-106769162D01*
X152600511Y-106758186D01*
X152596581Y-106740822D01*
X152595981Y-106738853D01*
X152562127Y-106678430D01*
X152508757Y-106636829D01*
X152445115Y-106621342D01*
X152421591Y-106622580D01*
X152377928Y-106637396D01*
X152336041Y-106675079D01*
X152324758Y-106688403D01*
X152298513Y-106726456D01*
X152288027Y-106753619D01*
X152110649Y-106753619D01*
X152111366Y-106745949D01*
X152121926Y-106690234D01*
X152133501Y-106659043D01*
X152174195Y-106591200D01*
X152228695Y-106529586D01*
X152286330Y-106487366D01*
X152302982Y-106479527D01*
X152399945Y-106453521D01*
X152498960Y-106456262D01*
X152592052Y-106486592D01*
X152671244Y-106543348D01*
X152714078Y-106595690D01*
X152749101Y-106669428D01*
X152767825Y-106758186D01*
X152768543Y-106761591D01*
G37*
X149555668Y-108313100D02*
X149535509Y-108388964D01*
X149491698Y-108453865D01*
X149425241Y-108500551D01*
X149418719Y-108503389D01*
X149346005Y-108523830D01*
X149264071Y-108531799D01*
X149186172Y-108526927D01*
X149125560Y-108508848D01*
X149101348Y-108497054D01*
X149083580Y-108494241D01*
X149079606Y-108508951D01*
X149072078Y-108522555D01*
X149042953Y-108530656D01*
X148986420Y-108533026D01*
X148893235Y-108533026D01*
X148898690Y-108211349D01*
X148899273Y-108182105D01*
X149079606Y-108182105D01*
X149079606Y-108240592D01*
X149085900Y-108284306D01*
X149113027Y-108332500D01*
X149123040Y-108341358D01*
X149164081Y-108359994D01*
X149225823Y-108364790D01*
X149262871Y-108362917D01*
X149332195Y-108348809D01*
X149375163Y-108322524D01*
X149389655Y-108285844D01*
X149373551Y-108240552D01*
X149364154Y-108228700D01*
X149322187Y-108202113D01*
X149255766Y-108186932D01*
X149161070Y-108182105D01*
X149079606Y-108182105D01*
X148899273Y-108182105D01*
X148900172Y-108136962D01*
X148904076Y-108025599D01*
X148910657Y-107940446D01*
X148921214Y-107876860D01*
X148937048Y-107830199D01*
X148959459Y-107795821D01*
X148989747Y-107769083D01*
X149029213Y-107745344D01*
X149049573Y-107736280D01*
X149120008Y-107719173D01*
X149204959Y-107712100D01*
X149292788Y-107714932D01*
X149371857Y-107727541D01*
X149430527Y-107749797D01*
X149450935Y-107762719D01*
X149497921Y-107801019D01*
X149513824Y-107833089D01*
X149509962Y-107839286D01*
X149485894Y-107860932D01*
X149447039Y-107889808D01*
X149427174Y-107903324D01*
X149393346Y-107922474D01*
X149371363Y-107924303D01*
X149350953Y-107911085D01*
X149300086Y-107884316D01*
X149231640Y-107873308D01*
X149161694Y-107881736D01*
X149160370Y-107882118D01*
X149111036Y-107903552D01*
X149086616Y-107937103D01*
X149079862Y-107992591D01*
X149079606Y-108045379D01*
X149254010Y-108051077D01*
X149281796Y-108052015D01*
X149351848Y-108055275D01*
X149398809Y-108060397D01*
X149430552Y-108069298D01*
X149454948Y-108083897D01*
X149479869Y-108106112D01*
X149521015Y-108157495D01*
X149551171Y-108233526D01*
X149554128Y-108285844D01*
X149555668Y-108313100D01*
G36*
X149555668Y-108313100D02*
G01*
X149535509Y-108388964D01*
X149491698Y-108453865D01*
X149425241Y-108500551D01*
X149418719Y-108503389D01*
X149346005Y-108523830D01*
X149264071Y-108531799D01*
X149186172Y-108526927D01*
X149125560Y-108508848D01*
X149101348Y-108497054D01*
X149083580Y-108494241D01*
X149079606Y-108508951D01*
X149072078Y-108522555D01*
X149042953Y-108530656D01*
X148986420Y-108533026D01*
X148893235Y-108533026D01*
X148898690Y-108211349D01*
X148899273Y-108182105D01*
X149079606Y-108182105D01*
X149079606Y-108240592D01*
X149085900Y-108284306D01*
X149113027Y-108332500D01*
X149123040Y-108341358D01*
X149164081Y-108359994D01*
X149225823Y-108364790D01*
X149262871Y-108362917D01*
X149332195Y-108348809D01*
X149375163Y-108322524D01*
X149389655Y-108285844D01*
X149373551Y-108240552D01*
X149364154Y-108228700D01*
X149322187Y-108202113D01*
X149255766Y-108186932D01*
X149161070Y-108182105D01*
X149079606Y-108182105D01*
X148899273Y-108182105D01*
X148900172Y-108136962D01*
X148904076Y-108025599D01*
X148910657Y-107940446D01*
X148921214Y-107876860D01*
X148937048Y-107830199D01*
X148959459Y-107795821D01*
X148989747Y-107769083D01*
X149029213Y-107745344D01*
X149049573Y-107736280D01*
X149120008Y-107719173D01*
X149204959Y-107712100D01*
X149292788Y-107714932D01*
X149371857Y-107727541D01*
X149430527Y-107749797D01*
X149450935Y-107762719D01*
X149497921Y-107801019D01*
X149513824Y-107833089D01*
X149509962Y-107839286D01*
X149485894Y-107860932D01*
X149447039Y-107889808D01*
X149427174Y-107903324D01*
X149393346Y-107922474D01*
X149371363Y-107924303D01*
X149350953Y-107911085D01*
X149300086Y-107884316D01*
X149231640Y-107873308D01*
X149161694Y-107881736D01*
X149160370Y-107882118D01*
X149111036Y-107903552D01*
X149086616Y-107937103D01*
X149079862Y-107992591D01*
X149079606Y-108045379D01*
X149254010Y-108051077D01*
X149281796Y-108052015D01*
X149351848Y-108055275D01*
X149398809Y-108060397D01*
X149430552Y-108069298D01*
X149454948Y-108083897D01*
X149479869Y-108106112D01*
X149521015Y-108157495D01*
X149551171Y-108233526D01*
X149554128Y-108285844D01*
X149555668Y-108313100D01*
G37*
X152768912Y-108310296D02*
X152768722Y-108312500D01*
X152748360Y-108398346D01*
X152703067Y-108462912D01*
X152630593Y-108509437D01*
X152593140Y-108520756D01*
X152528990Y-108529578D01*
X152458840Y-108531685D01*
X152395548Y-108526830D01*
X152351976Y-108514768D01*
X152325512Y-108505106D01*
X152299601Y-108514768D01*
X152290123Y-108520366D01*
X152252294Y-108529443D01*
X152201132Y-108533026D01*
X152120922Y-108533026D01*
X152120922Y-108209642D01*
X152120928Y-108182105D01*
X152304737Y-108182105D01*
X152304737Y-108246357D01*
X152310915Y-108295253D01*
X152335297Y-108338265D01*
X152349249Y-108347574D01*
X152399051Y-108362083D01*
X152461225Y-108365705D01*
X152522196Y-108358345D01*
X152568388Y-108339908D01*
X152591399Y-108315530D01*
X152605527Y-108272213D01*
X152592998Y-108237876D01*
X152551582Y-108208020D01*
X152485005Y-108188866D01*
X152397182Y-108182105D01*
X152304737Y-108182105D01*
X152120928Y-108182105D01*
X152120928Y-108181676D01*
X152121232Y-108076267D01*
X152122376Y-107997901D01*
X152124877Y-107941371D01*
X152129256Y-107901470D01*
X152136032Y-107872992D01*
X152145725Y-107850730D01*
X152158853Y-107829478D01*
X152201084Y-107779680D01*
X152260930Y-107741660D01*
X152339543Y-107720684D01*
X152443136Y-107714236D01*
X152446503Y-107714243D01*
X152518513Y-107717495D01*
X152582966Y-107725603D01*
X152626952Y-107736970D01*
X152639010Y-107742666D01*
X152677391Y-107766789D01*
X152712124Y-107795460D01*
X152734977Y-107821260D01*
X152737716Y-107836773D01*
X152732370Y-107840965D01*
X152674127Y-107885718D01*
X152635181Y-107912113D01*
X152609431Y-107922762D01*
X152590772Y-107920280D01*
X152573101Y-107907282D01*
X152540490Y-107891056D01*
X152485533Y-107880237D01*
X152423420Y-107877431D01*
X152367217Y-107883142D01*
X152329984Y-107897876D01*
X152328025Y-107899669D01*
X152311294Y-107933350D01*
X152304737Y-107983625D01*
X152304737Y-108048421D01*
X152459310Y-108048483D01*
X152530314Y-108049607D01*
X152590082Y-108054496D01*
X152632837Y-108064555D01*
X152667380Y-108081165D01*
X152675419Y-108086267D01*
X152733576Y-108142347D01*
X152764510Y-108216504D01*
X152767125Y-108272213D01*
X152768912Y-108310296D01*
G36*
X152768912Y-108310296D02*
G01*
X152768722Y-108312500D01*
X152748360Y-108398346D01*
X152703067Y-108462912D01*
X152630593Y-108509437D01*
X152593140Y-108520756D01*
X152528990Y-108529578D01*
X152458840Y-108531685D01*
X152395548Y-108526830D01*
X152351976Y-108514768D01*
X152325512Y-108505106D01*
X152299601Y-108514768D01*
X152290123Y-108520366D01*
X152252294Y-108529443D01*
X152201132Y-108533026D01*
X152120922Y-108533026D01*
X152120922Y-108209642D01*
X152120928Y-108182105D01*
X152304737Y-108182105D01*
X152304737Y-108246357D01*
X152310915Y-108295253D01*
X152335297Y-108338265D01*
X152349249Y-108347574D01*
X152399051Y-108362083D01*
X152461225Y-108365705D01*
X152522196Y-108358345D01*
X152568388Y-108339908D01*
X152591399Y-108315530D01*
X152605527Y-108272213D01*
X152592998Y-108237876D01*
X152551582Y-108208020D01*
X152485005Y-108188866D01*
X152397182Y-108182105D01*
X152304737Y-108182105D01*
X152120928Y-108182105D01*
X152120928Y-108181676D01*
X152121232Y-108076267D01*
X152122376Y-107997901D01*
X152124877Y-107941371D01*
X152129256Y-107901470D01*
X152136032Y-107872992D01*
X152145725Y-107850730D01*
X152158853Y-107829478D01*
X152201084Y-107779680D01*
X152260930Y-107741660D01*
X152339543Y-107720684D01*
X152443136Y-107714236D01*
X152446503Y-107714243D01*
X152518513Y-107717495D01*
X152582966Y-107725603D01*
X152626952Y-107736970D01*
X152639010Y-107742666D01*
X152677391Y-107766789D01*
X152712124Y-107795460D01*
X152734977Y-107821260D01*
X152737716Y-107836773D01*
X152732370Y-107840965D01*
X152674127Y-107885718D01*
X152635181Y-107912113D01*
X152609431Y-107922762D01*
X152590772Y-107920280D01*
X152573101Y-107907282D01*
X152540490Y-107891056D01*
X152485533Y-107880237D01*
X152423420Y-107877431D01*
X152367217Y-107883142D01*
X152329984Y-107897876D01*
X152328025Y-107899669D01*
X152311294Y-107933350D01*
X152304737Y-107983625D01*
X152304737Y-108048421D01*
X152459310Y-108048483D01*
X152530314Y-108049607D01*
X152590082Y-108054496D01*
X152632837Y-108064555D01*
X152667380Y-108081165D01*
X152675419Y-108086267D01*
X152733576Y-108142347D01*
X152764510Y-108216504D01*
X152767125Y-108272213D01*
X152768912Y-108310296D01*
G37*
X153524606Y-108534773D02*
X153436875Y-108529722D01*
X153349145Y-108524671D01*
X153344974Y-108257302D01*
X153343740Y-108192288D01*
X153340237Y-108094611D01*
X153334224Y-108022934D01*
X153324597Y-107972440D01*
X153310249Y-107938310D01*
X153290075Y-107915727D01*
X153262970Y-107899872D01*
X153212112Y-107883680D01*
X153161534Y-107889972D01*
X153108125Y-107924577D01*
X153056711Y-107967839D01*
X153056711Y-108533026D01*
X152872895Y-108533026D01*
X152872895Y-108226510D01*
X152873072Y-108130435D01*
X152874049Y-108045062D01*
X152876399Y-107982571D01*
X152880691Y-107937294D01*
X152887495Y-107903568D01*
X152897378Y-107875727D01*
X152910910Y-107848105D01*
X152914119Y-107842241D01*
X152956792Y-107785127D01*
X153006735Y-107745214D01*
X153066948Y-107724256D01*
X153146680Y-107714927D01*
X153226527Y-107719980D01*
X153291488Y-107739705D01*
X153340790Y-107765200D01*
X153340790Y-107213431D01*
X153273237Y-107248642D01*
X153245019Y-107261434D01*
X153155950Y-107279523D01*
X153067434Y-107267021D01*
X152985381Y-107225452D01*
X152915704Y-107156343D01*
X152904789Y-107140100D01*
X152894298Y-107116290D01*
X152887455Y-107083918D01*
X152883504Y-107036771D01*
X152881688Y-106968635D01*
X152881362Y-106897642D01*
X153057891Y-106897642D01*
X153058040Y-106956931D01*
X153062573Y-106996469D01*
X153072760Y-107024689D01*
X153089872Y-107050019D01*
X153111610Y-107073569D01*
X153146372Y-107091392D01*
X153198750Y-107095921D01*
X153245020Y-107091980D01*
X153290817Y-107072259D01*
X153320312Y-107032309D01*
X153336104Y-106968100D01*
X153340790Y-106875601D01*
X153339578Y-106826394D01*
X153327481Y-106733506D01*
X153302523Y-106670696D01*
X153264844Y-106638406D01*
X153226789Y-106629322D01*
X153160513Y-106633581D01*
X153104516Y-106659952D01*
X153091114Y-106672045D01*
X153076913Y-106692967D01*
X153068133Y-106724111D01*
X153062919Y-106773210D01*
X153059416Y-106847998D01*
X153057891Y-106897642D01*
X152881362Y-106897642D01*
X152881250Y-106873297D01*
X152881400Y-106829796D01*
X152883962Y-106728611D01*
X152891097Y-106653022D01*
X152904606Y-106597317D01*
X152926294Y-106555783D01*
X152957960Y-106522706D01*
X153001408Y-106492374D01*
X153036640Y-106474968D01*
X153120173Y-106455771D01*
X153208222Y-106458387D01*
X153286481Y-106483272D01*
X153320067Y-106499539D01*
X153336960Y-106501220D01*
X153340790Y-106486416D01*
X153340794Y-106485968D01*
X153349048Y-106470851D01*
X153377517Y-106463103D01*
X153432698Y-106460921D01*
X153524606Y-106460921D01*
X153524606Y-106875601D01*
X153524606Y-108534773D01*
G36*
X153524606Y-108534773D02*
G01*
X153436875Y-108529722D01*
X153349145Y-108524671D01*
X153344974Y-108257302D01*
X153343740Y-108192288D01*
X153340237Y-108094611D01*
X153334224Y-108022934D01*
X153324597Y-107972440D01*
X153310249Y-107938310D01*
X153290075Y-107915727D01*
X153262970Y-107899872D01*
X153212112Y-107883680D01*
X153161534Y-107889972D01*
X153108125Y-107924577D01*
X153056711Y-107967839D01*
X153056711Y-108533026D01*
X152872895Y-108533026D01*
X152872895Y-108226510D01*
X152873072Y-108130435D01*
X152874049Y-108045062D01*
X152876399Y-107982571D01*
X152880691Y-107937294D01*
X152887495Y-107903568D01*
X152897378Y-107875727D01*
X152910910Y-107848105D01*
X152914119Y-107842241D01*
X152956792Y-107785127D01*
X153006735Y-107745214D01*
X153066948Y-107724256D01*
X153146680Y-107714927D01*
X153226527Y-107719980D01*
X153291488Y-107739705D01*
X153340790Y-107765200D01*
X153340790Y-107213431D01*
X153273237Y-107248642D01*
X153245019Y-107261434D01*
X153155950Y-107279523D01*
X153067434Y-107267021D01*
X152985381Y-107225452D01*
X152915704Y-107156343D01*
X152904789Y-107140100D01*
X152894298Y-107116290D01*
X152887455Y-107083918D01*
X152883504Y-107036771D01*
X152881688Y-106968635D01*
X152881362Y-106897642D01*
X153057891Y-106897642D01*
X153058040Y-106956931D01*
X153062573Y-106996469D01*
X153072760Y-107024689D01*
X153089872Y-107050019D01*
X153111610Y-107073569D01*
X153146372Y-107091392D01*
X153198750Y-107095921D01*
X153245020Y-107091980D01*
X153290817Y-107072259D01*
X153320312Y-107032309D01*
X153336104Y-106968100D01*
X153340790Y-106875601D01*
X153339578Y-106826394D01*
X153327481Y-106733506D01*
X153302523Y-106670696D01*
X153264844Y-106638406D01*
X153226789Y-106629322D01*
X153160513Y-106633581D01*
X153104516Y-106659952D01*
X153091114Y-106672045D01*
X153076913Y-106692967D01*
X153068133Y-106724111D01*
X153062919Y-106773210D01*
X153059416Y-106847998D01*
X153057891Y-106897642D01*
X152881362Y-106897642D01*
X152881250Y-106873297D01*
X152881400Y-106829796D01*
X152883962Y-106728611D01*
X152891097Y-106653022D01*
X152904606Y-106597317D01*
X152926294Y-106555783D01*
X152957960Y-106522706D01*
X153001408Y-106492374D01*
X153036640Y-106474968D01*
X153120173Y-106455771D01*
X153208222Y-106458387D01*
X153286481Y-106483272D01*
X153320067Y-106499539D01*
X153336960Y-106501220D01*
X153340790Y-106486416D01*
X153340794Y-106485968D01*
X153349048Y-106470851D01*
X153377517Y-106463103D01*
X153432698Y-106460921D01*
X153524606Y-106460921D01*
X153524606Y-106875601D01*
X153524606Y-108534773D01*
G37*
X150984254Y-100921076D02*
X151059803Y-101321822D01*
X151338567Y-101436738D01*
X151617332Y-101551654D01*
X151951756Y-101324248D01*
X152017946Y-101279417D01*
X152105693Y-101220571D01*
X152181663Y-101170310D01*
X152241911Y-101131215D01*
X152282491Y-101105865D01*
X152299457Y-101096842D01*
X152309877Y-101103259D01*
X152341025Y-101130147D01*
X152388161Y-101174274D01*
X152447293Y-101231587D01*
X152514426Y-101298035D01*
X152585566Y-101369565D01*
X152656719Y-101442126D01*
X152723892Y-101511667D01*
X152783090Y-101574135D01*
X152830319Y-101625478D01*
X152861586Y-101661645D01*
X152872895Y-101678583D01*
X152870264Y-101685861D01*
X152852048Y-101718324D01*
X152818782Y-101771749D01*
X152773164Y-101841949D01*
X152717890Y-101924736D01*
X152655658Y-102015921D01*
X152621506Y-102065652D01*
X152562757Y-102152231D01*
X152512388Y-102227791D01*
X152473086Y-102288233D01*
X152447535Y-102329461D01*
X152438422Y-102347376D01*
X152438571Y-102348369D01*
X152446611Y-102371080D01*
X152465054Y-102417455D01*
X152491331Y-102481437D01*
X152522871Y-102556968D01*
X152557102Y-102637989D01*
X152591454Y-102718443D01*
X152623355Y-102792272D01*
X152650235Y-102853418D01*
X152669522Y-102895822D01*
X152678646Y-102913426D01*
X152684045Y-102914988D01*
X152716846Y-102922031D01*
X152775306Y-102933699D01*
X152854746Y-102949080D01*
X152950486Y-102967260D01*
X153057846Y-102987330D01*
X153114431Y-102997971D01*
X153218289Y-103018273D01*
X153309097Y-103037022D01*
X153381891Y-103053142D01*
X153431708Y-103065556D01*
X153453586Y-103073186D01*
X153457516Y-103080750D01*
X153464034Y-103117709D01*
X153469156Y-103179265D01*
X153472884Y-103259627D01*
X153475223Y-103353003D01*
X153476177Y-103453601D01*
X153475749Y-103555628D01*
X153473945Y-103653293D01*
X153470766Y-103740804D01*
X153466219Y-103812369D01*
X153460306Y-103862196D01*
X153453031Y-103884493D01*
X153448617Y-103887008D01*
X153415694Y-103897796D01*
X153358582Y-103912069D01*
X153283882Y-103928264D01*
X153198196Y-103944819D01*
X153169285Y-103950092D01*
X153035755Y-103974613D01*
X152930813Y-103994321D01*
X152850820Y-104010031D01*
X152792139Y-104022562D01*
X152751132Y-104032729D01*
X152724161Y-104041351D01*
X152707588Y-104049245D01*
X152697775Y-104057227D01*
X152696635Y-104058567D01*
X152680588Y-104086497D01*
X152656843Y-104137604D01*
X152627701Y-104205892D01*
X152595463Y-104285366D01*
X152562430Y-104370029D01*
X152530904Y-104453887D01*
X152503186Y-104530944D01*
X152481577Y-104595204D01*
X152468379Y-104640672D01*
X152465893Y-104661352D01*
X152467555Y-104664035D01*
X152484765Y-104689984D01*
X152517130Y-104737845D01*
X152561650Y-104803210D01*
X152615323Y-104881670D01*
X152675149Y-104968815D01*
X152691567Y-104992792D01*
X152749303Y-105078795D01*
X152799200Y-105155711D01*
X152838409Y-105218977D01*
X152864083Y-105264032D01*
X152873374Y-105286315D01*
X152871372Y-105292173D01*
X152850503Y-105321041D01*
X152809331Y-105368180D01*
X152750803Y-105430420D01*
X152677867Y-105504587D01*
X152593473Y-105587508D01*
X152545234Y-105633921D01*
X152468962Y-105706208D01*
X152402205Y-105768124D01*
X152348546Y-105816411D01*
X152311570Y-105847807D01*
X152294863Y-105859054D01*
X152283385Y-105854884D01*
X152248045Y-105835163D01*
X152196723Y-105802910D01*
X152136113Y-105762211D01*
X152093020Y-105732511D01*
X152006987Y-105673530D01*
X151915179Y-105610890D01*
X151831323Y-105553969D01*
X151667053Y-105442859D01*
X151529160Y-105517416D01*
X151496690Y-105534625D01*
X151437642Y-105564060D01*
X151391979Y-105584383D01*
X151367574Y-105591960D01*
X151359588Y-105582230D01*
X151339756Y-105545179D01*
X151310462Y-105484093D01*
X151273338Y-105402849D01*
X151230013Y-105305323D01*
X151182118Y-105195391D01*
X151131281Y-105076932D01*
X151079133Y-104953821D01*
X151027304Y-104829935D01*
X150977424Y-104709150D01*
X150931123Y-104595344D01*
X150890031Y-104492393D01*
X150855778Y-104404173D01*
X150829993Y-104334562D01*
X150814308Y-104287436D01*
X150810351Y-104266672D01*
X150810619Y-104266065D01*
X150829050Y-104246870D01*
X150867602Y-104216806D01*
X150918316Y-104182109D01*
X150934324Y-104171514D01*
X151056125Y-104070998D01*
X151156929Y-103951277D01*
X151234351Y-103817334D01*
X151286004Y-103674153D01*
X151309500Y-103526716D01*
X151302454Y-103380007D01*
X151273910Y-103249520D01*
X151222659Y-103117757D01*
X151147945Y-103000206D01*
X151045414Y-102888542D01*
X151005127Y-102852869D01*
X150874889Y-102764980D01*
X150734197Y-102705788D01*
X150587127Y-102674765D01*
X150437758Y-102671379D01*
X150290167Y-102695102D01*
X150148429Y-102745404D01*
X150016623Y-102821755D01*
X149898826Y-102923625D01*
X149799114Y-103050484D01*
X149779943Y-103081900D01*
X149714783Y-103225492D01*
X149680177Y-103375017D01*
X149675218Y-103526605D01*
X149699001Y-103676382D01*
X149750619Y-103820476D01*
X149829166Y-103955015D01*
X149933736Y-104076125D01*
X150063422Y-104179934D01*
X150067634Y-104182732D01*
X150117810Y-104218090D01*
X150155417Y-104248153D01*
X150172594Y-104266672D01*
X150170426Y-104281190D01*
X150156951Y-104323465D01*
X150133058Y-104388986D01*
X150100375Y-104473877D01*
X150060533Y-104574259D01*
X150015160Y-104686257D01*
X149965887Y-104805991D01*
X149914341Y-104929584D01*
X149862154Y-105053159D01*
X149810953Y-105172839D01*
X149762368Y-105284745D01*
X149718030Y-105385000D01*
X149679566Y-105469727D01*
X149648606Y-105535047D01*
X149626779Y-105577084D01*
X149615716Y-105591960D01*
X149606516Y-105589946D01*
X149570371Y-105575466D01*
X149516951Y-105550078D01*
X149454131Y-105517416D01*
X149316238Y-105442859D01*
X149151968Y-105553969D01*
X149103436Y-105586870D01*
X149013166Y-105648345D01*
X148923171Y-105709918D01*
X148847177Y-105762211D01*
X148805237Y-105790709D01*
X148750726Y-105826116D01*
X148710309Y-105850355D01*
X148690568Y-105859342D01*
X148682087Y-105855526D01*
X148651429Y-105832156D01*
X148604168Y-105791010D01*
X148544416Y-105736135D01*
X148476288Y-105671577D01*
X148403896Y-105601385D01*
X148331356Y-105529606D01*
X148262780Y-105460286D01*
X148202282Y-105397473D01*
X148153976Y-105345214D01*
X148121976Y-105307557D01*
X148110395Y-105288548D01*
X148111063Y-105284931D01*
X148124847Y-105255493D01*
X148154292Y-105204562D01*
X148196553Y-105136738D01*
X148248785Y-105056623D01*
X148308142Y-104968815D01*
X148324789Y-104944596D01*
X148383244Y-104859368D01*
X148434733Y-104784021D01*
X148476256Y-104722963D01*
X148504811Y-104680604D01*
X148517398Y-104661352D01*
X148517707Y-104660527D01*
X148513993Y-104636973D01*
X148499807Y-104589259D01*
X148477451Y-104523379D01*
X148449227Y-104445330D01*
X148417435Y-104361107D01*
X148384378Y-104276705D01*
X148352356Y-104198121D01*
X148323671Y-104131350D01*
X148300623Y-104082386D01*
X148285515Y-104057227D01*
X148284002Y-104055665D01*
X148273185Y-104047763D01*
X148254915Y-104039794D01*
X148225556Y-104030941D01*
X148181470Y-104020387D01*
X148119018Y-104007315D01*
X148034564Y-103990908D01*
X147924469Y-103970348D01*
X147785095Y-103944819D01*
X147756187Y-103939446D01*
X147673377Y-103922837D01*
X147603718Y-103907100D01*
X147553812Y-103893798D01*
X147530259Y-103884493D01*
X147526319Y-103876730D01*
X147519750Y-103839442D01*
X147514544Y-103777625D01*
X147510706Y-103697072D01*
X147508239Y-103603575D01*
X147507147Y-103502926D01*
X147507435Y-103400917D01*
X147509107Y-103303339D01*
X147512165Y-103215985D01*
X147516615Y-103144647D01*
X147522460Y-103095117D01*
X147529704Y-103073186D01*
X147537101Y-103069946D01*
X147573896Y-103059733D01*
X147636091Y-103045289D01*
X147718723Y-103027689D01*
X147816828Y-103008010D01*
X147925444Y-102987330D01*
X147984750Y-102976281D01*
X148086398Y-102957121D01*
X148173890Y-102940344D01*
X148242549Y-102926861D01*
X148287693Y-102917584D01*
X148304644Y-102913426D01*
X148305281Y-102912569D01*
X148316077Y-102890793D01*
X148336657Y-102845171D01*
X148364449Y-102781758D01*
X148396882Y-102706607D01*
X148431382Y-102625770D01*
X148465378Y-102545299D01*
X148496297Y-102471249D01*
X148521566Y-102409672D01*
X148538615Y-102366621D01*
X148544869Y-102348150D01*
X148542110Y-102341650D01*
X148523750Y-102310722D01*
X148490446Y-102258663D01*
X148444874Y-102189559D01*
X148389711Y-102107493D01*
X148327632Y-102016552D01*
X148293573Y-101966748D01*
X148234797Y-101879431D01*
X148184403Y-101802798D01*
X148145080Y-101741031D01*
X148119514Y-101698306D01*
X148110395Y-101678805D01*
X148116732Y-101668227D01*
X148143237Y-101636619D01*
X148186720Y-101588783D01*
X148243189Y-101528773D01*
X148308653Y-101460642D01*
X148379121Y-101388445D01*
X148450601Y-101316233D01*
X148519100Y-101248062D01*
X148580629Y-101187983D01*
X148631194Y-101140051D01*
X148666805Y-101108320D01*
X148683470Y-101096842D01*
X148692720Y-101101305D01*
X148726689Y-101122002D01*
X148781505Y-101157227D01*
X148853218Y-101204396D01*
X148937878Y-101260931D01*
X149031535Y-101324248D01*
X149365959Y-101551654D01*
X149923487Y-101321822D01*
X149999036Y-100921076D01*
X150074585Y-100520329D01*
X150908706Y-100520329D01*
X150984254Y-100921076D01*
G36*
X150984254Y-100921076D02*
G01*
X151059803Y-101321822D01*
X151338567Y-101436738D01*
X151617332Y-101551654D01*
X151951756Y-101324248D01*
X152017946Y-101279417D01*
X152105693Y-101220571D01*
X152181663Y-101170310D01*
X152241911Y-101131215D01*
X152282491Y-101105865D01*
X152299457Y-101096842D01*
X152309877Y-101103259D01*
X152341025Y-101130147D01*
X152388161Y-101174274D01*
X152447293Y-101231587D01*
X152514426Y-101298035D01*
X152585566Y-101369565D01*
X152656719Y-101442126D01*
X152723892Y-101511667D01*
X152783090Y-101574135D01*
X152830319Y-101625478D01*
X152861586Y-101661645D01*
X152872895Y-101678583D01*
X152870264Y-101685861D01*
X152852048Y-101718324D01*
X152818782Y-101771749D01*
X152773164Y-101841949D01*
X152717890Y-101924736D01*
X152655658Y-102015921D01*
X152621506Y-102065652D01*
X152562757Y-102152231D01*
X152512388Y-102227791D01*
X152473086Y-102288233D01*
X152447535Y-102329461D01*
X152438422Y-102347376D01*
X152438571Y-102348369D01*
X152446611Y-102371080D01*
X152465054Y-102417455D01*
X152491331Y-102481437D01*
X152522871Y-102556968D01*
X152557102Y-102637989D01*
X152591454Y-102718443D01*
X152623355Y-102792272D01*
X152650235Y-102853418D01*
X152669522Y-102895822D01*
X152678646Y-102913426D01*
X152684045Y-102914988D01*
X152716846Y-102922031D01*
X152775306Y-102933699D01*
X152854746Y-102949080D01*
X152950486Y-102967260D01*
X153057846Y-102987330D01*
X153114431Y-102997971D01*
X153218289Y-103018273D01*
X153309097Y-103037022D01*
X153381891Y-103053142D01*
X153431708Y-103065556D01*
X153453586Y-103073186D01*
X153457516Y-103080750D01*
X153464034Y-103117709D01*
X153469156Y-103179265D01*
X153472884Y-103259627D01*
X153475223Y-103353003D01*
X153476177Y-103453601D01*
X153475749Y-103555628D01*
X153473945Y-103653293D01*
X153470766Y-103740804D01*
X153466219Y-103812369D01*
X153460306Y-103862196D01*
X153453031Y-103884493D01*
X153448617Y-103887008D01*
X153415694Y-103897796D01*
X153358582Y-103912069D01*
X153283882Y-103928264D01*
X153198196Y-103944819D01*
X153169285Y-103950092D01*
X153035755Y-103974613D01*
X152930813Y-103994321D01*
X152850820Y-104010031D01*
X152792139Y-104022562D01*
X152751132Y-104032729D01*
X152724161Y-104041351D01*
X152707588Y-104049245D01*
X152697775Y-104057227D01*
X152696635Y-104058567D01*
X152680588Y-104086497D01*
X152656843Y-104137604D01*
X152627701Y-104205892D01*
X152595463Y-104285366D01*
X152562430Y-104370029D01*
X152530904Y-104453887D01*
X152503186Y-104530944D01*
X152481577Y-104595204D01*
X152468379Y-104640672D01*
X152465893Y-104661352D01*
X152467555Y-104664035D01*
X152484765Y-104689984D01*
X152517130Y-104737845D01*
X152561650Y-104803210D01*
X152615323Y-104881670D01*
X152675149Y-104968815D01*
X152691567Y-104992792D01*
X152749303Y-105078795D01*
X152799200Y-105155711D01*
X152838409Y-105218977D01*
X152864083Y-105264032D01*
X152873374Y-105286315D01*
X152871372Y-105292173D01*
X152850503Y-105321041D01*
X152809331Y-105368180D01*
X152750803Y-105430420D01*
X152677867Y-105504587D01*
X152593473Y-105587508D01*
X152545234Y-105633921D01*
X152468962Y-105706208D01*
X152402205Y-105768124D01*
X152348546Y-105816411D01*
X152311570Y-105847807D01*
X152294863Y-105859054D01*
X152283385Y-105854884D01*
X152248045Y-105835163D01*
X152196723Y-105802910D01*
X152136113Y-105762211D01*
X152093020Y-105732511D01*
X152006987Y-105673530D01*
X151915179Y-105610890D01*
X151831323Y-105553969D01*
X151667053Y-105442859D01*
X151529160Y-105517416D01*
X151496690Y-105534625D01*
X151437642Y-105564060D01*
X151391979Y-105584383D01*
X151367574Y-105591960D01*
X151359588Y-105582230D01*
X151339756Y-105545179D01*
X151310462Y-105484093D01*
X151273338Y-105402849D01*
X151230013Y-105305323D01*
X151182118Y-105195391D01*
X151131281Y-105076932D01*
X151079133Y-104953821D01*
X151027304Y-104829935D01*
X150977424Y-104709150D01*
X150931123Y-104595344D01*
X150890031Y-104492393D01*
X150855778Y-104404173D01*
X150829993Y-104334562D01*
X150814308Y-104287436D01*
X150810351Y-104266672D01*
X150810619Y-104266065D01*
X150829050Y-104246870D01*
X150867602Y-104216806D01*
X150918316Y-104182109D01*
X150934324Y-104171514D01*
X151056125Y-104070998D01*
X151156929Y-103951277D01*
X151234351Y-103817334D01*
X151286004Y-103674153D01*
X151309500Y-103526716D01*
X151302454Y-103380007D01*
X151273910Y-103249520D01*
X151222659Y-103117757D01*
X151147945Y-103000206D01*
X151045414Y-102888542D01*
X151005127Y-102852869D01*
X150874889Y-102764980D01*
X150734197Y-102705788D01*
X150587127Y-102674765D01*
X150437758Y-102671379D01*
X150290167Y-102695102D01*
X150148429Y-102745404D01*
X150016623Y-102821755D01*
X149898826Y-102923625D01*
X149799114Y-103050484D01*
X149779943Y-103081900D01*
X149714783Y-103225492D01*
X149680177Y-103375017D01*
X149675218Y-103526605D01*
X149699001Y-103676382D01*
X149750619Y-103820476D01*
X149829166Y-103955015D01*
X149933736Y-104076125D01*
X150063422Y-104179934D01*
X150067634Y-104182732D01*
X150117810Y-104218090D01*
X150155417Y-104248153D01*
X150172594Y-104266672D01*
X150170426Y-104281190D01*
X150156951Y-104323465D01*
X150133058Y-104388986D01*
X150100375Y-104473877D01*
X150060533Y-104574259D01*
X150015160Y-104686257D01*
X149965887Y-104805991D01*
X149914341Y-104929584D01*
X149862154Y-105053159D01*
X149810953Y-105172839D01*
X149762368Y-105284745D01*
X149718030Y-105385000D01*
X149679566Y-105469727D01*
X149648606Y-105535047D01*
X149626779Y-105577084D01*
X149615716Y-105591960D01*
X149606516Y-105589946D01*
X149570371Y-105575466D01*
X149516951Y-105550078D01*
X149454131Y-105517416D01*
X149316238Y-105442859D01*
X149151968Y-105553969D01*
X149103436Y-105586870D01*
X149013166Y-105648345D01*
X148923171Y-105709918D01*
X148847177Y-105762211D01*
X148805237Y-105790709D01*
X148750726Y-105826116D01*
X148710309Y-105850355D01*
X148690568Y-105859342D01*
X148682087Y-105855526D01*
X148651429Y-105832156D01*
X148604168Y-105791010D01*
X148544416Y-105736135D01*
X148476288Y-105671577D01*
X148403896Y-105601385D01*
X148331356Y-105529606D01*
X148262780Y-105460286D01*
X148202282Y-105397473D01*
X148153976Y-105345214D01*
X148121976Y-105307557D01*
X148110395Y-105288548D01*
X148111063Y-105284931D01*
X148124847Y-105255493D01*
X148154292Y-105204562D01*
X148196553Y-105136738D01*
X148248785Y-105056623D01*
X148308142Y-104968815D01*
X148324789Y-104944596D01*
X148383244Y-104859368D01*
X148434733Y-104784021D01*
X148476256Y-104722963D01*
X148504811Y-104680604D01*
X148517398Y-104661352D01*
X148517707Y-104660527D01*
X148513993Y-104636973D01*
X148499807Y-104589259D01*
X148477451Y-104523379D01*
X148449227Y-104445330D01*
X148417435Y-104361107D01*
X148384378Y-104276705D01*
X148352356Y-104198121D01*
X148323671Y-104131350D01*
X148300623Y-104082386D01*
X148285515Y-104057227D01*
X148284002Y-104055665D01*
X148273185Y-104047763D01*
X148254915Y-104039794D01*
X148225556Y-104030941D01*
X148181470Y-104020387D01*
X148119018Y-104007315D01*
X148034564Y-103990908D01*
X147924469Y-103970348D01*
X147785095Y-103944819D01*
X147756187Y-103939446D01*
X147673377Y-103922837D01*
X147603718Y-103907100D01*
X147553812Y-103893798D01*
X147530259Y-103884493D01*
X147526319Y-103876730D01*
X147519750Y-103839442D01*
X147514544Y-103777625D01*
X147510706Y-103697072D01*
X147508239Y-103603575D01*
X147507147Y-103502926D01*
X147507435Y-103400917D01*
X147509107Y-103303339D01*
X147512165Y-103215985D01*
X147516615Y-103144647D01*
X147522460Y-103095117D01*
X147529704Y-103073186D01*
X147537101Y-103069946D01*
X147573896Y-103059733D01*
X147636091Y-103045289D01*
X147718723Y-103027689D01*
X147816828Y-103008010D01*
X147925444Y-102987330D01*
X147984750Y-102976281D01*
X148086398Y-102957121D01*
X148173890Y-102940344D01*
X148242549Y-102926861D01*
X148287693Y-102917584D01*
X148304644Y-102913426D01*
X148305281Y-102912569D01*
X148316077Y-102890793D01*
X148336657Y-102845171D01*
X148364449Y-102781758D01*
X148396882Y-102706607D01*
X148431382Y-102625770D01*
X148465378Y-102545299D01*
X148496297Y-102471249D01*
X148521566Y-102409672D01*
X148538615Y-102366621D01*
X148544869Y-102348150D01*
X148542110Y-102341650D01*
X148523750Y-102310722D01*
X148490446Y-102258663D01*
X148444874Y-102189559D01*
X148389711Y-102107493D01*
X148327632Y-102016552D01*
X148293573Y-101966748D01*
X148234797Y-101879431D01*
X148184403Y-101802798D01*
X148145080Y-101741031D01*
X148119514Y-101698306D01*
X148110395Y-101678805D01*
X148116732Y-101668227D01*
X148143237Y-101636619D01*
X148186720Y-101588783D01*
X148243189Y-101528773D01*
X148308653Y-101460642D01*
X148379121Y-101388445D01*
X148450601Y-101316233D01*
X148519100Y-101248062D01*
X148580629Y-101187983D01*
X148631194Y-101140051D01*
X148666805Y-101108320D01*
X148683470Y-101096842D01*
X148692720Y-101101305D01*
X148726689Y-101122002D01*
X148781505Y-101157227D01*
X148853218Y-101204396D01*
X148937878Y-101260931D01*
X149031535Y-101324248D01*
X149365959Y-101551654D01*
X149923487Y-101321822D01*
X149999036Y-100921076D01*
X150074585Y-100520329D01*
X150908706Y-100520329D01*
X150984254Y-100921076D01*
G37*
%TD*%
M02*
