M48
; DRILL file {KiCad 8.0.7} date 2025-03-05T10:45:31+0200
; FORMAT={-:-/ absolute / inch / decimal}
; #@! TF.CreationDate,2025-03-05T10:45:31+02:00
; #@! TF.GenerationSoftware,Kicad,Pcbnew,8.0.7
; #@! TF.FileFunction,Plated,1,2,PTH
FMAT,2
INCH
; #@! TA.AperFunction,Plated,PTH,ViaDrill
T1C0.0197
; #@! TA.AperFunction,Plated,PTH,ComponentDrill
T2C0.0295
; #@! TA.AperFunction,Plated,PTH,ComponentDrill
T3C0.0315
; #@! TA.AperFunction,Plated,PTH,ComponentDrill
T4C0.0394
; #@! TA.AperFunction,Plated,PTH,ComponentDrill
T5C0.0433
%
G90
G05
T1
X5.6165Y-3.1102
T2
X4.8874Y-3.2776
X4.9374Y-3.2776
X4.9874Y-3.2776
X5.1433Y-3.3843
X5.1933Y-3.3843
X5.2433Y-3.3843
X5.6575Y-2.4669
X5.6575Y-2.5169
X5.6575Y-2.5669
T3
X4.335Y-2.548
X4.335Y-2.948
X4.337Y-3.0579
X4.337Y-3.4579
X5.3114Y-2.3327
X5.4264Y-2.874
X5.7114Y-2.3327
X5.8264Y-2.874
X5.8311Y-2.3197
X5.8311Y-2.7197
T4
X4.1382Y-2.5433
X4.1382Y-2.6417
X4.1382Y-2.7402
X4.4545Y-1.9488
X4.5545Y-1.9488
X4.9949Y-1.9488
X5.0949Y-1.9488
X5.5051Y-1.9488
X5.6051Y-1.9488
X5.7051Y-1.9488
T5
X4.5106Y-2.6986
X4.5106Y-3.01
X4.6106Y-2.6986
X4.6106Y-3.01
X4.7106Y-2.6986
X4.7106Y-3.01
X5.0776Y-2.6986
X5.0854Y-3.01
X5.1776Y-2.6986
X5.1854Y-3.01
X5.198Y-3.2126
X5.2776Y-2.6986
X5.2854Y-3.01
X5.598Y-3.2126
M30
