M48
; DRILL file {KiCad 9.0.1} date 2025-06-18T14:20:39+0300
; FORMAT={-:-/ absolute / metric / decimal}
; #@! TF.CreationDate,2025-06-18T14:20:39+03:00
; #@! TF.GenerationSoftware,Kicad,Pcbnew,9.0.1
; #@! TF.FileFunction,Plated,1,2,PTH
FMAT,2
METRIC
; #@! TA.AperFunction,Plated,PTH,ViaDrill
T1C0.300
; #@! TA.AperFunction,Plated,PTH,ComponentDrill
T2C0.750
; #@! TA.AperFunction,Plated,PTH,ComponentDrill
T3C0.800
; #@! TA.AperFunction,Plated,PTH,ComponentDrill
T4C0.900
; #@! TA.AperFunction,Plated,PTH,ComponentDrill
T5C1.000
; #@! TA.AperFunction,Plated,PTH,ComponentDrill
T6C1.100
; #@! TA.AperFunction,Plated,PTH,ComponentDrill
T7C1.200
%
G90
G05
T1
X120.2Y-100.3
X121.45Y-98.85
X121.7Y-94.8
X121.75Y-98.05
X121.85Y-93.85
X123.0Y-93.15
X126.1Y-90.45
X126.3Y-96.8
X127.2Y-95.65
X128.4Y-99.7
T2
X124.75Y-107.45
X126.75Y-107.45
X128.75Y-107.45
X130.75Y-107.45
X132.75Y-107.45
X134.75Y-107.45
T3
X116.6Y-92.09
X116.6Y-99.71
X118.65Y-83.4
X121.15Y-83.4
X121.15Y-87.65
X123.4Y-103.6
X123.5Y-83.4
X125.9Y-103.6
X126.0Y-83.4
X126.05Y-87.65
X129.827Y-69.522
X129.827Y-72.522
X129.827Y-76.272
X131.017Y-84.608
X131.017Y-87.147
X131.017Y-89.688
X131.017Y-92.227
X131.017Y-94.767
X131.017Y-97.307
X131.017Y-99.847
X137.447Y-69.522
X137.447Y-72.522
X137.447Y-76.272
X138.637Y-84.608
X138.637Y-87.147
X138.637Y-89.688
X138.637Y-92.227
X138.637Y-94.767
X138.637Y-97.307
X138.637Y-99.847
X141.827Y-69.522
X141.827Y-76.272
X141.887Y-72.522
X143.237Y-87.267
X143.237Y-89.267
X149.447Y-69.522
X149.447Y-76.272
X149.507Y-72.522
X153.327Y-69.522
X153.327Y-72.522
X153.387Y-76.272
X155.118Y-84.582
X155.118Y-87.123
X155.118Y-89.662
X155.118Y-92.203
X155.118Y-94.742
X155.118Y-97.282
X155.118Y-99.822
X160.947Y-69.522
X160.947Y-72.522
X161.007Y-76.272
X162.737Y-84.582
X162.737Y-87.123
X162.737Y-89.662
X162.737Y-92.203
X162.737Y-94.742
X162.737Y-97.282
X162.737Y-99.822
X164.577Y-69.522
X164.577Y-72.522
X164.577Y-76.272
X168.037Y-87.467
X168.037Y-89.467
X172.197Y-69.522
X172.197Y-72.522
X172.197Y-76.272
X186.517Y-87.022
X186.517Y-90.522
X193.637Y-93.272
X193.637Y-98.272
X194.137Y-87.022
X194.137Y-90.522
X199.137Y-87.522
X199.137Y-89.522
X199.137Y-94.522
X199.137Y-96.522
T4
X186.367Y-96.022
X188.907Y-96.022
X191.617Y-83.022
X194.157Y-83.022
T5
X119.2Y-73.5
X119.2Y-76.04
X170.0Y-104.272
X172.54Y-104.272
X177.5Y-101.66
X177.5Y-104.2
X184.445Y-104.25
X186.985Y-104.25
X187.373Y-76.772
X189.525Y-104.25
X189.912Y-76.772
X195.862Y-104.272
X198.403Y-104.272
X206.637Y-88.922
X206.637Y-91.422
X206.637Y-93.922
T6
X125.938Y-69.142
X125.938Y-79.302
X131.097Y-64.968
X133.637Y-64.968
X136.177Y-64.968
X143.097Y-64.968
X145.637Y-64.968
X148.177Y-64.968
X154.597Y-64.968
X157.137Y-64.968
X159.677Y-64.968
X166.058Y-65.022
X168.597Y-65.022
X171.137Y-65.022
X176.438Y-69.642
X176.438Y-79.802
X180.058Y-65.022
X182.597Y-65.022
X185.137Y-65.022
X193.097Y-65.022
X195.637Y-65.022
X198.177Y-65.022
T7
X202.387Y-72.772
X202.387Y-80.272
M30
