%TF.GenerationSoftware,KiCad,Pcbnew,8.0.7*%
%TF.CreationDate,2025-03-05T10:46:07+02:00*%
%TF.ProjectId,H bridge,48206272-6964-4676-952e-6b696361645f,rev?*%
%TF.SameCoordinates,Original*%
%TF.FileFunction,Copper,L1,Top*%
%TF.FilePolarity,Positive*%
%FSLAX46Y46*%
G04 Gerber Fmt 4.6, Leading zero omitted, Abs format (unit mm)*
G04 Created by KiCad (PCBNEW 8.0.7) date 2025-03-05 10:46:07*
%MOMM*%
%LPD*%
G01*
G04 APERTURE LIST*
%TA.AperFunction,ComponentPad*%
%ADD10R,1.700000X1.700000*%
%TD*%
%TA.AperFunction,ComponentPad*%
%ADD11O,1.700000X1.700000*%
%TD*%
%TA.AperFunction,ComponentPad*%
%ADD12C,1.508000*%
%TD*%
%TA.AperFunction,ComponentPad*%
%ADD13O,1.600000X1.600000*%
%TD*%
%TA.AperFunction,ComponentPad*%
%ADD14C,1.600000*%
%TD*%
%TA.AperFunction,ComponentPad*%
%ADD15O,1.500000X1.050000*%
%TD*%
%TA.AperFunction,ComponentPad*%
%ADD16R,1.500000X1.050000*%
%TD*%
%TA.AperFunction,ComponentPad*%
%ADD17O,1.905000X2.000000*%
%TD*%
%TA.AperFunction,ComponentPad*%
%ADD18R,1.905000X2.000000*%
%TD*%
%TA.AperFunction,ComponentPad*%
%ADD19O,2.200000X2.200000*%
%TD*%
%TA.AperFunction,ComponentPad*%
%ADD20R,2.200000X2.200000*%
%TD*%
%TA.AperFunction,ComponentPad*%
%ADD21O,1.050000X1.500000*%
%TD*%
%TA.AperFunction,ComponentPad*%
%ADD22R,1.050000X1.500000*%
%TD*%
%TA.AperFunction,ViaPad*%
%ADD23C,1.000000*%
%TD*%
%TA.AperFunction,Conductor*%
%ADD24C,1.000000*%
%TD*%
G04 APERTURE END LIST*
D10*
%TO.P,J6,1,Pin_1*%
%TO.N,Signal_in*%
X144910000Y-49500000D03*
D11*
%TO.P,J6,2,Pin_2*%
%TO.N,+5V*%
X142370000Y-49500000D03*
%TO.P,J6,3,Pin_3*%
%TO.N,GND*%
X139830000Y-49500000D03*
%TD*%
D10*
%TO.P,J5,1,Pin_1*%
%TO.N,Net-(J5-Pin_1)*%
X126870000Y-49500000D03*
D11*
%TO.P,J5,2,Pin_2*%
%TO.N,Net-(J5-Pin_2)*%
X129410000Y-49500000D03*
%TD*%
D10*
%TO.P,J4,1,Pin_1*%
%TO.N,GND*%
X115685000Y-49500000D03*
D11*
%TO.P,J4,2,Pin_2*%
%TO.N,+24V*%
X113145000Y-49500000D03*
%TD*%
D12*
%TO.P,SW1,3*%
%TO.N,N/C*%
X105110000Y-64600000D03*
%TO.P,SW1,2,B*%
%TO.N,+24V*%
X105110000Y-67100000D03*
%TO.P,SW1,1,A*%
%TO.N,Net-(Q1-D)*%
X105110000Y-69600000D03*
%TD*%
D13*
%TO.P,R5,2*%
%TO.N,Net-(Q6-B)*%
X148110000Y-69080000D03*
D14*
%TO.P,R5,1*%
%TO.N,Net-(D1-K)*%
X148110000Y-58920000D03*
%TD*%
D13*
%TO.P,R1,2*%
%TO.N,Net-(Q1-D)*%
X110110000Y-74880000D03*
D14*
%TO.P,R1,1*%
%TO.N,Net-(Q1-G)*%
X110110000Y-64720000D03*
%TD*%
D15*
%TO.P,Q7,3,C*%
%TO.N,Net-(Q6-B)*%
X143700000Y-65200000D03*
%TO.P,Q7,2,B*%
%TO.N,Net-(D1-K)*%
X143700000Y-63930000D03*
D16*
%TO.P,Q7,1,E*%
%TO.N,+5V*%
X143700000Y-62660000D03*
%TD*%
D17*
%TO.P,Q2,3,S*%
%TO.N,GND*%
X134050000Y-68545000D03*
%TO.P,Q2,2,D*%
%TO.N,Net-(J5-Pin_1)*%
X131510000Y-68545000D03*
D18*
%TO.P,Q2,1,G*%
%TO.N,Net-(Q2-G)*%
X128970000Y-68545000D03*
%TD*%
D17*
%TO.P,Q1,3,S*%
%TO.N,Net-(J5-Pin_1)*%
X119650000Y-68545000D03*
%TO.P,Q1,2,D*%
%TO.N,Net-(Q1-D)*%
X117110000Y-68545000D03*
D18*
%TO.P,Q1,1,G*%
%TO.N,Net-(Q1-G)*%
X114570000Y-68545000D03*
%TD*%
D19*
%TO.P,D1,2,A*%
%TO.N,Signal_in*%
X132030000Y-81600000D03*
D20*
%TO.P,D1,1,K*%
%TO.N,Net-(D1-K)*%
X142190000Y-81600000D03*
%TD*%
D13*
%TO.P,R4,2*%
%TO.N,GND*%
X137830000Y-73000000D03*
D14*
%TO.P,R4,1*%
%TO.N,Net-(Q6-B)*%
X147990000Y-73000000D03*
%TD*%
D13*
%TO.P,R3,2*%
%TO.N,GND*%
X134910000Y-59250000D03*
D14*
%TO.P,R3,1*%
%TO.N,Signal_in*%
X145070000Y-59250000D03*
%TD*%
D17*
%TO.P,Q3,3,S*%
%TO.N,Net-(J5-Pin_2)*%
X114570000Y-76455000D03*
%TO.P,Q3,2,D*%
%TO.N,Net-(Q1-D)*%
X117110000Y-76455000D03*
D18*
%TO.P,Q3,1,G*%
%TO.N,Net-(Q2-G)*%
X119650000Y-76455000D03*
%TD*%
D17*
%TO.P,Q4,3,S*%
%TO.N,GND*%
X129170000Y-76455000D03*
%TO.P,Q4,2,D*%
%TO.N,Net-(J5-Pin_2)*%
X131710000Y-76455000D03*
D18*
%TO.P,Q4,1,G*%
%TO.N,Net-(Q1-G)*%
X134250000Y-76455000D03*
%TD*%
D21*
%TO.P,Q6,3,C*%
%TO.N,Net-(Q2-G)*%
X124140000Y-83250000D03*
%TO.P,Q6,2,B*%
%TO.N,Net-(Q6-B)*%
X125410000Y-83250000D03*
D22*
%TO.P,Q6,1,E*%
%TO.N,GND*%
X126680000Y-83250000D03*
%TD*%
D13*
%TO.P,R2,2*%
%TO.N,Net-(Q2-G)*%
X110160000Y-87830000D03*
D14*
%TO.P,R2,1*%
%TO.N,Net-(Q1-D)*%
X110160000Y-77670000D03*
%TD*%
D21*
%TO.P,Q5,3,C*%
%TO.N,Net-(Q1-G)*%
X133180000Y-85960000D03*
%TO.P,Q5,2,B*%
%TO.N,Signal_in*%
X131910000Y-85960000D03*
D22*
%TO.P,Q5,1,E*%
%TO.N,GND*%
X130640000Y-85960000D03*
%TD*%
D23*
%TO.N,Signal_in*%
X142660000Y-79000000D03*
%TD*%
D24*
%TO.N,GND*%
X135000000Y-54330000D02*
X139830000Y-49500000D01*
X135000000Y-59250000D02*
X135000000Y-54330000D01*
%TO.N,Net-(J5-Pin_2)*%
X131710000Y-76455000D02*
X131710000Y-76700000D01*
X131710000Y-76700000D02*
X129210000Y-79200000D01*
X129210000Y-79200000D02*
X116310000Y-79200000D01*
X116310000Y-79200000D02*
X114570000Y-77460000D01*
X114570000Y-77460000D02*
X114570000Y-76455000D01*
%TO.N,GND*%
X134050000Y-69860000D02*
X129170000Y-74740000D01*
X134050000Y-68545000D02*
X134050000Y-69860000D01*
X129170000Y-74740000D02*
X129170000Y-76455000D01*
%TO.N,Net-(Q2-G)*%
X113410000Y-74000000D02*
X118160000Y-74000000D01*
X118160000Y-74000000D02*
X119650000Y-75490000D01*
X110160000Y-81250000D02*
X111910000Y-79500000D01*
X111910000Y-75500000D02*
X113410000Y-74000000D01*
X119650000Y-75490000D02*
X119650000Y-76455000D01*
X110160000Y-87830000D02*
X110160000Y-81250000D01*
X111910000Y-79500000D02*
X111910000Y-75500000D01*
%TO.N,Net-(Q6-B)*%
X126660000Y-81000000D02*
X125410000Y-82250000D01*
X147990000Y-73000000D02*
X147990000Y-69200000D01*
X129410000Y-81000000D02*
X126660000Y-81000000D01*
X142410000Y-73000000D02*
X136160000Y-79250000D01*
X147990000Y-73000000D02*
X142410000Y-73000000D01*
X147990000Y-69200000D02*
X148110000Y-69080000D01*
X131160000Y-79250000D02*
X129410000Y-81000000D01*
X136160000Y-79250000D02*
X131160000Y-79250000D01*
X125410000Y-82250000D02*
X125410000Y-83250000D01*
%TO.N,Signal_in*%
X142660000Y-79000000D02*
X140660000Y-79000000D01*
X140660000Y-79000000D02*
X138060000Y-81600000D01*
X138060000Y-81600000D02*
X132030000Y-81600000D01*
%TD*%
%TA.AperFunction,Conductor*%
%TO.N,GND*%
G36*
X151002702Y-43000617D02*
G01*
X151386771Y-43017386D01*
X151397506Y-43018326D01*
X151775971Y-43068152D01*
X151786597Y-43070025D01*
X152159284Y-43152648D01*
X152169710Y-43155442D01*
X152533765Y-43270227D01*
X152543911Y-43273920D01*
X152896578Y-43420000D01*
X152906369Y-43424566D01*
X153244942Y-43600816D01*
X153254310Y-43606224D01*
X153576244Y-43811318D01*
X153585105Y-43817523D01*
X153887930Y-44049889D01*
X153896217Y-44056843D01*
X154177635Y-44314715D01*
X154185284Y-44322364D01*
X154443156Y-44603782D01*
X154450110Y-44612069D01*
X154682476Y-44914894D01*
X154688681Y-44923755D01*
X154893775Y-45245689D01*
X154899183Y-45255057D01*
X155075430Y-45593623D01*
X155080002Y-45603427D01*
X155226075Y-45956078D01*
X155229775Y-45966244D01*
X155344554Y-46330278D01*
X155347354Y-46340727D01*
X155429971Y-46713389D01*
X155431849Y-46724042D01*
X155481671Y-47102473D01*
X155482614Y-47113249D01*
X155499382Y-47497297D01*
X155499500Y-47502706D01*
X155499500Y-87497293D01*
X155499382Y-87502702D01*
X155482614Y-87886750D01*
X155481671Y-87897526D01*
X155431849Y-88275957D01*
X155429971Y-88286610D01*
X155347354Y-88659272D01*
X155344554Y-88669721D01*
X155229775Y-89033755D01*
X155226075Y-89043921D01*
X155080002Y-89396572D01*
X155075430Y-89406376D01*
X154899183Y-89744942D01*
X154893775Y-89754310D01*
X154688681Y-90076244D01*
X154682476Y-90085105D01*
X154450110Y-90387930D01*
X154443156Y-90396217D01*
X154185284Y-90677635D01*
X154177635Y-90685284D01*
X153896217Y-90943156D01*
X153887930Y-90950110D01*
X153585105Y-91182476D01*
X153576244Y-91188681D01*
X153254310Y-91393775D01*
X153244942Y-91399183D01*
X152906376Y-91575430D01*
X152896572Y-91580002D01*
X152543921Y-91726075D01*
X152533755Y-91729775D01*
X152169721Y-91844554D01*
X152159272Y-91847354D01*
X151786610Y-91929971D01*
X151775957Y-91931849D01*
X151397526Y-91981671D01*
X151386750Y-91982614D01*
X151002703Y-91999382D01*
X150997294Y-91999500D01*
X105002706Y-91999500D01*
X104997297Y-91999382D01*
X104613249Y-91982614D01*
X104602473Y-91981671D01*
X104224042Y-91931849D01*
X104213389Y-91929971D01*
X103840727Y-91847354D01*
X103830278Y-91844554D01*
X103466244Y-91729775D01*
X103456078Y-91726075D01*
X103103427Y-91580002D01*
X103093623Y-91575430D01*
X102755057Y-91399183D01*
X102745689Y-91393775D01*
X102423755Y-91188681D01*
X102414894Y-91182476D01*
X102112069Y-90950110D01*
X102103782Y-90943156D01*
X101822364Y-90685284D01*
X101814715Y-90677635D01*
X101556843Y-90396217D01*
X101549889Y-90387930D01*
X101317523Y-90085105D01*
X101311318Y-90076244D01*
X101106224Y-89754310D01*
X101100816Y-89744942D01*
X100924569Y-89406376D01*
X100919997Y-89396572D01*
X100773920Y-89043911D01*
X100770224Y-89033755D01*
X100655442Y-88669710D01*
X100652648Y-88659284D01*
X100570025Y-88286597D01*
X100568152Y-88275971D01*
X100518326Y-87897506D01*
X100517386Y-87886771D01*
X100500618Y-87502702D01*
X100500500Y-87497293D01*
X100500500Y-87378711D01*
X103149500Y-87378711D01*
X103149500Y-87621288D01*
X103181161Y-87861785D01*
X103243947Y-88096104D01*
X103336773Y-88320205D01*
X103336776Y-88320212D01*
X103458064Y-88530289D01*
X103458066Y-88530292D01*
X103458067Y-88530293D01*
X103605733Y-88722736D01*
X103605739Y-88722743D01*
X103777256Y-88894260D01*
X103777262Y-88894265D01*
X103969711Y-89041936D01*
X104179788Y-89163224D01*
X104403900Y-89256054D01*
X104638211Y-89318838D01*
X104818586Y-89342584D01*
X104878711Y-89350500D01*
X104878712Y-89350500D01*
X105121289Y-89350500D01*
X105169388Y-89344167D01*
X105361789Y-89318838D01*
X105596100Y-89256054D01*
X105820212Y-89163224D01*
X106030289Y-89041936D01*
X106222738Y-88894265D01*
X106394265Y-88722738D01*
X106541936Y-88530289D01*
X106663224Y-88320212D01*
X106756054Y-88096100D01*
X106818838Y-87861789D01*
X106850500Y-87621288D01*
X106850500Y-87378712D01*
X106818838Y-87138211D01*
X106756054Y-86903900D01*
X106663224Y-86679788D01*
X106541936Y-86469711D01*
X106400972Y-86286003D01*
X106394266Y-86277263D01*
X106394260Y-86277256D01*
X106222743Y-86105739D01*
X106222736Y-86105733D01*
X106030293Y-85958067D01*
X106030292Y-85958066D01*
X106030289Y-85958064D01*
X105820212Y-85836776D01*
X105768256Y-85815255D01*
X105596104Y-85743947D01*
X105361785Y-85681161D01*
X105121289Y-85649500D01*
X105121288Y-85649500D01*
X104878712Y-85649500D01*
X104878711Y-85649500D01*
X104638214Y-85681161D01*
X104403895Y-85743947D01*
X104179794Y-85836773D01*
X104179785Y-85836777D01*
X103969706Y-85958067D01*
X103777263Y-86105733D01*
X103777256Y-86105739D01*
X103605739Y-86277256D01*
X103605733Y-86277263D01*
X103458067Y-86469706D01*
X103336777Y-86679785D01*
X103336773Y-86679794D01*
X103243947Y-86903895D01*
X103181161Y-87138214D01*
X103149500Y-87378711D01*
X100500500Y-87378711D01*
X100500500Y-74879998D01*
X108804532Y-74879998D01*
X108804532Y-74880001D01*
X108824364Y-75106686D01*
X108824366Y-75106697D01*
X108883258Y-75326488D01*
X108883261Y-75326497D01*
X108979431Y-75532732D01*
X108979432Y-75532734D01*
X109109954Y-75719141D01*
X109270858Y-75880045D01*
X109270861Y-75880047D01*
X109457266Y-76010568D01*
X109663504Y-76106739D01*
X109869458Y-76161924D01*
X109929117Y-76198288D01*
X109959647Y-76261134D01*
X109951353Y-76330510D01*
X109906868Y-76384388D01*
X109869458Y-76401473D01*
X109713508Y-76443259D01*
X109713502Y-76443261D01*
X109507267Y-76539431D01*
X109507265Y-76539432D01*
X109320858Y-76669954D01*
X109159954Y-76830858D01*
X109029432Y-77017265D01*
X109029431Y-77017267D01*
X108933261Y-77223502D01*
X108933258Y-77223511D01*
X108874366Y-77443302D01*
X108874364Y-77443313D01*
X108854532Y-77669998D01*
X108854532Y-77670001D01*
X108874364Y-77896686D01*
X108874366Y-77896697D01*
X108933258Y-78116488D01*
X108933261Y-78116497D01*
X109029431Y-78322732D01*
X109029432Y-78322734D01*
X109159954Y-78509141D01*
X109320858Y-78670045D01*
X109320861Y-78670047D01*
X109507266Y-78800568D01*
X109713504Y-78896739D01*
X109713509Y-78896740D01*
X109713511Y-78896741D01*
X109731119Y-78901459D01*
X109933308Y-78955635D01*
X110095230Y-78969801D01*
X110159998Y-78975468D01*
X110160000Y-78975468D01*
X110160002Y-78975468D01*
X110216673Y-78970509D01*
X110386692Y-78955635D01*
X110606496Y-78896739D01*
X110733096Y-78837703D01*
X110802172Y-78827212D01*
X110865956Y-78855731D01*
X110904196Y-78914208D01*
X110909500Y-78950086D01*
X110909500Y-79034217D01*
X110889815Y-79101256D01*
X110873181Y-79121898D01*
X109522220Y-80472859D01*
X109522218Y-80472861D01*
X109452538Y-80542540D01*
X109382859Y-80612219D01*
X109273371Y-80776079D01*
X109273364Y-80776092D01*
X109221437Y-80901458D01*
X109197950Y-80958159D01*
X109197947Y-80958171D01*
X109178724Y-81054812D01*
X109159500Y-81151455D01*
X109159500Y-86952410D01*
X109139815Y-87019449D01*
X109137076Y-87023532D01*
X109029431Y-87177267D01*
X108933261Y-87383502D01*
X108933258Y-87383511D01*
X108874366Y-87603302D01*
X108874364Y-87603313D01*
X108854532Y-87829998D01*
X108854532Y-87830001D01*
X108874364Y-88056686D01*
X108874366Y-88056697D01*
X108933258Y-88276488D01*
X108933261Y-88276497D01*
X109029431Y-88482732D01*
X109029432Y-88482734D01*
X109159954Y-88669141D01*
X109320858Y-88830045D01*
X109320861Y-88830047D01*
X109507266Y-88960568D01*
X109713504Y-89056739D01*
X109933308Y-89115635D01*
X110095230Y-89129801D01*
X110159998Y-89135468D01*
X110160000Y-89135468D01*
X110160002Y-89135468D01*
X110216673Y-89130509D01*
X110386692Y-89115635D01*
X110606496Y-89056739D01*
X110812734Y-88960568D01*
X110999139Y-88830047D01*
X111160047Y-88669139D01*
X111290568Y-88482734D01*
X111386739Y-88276496D01*
X111445635Y-88056692D01*
X111465468Y-87830000D01*
X111445635Y-87603308D01*
X111386739Y-87383504D01*
X111384504Y-87378711D01*
X149149500Y-87378711D01*
X149149500Y-87621288D01*
X149181161Y-87861785D01*
X149243947Y-88096104D01*
X149336773Y-88320205D01*
X149336776Y-88320212D01*
X149458064Y-88530289D01*
X149458066Y-88530292D01*
X149458067Y-88530293D01*
X149605733Y-88722736D01*
X149605739Y-88722743D01*
X149777256Y-88894260D01*
X149777262Y-88894265D01*
X149969711Y-89041936D01*
X150179788Y-89163224D01*
X150403900Y-89256054D01*
X150638211Y-89318838D01*
X150818586Y-89342584D01*
X150878711Y-89350500D01*
X150878712Y-89350500D01*
X151121289Y-89350500D01*
X151169388Y-89344167D01*
X151361789Y-89318838D01*
X151596100Y-89256054D01*
X151820212Y-89163224D01*
X152030289Y-89041936D01*
X152222738Y-88894265D01*
X152394265Y-88722738D01*
X152541936Y-88530289D01*
X152663224Y-88320212D01*
X152756054Y-88096100D01*
X152818838Y-87861789D01*
X152850500Y-87621288D01*
X152850500Y-87378712D01*
X152818838Y-87138211D01*
X152756054Y-86903900D01*
X152663224Y-86679788D01*
X152541936Y-86469711D01*
X152400972Y-86286003D01*
X152394266Y-86277263D01*
X152394260Y-86277256D01*
X152222743Y-86105739D01*
X152222736Y-86105733D01*
X152030293Y-85958067D01*
X152030292Y-85958066D01*
X152030289Y-85958064D01*
X151820212Y-85836776D01*
X151768256Y-85815255D01*
X151596104Y-85743947D01*
X151361785Y-85681161D01*
X151121289Y-85649500D01*
X151121288Y-85649500D01*
X150878712Y-85649500D01*
X150878711Y-85649500D01*
X150638214Y-85681161D01*
X150403895Y-85743947D01*
X150179794Y-85836773D01*
X150179785Y-85836777D01*
X149969706Y-85958067D01*
X149777263Y-86105733D01*
X149777256Y-86105739D01*
X149605739Y-86277256D01*
X149605733Y-86277263D01*
X149458067Y-86469706D01*
X149336777Y-86679785D01*
X149336773Y-86679794D01*
X149243947Y-86903895D01*
X149181161Y-87138214D01*
X149149500Y-87378711D01*
X111384504Y-87378711D01*
X111290568Y-87177266D01*
X111182924Y-87023532D01*
X111160597Y-86957326D01*
X111160500Y-86952410D01*
X111160500Y-85162155D01*
X129615000Y-85162155D01*
X129615000Y-85710000D01*
X130359670Y-85710000D01*
X130339925Y-85729745D01*
X130290556Y-85815255D01*
X130265000Y-85910630D01*
X130265000Y-86009370D01*
X130290556Y-86104745D01*
X130339925Y-86190255D01*
X130359670Y-86210000D01*
X129615000Y-86210000D01*
X129615000Y-86757844D01*
X129621401Y-86817372D01*
X129621403Y-86817379D01*
X129671645Y-86952086D01*
X129671649Y-86952093D01*
X129757809Y-87067187D01*
X129757812Y-87067190D01*
X129872906Y-87153350D01*
X129872913Y-87153354D01*
X130007620Y-87203596D01*
X130007627Y-87203598D01*
X130067155Y-87209999D01*
X130067172Y-87210000D01*
X130390000Y-87210000D01*
X130390000Y-86240330D01*
X130409745Y-86260075D01*
X130495255Y-86309444D01*
X130590630Y-86335000D01*
X130689370Y-86335000D01*
X130784745Y-86309444D01*
X130870255Y-86260075D01*
X130884500Y-86245830D01*
X130884500Y-86286002D01*
X130887617Y-86301671D01*
X130890000Y-86325865D01*
X130890000Y-87210000D01*
X131212828Y-87210000D01*
X131212844Y-87209999D01*
X131272372Y-87203598D01*
X131272376Y-87203597D01*
X131407089Y-87153352D01*
X131407896Y-87152748D01*
X131408845Y-87152393D01*
X131414876Y-87149101D01*
X131415349Y-87149967D01*
X131473360Y-87128329D01*
X131529661Y-87137451D01*
X131610873Y-87171091D01*
X131774288Y-87203596D01*
X131808992Y-87210499D01*
X131808996Y-87210500D01*
X131808997Y-87210500D01*
X132011004Y-87210500D01*
X132011005Y-87210499D01*
X132209127Y-87171091D01*
X132395756Y-87093786D01*
X132476110Y-87040094D01*
X132542786Y-87019217D01*
X132610166Y-87037701D01*
X132613865Y-87040078D01*
X132694244Y-87093786D01*
X132880873Y-87171091D01*
X133044288Y-87203596D01*
X133078992Y-87210499D01*
X133078996Y-87210500D01*
X133078997Y-87210500D01*
X133281004Y-87210500D01*
X133281005Y-87210499D01*
X133479127Y-87171091D01*
X133665756Y-87093786D01*
X133833718Y-86981558D01*
X133976558Y-86838718D01*
X134088786Y-86670756D01*
X134166091Y-86484127D01*
X134205500Y-86286003D01*
X134205500Y-85633997D01*
X134166091Y-85435873D01*
X134088786Y-85249244D01*
X134088784Y-85249241D01*
X134088782Y-85249237D01*
X133976558Y-85081281D01*
X133833718Y-84938441D01*
X133665762Y-84826217D01*
X133665752Y-84826212D01*
X133479127Y-84748909D01*
X133479119Y-84748907D01*
X133281007Y-84709500D01*
X133281003Y-84709500D01*
X133078997Y-84709500D01*
X133078992Y-84709500D01*
X132880880Y-84748907D01*
X132880872Y-84748909D01*
X132694244Y-84826213D01*
X132613891Y-84879904D01*
X132547213Y-84900782D01*
X132479833Y-84882297D01*
X132476109Y-84879904D01*
X132395755Y-84826213D01*
X132209127Y-84748909D01*
X132209119Y-84748907D01*
X132011007Y-84709500D01*
X132011003Y-84709500D01*
X131808997Y-84709500D01*
X131808992Y-84709500D01*
X131610880Y-84748907D01*
X131610868Y-84748910D01*
X131529661Y-84782547D01*
X131460191Y-84790016D01*
X131415140Y-84770405D01*
X131414872Y-84770897D01*
X131409374Y-84767894D01*
X131407895Y-84767251D01*
X131407086Y-84766645D01*
X131272379Y-84716403D01*
X131272372Y-84716401D01*
X131212844Y-84710000D01*
X130890000Y-84710000D01*
X130890000Y-85594134D01*
X130887617Y-85618326D01*
X130884500Y-85633995D01*
X130884500Y-85674170D01*
X130870255Y-85659925D01*
X130784745Y-85610556D01*
X130689370Y-85585000D01*
X130590630Y-85585000D01*
X130495255Y-85610556D01*
X130409745Y-85659925D01*
X130390000Y-85679670D01*
X130390000Y-84710000D01*
X130067155Y-84710000D01*
X130007627Y-84716401D01*
X130007620Y-84716403D01*
X129872913Y-84766645D01*
X129872906Y-84766649D01*
X129757812Y-84852809D01*
X129757809Y-84852812D01*
X129671649Y-84967906D01*
X129671645Y-84967913D01*
X129621403Y-85102620D01*
X129621401Y-85102627D01*
X129615000Y-85162155D01*
X111160500Y-85162155D01*
X111160500Y-81715782D01*
X111180185Y-81648743D01*
X111196819Y-81628101D01*
X112687135Y-80137786D01*
X112687138Y-80137783D01*
X112687138Y-80137782D01*
X112687140Y-80137781D01*
X112730340Y-80073127D01*
X112785306Y-79990865D01*
X112796627Y-79973922D01*
X112796628Y-79973919D01*
X112796632Y-79973914D01*
X112872051Y-79791835D01*
X112872051Y-79791832D01*
X112872053Y-79791828D01*
X112879329Y-79755250D01*
X112902694Y-79637782D01*
X112910500Y-79598540D01*
X112910500Y-79401460D01*
X112910500Y-76879997D01*
X112930185Y-76812958D01*
X112982989Y-76767203D01*
X113052147Y-76757259D01*
X113115703Y-76786284D01*
X113152431Y-76841679D01*
X113223450Y-77060255D01*
X113223452Y-77060258D01*
X113327283Y-77264038D01*
X113461714Y-77449066D01*
X113461716Y-77449068D01*
X113542482Y-77529834D01*
X113575967Y-77591157D01*
X113576418Y-77593323D01*
X113607948Y-77751834D01*
X113607949Y-77751836D01*
X113630038Y-77805165D01*
X113648892Y-77850683D01*
X113683366Y-77933911D01*
X113683371Y-77933920D01*
X113792859Y-78097780D01*
X113792860Y-78097781D01*
X113792861Y-78097782D01*
X113932218Y-78237139D01*
X113932219Y-78237139D01*
X113939286Y-78244206D01*
X113939285Y-78244206D01*
X113939289Y-78244209D01*
X115672215Y-79977137D01*
X115672219Y-79977140D01*
X115836079Y-80086628D01*
X115836085Y-80086631D01*
X115836086Y-80086632D01*
X116018165Y-80162052D01*
X116211455Y-80200500D01*
X116211458Y-80200501D01*
X116211460Y-80200501D01*
X116414655Y-80200501D01*
X116414675Y-80200500D01*
X125745217Y-80200500D01*
X125812256Y-80220185D01*
X125858011Y-80272989D01*
X125867955Y-80342147D01*
X125838930Y-80405703D01*
X125832898Y-80412181D01*
X124772221Y-81472858D01*
X124772218Y-81472861D01*
X124702538Y-81542540D01*
X124632859Y-81612219D01*
X124523371Y-81776079D01*
X124523366Y-81776089D01*
X124455321Y-81940365D01*
X124411480Y-81994768D01*
X124345186Y-82016833D01*
X124316571Y-82014530D01*
X124241003Y-81999500D01*
X124038997Y-81999500D01*
X124038992Y-81999500D01*
X123840880Y-82038907D01*
X123840872Y-82038909D01*
X123654247Y-82116212D01*
X123654237Y-82116217D01*
X123486281Y-82228441D01*
X123343441Y-82371281D01*
X123231217Y-82539237D01*
X123231215Y-82539242D01*
X123231214Y-82539244D01*
X123229385Y-82543659D01*
X123153909Y-82725872D01*
X123153907Y-82725880D01*
X123114500Y-82923992D01*
X123114500Y-83576007D01*
X123153907Y-83774119D01*
X123153909Y-83774127D01*
X123231212Y-83960752D01*
X123231217Y-83960762D01*
X123343441Y-84128718D01*
X123486281Y-84271558D01*
X123654237Y-84383782D01*
X123654241Y-84383784D01*
X123654244Y-84383786D01*
X123840873Y-84461091D01*
X124004288Y-84493596D01*
X124038992Y-84500499D01*
X124038996Y-84500500D01*
X124038997Y-84500500D01*
X124241004Y-84500500D01*
X124241005Y-84500499D01*
X124439127Y-84461091D01*
X124625756Y-84383786D01*
X124706110Y-84330094D01*
X124772786Y-84309217D01*
X124840166Y-84327701D01*
X124843865Y-84330078D01*
X124924244Y-84383786D01*
X125110873Y-84461091D01*
X125274288Y-84493596D01*
X125308992Y-84500499D01*
X125308996Y-84500500D01*
X125308997Y-84500500D01*
X125511004Y-84500500D01*
X125511005Y-84500499D01*
X125709127Y-84461091D01*
X125790338Y-84427451D01*
X125859804Y-84419983D01*
X125904859Y-84439594D01*
X125905128Y-84439103D01*
X125910613Y-84442098D01*
X125912099Y-84442745D01*
X125912911Y-84443353D01*
X125912913Y-84443354D01*
X126047620Y-84493596D01*
X126047627Y-84493598D01*
X126107155Y-84499999D01*
X126107172Y-84500000D01*
X126430000Y-84500000D01*
X126430000Y-83615865D01*
X126432383Y-83591671D01*
X126435500Y-83576002D01*
X126435500Y-83535830D01*
X126449745Y-83550075D01*
X126535255Y-83599444D01*
X126630630Y-83625000D01*
X126729370Y-83625000D01*
X126824745Y-83599444D01*
X126910255Y-83550075D01*
X126930000Y-83530330D01*
X126930000Y-84500000D01*
X127252828Y-84500000D01*
X127252844Y-84499999D01*
X127312372Y-84493598D01*
X127312379Y-84493596D01*
X127447086Y-84443354D01*
X127447093Y-84443350D01*
X127562187Y-84357190D01*
X127562190Y-84357187D01*
X127648350Y-84242093D01*
X127648354Y-84242086D01*
X127698596Y-84107379D01*
X127698598Y-84107372D01*
X127704999Y-84047844D01*
X127705000Y-84047827D01*
X127705000Y-83500000D01*
X126960330Y-83500000D01*
X126980075Y-83480255D01*
X127029444Y-83394745D01*
X127055000Y-83299370D01*
X127055000Y-83200630D01*
X127029444Y-83105255D01*
X126980075Y-83019745D01*
X126960330Y-83000000D01*
X127705000Y-83000000D01*
X127705000Y-82452172D01*
X127704999Y-82452155D01*
X127698598Y-82392627D01*
X127698596Y-82392620D01*
X127648354Y-82257913D01*
X127648352Y-82257910D01*
X127604111Y-82198812D01*
X127579693Y-82133348D01*
X127594544Y-82065074D01*
X127643949Y-82015669D01*
X127703377Y-82000500D01*
X129508542Y-82000500D01*
X129527870Y-81996655D01*
X129605188Y-81981275D01*
X129701836Y-81962051D01*
X129755165Y-81939961D01*
X129883914Y-81886632D01*
X130047782Y-81777139D01*
X130187139Y-81637782D01*
X130187139Y-81637780D01*
X130197347Y-81627573D01*
X130197349Y-81627570D01*
X130219793Y-81605125D01*
X130281114Y-81571642D01*
X130350806Y-81576626D01*
X130406739Y-81618498D01*
X130431089Y-81683077D01*
X130438410Y-81776089D01*
X130444317Y-81851151D01*
X130503126Y-82096110D01*
X130599533Y-82328859D01*
X130731160Y-82543653D01*
X130731161Y-82543656D01*
X130731164Y-82543659D01*
X130894776Y-82735224D01*
X131043066Y-82861875D01*
X131086343Y-82898838D01*
X131086346Y-82898839D01*
X131301140Y-83030466D01*
X131481698Y-83105255D01*
X131533889Y-83126873D01*
X131778852Y-83185683D01*
X132030000Y-83205449D01*
X132281148Y-83185683D01*
X132526111Y-83126873D01*
X132758859Y-83030466D01*
X132973659Y-82898836D01*
X133165224Y-82735224D01*
X133243164Y-82643967D01*
X133301669Y-82605775D01*
X133337453Y-82600500D01*
X138158542Y-82600500D01*
X138177870Y-82596655D01*
X138255188Y-82581275D01*
X138351836Y-82562051D01*
X138406896Y-82539244D01*
X138533914Y-82486632D01*
X138697782Y-82377139D01*
X138837139Y-82237782D01*
X138837139Y-82237780D01*
X138847347Y-82227573D01*
X138847348Y-82227570D01*
X140377820Y-80697098D01*
X140439142Y-80663615D01*
X140508834Y-80668599D01*
X140564767Y-80710471D01*
X140589184Y-80775935D01*
X140589500Y-80784781D01*
X140589500Y-82747870D01*
X140589501Y-82747876D01*
X140595908Y-82807483D01*
X140646202Y-82942328D01*
X140646206Y-82942335D01*
X140732452Y-83057544D01*
X140732455Y-83057547D01*
X140847664Y-83143793D01*
X140847671Y-83143797D01*
X140982517Y-83194091D01*
X140982516Y-83194091D01*
X140989444Y-83194835D01*
X141042127Y-83200500D01*
X143337872Y-83200499D01*
X143397483Y-83194091D01*
X143532331Y-83143796D01*
X143647546Y-83057546D01*
X143733796Y-82942331D01*
X143784091Y-82807483D01*
X143790500Y-82747873D01*
X143790499Y-80452128D01*
X143784091Y-80392517D01*
X143772791Y-80362221D01*
X143733797Y-80257671D01*
X143733793Y-80257664D01*
X143647547Y-80142455D01*
X143647544Y-80142452D01*
X143532335Y-80056206D01*
X143532328Y-80056202D01*
X143397482Y-80005908D01*
X143397484Y-80005908D01*
X143356458Y-80001498D01*
X143291907Y-79974760D01*
X143252059Y-79917368D01*
X143249566Y-79847542D01*
X143285219Y-79787454D01*
X143293190Y-79781147D01*
X143293073Y-79781004D01*
X143297783Y-79777138D01*
X143319671Y-79755249D01*
X143328408Y-79746512D01*
X143337402Y-79738359D01*
X143370883Y-79710883D01*
X143398359Y-79677402D01*
X143406512Y-79668408D01*
X143437139Y-79637782D01*
X143461193Y-79601781D01*
X143468444Y-79592005D01*
X143495909Y-79558539D01*
X143495912Y-79558535D01*
X143502295Y-79546591D01*
X143516320Y-79520351D01*
X143522560Y-79509938D01*
X143546632Y-79473914D01*
X143563202Y-79433906D01*
X143568399Y-79422918D01*
X143588814Y-79384727D01*
X143601386Y-79343280D01*
X143605476Y-79331847D01*
X143622051Y-79291835D01*
X143630500Y-79249353D01*
X143633450Y-79237580D01*
X143646024Y-79196132D01*
X143650268Y-79153037D01*
X143652054Y-79140999D01*
X143660500Y-79098541D01*
X143660500Y-79055244D01*
X143661097Y-79043090D01*
X143661971Y-79034217D01*
X143665341Y-79000000D01*
X143661097Y-78956908D01*
X143660500Y-78944754D01*
X143660500Y-78901458D01*
X143658117Y-78889480D01*
X143652052Y-78858990D01*
X143650268Y-78846961D01*
X143646024Y-78803869D01*
X143645023Y-78800568D01*
X143633448Y-78762414D01*
X143630499Y-78750640D01*
X143622051Y-78708165D01*
X143605480Y-78668160D01*
X143601382Y-78656706D01*
X143588814Y-78615273D01*
X143568404Y-78577091D01*
X143563201Y-78566090D01*
X143546632Y-78526086D01*
X143522572Y-78490078D01*
X143516316Y-78479640D01*
X143495911Y-78441464D01*
X143495910Y-78441462D01*
X143468438Y-78407988D01*
X143461194Y-78398219D01*
X143437140Y-78362219D01*
X143437136Y-78362214D01*
X143406520Y-78331599D01*
X143398346Y-78322581D01*
X143370884Y-78289118D01*
X143337416Y-78261651D01*
X143328401Y-78253479D01*
X143297787Y-78222865D01*
X143297783Y-78222862D01*
X143297780Y-78222860D01*
X143262821Y-78199500D01*
X143261772Y-78198799D01*
X143252002Y-78191552D01*
X143218543Y-78164094D01*
X143218535Y-78164088D01*
X143201436Y-78154948D01*
X143180350Y-78143678D01*
X143169918Y-78137425D01*
X143133918Y-78113370D01*
X143133914Y-78113368D01*
X143093915Y-78096800D01*
X143082913Y-78091597D01*
X143044729Y-78071187D01*
X143044728Y-78071186D01*
X143044727Y-78071186D01*
X143003277Y-78058612D01*
X142991834Y-78054517D01*
X142951834Y-78037948D01*
X142951827Y-78037946D01*
X142909378Y-78029503D01*
X142897575Y-78026547D01*
X142856134Y-78013976D01*
X142856130Y-78013975D01*
X142813035Y-78009730D01*
X142801006Y-78007945D01*
X142758544Y-77999500D01*
X142758541Y-77999500D01*
X142715244Y-77999500D01*
X142703090Y-77998903D01*
X142660000Y-77994659D01*
X142616910Y-77998903D01*
X142604756Y-77999500D01*
X140561457Y-77999500D01*
X140513026Y-78009134D01*
X140488684Y-78013976D01*
X140368167Y-78037947D01*
X140368159Y-78037950D01*
X140314834Y-78060037D01*
X140314834Y-78060038D01*
X140269315Y-78078892D01*
X140186089Y-78113366D01*
X140186079Y-78113371D01*
X140022218Y-78222860D01*
X140022214Y-78222863D01*
X137681899Y-80563181D01*
X137620576Y-80596666D01*
X137594218Y-80599500D01*
X133337453Y-80599500D01*
X133270414Y-80579815D01*
X133243166Y-80556034D01*
X133165224Y-80464776D01*
X133165221Y-80464773D01*
X133165219Y-80464771D01*
X133162629Y-80462181D01*
X133129144Y-80400858D01*
X133134128Y-80331166D01*
X133176000Y-80275233D01*
X133241464Y-80250816D01*
X133250310Y-80250500D01*
X136258542Y-80250500D01*
X136277870Y-80246655D01*
X136355188Y-80231275D01*
X136451836Y-80212051D01*
X136505165Y-80189961D01*
X136633914Y-80136632D01*
X136797782Y-80027139D01*
X136937139Y-79887782D01*
X136937139Y-79887780D01*
X136947347Y-79877573D01*
X136947348Y-79877570D01*
X142788102Y-74036819D01*
X142849425Y-74003334D01*
X142875783Y-74000500D01*
X147112412Y-74000500D01*
X147179451Y-74020185D01*
X147183523Y-74022917D01*
X147337266Y-74130568D01*
X147543504Y-74226739D01*
X147543509Y-74226740D01*
X147543511Y-74226741D01*
X147596415Y-74240916D01*
X147763308Y-74285635D01*
X147925230Y-74299801D01*
X147989998Y-74305468D01*
X147990000Y-74305468D01*
X147990002Y-74305468D01*
X148046673Y-74300509D01*
X148216692Y-74285635D01*
X148436496Y-74226739D01*
X148642734Y-74130568D01*
X148829139Y-74000047D01*
X148990047Y-73839139D01*
X149120568Y-73652734D01*
X149216739Y-73446496D01*
X149275635Y-73226692D01*
X149295468Y-73000000D01*
X149275635Y-72773308D01*
X149216739Y-72553504D01*
X149120568Y-72347266D01*
X149012924Y-72193532D01*
X148990597Y-72127326D01*
X148990500Y-72122410D01*
X148990500Y-70090048D01*
X149010185Y-70023009D01*
X149026814Y-70002371D01*
X149110047Y-69919139D01*
X149240568Y-69732734D01*
X149336739Y-69526496D01*
X149395635Y-69306692D01*
X149415468Y-69080000D01*
X149395635Y-68853308D01*
X149350916Y-68686415D01*
X149336741Y-68633511D01*
X149336738Y-68633502D01*
X149329234Y-68617409D01*
X149240568Y-68427266D01*
X149110047Y-68240861D01*
X149110045Y-68240858D01*
X148949141Y-68079954D01*
X148762734Y-67949432D01*
X148762732Y-67949431D01*
X148556497Y-67853261D01*
X148556488Y-67853258D01*
X148336697Y-67794366D01*
X148336693Y-67794365D01*
X148336692Y-67794365D01*
X148336691Y-67794364D01*
X148336686Y-67794364D01*
X148110002Y-67774532D01*
X148109998Y-67774532D01*
X147883313Y-67794364D01*
X147883302Y-67794366D01*
X147663511Y-67853258D01*
X147663502Y-67853261D01*
X147457267Y-67949431D01*
X147457265Y-67949432D01*
X147270858Y-68079954D01*
X147109954Y-68240858D01*
X146979432Y-68427265D01*
X146979431Y-68427267D01*
X146883261Y-68633502D01*
X146883258Y-68633511D01*
X146824366Y-68853302D01*
X146824364Y-68853313D01*
X146804532Y-69079998D01*
X146804532Y-69080001D01*
X146824364Y-69306686D01*
X146824366Y-69306697D01*
X146883258Y-69526488D01*
X146883260Y-69526492D01*
X146883261Y-69526496D01*
X146977882Y-69729410D01*
X146989500Y-69781815D01*
X146989500Y-71875500D01*
X146969815Y-71942539D01*
X146917011Y-71988294D01*
X146865500Y-71999500D01*
X142311455Y-71999500D01*
X142214812Y-72018724D01*
X142118167Y-72037947D01*
X142118161Y-72037949D01*
X142064834Y-72060037D01*
X142064834Y-72060038D01*
X142019315Y-72078892D01*
X141936089Y-72113366D01*
X141865008Y-72160861D01*
X141772216Y-72222861D01*
X141772213Y-72222864D01*
X135781899Y-78213181D01*
X135720576Y-78246666D01*
X135694218Y-78249500D01*
X131874781Y-78249500D01*
X131807742Y-78229815D01*
X131761987Y-78177011D01*
X131752043Y-78107853D01*
X131781068Y-78044297D01*
X131787081Y-78037837D01*
X131849414Y-77975504D01*
X131910733Y-77942022D01*
X131917647Y-77940722D01*
X132050245Y-77919722D01*
X132267758Y-77849048D01*
X132471538Y-77745217D01*
X132654245Y-77612472D01*
X132720046Y-77588994D01*
X132788100Y-77604819D01*
X132836795Y-77654924D01*
X132843308Y-77669459D01*
X132853702Y-77697328D01*
X132853706Y-77697335D01*
X132939952Y-77812544D01*
X132939955Y-77812547D01*
X133055164Y-77898793D01*
X133055171Y-77898797D01*
X133190017Y-77949091D01*
X133190016Y-77949091D01*
X133196944Y-77949835D01*
X133249627Y-77955500D01*
X135250372Y-77955499D01*
X135309983Y-77949091D01*
X135444831Y-77898796D01*
X135560046Y-77812546D01*
X135646296Y-77697331D01*
X135696591Y-77562483D01*
X135703000Y-77502873D01*
X135702999Y-75407128D01*
X135696591Y-75347517D01*
X135686660Y-75320891D01*
X135646297Y-75212671D01*
X135646293Y-75212664D01*
X135560047Y-75097455D01*
X135560044Y-75097452D01*
X135444835Y-75011206D01*
X135444828Y-75011202D01*
X135309982Y-74960908D01*
X135309983Y-74960908D01*
X135250383Y-74954501D01*
X135250381Y-74954500D01*
X135250373Y-74954500D01*
X135250364Y-74954500D01*
X133249629Y-74954500D01*
X133249623Y-74954501D01*
X133190016Y-74960908D01*
X133055171Y-75011202D01*
X133055164Y-75011206D01*
X132939955Y-75097452D01*
X132939952Y-75097455D01*
X132853706Y-75212664D01*
X132853703Y-75212670D01*
X132843308Y-75240541D01*
X132801436Y-75296474D01*
X132735972Y-75320891D01*
X132667699Y-75306039D01*
X132654250Y-75297531D01*
X132471538Y-75164783D01*
X132267755Y-75060950D01*
X132050248Y-74990278D01*
X131864812Y-74960908D01*
X131824354Y-74954500D01*
X131595646Y-74954500D01*
X131555188Y-74960908D01*
X131369753Y-74990278D01*
X131369750Y-74990278D01*
X131152244Y-75060950D01*
X130948461Y-75164783D01*
X130882551Y-75212670D01*
X130763434Y-75299214D01*
X130763432Y-75299216D01*
X130763431Y-75299216D01*
X130601716Y-75460931D01*
X130601709Y-75460940D01*
X130540007Y-75545864D01*
X130484677Y-75588530D01*
X130415063Y-75594508D01*
X130353269Y-75561901D01*
X130339372Y-75545863D01*
X130277907Y-75461263D01*
X130277902Y-75461257D01*
X130116242Y-75299597D01*
X129931276Y-75165211D01*
X129727568Y-75061417D01*
X129510124Y-74990765D01*
X129420000Y-74976490D01*
X129420000Y-75964252D01*
X129382292Y-75942482D01*
X129242409Y-75905000D01*
X129097591Y-75905000D01*
X128957708Y-75942482D01*
X128920000Y-75964252D01*
X128920000Y-74976490D01*
X128919999Y-74976490D01*
X128829875Y-74990765D01*
X128612431Y-75061417D01*
X128408723Y-75165211D01*
X128223757Y-75299597D01*
X128062097Y-75461257D01*
X127927711Y-75646223D01*
X127823917Y-75849929D01*
X127753265Y-76067371D01*
X127731468Y-76205000D01*
X128679252Y-76205000D01*
X128657482Y-76242708D01*
X128620000Y-76382591D01*
X128620000Y-76527409D01*
X128657482Y-76667292D01*
X128679252Y-76705000D01*
X127731468Y-76705000D01*
X127753265Y-76842628D01*
X127823917Y-77060070D01*
X127927711Y-77263776D01*
X128062097Y-77448742D01*
X128223757Y-77610402D01*
X128408723Y-77744788D01*
X128612431Y-77848582D01*
X128823078Y-77917026D01*
X128880754Y-77956463D01*
X128907952Y-78020822D01*
X128896037Y-78089668D01*
X128872442Y-78122637D01*
X128831900Y-78163180D01*
X128770578Y-78196666D01*
X128744218Y-78199500D01*
X120694223Y-78199500D01*
X120627184Y-78179815D01*
X120581429Y-78127011D01*
X120571485Y-78057853D01*
X120600510Y-77994297D01*
X120659288Y-77956523D01*
X120680970Y-77952210D01*
X120709983Y-77949091D01*
X120732443Y-77940714D01*
X120844831Y-77898796D01*
X120960046Y-77812546D01*
X121046296Y-77697331D01*
X121096591Y-77562483D01*
X121103000Y-77502873D01*
X121102999Y-75407128D01*
X121096591Y-75347517D01*
X121086660Y-75320891D01*
X121046297Y-75212671D01*
X121046293Y-75212664D01*
X120960047Y-75097455D01*
X120960044Y-75097452D01*
X120844835Y-75011206D01*
X120844828Y-75011202D01*
X120709982Y-74960908D01*
X120709983Y-74960908D01*
X120650383Y-74954501D01*
X120650381Y-74954500D01*
X120650373Y-74954500D01*
X120650365Y-74954500D01*
X120561761Y-74954500D01*
X120494722Y-74934815D01*
X120458659Y-74899391D01*
X120427137Y-74852215D01*
X120284686Y-74709764D01*
X120284655Y-74709735D01*
X118941479Y-73366559D01*
X118941459Y-73366537D01*
X118797785Y-73222863D01*
X118797781Y-73222860D01*
X118633916Y-73113369D01*
X118633911Y-73113366D01*
X118561315Y-73083296D01*
X118505165Y-73060038D01*
X118451836Y-73037949D01*
X118451832Y-73037948D01*
X118451828Y-73037946D01*
X118355188Y-73018724D01*
X118258544Y-72999500D01*
X118258541Y-72999500D01*
X113508540Y-72999500D01*
X113311459Y-72999500D01*
X113311456Y-72999500D01*
X113118171Y-73037946D01*
X113118167Y-73037948D01*
X113118165Y-73037948D01*
X113118164Y-73037949D01*
X113042745Y-73069188D01*
X113042743Y-73069189D01*
X112936085Y-73113368D01*
X112936085Y-73113369D01*
X112936084Y-73113369D01*
X112772222Y-73222857D01*
X112772214Y-73222863D01*
X111533461Y-74461617D01*
X111472138Y-74495102D01*
X111402446Y-74490118D01*
X111346513Y-74448246D01*
X111333401Y-74426347D01*
X111240568Y-74227266D01*
X111110047Y-74040861D01*
X111110045Y-74040858D01*
X110949141Y-73879954D01*
X110762734Y-73749432D01*
X110762732Y-73749431D01*
X110556497Y-73653261D01*
X110556488Y-73653258D01*
X110336697Y-73594366D01*
X110336693Y-73594365D01*
X110336692Y-73594365D01*
X110336691Y-73594364D01*
X110336686Y-73594364D01*
X110110002Y-73574532D01*
X110109998Y-73574532D01*
X109883313Y-73594364D01*
X109883302Y-73594366D01*
X109663511Y-73653258D01*
X109663502Y-73653261D01*
X109457267Y-73749431D01*
X109457265Y-73749432D01*
X109270858Y-73879954D01*
X109109954Y-74040858D01*
X108979432Y-74227265D01*
X108979431Y-74227267D01*
X108883261Y-74433502D01*
X108883258Y-74433511D01*
X108824366Y-74653302D01*
X108824364Y-74653313D01*
X108804532Y-74879998D01*
X100500500Y-74879998D01*
X100500500Y-72749999D01*
X136551127Y-72749999D01*
X136551128Y-72750000D01*
X137514314Y-72750000D01*
X137509920Y-72754394D01*
X137457259Y-72845606D01*
X137430000Y-72947339D01*
X137430000Y-73052661D01*
X137457259Y-73154394D01*
X137509920Y-73245606D01*
X137514314Y-73250000D01*
X136551128Y-73250000D01*
X136603730Y-73446317D01*
X136603734Y-73446326D01*
X136699865Y-73652482D01*
X136830342Y-73838820D01*
X136991179Y-73999657D01*
X137177517Y-74130134D01*
X137383673Y-74226265D01*
X137383682Y-74226269D01*
X137579999Y-74278872D01*
X137580000Y-74278871D01*
X137580000Y-73315686D01*
X137584394Y-73320080D01*
X137675606Y-73372741D01*
X137777339Y-73400000D01*
X137882661Y-73400000D01*
X137984394Y-73372741D01*
X138075606Y-73320080D01*
X138080000Y-73315686D01*
X138080000Y-74278872D01*
X138276317Y-74226269D01*
X138276326Y-74226265D01*
X138482482Y-74130134D01*
X138668820Y-73999657D01*
X138829657Y-73838820D01*
X138960134Y-73652482D01*
X139056265Y-73446326D01*
X139056269Y-73446317D01*
X139108872Y-73250000D01*
X138145686Y-73250000D01*
X138150080Y-73245606D01*
X138202741Y-73154394D01*
X138230000Y-73052661D01*
X138230000Y-72947339D01*
X138202741Y-72845606D01*
X138150080Y-72754394D01*
X138145686Y-72750000D01*
X139108872Y-72750000D01*
X139108872Y-72749999D01*
X139056269Y-72553682D01*
X139056265Y-72553673D01*
X138960134Y-72347517D01*
X138829657Y-72161179D01*
X138668820Y-72000342D01*
X138482482Y-71869865D01*
X138276328Y-71773734D01*
X138080000Y-71721127D01*
X138080000Y-72684314D01*
X138075606Y-72679920D01*
X137984394Y-72627259D01*
X137882661Y-72600000D01*
X137777339Y-72600000D01*
X137675606Y-72627259D01*
X137584394Y-72679920D01*
X137580000Y-72684314D01*
X137580000Y-71721127D01*
X137383671Y-71773734D01*
X137177517Y-71869865D01*
X136991179Y-72000342D01*
X136830342Y-72161179D01*
X136699865Y-72347517D01*
X136603734Y-72553673D01*
X136603730Y-72553682D01*
X136551127Y-72749999D01*
X100500500Y-72749999D01*
X100500500Y-64599997D01*
X103850708Y-64599997D01*
X103850708Y-64600002D01*
X103860702Y-64714244D01*
X103869839Y-64818674D01*
X103926653Y-65030703D01*
X103926654Y-65030706D01*
X103926655Y-65030708D01*
X104019419Y-65229642D01*
X104019423Y-65229650D01*
X104145322Y-65409452D01*
X104145327Y-65409458D01*
X104300541Y-65564672D01*
X104300547Y-65564677D01*
X104480349Y-65690576D01*
X104480351Y-65690577D01*
X104480354Y-65690579D01*
X104543549Y-65720047D01*
X104581230Y-65737618D01*
X104633669Y-65783790D01*
X104652821Y-65850984D01*
X104632605Y-65917865D01*
X104581230Y-65962382D01*
X104480353Y-66009421D01*
X104480349Y-66009423D01*
X104300547Y-66135322D01*
X104300541Y-66135327D01*
X104145327Y-66290541D01*
X104145322Y-66290547D01*
X104019423Y-66470349D01*
X104019419Y-66470357D01*
X103926655Y-66669291D01*
X103869839Y-66881324D01*
X103869838Y-66881331D01*
X103850708Y-67099997D01*
X103850708Y-67100002D01*
X103868438Y-67302669D01*
X103869839Y-67318674D01*
X103926653Y-67530703D01*
X103926654Y-67530706D01*
X103926655Y-67530708D01*
X104019419Y-67729642D01*
X104019423Y-67729650D01*
X104145322Y-67909452D01*
X104145327Y-67909458D01*
X104300541Y-68064672D01*
X104300547Y-68064677D01*
X104480349Y-68190576D01*
X104480351Y-68190577D01*
X104480354Y-68190579D01*
X104568736Y-68231791D01*
X104581230Y-68237618D01*
X104633669Y-68283790D01*
X104652821Y-68350984D01*
X104632605Y-68417865D01*
X104581230Y-68462382D01*
X104480353Y-68509421D01*
X104480349Y-68509423D01*
X104300547Y-68635322D01*
X104300541Y-68635327D01*
X104145327Y-68790541D01*
X104145322Y-68790547D01*
X104019423Y-68970349D01*
X104019419Y-68970357D01*
X103926655Y-69169291D01*
X103869839Y-69381324D01*
X103869838Y-69381331D01*
X103850708Y-69599997D01*
X103850708Y-69600002D01*
X103867096Y-69787331D01*
X103869839Y-69818674D01*
X103926653Y-70030703D01*
X103926654Y-70030706D01*
X103926655Y-70030708D01*
X104019419Y-70229642D01*
X104019423Y-70229650D01*
X104145322Y-70409452D01*
X104145327Y-70409458D01*
X104300541Y-70564672D01*
X104300547Y-70564677D01*
X104480349Y-70690576D01*
X104480351Y-70690577D01*
X104480354Y-70690579D01*
X104679297Y-70783347D01*
X104891326Y-70840161D01*
X105047521Y-70853826D01*
X105109998Y-70859292D01*
X105110000Y-70859292D01*
X105110002Y-70859292D01*
X105164668Y-70854509D01*
X105328674Y-70840161D01*
X105540703Y-70783347D01*
X105739646Y-70690579D01*
X105919457Y-70564674D01*
X106074674Y-70409457D01*
X106200579Y-70229646D01*
X106293347Y-70030703D01*
X106350161Y-69818674D01*
X106369292Y-69600000D01*
X106368668Y-69592873D01*
X106355165Y-69438523D01*
X106350161Y-69381326D01*
X106293347Y-69169297D01*
X106200579Y-68970354D01*
X106200577Y-68970351D01*
X106200576Y-68970349D01*
X106074677Y-68790547D01*
X106074672Y-68790541D01*
X105919458Y-68635327D01*
X105919452Y-68635322D01*
X105739650Y-68509423D01*
X105739642Y-68509419D01*
X105638770Y-68462382D01*
X105586330Y-68416210D01*
X105567178Y-68349017D01*
X105587393Y-68282135D01*
X105638770Y-68237618D01*
X105646860Y-68233845D01*
X105739646Y-68190579D01*
X105919457Y-68064674D01*
X106074674Y-67909457D01*
X106200579Y-67729646D01*
X106293347Y-67530703D01*
X106302342Y-67497135D01*
X113117000Y-67497135D01*
X113117000Y-69592870D01*
X113117001Y-69592876D01*
X113123408Y-69652483D01*
X113173702Y-69787328D01*
X113173706Y-69787335D01*
X113259952Y-69902544D01*
X113259955Y-69902547D01*
X113375164Y-69988793D01*
X113375171Y-69988797D01*
X113510017Y-70039091D01*
X113510016Y-70039091D01*
X113516944Y-70039835D01*
X113569627Y-70045500D01*
X115570372Y-70045499D01*
X115629983Y-70039091D01*
X115764831Y-69988796D01*
X115880046Y-69902546D01*
X115966296Y-69787331D01*
X115976690Y-69759460D01*
X116018560Y-69703527D01*
X116084023Y-69679108D01*
X116152297Y-69693958D01*
X116165746Y-69702465D01*
X116348462Y-69835217D01*
X116551327Y-69938582D01*
X116552244Y-69939049D01*
X116769751Y-70009721D01*
X116769752Y-70009721D01*
X116769755Y-70009722D01*
X116995646Y-70045500D01*
X116995647Y-70045500D01*
X117224353Y-70045500D01*
X117224354Y-70045500D01*
X117450245Y-70009722D01*
X117450248Y-70009721D01*
X117450249Y-70009721D01*
X117667755Y-69939049D01*
X117667755Y-69939048D01*
X117667758Y-69939048D01*
X117871538Y-69835217D01*
X118056566Y-69700786D01*
X118218286Y-69539066D01*
X118279683Y-69454559D01*
X118335012Y-69411896D01*
X118404625Y-69405917D01*
X118466420Y-69438523D01*
X118480314Y-69454556D01*
X118541714Y-69539066D01*
X118703434Y-69700786D01*
X118888462Y-69835217D01*
X119091327Y-69938582D01*
X119092244Y-69939049D01*
X119309751Y-70009721D01*
X119309752Y-70009721D01*
X119309755Y-70009722D01*
X119535646Y-70045500D01*
X119535647Y-70045500D01*
X119764353Y-70045500D01*
X119764354Y-70045500D01*
X119990245Y-70009722D01*
X119990248Y-70009721D01*
X119990249Y-70009721D01*
X120207755Y-69939049D01*
X120207755Y-69939048D01*
X120207758Y-69939048D01*
X120411538Y-69835217D01*
X120596566Y-69700786D01*
X120758286Y-69539066D01*
X120892717Y-69354038D01*
X120996548Y-69150258D01*
X121067222Y-68932745D01*
X121103000Y-68706854D01*
X121103000Y-68383146D01*
X121067222Y-68157255D01*
X121067221Y-68157251D01*
X121067221Y-68157250D01*
X120996549Y-67939744D01*
X120996548Y-67939742D01*
X120892717Y-67735962D01*
X120758286Y-67550934D01*
X120704487Y-67497135D01*
X127517000Y-67497135D01*
X127517000Y-69592870D01*
X127517001Y-69592876D01*
X127523408Y-69652483D01*
X127573702Y-69787328D01*
X127573706Y-69787335D01*
X127659952Y-69902544D01*
X127659955Y-69902547D01*
X127775164Y-69988793D01*
X127775171Y-69988797D01*
X127910017Y-70039091D01*
X127910016Y-70039091D01*
X127916944Y-70039835D01*
X127969627Y-70045500D01*
X129970372Y-70045499D01*
X130029983Y-70039091D01*
X130164831Y-69988796D01*
X130280046Y-69902546D01*
X130366296Y-69787331D01*
X130376690Y-69759460D01*
X130418560Y-69703527D01*
X130484023Y-69679108D01*
X130552297Y-69693958D01*
X130565746Y-69702465D01*
X130748462Y-69835217D01*
X130951327Y-69938582D01*
X130952244Y-69939049D01*
X131169751Y-70009721D01*
X131169752Y-70009721D01*
X131169755Y-70009722D01*
X131395646Y-70045500D01*
X131395647Y-70045500D01*
X131624353Y-70045500D01*
X131624354Y-70045500D01*
X131850245Y-70009722D01*
X131850248Y-70009721D01*
X131850249Y-70009721D01*
X132067755Y-69939049D01*
X132067755Y-69939048D01*
X132067758Y-69939048D01*
X132271538Y-69835217D01*
X132456566Y-69700786D01*
X132618286Y-69539066D01*
X132679992Y-69454134D01*
X132735319Y-69411470D01*
X132804932Y-69405491D01*
X132866727Y-69438096D01*
X132880626Y-69454135D01*
X132942097Y-69538741D01*
X132942097Y-69538742D01*
X133103757Y-69700402D01*
X133288723Y-69834788D01*
X133492429Y-69938582D01*
X133709871Y-70009234D01*
X133800000Y-70023509D01*
X133800000Y-69035747D01*
X133837708Y-69057518D01*
X133977591Y-69095000D01*
X134122409Y-69095000D01*
X134262292Y-69057518D01*
X134300000Y-69035747D01*
X134300000Y-70023508D01*
X134390128Y-70009234D01*
X134607570Y-69938582D01*
X134811276Y-69834788D01*
X134996242Y-69700402D01*
X135157902Y-69538742D01*
X135292288Y-69353776D01*
X135396082Y-69150070D01*
X135466734Y-68932628D01*
X135488532Y-68795000D01*
X134540748Y-68795000D01*
X134562518Y-68757292D01*
X134600000Y-68617409D01*
X134600000Y-68472591D01*
X134562518Y-68332708D01*
X134540748Y-68295000D01*
X135488532Y-68295000D01*
X135466734Y-68157371D01*
X135396082Y-67939929D01*
X135292288Y-67736223D01*
X135157902Y-67551257D01*
X134996242Y-67389597D01*
X134811276Y-67255211D01*
X134607568Y-67151417D01*
X134390124Y-67080765D01*
X134300000Y-67066490D01*
X134300000Y-68054252D01*
X134262292Y-68032482D01*
X134122409Y-67995000D01*
X133977591Y-67995000D01*
X133837708Y-68032482D01*
X133800000Y-68054252D01*
X133800000Y-67066490D01*
X133799999Y-67066490D01*
X133709875Y-67080765D01*
X133492431Y-67151417D01*
X133288723Y-67255211D01*
X133103757Y-67389597D01*
X132942097Y-67551257D01*
X132880627Y-67635864D01*
X132825297Y-67678529D01*
X132755684Y-67684508D01*
X132693889Y-67651902D01*
X132679991Y-67635864D01*
X132618286Y-67550934D01*
X132456566Y-67389214D01*
X132271538Y-67254783D01*
X132067755Y-67150950D01*
X131850248Y-67080278D01*
X131664812Y-67050908D01*
X131624354Y-67044500D01*
X131395646Y-67044500D01*
X131355188Y-67050908D01*
X131169753Y-67080278D01*
X131169750Y-67080278D01*
X130952244Y-67150950D01*
X130748461Y-67254783D01*
X130565759Y-67387525D01*
X130499952Y-67411005D01*
X130431898Y-67395180D01*
X130383203Y-67345074D01*
X130376690Y-67330538D01*
X130366296Y-67302669D01*
X130366293Y-67302664D01*
X130280047Y-67187455D01*
X130280044Y-67187452D01*
X130164835Y-67101206D01*
X130164828Y-67101202D01*
X130029982Y-67050908D01*
X130029983Y-67050908D01*
X129970383Y-67044501D01*
X129970381Y-67044500D01*
X129970373Y-67044500D01*
X129970364Y-67044500D01*
X127969629Y-67044500D01*
X127969623Y-67044501D01*
X127910016Y-67050908D01*
X127775171Y-67101202D01*
X127775164Y-67101206D01*
X127659955Y-67187452D01*
X127659952Y-67187455D01*
X127573706Y-67302664D01*
X127573702Y-67302671D01*
X127523408Y-67437517D01*
X127517001Y-67497116D01*
X127517000Y-67497135D01*
X120704487Y-67497135D01*
X120596566Y-67389214D01*
X120411538Y-67254783D01*
X120207755Y-67150950D01*
X119990248Y-67080278D01*
X119804812Y-67050908D01*
X119764354Y-67044500D01*
X119535646Y-67044500D01*
X119495188Y-67050908D01*
X119309753Y-67080278D01*
X119309750Y-67080278D01*
X119092244Y-67150950D01*
X118888461Y-67254783D01*
X118822550Y-67302671D01*
X118703434Y-67389214D01*
X118703432Y-67389216D01*
X118703431Y-67389216D01*
X118541715Y-67550932D01*
X118480318Y-67635438D01*
X118424987Y-67678103D01*
X118355374Y-67684082D01*
X118293579Y-67651476D01*
X118279682Y-67635438D01*
X118268773Y-67620423D01*
X118218286Y-67550934D01*
X118056566Y-67389214D01*
X117871538Y-67254783D01*
X117667755Y-67150950D01*
X117450248Y-67080278D01*
X117264812Y-67050908D01*
X117224354Y-67044500D01*
X116995646Y-67044500D01*
X116955188Y-67050908D01*
X116769753Y-67080278D01*
X116769750Y-67080278D01*
X116552244Y-67150950D01*
X116348461Y-67254783D01*
X116165759Y-67387525D01*
X116099952Y-67411005D01*
X116031898Y-67395180D01*
X115983203Y-67345074D01*
X115976690Y-67330538D01*
X115966296Y-67302669D01*
X115966293Y-67302664D01*
X115880047Y-67187455D01*
X115880044Y-67187452D01*
X115764835Y-67101206D01*
X115764828Y-67101202D01*
X115629982Y-67050908D01*
X115629983Y-67050908D01*
X115570383Y-67044501D01*
X115570381Y-67044500D01*
X115570373Y-67044500D01*
X115570364Y-67044500D01*
X113569629Y-67044500D01*
X113569623Y-67044501D01*
X113510016Y-67050908D01*
X113375171Y-67101202D01*
X113375164Y-67101206D01*
X113259955Y-67187452D01*
X113259952Y-67187455D01*
X113173706Y-67302664D01*
X113173702Y-67302671D01*
X113123408Y-67437517D01*
X113117001Y-67497116D01*
X113117000Y-67497135D01*
X106302342Y-67497135D01*
X106350161Y-67318674D01*
X106364835Y-67150950D01*
X106369292Y-67100002D01*
X106369292Y-67099997D01*
X106350161Y-66881331D01*
X106350161Y-66881326D01*
X106293347Y-66669297D01*
X106200579Y-66470354D01*
X106200577Y-66470351D01*
X106200576Y-66470349D01*
X106074677Y-66290547D01*
X106074672Y-66290541D01*
X105919458Y-66135327D01*
X105919452Y-66135322D01*
X105739650Y-66009423D01*
X105739642Y-66009419D01*
X105638770Y-65962382D01*
X105586330Y-65916210D01*
X105567178Y-65849017D01*
X105587393Y-65782135D01*
X105638770Y-65737618D01*
X105676451Y-65720047D01*
X105739646Y-65690579D01*
X105919457Y-65564674D01*
X106074674Y-65409457D01*
X106200579Y-65229646D01*
X106293347Y-65030703D01*
X106350161Y-64818674D01*
X106358794Y-64719998D01*
X108804532Y-64719998D01*
X108804532Y-64720001D01*
X108824364Y-64946686D01*
X108824366Y-64946697D01*
X108883258Y-65166488D01*
X108883261Y-65166497D01*
X108979431Y-65372732D01*
X108979432Y-65372734D01*
X109109954Y-65559141D01*
X109270858Y-65720045D01*
X109270861Y-65720047D01*
X109457266Y-65850568D01*
X109663504Y-65946739D01*
X109883308Y-66005635D01*
X110045230Y-66019801D01*
X110109998Y-66025468D01*
X110110000Y-66025468D01*
X110110002Y-66025468D01*
X110166673Y-66020509D01*
X110336692Y-66005635D01*
X110556496Y-65946739D01*
X110762734Y-65850568D01*
X110949139Y-65720047D01*
X111110047Y-65559139D01*
X111240568Y-65372734D01*
X111336739Y-65166496D01*
X111395635Y-64946692D01*
X111415468Y-64720000D01*
X111414964Y-64714244D01*
X111407609Y-64630167D01*
X111395635Y-64493308D01*
X111336739Y-64273504D01*
X111240568Y-64067266D01*
X111110047Y-63880861D01*
X111110045Y-63880858D01*
X110949141Y-63719954D01*
X110762734Y-63589432D01*
X110762732Y-63589431D01*
X110556497Y-63493261D01*
X110556488Y-63493258D01*
X110336697Y-63434366D01*
X110336693Y-63434365D01*
X110336692Y-63434365D01*
X110336691Y-63434364D01*
X110336686Y-63434364D01*
X110110002Y-63414532D01*
X110109998Y-63414532D01*
X109883313Y-63434364D01*
X109883302Y-63434366D01*
X109663511Y-63493258D01*
X109663502Y-63493261D01*
X109457267Y-63589431D01*
X109457265Y-63589432D01*
X109270858Y-63719954D01*
X109109954Y-63880858D01*
X108979432Y-64067265D01*
X108979431Y-64067267D01*
X108883261Y-64273502D01*
X108883258Y-64273511D01*
X108824366Y-64493302D01*
X108824364Y-64493313D01*
X108804532Y-64719998D01*
X106358794Y-64719998D01*
X106369292Y-64600000D01*
X106366036Y-64562787D01*
X106350161Y-64381331D01*
X106350161Y-64381326D01*
X106293347Y-64169297D01*
X106200579Y-63970354D01*
X106200577Y-63970351D01*
X106200576Y-63970349D01*
X106074677Y-63790547D01*
X106074672Y-63790541D01*
X105919458Y-63635327D01*
X105919452Y-63635322D01*
X105739650Y-63509423D01*
X105739642Y-63509419D01*
X105540708Y-63416655D01*
X105540706Y-63416654D01*
X105540703Y-63416653D01*
X105389885Y-63376240D01*
X105328675Y-63359839D01*
X105328668Y-63359838D01*
X105110002Y-63340708D01*
X105109998Y-63340708D01*
X104891331Y-63359838D01*
X104891324Y-63359839D01*
X104768902Y-63392642D01*
X104679297Y-63416653D01*
X104679295Y-63416653D01*
X104679291Y-63416655D01*
X104480357Y-63509419D01*
X104480349Y-63509423D01*
X104300547Y-63635322D01*
X104300541Y-63635327D01*
X104145327Y-63790541D01*
X104145322Y-63790547D01*
X104019423Y-63970349D01*
X104019419Y-63970357D01*
X103926655Y-64169291D01*
X103926653Y-64169295D01*
X103926653Y-64169297D01*
X103910621Y-64229127D01*
X103869839Y-64381324D01*
X103869838Y-64381331D01*
X103850708Y-64599997D01*
X100500500Y-64599997D01*
X100500500Y-62087135D01*
X142449500Y-62087135D01*
X142449500Y-63232870D01*
X142449501Y-63232876D01*
X142455908Y-63292483D01*
X142506202Y-63427328D01*
X142506203Y-63427330D01*
X142506204Y-63427331D01*
X142507028Y-63428432D01*
X142507509Y-63429721D01*
X142510454Y-63435114D01*
X142509678Y-63435537D01*
X142531448Y-63493895D01*
X142522325Y-63550198D01*
X142488910Y-63630868D01*
X142488907Y-63630880D01*
X142449500Y-63828992D01*
X142449500Y-64031007D01*
X142488907Y-64229119D01*
X142488909Y-64229127D01*
X142566213Y-64415755D01*
X142619904Y-64496109D01*
X142640782Y-64562787D01*
X142622297Y-64630167D01*
X142619904Y-64633891D01*
X142566213Y-64714244D01*
X142488909Y-64900872D01*
X142488907Y-64900880D01*
X142449500Y-65098992D01*
X142449500Y-65301007D01*
X142488907Y-65499119D01*
X142488909Y-65499127D01*
X142566212Y-65685752D01*
X142566217Y-65685762D01*
X142678441Y-65853718D01*
X142821281Y-65996558D01*
X142989237Y-66108782D01*
X142989241Y-66108784D01*
X142989244Y-66108786D01*
X143175873Y-66186091D01*
X143373992Y-66225499D01*
X143373996Y-66225500D01*
X143373997Y-66225500D01*
X144026004Y-66225500D01*
X144026005Y-66225499D01*
X144224127Y-66186091D01*
X144410756Y-66108786D01*
X144578718Y-65996558D01*
X144721558Y-65853718D01*
X144833786Y-65685756D01*
X144911091Y-65499127D01*
X144950500Y-65301003D01*
X144950500Y-65098997D01*
X144911091Y-64900873D01*
X144836170Y-64720000D01*
X144833787Y-64714246D01*
X144833786Y-64714244D01*
X144780094Y-64633889D01*
X144759217Y-64567214D01*
X144777701Y-64499834D01*
X144780078Y-64496134D01*
X144833786Y-64415756D01*
X144911091Y-64229127D01*
X144950500Y-64031003D01*
X144950500Y-63828997D01*
X144911091Y-63630873D01*
X144877673Y-63550198D01*
X144870205Y-63480730D01*
X144889964Y-63435340D01*
X144889547Y-63435112D01*
X144892095Y-63430444D01*
X144892972Y-63428431D01*
X144893796Y-63427331D01*
X144944091Y-63292483D01*
X144950500Y-63232873D01*
X144950499Y-62087128D01*
X144944091Y-62027517D01*
X144893796Y-61892669D01*
X144893795Y-61892668D01*
X144893793Y-61892664D01*
X144807547Y-61777455D01*
X144807544Y-61777452D01*
X144692335Y-61691206D01*
X144692328Y-61691202D01*
X144557482Y-61640908D01*
X144557483Y-61640908D01*
X144497883Y-61634501D01*
X144497881Y-61634500D01*
X144497873Y-61634500D01*
X144497864Y-61634500D01*
X142902129Y-61634500D01*
X142902123Y-61634501D01*
X142842516Y-61640908D01*
X142707671Y-61691202D01*
X142707664Y-61691206D01*
X142592455Y-61777452D01*
X142592452Y-61777455D01*
X142506206Y-61892664D01*
X142506202Y-61892671D01*
X142455908Y-62027517D01*
X142449501Y-62087116D01*
X142449501Y-62087123D01*
X142449500Y-62087135D01*
X100500500Y-62087135D01*
X100500500Y-58999999D01*
X133631127Y-58999999D01*
X133631128Y-59000000D01*
X134594314Y-59000000D01*
X134589920Y-59004394D01*
X134537259Y-59095606D01*
X134510000Y-59197339D01*
X134510000Y-59302661D01*
X134537259Y-59404394D01*
X134589920Y-59495606D01*
X134594314Y-59500000D01*
X133631128Y-59500000D01*
X133683730Y-59696317D01*
X133683734Y-59696326D01*
X133779865Y-59902482D01*
X133910342Y-60088820D01*
X134071179Y-60249657D01*
X134257517Y-60380134D01*
X134463673Y-60476265D01*
X134463682Y-60476269D01*
X134659999Y-60528872D01*
X134660000Y-60528871D01*
X134660000Y-59565686D01*
X134664394Y-59570080D01*
X134755606Y-59622741D01*
X134857339Y-59650000D01*
X134962661Y-59650000D01*
X135064394Y-59622741D01*
X135155606Y-59570080D01*
X135160000Y-59565686D01*
X135160000Y-60528872D01*
X135356317Y-60476269D01*
X135356326Y-60476265D01*
X135562482Y-60380134D01*
X135748820Y-60249657D01*
X135909657Y-60088820D01*
X136040134Y-59902482D01*
X136136265Y-59696326D01*
X136136269Y-59696317D01*
X136188872Y-59500000D01*
X135225686Y-59500000D01*
X135230080Y-59495606D01*
X135282741Y-59404394D01*
X135310000Y-59302661D01*
X135310000Y-59249998D01*
X143764532Y-59249998D01*
X143764532Y-59250001D01*
X143784364Y-59476686D01*
X143784366Y-59476697D01*
X143843258Y-59696488D01*
X143843261Y-59696497D01*
X143939431Y-59902732D01*
X143939432Y-59902734D01*
X144069954Y-60089141D01*
X144230858Y-60250045D01*
X144230861Y-60250047D01*
X144417266Y-60380568D01*
X144623504Y-60476739D01*
X144843308Y-60535635D01*
X145005230Y-60549801D01*
X145069998Y-60555468D01*
X145070000Y-60555468D01*
X145070002Y-60555468D01*
X145126673Y-60550509D01*
X145296692Y-60535635D01*
X145516496Y-60476739D01*
X145722734Y-60380568D01*
X145909139Y-60250047D01*
X146070047Y-60089139D01*
X146200568Y-59902734D01*
X146296739Y-59696496D01*
X146355635Y-59476692D01*
X146375468Y-59250000D01*
X146355635Y-59023308D01*
X146327953Y-58919998D01*
X146804532Y-58919998D01*
X146804532Y-58920001D01*
X146824364Y-59146686D01*
X146824366Y-59146697D01*
X146883258Y-59366488D01*
X146883261Y-59366497D01*
X146979431Y-59572732D01*
X146979432Y-59572734D01*
X147109954Y-59759141D01*
X147270858Y-59920045D01*
X147270861Y-59920047D01*
X147457266Y-60050568D01*
X147663504Y-60146739D01*
X147883308Y-60205635D01*
X148045230Y-60219801D01*
X148109998Y-60225468D01*
X148110000Y-60225468D01*
X148110002Y-60225468D01*
X148166673Y-60220509D01*
X148336692Y-60205635D01*
X148556496Y-60146739D01*
X148762734Y-60050568D01*
X148949139Y-59920047D01*
X149110047Y-59759139D01*
X149240568Y-59572734D01*
X149336739Y-59366496D01*
X149395635Y-59146692D01*
X149415468Y-58920000D01*
X149395635Y-58693308D01*
X149336739Y-58473504D01*
X149240568Y-58267266D01*
X149110047Y-58080861D01*
X149110045Y-58080858D01*
X148949141Y-57919954D01*
X148762734Y-57789432D01*
X148762732Y-57789431D01*
X148556497Y-57693261D01*
X148556488Y-57693258D01*
X148336697Y-57634366D01*
X148336693Y-57634365D01*
X148336692Y-57634365D01*
X148336691Y-57634364D01*
X148336686Y-57634364D01*
X148110002Y-57614532D01*
X148109998Y-57614532D01*
X147883313Y-57634364D01*
X147883302Y-57634366D01*
X147663511Y-57693258D01*
X147663502Y-57693261D01*
X147457267Y-57789431D01*
X147457265Y-57789432D01*
X147270858Y-57919954D01*
X147109954Y-58080858D01*
X146979432Y-58267265D01*
X146979431Y-58267267D01*
X146883261Y-58473502D01*
X146883258Y-58473511D01*
X146824366Y-58693302D01*
X146824364Y-58693313D01*
X146804532Y-58919998D01*
X146327953Y-58919998D01*
X146296739Y-58803504D01*
X146200568Y-58597266D01*
X146070047Y-58410861D01*
X146070045Y-58410858D01*
X145909141Y-58249954D01*
X145722734Y-58119432D01*
X145722732Y-58119431D01*
X145516497Y-58023261D01*
X145516488Y-58023258D01*
X145296697Y-57964366D01*
X145296693Y-57964365D01*
X145296692Y-57964365D01*
X145296691Y-57964364D01*
X145296686Y-57964364D01*
X145070002Y-57944532D01*
X145069998Y-57944532D01*
X144843313Y-57964364D01*
X144843302Y-57964366D01*
X144623511Y-58023258D01*
X144623502Y-58023261D01*
X144417267Y-58119431D01*
X144417265Y-58119432D01*
X144230858Y-58249954D01*
X144069954Y-58410858D01*
X143939432Y-58597265D01*
X143939431Y-58597267D01*
X143843261Y-58803502D01*
X143843258Y-58803511D01*
X143784366Y-59023302D01*
X143784364Y-59023313D01*
X143764532Y-59249998D01*
X135310000Y-59249998D01*
X135310000Y-59197339D01*
X135282741Y-59095606D01*
X135230080Y-59004394D01*
X135225686Y-59000000D01*
X136188872Y-59000000D01*
X136188872Y-58999999D01*
X136136269Y-58803682D01*
X136136265Y-58803673D01*
X136040134Y-58597517D01*
X135909657Y-58411179D01*
X135748820Y-58250342D01*
X135562482Y-58119865D01*
X135356328Y-58023734D01*
X135160000Y-57971127D01*
X135160000Y-58934314D01*
X135155606Y-58929920D01*
X135064394Y-58877259D01*
X134962661Y-58850000D01*
X134857339Y-58850000D01*
X134755606Y-58877259D01*
X134664394Y-58929920D01*
X134660000Y-58934314D01*
X134660000Y-57971127D01*
X134463671Y-58023734D01*
X134257517Y-58119865D01*
X134071179Y-58250342D01*
X133910342Y-58411179D01*
X133779865Y-58597517D01*
X133683734Y-58803673D01*
X133683730Y-58803682D01*
X133631127Y-58999999D01*
X100500500Y-58999999D01*
X100500500Y-49499999D01*
X111789341Y-49499999D01*
X111789341Y-49500000D01*
X111809936Y-49735403D01*
X111809938Y-49735413D01*
X111871094Y-49963655D01*
X111871096Y-49963659D01*
X111871097Y-49963663D01*
X111950801Y-50134588D01*
X111970965Y-50177830D01*
X111970967Y-50177834D01*
X112079281Y-50332521D01*
X112106505Y-50371401D01*
X112273599Y-50538495D01*
X112370384Y-50606265D01*
X112467165Y-50674032D01*
X112467167Y-50674033D01*
X112467170Y-50674035D01*
X112681337Y-50773903D01*
X112909592Y-50835063D01*
X113086034Y-50850500D01*
X113144999Y-50855659D01*
X113145000Y-50855659D01*
X113145001Y-50855659D01*
X113203966Y-50850500D01*
X113380408Y-50835063D01*
X113608663Y-50773903D01*
X113822830Y-50674035D01*
X114016401Y-50538495D01*
X114138717Y-50416178D01*
X114200036Y-50382696D01*
X114269728Y-50387680D01*
X114325662Y-50429551D01*
X114342577Y-50460528D01*
X114391646Y-50592088D01*
X114391649Y-50592093D01*
X114477809Y-50707187D01*
X114477812Y-50707190D01*
X114592906Y-50793350D01*
X114592913Y-50793354D01*
X114727620Y-50843596D01*
X114727627Y-50843598D01*
X114787155Y-50849999D01*
X114787172Y-50850000D01*
X115435000Y-50850000D01*
X115435000Y-49933012D01*
X115492007Y-49965925D01*
X115619174Y-50000000D01*
X115750826Y-50000000D01*
X115877993Y-49965925D01*
X115935000Y-49933012D01*
X115935000Y-50850000D01*
X116582828Y-50850000D01*
X116582844Y-50849999D01*
X116642372Y-50843598D01*
X116642379Y-50843596D01*
X116777086Y-50793354D01*
X116777093Y-50793350D01*
X116892187Y-50707190D01*
X116892190Y-50707187D01*
X116978350Y-50592093D01*
X116978354Y-50592086D01*
X117028596Y-50457379D01*
X117028598Y-50457372D01*
X117034999Y-50397844D01*
X117035000Y-50397827D01*
X117035000Y-49750000D01*
X116118012Y-49750000D01*
X116150925Y-49692993D01*
X116185000Y-49565826D01*
X116185000Y-49434174D01*
X116150925Y-49307007D01*
X116118012Y-49250000D01*
X117035000Y-49250000D01*
X117035000Y-48602172D01*
X117034999Y-48602155D01*
X117034997Y-48602135D01*
X125519500Y-48602135D01*
X125519500Y-50397870D01*
X125519501Y-50397876D01*
X125525908Y-50457483D01*
X125576202Y-50592328D01*
X125576206Y-50592335D01*
X125662452Y-50707544D01*
X125662455Y-50707547D01*
X125777664Y-50793793D01*
X125777671Y-50793797D01*
X125912517Y-50844091D01*
X125912516Y-50844091D01*
X125919444Y-50844835D01*
X125972127Y-50850500D01*
X127767872Y-50850499D01*
X127827483Y-50844091D01*
X127962331Y-50793796D01*
X128077546Y-50707546D01*
X128163796Y-50592331D01*
X128212810Y-50460916D01*
X128254681Y-50404984D01*
X128320145Y-50380566D01*
X128388418Y-50395417D01*
X128416673Y-50416569D01*
X128538599Y-50538495D01*
X128635384Y-50606265D01*
X128732165Y-50674032D01*
X128732167Y-50674033D01*
X128732170Y-50674035D01*
X128946337Y-50773903D01*
X129174592Y-50835063D01*
X129351034Y-50850500D01*
X129409999Y-50855659D01*
X129410000Y-50855659D01*
X129410001Y-50855659D01*
X129468966Y-50850500D01*
X129645408Y-50835063D01*
X129873663Y-50773903D01*
X130087830Y-50674035D01*
X130281401Y-50538495D01*
X130448495Y-50371401D01*
X130584035Y-50177830D01*
X130683903Y-49963663D01*
X130745063Y-49735408D01*
X130765659Y-49500000D01*
X130745063Y-49264592D01*
X130741153Y-49249999D01*
X138499364Y-49249999D01*
X138499364Y-49250000D01*
X139396988Y-49250000D01*
X139364075Y-49307007D01*
X139330000Y-49434174D01*
X139330000Y-49565826D01*
X139364075Y-49692993D01*
X139396988Y-49750000D01*
X138499364Y-49750000D01*
X138556567Y-49963486D01*
X138556570Y-49963492D01*
X138656399Y-50177578D01*
X138791894Y-50371082D01*
X138958917Y-50538105D01*
X139152421Y-50673600D01*
X139366507Y-50773429D01*
X139366516Y-50773433D01*
X139580000Y-50830634D01*
X139580000Y-49933012D01*
X139637007Y-49965925D01*
X139764174Y-50000000D01*
X139895826Y-50000000D01*
X140022993Y-49965925D01*
X140080000Y-49933012D01*
X140080000Y-50830633D01*
X140293483Y-50773433D01*
X140293492Y-50773429D01*
X140507578Y-50673600D01*
X140701082Y-50538105D01*
X140868105Y-50371082D01*
X140998119Y-50185405D01*
X141052696Y-50141781D01*
X141122195Y-50134588D01*
X141184549Y-50166110D01*
X141201269Y-50185405D01*
X141331505Y-50371401D01*
X141498599Y-50538495D01*
X141595384Y-50606265D01*
X141692165Y-50674032D01*
X141692167Y-50674033D01*
X141692170Y-50674035D01*
X141906337Y-50773903D01*
X142134592Y-50835063D01*
X142311034Y-50850500D01*
X142369999Y-50855659D01*
X142370000Y-50855659D01*
X142370001Y-50855659D01*
X142428966Y-50850500D01*
X142605408Y-50835063D01*
X142833663Y-50773903D01*
X143047830Y-50674035D01*
X143241401Y-50538495D01*
X143363329Y-50416566D01*
X143424648Y-50383084D01*
X143494340Y-50388068D01*
X143550274Y-50429939D01*
X143567189Y-50460917D01*
X143616202Y-50592328D01*
X143616206Y-50592335D01*
X143702452Y-50707544D01*
X143702455Y-50707547D01*
X143817664Y-50793793D01*
X143817671Y-50793797D01*
X143952517Y-50844091D01*
X143952516Y-50844091D01*
X143959444Y-50844835D01*
X144012127Y-50850500D01*
X145807872Y-50850499D01*
X145867483Y-50844091D01*
X146002331Y-50793796D01*
X146117546Y-50707546D01*
X146203796Y-50592331D01*
X146254091Y-50457483D01*
X146260500Y-50397873D01*
X146260499Y-48602128D01*
X146254091Y-48542517D01*
X146252810Y-48539083D01*
X146203797Y-48407671D01*
X146203793Y-48407664D01*
X146117547Y-48292455D01*
X146117544Y-48292452D01*
X146002335Y-48206206D01*
X146002328Y-48206202D01*
X145867482Y-48155908D01*
X145867483Y-48155908D01*
X145807883Y-48149501D01*
X145807881Y-48149500D01*
X145807873Y-48149500D01*
X145807864Y-48149500D01*
X144012129Y-48149500D01*
X144012123Y-48149501D01*
X143952516Y-48155908D01*
X143817671Y-48206202D01*
X143817664Y-48206206D01*
X143702455Y-48292452D01*
X143702452Y-48292455D01*
X143616206Y-48407664D01*
X143616203Y-48407669D01*
X143567189Y-48539083D01*
X143525317Y-48595016D01*
X143459853Y-48619433D01*
X143391580Y-48604581D01*
X143363326Y-48583430D01*
X143241402Y-48461506D01*
X143241395Y-48461501D01*
X143047834Y-48325967D01*
X143047830Y-48325965D01*
X142976727Y-48292809D01*
X142833663Y-48226097D01*
X142833659Y-48226096D01*
X142833655Y-48226094D01*
X142605413Y-48164938D01*
X142605403Y-48164936D01*
X142370001Y-48144341D01*
X142369999Y-48144341D01*
X142134596Y-48164936D01*
X142134586Y-48164938D01*
X141906344Y-48226094D01*
X141906335Y-48226098D01*
X141692171Y-48325964D01*
X141692169Y-48325965D01*
X141498597Y-48461505D01*
X141331508Y-48628594D01*
X141201269Y-48814595D01*
X141146692Y-48858219D01*
X141077193Y-48865412D01*
X141014839Y-48833890D01*
X140998119Y-48814594D01*
X140868113Y-48628926D01*
X140868108Y-48628920D01*
X140701082Y-48461894D01*
X140507578Y-48326399D01*
X140293492Y-48226570D01*
X140293486Y-48226567D01*
X140080000Y-48169364D01*
X140080000Y-49066988D01*
X140022993Y-49034075D01*
X139895826Y-49000000D01*
X139764174Y-49000000D01*
X139637007Y-49034075D01*
X139580000Y-49066988D01*
X139580000Y-48169364D01*
X139579999Y-48169364D01*
X139366513Y-48226567D01*
X139366507Y-48226570D01*
X139152422Y-48326399D01*
X139152420Y-48326400D01*
X138958926Y-48461886D01*
X138958920Y-48461891D01*
X138791891Y-48628920D01*
X138791886Y-48628926D01*
X138656400Y-48822420D01*
X138656399Y-48822422D01*
X138556570Y-49036507D01*
X138556567Y-49036513D01*
X138499364Y-49249999D01*
X130741153Y-49249999D01*
X130683903Y-49036337D01*
X130584035Y-48822171D01*
X130578731Y-48814595D01*
X130448494Y-48628597D01*
X130281402Y-48461506D01*
X130281395Y-48461501D01*
X130087834Y-48325967D01*
X130087830Y-48325965D01*
X130016727Y-48292809D01*
X129873663Y-48226097D01*
X129873659Y-48226096D01*
X129873655Y-48226094D01*
X129645413Y-48164938D01*
X129645403Y-48164936D01*
X129410001Y-48144341D01*
X129409999Y-48144341D01*
X129174596Y-48164936D01*
X129174586Y-48164938D01*
X128946344Y-48226094D01*
X128946335Y-48226098D01*
X128732171Y-48325964D01*
X128732169Y-48325965D01*
X128538600Y-48461503D01*
X128416673Y-48583430D01*
X128355350Y-48616914D01*
X128285658Y-48611930D01*
X128229725Y-48570058D01*
X128212810Y-48539081D01*
X128163797Y-48407671D01*
X128163793Y-48407664D01*
X128077547Y-48292455D01*
X128077544Y-48292452D01*
X127962335Y-48206206D01*
X127962328Y-48206202D01*
X127827482Y-48155908D01*
X127827483Y-48155908D01*
X127767883Y-48149501D01*
X127767881Y-48149500D01*
X127767873Y-48149500D01*
X127767864Y-48149500D01*
X125972129Y-48149500D01*
X125972123Y-48149501D01*
X125912516Y-48155908D01*
X125777671Y-48206202D01*
X125777664Y-48206206D01*
X125662455Y-48292452D01*
X125662452Y-48292455D01*
X125576206Y-48407664D01*
X125576202Y-48407671D01*
X125525908Y-48542517D01*
X125520223Y-48595404D01*
X125519501Y-48602123D01*
X125519500Y-48602135D01*
X117034997Y-48602135D01*
X117028598Y-48542627D01*
X117028596Y-48542620D01*
X116978354Y-48407913D01*
X116978350Y-48407906D01*
X116892190Y-48292812D01*
X116892187Y-48292809D01*
X116777093Y-48206649D01*
X116777086Y-48206645D01*
X116642379Y-48156403D01*
X116642372Y-48156401D01*
X116582844Y-48150000D01*
X115935000Y-48150000D01*
X115935000Y-49066988D01*
X115877993Y-49034075D01*
X115750826Y-49000000D01*
X115619174Y-49000000D01*
X115492007Y-49034075D01*
X115435000Y-49066988D01*
X115435000Y-48150000D01*
X114787155Y-48150000D01*
X114727627Y-48156401D01*
X114727620Y-48156403D01*
X114592913Y-48206645D01*
X114592906Y-48206649D01*
X114477812Y-48292809D01*
X114477809Y-48292812D01*
X114391649Y-48407906D01*
X114391645Y-48407913D01*
X114342578Y-48539470D01*
X114300707Y-48595404D01*
X114235242Y-48619821D01*
X114166969Y-48604969D01*
X114138715Y-48583819D01*
X114085185Y-48530289D01*
X114016401Y-48461505D01*
X114016397Y-48461502D01*
X114016396Y-48461501D01*
X113822834Y-48325967D01*
X113822830Y-48325965D01*
X113751727Y-48292809D01*
X113608663Y-48226097D01*
X113608659Y-48226096D01*
X113608655Y-48226094D01*
X113380413Y-48164938D01*
X113380403Y-48164936D01*
X113145001Y-48144341D01*
X113144999Y-48144341D01*
X112909596Y-48164936D01*
X112909586Y-48164938D01*
X112681344Y-48226094D01*
X112681335Y-48226098D01*
X112467171Y-48325964D01*
X112467169Y-48325965D01*
X112273597Y-48461505D01*
X112106505Y-48628597D01*
X111970965Y-48822169D01*
X111970964Y-48822171D01*
X111871098Y-49036335D01*
X111871094Y-49036344D01*
X111809938Y-49264586D01*
X111809936Y-49264596D01*
X111789341Y-49499999D01*
X100500500Y-49499999D01*
X100500500Y-47502706D01*
X100500618Y-47497297D01*
X100503377Y-47434108D01*
X100505796Y-47378711D01*
X103149500Y-47378711D01*
X103149500Y-47621288D01*
X103181161Y-47861785D01*
X103243947Y-48096104D01*
X103336773Y-48320205D01*
X103336776Y-48320212D01*
X103458064Y-48530289D01*
X103458066Y-48530292D01*
X103458067Y-48530293D01*
X103605733Y-48722736D01*
X103605739Y-48722743D01*
X103777256Y-48894260D01*
X103777262Y-48894265D01*
X103969711Y-49041936D01*
X104179788Y-49163224D01*
X104403900Y-49256054D01*
X104638211Y-49318838D01*
X104818586Y-49342584D01*
X104878711Y-49350500D01*
X104878712Y-49350500D01*
X105121289Y-49350500D01*
X105169388Y-49344167D01*
X105361789Y-49318838D01*
X105596100Y-49256054D01*
X105820212Y-49163224D01*
X106030289Y-49041936D01*
X106222738Y-48894265D01*
X106394265Y-48722738D01*
X106541936Y-48530289D01*
X106663224Y-48320212D01*
X106756054Y-48096100D01*
X106818838Y-47861789D01*
X106850500Y-47621288D01*
X106850500Y-47378712D01*
X106850500Y-47378711D01*
X149149500Y-47378711D01*
X149149500Y-47621288D01*
X149181161Y-47861785D01*
X149243947Y-48096104D01*
X149336773Y-48320205D01*
X149336776Y-48320212D01*
X149458064Y-48530289D01*
X149458066Y-48530292D01*
X149458067Y-48530293D01*
X149605733Y-48722736D01*
X149605739Y-48722743D01*
X149777256Y-48894260D01*
X149777262Y-48894265D01*
X149969711Y-49041936D01*
X150179788Y-49163224D01*
X150403900Y-49256054D01*
X150638211Y-49318838D01*
X150818586Y-49342584D01*
X150878711Y-49350500D01*
X150878712Y-49350500D01*
X151121289Y-49350500D01*
X151169388Y-49344167D01*
X151361789Y-49318838D01*
X151596100Y-49256054D01*
X151820212Y-49163224D01*
X152030289Y-49041936D01*
X152222738Y-48894265D01*
X152394265Y-48722738D01*
X152541936Y-48530289D01*
X152663224Y-48320212D01*
X152756054Y-48096100D01*
X152818838Y-47861789D01*
X152850500Y-47621288D01*
X152850500Y-47378712D01*
X152818838Y-47138211D01*
X152756054Y-46903900D01*
X152663224Y-46679788D01*
X152541936Y-46469711D01*
X152394265Y-46277262D01*
X152394260Y-46277256D01*
X152222743Y-46105739D01*
X152222736Y-46105733D01*
X152030293Y-45958067D01*
X152030292Y-45958066D01*
X152030289Y-45958064D01*
X151820212Y-45836776D01*
X151820205Y-45836773D01*
X151596104Y-45743947D01*
X151361785Y-45681161D01*
X151121289Y-45649500D01*
X151121288Y-45649500D01*
X150878712Y-45649500D01*
X150878711Y-45649500D01*
X150638214Y-45681161D01*
X150403895Y-45743947D01*
X150179794Y-45836773D01*
X150179785Y-45836777D01*
X149969706Y-45958067D01*
X149777263Y-46105733D01*
X149777256Y-46105739D01*
X149605739Y-46277256D01*
X149605733Y-46277263D01*
X149458067Y-46469706D01*
X149336777Y-46679785D01*
X149336773Y-46679794D01*
X149243947Y-46903895D01*
X149181161Y-47138214D01*
X149149500Y-47378711D01*
X106850500Y-47378711D01*
X106818838Y-47138211D01*
X106756054Y-46903900D01*
X106663224Y-46679788D01*
X106541936Y-46469711D01*
X106394265Y-46277262D01*
X106394260Y-46277256D01*
X106222743Y-46105739D01*
X106222736Y-46105733D01*
X106030293Y-45958067D01*
X106030292Y-45958066D01*
X106030289Y-45958064D01*
X105820212Y-45836776D01*
X105820205Y-45836773D01*
X105596104Y-45743947D01*
X105361785Y-45681161D01*
X105121289Y-45649500D01*
X105121288Y-45649500D01*
X104878712Y-45649500D01*
X104878711Y-45649500D01*
X104638214Y-45681161D01*
X104403895Y-45743947D01*
X104179794Y-45836773D01*
X104179785Y-45836777D01*
X103969706Y-45958067D01*
X103777263Y-46105733D01*
X103777256Y-46105739D01*
X103605739Y-46277256D01*
X103605733Y-46277263D01*
X103458067Y-46469706D01*
X103336777Y-46679785D01*
X103336773Y-46679794D01*
X103243947Y-46903895D01*
X103181161Y-47138214D01*
X103149500Y-47378711D01*
X100505796Y-47378711D01*
X100517386Y-47113226D01*
X100518326Y-47102495D01*
X100568152Y-46724025D01*
X100570025Y-46713405D01*
X100652649Y-46340709D01*
X100655440Y-46330295D01*
X100770230Y-45966227D01*
X100773917Y-45956095D01*
X100920003Y-45603412D01*
X100924561Y-45593638D01*
X101100822Y-45255045D01*
X101106217Y-45245700D01*
X101311325Y-44923744D01*
X101317515Y-44914905D01*
X101549896Y-44612060D01*
X101556834Y-44603791D01*
X101814726Y-44322352D01*
X101822352Y-44314726D01*
X102103791Y-44056834D01*
X102112060Y-44049896D01*
X102414905Y-43817515D01*
X102423744Y-43811325D01*
X102745700Y-43606217D01*
X102755045Y-43600822D01*
X103093638Y-43424561D01*
X103103412Y-43420003D01*
X103456095Y-43273917D01*
X103466227Y-43270230D01*
X103830295Y-43155440D01*
X103840709Y-43152649D01*
X104213405Y-43070025D01*
X104224025Y-43068152D01*
X104602495Y-43018326D01*
X104613226Y-43017386D01*
X104997297Y-43000617D01*
X105002706Y-43000500D01*
X105065892Y-43000500D01*
X150934108Y-43000500D01*
X150997294Y-43000500D01*
X151002702Y-43000617D01*
G37*
%TD.AperFunction*%
%TD*%
M02*
